ISO-10303-21;
HEADER;
FILE_DESCRIPTION (( 'STEP AP214' ),
    '1' );
FILE_NAME ('20260414_160844_73.STEP',
    '2026-04-16T14:27:30',
    ( '' ),
    ( '' ),
    'SwSTEP 2.0',
    'SolidWorks 2025',
    '' );
FILE_SCHEMA (( 'AUTOMOTIVE_DESIGN' ));
ENDSEC;

DATA;
#1 = CARTESIAN_POINT ( 'NONE',  ( 22.34029697410000281, 69.95269589910401464, 29.87557864866700186 ) ) ;
#2 = ORIENTED_EDGE ( 'NONE', *, *, #617, .F. ) ;
#3 = DIRECTION ( 'NONE',  ( 0.000000000000000000, -0.1524107292649915513, -0.9883172413779461873 ) ) ;
#4 = ADVANCED_FACE ( 'NONE', ( #647 ), #974, .F. ) ;
#5 = EDGE_CURVE ( 'NONE', #735, #369, #363, .T. ) ;
#6 = DIRECTION ( 'NONE',  ( 0.000000000000000000, 1.000000000000000000, 0.000000000000000000 ) ) ;
#7 = VERTEX_POINT ( 'NONE', #1048 ) ;
#8 = VERTEX_POINT ( 'NONE', #567 ) ;
#9 = CARTESIAN_POINT ( 'NONE',  ( 35.28015231067600155, 69.95269589910401464, 19.98547168915199634 ) ) ;
#10 = VECTOR ( 'NONE', #956, 1000.000000000000000 ) ;
#11 = EDGE_CURVE ( 'NONE', #894, #691, #662, .T. ) ;
#12 = CARTESIAN_POINT ( 'NONE',  ( 0.000000000000000000, 26.34799808985300018, 12.25962338669199880 ) ) ;
#13 = CARTESIAN_POINT ( 'NONE',  ( 22.34029697410000281, 69.95269589910401464, 49.05084525267299966 ) ) ;
#14 = ORIENTED_EDGE ( 'NONE', *, *, #114, .F. ) ;
#15 = VERTEX_POINT ( 'NONE', #586 ) ;
#16 = CARTESIAN_POINT ( 'NONE',  ( 0.000000000000000000, 0.000000000000000000, 71.33106436773199732 ) ) ;
#17 = VECTOR ( 'NONE', #486, 1000.000000000000000 ) ;
#18 = FACE_OUTER_BOUND ( 'NONE', #440, .T. ) ;
#19 = DIRECTION ( 'NONE',  ( 1.000000000000000000, 0.000000000000000000, 0.000000000000000000 ) ) ;
#20 = EDGE_LOOP ( 'NONE', ( #949, #91, #302, #376 ) ) ;
#21 = ORIENTED_EDGE ( 'NONE', *, *, #964, .T. ) ;
#22 = LINE ( 'NONE', #195, #99 ) ;
#23 = EDGE_CURVE ( 'NONE', #579, #468, #913, .T. ) ;
#24 = AXIS2_PLACEMENT_3D ( 'NONE', #797, #58, #33 ) ;
#25 = CARTESIAN_POINT ( 'NONE',  ( 38.94778661765599992, 61.86465491630499969, 11.01474884107200047 ) ) ;
#26 = DIRECTION ( 'NONE',  ( -1.000000000000000000, 0.000000000000000000, 0.000000000000000000 ) ) ;
#27 = AXIS2_PLACEMENT_3D ( 'NONE', #325, #847, #396 ) ;
#28 = VERTEX_POINT ( 'NONE', #667 ) ;
#29 = CARTESIAN_POINT ( 'NONE',  ( 35.28015231067600155, 69.95269589910401464, 19.98547168915199634 ) ) ;
#30 = CARTESIAN_POINT ( 'NONE',  ( 6.959142312055000446, 0.000000000000000000, 49.05084525267299966 ) ) ;
#31 = CARTESIAN_POINT ( 'NONE',  ( 56.00256315030799925, 69.95269589910401464, 28.45772372567899922 ) ) ;
#32 = VECTOR ( 'NONE', #907, 1000.000000000000114 ) ;
#33 = DIRECTION ( 'NONE',  ( -1.000000000000000000, 0.000000000000000000, 0.000000000000000000 ) ) ;
#34 = ORIENTED_EDGE ( 'NONE', *, *, #1087, .F. ) ;
#35 = EDGE_LOOP ( 'NONE', ( #813, #488, #543, #550, #966, #772, #2, #942 ) ) ;
#36 = DIRECTION ( 'NONE',  ( 1.000000000000000000, 0.000000000000000000, 0.000000000000000000 ) ) ;
#37 = ADVANCED_BREP_SHAPE_REPRESENTATION ( '20260414_160844_73', ( #656, #1103 ), #645 ) ;
#38 = PLANE ( 'NONE',  #397 ) ;
#39 = DIRECTION ( 'NONE',  ( 0.000000000000000000, 0.000000000000000000, 1.000000000000000000 ) ) ;
#40 = ORIENTED_EDGE ( 'NONE', *, *, #196, .F. ) ;
#41 = ORIENTED_EDGE ( 'NONE', *, *, #1069, .F. ) ;
#42 = ORIENTED_EDGE ( 'NONE', *, *, #594, .T. ) ;
#43 = LINE ( 'NONE', #377, #503 ) ;
#44 = EDGE_CURVE ( 'NONE', #362, #8, #820, .T. ) ;
#45 = FACE_OUTER_BOUND ( 'NONE', #566, .T. ) ;
#46 = LINE ( 'NONE', #230, #545 ) ;
#47 = ORIENTED_EDGE ( 'NONE', *, *, #585, .T. ) ;
#48 = ORIENTED_EDGE ( 'NONE', *, *, #561, .F. ) ;
#49 = EDGE_LOOP ( 'NONE', ( #985, #54, #799, #394, #631, #632, #210, #625 ) ) ;
#50 = EDGE_CURVE ( 'NONE', #707, #192, #744, .T. ) ;
#51 = ORIENTED_EDGE ( 'NONE', *, *, #127, .F. ) ;
#52 = LINE ( 'NONE', #391, #1016 ) ;
#53 = ORIENTED_EDGE ( 'NONE', *, *, #739, .F. ) ;
#54 = ORIENTED_EDGE ( 'NONE', *, *, #455, .F. ) ;
#55 = CARTESIAN_POINT ( 'NONE',  ( 56.00256315030799925, 69.95269589910401464, 28.45772372567899922 ) ) ;
#56 = PLANE ( 'NONE',  #27 ) ;
#57 = DIRECTION ( 'NONE',  ( 0.000000000000000000, 0.000000000000000000, 1.000000000000000000 ) ) ;
#58 = DIRECTION ( 'NONE',  ( 0.000000000000000000, 0.000000000000000000, -1.000000000000000000 ) ) ;
#59 = EDGE_LOOP ( 'NONE', ( #1024, #715, #41, #1018 ) ) ;
#60 = VERTEX_POINT ( 'NONE', #145 ) ;
#61 = CARTESIAN_POINT ( 'NONE',  ( 36.08771799351099929, 38.51926359634799724, 65.26653107407300070 ) ) ;
#62 = EDGE_CURVE ( 'NONE', #349, #289, #1075, .T. ) ;
#63 = CARTESIAN_POINT ( 'NONE',  ( 22.34029697410000281, 69.95269589910401464, 29.87557864866700186 ) ) ;
#64 = VERTEX_POINT ( 'NONE', #167 ) ;
#65 = DIRECTION ( 'NONE',  ( -0.000000000000000000, 1.000000000000000000, 0.000000000000000000 ) ) ;
#66 = DIRECTION ( 'NONE',  ( 0.000000000000000000, 0.000000000000000000, -1.000000000000000000 ) ) ;
#67 = AXIS2_PLACEMENT_3D ( 'NONE', #759, #497, #669 ) ;
#68 = DIRECTION ( 'NONE',  ( -1.000000000000000000, 0.000000000000000000, 0.000000000000000000 ) ) ;
#69 = AXIS2_PLACEMENT_3D ( 'NONE', #156, #587, #1097 ) ;
#70 = FACE_BOUND ( 'NONE', #908, .T. ) ;
#71 = VECTOR ( 'NONE', #36, 1000.000000000000000 ) ;
#72 = LINE ( 'NONE', #750, #841 ) ;
#73 = CARTESIAN_POINT ( 'NONE',  ( 22.34029697410000281, 69.95269589910401464, 29.87557864866700186 ) ) ;
#74 = VECTOR ( 'NONE', #822, 1000.000000000000000 ) ;
#75 = CARTESIAN_POINT ( 'NONE',  ( 0.000000000000000000, 26.34799808985300018, 0.000000000000000000 ) ) ;
#76 = AXIS2_PLACEMENT_3D ( 'NONE', #270, #274, #180 ) ;
#77 = DIRECTION ( 'NONE',  ( 1.000000000000000000, 0.000000000000000000, 0.000000000000000000 ) ) ;
#78 = FACE_OUTER_BOUND ( 'NONE', #387, .T. ) ;
#79 = CARTESIAN_POINT ( 'NONE',  ( 38.94778661765599992, 69.95269589910401464, 11.01474884107200047 ) ) ;
#80 = EDGE_CURVE ( 'NONE', #7, #707, #328, .T. ) ;
#81 = CARTESIAN_POINT ( 'NONE',  ( 29.21702848396799723, 47.38972194368400181, 0.000000000000000000 ) ) ;
#82 = EDGE_CURVE ( 'NONE', #1072, #279, #1003, .T. ) ;
#83 = ORIENTED_EDGE ( 'NONE', *, *, #699, .T. ) ;
#84 = DIRECTION ( 'NONE',  ( 0.9256267350472756616, 0.000000000000000000, 0.3784377721181124143 ) ) ;
#85 = AXIS2_PLACEMENT_3D ( 'NONE', #706, #1100, #26 ) ;
#86 = CARTESIAN_POINT ( 'NONE',  ( 86.44753291965899678, 59.04085948608799583, 34.46016432083399650 ) ) ;
#87 = EDGE_LOOP ( 'NONE', ( #21, #798, #224, #173 ) ) ;
#88 = CARTESIAN_POINT ( 'NONE',  ( 13.91828462411000089, 57.86425092911400014, 26.83036995651699996 ) ) ;
#89 = ADVANCED_FACE ( 'NONE', ( #152 ), #494, .F. ) ;
#90 = FACE_OUTER_BOUND ( 'NONE', #297, .T. ) ;
#91 = ORIENTED_EDGE ( 'NONE', *, *, #681, .T. ) ;
#92 = DIRECTION ( 'NONE',  ( 0.000000000000000000, -0.9372236596577309120, -0.3487288513698999504 ) ) ;
#93 = EDGE_CURVE ( 'NONE', #489, #1072, #417, .T. ) ;
#94 = DIRECTION ( 'NONE',  ( 0.000000000000000000, 1.000000000000000000, 0.000000000000000000 ) ) ;
#95 = DIRECTION ( 'NONE',  ( 0.000000000000000000, 1.000000000000000000, 0.000000000000000000 ) ) ;
#96 = ORIENTED_EDGE ( 'NONE', *, *, #628, .F. ) ;
#97 = ORIENTED_EDGE ( 'NONE', *, *, #419, .F. ) ;
#98 = CARTESIAN_POINT ( 'NONE',  ( 0.000000000000000000, 38.51926359634799724, 61.47309817792599773 ) ) ;
#99 = VECTOR ( 'NONE', #291, 1000.000000000000000 ) ;
#100 = DIRECTION ( 'NONE',  ( 0.3784377721181124143, 0.000000000000000000, -0.9256267350472756616 ) ) ;
#101 = DIRECTION ( 'NONE',  ( 0.000000000000000000, -1.000000000000000000, 0.000000000000000000 ) ) ;
#102 = EDGE_LOOP ( 'NONE', ( #1104, #403, #14, #1058 ) ) ;
#103 = EDGE_CURVE ( 'NONE', #132, #125, #72, .T. ) ;
#104 = ORIENTED_EDGE ( 'NONE', *, *, #778, .T. ) ;
#105 = DIRECTION ( 'NONE',  ( 0.000000000000000000, 0.000000000000000000, -1.000000000000000000 ) ) ;
#106 = VECTOR ( 'NONE', #764, 1000.000000000000000 ) ;
#107 = PRODUCT_DEFINITION_SHAPE ( 'NONE', 'NONE',  #1044 ) ;
#108 = PLANE ( 'NONE',  #268 ) ;
#109 = DIRECTION ( 'NONE',  ( 0.000000000000000000, 0.7071067811865474617, -0.7071067811865474617 ) ) ;
#110 = ORIENTED_EDGE ( 'NONE', *, *, #514, .T. ) ;
#111 = ORIENTED_EDGE ( 'NONE', *, *, #208, .F. ) ;
#112 = FACE_OUTER_BOUND ( 'NONE', #20, .T. ) ;
#113 = FACE_BOUND ( 'NONE', #639, .T. ) ;
#114 = EDGE_CURVE ( 'NONE', #192, #644, #774, .T. ) ;
#115 = CARTESIAN_POINT ( 'NONE',  ( 38.94778661765599992, 69.95269589910401464, 11.01474884107200047 ) ) ;
#116 = VECTOR ( 'NONE', #257, 1000.000000000000000 ) ;
#117 = ORIENTED_EDGE ( 'NONE', *, *, #1073, .T. ) ;
#118 = EDGE_LOOP ( 'NONE', ( #266, #111, #432, #812 ) ) ;
#119 = CARTESIAN_POINT ( 'NONE',  ( 86.44753291965899678, 57.12474782681599805, 22.03501421236100200 ) ) ;
#120 = CARTESIAN_POINT ( 'NONE',  ( 0.000000000000000000, 0.000000000000000000, 71.33106436773199732 ) ) ;
#121 = AXIS2_PLACEMENT_3D ( 'NONE', #663, #153, #989 ) ;
#122 = DIRECTION ( 'NONE',  ( 0.3784377721181124143, 0.000000000000000000, -0.9256267350472757727 ) ) ;
#123 = VERTEX_POINT ( 'NONE', #324 ) ;
#124 = ORIENTED_EDGE ( 'NONE', *, *, #923, .F. ) ;
#125 = VERTEX_POINT ( 'NONE', #139 ) ;
#126 = CARTESIAN_POINT ( 'NONE',  ( 36.43079251898200965, 0.000000000000000000, 45.71183827355899609 ) ) ;
#127 = EDGE_CURVE ( 'NONE', #123, #1042, #482, .T. ) ;
#128 = VECTOR ( 'NONE', #351, 1000.000000000000000 ) ;
#129 = CARTESIAN_POINT ( 'NONE',  ( 11.17014848704999963, 0.000000000000000000, 29.87557864866700186 ) ) ;
#130 = CARTESIAN_POINT ( 'NONE',  ( 0.000000000000000000, 33.69726108550199939, 61.47309817792599773 ) ) ;
#131 = ORIENTED_EDGE ( 'NONE', *, *, #134, .F. ) ;
#132 = VERTEX_POINT ( 'NONE', #582 ) ;
#133 = ORIENTED_EDGE ( 'NONE', *, *, #80, .F. ) ;
#134 = EDGE_CURVE ( 'NONE', #992, #827, #754, .T. ) ;
#135 = CARTESIAN_POINT ( 'NONE',  ( 13.91828462411000089, 63.08406764067600392, 35.96458999454500116 ) ) ;
#136 = DIRECTION ( 'NONE',  ( 0.000000000000000000, 0.000000000000000000, 1.000000000000000000 ) ) ;
#137 = EDGE_LOOP ( 'NONE', ( #1001, #843, #818, #948 ) ) ;
#138 = VERTEX_POINT ( 'NONE', #995 ) ;
#139 = CARTESIAN_POINT ( 'NONE',  ( 59.67019745728799762, 61.86465491630499969, 19.48700087759900157 ) ) ;
#140 = DIRECTION ( 'NONE',  ( 0.000000000000000000, 0.000000000000000000, 1.000000000000000000 ) ) ;
#141 = LINE ( 'NONE', #471, #17 ) ;
#142 = SURFACE_STYLE_FILL_AREA ( #713 ) ;
#143 = ORIENTED_EDGE ( 'NONE', *, *, #211, .F. ) ;
#144 = ORIENTED_EDGE ( 'NONE', *, *, #93, .T. ) ;
#145 = CARTESIAN_POINT ( 'NONE',  ( 36.43079251898200965, 3.334913343965000276, 45.71183827355899609 ) ) ;
#146 = EDGE_CURVE ( 'NONE', #60, #28, #786, .T. ) ;
#147 = LINE ( 'NONE', #484, #238 ) ;
#148 = VERTEX_POINT ( 'NONE', #808 ) ;
#149 = DIRECTION ( 'NONE',  ( 0.000000000000000000, 0.000000000000000000, 1.000000000000000000 ) ) ;
#150 = VECTOR ( 'NONE', #932, 1000.000000000000114 ) ;
#151 = DIRECTION ( 'NONE',  ( -1.000000000000000000, 0.000000000000000000, 0.000000000000000000 ) ) ;
#152 = FACE_OUTER_BOUND ( 'NONE', #1052, .T. ) ;
#153 = DIRECTION ( 'NONE',  ( 3.068758840053031919E-17, -0.7071067811865475727, -0.7071067811865475727 ) ) ;
#154 = CARTESIAN_POINT ( 'NONE',  ( 0.000000000000000000, 33.69726108550199939, 65.26653107407300070 ) ) ;
#155 = CARTESIAN_POINT ( 'NONE',  ( 22.34029697410000281, 0.000000000000000000, 24.52542262633699721 ) ) ;
#156 = CARTESIAN_POINT ( 'NONE',  ( 13.91828462411000089, 69.95269589910401464, 29.87557864866700186 ) ) ;
#157 = ORIENTED_EDGE ( 'NONE', *, *, #867, .F. ) ;
#158 = VERTEX_POINT ( 'NONE', #81 ) ;
#159 = LINE ( 'NONE', #504, #313 ) ;
#160 = VECTOR ( 'NONE', #212, 1000.000000000000114 ) ;
#161 = CARTESIAN_POINT ( 'NONE',  ( 56.00256315030799925, 61.86465491630499969, 28.45772372567899922 ) ) ;
#162 = ADVANCED_FACE ( 'NONE', ( #800 ), #961, .F. ) ;
#163 = AXIS2_PLACEMENT_3D ( 'NONE', #990, #399, #963 ) ;
#164 = EDGE_CURVE ( 'NONE', #123, #728, #22, .T. ) ;
#165 = DIRECTION ( 'NONE',  ( 1.000000000000000000, 0.000000000000000000, 0.000000000000000000 ) ) ;
#166 = CARTESIAN_POINT ( 'NONE',  ( 22.34029697410000281, 58.33385973295199989, 29.87557864866700186 ) ) ;
#167 = CARTESIAN_POINT ( 'NONE',  ( 29.21702848396799723, 47.38972194368400181, 5.849773811630000431 ) ) ;
#168 = AXIS2_PLACEMENT_3D ( 'NONE', #294, #374, #548 ) ;
#169 = CARTESIAN_POINT ( 'NONE',  ( 59.67019745728799762, 69.95269589910401464, 19.48700087759900157 ) ) ;
#170 = CIRCLE ( 'NONE', #317, 4.822002510846003176 ) ;
#171 = CARTESIAN_POINT ( 'NONE',  ( 86.44753291965899678, 26.34799808985300018, 6.237454061195999877 ) ) ;
#172 = EDGE_CURVE ( 'NONE', #216, #148, #968, .T. ) ;
#173 = ORIENTED_EDGE ( 'NONE', *, *, #378, .F. ) ;
#174 = LINE ( 'NONE', #770, #1023 ) ;
#175 = AXIS2_PLACEMENT_3D ( 'NONE', #965, #439, #101 ) ;
#176 = DIRECTION ( 'NONE',  ( -1.000000000000000000, 0.000000000000000000, 0.000000000000000000 ) ) ;
#177 = ADVANCED_FACE ( 'NONE', ( #704, #1049 ), #538, .F. ) ;
#178 = ORIENTED_EDGE ( 'NONE', *, *, #249, .F. ) ;
#179 = DIRECTION ( 'NONE',  ( -1.000000000000000000, 0.000000000000000000, 0.000000000000000000 ) ) ;
#180 = DIRECTION ( 'NONE',  ( 1.000000000000000000, 0.000000000000000000, 0.000000000000000000 ) ) ;
#181 = CARTESIAN_POINT ( 'NONE',  ( 36.08771799351099929, 43.34126610719400219, 61.47309817792599773 ) ) ;
#182 = ORIENTED_EDGE ( 'NONE', *, *, #319, .F. ) ;
#183 = ORIENTED_EDGE ( 'NONE', *, *, #50, .T. ) ;
#184 = LINE ( 'NONE', #350, #937 ) ;
#185 = PRODUCT_RELATED_PRODUCT_CATEGORY ( 'part', '', ( #945 ) ) ;
#186 = LINE ( 'NONE', #606, #1095 ) ;
#187 = LINE ( 'NONE', #619, #1026 ) ;
#188 = ORIENTED_EDGE ( 'NONE', *, *, #208, .T. ) ;
#189 = DIRECTION ( 'NONE',  ( 0.000000000000000000, 1.000000000000000000, 0.000000000000000000 ) ) ;
#190 = DIRECTION ( 'NONE',  ( 1.000000000000000000, 0.000000000000000000, 0.000000000000000000 ) ) ;
#191 = FACE_BOUND ( 'NONE', #721, .T. ) ;
#192 = VERTEX_POINT ( 'NONE', #633 ) ;
#193 = EDGE_CURVE ( 'NONE', #860, #473, #280, .T. ) ;
#194 = EDGE_LOOP ( 'NONE', ( #904, #661, #879, #765 ) ) ;
#195 = CARTESIAN_POINT ( 'NONE',  ( 0.000000000000000000, 69.95269589910401464, 0.000000000000000000 ) ) ;
#196 = EDGE_CURVE ( 'NONE', #603, #735, #622, .T. ) ;
#197 = CARTESIAN_POINT ( 'NONE',  ( 13.91828462411000089, 69.95269589910401464, 29.87557864866700186 ) ) ;
#198 = AXIS2_PLACEMENT_3D ( 'NONE', #29, #551, #449 ) ;
#199 = CARTESIAN_POINT ( 'NONE',  ( 86.44753291965899678, 69.95269589910401464, 0.000000000000000000 ) ) ;
#200 = ORIENTED_EDGE ( 'NONE', *, *, #103, .T. ) ;
#201 = VERTEX_POINT ( 'NONE', #895 ) ;
#202 = CARTESIAN_POINT ( 'NONE',  ( 0.000000000000000000, 0.000000000000000000, 71.33106436773199732 ) ) ;
#203 = AXIS2_PLACEMENT_3D ( 'NONE', #749, #65, #1011 ) ;
#204 = CARTESIAN_POINT ( 'NONE',  ( 36.43079251898200965, 69.95269589910401464, 42.78210434725200173 ) ) ;
#205 = CARTESIAN_POINT ( 'NONE',  ( 59.67019745728799762, 69.95269589910401464, 19.48700087759900157 ) ) ;
#206 = AXIS2_PLACEMENT_3D ( 'NONE', #226, #68, #501 ) ;
#207 = ORIENTED_EDGE ( 'NONE', *, *, #23, .F. ) ;
#208 = EDGE_CURVE ( 'NONE', #1006, #971, #887, .T. ) ;
#209 = VERTEX_POINT ( 'NONE', #469 ) ;
#210 = ORIENTED_EDGE ( 'NONE', *, *, #172, .F. ) ;
#211 = EDGE_CURVE ( 'NONE', #138, #644, #710, .T. ) ;
#212 = DIRECTION ( 'NONE',  ( 0.000000000000000000, -0.9372236596577309120, -0.3487288513698999504 ) ) ;
#213 = AXIS2_PLACEMENT_3D ( 'NONE', #61, #404, #906 ) ;
#214 = LINE ( 'NONE', #1079, #848 ) ;
#215 = SURFACE_SIDE_STYLE ('',( #142 ) ) ;
#216 = VERTEX_POINT ( 'NONE', #119 ) ;
#217 = EDGE_LOOP ( 'NONE', ( #912, #435, #684, #626 ) ) ;
#218 = EDGE_CURVE ( 'NONE', #1041, #579, #716, .T. ) ;
#219 = ORIENTED_EDGE ( 'NONE', *, *, #275, .F. ) ;
#220 = VECTOR ( 'NONE', #859, 1000.000000000000000 ) ;
#221 = DIRECTION ( 'NONE',  ( -0.9975823493905263684, 0.000000000000000000, 0.06949428886230703262 ) ) ;
#222 =( NAMED_UNIT ( * ) PLANE_ANGLE_UNIT ( ) SI_UNIT ( $, .RADIAN. ) );
#223 = ORIENTED_EDGE ( 'NONE', *, *, #934, .F. ) ;
#224 = ORIENTED_EDGE ( 'NONE', *, *, #846, .F. ) ;
#225 = ORIENTED_EDGE ( 'NONE', *, *, #787, .T. ) ;
#226 = CARTESIAN_POINT ( 'NONE',  ( 0.000000000000000000, 38.51926359634799724, 65.26653107407300070 ) ) ;
#227 = ORIENTED_EDGE ( 'NONE', *, *, #103, .F. ) ;
#228 = LINE ( 'NONE', #197, #507 ) ;
#229 = EDGE_CURVE ( 'NONE', #860, #15, #43, .T. ) ;
#230 = CARTESIAN_POINT ( 'NONE',  ( 86.44753291965899678, 57.12474782681599805, 22.03501421236100200 ) ) ;
#231 = ORIENTED_EDGE ( 'NONE', *, *, #359, .F. ) ;
#232 = EDGE_LOOP ( 'NONE', ( #283 ) ) ;
#233 = CARTESIAN_POINT ( 'NONE',  ( 0.000000000000000000, 69.95269589910401464, 0.000000000000000000 ) ) ;
#234 = LINE ( 'NONE', #1077, #345 ) ;
#235 = PRESENTATION_STYLE_ASSIGNMENT (( #659 ) ) ;
#236 = ORIENTED_EDGE ( 'NONE', *, *, #196, .T. ) ;
#237 = EDGE_LOOP ( 'NONE', ( #836, #967, #301, #110 ) ) ;
#238 = VECTOR ( 'NONE', #1013, 1000.000000000000000 ) ;
#239 = DIRECTION ( 'NONE',  ( -1.000000000000000000, 0.000000000000000000, 0.000000000000000000 ) ) ;
#240 = CARTESIAN_POINT ( 'NONE',  ( 36.08771799351099929, 43.34126610719400219, 65.26653107407300070 ) ) ;
#241 = EDGE_LOOP ( 'NONE', ( #375, #447, #621, #144 ) ) ;
#242 = ADVANCED_FACE ( 'NONE', ( #112 ), #456, .F. ) ;
#243 = FACE_BOUND ( 'NONE', #476, .T. ) ;
#244 = DIRECTION ( 'NONE',  ( 0.000000000000000000, 0.000000000000000000, 1.000000000000000000 ) ) ;
#245 = FACE_BOUND ( 'NONE', #194, .T. ) ;
#246 = PLANE ( 'NONE',  #203 ) ;
#247 = ADVANCED_FACE ( 'NONE', ( #873 ), #951, .F. ) ;
#248 = LINE ( 'NONE', #73, #855 ) ;
#249 = EDGE_CURVE ( 'NONE', #1006, #728, #854, .T. ) ;
#250 = VECTOR ( 'NONE', #450, 1000.000000000000000 ) ;
#251 = CARTESIAN_POINT ( 'NONE',  ( 36.08771799351099929, 38.51926359634799724, 63.36981462599899828 ) ) ;
#252 = DIRECTION ( 'NONE',  ( -1.000000000000000000, 0.000000000000000000, 0.000000000000000000 ) ) ;
#253 = ADVANCED_FACE ( 'NONE', ( #344 ), #943, .F. ) ;
#254 = VECTOR ( 'NONE', #411, 1000.000000000000000 ) ;
#255 = ORIENTED_EDGE ( 'NONE', *, *, #922, .F. ) ;
#256 =( GEOMETRIC_REPRESENTATION_CONTEXT ( 3 ) GLOBAL_UNCERTAINTY_ASSIGNED_CONTEXT ( ( #831 ) ) GLOBAL_UNIT_ASSIGNED_CONTEXT ( ( #970, #222, #910 ) ) REPRESENTATION_CONTEXT ( 'NONE', 'WORKASPACE' ) );
#257 = DIRECTION ( 'NONE',  ( 0.000000000000000000, 1.000000000000000000, 0.000000000000000000 ) ) ;
#258 = VECTOR ( 'NONE', #3, 1000.000000000000000 ) ;
#259 = PLANE ( 'NONE',  #607 ) ;
#260 = VECTOR ( 'NONE', #745, 1000.000000000000000 ) ;
#261 = EDGE_LOOP ( 'NONE', ( #814, #807, #481, #227 ) ) ;
#262 = LINE ( 'NONE', #9, #658 ) ;
#263 = VECTOR ( 'NONE', #165, 1000.000000000000000 ) ;
#264 = CARTESIAN_POINT ( 'NONE',  ( 86.44753291965899678, 0.000000000000000000, 71.33106436773199732 ) ) ;
#265 = DIRECTION ( 'NONE',  ( 0.000000000000000000, 1.000000000000000000, 0.000000000000000000 ) ) ;
#266 = ORIENTED_EDGE ( 'NONE', *, *, #521, .T. ) ;
#267 = EDGE_LOOP ( 'NONE', ( #825 ) ) ;
#268 = AXIS2_PLACEMENT_3D ( 'NONE', #434, #771, #6 ) ;
#269 = DIRECTION ( 'NONE',  ( 1.000000000000000000, 0.000000000000000000, 0.000000000000000000 ) ) ;
#270 = CARTESIAN_POINT ( 'NONE',  ( 47.47517488398199959, 61.86465491630499969, 19.73623628337600167 ) ) ;
#271 = CARTESIAN_POINT ( 'NONE',  ( 36.43079251898200965, 1.667456671982000094, 47.37929494554100529 ) ) ;
#272 = ORIENTED_EDGE ( 'NONE', *, *, #193, .F. ) ;
#273 = LINE ( 'NONE', #616, #116 ) ;
#274 = DIRECTION ( 'NONE',  ( -0.000000000000000000, 1.000000000000000000, 0.000000000000000000 ) ) ;
#275 = EDGE_CURVE ( 'NONE', #132, #609, #429, .T. ) ;
#276 = CARTESIAN_POINT ( 'NONE',  ( 43.00990868987399551, 3.334913343965000276, 45.71183827355899609 ) ) ;
#277 = ORIENTED_EDGE ( 'NONE', *, *, #500, .F. ) ;
#278 = EDGE_CURVE ( 'NONE', #148, #691, #686, .T. ) ;
#279 = VERTEX_POINT ( 'NONE', #522 ) ;
#280 = LINE ( 'NONE', #285, #160 ) ;
#281 = DIRECTION ( 'NONE',  ( 0.000000000000000000, 0.000000000000000000, -1.000000000000000000 ) ) ;
#282 = FACE_OUTER_BOUND ( 'NONE', #118, .T. ) ;
#283 = ORIENTED_EDGE ( 'NONE', *, *, #708, .F. ) ;
#284 = ORIENTED_EDGE ( 'NONE', *, *, #134, .T. ) ;
#285 = CARTESIAN_POINT ( 'NONE',  ( 86.44753291965899678, 59.04085948608799583, 34.46016432083399650 ) ) ;
#286 = DIRECTION ( 'NONE',  ( 0.000000000000000000, 1.000000000000000000, 0.000000000000000000 ) ) ;
#287 = ADVANCED_FACE ( 'NONE', ( #763 ), #861, .F. ) ;
#288 = DIRECTION ( 'NONE',  ( 0.000000000000000000, 0.000000000000000000, -1.000000000000000000 ) ) ;
#289 = VERTEX_POINT ( 'NONE', #166 ) ;
#290 = VERTEX_POINT ( 'NONE', #340 ) ;
#291 = DIRECTION ( 'NONE',  ( 0.000000000000000000, 0.000000000000000000, 1.000000000000000000 ) ) ;
#292 = LINE ( 'NONE', #135, #678 ) ;
#293 = EDGE_CURVE ( 'NONE', #201, #992, #262, .T. ) ;
#294 = CARTESIAN_POINT ( 'NONE',  ( 86.44753291965899678, 57.12474782681599805, 22.03501421236100200 ) ) ;
#295 = ORIENTED_EDGE ( 'NONE', *, *, #5, .F. ) ;
#296 = EDGE_LOOP ( 'NONE', ( #467, #1002, #388, #960, #236 ) ) ;
#297 = EDGE_LOOP ( 'NONE', ( #620, #729, #382, #638, #646, #207, #97, #702 ) ) ;
#298 = VECTOR ( 'NONE', #239, 1000.000000000000000 ) ;
#299 = DIRECTION ( 'NONE',  ( 0.000000000000000000, 0.9372236596577309120, 0.3487288513698999504 ) ) ;
#300 = FACE_OUTER_BOUND ( 'NONE', #137, .T. ) ;
#301 = ORIENTED_EDGE ( 'NONE', *, *, #389, .T. ) ;
#302 = ORIENTED_EDGE ( 'NONE', *, *, #596, .F. ) ;
#303 = EDGE_LOOP ( 'NONE', ( #51, #549, #1065, #310 ) ) ;
#304 = PLANE ( 'NONE',  #121 ) ;
#305 = EDGE_CURVE ( 'NONE', #290, #7, #170, .T. ) ;
#306 = AXIS2_PLACEMENT_3D ( 'NONE', #529, #523, #515 ) ;
#307 = FACE_OUTER_BOUND ( 'NONE', #466, .T. ) ;
#308 = CARTESIAN_POINT ( 'NONE',  ( 18.21539625949100483, 69.95269589910401464, 42.78210434725200173 ) ) ;
#309 = VERTEX_POINT ( 'NONE', #335 ) ;
#310 = ORIENTED_EDGE ( 'NONE', *, *, #580, .F. ) ;
#311 = DIRECTION ( 'NONE',  ( 0.000000000000000000, 0.000000000000000000, 1.000000000000000000 ) ) ;
#312 = LINE ( 'NONE', #1091, #838 ) ;
#313 = VECTOR ( 'NONE', #845, 1000.000000000000000 ) ;
#314 = DIRECTION ( 'NONE',  ( -1.000000000000000000, 0.000000000000000000, 0.000000000000000000 ) ) ;
#315 = VERTEX_POINT ( 'NONE', #1017 ) ;
#316 = EDGE_LOOP ( 'NONE', ( #697, #987, #34, #769, #615, #1066, #1063, #537 ) ) ;
#317 = AXIS2_PLACEMENT_3D ( 'NONE', #98, #444, #766 ) ;
#318 = CARTESIAN_POINT ( 'NONE',  ( 54.39391494687900064, 49.37945780682100150, 29.87557864866700186 ) ) ;
#319 = EDGE_CURVE ( 'NONE', #64, #64, #599, .T. ) ;
#320 = CARTESIAN_POINT ( 'NONE',  ( 0.000000000000000000, 48.66455525967099760, 30.59927517547700049 ) ) ;
#321 = APPLICATION_PROTOCOL_DEFINITION ( 'draft international standard', 'automotive_design', 1998, #736 ) ;
#322 = LINE ( 'NONE', #75, #343 ) ;
#323 = VECTOR ( 'NONE', #367, 1000.000000000000000 ) ;
#324 = CARTESIAN_POINT ( 'NONE',  ( 0.000000000000000000, 69.95269589910401464, 0.000000000000000000 ) ) ;
#325 = CARTESIAN_POINT ( 'NONE',  ( 0.000000000000000000, 33.69726108550199939, 61.47309817792599773 ) ) ;
#326 = EDGE_CURVE ( 'NONE', #15, #905, #184, .T. ) ;
#327 = FACE_OUTER_BOUND ( 'NONE', #35, .T. ) ;
#328 = LINE ( 'NONE', #737, #593 ) ;
#329 = DIRECTION ( 'NONE',  ( 0.000000000000000000, -1.000000000000000000, 0.000000000000000000 ) ) ;
#330 = PLANE ( 'NONE',  #356 ) ;
#331 = EDGE_CURVE ( 'NONE', #905, #489, #1019, .T. ) ;
#332 = PLANE ( 'NONE',  #517 ) ;
#333 = APPLICATION_PROTOCOL_DEFINITION ( 'draft international standard', 'automotive_design', 1998, #830 ) ;
#334 = LINE ( 'NONE', #676, #896 ) ;
#335 = CARTESIAN_POINT ( 'NONE',  ( 35.28015231067600155, 61.86465491630499969, 19.98547168915199634 ) ) ;
#336 = ADVANCED_FACE ( 'NONE', ( #357 ), #1032, .T. ) ;
#337 = PRODUCT_DEFINITION_FORMATION_WITH_SPECIFIED_SOURCE ( 'ไป', '', #945, .NOT_KNOWN. ) ;
#338 = ORIENTED_EDGE ( 'NONE', *, *, #425, .F. ) ;
#339 = VECTOR ( 'NONE', #793, 1000.000000000000000 ) ;
#340 = CARTESIAN_POINT ( 'NONE',  ( 0.000000000000000000, 43.34126610719400219, 61.47309817792599773 ) ) ;
#341 = PLANE ( 'NONE',  #694 ) ;
#342 = ORIENTED_EDGE ( 'NONE', *, *, #305, .T. ) ;
#343 = VECTOR ( 'NONE', #666, 1000.000000000000000 ) ;
#344 = FACE_OUTER_BOUND ( 'NONE', #102, .T. ) ;
#345 = VECTOR ( 'NONE', #405, 1000.000000000000000 ) ;
#346 = LINE ( 'NONE', #264, #899 ) ;
#347 = VERTEX_POINT ( 'NONE', #605 ) ;
#348 = VECTOR ( 'NONE', #654, 1000.000000000000000 ) ;
#349 = VERTEX_POINT ( 'NONE', #698 ) ;
#350 = CARTESIAN_POINT ( 'NONE',  ( 22.34029697410000281, 66.21766027803299437, 37.13055945106300015 ) ) ;
#351 = DIRECTION ( 'NONE',  ( 0.000000000000000000, 1.000000000000000000, 0.000000000000000000 ) ) ;
#352 = EDGE_CURVE ( 'NONE', #894, #349, #1038, .T. ) ;
#353 = LINE ( 'NONE', #199, #801 ) ;
#354 = EDGE_LOOP ( 'NONE', ( #47, #1081, #900, #559 ) ) ;
#355 = ORIENTED_EDGE ( 'NONE', *, *, #114, .T. ) ;
#356 = AXIS2_PLACEMENT_3D ( 'NONE', #409, #151, #493 ) ;
#357 = FACE_OUTER_BOUND ( 'NONE', #690, .T. ) ;
#358 = VECTOR ( 'NONE', #244, 1000.000000000000000 ) ;
#359 = EDGE_CURVE ( 'NONE', #959, #1059, #273, .T. ) ;
#360 = CARTESIAN_POINT ( 'NONE',  ( 0.000000000000000000, 43.34126610719400219, 65.26653107407300070 ) ) ;
#361 = DIRECTION ( 'NONE',  ( -1.000000000000000000, 0.000000000000000000, 0.000000000000000000 ) ) ;
#362 = VERTEX_POINT ( 'NONE', #509 ) ;
#363 = LINE ( 'NONE', #703, #339 ) ;
#364 = DIRECTION ( 'NONE',  ( -1.000000000000000000, 0.000000000000000000, 0.000000000000000000 ) ) ;
#365 = PRESENTATION_LAYER_ASSIGNMENT (  '', '', ( #416 ) ) ;
#366 = CARTESIAN_POINT ( 'NONE',  ( 43.00990868987399551, 2.399890153558999817, 46.64686146396400090 ) ) ;
#367 = DIRECTION ( 'NONE',  ( -1.000000000000000000, 0.000000000000000000, 0.000000000000000000 ) ) ;
#368 = VERTEX_POINT ( 'NONE', #852 ) ;
#369 = VERTEX_POINT ( 'NONE', #858 ) ;
#370 = CARTESIAN_POINT ( 'NONE',  ( 86.44753291965899678, 57.12474782681599805, 22.03501421236100200 ) ) ;
#371 = EDGE_CURVE ( 'NONE', #609, #815, #513, .T. ) ;
#372 = AXIS2_PLACEMENT_3D ( 'NONE', #851, #19, #95 ) ;
#373 = CARTESIAN_POINT ( 'NONE',  ( 13.91828462411000089, 69.95269589910401464, 49.05084525267299966 ) ) ;
#374 = DIRECTION ( 'NONE',  ( 0.000000000000000000, 0.9883172413779461873, -0.1524107292649915513 ) ) ;
#375 = ORIENTED_EDGE ( 'NONE', *, *, #1087, .T. ) ;
#376 = ORIENTED_EDGE ( 'NONE', *, *, #590, .T. ) ;
#377 = CARTESIAN_POINT ( 'NONE',  ( 86.44753291965899678, 59.04085948608799583, 34.46016432083399650 ) ) ;
#378 = EDGE_CURVE ( 'NONE', #571, #727, #174, .T. ) ;
#379 = DIRECTION ( 'NONE',  ( 0.000000000000000000, 0.000000000000000000, -1.000000000000000000 ) ) ;
#380 = ORIENTED_EDGE ( 'NONE', *, *, #419, .T. ) ;
#381 = ORIENTED_EDGE ( 'NONE', *, *, #596, .T. ) ;
#382 = ORIENTED_EDGE ( 'NONE', *, *, #326, .T. ) ;
#383 = CARTESIAN_POINT ( 'NONE',  ( 36.43079251898200965, 0.000000000000000000, 42.78210434725200173 ) ) ;
#384 = CARTESIAN_POINT ( 'NONE',  ( 22.34029697410000281, 69.95269589910401464, 29.87557864866700186 ) ) ;
#385 = FACE_OUTER_BOUND ( 'NONE', #49, .T. ) ;
#386 = ORIENTED_EDGE ( 'NONE', *, *, #80, .T. ) ;
#387 = EDGE_LOOP ( 'NONE', ( #714 ) ) ;
#388 = ORIENTED_EDGE ( 'NONE', *, *, #44, .T. ) ;
#389 = EDGE_CURVE ( 'NONE', #125, #815, #924, .T. ) ;
#390 = EDGE_LOOP ( 'NONE', ( #48, #981, #295, #986 ) ) ;
#391 = CARTESIAN_POINT ( 'NONE',  ( 36.43079251898200965, 0.000000000000000000, 45.71183827355899609 ) ) ;
#392 = LINE ( 'NONE', #459, #972 ) ;
#393 = ORIENTED_EDGE ( 'NONE', *, *, #789, .F. ) ;
#394 = ORIENTED_EDGE ( 'NONE', *, *, #352, .F. ) ;
#395 = DIRECTION ( 'NONE',  ( 0.000000000000000000, -1.000000000000000000, 0.000000000000000000 ) ) ;
#396 = DIRECTION ( 'NONE',  ( 0.000000000000000000, 0.000000000000000000, -1.000000000000000000 ) ) ;
#397 = AXIS2_PLACEMENT_3D ( 'NONE', #373, #983, #977 ) ;
#398 = ADVANCED_FACE ( 'NONE', ( #829 ), #56, .F. ) ;
#399 = DIRECTION ( 'NONE',  ( -0.9256267350472757727, 0.000000000000000000, -0.3784377721181124143 ) ) ;
#400 = CARTESIAN_POINT ( 'NONE',  ( 36.08771799351099929, 38.51926359634799724, 61.47309817792599773 ) ) ;
#401 = ORIENTED_EDGE ( 'NONE', *, *, #950, .T. ) ;
#402 = ADVANCED_FACE ( 'NONE', ( #929 ), #835, .F. ) ;
#403 = ORIENTED_EDGE ( 'NONE', *, *, #211, .T. ) ;
#404 = DIRECTION ( 'NONE',  ( -1.000000000000000000, 0.000000000000000000, 0.000000000000000000 ) ) ;
#405 = DIRECTION ( 'NONE',  ( 0.000000000000000000, -1.000000000000000000, 0.000000000000000000 ) ) ;
#406 = ORIENTED_EDGE ( 'NONE', *, *, #293, .T. ) ;
#407 =( NAMED_UNIT ( * ) PLANE_ANGLE_UNIT ( ) SI_UNIT ( $, .RADIAN. ) );
#408 = MECHANICAL_DESIGN_GEOMETRIC_PRESENTATION_REPRESENTATION (  '', ( #416 ), #256 ) ;
#409 = CARTESIAN_POINT ( 'NONE',  ( 36.43079251898200965, 0.000000000000000000, 45.71183827355899609 ) ) ;
#410 = AXIS2_PLACEMENT_3D ( 'NONE', #780, #433, #252 ) ;
#411 = DIRECTION ( 'NONE',  ( 0.000000000000000000, -0.7027711939790640683, 0.7114159464850650094 ) ) ;
#412 = CARTESIAN_POINT ( 'NONE',  ( 0.000000000000000000, 33.69726108550199939, 65.26653107407300070 ) ) ;
#413 = VECTOR ( 'NONE', #544, 1000.000000000000000 ) ;
#414 = EDGE_CURVE ( 'NONE', #743, #138, #685, .T. ) ;
#415 = LINE ( 'NONE', #1094, #511 ) ;
#416 = STYLED_ITEM ( 'NONE', ( #235 ), #656 ) ;
#417 = LINE ( 'NONE', #318, #298 ) ;
#418 = FACE_OUTER_BOUND ( 'NONE', #902, .T. ) ;
#419 = EDGE_CURVE ( 'NONE', #564, #579, #312, .T. ) ;
#420 = LINE ( 'NONE', #592, #150 ) ;
#421 = VECTOR ( 'NONE', #1060, 1000.000000000000000 ) ;
#422 = FACE_OUTER_BOUND ( 'NONE', #901, .T. ) ;
#423 = DIRECTION ( 'NONE',  ( 0.3784377721181124143, 0.000000000000000000, -0.9256267350472756616 ) ) ;
#424 = LINE ( 'NONE', #776, #604 ) ;
#425 = EDGE_CURVE ( 'NONE', #806, #1041, #234, .T. ) ;
#426 = DIRECTION ( 'NONE',  ( 0.000000000000000000, 0.000000000000000000, 1.000000000000000000 ) ) ;
#427 =( LENGTH_UNIT ( ) NAMED_UNIT ( * ) SI_UNIT ( .MILLI., .METRE. ) );
#428 = ORIENTED_EDGE ( 'NONE', *, *, #699, .F. ) ;
#429 = LINE ( 'NONE', #169, #457 ) ;
#430 = LINE ( 'NONE', #366, #648 ) ;
#431 = EDGE_CURVE ( 'NONE', #743, #192, #649, .T. ) ;
#432 = ORIENTED_EDGE ( 'NONE', *, *, #1073, .F. ) ;
#433 = DIRECTION ( 'NONE',  ( 0.000000000000000000, 0.000000000000000000, -1.000000000000000000 ) ) ;
#434 = CARTESIAN_POINT ( 'NONE',  ( 22.34029697410000281, 69.95269589910401464, 49.05084525267299966 ) ) ;
#435 = ORIENTED_EDGE ( 'NONE', *, *, #326, .F. ) ;
#436 = DIRECTION ( 'NONE',  ( 0.000000000000000000, 0.000000000000000000, -1.000000000000000000 ) ) ;
#437 = EDGE_CURVE ( 'NONE', #827, #125, #738, .T. ) ;
#438 = CARTESIAN_POINT ( 'NONE',  ( 13.91828462411000089, 69.95269589910401464, 49.05084525267299966 ) ) ;
#439 = DIRECTION ( 'NONE',  ( 0.000000000000000000, 0.000000000000000000, -1.000000000000000000 ) ) ;
#440 = EDGE_LOOP ( 'NONE', ( #722, #973, #520, #143 ) ) ;
#441 = VECTOR ( 'NONE', #773, 1000.000000000000000 ) ;
#442 = EDGE_LOOP ( 'NONE', ( #182 ) ) ;
#443 = EDGE_CURVE ( 'NONE', #630, #806, #914, .T. ) ;
#444 = DIRECTION ( 'NONE',  ( -1.000000000000000000, 0.000000000000000000, 0.000000000000000000 ) ) ;
#445 = FACE_OUTER_BOUND ( 'NONE', #241, .T. ) ;
#446 = PLANE ( 'NONE',  #372 ) ;
#447 = ORIENTED_EDGE ( 'NONE', *, *, #953, .F. ) ;
#448 = VECTOR ( 'NONE', #176, 1000.000000000000000 ) ;
#449 = DIRECTION ( 'NONE',  ( 0.000000000000000000, 1.000000000000000000, 0.000000000000000000 ) ) ;
#450 = DIRECTION ( 'NONE',  ( 1.000000000000000000, 0.000000000000000000, 0.000000000000000000 ) ) ;
#451 = DIRECTION ( 'NONE',  ( 0.000000000000000000, -1.000000000000000000, 0.000000000000000000 ) ) ;
#452 = PLANE ( 'NONE',  #175 ) ;
#453 = ORIENTED_EDGE ( 'NONE', *, *, #672, .F. ) ;
#454 = ORIENTED_EDGE ( 'NONE', *, *, #437, .F. ) ;
#455 = EDGE_CURVE ( 'NONE', #289, #15, #147, .T. ) ;
#456 = PLANE ( 'NONE',  #730 ) ;
#457 = VECTOR ( 'NONE', #600, 1000.000000000000114 ) ;
#458 = DIRECTION ( 'NONE',  ( 1.000000000000000000, 0.000000000000000000, 0.000000000000000000 ) ) ;
#459 = CARTESIAN_POINT ( 'NONE',  ( 22.34029697410000281, 69.95269589910401464, 49.05084525267299966 ) ) ;
#460 = VERTEX_POINT ( 'NONE', #63 ) ;
#461 = ORIENTED_EDGE ( 'NONE', *, *, #719, .T. ) ;
#462 = CARTESIAN_POINT ( 'NONE',  ( 0.000000000000000000, 43.34126610719400219, 65.26653107407300070 ) ) ;
#463 = VECTOR ( 'NONE', #755, 1000.000000000000000 ) ;
#464 = CARTESIAN_POINT ( 'NONE',  ( 0.000000000000000000, 0.000000000000000000, 0.000000000000000000 ) ) ;
#465 = PLANE ( 'NONE',  #996 ) ;
#466 = EDGE_LOOP ( 'NONE', ( #636, #40, #581, #885 ) ) ;
#467 = ORIENTED_EDGE ( 'NONE', *, *, #5, .T. ) ;
#468 = VERTEX_POINT ( 'NONE', #998 ) ;
#469 = CARTESIAN_POINT ( 'NONE',  ( 36.43079251898200965, 0.000000000000000000, 42.78210434725200173 ) ) ;
#470 = VECTOR ( 'NONE', #1045, 1000.000000000000000 ) ;
#471 = CARTESIAN_POINT ( 'NONE',  ( 13.91828462411000089, 69.95269589910401464, 49.05084525267299966 ) ) ;
#472 = CARTESIAN_POINT ( 'NONE',  ( 36.08771799351099929, 33.69726108550199939, 61.47309817792599773 ) ) ;
#473 = VERTEX_POINT ( 'NONE', #1085 ) ;
#474 = ORIENTED_EDGE ( 'NONE', *, *, #871, .T. ) ;
#475 = ORIENTED_EDGE ( 'NONE', *, *, #514, .F. ) ;
#476 = EDGE_LOOP ( 'NONE', ( #480, #870, #219, #857 ) ) ;
#477 = EDGE_CURVE ( 'NONE', #785, #148, #583, .T. ) ;
#478 = FACE_OUTER_BOUND ( 'NONE', #777, .T. ) ;
#479 = PLANE ( 'NONE',  #683 ) ;
#480 = ORIENTED_EDGE ( 'NONE', *, *, #293, .F. ) ;
#481 = ORIENTED_EDGE ( 'NONE', *, *, #389, .F. ) ;
#482 = LINE ( 'NONE', #233, #928 ) ;
#483 = EDGE_CURVE ( 'NONE', #489, #468, #248, .T. ) ;
#484 = CARTESIAN_POINT ( 'NONE',  ( 22.34029697410000281, 59.30843758595899828, 36.19529183312999976 ) ) ;
#485 = EDGE_CURVE ( 'NONE', #644, #542, #670, .T. ) ;
#486 = DIRECTION ( 'NONE',  ( 1.000000000000000000, 0.000000000000000000, 0.000000000000000000 ) ) ;
#487 = PRODUCT_DEFINITION_CONTEXT ( 'detailed design', #736, 'design' ) ;
#488 = ORIENTED_EDGE ( 'NONE', *, *, #477, .F. ) ;
#489 = VERTEX_POINT ( 'NONE', #1067 ) ;
#490 = CARTESIAN_POINT ( 'NONE',  ( 36.08771799351099929, 33.69726108550199939, 61.47309817792599773 ) ) ;
#491 = CARTESIAN_POINT ( 'NONE',  ( 59.67019745728799762, 61.86465491630499969, 19.48700087759900157 ) ) ;
#492 = DIRECTION ( 'NONE',  ( 1.000000000000000000, 0.000000000000000000, 0.000000000000000000 ) ) ;
#493 = DIRECTION ( 'NONE',  ( 0.000000000000000000, 0.000000000000000000, 1.000000000000000000 ) ) ;
#494 = PLANE ( 'NONE',  #688 ) ;
#495 = ADVANCED_FACE ( 'NONE', ( #418 ), #304, .T. ) ;
#496 = CARTESIAN_POINT ( 'NONE',  ( 86.44753291965899678, 69.95269589910401464, 71.33106436773199732 ) ) ;
#497 = DIRECTION ( 'NONE',  ( 0.000000000000000000, -1.000000000000000000, 0.000000000000000000 ) ) ;
#498 = AXIS2_PLACEMENT_3D ( 'NONE', #866, #680, #595 ) ;
#499 = CARTESIAN_POINT ( 'NONE',  ( 13.91828462411000089, 54.10243756558700312, 25.09450175750200174 ) ) ;
#500 = EDGE_CURVE ( 'NONE', #460, #289, #1010, .T. ) ;
#501 = DIRECTION ( 'NONE',  ( 0.000000000000000000, 0.000000000000000000, -1.000000000000000000 ) ) ;
#502 = ORIENTED_EDGE ( 'NONE', *, *, #378, .T. ) ;
#503 = VECTOR ( 'NONE', #532, 1000.000000000000000 ) ;
#504 = CARTESIAN_POINT ( 'NONE',  ( 0.000000000000000000, 69.95269589910401464, 71.33106436773199732 ) ) ;
#505 = DIRECTION ( 'NONE',  ( 0.000000000000000000, 0.000000000000000000, -1.000000000000000000 ) ) ;
#506 =( NAMED_UNIT ( * ) SI_UNIT ( $, .STERADIAN. ) SOLID_ANGLE_UNIT ( ) );
#507 = VECTOR ( 'NONE', #629, 1000.000000000000000 ) ;
#508 = CARTESIAN_POINT ( 'NONE',  ( 36.43079251898200965, 0.000000000000000000, 42.78210434725200173 ) ) ;
#509 = CARTESIAN_POINT ( 'NONE',  ( 43.00990868987399551, 0.000000000000000000, 42.78210434725200173 ) ) ;
#510 = LINE ( 'NONE', #853, #962 ) ;
#511 = VECTOR ( 'NONE', #926, 1000.000000000000114 ) ;
#512 = VECTOR ( 'NONE', #423, 1000.000000000000114 ) ;
#513 = LINE ( 'NONE', #79, #888 ) ;
#514 = EDGE_CURVE ( 'NONE', #815, #309, #568, .T. ) ;
#515 = DIRECTION ( 'NONE',  ( 0.000000000000000000, -1.000000000000000000, 0.000000000000000000 ) ) ;
#516 = ORIENTED_EDGE ( 'NONE', *, *, #249, .T. ) ;
#517 = AXIS2_PLACEMENT_3D ( 'NONE', #251, #591, #930 ) ;
#518 = DIRECTION ( 'NONE',  ( 0.000000000000000000, 0.7027711939790640683, -0.7114159464850650094 ) ) ;
#519 = CARTESIAN_POINT ( 'NONE',  ( 86.44753291965899678, 48.66455525967099760, 30.59927517547700049 ) ) ;
#520 = ORIENTED_EDGE ( 'NONE', *, *, #485, .F. ) ;
#521 = EDGE_CURVE ( 'NONE', #571, #971, #668, .T. ) ;
#522 = CARTESIAN_POINT ( 'NONE',  ( 13.91828462411000089, 48.66455525967099760, 30.59927517547700049 ) ) ;
#523 = DIRECTION ( 'NONE',  ( 0.000000000000000000, 0.000000000000000000, -1.000000000000000000 ) ) ;
#524 = PLANE ( 'NONE',  #554 ) ;
#525 = ORIENTED_EDGE ( 'NONE', *, *, #675, .F. ) ;
#526 = VERTEX_POINT ( 'NONE', #496 ) ;
#527 = DIRECTION ( 'NONE',  ( 0.000000000000000000, 0.000000000000000000, -1.000000000000000000 ) ) ;
#528 = ADVANCED_FACE ( 'NONE', ( #245, #282, #530 ), #524, .F. ) ;
#529 = CARTESIAN_POINT ( 'NONE',  ( 22.34029697410000281, 69.95269589910401464, 29.87557864866700186 ) ) ;
#530 = FACE_BOUND ( 'NONE', #59, .T. ) ;
#531 = EDGE_LOOP ( 'NONE', ( #380, #679, #338, #401 ) ) ;
#532 = DIRECTION ( 'NONE',  ( -1.000000000000000000, 0.000000000000000000, 0.000000000000000000 ) ) ;
#533 = LINE ( 'NONE', #519, #220 ) ;
#534 = FACE_OUTER_BOUND ( 'NONE', #354, .T. ) ;
#535 = ORIENTED_EDGE ( 'NONE', *, *, #164, .F. ) ;
#536 = ADVANCED_FACE ( 'NONE', ( #78 ), #452, .T. ) ;
#537 = ORIENTED_EDGE ( 'NONE', *, *, #443, .T. ) ;
#538 = CYLINDRICAL_SURFACE ( 'NONE', #552, 5.944455387845000160 ) ;
#539 = CLOSED_SHELL ( 'NONE', ( #536, #809, #637, #177, #1008, #717, #89, #4, #1015, #253, #915, #247, #398, #610, #287, #674, #767, #725, #758, #761, #997, #927, #1034, #874, #402, #336, #1028, #565, #893, #802, #242, #495, #162, #528 ) ) ;
#540 = DIRECTION ( 'NONE',  ( 0.000000000000000000, 0.000000000000000000, -1.000000000000000000 ) ) ;
#541 = CARTESIAN_POINT ( 'NONE',  ( 86.44753291965899678, 0.000000000000000000, 6.237454061195999877 ) ) ;
#542 = VERTEX_POINT ( 'NONE', #181 ) ;
#543 = ORIENTED_EDGE ( 'NONE', *, *, #585, .F. ) ;
#544 = DIRECTION ( 'NONE',  ( 1.000000000000000000, 0.000000000000000000, 0.000000000000000000 ) ) ;
#545 = VECTOR ( 'NONE', #570, 1000.000000000000000 ) ;
#546 = VECTOR ( 'NONE', #589, 1000.000000000000114 ) ;
#547 = CARTESIAN_POINT ( 'NONE',  ( 13.91828462411000089, 49.37945780682100150, 29.87557864866700186 ) ) ;
#548 = DIRECTION ( 'NONE',  ( -1.000000000000000000, 0.000000000000000000, 0.000000000000000000 ) ) ;
#549 = ORIENTED_EDGE ( 'NONE', *, *, #164, .T. ) ;
#550 = ORIENTED_EDGE ( 'NONE', *, *, #82, .F. ) ;
#551 = DIRECTION ( 'NONE',  ( -0.3784377721181124143, 0.000000000000000000, 0.9256267350472757727 ) ) ;
#552 = AXIS2_PLACEMENT_3D ( 'NONE', #880, #105, #1043 ) ;
#553 = CARTESIAN_POINT ( 'NONE',  ( 43.00990868987399551, 0.000000000000000000, 45.71183827355899609 ) ) ;
#554 = AXIS2_PLACEMENT_3D ( 'NONE', #673, #863, #869 ) ;
#555 = CARTESIAN_POINT ( 'NONE',  ( 86.44753291965899678, 69.95269589910401464, 0.000000000000000000 ) ) ;
#556 = LINE ( 'NONE', #563, #837 ) ;
#557 = EDGE_LOOP ( 'NONE', ( #83, #746, #819, #133 ) ) ;
#558 = ORIENTED_EDGE ( 'NONE', *, *, #443, .F. ) ;
#559 = ORIENTED_EDGE ( 'NONE', *, *, #1020, .F. ) ;
#560 = VECTOR ( 'NONE', #788, 1000.000000000000000 ) ;
#561 = EDGE_CURVE ( 'NONE', #1031, #28, #958, .T. ) ;
#562 = LINE ( 'NONE', #969, #826 ) ;
#563 = CARTESIAN_POINT ( 'NONE',  ( 0.000000000000000000, 59.04085948608799583, 34.46016432083399650 ) ) ;
#564 = VERTEX_POINT ( 'NONE', #13 ) ;
#565 = ADVANCED_FACE ( 'NONE', ( #191, #1040 ), #446, .T. ) ;
#566 = EDGE_LOOP ( 'NONE', ( #883, #1074, #277, #611 ) ) ;
#567 = CARTESIAN_POINT ( 'NONE',  ( 43.00990868987399551, 0.000000000000000000, 49.04675161752300028 ) ) ;
#568 = LINE ( 'NONE', #751, #32 ) ;
#569 = PLANE ( 'NONE',  #782 ) ;
#570 = DIRECTION ( 'NONE',  ( 0.000000000000000000, 0.1524107292649915513, 0.9883172413779461873 ) ) ;
#571 = VERTEX_POINT ( 'NONE', #541 ) ;
#572 = ORIENTED_EDGE ( 'NONE', *, *, #414, .F. ) ;
#573 = CARTESIAN_POINT ( 'NONE',  ( 43.00990868987399551, 0.000000000000000000, 42.78210434725200173 ) ) ;
#574 = DIRECTION ( 'NONE',  ( 0.000000000000000000, 1.000000000000000000, 0.000000000000000000 ) ) ;
#575 = CARTESIAN_POINT ( 'NONE',  ( 13.91828462411000089, 69.95269589910401464, 29.87557864866700186 ) ) ;
#576 = VECTOR ( 'NONE', #624, 1000.000000000000000 ) ;
#577 = UNCERTAINTY_MEASURE_WITH_UNIT (LENGTH_MEASURE( 1.000000000000000082E-05 ), #427, 'distance_accuracy_value', 'NONE');
#578 = DIRECTION ( 'NONE',  ( -1.000000000000000000, 0.000000000000000000, 0.000000000000000000 ) ) ;
#579 = VERTEX_POINT ( 'NONE', #790 ) ;
#580 = EDGE_CURVE ( 'NONE', #1042, #526, #353, .T. ) ;
#581 = ORIENTED_EDGE ( 'NONE', *, *, #628, .T. ) ;
#582 = CARTESIAN_POINT ( 'NONE',  ( 59.67019745728799762, 69.95269589910401464, 19.48700087759900157 ) ) ;
#583 = LINE ( 'NONE', #320, #463 ) ;
#584 = CARTESIAN_POINT ( 'NONE',  ( 0.000000000000000000, 48.66455525967099760, 30.59927517547700049 ) ) ;
#585 = EDGE_CURVE ( 'NONE', #279, #785, #783, .T. ) ;
#586 = CARTESIAN_POINT ( 'NONE',  ( 22.34029697410000281, 59.04085948608799583, 34.46016432083399650 ) ) ;
#587 = DIRECTION ( 'NONE',  ( -1.000000000000000000, 0.000000000000000000, 0.000000000000000000 ) ) ;
#588 = CARTESIAN_POINT ( 'NONE',  ( 86.44753291965899678, 48.66455525967099760, 30.59927517547700049 ) ) ;
#589 = DIRECTION ( 'NONE',  ( -0.9256267350472756616, 0.000000000000000000, -0.3784377721181124143 ) ) ;
#590 = EDGE_CURVE ( 'NONE', #209, #362, #424, .T. ) ;
#591 = DIRECTION ( 'NONE',  ( -1.000000000000000000, 0.000000000000000000, 0.000000000000000000 ) ) ;
#592 = CARTESIAN_POINT ( 'NONE',  ( 35.28015231067600155, 61.86465491630499969, 19.98547168915199634 ) ) ;
#593 = VECTOR ( 'NONE', #917, 1000.000000000000000 ) ;
#594 = EDGE_CURVE ( 'NONE', #347, #60, #762, .T. ) ;
#595 = DIRECTION ( 'NONE',  ( -1.000000000000000000, 0.000000000000000000, 0.000000000000000000 ) ) ;
#596 = EDGE_CURVE ( 'NONE', #209, #1031, #882, .T. ) ;
#597 = VECTOR ( 'NONE', #1062, 1000.000000000000000 ) ;
#598 = EDGE_LOOP ( 'NONE', ( #731, #104, #955, #1037 ) ) ;
#599 = CIRCLE ( 'NONE', #410, 5.944455387845000160 ) ;
#600 = DIRECTION ( 'NONE',  ( -0.9256267350472756616, 0.000000000000000000, -0.3784377721181124143 ) ) ;
#601 = DIRECTION ( 'NONE',  ( -0.000000000000000000, 1.000000000000000000, 0.000000000000000000 ) ) ;
#602 = EDGE_CURVE ( 'NONE', #28, #735, #614, .T. ) ;
#603 = VERTEX_POINT ( 'NONE', #276 ) ;
#604 = VECTOR ( 'NONE', #1099, 1000.000000000000000 ) ;
#605 = CARTESIAN_POINT ( 'NONE',  ( 36.43079251898200965, 0.000000000000000000, 49.04675161752300028 ) ) ;
#606 = CARTESIAN_POINT ( 'NONE',  ( 56.00256315030799925, 69.95269589910401464, 28.45772372567899922 ) ) ;
#607 = AXIS2_PLACEMENT_3D ( 'NONE', #360, #601, #190 ) ;
#608 = CARTESIAN_POINT ( 'NONE',  ( 36.43079251898200965, 69.95269589910401464, 22.85591913677900067 ) ) ;
#609 = VERTEX_POINT ( 'NONE', #115 ) ;
#610 = ADVANCED_FACE ( 'NONE', ( #534 ), #947, .F. ) ;
#611 = ORIENTED_EDGE ( 'NONE', *, *, #886, .T. ) ;
#612 = CARTESIAN_POINT ( 'NONE',  ( 0.000000000000000000, 38.51926359634799724, 61.47309817792599773 ) ) ;
#613 = CARTESIAN_POINT ( 'NONE',  ( 0.000000000000000000, 43.34126610719400219, 61.47309817792599773 ) ) ;
#614 = LINE ( 'NONE', #954, #263 ) ;
#615 = ORIENTED_EDGE ( 'NONE', *, *, #1020, .T. ) ;
#616 = CARTESIAN_POINT ( 'NONE',  ( 0.000000000000000000, 0.000000000000000000, 12.25962338669199880 ) ) ;
#617 = EDGE_CURVE ( 'NONE', #473, #905, #187, .T. ) ;
#618 = LINE ( 'NONE', #613, #560 ) ;
#619 = CARTESIAN_POINT ( 'NONE',  ( 86.44753291965899678, 48.66455525967099760, 30.59927517547700049 ) ) ;
#620 = ORIENTED_EDGE ( 'NONE', *, *, #500, .T. ) ;
#621 = ORIENTED_EDGE ( 'NONE', *, *, #483, .F. ) ;
#622 = LINE ( 'NONE', #553, #978 ) ;
#623 = CARTESIAN_POINT ( 'NONE',  ( 86.44753291965899678, 0.000000000000000000, 71.33106436773199732 ) ) ;
#624 = DIRECTION ( 'NONE',  ( 0.000000000000000000, 0.000000000000000000, 1.000000000000000000 ) ) ;
#625 = ORIENTED_EDGE ( 'NONE', *, *, #739, .T. ) ;
#626 = ORIENTED_EDGE ( 'NONE', *, *, #193, .T. ) ;
#627 = DIRECTION ( 'NONE',  ( 1.000000000000000000, 0.000000000000000000, 0.000000000000000000 ) ) ;
#628 = EDGE_CURVE ( 'NONE', #603, #60, #701, .T. ) ;
#629 = DIRECTION ( 'NONE',  ( 0.000000000000000000, -1.000000000000000000, 0.000000000000000000 ) ) ;
#630 = VERTEX_POINT ( 'NONE', #877 ) ;
#631 = ORIENTED_EDGE ( 'NONE', *, *, #11, .T. ) ;
#632 = ORIENTED_EDGE ( 'NONE', *, *, #278, .F. ) ;
#633 = CARTESIAN_POINT ( 'NONE',  ( 36.08771799351099929, 33.69726108550199939, 65.26653107407300070 ) ) ;
#634 = CARTESIAN_POINT ( 'NONE',  ( 13.91828462411000089, 0.000000000000000000, 49.05084525267299966 ) ) ;
#635 = CARTESIAN_POINT ( 'NONE',  ( 86.44753291965899678, 26.34799808985300018, 6.237454061195999877 ) ) ;
#636 = ORIENTED_EDGE ( 'NONE', *, *, #602, .T. ) ;
#637 = ADVANCED_FACE ( 'NONE', ( #1046 ), #332, .T. ) ;
#638 = ORIENTED_EDGE ( 'NONE', *, *, #331, .T. ) ;
#639 = EDGE_LOOP ( 'NONE', ( #982, #1078, #1068 ) ) ;
#640 = VECTOR ( 'NONE', #364, 1000.000000000000000 ) ;
#641 = EDGE_CURVE ( 'NONE', #872, #1042, #334, .T. ) ;
#642 = FACE_BOUND ( 'NONE', #938, .T. ) ;
#643 = CARTESIAN_POINT ( 'NONE',  ( 36.08771799351099929, 43.34126610719400219, 65.26653107407300070 ) ) ;
#644 = VERTEX_POINT ( 'NONE', #643 ) ;
#645 =( GEOMETRIC_REPRESENTATION_CONTEXT ( 3 ) GLOBAL_UNCERTAINTY_ASSIGNED_CONTEXT ( ( #577 ) ) GLOBAL_UNIT_ASSIGNED_CONTEXT ( ( #427, #407, #506 ) ) REPRESENTATION_CONTEXT ( 'NONE', 'WORKASPACE' ) );
#646 = ORIENTED_EDGE ( 'NONE', *, *, #483, .T. ) ;
#647 = FACE_OUTER_BOUND ( 'NONE', #865, .T. ) ;
#648 = VECTOR ( 'NONE', #689, 1000.000000000000114 ) ;
#649 = LINE ( 'NONE', #412, #999 ) ;
#650 = LINE ( 'NONE', #823, #1033 ) ;
#651 = FACE_OUTER_BOUND ( 'NONE', #261, .T. ) ;
#652 = EDGE_LOOP ( 'NONE', ( #225, #1030, #475, #911 ) ) ;
#653 = ORIENTED_EDGE ( 'NONE', *, *, #844, .F. ) ;
#654 = DIRECTION ( 'NONE',  ( 0.000000000000000000, -1.000000000000000000, 0.000000000000000000 ) ) ;
#655 = CARTESIAN_POINT ( 'NONE',  ( 13.91828462411000089, 69.95269589910401464, 29.87557864866700186 ) ) ;
#656 = MANIFOLD_SOLID_BREP ( 'Open CASCADE STEP translator 7.5 6[1]', #539 ) ;
#657 = AXIS2_PLACEMENT_3D ( 'NONE', #400, #578, #1071 ) ;
#658 = VECTOR ( 'NONE', #84, 1000.000000000000114 ) ;
#659 = SURFACE_STYLE_USAGE ( .BOTH. , #215 ) ;
#660 = EDGE_LOOP ( 'NONE', ( #1057, #502, #805, #779, #791, #223 ) ) ;
#661 = ORIENTED_EDGE ( 'NONE', *, *, #23, .T. ) ;
#662 = LINE ( 'NONE', #1009, #850 ) ;
#663 = CARTESIAN_POINT ( 'NONE',  ( 43.00990868987399551, 1.667456671982000094, 47.37929494554100529 ) ) ;
#664 = DIRECTION ( 'NONE',  ( 0.000000000000000000, 0.000000000000000000, 1.000000000000000000 ) ) ;
#665 = VECTOR ( 'NONE', #140, 1000.000000000000000 ) ;
#666 = DIRECTION ( 'NONE',  ( 1.000000000000000000, 0.000000000000000000, 0.000000000000000000 ) ) ;
#667 = CARTESIAN_POINT ( 'NONE',  ( 36.43079251898200965, 69.95269589910401464, 45.71183827355899609 ) ) ;
#668 = LINE ( 'NONE', #918, #665 ) ;
#669 = DIRECTION ( 'NONE',  ( 0.000000000000000000, 0.000000000000000000, -1.000000000000000000 ) ) ;
#670 = LINE ( 'NONE', #240, #1092 ) ;
#671 = LINE ( 'NONE', #575, #106 ) ;
#672 = EDGE_CURVE ( 'NONE', #542, #707, #1084, .T. ) ;
#673 = CARTESIAN_POINT ( 'NONE',  ( 0.000000000000000000, 0.000000000000000000, 0.000000000000000000 ) ) ;
#674 = ADVANCED_FACE ( 'NONE', ( #385 ), #1056, .F. ) ;
#675 = EDGE_CURVE ( 'NONE', #564, #460, #392, .T. ) ;
#676 = CARTESIAN_POINT ( 'NONE',  ( 86.44753291965899678, 0.000000000000000000, 0.000000000000000000 ) ) ;
#677 = CARTESIAN_POINT ( 'NONE',  ( 0.000000000000000000, 38.51926359634799724, 65.26653107407300070 ) ) ;
#678 = VECTOR ( 'NONE', #299, 1000.000000000000114 ) ;
#679 = ORIENTED_EDGE ( 'NONE', *, *, #218, .F. ) ;
#680 = DIRECTION ( 'NONE',  ( 0.000000000000000000, -0.3487288513698999504, 0.9372236596577309120 ) ) ;
#681 = EDGE_CURVE ( 'NONE', #369, #1031, #804, .T. ) ;
#682 = CARTESIAN_POINT ( 'NONE',  ( 86.44753291965899678, 0.000000000000000000, 6.237454061195999877 ) ) ;
#683 = AXIS2_PLACEMENT_3D ( 'NONE', #205, #122, #741 ) ;
#684 = ORIENTED_EDGE ( 'NONE', *, *, #229, .F. ) ;
#685 = CIRCLE ( 'NONE', #206, 4.822002510846003176 ) ;
#686 = LINE ( 'NONE', #1025, #976 ) ;
#687 = EDGE_CURVE ( 'NONE', #691, #785, #556, .T. ) ;
#688 = AXIS2_PLACEMENT_3D ( 'NONE', #840, #1096, #395 ) ;
#689 = DIRECTION ( 'NONE',  ( 0.000000000000000000, 0.7071067811865474617, -0.7071067811865474617 ) ) ;
#690 = EDGE_LOOP ( 'NONE', ( #178, #188, #892, #393 ) ) ;
#691 = VERTEX_POINT ( 'NONE', #824 ) ;
#692 = CARTESIAN_POINT ( 'NONE',  ( 22.34029697410000281, 49.30897916487300137, 29.94692424478399673 ) ) ;
#693 = LINE ( 'NONE', #856, #756 ) ;
#694 = AXIS2_PLACEMENT_3D ( 'NONE', #682, #868, #451 ) ;
#695 = DIRECTION ( 'NONE',  ( 0.000000000000000000, 0.000000000000000000, 1.000000000000000000 ) ) ;
#696 = ORIENTED_EDGE ( 'NONE', *, *, #833, .F. ) ;
#697 = ORIENTED_EDGE ( 'NONE', *, *, #425, .T. ) ;
#698 = CARTESIAN_POINT ( 'NONE',  ( 13.91828462411000089, 58.33385973295199989, 29.87557864866700186 ) ) ;
#699 = EDGE_CURVE ( 'NONE', #7, #743, #1051, .T. ) ;
#700 = LINE ( 'NONE', #171, #944 ) ;
#701 = LINE ( 'NONE', #760, #323 ) ;
#702 = ORIENTED_EDGE ( 'NONE', *, *, #675, .T. ) ;
#703 = CARTESIAN_POINT ( 'NONE',  ( 43.00990868987399551, 69.95269589910401464, 21.39105217362600087 ) ) ;
#704 = FACE_OUTER_BOUND ( 'NONE', #442, .T. ) ;
#705 = LINE ( 'NONE', #768, #470 ) ;
#706 = CARTESIAN_POINT ( 'NONE',  ( 86.44753291965899678, 59.04085948608799583, 34.46016432083399650 ) ) ;
#707 = VERTEX_POINT ( 'NONE', #472 ) ;
#708 = EDGE_CURVE ( 'NONE', #158, #158, #747, .T. ) ;
#709 = ORIENTED_EDGE ( 'NONE', *, *, #886, .F. ) ;
#710 = LINE ( 'NONE', #462, #413 ) ;
#711 = COLOUR_RGB ( '',0.7921568627450980005, 0.8196078431372548767, 0.9333333333333333481 ) ;
#712 = DIRECTION ( 'NONE',  ( 0.000000000000000000, 0.000000000000000000, -1.000000000000000000 ) ) ;
#713 = FILL_AREA_STYLE ('',( #1000 ) ) ;
#714 = ORIENTED_EDGE ( 'NONE', *, *, #319, .T. ) ;
#715 = ORIENTED_EDGE ( 'NONE', *, *, #590, .F. ) ;
#716 = LINE ( 'NONE', #30, #71 ) ;
#717 = ADVANCED_FACE ( 'NONE', ( #651 ), #479, .F. ) ;
#718 = DIRECTION ( 'NONE',  ( 0.000000000000000000, 0.000000000000000000, 1.000000000000000000 ) ) ;
#719 = EDGE_CURVE ( 'NONE', #8, #347, #1080, .T. ) ;
#720 = ORIENTED_EDGE ( 'NONE', *, *, #1102, .F. ) ;
#721 = EDGE_LOOP ( 'NONE', ( #255, #272, #53 ) ) ;
#722 = ORIENTED_EDGE ( 'NONE', *, *, #1064, .T. ) ;
#723 = DIRECTION ( 'NONE',  ( 0.000000000000000000, 0.000000000000000000, -1.000000000000000000 ) ) ;
#724 = CARTESIAN_POINT ( 'NONE',  ( 43.00990868987399551, 0.000000000000000000, 45.71183827355899609 ) ) ;
#725 = ADVANCED_FACE ( 'NONE', ( #991, #300 ), #465, .F. ) ;
#726 = CARTESIAN_POINT ( 'NONE',  ( 43.00990868987399551, 0.000000000000000000, 49.04675161752300028 ) ) ;
#727 = VERTEX_POINT ( 'NONE', #635 ) ;
#728 = VERTEX_POINT ( 'NONE', #979 ) ;
#729 = ORIENTED_EDGE ( 'NONE', *, *, #455, .T. ) ;
#730 = AXIS2_PLACEMENT_3D ( 'NONE', #383, #723, #1054 ) ;
#731 = ORIENTED_EDGE ( 'NONE', *, *, #867, .T. ) ;
#732 = CARTESIAN_POINT ( 'NONE',  ( 0.000000000000000000, 0.000000000000000000, 0.000000000000000000 ) ) ;
#733 = ORIENTED_EDGE ( 'NONE', *, *, #821, .F. ) ;
#734 = VECTOR ( 'NONE', #1070, 1000.000000000000000 ) ;
#735 = VERTEX_POINT ( 'NONE', #817 ) ;
#736 = APPLICATION_CONTEXT ( 'automotive_design' ) ;
#737 = CARTESIAN_POINT ( 'NONE',  ( 0.000000000000000000, 33.69726108550199939, 61.47309817792599773 ) ) ;
#738 = LINE ( 'NONE', #161, #512 ) ;
#739 = EDGE_CURVE ( 'NONE', #216, #860, #46, .T. ) ;
#740 = LINE ( 'NONE', #129, #421 ) ;
#741 = DIRECTION ( 'NONE',  ( 0.000000000000000000, -1.000000000000000000, 0.000000000000000000 ) ) ;
#742 = ORIENTED_EDGE ( 'NONE', *, *, #672, .T. ) ;
#743 = VERTEX_POINT ( 'NONE', #154 ) ;
#744 = LINE ( 'NONE', #490, #933 ) ;
#745 = DIRECTION ( 'NONE',  ( 0.000000000000000000, 0.000000000000000000, 1.000000000000000000 ) ) ;
#746 = ORIENTED_EDGE ( 'NONE', *, *, #431, .T. ) ;
#747 = CIRCLE ( 'NONE', #24, 5.944455387845000160 ) ;
#748 = AXIS2_PLACEMENT_3D ( 'NONE', #935, #426, #269 ) ;
#749 = CARTESIAN_POINT ( 'NONE',  ( 0.000000000000000000, 69.95269589910401464, 0.000000000000000000 ) ) ;
#750 = CARTESIAN_POINT ( 'NONE',  ( 59.67019745728799762, 69.95269589910401464, 19.48700087759900157 ) ) ;
#751 = CARTESIAN_POINT ( 'NONE',  ( 38.94778661765599992, 61.86465491630499969, 11.01474884107200047 ) ) ;
#752 = VECTOR ( 'NONE', #265, 1000.000000000000000 ) ;
#753 = DIRECTION ( 'NONE',  ( 0.000000000000000000, 0.7027711939790640683, -0.7114159464850650094 ) ) ;
#754 = LINE ( 'NONE', #55, #348 ) ;
#755 = DIRECTION ( 'NONE',  ( 0.000000000000000000, 0.7027711939790640683, -0.7114159464850650094 ) ) ;
#756 = VECTOR ( 'NONE', #94, 1000.000000000000000 ) ;
#757 = CARTESIAN_POINT ( 'NONE',  ( 0.000000000000000000, 0.000000000000000000, 0.000000000000000000 ) ) ;
#758 = ADVANCED_FACE ( 'NONE', ( #920 ), #1007, .T. ) ;
#759 = CARTESIAN_POINT ( 'NONE',  ( 41.86521427162099940, 26.34799808985300018, 4.676645972979999399 ) ) ;
#760 = CARTESIAN_POINT ( 'NONE',  ( 43.00990868987399551, 3.334913343965000276, 45.71183827355899609 ) ) ;
#761 = ADVANCED_FACE ( 'NONE', ( #832, #243, #70, #1098 ), #246, .T. ) ;
#762 = LINE ( 'NONE', #271, #940 ) ;
#763 = FACE_OUTER_BOUND ( 'NONE', #217, .T. ) ;
#764 = DIRECTION ( 'NONE',  ( 0.000000000000000000, -1.000000000000000000, 0.000000000000000000 ) ) ;
#765 = ORIENTED_EDGE ( 'NONE', *, *, #993, .T. ) ;
#766 = DIRECTION ( 'NONE',  ( 0.000000000000000000, 0.000000000000000000, -1.000000000000000000 ) ) ;
#767 = ADVANCED_FACE ( 'NONE', ( #327 ), #839, .F. ) ;
#768 = CARTESIAN_POINT ( 'NONE',  ( 35.28015231067600155, 69.95269589910401464, 19.98547168915199634 ) ) ;
#769 = ORIENTED_EDGE ( 'NONE', *, *, #82, .T. ) ;
#770 = CARTESIAN_POINT ( 'NONE',  ( 86.44753291965899678, 0.000000000000000000, 6.237454061195999877 ) ) ;
#771 = DIRECTION ( 'NONE',  ( 1.000000000000000000, 0.000000000000000000, 0.000000000000000000 ) ) ;
#772 = ORIENTED_EDGE ( 'NONE', *, *, #331, .F. ) ;
#773 = DIRECTION ( 'NONE',  ( 0.000000000000000000, 1.000000000000000000, 0.000000000000000000 ) ) ;
#774 = CIRCLE ( 'NONE', #213, 4.822002510846003176 ) ;
#775 = FACE_OUTER_BOUND ( 'NONE', #87, .T. ) ;
#776 = CARTESIAN_POINT ( 'NONE',  ( 36.43079251898200965, 0.000000000000000000, 42.78210434725200173 ) ) ;
#777 = EDGE_LOOP ( 'NONE', ( #516, #535, #124, #157, #231, #117 ) ) ;
#778 = EDGE_CURVE ( 'NONE', #368, #872, #322, .T. ) ;
#779 = ORIENTED_EDGE ( 'NONE', *, *, #641, .T. ) ;
#780 = CARTESIAN_POINT ( 'NONE',  ( 35.16148387181299739, 47.38972194368400181, 5.849773811630000431 ) ) ;
#781 = LINE ( 'NONE', #1, #448 ) ;
#782 = AXIS2_PLACEMENT_3D ( 'NONE', #384, #540, #816 ) ;
#783 = LINE ( 'NONE', #1014, #1005 ) ;
#784 = ORIENTED_EDGE ( 'NONE', *, *, #1064, .F. ) ;
#785 = VERTEX_POINT ( 'NONE', #584 ) ;
#786 = LINE ( 'NONE', #126, #10 ) ;
#787 = EDGE_CURVE ( 'NONE', #609, #201, #415, .T. ) ;
#788 = DIRECTION ( 'NONE',  ( 1.000000000000000000, 0.000000000000000000, 0.000000000000000000 ) ) ;
#789 = EDGE_CURVE ( 'NONE', #728, #526, #159, .T. ) ;
#790 = CARTESIAN_POINT ( 'NONE',  ( 22.34029697410000281, 0.000000000000000000, 49.05084525267299966 ) ) ;
#791 = ORIENTED_EDGE ( 'NONE', *, *, #580, .T. ) ;
#792 = AXIS2_PLACEMENT_3D ( 'NONE', #588, #1089, #753 ) ;
#793 = DIRECTION ( 'NONE',  ( 0.000000000000000000, 0.000000000000000000, -1.000000000000000000 ) ) ;
#794 = DIRECTION ( 'NONE',  ( 0.000000000000000000, 1.000000000000000000, 0.000000000000000000 ) ) ;
#795 = AXIS2_PLACEMENT_3D ( 'NONE', #677, #1101, #436 ) ;
#796 = FACE_OUTER_BOUND ( 'NONE', #531, .T. ) ;
#797 = CARTESIAN_POINT ( 'NONE',  ( 35.16148387181299739, 47.38972194368400181, 0.000000000000000000 ) ) ;
#798 = ORIENTED_EDGE ( 'NONE', *, *, #359, .T. ) ;
#799 = ORIENTED_EDGE ( 'NONE', *, *, #62, .F. ) ;
#800 = FACE_OUTER_BOUND ( 'NONE', #296, .T. ) ;
#801 = VECTOR ( 'NONE', #695, 1000.000000000000000 ) ;
#802 = ADVANCED_FACE ( 'NONE', ( #422 ), #330, .F. ) ;
#803 = DIRECTION ( 'NONE',  ( 0.000000000000000000, 1.000000000000000000, 0.000000000000000000 ) ) ;
#804 = LINE ( 'NONE', #308, #597 ) ;
#805 = ORIENTED_EDGE ( 'NONE', *, *, #1093, .F. ) ;
#806 = VERTEX_POINT ( 'NONE', #438 ) ;
#807 = ORIENTED_EDGE ( 'NONE', *, *, #371, .T. ) ;
#808 = CARTESIAN_POINT ( 'NONE',  ( 0.000000000000000000, 57.12474782681599805, 22.03501421236100200 ) ) ;
#809 = ADVANCED_FACE ( 'NONE', ( #1035 ), #1022, .T. ) ;
#810 = FACE_OUTER_BOUND ( 'NONE', #652, .T. ) ;
#811 = CARTESIAN_POINT ( 'NONE',  ( 0.000000000000000000, 0.000000000000000000, 0.000000000000000000 ) ) ;
#812 = ORIENTED_EDGE ( 'NONE', *, *, #964, .F. ) ;
#813 = ORIENTED_EDGE ( 'NONE', *, *, #172, .T. ) ;
#814 = ORIENTED_EDGE ( 'NONE', *, *, #275, .T. ) ;
#815 = VERTEX_POINT ( 'NONE', #25 ) ;
#816 = DIRECTION ( 'NONE',  ( 0.000000000000000000, -1.000000000000000000, 0.000000000000000000 ) ) ;
#817 = CARTESIAN_POINT ( 'NONE',  ( 43.00990868987399551, 69.95269589910401464, 45.71183827355899609 ) ) ;
#818 = ORIENTED_EDGE ( 'NONE', *, *, #778, .F. ) ;
#819 = ORIENTED_EDGE ( 'NONE', *, *, #50, .F. ) ;
#820 = LINE ( 'NONE', #573, #358 ) ;
#821 = EDGE_CURVE ( 'NONE', #8, #603, #430, .T. ) ;
#822 = DIRECTION ( 'NONE',  ( 0.000000000000000000, -1.000000000000000000, 0.000000000000000000 ) ) ;
#823 = CARTESIAN_POINT ( 'NONE',  ( 86.44753291965899678, 0.000000000000000000, 6.237454061195999877 ) ) ;
#824 = CARTESIAN_POINT ( 'NONE',  ( 0.000000000000000000, 59.04085948608799583, 34.46016432083399650 ) ) ;
#825 = ORIENTED_EDGE ( 'NONE', *, *, #708, .T. ) ;
#826 = VECTOR ( 'NONE', #712, 1000.000000000000000 ) ;
#827 = VERTEX_POINT ( 'NONE', #862 ) ;
#828 = DIRECTION ( 'NONE',  ( 1.000000000000000000, 0.000000000000000000, 0.000000000000000000 ) ) ;
#829 = FACE_OUTER_BOUND ( 'NONE', #557, .T. ) ;
#830 = APPLICATION_CONTEXT ( 'automotive_design' ) ;
#831 = UNCERTAINTY_MEASURE_WITH_UNIT (LENGTH_MEASURE( 1.000000000000000082E-05 ), #970, 'distance_accuracy_value', 'NONE');
#832 = FACE_BOUND ( 'NONE', #390, .T. ) ;
#833 = EDGE_CURVE ( 'NONE', #201, #309, #705, .T. ) ;
#834 = DIRECTION ( 'NONE',  ( -1.000000000000000000, 0.000000000000000000, 0.000000000000000000 ) ) ;
#835 = PLANE ( 'NONE',  #69 ) ;
#836 = ORIENTED_EDGE ( 'NONE', *, *, #1102, .T. ) ;
#837 = VECTOR ( 'NONE', #916, 1000.000000000000114 ) ;
#838 = VECTOR ( 'NONE', #842, 1000.000000000000000 ) ;
#839 = PLANE ( 'NONE',  #792 ) ;
#840 = CARTESIAN_POINT ( 'NONE',  ( 56.00256315030799925, 69.95269589910401464, 28.45772372567899922 ) ) ;
#841 = VECTOR ( 'NONE', #1090, 1000.000000000000000 ) ;
#842 = DIRECTION ( 'NONE',  ( 0.000000000000000000, -1.000000000000000000, 0.000000000000000000 ) ) ;
#843 = ORIENTED_EDGE ( 'NONE', *, *, #641, .F. ) ;
#844 = EDGE_CURVE ( 'NONE', #290, #542, #618, .T. ) ;
#845 = DIRECTION ( 'NONE',  ( 1.000000000000000000, 0.000000000000000000, 0.000000000000000000 ) ) ;
#846 = EDGE_CURVE ( 'NONE', #727, #1059, #700, .T. ) ;
#847 = DIRECTION ( 'NONE',  ( 0.000000000000000000, -1.000000000000000000, 0.000000000000000000 ) ) ;
#848 = VECTOR ( 'NONE', #718, 1000.000000000000000 ) ;
#849 = EDGE_CURVE ( 'NONE', #362, #369, #693, .T. ) ;
#850 = VECTOR ( 'NONE', #834, 1000.000000000000000 ) ;
#851 = CARTESIAN_POINT ( 'NONE',  ( 86.44753291965899678, 0.000000000000000000, 0.000000000000000000 ) ) ;
#852 = CARTESIAN_POINT ( 'NONE',  ( 0.000000000000000000, 26.34799808985300018, 0.000000000000000000 ) ) ;
#853 = CARTESIAN_POINT ( 'NONE',  ( 86.44753291965899678, 26.34799808985300018, 0.000000000000000000 ) ) ;
#854 = LINE ( 'NONE', #16, #441 ) ;
#855 = VECTOR ( 'NONE', #329, 1000.000000000000000 ) ;
#856 = CARTESIAN_POINT ( 'NONE',  ( 43.00990868987399551, 0.000000000000000000, 42.78210434725200173 ) ) ;
#857 = ORIENTED_EDGE ( 'NONE', *, *, #871, .F. ) ;
#858 = CARTESIAN_POINT ( 'NONE',  ( 43.00990868987399551, 69.95269589910401464, 42.78210434725200173 ) ) ;
#859 = DIRECTION ( 'NONE',  ( 0.000000000000000000, 0.7027711939790640683, -0.7114159464850650094 ) ) ;
#860 = VERTEX_POINT ( 'NONE', #86 ) ;
#861 = PLANE ( 'NONE',  #498 ) ;
#862 = CARTESIAN_POINT ( 'NONE',  ( 56.00256315030799925, 61.86465491630499969, 28.45772372567899922 ) ) ;
#863 = DIRECTION ( 'NONE',  ( -0.000000000000000000, 1.000000000000000000, 0.000000000000000000 ) ) ;
#864 = EDGE_LOOP ( 'NONE', ( #355, #878, #742, #183 ) ) ;
#865 = EDGE_LOOP ( 'NONE', ( #406, #284, #720, #696 ) ) ;
#866 = CARTESIAN_POINT ( 'NONE',  ( 86.44753291965899678, 59.04085948608799583, 34.46016432083399650 ) ) ;
#867 = EDGE_CURVE ( 'NONE', #1059, #368, #1027, .T. ) ;
#868 = DIRECTION ( 'NONE',  ( 0.06949428886230703262, 0.000000000000000000, 0.9975823493905263684 ) ) ;
#869 = DIRECTION ( 'NONE',  ( 1.000000000000000000, 0.000000000000000000, 0.000000000000000000 ) ) ;
#870 = ORIENTED_EDGE ( 'NONE', *, *, #787, .F. ) ;
#871 = EDGE_CURVE ( 'NONE', #992, #132, #186, .T. ) ;
#872 = VERTEX_POINT ( 'NONE', #1039 ) ;
#873 = FACE_OUTER_BOUND ( 'NONE', #1053, .T. ) ;
#874 = ADVANCED_FACE ( 'NONE', ( #445 ), #936, .F. ) ;
#875 = AXIS2_PLACEMENT_3D ( 'NONE', #464, #458, #803 ) ;
#876 = CARTESIAN_POINT ( 'NONE',  ( 0.000000000000000000, 0.000000000000000000, 0.000000000000000000 ) ) ;
#877 = CARTESIAN_POINT ( 'NONE',  ( 13.91828462411000089, 69.95269589910401464, 29.87557864866700186 ) ) ;
#878 = ORIENTED_EDGE ( 'NONE', *, *, #485, .T. ) ;
#879 = ORIENTED_EDGE ( 'NONE', *, *, #953, .T. ) ;
#880 = CARTESIAN_POINT ( 'NONE',  ( 35.16148387181299739, 47.38972194368400181, 0.000000000000000000 ) ) ;
#881 = PLANE ( 'NONE',  #984 ) ;
#882 = LINE ( 'NONE', #508, #752 ) ;
#883 = ORIENTED_EDGE ( 'NONE', *, *, #1012, .T. ) ;
#884 = VECTOR ( 'NONE', #136, 1000.000000000000000 ) ;
#885 = ORIENTED_EDGE ( 'NONE', *, *, #146, .T. ) ;
#886 = EDGE_CURVE ( 'NONE', #460, #630, #781, .T. ) ;
#887 = LINE ( 'NONE', #202, #250 ) ;
#888 = VECTOR ( 'NONE', #939, 1000.000000000000000 ) ;
#889 = CARTESIAN_POINT ( 'NONE',  ( 0.000000000000000000, 0.000000000000000000, 12.25962338669199880 ) ) ;
#890 = AXIS2_PLACEMENT_3D ( 'NONE', #975, #627, #189 ) ;
#891 = ORIENTED_EDGE ( 'NONE', *, *, #146, .F. ) ;
#892 = ORIENTED_EDGE ( 'NONE', *, *, #934, .T. ) ;
#893 = ADVANCED_FACE ( 'NONE', ( #775 ), #341, .F. ) ;
#894 = VERTEX_POINT ( 'NONE', #957 ) ;
#895 = CARTESIAN_POINT ( 'NONE',  ( 35.28015231067600155, 69.95269589910401464, 19.98547168915199634 ) ) ;
#896 = VECTOR ( 'NONE', #1029, 1000.000000000000000 ) ;
#897 = LINE ( 'NONE', #732, #734 ) ;
#898 = DIRECTION ( 'NONE',  ( 1.000000000000000000, 0.000000000000000000, 0.000000000000000000 ) ) ;
#899 = VECTOR ( 'NONE', #286, 1000.000000000000000 ) ;
#900 = ORIENTED_EDGE ( 'NONE', *, *, #11, .F. ) ;
#901 = EDGE_LOOP ( 'NONE', ( #994, #1082, #381, #1047, #891 ) ) ;
#902 = EDGE_LOOP ( 'NONE', ( #733, #461, #42, #96 ) ) ;
#903 = PLANE ( 'NONE',  #875 ) ;
#904 = ORIENTED_EDGE ( 'NONE', *, *, #218, .T. ) ;
#905 = VERTEX_POINT ( 'NONE', #941 ) ;
#906 = DIRECTION ( 'NONE',  ( 0.000000000000000000, 0.000000000000000000, -1.000000000000000000 ) ) ;
#907 = DIRECTION ( 'NONE',  ( -0.3784377721181124143, 0.000000000000000000, 0.9256267350472756616 ) ) ;
#908 = EDGE_LOOP ( 'NONE', ( #558, #709, #525, #925 ) ) ;
#909 = DIRECTION ( 'NONE',  ( 1.000000000000000000, 0.000000000000000000, 0.000000000000000000 ) ) ;
#910 =( NAMED_UNIT ( * ) SI_UNIT ( $, .STERADIAN. ) SOLID_ANGLE_UNIT ( ) );
#911 = ORIENTED_EDGE ( 'NONE', *, *, #371, .F. ) ;
#912 = ORIENTED_EDGE ( 'NONE', *, *, #617, .T. ) ;
#913 = LINE ( 'NONE', #155, #1076 ) ;
#914 = LINE ( 'NONE', #655, #260 ) ;
#915 = ADVANCED_FACE ( 'NONE', ( #18 ), #259, .F. ) ;
#916 = DIRECTION ( 'NONE',  ( 0.000000000000000000, -0.9372236596577309120, -0.3487288513698999504 ) ) ;
#917 = DIRECTION ( 'NONE',  ( 1.000000000000000000, 0.000000000000000000, 0.000000000000000000 ) ) ;
#918 = CARTESIAN_POINT ( 'NONE',  ( 86.44753291965899678, 0.000000000000000000, 0.000000000000000000 ) ) ;
#919 = SHAPE_DEFINITION_REPRESENTATION ( #107, #37 ) ;
#920 = FACE_OUTER_BOUND ( 'NONE', #598, .T. ) ;
#921 = CARTESIAN_POINT ( 'NONE',  ( 54.39391494687900064, 58.33385973295199989, 29.87557864866700186 ) ) ;
#922 = EDGE_CURVE ( 'NONE', #473, #216, #533, .T. ) ;
#923 = EDGE_CURVE ( 'NONE', #368, #123, #946, .T. ) ;
#924 = LINE ( 'NONE', #491, #546 ) ;
#925 = ORIENTED_EDGE ( 'NONE', *, *, #950, .F. ) ;
#926 = DIRECTION ( 'NONE',  ( -0.3784377721181124143, 0.000000000000000000, 0.9256267350472756616 ) ) ;
#927 = ADVANCED_FACE ( 'NONE', ( #90 ), #108, .F. ) ;
#928 = VECTOR ( 'NONE', #1083, 1000.000000000000000 ) ;
#929 = FACE_OUTER_BOUND ( 'NONE', #316, .T. ) ;
#930 = DIRECTION ( 'NONE',  ( 0.000000000000000000, 0.000000000000000000, 1.000000000000000000 ) ) ;
#931 = VECTOR ( 'NONE', #281, 1000.000000000000000 ) ;
#932 = DIRECTION ( 'NONE',  ( 0.9256267350472756616, 0.000000000000000000, 0.3784377721181124143 ) ) ;
#933 = VECTOR ( 'NONE', #311, 1000.000000000000000 ) ;
#934 = EDGE_CURVE ( 'NONE', #971, #526, #346, .T. ) ;
#935 = CARTESIAN_POINT ( 'NONE',  ( 0.000000000000000000, 0.000000000000000000, 71.33106436773199732 ) ) ;
#936 = PLANE ( 'NONE',  #306 ) ;
#937 = VECTOR ( 'NONE', #92, 1000.000000000000114 ) ;
#938 = EDGE_LOOP ( 'NONE', ( #980, #784, #572, #428 ) ) ;
#939 = DIRECTION ( 'NONE',  ( 0.000000000000000000, -1.000000000000000000, 0.000000000000000000 ) ) ;
#940 = VECTOR ( 'NONE', #109, 1000.000000000000114 ) ;
#941 = CARTESIAN_POINT ( 'NONE',  ( 22.34029697410000281, 48.66455525967099760, 30.59927517547700049 ) ) ;
#942 = ORIENTED_EDGE ( 'NONE', *, *, #922, .T. ) ;
#943 = CYLINDRICAL_SURFACE ( 'NONE', #795, 4.822002510846003176 ) ;
#944 = VECTOR ( 'NONE', #952, 1000.000000000000000 ) ;
#945 = PRODUCT ( '20260414_160844_73', '20260414_160844_73', '', ( #1088 ) ) ;
#946 = LINE ( 'NONE', #876, #128 ) ;
#947 = PLANE ( 'NONE',  #85 ) ;
#948 = ORIENTED_EDGE ( 'NONE', *, *, #923, .T. ) ;
#949 = ORIENTED_EDGE ( 'NONE', *, *, #849, .T. ) ;
#950 = EDGE_CURVE ( 'NONE', #806, #564, #141, .T. ) ;
#951 = CYLINDRICAL_SURFACE ( 'NONE', #1061, 4.822002510846003176 ) ;
#952 = DIRECTION ( 'NONE',  ( -0.9975823493905263684, 0.000000000000000000, 0.06949428886230703262 ) ) ;
#953 = EDGE_CURVE ( 'NONE', #468, #315, #740, .T. ) ;
#954 = CARTESIAN_POINT ( 'NONE',  ( 21.50495434493699776, 69.95269589910401464, 45.71183827355899609 ) ) ;
#955 = ORIENTED_EDGE ( 'NONE', *, *, #1093, .T. ) ;
#956 = DIRECTION ( 'NONE',  ( 0.000000000000000000, 1.000000000000000000, 0.000000000000000000 ) ) ;
#957 = CARTESIAN_POINT ( 'NONE',  ( 13.91828462411000089, 59.04085948608799583, 34.46016432083399650 ) ) ;
#958 = LINE ( 'NONE', #608, #576 ) ;
#959 = VERTEX_POINT ( 'NONE', #889 ) ;
#960 = ORIENTED_EDGE ( 'NONE', *, *, #821, .T. ) ;
#961 = PLANE ( 'NONE',  #890 ) ;
#962 = VECTOR ( 'NONE', #664, 1000.000000000000000 ) ;
#963 = DIRECTION ( 'NONE',  ( -0.3784377721181124143, 0.000000000000000000, 0.9256267350472757727 ) ) ;
#964 = EDGE_CURVE ( 'NONE', #571, #959, #650, .T. ) ;
#965 = CARTESIAN_POINT ( 'NONE',  ( 35.16148387181299739, 47.38972194368400181, 5.849773811630000431 ) ) ;
#966 = ORIENTED_EDGE ( 'NONE', *, *, #93, .F. ) ;
#967 = ORIENTED_EDGE ( 'NONE', *, *, #437, .T. ) ;
#968 = LINE ( 'NONE', #370, #640 ) ;
#969 = CARTESIAN_POINT ( 'NONE',  ( 0.000000000000000000, 43.34126610719400219, 65.26653107407300070 ) ) ;
#970 =( LENGTH_UNIT ( ) NAMED_UNIT ( * ) SI_UNIT ( .MILLI., .METRE. ) );
#971 = VERTEX_POINT ( 'NONE', #623 ) ;
#972 = VECTOR ( 'NONE', #288, 1000.000000000000000 ) ;
#973 = ORIENTED_EDGE ( 'NONE', *, *, #844, .T. ) ;
#974 = PLANE ( 'NONE',  #198 ) ;
#975 = CARTESIAN_POINT ( 'NONE',  ( 43.00990868987399551, 0.000000000000000000, 42.78210434725200173 ) ) ;
#976 = VECTOR ( 'NONE', #1105, 1000.000000000000000 ) ;
#977 = DIRECTION ( 'NONE',  ( 1.000000000000000000, 0.000000000000000000, 0.000000000000000000 ) ) ;
#978 = VECTOR ( 'NONE', #794, 1000.000000000000000 ) ;
#979 = CARTESIAN_POINT ( 'NONE',  ( 0.000000000000000000, 69.95269589910401464, 71.33106436773199732 ) ) ;
#980 = ORIENTED_EDGE ( 'NONE', *, *, #305, .F. ) ;
#981 = ORIENTED_EDGE ( 'NONE', *, *, #681, .F. ) ;
#982 = ORIENTED_EDGE ( 'NONE', *, *, #278, .T. ) ;
#983 = DIRECTION ( 'NONE',  ( 0.000000000000000000, 0.000000000000000000, 1.000000000000000000 ) ) ;
#984 = AXIS2_PLACEMENT_3D ( 'NONE', #724, #57, #909 ) ;
#985 = ORIENTED_EDGE ( 'NONE', *, *, #229, .T. ) ;
#986 = ORIENTED_EDGE ( 'NONE', *, *, #602, .F. ) ;
#987 = ORIENTED_EDGE ( 'NONE', *, *, #993, .F. ) ;
#988 = VECTOR ( 'NONE', #828, 1000.000000000000000 ) ;
#989 = DIRECTION ( 'NONE',  ( 0.000000000000000000, -0.7071067811865475727, 0.7071067811865475727 ) ) ;
#990 = CARTESIAN_POINT ( 'NONE',  ( 38.94778661765599992, 69.95269589910401464, 11.01474884107200047 ) ) ;
#991 = FACE_BOUND ( 'NONE', #232, .T. ) ;
#992 = VERTEX_POINT ( 'NONE', #31 ) ;
#993 = EDGE_CURVE ( 'NONE', #315, #1041, #214, .T. ) ;
#994 = ORIENTED_EDGE ( 'NONE', *, *, #594, .F. ) ;
#995 = CARTESIAN_POINT ( 'NONE',  ( 0.000000000000000000, 43.34126610719400219, 65.26653107407300070 ) ) ;
#996 = AXIS2_PLACEMENT_3D ( 'NONE', #811, #39, #898 ) ;
#997 = ADVANCED_FACE ( 'NONE', ( #307 ), #881, .F. ) ;
#998 = CARTESIAN_POINT ( 'NONE',  ( 22.34029697410000281, 0.000000000000000000, 29.87557864866700186 ) ) ;
#999 = VECTOR ( 'NONE', #77, 1000.000000000000000 ) ;
#1000 = FILL_AREA_STYLE_COLOUR ( '', #711 ) ;
#1001 = ORIENTED_EDGE ( 'NONE', *, *, #127, .T. ) ;
#1002 = ORIENTED_EDGE ( 'NONE', *, *, #849, .F. ) ;
#1003 = LINE ( 'NONE', #499, #254 ) ;
#1004 = CARTESIAN_POINT ( 'NONE',  ( 22.34029697410000281, 69.95269589910401464, 29.87557864866700186 ) ) ;
#1005 = VECTOR ( 'NONE', #1036, 1000.000000000000000 ) ;
#1006 = VERTEX_POINT ( 'NONE', #120 ) ;
#1007 = PLANE ( 'NONE',  #67 ) ;
#1008 = ADVANCED_FACE ( 'NONE', ( #810 ), #1055, .F. ) ;
#1009 = CARTESIAN_POINT ( 'NONE',  ( 86.44753291965899678, 59.04085948608799583, 34.46016432083399650 ) ) ;
#1010 = LINE ( 'NONE', #1004, #74 ) ;
#1011 = DIRECTION ( 'NONE',  ( 1.000000000000000000, 0.000000000000000000, 0.000000000000000000 ) ) ;
#1012 = EDGE_CURVE ( 'NONE', #630, #349, #228, .T. ) ;
#1013 = DIRECTION ( 'NONE',  ( 0.000000000000000000, 0.1524107292649915513, 0.9883172413779461873 ) ) ;
#1014 = CARTESIAN_POINT ( 'NONE',  ( 86.44753291965899678, 48.66455525967099760, 30.59927517547700049 ) ) ;
#1015 = ADVANCED_FACE ( 'NONE', ( #45 ), #569, .F. ) ;
#1016 = VECTOR ( 'NONE', #379, 1000.000000000000000 ) ;
#1017 = CARTESIAN_POINT ( 'NONE',  ( 13.91828462411000089, 0.000000000000000000, 29.87557864866700186 ) ) ;
#1018 = ORIENTED_EDGE ( 'NONE', *, *, #719, .F. ) ;
#1019 = LINE ( 'NONE', #692, #1086 ) ;
#1020 = EDGE_CURVE ( 'NONE', #279, #894, #292, .T. ) ;
#1021 = VECTOR ( 'NONE', #314, 1000.000000000000000 ) ;
#1022 = PLANE ( 'NONE',  #76 ) ;
#1023 = VECTOR ( 'NONE', #574, 1000.000000000000000 ) ;
#1024 = ORIENTED_EDGE ( 'NONE', *, *, #44, .F. ) ;
#1025 = CARTESIAN_POINT ( 'NONE',  ( 0.000000000000000000, 57.12474782681599805, 22.03501421236100200 ) ) ;
#1026 = VECTOR ( 'NONE', #361, 1000.000000000000000 ) ;
#1027 = LINE ( 'NONE', #12, #931 ) ;
#1028 = ADVANCED_FACE ( 'NONE', ( #642, #113, #478 ), #903, .F. ) ;
#1029 = DIRECTION ( 'NONE',  ( 0.000000000000000000, 1.000000000000000000, 0.000000000000000000 ) ) ;
#1030 = ORIENTED_EDGE ( 'NONE', *, *, #833, .T. ) ;
#1031 = VERTEX_POINT ( 'NONE', #204 ) ;
#1032 = PLANE ( 'NONE',  #748 ) ;
#1033 = VECTOR ( 'NONE', #221, 1000.000000000000000 ) ;
#1034 = ADVANCED_FACE ( 'NONE', ( #796 ), #38, .F. ) ;
#1035 = FACE_OUTER_BOUND ( 'NONE', #237, .T. ) ;
#1036 = DIRECTION ( 'NONE',  ( -1.000000000000000000, 0.000000000000000000, 0.000000000000000000 ) ) ;
#1037 = ORIENTED_EDGE ( 'NONE', *, *, #846, .T. ) ;
#1038 = LINE ( 'NONE', #88, #258 ) ;
#1039 = CARTESIAN_POINT ( 'NONE',  ( 86.44753291965899678, 26.34799808985300018, 0.000000000000000000 ) ) ;
#1040 = FACE_OUTER_BOUND ( 'NONE', #660, .T. ) ;
#1041 = VERTEX_POINT ( 'NONE', #634 ) ;
#1042 = VERTEX_POINT ( 'NONE', #555 ) ;
#1043 = DIRECTION ( 'NONE',  ( -1.000000000000000000, 0.000000000000000000, 0.000000000000000000 ) ) ;
#1044 = PRODUCT_DEFINITION ( 'ๆ', '', #337, #487 ) ;
#1045 = DIRECTION ( 'NONE',  ( 0.000000000000000000, -1.000000000000000000, 0.000000000000000000 ) ) ;
#1046 = FACE_OUTER_BOUND ( 'NONE', #864, .T. ) ;
#1047 = ORIENTED_EDGE ( 'NONE', *, *, #561, .T. ) ;
#1048 = CARTESIAN_POINT ( 'NONE',  ( 0.000000000000000000, 33.69726108550199939, 61.47309817792599773 ) ) ;
#1049 = FACE_OUTER_BOUND ( 'NONE', #267, .T. ) ;
#1050 = CARTESIAN_POINT ( 'NONE',  ( 0.000000000000000000, 26.34799808985300018, 12.25962338669199880 ) ) ;
#1051 = LINE ( 'NONE', #130, #884 ) ;
#1052 = EDGE_LOOP ( 'NONE', ( #474, #200, #454, #131 ) ) ;
#1053 = EDGE_LOOP ( 'NONE', ( #342, #386, #453, #653 ) ) ;
#1054 = DIRECTION ( 'NONE',  ( 0.000000000000000000, -1.000000000000000000, 0.000000000000000000 ) ) ;
#1055 = PLANE ( 'NONE',  #163 ) ;
#1056 = PLANE ( 'NONE',  #168 ) ;
#1057 = ORIENTED_EDGE ( 'NONE', *, *, #521, .F. ) ;
#1058 = ORIENTED_EDGE ( 'NONE', *, *, #431, .F. ) ;
#1059 = VERTEX_POINT ( 'NONE', #1050 ) ;
#1060 = DIRECTION ( 'NONE',  ( -1.000000000000000000, 0.000000000000000000, 0.000000000000000000 ) ) ;
#1061 = AXIS2_PLACEMENT_3D ( 'NONE', #612, #179, #527 ) ;
#1062 = DIRECTION ( 'NONE',  ( -1.000000000000000000, 0.000000000000000000, 0.000000000000000000 ) ) ;
#1063 = ORIENTED_EDGE ( 'NONE', *, *, #1012, .F. ) ;
#1064 = EDGE_CURVE ( 'NONE', #138, #290, #562, .T. ) ;
#1065 = ORIENTED_EDGE ( 'NONE', *, *, #789, .T. ) ;
#1066 = ORIENTED_EDGE ( 'NONE', *, *, #352, .T. ) ;
#1067 = CARTESIAN_POINT ( 'NONE',  ( 22.34029697410000281, 49.37945780682100150, 29.87557864866700186 ) ) ;
#1068 = ORIENTED_EDGE ( 'NONE', *, *, #477, .T. ) ;
#1069 = EDGE_CURVE ( 'NONE', #347, #209, #52, .T. ) ;
#1070 = DIRECTION ( 'NONE',  ( 0.000000000000000000, 0.000000000000000000, 1.000000000000000000 ) ) ;
#1071 = DIRECTION ( 'NONE',  ( 0.000000000000000000, 0.000000000000000000, -1.000000000000000000 ) ) ;
#1072 = VERTEX_POINT ( 'NONE', #547 ) ;
#1073 = EDGE_CURVE ( 'NONE', #959, #1006, #897, .T. ) ;
#1074 = ORIENTED_EDGE ( 'NONE', *, *, #62, .T. ) ;
#1075 = LINE ( 'NONE', #921, #988 ) ;
#1076 = VECTOR ( 'NONE', #66, 1000.000000000000000 ) ;
#1077 = CARTESIAN_POINT ( 'NONE',  ( 13.91828462411000089, 69.95269589910401464, 49.05084525267299966 ) ) ;
#1078 = ORIENTED_EDGE ( 'NONE', *, *, #687, .T. ) ;
#1079 = CARTESIAN_POINT ( 'NONE',  ( 13.91828462411000089, 0.000000000000000000, 14.93778932433400009 ) ) ;
#1080 = LINE ( 'NONE', #726, #1021 ) ;
#1081 = ORIENTED_EDGE ( 'NONE', *, *, #687, .F. ) ;
#1082 = ORIENTED_EDGE ( 'NONE', *, *, #1069, .T. ) ;
#1083 = DIRECTION ( 'NONE',  ( 1.000000000000000000, 0.000000000000000000, 0.000000000000000000 ) ) ;
#1084 = CIRCLE ( 'NONE', #657, 4.822002510846003176 ) ;
#1085 = CARTESIAN_POINT ( 'NONE',  ( 86.44753291965899678, 48.66455525967099760, 30.59927517547700049 ) ) ;
#1086 = VECTOR ( 'NONE', #518, 1000.000000000000000 ) ;
#1087 = EDGE_CURVE ( 'NONE', #1072, #315, #671, .T. ) ;
#1088 = PRODUCT_CONTEXT ( 'NONE', #830, 'mechanical' ) ;
#1089 = DIRECTION ( 'NONE',  ( 0.000000000000000000, -0.7114159464850650094, -0.7027711939790640683 ) ) ;
#1090 = DIRECTION ( 'NONE',  ( 0.000000000000000000, -1.000000000000000000, 0.000000000000000000 ) ) ;
#1091 = CARTESIAN_POINT ( 'NONE',  ( 22.34029697410000281, 69.95269589910401464, 49.05084525267299966 ) ) ;
#1092 = VECTOR ( 'NONE', #505, 1000.000000000000000 ) ;
#1093 = EDGE_CURVE ( 'NONE', #872, #727, #510, .T. ) ;
#1094 = CARTESIAN_POINT ( 'NONE',  ( 38.94778661765599992, 69.95269589910401464, 11.01474884107200047 ) ) ;
#1095 = VECTOR ( 'NONE', #100, 1000.000000000000114 ) ;
#1096 = DIRECTION ( 'NONE',  ( 0.9256267350472757727, 0.000000000000000000, 0.3784377721181124143 ) ) ;
#1097 = DIRECTION ( 'NONE',  ( 0.000000000000000000, 0.000000000000000000, 1.000000000000000000 ) ) ;
#1098 = FACE_OUTER_BOUND ( 'NONE', #303, .T. ) ;
#1099 = DIRECTION ( 'NONE',  ( 1.000000000000000000, 0.000000000000000000, 0.000000000000000000 ) ) ;
#1100 = DIRECTION ( 'NONE',  ( 0.000000000000000000, -0.3487288513698999504, 0.9372236596577309120 ) ) ;
#1101 = DIRECTION ( 'NONE',  ( -1.000000000000000000, 0.000000000000000000, 0.000000000000000000 ) ) ;
#1102 = EDGE_CURVE ( 'NONE', #309, #827, #420, .T. ) ;
#1103 = AXIS2_PLACEMENT_3D ( 'NONE', #757, #149, #492 ) ;
#1104 = ORIENTED_EDGE ( 'NONE', *, *, #414, .T. ) ;
#1105 = DIRECTION ( 'NONE',  ( 0.000000000000000000, 0.1524107292649915513, 0.9883172413779461873 ) ) ;
ENDSEC;
END-ISO-10303-21;
