ISO-10303-21;
HEADER;
FILE_DESCRIPTION (( 'STEP AP214' ),
    '1' );
FILE_NAME ('20260414_160844_96.STEP',
    '2026-04-16T14:38:08',
    ( '' ),
    ( '' ),
    'SwSTEP 2.0',
    'SolidWorks 2025',
    '' );
FILE_SCHEMA (( 'AUTOMOTIVE_DESIGN' ));
ENDSEC;

DATA;
#1 = DIRECTION ( 'NONE',  ( 0.8675504371181589347, -0.4973492123810909216, 0.000000000000000000 ) ) ;
#2 = VERTEX_POINT ( 'NONE', #422 ) ;
#3 = CARTESIAN_POINT ( 'NONE',  ( 9.374802915108000789, 16.92387147043700324, 8.325398246136000324 ) ) ;
#4 = EDGE_LOOP ( 'NONE', ( #92, #503, #161, #18 ) ) ;
#5 = DIRECTION ( 'NONE',  ( 0.000000000000000000, 1.000000000000000000, 0.000000000000000000 ) ) ;
#6 = EDGE_CURVE ( 'NONE', #244, #250, #419, .T. ) ;
#7 = DIRECTION ( 'NONE',  ( -0.000000000000000000, 1.000000000000000000, 0.000000000000000000 ) ) ;
#8 = DIRECTION ( 'NONE',  ( -0.7443420879070615781, 0.6677985146510556635, 0.000000000000000000 ) ) ;
#9 = VERTEX_POINT ( 'NONE', #239 ) ;
#10 = DIRECTION ( 'NONE',  ( 0.7443420879070615781, -0.6677985146510556635, 0.000000000000000000 ) ) ;
#11 = DIRECTION ( 'NONE',  ( -1.528655675294999874E-16, 3.993305793561999820E-16, 1.000000000000000000 ) ) ;
#12 = AXIS2_PLACEMENT_3D ( 'NONE', #395, #245, #389 ) ;
#13 = EDGE_LOOP ( 'NONE', ( #90 ) ) ;
#14 = CARTESIAN_POINT ( 'NONE',  ( 16.37515755529900119, 22.48295157706900582, 14.36335113926199902 ) ) ;
#15 = CARTESIAN_POINT ( 'NONE',  ( 16.37515755529900119, 20.40577618215100131, 14.36335113926199902 ) ) ;
#16 = ORIENTED_EDGE ( 'NONE', *, *, #40, .T. ) ;
#17 = DIRECTION ( 'NONE',  ( 0.000000000000000000, 0.000000000000000000, -1.000000000000000000 ) ) ;
#18 = ORIENTED_EDGE ( 'NONE', *, *, #143, .T. ) ;
#19 = LINE ( 'NONE', #126, #412 ) ;
#20 = EDGE_CURVE ( 'NONE', #166, #484, #97, .T. ) ;
#21 = CARTESIAN_POINT ( 'NONE',  ( 24.39252695147299832, 10.18891076062400103, 14.36335113926199902 ) ) ;
#22 = EDGE_CURVE ( 'NONE', #229, #220, #370, .T. ) ;
#23 = VECTOR ( 'NONE', #379, 1000.000000000000114 ) ;
#24 = ORIENTED_EDGE ( 'NONE', *, *, #394, .F. ) ;
#25 = LINE ( 'NONE', #21, #351 ) ;
#26 = ADVANCED_FACE ( 'NONE', ( #43 ), #385, .T. ) ;
#27 = CARTESIAN_POINT ( 'NONE',  ( 10.86348709092199982, 15.58827444113499894, 14.36335113926199902 ) ) ;
#28 = ORIENTED_EDGE ( 'NONE', *, *, #140, .T. ) ;
#29 = ORIENTED_EDGE ( 'NONE', *, *, #164, .T. ) ;
#30 = CARTESIAN_POINT ( 'NONE',  ( 24.07958987752400049, 33.31413228967499407, 8.325398246136000324 ) ) ;
#31 = CARTESIAN_POINT ( 'NONE',  ( 0.000000000000000000, 0.000000000000000000, 8.325398246136000324 ) ) ;
#32 = ADVANCED_FACE ( 'NONE', ( #578 ), #435, .F. ) ;
#33 = VERTEX_POINT ( 'NONE', #296 ) ;
#34 = DIRECTION ( 'NONE',  ( 0.000000000000000000, 0.000000000000000000, 1.000000000000000000 ) ) ;
#35 = DIRECTION ( 'NONE',  ( 0.000000000000000000, 0.000000000000000000, -1.000000000000000000 ) ) ;
#36 = COLOUR_RGB ( '',0.7921568627450980005, 0.8196078431372548767, 0.9333333333333333481 ) ;
#37 = ORIENTED_EDGE ( 'NONE', *, *, #226, .T. ) ;
#38 = FACE_BOUND ( 'NONE', #624, .T. ) ;
#39 = ORIENTED_EDGE ( 'NONE', *, *, #437, .T. ) ;
#40 = EDGE_CURVE ( 'NONE', #9, #328, #327, .T. ) ;
#41 = ORIENTED_EDGE ( 'NONE', *, *, #127, .T. ) ;
#42 = LINE ( 'NONE', #190, #447 ) ;
#43 = FACE_OUTER_BOUND ( 'NONE', #407, .T. ) ;
#44 = EDGE_CURVE ( 'NONE', #2, #280, #569, .T. ) ;
#45 = ORIENTED_EDGE ( 'NONE', *, *, #509, .T. ) ;
#46 = DIRECTION ( 'NONE',  ( 0.000000000000000000, 0.000000000000000000, -1.000000000000000000 ) ) ;
#47 = PLANE ( 'NONE',  #267 ) ;
#48 = VECTOR ( 'NONE', #35, 1000.000000000000000 ) ;
#49 = DIRECTION ( 'NONE',  ( -1.000000000000000000, 0.000000000000000000, 0.000000000000000000 ) ) ;
#50 = AXIS2_PLACEMENT_3D ( 'NONE', #582, #57, #104 ) ;
#51 = PLANE ( 'NONE',  #514 ) ;
#52 = ORIENTED_EDGE ( 'NONE', *, *, #427, .T. ) ;
#53 = CARTESIAN_POINT ( 'NONE',  ( 94.18592526081900473, 0.000000000000000000, 0.000000000000000000 ) ) ;
#54 = CARTESIAN_POINT ( 'NONE',  ( 2.995383755218000044, 23.85250678356500131, 8.325398246136000324 ) ) ;
#55 = EDGE_CURVE ( 'NONE', #266, #229, #615, .T. ) ;
#56 = APPLICATION_PROTOCOL_DEFINITION ( 'draft international standard', 'automotive_design', 1998, #292 ) ;
#57 = DIRECTION ( 'NONE',  ( 1.000000000000000000, 0.000000000000000000, 0.000000000000000000 ) ) ;
#58 = CARTESIAN_POINT ( 'NONE',  ( 2.952906360780000128, 9.765892252606999335, 14.36335113926199902 ) ) ;
#59 = ORIENTED_EDGE ( 'NONE', *, *, #372, .F. ) ;
#60 = PLANE ( 'NONE',  #12 ) ;
#61 = DIRECTION ( 'NONE',  ( -0.4714751295451379276, 0.8818793580872587023, 0.000000000000000000 ) ) ;
#62 = ORIENTED_EDGE ( 'NONE', *, *, #336, .T. ) ;
#63 = VERTEX_POINT ( 'NONE', #457 ) ;
#64 = CARTESIAN_POINT ( 'NONE',  ( 94.18592526081900473, 10.18891076062400103, 12.17577887685100180 ) ) ;
#65 = ORIENTED_EDGE ( 'NONE', *, *, #329, .F. ) ;
#66 = DIRECTION ( 'NONE',  ( 0.000000000000000000, 1.000000000000000000, 0.000000000000000000 ) ) ;
#67 = VECTOR ( 'NONE', #163, 1000.000000000000000 ) ;
#68 = AXIS2_PLACEMENT_3D ( 'NONE', #95, #614, #418 ) ;
#69 = ORIENTED_EDGE ( 'NONE', *, *, #525, .T. ) ;
#70 = CARTESIAN_POINT ( 'NONE',  ( 0.000000000000000000, 68.83666974684700790, 0.000000000000000000 ) ) ;
#71 = EDGE_CURVE ( 'NONE', #290, #526, #236, .T. ) ;
#72 = ADVANCED_BREP_SHAPE_REPRESENTATION ( '20260414_160844_96', ( #99, #496 ), #559 ) ;
#73 = DIRECTION ( 'NONE',  ( 0.000000000000000000, 0.000000000000000000, -1.000000000000000000 ) ) ;
#74 = ORIENTED_EDGE ( 'NONE', *, *, #509, .F. ) ;
#75 = DIRECTION ( 'NONE',  ( -1.528655675294999874E-16, 3.993305793561999820E-16, 1.000000000000000000 ) ) ;
#76 = AXIS2_PLACEMENT_3D ( 'NONE', #129, #464, #265 ) ;
#77 = VECTOR ( 'NONE', #34, 1000.000000000000000 ) ;
#78 = VERTEX_POINT ( 'NONE', #191 ) ;
#79 = PLANE ( 'NONE',  #306 ) ;
#80 = VECTOR ( 'NONE', #333, 1000.000000000000000 ) ;
#81 = ORIENTED_EDGE ( 'NONE', *, *, #590, .T. ) ;
#82 = VECTOR ( 'NONE', #585, 999.9999999999998863 ) ;
#83 = ORIENTED_EDGE ( 'NONE', *, *, #338, .T. ) ;
#84 = FACE_OUTER_BOUND ( 'NONE', #388, .T. ) ;
#85 = DIRECTION ( 'NONE',  ( 0.000000000000000000, 1.000000000000000000, 0.000000000000000000 ) ) ;
#86 = ORIENTED_EDGE ( 'NONE', *, *, #6, .T. ) ;
#87 = CARTESIAN_POINT ( 'NONE',  ( 94.18592526081900473, 76.09245043747199588, 0.000000000000000000 ) ) ;
#88 = ORIENTED_EDGE ( 'NONE', *, *, #154, .T. ) ;
#89 = AXIS2_PLACEMENT_3D ( 'NONE', #256, #1, #252 ) ;
#90 = ORIENTED_EDGE ( 'NONE', *, *, #287, .T. ) ;
#91 = LINE ( 'NONE', #279, #202 ) ;
#92 = ORIENTED_EDGE ( 'NONE', *, *, #323, .T. ) ;
#93 = ADVANCED_FACE ( 'NONE', ( #138, #197 ), #136, .F. ) ;
#94 = ORIENTED_EDGE ( 'NONE', *, *, #116, .F. ) ;
#95 = CARTESIAN_POINT ( 'NONE',  ( 3.141188809622999845, 26.01488365157100091, 12.45583466022300101 ) ) ;
#96 = EDGE_CURVE ( 'NONE', #250, #262, #232, .T. ) ;
#97 = LINE ( 'NONE', #374, #609 ) ;
#98 = ORIENTED_EDGE ( 'NONE', *, *, #261, .T. ) ;
#99 = MANIFOLD_SOLID_BREP ( 'Open CASCADE STEP translator 7.5 10[1]', #278 ) ;
#100 = DIRECTION ( 'NONE',  ( 1.000000000000000000, 0.000000000000000000, 0.000000000000000000 ) ) ;
#101 = ORIENTED_EDGE ( 'NONE', *, *, #164, .F. ) ;
#102 = ADVANCED_FACE ( 'NONE', ( #350 ), #623, .F. ) ;
#103 = VECTOR ( 'NONE', #544, 1000.000000000000114 ) ;
#104 = DIRECTION ( 'NONE',  ( 0.000000000000000000, 1.000000000000000000, 0.000000000000000000 ) ) ;
#105 = CARTESIAN_POINT ( 'NONE',  ( 4.441590536594000049, 8.430295223304000274, 14.36335113926199902 ) ) ;
#106 = VECTOR ( 'NONE', #85, 1000.000000000000000 ) ;
#107 = LINE ( 'NONE', #150, #603 ) ;
#108 = SURFACE_STYLE_FILL_AREA ( #390 ) ;
#109 = ADVANCED_FACE ( 'NONE', ( #534 ), #115, .F. ) ;
#110 = FACE_OUTER_BOUND ( 'NONE', #546, .T. ) ;
#111 = LINE ( 'NONE', #453, #186 ) ;
#112 = ORIENTED_EDGE ( 'NONE', *, *, #44, .T. ) ;
#113 = VECTOR ( 'NONE', #61, 999.9999999999998863 ) ;
#114 = FACE_OUTER_BOUND ( 'NONE', #579, .T. ) ;
#115 = PLANE ( 'NONE',  #597 ) ;
#116 = EDGE_CURVE ( 'NONE', #313, #484, #492, .T. ) ;
#117 = VERTEX_POINT ( 'NONE', #105 ) ;
#118 = DIRECTION ( 'NONE',  ( 1.000000000000000000, 0.000000000000000000, 0.000000000000000000 ) ) ;
#119 = FACE_OUTER_BOUND ( 'NONE', #495, .T. ) ;
#120 = EDGE_LOOP ( 'NONE', ( #88, #128, #74, #258 ) ) ;
#121 = LINE ( 'NONE', #218, #440 ) ;
#122 = CYLINDRICAL_SURFACE ( 'NONE', #76, 2.077175394918001849 ) ;
#123 = AXIS2_PLACEMENT_3D ( 'NONE', #251, #445, #483 ) ;
#124 = VERTEX_POINT ( 'NONE', #450 ) ;
#125 = CARTESIAN_POINT ( 'NONE',  ( 13.61003931152399993, 39.96804084097500009, 14.36335113926199902 ) ) ;
#126 = CARTESIAN_POINT ( 'NONE',  ( 10.86348709092199982, 15.58827444113499894, 14.36335113926199902 ) ) ;
#127 = EDGE_CURVE ( 'NONE', #328, #124, #160, .T. ) ;
#128 = ORIENTED_EDGE ( 'NONE', *, *, #554, .F. ) ;
#129 = CARTESIAN_POINT ( 'NONE',  ( 16.37515755529900119, 20.40577618215100131, 14.36335113926199902 ) ) ;
#130 = CARTESIAN_POINT ( 'NONE',  ( 24.39252695147299832, 10.18891076062400103, 14.36335113926199902 ) ) ;
#131 = ORIENTED_EDGE ( 'NONE', *, *, #287, .F. ) ;
#132 = VECTOR ( 'NONE', #367, 1000.000000000000000 ) ;
#133 = VECTOR ( 'NONE', #376, 1000.000000000000000 ) ;
#134 = ORIENTED_EDGE ( 'NONE', *, *, #366, .F. ) ;
#135 = CARTESIAN_POINT ( 'NONE',  ( 4.961881529924999867, 27.28276456133800210, 12.45583466022300101 ) ) ;
#136 = CYLINDRICAL_SURFACE ( 'NONE', #317, 11.05880113401999942 ) ;
#137 = PLANE ( 'NONE',  #68 ) ;
#138 = FACE_OUTER_BOUND ( 'NONE', #460, .T. ) ;
#139 = DIRECTION ( 'NONE',  ( -1.000000000000000000, 0.000000000000000000, 0.000000000000000000 ) ) ;
#140 = EDGE_CURVE ( 'NONE', #266, #280, #310, .T. ) ;
#141 = EDGE_LOOP ( 'NONE', ( #98, #432, #180, #217 ) ) ;
#142 = ORIENTED_EDGE ( 'NONE', *, *, #127, .F. ) ;
#143 = EDGE_CURVE ( 'NONE', #117, #416, #439, .T. ) ;
#144 = LINE ( 'NONE', #192, #392 ) ;
#145 = DIRECTION ( 'NONE',  ( 0.000000000000000000, 1.000000000000000000, 0.000000000000000000 ) ) ;
#146 = CARTESIAN_POINT ( 'NONE',  ( 0.000000000000000000, 0.000000000000000000, 14.36335113926199902 ) ) ;
#147 = ADVANCED_FACE ( 'NONE', ( #119 ), #51, .T. ) ;
#148 = DIRECTION ( 'NONE',  ( 0.000000000000000000, 0.000000000000000000, 1.000000000000000000 ) ) ;
#149 = ORIENTED_EDGE ( 'NONE', *, *, #498, .T. ) ;
#150 = CARTESIAN_POINT ( 'NONE',  ( 0.000000000000000000, 76.09245043747199588, 14.36335113926199902 ) ) ;
#151 = CARTESIAN_POINT ( 'NONE',  ( 2.995383755218000044, 23.85250678356500131, 8.325398246136000324 ) ) ;
#152 = ORIENTED_EDGE ( 'NONE', *, *, #215, .F. ) ;
#153 = AXIS2_PLACEMENT_3D ( 'NONE', #555, #73, #406 ) ;
#154 = EDGE_CURVE ( 'NONE', #2, #78, #249, .T. ) ;
#155 = CARTESIAN_POINT ( 'NONE',  ( 2.995383755218000044, 23.85250678356500131, 8.325398246136000324 ) ) ;
#156 = DIRECTION ( 'NONE',  ( 0.000000000000000000, 0.000000000000000000, -1.000000000000000000 ) ) ;
#157 = EDGE_LOOP ( 'NONE', ( #557, #45, #523, #515 ) ) ;
#158 = VECTOR ( 'NONE', #524, 1000.000000000000000 ) ;
#159 = PLANE ( 'NONE',  #50 ) ;
#160 = LINE ( 'NONE', #399, #297 ) ;
#161 = ORIENTED_EDGE ( 'NONE', *, *, #338, .F. ) ;
#162 = CARTESIAN_POINT ( 'NONE',  ( 9.374802915108000789, 16.92387147043700324, 14.36335113926199902 ) ) ;
#163 = DIRECTION ( 'NONE',  ( 0.000000000000000000, 1.000000000000000000, 0.000000000000000000 ) ) ;
#164 = EDGE_CURVE ( 'NONE', #518, #174, #446, .T. ) ;
#165 = PRODUCT_DEFINITION_SHAPE ( 'NONE', 'NONE',  #562 ) ;
#166 = VERTEX_POINT ( 'NONE', #260 ) ;
#167 = EDGE_CURVE ( 'NONE', #244, #290, #111, .T. ) ;
#168 = DIRECTION ( 'NONE',  ( 0.000000000000000000, 1.000000000000000000, 0.000000000000000000 ) ) ;
#169 = VECTOR ( 'NONE', #139, 1000.000000000000000 ) ;
#170 = SHAPE_DEFINITION_REPRESENTATION ( #165, #72 ) ;
#171 = ORIENTED_EDGE ( 'NONE', *, *, #621, .T. ) ;
#172 = DIRECTION ( 'NONE',  ( 0.000000000000000000, 0.000000000000000000, 1.000000000000000000 ) ) ;
#173 = AXIS2_PLACEMENT_3D ( 'NONE', #255, #7, #118 ) ;
#174 = VERTEX_POINT ( 'NONE', #489 ) ;
#175 = DIRECTION ( 'NONE',  ( 0.7443420879070615781, -0.6677985146510556635, 0.000000000000000000 ) ) ;
#176 = ORIENTED_EDGE ( 'NONE', *, *, #40, .F. ) ;
#177 = EDGE_CURVE ( 'NONE', #358, #358, #566, .T. ) ;
#178 = DIRECTION ( 'NONE',  ( 0.000000000000000000, -1.000000000000000000, 0.000000000000000000 ) ) ;
#179 = FACE_OUTER_BOUND ( 'NONE', #13, .T. ) ;
#180 = ORIENTED_EDGE ( 'NONE', *, *, #548, .F. ) ;
#181 = LINE ( 'NONE', #216, #132 ) ;
#182 = VECTOR ( 'NONE', #212, 1000.000000000000114 ) ;
#183 = ORIENTED_EDGE ( 'NONE', *, *, #443, .F. ) ;
#184 = LINE ( 'NONE', #135, #436 ) ;
#185 = DIRECTION ( 'NONE',  ( 1.000000000000000000, 0.000000000000000000, 0.000000000000000000 ) ) ;
#186 = VECTOR ( 'NONE', #302, 1000.000000000000000 ) ;
#187 = ORIENTED_EDGE ( 'NONE', *, *, #455, .F. ) ;
#188 = CARTESIAN_POINT ( 'NONE',  ( 4.961881529924999867, 27.28276456133800210, 8.325398246136000324 ) ) ;
#189 = EDGE_LOOP ( 'NONE', ( #591 ) ) ;
#190 = CARTESIAN_POINT ( 'NONE',  ( 4.441590536594000049, 8.430295223304000274, 14.36335113926199902 ) ) ;
#191 = CARTESIAN_POINT ( 'NONE',  ( 94.18592526081900473, 76.09245043747199588, 0.000000000000000000 ) ) ;
#192 = CARTESIAN_POINT ( 'NONE',  ( 4.961881529924999867, 27.28276456133800210, 8.325398246136000324 ) ) ;
#193 = APPLICATION_CONTEXT ( 'automotive_design' ) ;
#194 = CARTESIAN_POINT ( 'NONE',  ( 94.18592526081900473, 0.000000000000000000, 0.000000000000000000 ) ) ;
#195 = VECTOR ( 'NONE', #611, 1000.000000000000227 ) ;
#196 = LINE ( 'NONE', #228, #276 ) ;
#197 = FACE_OUTER_BOUND ( 'NONE', #552, .T. ) ;
#198 = ORIENTED_EDGE ( 'NONE', *, *, #71, .F. ) ;
#199 = DIRECTION ( 'NONE',  ( 0.9951249532772735718, 0.09862214439416705503, 0.000000000000000000 ) ) ;
#200 =( NAMED_UNIT ( * ) SI_UNIT ( $, .STERADIAN. ) SOLID_ANGLE_UNIT ( ) );
#201 = FACE_BOUND ( 'NONE', #550, .T. ) ;
#202 = VECTOR ( 'NONE', #293, 1000.000000000000114 ) ;
#203 = LINE ( 'NONE', #535, #530 ) ;
#204 = DIRECTION ( 'NONE',  ( 1.000000000000000000, 0.000000000000000000, 0.000000000000000000 ) ) ;
#205 = STYLED_ITEM ( 'NONE', ( #208 ), #99 ) ;
#206 = ADVANCED_FACE ( 'NONE', ( #396 ), #47, .F. ) ;
#207 = LINE ( 'NONE', #485, #454 ) ;
#208 = PRESENTATION_STYLE_ASSIGNMENT (( #213 ) ) ;
#209 = ADVANCED_FACE ( 'NONE', ( #356 ), #318, .F. ) ;
#210 = ORIENTED_EDGE ( 'NONE', *, *, #320, .T. ) ;
#211 = AXIS2_PLACEMENT_3D ( 'NONE', #538, #248, #46 ) ;
#212 = DIRECTION ( 'NONE',  ( -0.6677985146510556635, -0.7443420879070615781, 0.000000000000000000 ) ) ;
#213 = SURFACE_STYLE_USAGE ( .BOTH. , #486 ) ;
#214 = ORIENTED_EDGE ( 'NONE', *, *, #554, .T. ) ;
#215 = EDGE_CURVE ( 'NONE', #243, #2, #181, .T. ) ;
#216 = CARTESIAN_POINT ( 'NONE',  ( 0.000000000000000000, 0.000000000000000000, 0.000000000000000000 ) ) ;
#217 = ORIENTED_EDGE ( 'NONE', *, *, #320, .F. ) ;
#218 = CARTESIAN_POINT ( 'NONE',  ( 2.995383755218000044, 23.85250678356500131, 12.45583466022300101 ) ) ;
#219 = PLANE ( 'NONE',  #421 ) ;
#220 = VERTEX_POINT ( 'NONE', #130 ) ;
#221 = ADVANCED_FACE ( 'NONE', ( #608 ), #605, .F. ) ;
#222 = DIRECTION ( 'NONE',  ( 0.000000000000000000, 0.000000000000000000, -1.000000000000000000 ) ) ;
#223 = DIRECTION ( 'NONE',  ( 0.000000000000000000, 0.000000000000000000, -1.000000000000000000 ) ) ;
#224 = VECTOR ( 'NONE', #476, 1000.000000000000114 ) ;
#225 = CARTESIAN_POINT ( 'NONE',  ( 94.18592526081900473, 0.000000000000000000, 8.325398246136000324 ) ) ;
#226 = EDGE_CURVE ( 'NONE', #220, #262, #25, .T. ) ;
#227 = ORIENTED_EDGE ( 'NONE', *, *, #364, .F. ) ;
#228 = CARTESIAN_POINT ( 'NONE',  ( 94.18592526081900473, 68.83666974684700790, 0.000000000000000000 ) ) ;
#229 = VERTEX_POINT ( 'NONE', #561 ) ;
#230 = ORIENTED_EDGE ( 'NONE', *, *, #167, .T. ) ;
#231 = LINE ( 'NONE', #30, #23 ) ;
#232 = LINE ( 'NONE', #330, #588 ) ;
#233 = CIRCLE ( 'NONE', #556, 11.05880113401999942 ) ;
#234 = CARTESIAN_POINT ( 'NONE',  ( 94.18592526081900473, 68.83666974684700790, 8.325398246136000324 ) ) ;
#235 = AXIS2_PLACEMENT_3D ( 'NONE', #285, #629, #145 ) ;
#236 = LINE ( 'NONE', #31, #158 ) ;
#237 = ADVANCED_FACE ( 'NONE', ( #607 ), #219, .F. ) ;
#238 = DIRECTION ( 'NONE',  ( -0.4973492123810909216, -0.8675504371181589347, 0.000000000000000000 ) ) ;
#239 = CARTESIAN_POINT ( 'NONE',  ( 2.952906360780000128, 9.765892252606999335, 14.36335113926199902 ) ) ;
#240 = UNCERTAINTY_MEASURE_WITH_UNIT (LENGTH_MEASURE( 1.000000000000000082E-05 ), #547, 'distance_accuracy_value', 'NONE');
#241 = ORIENTED_EDGE ( 'NONE', *, *, #143, .F. ) ;
#242 = CARTESIAN_POINT ( 'NONE',  ( 9.374802915108000789, 16.92387147043700324, 14.36335113926199902 ) ) ;
#243 = VERTEX_POINT ( 'NONE', #70 ) ;
#244 = VERTEX_POINT ( 'NONE', #225 ) ;
#245 = DIRECTION ( 'NONE',  ( -0.03132815641236365994, 0.000000000000000000, -0.9995091528424352445 ) ) ;
#246 = CARTESIAN_POINT ( 'NONE',  ( 16.37515755529900119, 20.40577618215100131, 8.325398246136000324 ) ) ;
#247 = ORIENTED_EDGE ( 'NONE', *, *, #621, .F. ) ;
#248 = DIRECTION ( 'NONE',  ( 0.6677985146510556635, 0.7443420879070615781, 0.000000000000000000 ) ) ;
#249 = LINE ( 'NONE', #539, #459 ) ;
#250 = VERTEX_POINT ( 'NONE', #501 ) ;
#251 = CARTESIAN_POINT ( 'NONE',  ( 94.18592526081900473, 0.000000000000000000, 8.325398246136000324 ) ) ;
#252 = DIRECTION ( 'NONE',  ( 0.000000000000000000, 0.000000000000000000, -1.000000000000000000 ) ) ;
#253 = DIRECTION ( 'NONE',  ( 0.000000000000000000, 0.000000000000000000, 1.000000000000000000 ) ) ;
#254 = ORIENTED_EDGE ( 'NONE', *, *, #177, .T. ) ;
#255 = CARTESIAN_POINT ( 'NONE',  ( 0.000000000000000000, 0.000000000000000000, 0.000000000000000000 ) ) ;
#256 = CARTESIAN_POINT ( 'NONE',  ( 4.961881529924999867, 27.28276456133800210, 8.325398246136000324 ) ) ;
#257 = EDGE_CURVE ( 'NONE', #600, #600, #314, .T. ) ;
#258 = ORIENTED_EDGE ( 'NONE', *, *, #215, .T. ) ;
#259 = FACE_OUTER_BOUND ( 'NONE', #410, .T. ) ;
#260 = CARTESIAN_POINT ( 'NONE',  ( 10.86348709092199982, 15.58827444113499894, 8.325398246136000324 ) ) ;
#261 = EDGE_CURVE ( 'NONE', #174, #404, #601, .T. ) ;
#262 = VERTEX_POINT ( 'NONE', #64 ) ;
#263 = VECTOR ( 'NONE', #199, 1000.000000000000227 ) ;
#264 = CARTESIAN_POINT ( 'NONE',  ( 94.18592526081900473, 0.000000000000000000, 14.36335113926199902 ) ) ;
#265 = DIRECTION ( 'NONE',  ( 0.000000000000000000, 1.000000000000000000, 0.000000000000000000 ) ) ;
#266 = VERTEX_POINT ( 'NONE', #467 ) ;
#267 = AXIS2_PLACEMENT_3D ( 'NONE', #151, #589, #304 ) ;
#268 = VERTEX_POINT ( 'NONE', #14 ) ;
#269 = LINE ( 'NONE', #462, #133 ) ;
#270 = ADVANCED_FACE ( 'NONE', ( #411 ), #359, .T. ) ;
#271 = ORIENTED_EDGE ( 'NONE', *, *, #257, .F. ) ;
#272 = CARTESIAN_POINT ( 'NONE',  ( 0.000000000000000000, 0.000000000000000000, 8.325398246136000324 ) ) ;
#273 = DIRECTION ( 'NONE',  ( 0.9995091528424351335, 0.000000000000000000, -0.03132815641236365994 ) ) ;
#274 = ADVANCED_FACE ( 'NONE', ( #413, #179 ), #122, .F. ) ;
#275 = DIRECTION ( 'NONE',  ( 0.000000000000000000, 0.000000000000000000, 1.000000000000000000 ) ) ;
#276 = VECTOR ( 'NONE', #625, 1000.000000000000000 ) ;
#277 = EDGE_CURVE ( 'NONE', #63, #63, #233, .T. ) ;
#278 = CLOSED_SHELL ( 'NONE', ( #383, #209, #102, #206, #93, #274, #221, #109, #362, #540, #147, #542, #564, #513, #270, #237, #26, #477, #610, #32 ) ) ;
#279 = CARTESIAN_POINT ( 'NONE',  ( 10.86348709092199982, 15.58827444113499894, 14.36335113926199902 ) ) ;
#280 = VERTEX_POINT ( 'NONE', #558 ) ;
#281 = CARTESIAN_POINT ( 'NONE',  ( 24.39252695147299832, 0.000000000000000000, 14.36335113926199902 ) ) ;
#282 = DIRECTION ( 'NONE',  ( 0.000000000000000000, 0.000000000000000000, -1.000000000000000000 ) ) ;
#283 = VERTEX_POINT ( 'NONE', #512 ) ;
#284 = LINE ( 'NONE', #622, #627 ) ;
#285 = CARTESIAN_POINT ( 'NONE',  ( 0.000000000000000000, 0.000000000000000000, 0.000000000000000000 ) ) ;
#286 = AXIS2_PLACEMENT_3D ( 'NONE', #15, #75, #66 ) ;
#287 = EDGE_CURVE ( 'NONE', #268, #268, #315, .T. ) ;
#288 = ORIENTED_EDGE ( 'NONE', *, *, #394, .T. ) ;
#289 = DIRECTION ( 'NONE',  ( 0.000000000000000000, 0.000000000000000000, 1.000000000000000000 ) ) ;
#290 = VERTEX_POINT ( 'NONE', #272 ) ;
#291 = EDGE_LOOP ( 'NONE', ( #62, #41, #39, #581 ) ) ;
#292 = APPLICATION_CONTEXT ( 'automotive_design' ) ;
#293 = DIRECTION ( 'NONE',  ( -0.7443420879070615781, 0.6677985146510556635, 0.000000000000000000 ) ) ;
#294 = CARTESIAN_POINT ( 'NONE',  ( 0.000000000000000000, 0.000000000000000000, 14.36335113926199902 ) ) ;
#295 = PLANE ( 'NONE',  #123 ) ;
#296 = CARTESIAN_POINT ( 'NONE',  ( 94.18592526081900473, 68.83666974684700790, 8.325398246136000324 ) ) ;
#297 = VECTOR ( 'NONE', #343, 1000.000000000000114 ) ;
#298 = EDGE_LOOP ( 'NONE', ( #28, #469, #152, #430, #198, #506 ) ) ;
#299 = CARTESIAN_POINT ( 'NONE',  ( 4.961881529924999867, 27.28276456133800210, 8.325398246136000324 ) ) ;
#300 = ORIENTED_EDGE ( 'NONE', *, *, #96, .F. ) ;
#301 = LINE ( 'NONE', #299, #82 ) ;
#302 = DIRECTION ( 'NONE',  ( -1.000000000000000000, 0.000000000000000000, 0.000000000000000000 ) ) ;
#303 = LINE ( 'NONE', #53, #612 ) ;
#304 = DIRECTION ( 'NONE',  ( -0.4714751295451378721, 0.8818793580872587023, 0.000000000000000000 ) ) ;
#305 = ORIENTED_EDGE ( 'NONE', *, *, #20, .F. ) ;
#306 = AXIS2_PLACEMENT_3D ( 'NONE', #242, #568, #369 ) ;
#307 = LINE ( 'NONE', #337, #417 ) ;
#308 = ORIENTED_EDGE ( 'NONE', *, *, #22, .F. ) ;
#309 = LINE ( 'NONE', #264, #408 ) ;
#310 = LINE ( 'NONE', #593, #67 ) ;
#311 = ORIENTED_EDGE ( 'NONE', *, *, #336, .F. ) ;
#312 = DIRECTION ( 'NONE',  ( -1.000000000000000000, 0.000000000000000000, 0.000000000000000000 ) ) ;
#313 = VERTEX_POINT ( 'NONE', #504 ) ;
#314 = CIRCLE ( 'NONE', #153, 11.05880113401999942 ) ;
#315 = CIRCLE ( 'NONE', #286, 2.077175394918001849 ) ;
#316 = DIRECTION ( 'NONE',  ( 0.000000000000000000, 0.000000000000000000, -1.000000000000000000 ) ) ;
#317 = AXIS2_PLACEMENT_3D ( 'NONE', #520, #282, #377 ) ;
#318 = PLANE ( 'NONE',  #403 ) ;
#319 = ORIENTED_EDGE ( 'NONE', *, *, #6, .F. ) ;
#320 = EDGE_CURVE ( 'NONE', #174, #397, #415, .T. ) ;
#321 = CARTESIAN_POINT ( 'NONE',  ( 47.09296263040900499, 68.83666974684700790, 4.162699123068000162 ) ) ;
#322 = DIRECTION ( 'NONE',  ( 0.000000000000000000, 1.000000000000000000, 0.000000000000000000 ) ) ;
#323 = EDGE_CURVE ( 'NONE', #416, #166, #19, .T. ) ;
#324 = ORIENTED_EDGE ( 'NONE', *, *, #55, .T. ) ;
#325 = EDGE_LOOP ( 'NONE', ( #29, #210, #414, #65 ) ) ;
#326 = LINE ( 'NONE', #281, #224 ) ;
#327 = LINE ( 'NONE', #472, #48 ) ;
#328 = VERTEX_POINT ( 'NONE', #458 ) ;
#329 = EDGE_CURVE ( 'NONE', #518, #331, #269, .T. ) ;
#330 = CARTESIAN_POINT ( 'NONE',  ( 94.18592526081900473, 0.000000000000000000, 12.17577887685100180 ) ) ;
#331 = VERTEX_POINT ( 'NONE', #425 ) ;
#332 = FACE_BOUND ( 'NONE', #189, .T. ) ;
#333 = DIRECTION ( 'NONE',  ( 1.000000000000000000, 0.000000000000000000, 0.000000000000000000 ) ) ;
#334 = ORIENTED_EDGE ( 'NONE', *, *, #277, .F. ) ;
#335 = ORIENTED_EDGE ( 'NONE', *, *, #502, .F. ) ;
#336 = EDGE_CURVE ( 'NONE', #484, #328, #231, .T. ) ;
#337 = CARTESIAN_POINT ( 'NONE',  ( 2.952906360780000128, 9.765892252606999335, 14.36335113926199902 ) ) ;
#338 = EDGE_CURVE ( 'NONE', #117, #124, #42, .T. ) ;
#339 = DIRECTION ( 'NONE',  ( -0.000000000000000000, 1.000000000000000000, 0.000000000000000000 ) ) ;
#340 = LINE ( 'NONE', #632, #263 ) ;
#341 = ORIENTED_EDGE ( 'NONE', *, *, #96, .T. ) ;
#342 = CARTESIAN_POINT ( 'NONE',  ( 94.18592526081900473, 76.09245043747199588, 14.36335113926199902 ) ) ;
#343 = DIRECTION ( 'NONE',  ( 0.7443420879070615781, -0.6677985146510556635, 0.000000000000000000 ) ) ;
#344 = ORIENTED_EDGE ( 'NONE', *, *, #323, .F. ) ;
#345 = CARTESIAN_POINT ( 'NONE',  ( 0.000000000000000000, 68.83666974684700790, 8.325398246136000324 ) ) ;
#346 =( NAMED_UNIT ( * ) PLANE_ANGLE_UNIT ( ) SI_UNIT ( $, .RADIAN. ) );
#347 = EDGE_CURVE ( 'NONE', #404, #448, #144, .T. ) ;
#348 = EDGE_LOOP ( 'NONE', ( #487, #617, #324, #478, #490, #171 ) ) ;
#349 = FACE_BOUND ( 'NONE', #563, .T. ) ;
#350 = FACE_OUTER_BOUND ( 'NONE', #428, .T. ) ;
#351 = VECTOR ( 'NONE', #273, 1000.000000000000114 ) ;
#352 = ORIENTED_EDGE ( 'NONE', *, *, #116, .T. ) ;
#353 = CARTESIAN_POINT ( 'NONE',  ( 2.551238177504000060, 39.96804084097500009, 8.325398246136000324 ) ) ;
#354 = CARTESIAN_POINT ( 'NONE',  ( 4.441590536594000049, 8.430295223304000274, 14.36335113926199902 ) ) ;
#355 = ORIENTED_EDGE ( 'NONE', *, *, #613, .T. ) ;
#356 = FACE_OUTER_BOUND ( 'NONE', #141, .T. ) ;
#357 = ORIENTED_EDGE ( 'NONE', *, *, #498, .F. ) ;
#358 = VERTEX_POINT ( 'NONE', #595 ) ;
#359 = PLANE ( 'NONE',  #545 ) ;
#360 = PRODUCT ( '20260414_160844_96', '20260414_160844_96', '', ( #441 ) ) ;
#361 = ORIENTED_EDGE ( 'NONE', *, *, #427, .F. ) ;
#362 = ADVANCED_FACE ( 'NONE', ( #84 ), #79, .F. ) ;
#363 = DIRECTION ( 'NONE',  ( 0.000000000000000000, 0.000000000000000000, 1.000000000000000000 ) ) ;
#364 = EDGE_CURVE ( 'NONE', #400, #33, #196, .T. ) ;
#365 = CARTESIAN_POINT ( 'NONE',  ( 4.441590536594000049, 8.430295223304000274, 14.36335113926199902 ) ) ;
#366 = EDGE_CURVE ( 'NONE', #416, #313, #91, .T. ) ;
#367 = DIRECTION ( 'NONE',  ( 0.000000000000000000, 1.000000000000000000, 0.000000000000000000 ) ) ;
#368 = ORIENTED_EDGE ( 'NONE', *, *, #329, .T. ) ;
#369 = DIRECTION ( 'NONE',  ( 0.000000000000000000, 0.000000000000000000, 1.000000000000000000 ) ) ;
#370 = LINE ( 'NONE', #531, #106 ) ;
#371 = EDGE_LOOP ( 'NONE', ( #271 ) ) ;
#372 = EDGE_CURVE ( 'NONE', #244, #33, #572, .T. ) ;
#373 = DIRECTION ( 'NONE',  ( 0.000000000000000000, 0.000000000000000000, 1.000000000000000000 ) ) ;
#374 = CARTESIAN_POINT ( 'NONE',  ( 37.81991921345500174, -8.596123598669999311, 8.325398246136000324 ) ) ;
#375 = PRODUCT_DEFINITION_CONTEXT ( 'detailed design', #292, 'design' ) ;
#376 = DIRECTION ( 'NONE',  ( 0.000000000000000000, 0.000000000000000000, 1.000000000000000000 ) ) ;
#377 = DIRECTION ( 'NONE',  ( -1.000000000000000000, 0.000000000000000000, 0.000000000000000000 ) ) ;
#378 = EDGE_LOOP ( 'NONE', ( #594 ) ) ;
#379 = DIRECTION ( 'NONE',  ( -0.6677985146510556635, -0.7443420879070615781, 0.000000000000000000 ) ) ;
#380 = PRODUCT_RELATED_PRODUCT_CATEGORY ( 'part', '', ( #360 ) ) ;
#381 = CARTESIAN_POINT ( 'NONE',  ( 0.000000000000000000, 76.09245043747199588, 0.000000000000000000 ) ) ;
#382 = VECTOR ( 'NONE', #570, 1000.000000000000000 ) ;
#383 = ADVANCED_FACE ( 'NONE', ( #384 ), #137, .T. ) ;
#384 = FACE_OUTER_BOUND ( 'NONE', #604, .T. ) ;
#385 = PLANE ( 'NONE',  #424 ) ;
#386 = FACE_OUTER_BOUND ( 'NONE', #537, .T. ) ;
#387 = DIRECTION ( 'NONE',  ( 0.000000000000000000, -1.000000000000000000, 0.000000000000000000 ) ) ;
#388 = EDGE_LOOP ( 'NONE', ( #16, #311, #94, #481 ) ) ;
#389 = DIRECTION ( 'NONE',  ( -0.9995091528424352445, 0.000000000000000000, 0.03132815641236365994 ) ) ;
#390 = FILL_AREA_STYLE ('',( #574 ) ) ;
#391 =( GEOMETRIC_REPRESENTATION_CONTEXT ( 3 ) GLOBAL_UNCERTAINTY_ASSIGNED_CONTEXT ( ( #575 ) ) GLOBAL_UNIT_ASSIGNED_CONTEXT ( ( #402, #346, #200 ) ) REPRESENTATION_CONTEXT ( 'NONE', 'WORKASPACE' ) );
#392 = VECTOR ( 'NONE', #289, 1000.000000000000000 ) ;
#393 = PRODUCT_DEFINITION_FORMATION_WITH_SPECIFIED_SOURCE ( 'ไป', '', #360, .NOT_KNOWN. ) ;
#394 = EDGE_CURVE ( 'NONE', #229, #250, #326, .T. ) ;
#395 = CARTESIAN_POINT ( 'NONE',  ( 24.39252695147299832, 0.000000000000000000, 14.36335113926199902 ) ) ;
#396 = FACE_OUTER_BOUND ( 'NONE', #325, .T. ) ;
#397 = VERTEX_POINT ( 'NONE', #628 ) ;
#398 = LINE ( 'NONE', #162, #182 ) ;
#399 = CARTESIAN_POINT ( 'NONE',  ( 30.65368057121999712, -15.08630430184000026, 8.325398246136000324 ) ) ;
#400 = VERTEX_POINT ( 'NONE', #618 ) ;
#401 = LINE ( 'NONE', #543, #471 ) ;
#402 =( LENGTH_UNIT ( ) NAMED_UNIT ( * ) SI_UNIT ( .MILLI., .METRE. ) );
#403 = AXIS2_PLACEMENT_3D ( 'NONE', #508, #510, #363 ) ;
#404 = VERTEX_POINT ( 'NONE', #188 ) ;
#405 =( NAMED_UNIT ( * ) PLANE_ANGLE_UNIT ( ) SI_UNIT ( $, .RADIAN. ) );
#406 = DIRECTION ( 'NONE',  ( -1.000000000000000000, 0.000000000000000000, 0.000000000000000000 ) ) ;
#407 = EDGE_LOOP ( 'NONE', ( #463, #112, #620, #482 ) ) ;
#408 = VECTOR ( 'NONE', #168, 1000.000000000000000 ) ;
#409 = CARTESIAN_POINT ( 'NONE',  ( 1.352709821251000033, 26.92507656223399692, 8.325398246136000324 ) ) ;
#410 = EDGE_LOOP ( 'NONE', ( #24, #479, #183, #475, #86 ) ) ;
#411 = FACE_OUTER_BOUND ( 'NONE', #157, .T. ) ;
#412 = VECTOR ( 'NONE', #222, 1000.000000000000000 ) ;
#413 = FACE_OUTER_BOUND ( 'NONE', #378, .T. ) ;
#414 = ORIENTED_EDGE ( 'NONE', *, *, #613, .F. ) ;
#415 = LINE ( 'NONE', #565, #505 ) ;
#416 = VERTEX_POINT ( 'NONE', #27 ) ;
#417 = VECTOR ( 'NONE', #10, 1000.000000000000114 ) ;
#418 = DIRECTION ( 'NONE',  ( 0.000000000000000000, -1.000000000000000000, 0.000000000000000000 ) ) ;
#419 = LINE ( 'NONE', #194, #631 ) ;
#420 = ORIENTED_EDGE ( 'NONE', *, *, #372, .T. ) ;
#421 = AXIS2_PLACEMENT_3D ( 'NONE', #466, #172, #551 ) ;
#422 = CARTESIAN_POINT ( 'NONE',  ( 0.000000000000000000, 76.09245043747199588, 0.000000000000000000 ) ) ;
#423 = ORIENTED_EDGE ( 'NONE', *, *, #590, .F. ) ;
#424 = AXIS2_PLACEMENT_3D ( 'NONE', #381, #339, #185 ) ;
#425 = CARTESIAN_POINT ( 'NONE',  ( 2.995383755218000044, 23.85250678356500131, 12.45583466022300101 ) ) ;
#426 = DIRECTION ( 'NONE',  ( 0.000000000000000000, 1.000000000000000000, 0.000000000000000000 ) ) ;
#427 = EDGE_CURVE ( 'NONE', #262, #283, #580, .T. ) ;
#428 = EDGE_LOOP ( 'NONE', ( #81, #368, #187, #541 ) ) ;
#429 = LINE ( 'NONE', #87, #382 ) ;
#430 = ORIENTED_EDGE ( 'NONE', *, *, #494, .F. ) ;
#431 = EDGE_CURVE ( 'NONE', #78, #606, #429, .T. ) ;
#432 = ORIENTED_EDGE ( 'NONE', *, *, #347, .T. ) ;
#433 = CARTESIAN_POINT ( 'NONE',  ( 94.18592526081900473, 0.000000000000000000, 8.325398246136000324 ) ) ;
#434 = VECTOR ( 'NONE', #156, 1000.000000000000000 ) ;
#435 = PLANE ( 'NONE',  #235 ) ;
#436 = VECTOR ( 'NONE', #238, 999.9999999999998863 ) ;
#437 = EDGE_CURVE ( 'NONE', #124, #166, #284, .T. ) ;
#438 = PLANE ( 'NONE',  #516 ) ;
#439 = LINE ( 'NONE', #354, #103 ) ;
#440 = VECTOR ( 'NONE', #500, 999.9999999999998863 ) ;
#441 = PRODUCT_CONTEXT ( 'NONE', #193, 'mechanical' ) ;
#442 = DIRECTION ( 'NONE',  ( 1.000000000000000000, 0.000000000000000000, 0.000000000000000000 ) ) ;
#443 = EDGE_CURVE ( 'NONE', #290, #266, #517, .T. ) ;
#444 = EDGE_LOOP ( 'NONE', ( #131 ) ) ;
#445 = DIRECTION ( 'NONE',  ( 0.000000000000000000, 0.000000000000000000, 1.000000000000000000 ) ) ;
#446 = LINE ( 'NONE', #54, #113 ) ;
#447 = VECTOR ( 'NONE', #480, 1000.000000000000000 ) ;
#448 = VERTEX_POINT ( 'NONE', #577 ) ;
#449 = DIRECTION ( 'NONE',  ( 1.000000000000000000, 0.000000000000000000, 0.000000000000000000 ) ) ;
#450 = CARTESIAN_POINT ( 'NONE',  ( 4.441590536594000049, 8.430295223304000274, 8.325398246136000324 ) ) ;
#451 = ORIENTED_EDGE ( 'NONE', *, *, #261, .F. ) ;
#452 = FACE_OUTER_BOUND ( 'NONE', #348, .T. ) ;
#453 = CARTESIAN_POINT ( 'NONE',  ( 94.18592526081900473, 0.000000000000000000, 8.325398246136000324 ) ) ;
#454 = VECTOR ( 'NONE', #532, 1000.000000000000000 ) ;
#455 = EDGE_CURVE ( 'NONE', #448, #331, #184, .T. ) ;
#456 = EDGE_LOOP ( 'NONE', ( #288, #341, #584, #308 ) ) ;
#457 = CARTESIAN_POINT ( 'NONE',  ( 2.551238177504000060, 39.96804084097500009, 14.36335113926199902 ) ) ;
#458 = CARTESIAN_POINT ( 'NONE',  ( 2.952906360780000128, 9.765892252606999335, 8.325398246136000324 ) ) ;
#459 = VECTOR ( 'NONE', #204, 1000.000000000000000 ) ;
#460 = EDGE_LOOP ( 'NONE', ( #334 ) ) ;
#461 =( NAMED_UNIT ( * ) SI_UNIT ( $, .STERADIAN. ) SOLID_ANGLE_UNIT ( ) );
#462 = CARTESIAN_POINT ( 'NONE',  ( 2.995383755218000044, 23.85250678356500131, 8.325398246136000324 ) ) ;
#463 = ORIENTED_EDGE ( 'NONE', *, *, #154, .F. ) ;
#464 = DIRECTION ( 'NONE',  ( -1.528655675294999874E-16, 3.993305793561999820E-16, 1.000000000000000000 ) ) ;
#465 = EDGE_CURVE ( 'NONE', #33, #526, #519, .T. ) ;
#466 = CARTESIAN_POINT ( 'NONE',  ( 0.000000000000000000, 0.000000000000000000, 0.000000000000000000 ) ) ;
#467 = CARTESIAN_POINT ( 'NONE',  ( 0.000000000000000000, 0.000000000000000000, 14.36335113926199902 ) ) ;
#468 = CARTESIAN_POINT ( 'NONE',  ( 0.000000000000000000, 0.000000000000000000, 0.000000000000000000 ) ) ;
#469 = ORIENTED_EDGE ( 'NONE', *, *, #44, .F. ) ;
#470 = ORIENTED_EDGE ( 'NONE', *, *, #366, .T. ) ;
#471 = VECTOR ( 'NONE', #49, 1000.000000000000000 ) ;
#472 = CARTESIAN_POINT ( 'NONE',  ( 2.952906360780000128, 9.765892252606999335, 14.36335113926199902 ) ) ;
#473 = ORIENTED_EDGE ( 'NONE', *, *, #257, .T. ) ;
#474 = DIRECTION ( 'NONE',  ( 0.6677985146510556635, 0.7443420879070615781, 0.000000000000000000 ) ) ;
#475 = ORIENTED_EDGE ( 'NONE', *, *, #167, .F. ) ;
#476 = DIRECTION ( 'NONE',  ( 0.9995091528424351335, 0.000000000000000000, -0.03132815641236365994 ) ) ;
#477 = ADVANCED_FACE ( 'NONE', ( #332, #527, #38, #452 ), #438, .T. ) ;
#478 = ORIENTED_EDGE ( 'NONE', *, *, #22, .T. ) ;
#479 = ORIENTED_EDGE ( 'NONE', *, *, #55, .F. ) ;
#480 = DIRECTION ( 'NONE',  ( 0.000000000000000000, 0.000000000000000000, -1.000000000000000000 ) ) ;
#481 = ORIENTED_EDGE ( 'NONE', *, *, #502, .T. ) ;
#482 = ORIENTED_EDGE ( 'NONE', *, *, #431, .F. ) ;
#483 = DIRECTION ( 'NONE',  ( 1.000000000000000000, 0.000000000000000000, 0.000000000000000000 ) ) ;
#484 = VERTEX_POINT ( 'NONE', #3 ) ;
#485 = CARTESIAN_POINT ( 'NONE',  ( 0.000000000000000000, 68.83666974684700790, 8.325398246136000324 ) ) ;
#486 = SURFACE_SIDE_STYLE ('',( #108 ) ) ;
#487 = ORIENTED_EDGE ( 'NONE', *, *, #573, .F. ) ;
#488 = PLANE ( 'NONE',  #173 ) ;
#489 = CARTESIAN_POINT ( 'NONE',  ( 1.352709821251000033, 26.92507656223399692, 8.325398246136000324 ) ) ;
#490 = ORIENTED_EDGE ( 'NONE', *, *, #525, .F. ) ;
#491 = DIRECTION ( 'NONE',  ( 0.000000000000000000, 0.000000000000000000, 1.000000000000000000 ) ) ;
#492 = LINE ( 'NONE', #596, #434 ) ;
#493 = VECTOR ( 'NONE', #322, 1000.000000000000000 ) ;
#494 = EDGE_CURVE ( 'NONE', #526, #243, #207, .T. ) ;
#495 = EDGE_LOOP ( 'NONE', ( #52, #69, #37 ) ) ;
#496 = AXIS2_PLACEMENT_3D ( 'NONE', #507, #253, #598 ) ;
#497 = FACE_OUTER_BOUND ( 'NONE', #456, .T. ) ;
#498 = EDGE_CURVE ( 'NONE', #9, #117, #307, .T. ) ;
#499 = ORIENTED_EDGE ( 'NONE', *, *, #548, .T. ) ;
#500 = DIRECTION ( 'NONE',  ( -0.4714751295451379276, 0.8818793580872587023, 0.000000000000000000 ) ) ;
#501 = CARTESIAN_POINT ( 'NONE',  ( 94.18592526081900473, 0.000000000000000000, 12.17577887685100180 ) ) ;
#502 = EDGE_CURVE ( 'NONE', #313, #9, #398, .T. ) ;
#503 = ORIENTED_EDGE ( 'NONE', *, *, #437, .F. ) ;
#504 = CARTESIAN_POINT ( 'NONE',  ( 9.374802915108000789, 16.92387147043700324, 14.36335113926199902 ) ) ;
#505 = VECTOR ( 'NONE', #275, 1000.000000000000000 ) ;
#506 = ORIENTED_EDGE ( 'NONE', *, *, #443, .T. ) ;
#507 = CARTESIAN_POINT ( 'NONE',  ( 0.000000000000000000, 0.000000000000000000, 0.000000000000000000 ) ) ;
#508 = CARTESIAN_POINT ( 'NONE',  ( 1.352709821251000033, 26.92507656223399692, 8.325398246136000324 ) ) ;
#509 = EDGE_CURVE ( 'NONE', #243, #400, #203, .T. ) ;
#510 = DIRECTION ( 'NONE',  ( -0.09862214439416708278, 0.9951249532772736828, 0.000000000000000000 ) ) ;
#511 = ORIENTED_EDGE ( 'NONE', *, *, #71, .T. ) ;
#512 = CARTESIAN_POINT ( 'NONE',  ( 94.18592526081900473, 10.18891076062400103, 14.36335113926199902 ) ) ;
#513 = ADVANCED_FACE ( 'NONE', ( #529, #201, #349, #592, #110 ), #295, .F. ) ;
#514 = AXIS2_PLACEMENT_3D ( 'NONE', #549, #387, #536 ) ;
#515 = ORIENTED_EDGE ( 'NONE', *, *, #465, .T. ) ;
#516 = AXIS2_PLACEMENT_3D ( 'NONE', #146, #491, #100 ) ;
#517 = LINE ( 'NONE', #468, #77 ) ;
#518 = VERTEX_POINT ( 'NONE', #155 ) ;
#519 = LINE ( 'NONE', #234, #169 ) ;
#520 = CARTESIAN_POINT ( 'NONE',  ( 13.61003931152399993, 39.96804084097500009, 8.325398246136000324 ) ) ;
#521 = CARTESIAN_POINT ( 'NONE',  ( 94.18592526081900473, 10.18891076062400103, 12.17577887685100180 ) ) ;
#522 = EDGE_LOOP ( 'NONE', ( #83, #142, #176, #149 ) ) ;
#523 = ORIENTED_EDGE ( 'NONE', *, *, #364, .T. ) ;
#524 = DIRECTION ( 'NONE',  ( 0.000000000000000000, 1.000000000000000000, 0.000000000000000000 ) ) ;
#525 = EDGE_CURVE ( 'NONE', #283, #220, #401, .T. ) ;
#526 = VERTEX_POINT ( 'NONE', #345 ) ;
#527 = FACE_BOUND ( 'NONE', #444, .T. ) ;
#528 = CARTESIAN_POINT ( 'NONE',  ( 0.000000000000000000, 76.09245043747199588, 0.000000000000000000 ) ) ;
#529 = FACE_BOUND ( 'NONE', #291, .T. ) ;
#530 = VECTOR ( 'NONE', #442, 1000.000000000000000 ) ;
#531 = CARTESIAN_POINT ( 'NONE',  ( 24.39252695147299832, 0.000000000000000000, 14.36335113926199902 ) ) ;
#532 = DIRECTION ( 'NONE',  ( 0.000000000000000000, 0.000000000000000000, -1.000000000000000000 ) ) ;
#533 = AXIS2_PLACEMENT_3D ( 'NONE', #246, #11, #583 ) ;
#534 = FACE_OUTER_BOUND ( 'NONE', #522, .T. ) ;
#535 = CARTESIAN_POINT ( 'NONE',  ( 0.000000000000000000, 68.83666974684700790, 0.000000000000000000 ) ) ;
#536 = DIRECTION ( 'NONE',  ( 0.000000000000000000, 0.000000000000000000, -1.000000000000000000 ) ) ;
#537 = EDGE_LOOP ( 'NONE', ( #319, #420, #227, #214, #619, #247, #361, #300 ) ) ;
#538 = CARTESIAN_POINT ( 'NONE',  ( 10.86348709092199982, 15.58827444113499894, 14.36335113926199902 ) ) ;
#539 = CARTESIAN_POINT ( 'NONE',  ( 0.000000000000000000, 76.09245043747199588, 0.000000000000000000 ) ) ;
#540 = ADVANCED_FACE ( 'NONE', ( #114 ), #587, .F. ) ;
#541 = ORIENTED_EDGE ( 'NONE', *, *, #347, .F. ) ;
#542 = ADVANCED_FACE ( 'NONE', ( #497 ), #60, .F. ) ;
#543 = CARTESIAN_POINT ( 'NONE',  ( 94.18592526081900473, 10.18891076062400103, 14.36335113926199902 ) ) ;
#544 = DIRECTION ( 'NONE',  ( 0.6677985146510556635, 0.7443420879070615781, 0.000000000000000000 ) ) ;
#545 = AXIS2_PLACEMENT_3D ( 'NONE', #321, #178, #223 ) ;
#546 = EDGE_LOOP ( 'NONE', ( #230, #511, #599, #59 ) ) ;
#547 =( LENGTH_UNIT ( ) NAMED_UNIT ( * ) SI_UNIT ( .MILLI., .METRE. ) );
#548 = EDGE_CURVE ( 'NONE', #397, #448, #340, .T. ) ;
#549 = CARTESIAN_POINT ( 'NONE',  ( 59.82755049304299888, 10.18891076062400103, 13.80788939495399958 ) ) ;
#550 = EDGE_LOOP ( 'NONE', ( #423, #451, #101 ) ) ;
#551 = DIRECTION ( 'NONE',  ( 1.000000000000000000, 0.000000000000000000, 0.000000000000000000 ) ) ;
#552 = EDGE_LOOP ( 'NONE', ( #473 ) ) ;
#553 = APPLICATION_PROTOCOL_DEFINITION ( 'draft international standard', 'automotive_design', 1998, #193 ) ;
#554 = EDGE_CURVE ( 'NONE', #400, #78, #303, .T. ) ;
#555 = CARTESIAN_POINT ( 'NONE',  ( 13.61003931152399993, 39.96804084097500009, 8.325398246136000324 ) ) ;
#556 = AXIS2_PLACEMENT_3D ( 'NONE', #125, #316, #312 ) ;
#557 = ORIENTED_EDGE ( 'NONE', *, *, #494, .T. ) ;
#558 = CARTESIAN_POINT ( 'NONE',  ( 0.000000000000000000, 76.09245043747199588, 14.36335113926199902 ) ) ;
#559 =( GEOMETRIC_REPRESENTATION_CONTEXT ( 3 ) GLOBAL_UNCERTAINTY_ASSIGNED_CONTEXT ( ( #240 ) ) GLOBAL_UNIT_ASSIGNED_CONTEXT ( ( #547, #405, #461 ) ) REPRESENTATION_CONTEXT ( 'NONE', 'WORKASPACE' ) );
#560 = PRESENTATION_LAYER_ASSIGNMENT (  '', '', ( #205 ) ) ;
#561 = CARTESIAN_POINT ( 'NONE',  ( 24.39252695147299832, 0.000000000000000000, 14.36335113926199902 ) ) ;
#562 = PRODUCT_DEFINITION ( 'ๆ', '', #393, #375 ) ;
#563 = EDGE_LOOP ( 'NONE', ( #254 ) ) ;
#564 = ADVANCED_FACE ( 'NONE', ( #386 ), #159, .T. ) ;
#565 = CARTESIAN_POINT ( 'NONE',  ( 1.352709821251000033, 26.92507656223399692, 8.325398246136000324 ) ) ;
#566 = CIRCLE ( 'NONE', #533, 2.077175394918001849 ) ;
#567 = ORIENTED_EDGE ( 'NONE', *, *, #455, .T. ) ;
#568 = DIRECTION ( 'NONE',  ( -0.7443420879070615781, 0.6677985146510556635, 0.000000000000000000 ) ) ;
#569 = LINE ( 'NONE', #528, #630 ) ;
#570 = DIRECTION ( 'NONE',  ( 0.000000000000000000, 0.000000000000000000, 1.000000000000000000 ) ) ;
#571 = DIRECTION ( 'NONE',  ( -0.7443420879070615781, 0.6677985146510556635, 0.000000000000000000 ) ) ;
#572 = LINE ( 'NONE', #433, #493 ) ;
#573 = EDGE_CURVE ( 'NONE', #280, #606, #107, .T. ) ;
#574 = FILL_AREA_STYLE_COLOUR ( '', #36 ) ;
#575 = UNCERTAINTY_MEASURE_WITH_UNIT (LENGTH_MEASURE( 1.000000000000000082E-05 ), #402, 'distance_accuracy_value', 'NONE');
#576 = VECTOR ( 'NONE', #373, 1000.000000000000000 ) ;
#577 = CARTESIAN_POINT ( 'NONE',  ( 4.961881529924999867, 27.28276456133800210, 12.45583466022300101 ) ) ;
#578 = FACE_OUTER_BOUND ( 'NONE', #298, .T. ) ;
#579 = EDGE_LOOP ( 'NONE', ( #352, #305, #344, #470 ) ) ;
#580 = LINE ( 'NONE', #521, #576 ) ;
#581 = ORIENTED_EDGE ( 'NONE', *, *, #20, .T. ) ;
#582 = CARTESIAN_POINT ( 'NONE',  ( 94.18592526081900473, 0.000000000000000000, 0.000000000000000000 ) ) ;
#583 = DIRECTION ( 'NONE',  ( 0.000000000000000000, 1.000000000000000000, 0.000000000000000000 ) ) ;
#584 = ORIENTED_EDGE ( 'NONE', *, *, #226, .F. ) ;
#585 = DIRECTION ( 'NONE',  ( -0.4973492123810909216, -0.8675504371181589347, 0.000000000000000000 ) ) ;
#586 = DIRECTION ( 'NONE',  ( -0.6677985146510556635, -0.7443420879070615781, 0.000000000000000000 ) ) ;
#587 = PLANE ( 'NONE',  #211 ) ;
#588 = VECTOR ( 'NONE', #426, 1000.000000000000000 ) ;
#589 = DIRECTION ( 'NONE',  ( -0.8818793580872587023, -0.4714751295451378721, 0.000000000000000000 ) ) ;
#590 = EDGE_CURVE ( 'NONE', #404, #518, #301, .T. ) ;
#591 = ORIENTED_EDGE ( 'NONE', *, *, #277, .T. ) ;
#592 = FACE_BOUND ( 'NONE', #371, .T. ) ;
#593 = CARTESIAN_POINT ( 'NONE',  ( 0.000000000000000000, 0.000000000000000000, 14.36335113926199902 ) ) ;
#594 = ORIENTED_EDGE ( 'NONE', *, *, #177, .F. ) ;
#595 = CARTESIAN_POINT ( 'NONE',  ( 16.37515755529900119, 22.48295157706900582, 8.325398246136000324 ) ) ;
#596 = CARTESIAN_POINT ( 'NONE',  ( 9.374802915108000789, 16.92387147043700324, 14.36335113926199902 ) ) ;
#597 = AXIS2_PLACEMENT_3D ( 'NONE', #58, #586, #8 ) ;
#598 = DIRECTION ( 'NONE',  ( 1.000000000000000000, 0.000000000000000000, 0.000000000000000000 ) ) ;
#599 = ORIENTED_EDGE ( 'NONE', *, *, #465, .F. ) ;
#600 = VERTEX_POINT ( 'NONE', #353 ) ;
#601 = LINE ( 'NONE', #409, #195 ) ;
#602 = MECHANICAL_DESIGN_GEOMETRIC_PRESENTATION_REPRESENTATION (  '', ( #205 ), #391 ) ;
#603 = VECTOR ( 'NONE', #449, 1000.000000000000000 ) ;
#604 = EDGE_LOOP ( 'NONE', ( #499, #567, #355 ) ) ;
#605 = PLANE ( 'NONE',  #616 ) ;
#606 = VERTEX_POINT ( 'NONE', #342 ) ;
#607 = FACE_OUTER_BOUND ( 'NONE', #120, .T. ) ;
#608 = FACE_OUTER_BOUND ( 'NONE', #4, .T. ) ;
#609 = VECTOR ( 'NONE', #571, 1000.000000000000114 ) ;
#610 = ADVANCED_FACE ( 'NONE', ( #259 ), #488, .F. ) ;
#611 = DIRECTION ( 'NONE',  ( 0.9951249532772735718, 0.09862214439416705503, 0.000000000000000000 ) ) ;
#612 = VECTOR ( 'NONE', #5, 1000.000000000000000 ) ;
#613 = EDGE_CURVE ( 'NONE', #331, #397, #121, .T. ) ;
#614 = DIRECTION ( 'NONE',  ( 0.000000000000000000, 0.000000000000000000, -1.000000000000000000 ) ) ;
#615 = LINE ( 'NONE', #294, #80 ) ;
#616 = AXIS2_PLACEMENT_3D ( 'NONE', #365, #175, #17 ) ;
#617 = ORIENTED_EDGE ( 'NONE', *, *, #140, .F. ) ;
#618 = CARTESIAN_POINT ( 'NONE',  ( 94.18592526081900473, 68.83666974684700790, 0.000000000000000000 ) ) ;
#619 = ORIENTED_EDGE ( 'NONE', *, *, #431, .T. ) ;
#620 = ORIENTED_EDGE ( 'NONE', *, *, #573, .T. ) ;
#621 = EDGE_CURVE ( 'NONE', #283, #606, #309, .T. ) ;
#622 = CARTESIAN_POINT ( 'NONE',  ( 22.35732577617400096, 28.39954565145699661, 8.325398246136000324 ) ) ;
#623 = PLANE ( 'NONE',  #89 ) ;
#624 = EDGE_LOOP ( 'NONE', ( #134, #241, #357, #335 ) ) ;
#625 = DIRECTION ( 'NONE',  ( 0.000000000000000000, 0.000000000000000000, 1.000000000000000000 ) ) ;
#626 = DIRECTION ( 'NONE',  ( 0.000000000000000000, 0.000000000000000000, 1.000000000000000000 ) ) ;
#627 = VECTOR ( 'NONE', #474, 1000.000000000000114 ) ;
#628 = CARTESIAN_POINT ( 'NONE',  ( 1.352709821251000033, 26.92507656223399692, 12.45583466022300101 ) ) ;
#629 = DIRECTION ( 'NONE',  ( 1.000000000000000000, 0.000000000000000000, 0.000000000000000000 ) ) ;
#630 = VECTOR ( 'NONE', #148, 1000.000000000000000 ) ;
#631 = VECTOR ( 'NONE', #626, 1000.000000000000000 ) ;
#632 = CARTESIAN_POINT ( 'NONE',  ( 1.352709821251000033, 26.92507656223399692, 12.45583466022300101 ) ) ;
ENDSEC;
END-ISO-10303-21;
