ISO-10303-21;
HEADER;
FILE_DESCRIPTION (( 'STEP AP214' ),
    '1' );
FILE_NAME ('20260414_160844_38.STEP',
    '2026-04-16T13:47:27',
    ( '' ),
    ( '' ),
    'SwSTEP 2.0',
    'SolidWorks 2025',
    '' );
FILE_SCHEMA (( 'AUTOMOTIVE_DESIGN' ));
ENDSEC;

DATA;
#1 = VECTOR ( 'NONE', #562, 1000.000000000000000 ) ;
#2 = LINE ( 'NONE', #309, #870 ) ;
#3 = VECTOR ( 'NONE', #1249, 1000.000000000000000 ) ;
#4 = DIRECTION ( 'NONE',  ( -1.000000000000000000, 0.000000000000000000, 0.000000000000000000 ) ) ;
#5 = ORIENTED_EDGE ( 'NONE', *, *, #794, .T. ) ;
#6 = ORIENTED_EDGE ( 'NONE', *, *, #337, .T. ) ;
#7 = CARTESIAN_POINT ( 'NONE',  ( 4.438649524070999774, 9.035309066085000396, 12.92089827779200029 ) ) ;
#8 = EDGE_LOOP ( 'NONE', ( #762, #111, #800, #160, #537, #178 ) ) ;
#9 = CARTESIAN_POINT ( 'NONE',  ( 47.05944237924699536, 33.91296809793700362, 1.798311459361000120 ) ) ;
#10 = ORIENTED_EDGE ( 'NONE', *, *, #94, .F. ) ;
#11 = ADVANCED_FACE ( 'NONE', ( #314, #1276, #145 ), #684, .F. ) ;
#12 = DIRECTION ( 'NONE',  ( -1.000000000000000000, 0.000000000000000000, 0.000000000000000000 ) ) ;
#13 = CARTESIAN_POINT ( 'NONE',  ( 39.03334389673700144, 8.456810967252000211, 1.693742556611999905 ) ) ;
#14 = EDGE_CURVE ( 'NONE', #1196, #284, #603, .T. ) ;
#15 = VERTEX_POINT ( 'NONE', #1218 ) ;
#16 = EDGE_LOOP ( 'NONE', ( #183 ) ) ;
#17 = PRODUCT_DEFINITION_CONTEXT ( 'detailed design', #427, 'design' ) ;
#18 = CARTESIAN_POINT ( 'NONE',  ( 47.05944237924699536, 9.035309066085000396, 12.92089827779200029 ) ) ;
#19 = DIRECTION ( 'NONE',  ( 0.000000000000000000, -0.9929713714120326218, -0.1183547867900039546 ) ) ;
#20 = ORIENTED_EDGE ( 'NONE', *, *, #1305, .T. ) ;
#21 = DIRECTION ( 'NONE',  ( 0.000000000000000000, -1.000000000000000000, 0.000000000000000000 ) ) ;
#22 = LINE ( 'NONE', #848, #1241 ) ;
#23 = ORIENTED_EDGE ( 'NONE', *, *, #276, .T. ) ;
#24 = ADVANCED_FACE ( 'NONE', ( #108 ), #1233, .F. ) ;
#25 = LINE ( 'NONE', #531, #217 ) ;
#26 = FACE_OUTER_BOUND ( 'NONE', #1067, .T. ) ;
#27 = DIRECTION ( 'NONE',  ( 0.000000000000000000, 0.000000000000000000, -1.000000000000000000 ) ) ;
#28 = DIRECTION ( 'NONE',  ( -0.000000000000000000, 1.000000000000000000, 0.000000000000000000 ) ) ;
#29 = ORIENTED_EDGE ( 'NONE', *, *, #731, .T. ) ;
#30 = AXIS2_PLACEMENT_3D ( 'NONE', #752, #1066, #859 ) ;
#31 = ORIENTED_EDGE ( 'NONE', *, *, #622, .T. ) ;
#32 = VECTOR ( 'NONE', #809, 1000.000000000000000 ) ;
#33 = VECTOR ( 'NONE', #813, 1000.000000000000000 ) ;
#34 = EDGE_CURVE ( 'NONE', #355, #506, #1139, .T. ) ;
#35 = CARTESIAN_POINT ( 'NONE',  ( 47.05944237924699536, 53.63560127662700694, 2.437851286398000195 ) ) ;
#36 = DIRECTION ( 'NONE',  ( 0.000000000000000000, -1.000000000000000000, 0.000000000000000000 ) ) ;
#37 = DIRECTION ( 'NONE',  ( 0.000000000000000000, 0.000000000000000000, 1.000000000000000000 ) ) ;
#38 = ORIENTED_EDGE ( 'NONE', *, *, #1203, .T. ) ;
#39 = ORIENTED_EDGE ( 'NONE', *, *, #842, .T. ) ;
#40 = EDGE_LOOP ( 'NONE', ( #960, #669, #250, #272 ) ) ;
#41 = DIRECTION ( 'NONE',  ( -1.000000000000000000, 0.000000000000000000, 0.000000000000000000 ) ) ;
#42 = LINE ( 'NONE', #851, #372 ) ;
#43 = LINE ( 'NONE', #947, #411 ) ;
#44 = ORIENTED_EDGE ( 'NONE', *, *, #87, .F. ) ;
#45 = CARTESIAN_POINT ( 'NONE',  ( 0.000000000000000000, 0.000000000000000000, 0.000000000000000000 ) ) ;
#46 = CARTESIAN_POINT ( 'NONE',  ( 39.03334389673700144, 8.456810967252000211, 3.080479700861999959 ) ) ;
#47 = EDGE_CURVE ( 'NONE', #1234, #1234, #300, .T. ) ;
#48 = DIRECTION ( 'NONE',  ( 1.000000000000000000, 0.000000000000000000, 0.000000000000000000 ) ) ;
#49 = CARTESIAN_POINT ( 'NONE',  ( 18.52976477775399644, 17.21792314470900109, 9.729685438941999109 ) ) ;
#50 = ORIENTED_EDGE ( 'NONE', *, *, #1154, .F. ) ;
#51 = VECTOR ( 'NONE', #341, 1000.000000000000000 ) ;
#52 = AXIS2_PLACEMENT_3D ( 'NONE', #997, #65, #887 ) ;
#53 = DIRECTION ( 'NONE',  ( 0.000000000000000000, 1.000000000000000000, 0.000000000000000000 ) ) ;
#54 = VECTOR ( 'NONE', #12, 1000.000000000000000 ) ;
#55 = CARTESIAN_POINT ( 'NONE',  ( 46.67446081136900204, 27.75697110262299816, 9.728861732739000345 ) ) ;
#56 = DIRECTION ( 'NONE',  ( 0.000000000000000000, 0.000000000000000000, 1.000000000000000000 ) ) ;
#57 = EDGE_CURVE ( 'NONE', #1225, #63, #219, .T. ) ;
#58 = VERTEX_POINT ( 'NONE', #294 ) ;
#59 = CARTESIAN_POINT ( 'NONE',  ( 0.000000000000000000, 0.000000000000000000, 14.60908165969599892 ) ) ;
#60 = DIRECTION ( 'NONE',  ( 0.000000000000000000, -0.8279077890197347189, -0.5608642374768197936 ) ) ;
#61 = DIRECTION ( 'NONE',  ( 1.000000000000000000, 0.000000000000000000, 0.000000000000000000 ) ) ;
#62 = ORIENTED_EDGE ( 'NONE', *, *, #468, .F. ) ;
#63 = VERTEX_POINT ( 'NONE', #725 ) ;
#64 = EDGE_CURVE ( 'NONE', #720, #558, #1238, .T. ) ;
#65 = DIRECTION ( 'NONE',  ( -0.000000000000000000, 0.9929713714120326218, 0.1183547867900039685 ) ) ;
#66 = CARTESIAN_POINT ( 'NONE',  ( 47.05944237924699536, 7.379493488045000049, 11.79916980283899974 ) ) ;
#67 = PRESENTATION_STYLE_ASSIGNMENT (( #908 ) ) ;
#68 = VERTEX_POINT ( 'NONE', #316 ) ;
#69 = LINE ( 'NONE', #516, #279 ) ;
#70 = VECTOR ( 'NONE', #1142, 1000.000000000000000 ) ;
#71 = ADVANCED_FACE ( 'NONE', ( #610 ), #718, .F. ) ;
#72 = ORIENTED_EDGE ( 'NONE', *, *, #692, .T. ) ;
#73 = VECTOR ( 'NONE', #1186, 1000.000000000000000 ) ;
#74 = DIRECTION ( 'NONE',  ( 0.000000000000000000, 0.000000000000000000, 1.000000000000000000 ) ) ;
#75 = ORIENTED_EDGE ( 'NONE', *, *, #631, .F. ) ;
#76 =( NAMED_UNIT ( * ) SI_UNIT ( $, .STERADIAN. ) SOLID_ANGLE_UNIT ( ) );
#77 = PLANE ( 'NONE',  #542 ) ;
#78 = VERTEX_POINT ( 'NONE', #615 ) ;
#79 = DIRECTION ( 'NONE',  ( 0.000000000000000000, 1.000000000000000000, 0.000000000000000000 ) ) ;
#80 = CARTESIAN_POINT ( 'NONE',  ( 4.438649524070999774, 8.207401277064999334, 12.36003404031499997 ) ) ;
#81 = EDGE_CURVE ( 'NONE', #856, #546, #2, .T. ) ;
#82 = CYLINDRICAL_SURFACE ( 'NONE', #299, 0.6933685721249999157 ) ;
#83 = ORIENTED_EDGE ( 'NONE', *, *, #1063, .F. ) ;
#84 = PLANE ( 'NONE',  #1034 ) ;
#85 = VERTEX_POINT ( 'NONE', #929 ) ;
#86 = CARTESIAN_POINT ( 'NONE',  ( 4.438649524070999774, 8.279170060284000598, 11.36261274429499935 ) ) ;
#87 = EDGE_CURVE ( 'NONE', #546, #397, #1022, .T. ) ;
#88 = CARTESIAN_POINT ( 'NONE',  ( 47.05944237924699536, 17.21792314470900109, 9.729685438941999109 ) ) ;
#89 = CARTESIAN_POINT ( 'NONE',  ( 46.67446081136900204, 27.95478837541199724, 4.816441438671000164 ) ) ;
#90 = CIRCLE ( 'NONE', #1078, 3.788154569979000019 ) ;
#91 = VECTOR ( 'NONE', #4, 1000.000000000000000 ) ;
#92 = DIRECTION ( 'NONE',  ( 0.000000000000000000, -1.000000000000000000, 0.000000000000000000 ) ) ;
#93 = ORIENTED_EDGE ( 'NONE', *, *, #780, .F. ) ;
#94 = EDGE_CURVE ( 'NONE', #190, #1220, #918, .T. ) ;
#95 = CARTESIAN_POINT ( 'NONE',  ( 47.05944237924699536, 8.135632493845999846, 13.35745533633599891 ) ) ;
#96 = CARTESIAN_POINT ( 'NONE',  ( 0.000000000000000000, 0.000000000000000000, 42.67800961100099499 ) ) ;
#97 = CARTESIAN_POINT ( 'NONE',  ( 47.05944237924699536, 51.63560127662699983, 1.218925643199000097 ) ) ;
#98 = EDGE_LOOP ( 'NONE', ( #389, #756, #274, #228, #305 ) ) ;
#99 = CARTESIAN_POINT ( 'NONE',  ( 47.05944237924699536, 27.75697110262299816, 9.728861732739000345 ) ) ;
#100 = EDGE_LOOP ( 'NONE', ( #972, #295, #1149, #31 ) ) ;
#101 = FACE_BOUND ( 'NONE', #689, .T. ) ;
#102 = LINE ( 'NONE', #1124, #157 ) ;
#103 = ORIENTED_EDGE ( 'NONE', *, *, #595, .T. ) ;
#104 = LINE ( 'NONE', #7, #481 ) ;
#105 = EDGE_CURVE ( 'NONE', #1140, #1140, #1199, .T. ) ;
#106 = CARTESIAN_POINT ( 'NONE',  ( 0.000000000000000000, 0.000000000000000000, 14.60908165969599892 ) ) ;
#107 = AXIS2_PLACEMENT_3D ( 'NONE', #66, #882, #1177 ) ;
#108 = FACE_OUTER_BOUND ( 'NONE', #879, .T. ) ;
#109 = AXIS2_PLACEMENT_3D ( 'NONE', #819, #1222, #656 ) ;
#110 = DIRECTION ( 'NONE',  ( 1.000000000000000000, 0.000000000000000000, 0.000000000000000000 ) ) ;
#111 = ORIENTED_EDGE ( 'NONE', *, *, #263, .F. ) ;
#112 = LINE ( 'NONE', #916, #994 ) ;
#113 = CARTESIAN_POINT ( 'NONE',  ( 47.05944237924699536, 0.000000000000000000, 14.60908165969599892 ) ) ;
#114 = ADVANCED_FACE ( 'NONE', ( #924 ), #736, .F. ) ;
#115 = DIRECTION ( 'NONE',  ( 0.000000000000000000, 0.000000000000000000, 1.000000000000000000 ) ) ;
#116 = LINE ( 'NONE', #726, #1284 ) ;
#117 = ORIENTED_EDGE ( 'NONE', *, *, #528, .T. ) ;
#118 = DIRECTION ( 'NONE',  ( 0.000000000000000000, 0.000000000000000000, 1.000000000000000000 ) ) ;
#119 = CARTESIAN_POINT ( 'NONE',  ( 47.05944237924699536, 7.379493488045000049, 11.79916980283899974 ) ) ;
#120 = DIRECTION ( 'NONE',  ( 1.000000000000000000, 0.000000000000000000, 0.000000000000000000 ) ) ;
#121 = LINE ( 'NONE', #795, #91 ) ;
#122 = EDGE_CURVE ( 'NONE', #1255, #494, #102, .T. ) ;
#123 = LINE ( 'NONE', #1243, #195 ) ;
#124 = DIRECTION ( 'NONE',  ( 0.000000000000000000, 0.9929713714120326218, 0.1183547867900039546 ) ) ;
#125 = FACE_OUTER_BOUND ( 'NONE', #810, .T. ) ;
#126 = ORIENTED_EDGE ( 'NONE', *, *, #444, .T. ) ;
#127 = CIRCLE ( 'NONE', #500, 0.6933685721249999157 ) ;
#128 = VERTEX_POINT ( 'NONE', #1118 ) ;
#129 = VECTOR ( 'NONE', #256, 1000.000000000000000 ) ;
#130 = EDGE_CURVE ( 'NONE', #63, #506, #823, .T. ) ;
#131 = CARTESIAN_POINT ( 'NONE',  ( 47.05944237924699536, 25.38875268437400123, 9.446587747774000121 ) ) ;
#132 = ADVANCED_BREP_SHAPE_REPRESENTATION ( '20260414_160844_38', ( #360, #348 ), #844 ) ;
#133 = CARTESIAN_POINT ( 'NONE',  ( 47.05944237924699536, 8.279170060284000598, 11.36261274429499935 ) ) ;
#134 = LINE ( 'NONE', #1171, #545 ) ;
#135 =( LENGTH_UNIT ( ) NAMED_UNIT ( * ) SI_UNIT ( .MILLI., .METRE. ) );
#136 = ORIENTED_EDGE ( 'NONE', *, *, #151, .T. ) ;
#137 = ORIENTED_EDGE ( 'NONE', *, *, #337, .F. ) ;
#138 = CARTESIAN_POINT ( 'NONE',  ( 43.56986630347800826, 30.91443108373099946, 8.474699877973000284 ) ) ;
#139 = EDGE_CURVE ( 'NONE', #826, #432, #935, .T. ) ;
#140 = LINE ( 'NONE', #1270, #518 ) ;
#141 = FACE_OUTER_BOUND ( 'NONE', #1232, .T. ) ;
#142 = ORIENTED_EDGE ( 'NONE', *, *, #122, .T. ) ;
#143 = PRODUCT ( '20260414_160844_38', '20260414_160844_38', '', ( #885 ) ) ;
#144 = CARTESIAN_POINT ( 'NONE',  ( 47.05944237924699536, 26.81780063831400085, 2.437851286398000195 ) ) ;
#145 = FACE_OUTER_BOUND ( 'NONE', #618, .T. ) ;
#146 = ORIENTED_EDGE ( 'NONE', *, *, #794, .F. ) ;
#147 = DIRECTION ( 'NONE',  ( 1.000000000000000000, 0.000000000000000000, 0.000000000000000000 ) ) ;
#148 = EDGE_CURVE ( 'NONE', #1104, #1220, #423, .T. ) ;
#149 = CARTESIAN_POINT ( 'NONE',  ( 0.000000000000000000, 0.000000000000000000, 14.60908165969599892 ) ) ;
#150 = APPLICATION_PROTOCOL_DEFINITION ( 'draft international standard', 'automotive_design', 1998, #356 ) ;
#151 = EDGE_CURVE ( 'NONE', #523, #523, #646, .T. ) ;
#152 = EDGE_LOOP ( 'NONE', ( #1310, #899, #771, #536 ) ) ;
#153 = ORIENTED_EDGE ( 'NONE', *, *, #872, .F. ) ;
#154 = AXIS2_PLACEMENT_3D ( 'NONE', #1137, #224, #645 ) ;
#155 = VECTOR ( 'NONE', #387, 1000.000000000000000 ) ;
#156 = FACE_OUTER_BOUND ( 'NONE', #447, .T. ) ;
#157 = VECTOR ( 'NONE', #226, 1000.000000000000000 ) ;
#158 = DIRECTION ( 'NONE',  ( -1.000000000000000000, 0.000000000000000000, 0.000000000000000000 ) ) ;
#159 = LINE ( 'NONE', #1006, #1215 ) ;
#160 = ORIENTED_EDGE ( 'NONE', *, *, #825, .F. ) ;
#161 = EDGE_CURVE ( 'NONE', #15, #1255, #1258, .T. ) ;
#162 = CARTESIAN_POINT ( 'NONE',  ( 47.05944237924699536, 7.456810967252000211, 3.080479700861999959 ) ) ;
#163 = DIRECTION ( 'NONE',  ( -4.813671106100999932E-16, 0.000000000000000000, 1.000000000000000000 ) ) ;
#164 = CARTESIAN_POINT ( 'NONE',  ( 0.000000000000000000, 94.69956254843600618, 42.67800961100099499 ) ) ;
#165 = EDGE_CURVE ( 'NONE', #1223, #599, #776, .T. ) ;
#166 = DIRECTION ( 'NONE',  ( 0.000000000000000000, 1.000000000000000000, 0.000000000000000000 ) ) ;
#167 = DIRECTION ( 'NONE',  ( 0.000000000000000000, 0.000000000000000000, -1.000000000000000000 ) ) ;
#168 = DIRECTION ( 'NONE',  ( 0.000000000000000000, 0.9929713714120326218, 0.1183547867900039546 ) ) ;
#169 = ORIENTED_EDGE ( 'NONE', *, *, #1063, .T. ) ;
#170 = ORIENTED_EDGE ( 'NONE', *, *, #244, .T. ) ;
#171 = VECTOR ( 'NONE', #1053, 1000.000000000000227 ) ;
#172 = DIRECTION ( 'NONE',  ( 0.000000000000000000, 0.000000000000000000, 1.000000000000000000 ) ) ;
#173 = CIRCLE ( 'NONE', #707, 2.021336095935998944 ) ;
#174 = EDGE_LOOP ( 'NONE', ( #184, #72, #1152, #857 ) ) ;
#175 = AXIS2_PLACEMENT_3D ( 'NONE', #229, #443, #850 ) ;
#176 = AXIS2_PLACEMENT_3D ( 'NONE', #838, #713, #1315 ) ;
#177 = DIRECTION ( 'NONE',  ( 0.000000000000000000, 0.000000000000000000, 1.000000000000000000 ) ) ;
#178 = ORIENTED_EDGE ( 'NONE', *, *, #286, .F. ) ;
#179 = CYLINDRICAL_SURFACE ( 'NONE', #995, 0.3849815678780010852 ) ;
#180 = LINE ( 'NONE', #484, #275 ) ;
#181 = EDGE_CURVE ( 'NONE', #397, #1076, #666, .T. ) ;
#182 = FACE_OUTER_BOUND ( 'NONE', #552, .T. ) ;
#183 = ORIENTED_EDGE ( 'NONE', *, *, #897, .T. ) ;
#184 = ORIENTED_EDGE ( 'NONE', *, *, #991, .T. ) ;
#185 = CARTESIAN_POINT ( 'NONE',  ( 47.05944237924699536, 11.53879215436800010, 8.131707616305000386 ) ) ;
#186 = EDGE_LOOP ( 'NONE', ( #815, #1035, #396, #170 ) ) ;
#187 = CARTESIAN_POINT ( 'NONE',  ( 47.05944237924699536, 90.15425396094899213, 22.15576696078499808 ) ) ;
#188 = LINE ( 'NONE', #1314, #342 ) ;
#189 = EDGE_CURVE ( 'NONE', #649, #830, #556, .T. ) ;
#190 = VERTEX_POINT ( 'NONE', #338 ) ;
#191 = EDGE_LOOP ( 'NONE', ( #290, #29, #137, #1252 ) ) ;
#192 = AXIS2_PLACEMENT_3D ( 'NONE', #80, #61, #673 ) ;
#193 = DIRECTION ( 'NONE',  ( 0.000000000000000000, -0.8996765722388622155, 0.4365570585439335627 ) ) ;
#194 = VECTOR ( 'NONE', #19, 1000.000000000000000 ) ;
#195 = VECTOR ( 'NONE', #245, 1000.000000000000114 ) ;
#196 = PLANE ( 'NONE',  #238 ) ;
#197 = DIRECTION ( 'NONE',  ( 0.000000000000000000, 1.000000000000000000, 0.000000000000000000 ) ) ;
#198 = ORIENTED_EDGE ( 'NONE', *, *, #675, .F. ) ;
#199 = ADVANCED_FACE ( 'NONE', ( #254, #141 ), #970, .T. ) ;
#200 = EDGE_LOOP ( 'NONE', ( #1004 ) ) ;
#201 = ORIENTED_EDGE ( 'NONE', *, *, #1092, .T. ) ;
#202 = CARTESIAN_POINT ( 'NONE',  ( 43.56986630347800826, 33.91296809793700362, 1.798311459361000120 ) ) ;
#203 = FACE_BOUND ( 'NONE', #8, .T. ) ;
#204 = CARTESIAN_POINT ( 'NONE',  ( 47.05944237924699536, 30.91443108373099946, 8.474699877973000284 ) ) ;
#205 = ADVANCED_FACE ( 'NONE', ( #1264 ), #1159, .T. ) ;
#206 = ORIENTED_EDGE ( 'NONE', *, *, #57, .T. ) ;
#207 = EDGE_CURVE ( 'NONE', #649, #677, #325, .T. ) ;
#208 = DIRECTION ( 'NONE',  ( 1.000000000000000000, 0.000000000000000000, 0.000000000000000000 ) ) ;
#209 = DIRECTION ( 'NONE',  ( -3.745768200881000497E-29, -1.000000000000000000, 0.000000000000000000 ) ) ;
#210 = CARTESIAN_POINT ( 'NONE',  ( 47.05944237924699536, 77.13580630710599451, 42.67800961100099499 ) ) ;
#211 = DIRECTION ( 'NONE',  ( 0.000000000000000000, -0.1183547867900039685, 0.9929713714120326218 ) ) ;
#212 = VERTEX_POINT ( 'NONE', #1246 ) ;
#213 = ORIENTED_EDGE ( 'NONE', *, *, #605, .T. ) ;
#214 = CARTESIAN_POINT ( 'NONE',  ( 47.05944237924699536, 8.279170060284000598, 11.36261274429499935 ) ) ;
#215 = VECTOR ( 'NONE', #36, 1000.000000000000000 ) ;
#216 = LINE ( 'NONE', #113, #816 ) ;
#217 = VECTOR ( 'NONE', #41, 1000.000000000000000 ) ;
#218 = ORIENTED_EDGE ( 'NONE', *, *, #1169, .T. ) ;
#219 = LINE ( 'NONE', #1309, #690 ) ;
#220 = AXIS2_PLACEMENT_3D ( 'NONE', #659, #1074, #768 ) ;
#221 = CARTESIAN_POINT ( 'NONE',  ( 47.05944237924699536, 33.91296809793700362, 1.798311459361000120 ) ) ;
#222 = EDGE_LOOP ( 'NONE', ( #323, #1150, #614, #492 ) ) ;
#223 = CARTESIAN_POINT ( 'NONE',  ( 0.000000000000000000, 77.13580630710599451, 14.60908165969599892 ) ) ;
#224 = DIRECTION ( 'NONE',  ( 0.000000000000000000, 0.000000000000000000, 1.000000000000000000 ) ) ;
#225 = EDGE_CURVE ( 'NONE', #449, #634, #534, .T. ) ;
#226 = DIRECTION ( 'NONE',  ( -1.000000000000000000, 0.000000000000000000, 0.000000000000000000 ) ) ;
#227 = CARTESIAN_POINT ( 'NONE',  ( 46.67446081136900204, 28.33706405083599833, 4.862005850056000611 ) ) ;
#228 = ORIENTED_EDGE ( 'NONE', *, *, #207, .T. ) ;
#229 = CARTESIAN_POINT ( 'NONE',  ( 18.52976477775399644, 17.21792314470900109, 5.941530868962999534 ) ) ;
#230 = DIRECTION ( 'NONE',  ( -1.000000000000000000, 0.000000000000000000, 0.000000000000000000 ) ) ;
#231 = LINE ( 'NONE', #637, #996 ) ;
#232 = VERTEX_POINT ( 'NONE', #49 ) ;
#233 = ORIENTED_EDGE ( 'NONE', *, *, #584, .F. ) ;
#234 = EDGE_LOOP ( 'NONE', ( #206, #1084, #763, #694 ) ) ;
#235 = PLANE ( 'NONE',  #501 ) ;
#236 = CARTESIAN_POINT ( 'NONE',  ( 47.05944237924699536, 28.33706405083599833, 4.862005850056000611 ) ) ;
#237 = ORIENTED_EDGE ( 'NONE', *, *, #303, .F. ) ;
#238 = AXIS2_PLACEMENT_3D ( 'NONE', #917, #1308, #811 ) ;
#239 = LINE ( 'NONE', #647, #705 ) ;
#240 = CARTESIAN_POINT ( 'NONE',  ( 33.51186361855799589, 11.53879215436800010, 11.96025117009799921 ) ) ;
#241 = EDGE_LOOP ( 'NONE', ( #802, #1268, #567, #1316 ) ) ;
#242 = ORIENTED_EDGE ( 'NONE', *, *, #902, .T. ) ;
#243 = VECTOR ( 'NONE', #1093, 1000.000000000000000 ) ;
#244 = EDGE_CURVE ( 'NONE', #826, #821, #43, .T. ) ;
#245 = DIRECTION ( 'NONE',  ( 0.000000000000000000, -0.07176878321892617152, 0.9974212960205304235 ) ) ;
#246 = LINE ( 'NONE', #119, #619 ) ;
#247 = DIRECTION ( 'NONE',  ( 1.000000000000000000, 0.000000000000000000, 0.000000000000000000 ) ) ;
#248 = VERTEX_POINT ( 'NONE', #439 ) ;
#249 = ORIENTED_EDGE ( 'NONE', *, *, #47, .T. ) ;
#250 = ORIENTED_EDGE ( 'NONE', *, *, #1127, .F. ) ;
#251 = EDGE_CURVE ( 'NONE', #1052, #449, #565, .T. ) ;
#252 = FACE_BOUND ( 'NONE', #1266, .T. ) ;
#253 = DIRECTION ( 'NONE',  ( 1.000000000000000000, 0.000000000000000000, 0.000000000000000000 ) ) ;
#254 = FACE_OUTER_BOUND ( 'NONE', #200, .T. ) ;
#255 = ORIENTED_EDGE ( 'NONE', *, *, #927, .F. ) ;
#256 = DIRECTION ( 'NONE',  ( -1.000000000000000000, 0.000000000000000000, 0.000000000000000000 ) ) ;
#257 = CARTESIAN_POINT ( 'NONE',  ( 47.05944237924699536, 8.456810967252000211, 3.080479700861999959 ) ) ;
#258 = DIRECTION ( 'NONE',  ( 0.000000000000000000, -0.8996765722388622155, 0.4365570585439335627 ) ) ;
#259 = EDGE_LOOP ( 'NONE', ( #853 ) ) ;
#260 = VECTOR ( 'NONE', #287, 1000.000000000000114 ) ;
#261 = DIRECTION ( 'NONE',  ( 0.000000000000000000, -0.9929713714120326218, -0.1183547867900039546 ) ) ;
#262 = CYLINDRICAL_SURFACE ( 'NONE', #909, 3.788154569979000019 ) ;
#263 = EDGE_CURVE ( 'NONE', #1018, #78, #134, .T. ) ;
#264 = LINE ( 'NONE', #491, #951 ) ;
#265 = ORIENTED_EDGE ( 'NONE', *, *, #1154, .T. ) ;
#266 = DIRECTION ( 'NONE',  ( 1.000000000000000000, 0.000000000000000000, 0.000000000000000000 ) ) ;
#267 = LINE ( 'NONE', #281, #841 ) ;
#268 = FACE_OUTER_BOUND ( 'NONE', #222, .T. ) ;
#269 = ORIENTED_EDGE ( 'NONE', *, *, #812, .F. ) ;
#270 = LINE ( 'NONE', #1077, #155 ) ;
#271 = DIRECTION ( 'NONE',  ( 0.000000000000000000, 0.000000000000000000, 1.000000000000000000 ) ) ;
#272 = ORIENTED_EDGE ( 'NONE', *, *, #555, .F. ) ;
#273 = CARTESIAN_POINT ( 'NONE',  ( 47.05944237924699536, 8.456810967252000211, 2.387111128736999710 ) ) ;
#274 = ORIENTED_EDGE ( 'NONE', *, *, #584, .T. ) ;
#275 = VECTOR ( 'NONE', #1290, 1000.000000000000000 ) ;
#276 = EDGE_CURVE ( 'NONE', #862, #478, #1260, .T. ) ;
#277 = CARTESIAN_POINT ( 'NONE',  ( 47.05944237924699536, 0.000000000000000000, 0.000000000000000000 ) ) ;
#278 = CIRCLE ( 'NONE', #373, 0.6933685721249999157 ) ;
#279 = VECTOR ( 'NONE', #317, 1000.000000000000000 ) ;
#280 = VECTOR ( 'NONE', #854, 1000.000000000000000 ) ;
#281 = CARTESIAN_POINT ( 'NONE',  ( 47.05944237924699536, 8.135632493845999846, 13.35745533633599891 ) ) ;
#282 = ORIENTED_EDGE ( 'NONE', *, *, #667, .F. ) ;
#283 = DIRECTION ( 'NONE',  ( 1.000000000000000000, 0.000000000000000000, 0.000000000000000000 ) ) ;
#284 = VERTEX_POINT ( 'NONE', #877 ) ;
#285 = CARTESIAN_POINT ( 'NONE',  ( 47.05944237924699536, 51.63560127662699983, 2.437851286398000195 ) ) ;
#286 = EDGE_CURVE ( 'NONE', #937, #856, #239, .T. ) ;
#287 = DIRECTION ( 'NONE',  ( 0.000000000000000000, 0.8279077890197347189, 0.5608642374768197936 ) ) ;
#288 = CARTESIAN_POINT ( 'NONE',  ( 47.05944237924699536, 30.91443108373099946, 1.798311459361000120 ) ) ;
#289 = ORIENTED_EDGE ( 'NONE', *, *, #640, .T. ) ;
#290 = ORIENTED_EDGE ( 'NONE', *, *, #722, .T. ) ;
#291 = FACE_OUTER_BOUND ( 'NONE', #419, .T. ) ;
#292 = DIRECTION ( 'NONE',  ( 0.000000000000000000, 0.000000000000000000, 1.000000000000000000 ) ) ;
#293 = EDGE_CURVE ( 'NONE', #212, #720, #231, .T. ) ;
#294 = CARTESIAN_POINT ( 'NONE',  ( 43.56986630347800826, 30.91443108373099946, 1.798311459361000120 ) ) ;
#295 = ORIENTED_EDGE ( 'NONE', *, *, #1267, .F. ) ;
#296 = AXIS2_PLACEMENT_3D ( 'NONE', #578, #1088, #1091 ) ;
#297 = CARTESIAN_POINT ( 'NONE',  ( 47.05944237924699536, 7.456810967252000211, 1.693742556611999905 ) ) ;
#298 = VECTOR ( 'NONE', #253, 1000.000000000000000 ) ;
#299 = AXIS2_PLACEMENT_3D ( 'NONE', #592, #110, #1227 ) ;
#300 = CIRCLE ( 'NONE', #708, 1.807207457857000543 ) ;
#301 = PLANE ( 'NONE',  #345 ) ;
#302 = VECTOR ( 'NONE', #1253, 1000.000000000000000 ) ;
#303 = EDGE_CURVE ( 'NONE', #498, #512, #754, .T. ) ;
#304 = CARTESIAN_POINT ( 'NONE',  ( 43.56986630347800826, 33.91296809793700362, 8.474699877973000284 ) ) ;
#305 = ORIENTED_EDGE ( 'NONE', *, *, #591, .T. ) ;
#306 = LINE ( 'NONE', #1038, #665 ) ;
#307 = PLANE ( 'NONE',  #777 ) ;
#308 = ORIENTED_EDGE ( 'NONE', *, *, #1049, .T. ) ;
#309 = CARTESIAN_POINT ( 'NONE',  ( 47.05944237924699536, 7.379493488045000049, 11.79916980283899974 ) ) ;
#310 = LINE ( 'NONE', #1009, #597 ) ;
#311 = EDGE_LOOP ( 'NONE', ( #569 ) ) ;
#312 = ADVANCED_FACE ( 'NONE', ( #125 ), #1148, .F. ) ;
#313 = DIRECTION ( 'NONE',  ( 1.000000000000000000, 0.000000000000000000, 0.000000000000000000 ) ) ;
#314 = FACE_BOUND ( 'NONE', #827, .T. ) ;
#315 = DIRECTION ( 'NONE',  ( 0.000000000000000000, 1.000000000000000000, 0.000000000000000000 ) ) ;
#316 = CARTESIAN_POINT ( 'NONE',  ( 47.05944237924699536, 8.456810967252000211, 1.693742556611999905 ) ) ;
#317 = DIRECTION ( 'NONE',  ( 0.000000000000000000, 1.000000000000000000, 0.000000000000000000 ) ) ;
#318 = EDGE_CURVE ( 'NONE', #904, #987, #959, .T. ) ;
#319 = DIRECTION ( 'NONE',  ( 1.000000000000000000, -5.920930226581000351E-30, 2.574317489818000355E-31 ) ) ;
#320 = LINE ( 'NONE', #934, #993 ) ;
#321 = VECTOR ( 'NONE', #434, 1000.000000000000000 ) ;
#322 = AXIS2_PLACEMENT_3D ( 'NONE', #831, #1131, #197 ) ;
#323 = ORIENTED_EDGE ( 'NONE', *, *, #1208, .T. ) ;
#324 = DIRECTION ( 'NONE',  ( 0.000000000000000000, 0.000000000000000000, -1.000000000000000000 ) ) ;
#325 = CIRCLE ( 'NONE', #220, 0.3849815678780006967 ) ;
#326 = DIRECTION ( 'NONE',  ( 0.000000000000000000, -1.000000000000000000, 0.000000000000000000 ) ) ;
#327 = DIRECTION ( 'NONE',  ( 0.000000000000000000, 0.000000000000000000, -1.000000000000000000 ) ) ;
#328 = PRODUCT_RELATED_PRODUCT_CATEGORY ( 'part', '', ( #143 ) ) ;
#329 = CARTESIAN_POINT ( 'NONE',  ( 0.000000000000000000, 77.13580630710599451, 42.67800961100099499 ) ) ;
#330 = ADVANCED_FACE ( 'NONE', ( #182 ), #571, .T. ) ;
#331 = DIRECTION ( 'NONE',  ( 1.000000000000000000, 0.000000000000000000, 0.000000000000000000 ) ) ;
#332 = DIRECTION ( 'NONE',  ( 1.000000000000000000, 0.000000000000000000, 0.000000000000000000 ) ) ;
#333 = EDGE_LOOP ( 'NONE', ( #1138, #255, #912, #62 ) ) ;
#334 = DIRECTION ( 'NONE',  ( 0.000000000000000000, 0.000000000000000000, -1.000000000000000000 ) ) ;
#335 = CARTESIAN_POINT ( 'NONE',  ( 43.20407005243799858, 27.37469542719799875, 9.683297321354999099 ) ) ;
#336 = EDGE_LOOP ( 'NONE', ( #863, #919, #932, #799 ) ) ;
#337 = EDGE_CURVE ( 'NONE', #403, #498, #264, .T. ) ;
#338 = CARTESIAN_POINT ( 'NONE',  ( 47.05944237924699536, 51.63560127662699983, 4.625851364349999884 ) ) ;
#339 = ORIENTED_EDGE ( 'NONE', *, *, #490, .T. ) ;
#340 = CARTESIAN_POINT ( 'NONE',  ( 47.05944237924699536, 7.307724704825999673, 12.79659109885900037 ) ) ;
#341 = DIRECTION ( 'NONE',  ( 1.000000000000000000, 0.000000000000000000, 0.000000000000000000 ) ) ;
#342 = VECTOR ( 'NONE', #724, 1000.000000000000000 ) ;
#343 = DIRECTION ( 'NONE',  ( 0.000000000000000000, 0.000000000000000000, 1.000000000000000000 ) ) ;
#344 = ORIENTED_EDGE ( 'NONE', *, *, #244, .F. ) ;
#345 = AXIS2_PLACEMENT_3D ( 'NONE', #623, #594, #315 ) ;
#346 = ADVANCED_FACE ( 'NONE', ( #1198, #686 ), #1183, .F. ) ;
#347 = ORIENTED_EDGE ( 'NONE', *, *, #591, .F. ) ;
#348 = AXIS2_PLACEMENT_3D ( 'NONE', #638, #769, #855 ) ;
#349 = AXIS2_PLACEMENT_3D ( 'NONE', #1164, #747, #362 ) ;
#350 = ADVANCED_FACE ( 'NONE', ( #369 ), #983, .F. ) ;
#351 = CARTESIAN_POINT ( 'NONE',  ( 43.20407005243799858, 27.95478837541199724, 4.816441438671000164 ) ) ;
#352 = CARTESIAN_POINT ( 'NONE',  ( 0.000000000000000000, 51.63560127662699983, 2.437851286398000195 ) ) ;
#353 = EDGE_LOOP ( 'NONE', ( #142, #1160, #611, #577 ) ) ;
#354 = DIRECTION ( 'NONE',  ( 0.000000000000000000, -0.1183547867900039546, 0.9929713714120326218 ) ) ;
#355 = VERTEX_POINT ( 'NONE', #901 ) ;
#356 = APPLICATION_CONTEXT ( 'automotive_design' ) ;
#357 = VERTEX_POINT ( 'NONE', #164 ) ;
#358 = EDGE_CURVE ( 'NONE', #1173, #1104, #159, .T. ) ;
#359 = DIRECTION ( 'NONE',  ( 0.000000000000000000, 0.000000000000000000, -1.000000000000000000 ) ) ;
#360 = MANIFOLD_SOLID_BREP ( 'Open CASCADE STEP translator 7.5 8[1]', #438 ) ;
#361 = CARTESIAN_POINT ( 'NONE',  ( 0.000000000000000000, 0.000000000000000000, 14.60908165969599892 ) ) ;
#362 = DIRECTION ( 'NONE',  ( 1.000000000000000000, 0.000000000000000000, 0.000000000000000000 ) ) ;
#363 = ORIENTED_EDGE ( 'NONE', *, *, #507, .T. ) ;
#364 = ORIENTED_EDGE ( 'NONE', *, *, #14, .F. ) ;
#365 = ORIENTED_EDGE ( 'NONE', *, *, #303, .T. ) ;
#366 = LINE ( 'NONE', #874, #1097 ) ;
#367 = EDGE_CURVE ( 'NONE', #402, #502, #892, .T. ) ;
#368 = CARTESIAN_POINT ( 'NONE',  ( 47.05944237924699536, 33.91296809793700362, 8.474699877973000284 ) ) ;
#369 = FACE_OUTER_BOUND ( 'NONE', #380, .T. ) ;
#370 = VECTOR ( 'NONE', #168, 1000.000000000000000 ) ;
#371 = ORIENTED_EDGE ( 'NONE', *, *, #1267, .T. ) ;
#372 = VECTOR ( 'NONE', #147, 1000.000000000000000 ) ;
#373 = AXIS2_PLACEMENT_3D ( 'NONE', #750, #835, #118 ) ;
#374 = VECTOR ( 'NONE', #354, 1000.000000000000000 ) ;
#375 = CARTESIAN_POINT ( 'NONE',  ( 4.438649524070999774, 9.107077849303999884, 11.92347698177099957 ) ) ;
#376 = DIRECTION ( 'NONE',  ( 0.000000000000000000, -1.000000000000000000, 0.000000000000000000 ) ) ;
#377 = FILL_AREA_STYLE_COLOUR ( '', #890 ) ;
#378 = EDGE_LOOP ( 'NONE', ( #1200, #265, #606, #347 ) ) ;
#379 = EDGE_LOOP ( 'NONE', ( #39, #1003, #198, #1087 ) ) ;
#380 = EDGE_LOOP ( 'NONE', ( #999, #559, #237, #1178 ) ) ;
#381 = LINE ( 'NONE', #464, #869 ) ;
#382 = DIRECTION ( 'NONE',  ( 0.000000000000000000, 0.000000000000000000, -1.000000000000000000 ) ) ;
#383 = ORIENTED_EDGE ( 'NONE', *, *, #1203, .F. ) ;
#384 = DIRECTION ( 'NONE',  ( -0.000000000000000000, 1.000000000000000000, 0.000000000000000000 ) ) ;
#385 = ADVANCED_FACE ( 'NONE', ( #268 ), #788, .F. ) ;
#386 = VERTEX_POINT ( 'NONE', #1280 ) ;
#387 = DIRECTION ( 'NONE',  ( 0.000000000000000000, 0.000000000000000000, 1.000000000000000000 ) ) ;
#388 = LINE ( 'NONE', #368, #687 ) ;
#389 = ORIENTED_EDGE ( 'NONE', *, *, #318, .F. ) ;
#390 = ADVANCED_FACE ( 'NONE', ( #1304 ), #486, .F. ) ;
#391 = AXIS2_PLACEMENT_3D ( 'NONE', #767, #271, #1080 ) ;
#392 = DIRECTION ( 'NONE',  ( 1.000000000000000000, 0.000000000000000000, 0.000000000000000000 ) ) ;
#393 = AXIS2_PLACEMENT_3D ( 'NONE', #483, #678, #53 ) ;
#394 = PLANE ( 'NONE',  #1175 ) ;
#395 = DIRECTION ( 'NONE',  ( 1.000000000000000000, 0.000000000000000000, 0.000000000000000000 ) ) ;
#396 = ORIENTED_EDGE ( 'NONE', *, *, #139, .F. ) ;
#397 = VERTEX_POINT ( 'NONE', #86 ) ;
#398 = ADVANCED_FACE ( 'NONE', ( #497 ), #1189, .F. ) ;
#399 = DIRECTION ( 'NONE',  ( 0.000000000000000000, -1.000000000000000000, 0.000000000000000000 ) ) ;
#400 = LINE ( 'NONE', #514, #710 ) ;
#401 = DIRECTION ( 'NONE',  ( 0.000000000000000000, -1.000000000000000000, 0.000000000000000000 ) ) ;
#402 = VERTEX_POINT ( 'NONE', #288 ) ;
#403 = VERTEX_POINT ( 'NONE', #602 ) ;
#404 = ORIENTED_EDGE ( 'NONE', *, *, #969, .F. ) ;
#405 = CARTESIAN_POINT ( 'NONE',  ( 47.05944237924699536, 0.000000000000000000, 0.000000000000000000 ) ) ;
#406 = ADVANCED_FACE ( 'NONE', ( #1020 ), #196, .F. ) ;
#407 = CARTESIAN_POINT ( 'NONE',  ( 47.05944237924699536, 25.96884563258799616, 4.579731865090999499 ) ) ;
#408 = CARTESIAN_POINT ( 'NONE',  ( 47.05944237924699536, 11.53879215436800010, 9.938915074162000707 ) ) ;
#409 = ORIENTED_EDGE ( 'NONE', *, *, #1120, .T. ) ;
#410 = ORIENTED_EDGE ( 'NONE', *, *, #468, .T. ) ;
#411 = VECTOR ( 'NONE', #964, 1000.000000000000000 ) ;
#412 = PLANE ( 'NONE',  #109 ) ;
#413 = ORIENTED_EDGE ( 'NONE', *, *, #1278, .F. ) ;
#414 = VECTOR ( 'NONE', #124, 1000.000000000000000 ) ;
#415 = AXIS2_PLACEMENT_3D ( 'NONE', #948, #392, #1033 ) ;
#416 = PLANE ( 'NONE',  #1095 ) ;
#417 = DIRECTION ( 'NONE',  ( -1.000000000000000000, 0.000000000000000000, 0.000000000000000000 ) ) ;
#418 = LINE ( 'NONE', #1125, #931 ) ;
#419 = EDGE_LOOP ( 'NONE', ( #532, #925, #1008, #413 ) ) ;
#420 = ORIENTED_EDGE ( 'NONE', *, *, #1024, .T. ) ;
#421 = LINE ( 'NONE', #1214, #1114 ) ;
#422 = PLANE ( 'NONE',  #1221 ) ;
#423 = LINE ( 'NONE', #1046, #482 ) ;
#424 = DIRECTION ( 'NONE',  ( -1.000000000000000000, 0.000000000000000000, 0.000000000000000000 ) ) ;
#425 = EDGE_CURVE ( 'NONE', #357, #709, #188, .T. ) ;
#426 = ORIENTED_EDGE ( 'NONE', *, *, #1040, .T. ) ;
#427 = APPLICATION_CONTEXT ( 'automotive_design' ) ;
#428 = DIRECTION ( 'NONE',  ( 0.000000000000000000, -1.000000000000000000, 0.000000000000000000 ) ) ;
#429 = LINE ( 'NONE', #712, #644 ) ;
#430 = DIRECTION ( 'NONE',  ( 1.000000000000000000, 0.000000000000000000, 0.000000000000000000 ) ) ;
#431 = FACE_OUTER_BOUND ( 'NONE', #1115, .T. ) ;
#432 = VERTEX_POINT ( 'NONE', #836 ) ;
#433 = ADVANCED_FACE ( 'NONE', ( #1224 ), #307, .T. ) ;
#434 = DIRECTION ( 'NONE',  ( 0.000000000000000000, 0.000000000000000000, -1.000000000000000000 ) ) ;
#435 = VECTOR ( 'NONE', #1207, 1000.000000000000000 ) ;
#436 = PLANE ( 'NONE',  #30 ) ;
#437 = CIRCLE ( 'NONE', #415, 2.021336095935998944 ) ;
#438 = CLOSED_SHELL ( 'NONE', ( #888, #199, #330, #1030, #493, #1073, #1112, #11, #1107, #1192, #71, #740, #114, #350, #312, #1251, #346, #1294, #406, #880, #398, #698, #657, #1217, #24, #748, #774, #1007, #1235, #703, #1151, #385, #921, #943, #433, #548, #205, #1099, #860, #390, #521, #984, #1244, #452, #485 ) ) ;
#439 = CARTESIAN_POINT ( 'NONE',  ( 0.000000000000000000, 90.15425396094899213, 22.15576696078499808 ) ) ;
#440 = AXIS2_PLACEMENT_3D ( 'NONE', #1293, #681, #283 ) ;
#441 = LINE ( 'NONE', #1047, #975 ) ;
#442 = VERTEX_POINT ( 'NONE', #1209 ) ;
#443 = DIRECTION ( 'NONE',  ( 1.000000000000000000, 2.931863715153000202E-31, 2.931863715153000202E-31 ) ) ;
#444 = EDGE_CURVE ( 'NONE', #402, #58, #400, .T. ) ;
#445 = CARTESIAN_POINT ( 'NONE',  ( 0.000000000000000000, 0.000000000000000000, 0.000000000000000000 ) ) ;
#446 = CARTESIAN_POINT ( 'NONE',  ( 43.20407005243799858, 25.96884563258799616, 4.579731865090999499 ) ) ;
#447 = EDGE_LOOP ( 'NONE', ( #103, #473, #20, #409 ) ) ;
#448 = ORIENTED_EDGE ( 'NONE', *, *, #1049, .F. ) ;
#449 = VERTEX_POINT ( 'NONE', #106 ) ;
#450 = DIRECTION ( 'NONE',  ( 1.000000000000000000, 0.000000000000000000, 0.000000000000000000 ) ) ;
#451 = CARTESIAN_POINT ( 'NONE',  ( 47.05944237924699536, 8.456810967252000211, 3.080479700861999959 ) ) ;
#452 = ADVANCED_FACE ( 'NONE', ( #1106 ), #422, .F. ) ;
#453 = DIRECTION ( 'NONE',  ( -0.000000000000000000, 0.4365570585439336182, 0.8996765722388622155 ) ) ;
#454 = CARTESIAN_POINT ( 'NONE',  ( 47.05944237924699536, 11.53879215436800010, 11.96025117009799921 ) ) ;
#455 = EDGE_CURVE ( 'NONE', #915, #355, #1117, .T. ) ;
#456 = ORIENTED_EDGE ( 'NONE', *, *, #622, .F. ) ;
#457 = LINE ( 'NONE', #629, #730 ) ;
#458 = DIRECTION ( 'NONE',  ( 0.000000000000000000, 1.000000000000000000, 0.000000000000000000 ) ) ;
#459 = VECTOR ( 'NONE', #509, 1000.000000000000000 ) ;
#460 = DIRECTION ( 'NONE',  ( -1.000000000000000000, 0.000000000000000000, 0.000000000000000000 ) ) ;
#461 = VECTOR ( 'NONE', #334, 1000.000000000000000 ) ;
#462 = EDGE_CURVE ( 'NONE', #1076, #1301, #320, .T. ) ;
#463 = ORIENTED_EDGE ( 'NONE', *, *, #189, .T. ) ;
#464 = CARTESIAN_POINT ( 'NONE',  ( 4.438649524070999774, 7.379493488045000049, 11.79916980283899974 ) ) ;
#465 = DIRECTION ( 'NONE',  ( 0.000000000000000000, 0.1183547867900039546, -0.9929713714120325108 ) ) ;
#466 = CARTESIAN_POINT ( 'NONE',  ( 33.51186361855799589, 11.53879215436800010, 9.938915074162000707 ) ) ;
#467 = EDGE_LOOP ( 'NONE', ( #1212 ) ) ;
#468 = EDGE_CURVE ( 'NONE', #502, #1225, #702, .T. ) ;
#469 = LINE ( 'NONE', #1277, #129 ) ;
#470 = CARTESIAN_POINT ( 'NONE',  ( 47.05944237924699536, 77.13580630710599451, 42.67800961100099499 ) ) ;
#471 = CARTESIAN_POINT ( 'NONE',  ( 47.05944237924699536, 11.53879215436800010, 9.938915074162000707 ) ) ;
#472 = ORIENTED_EDGE ( 'NONE', *, *, #1299, .T. ) ;
#473 = ORIENTED_EDGE ( 'NONE', *, *, #318, .T. ) ;
#474 = EDGE_LOOP ( 'NONE', ( #463, #289, #755, #876 ) ) ;
#475 = PLANE ( 'NONE',  #519 ) ;
#476 = EDGE_CURVE ( 'NONE', #830, #1196, #1027, .T. ) ;
#477 = FACE_OUTER_BOUND ( 'NONE', #186, .T. ) ;
#478 = VERTEX_POINT ( 'NONE', #1039 ) ;
#479 = STYLED_ITEM ( 'NONE', ( #67 ), #360 ) ;
#480 = VECTOR ( 'NONE', #711, 1000.000000000000000 ) ;
#481 = VECTOR ( 'NONE', #193, 1000.000000000000114 ) ;
#482 = VECTOR ( 'NONE', #120, 1000.000000000000000 ) ;
#483 = CARTESIAN_POINT ( 'NONE',  ( 43.20407005243799858, 26.67177052989300279, 7.131514593222999743 ) ) ;
#484 = CARTESIAN_POINT ( 'NONE',  ( 43.56986630347800826, 30.91443108373099946, 1.798311459361000120 ) ) ;
#485 = ADVANCED_FACE ( 'NONE', ( #203, #829, #1123, #608, #1216, #101, #1110, #1231, #1012 ), #301, .T. ) ;
#486 = PLANE ( 'NONE',  #643 ) ;
#487 = LINE ( 'NONE', #894, #580 ) ;
#488 = DIRECTION ( 'NONE',  ( 1.000000000000000000, 0.000000000000000000, 0.000000000000000000 ) ) ;
#489 = ORIENTED_EDGE ( 'NONE', *, *, #122, .F. ) ;
#490 = EDGE_CURVE ( 'NONE', #128, #190, #429, .T. ) ;
#491 = CARTESIAN_POINT ( 'NONE',  ( 4.438649524070999774, 8.135632493845999846, 13.35745533633599891 ) ) ;
#492 = ORIENTED_EDGE ( 'NONE', *, *, #969, .T. ) ;
#493 = ADVANCED_FACE ( 'NONE', ( #1318 ), #416, .T. ) ;
#494 = VERTEX_POINT ( 'NONE', #613 ) ;
#495 = CARTESIAN_POINT ( 'NONE',  ( 4.438649524070999774, 9.035309066085000396, 12.92089827779200029 ) ) ;
#496 = FACE_OUTER_BOUND ( 'NONE', #353, .T. ) ;
#497 = FACE_OUTER_BOUND ( 'NONE', #174, .T. ) ;
#498 = VERTEX_POINT ( 'NONE', #1130 ) ;
#499 = EDGE_CURVE ( 'NONE', #634, #212, #216, .T. ) ;
#500 = AXIS2_PLACEMENT_3D ( 'NONE', #1002, #573, #74 ) ;
#501 = AXIS2_PLACEMENT_3D ( 'NONE', #1236, #319, #843 ) ;
#502 = VERTEX_POINT ( 'NONE', #946 ) ;
#503 = PRESENTATION_LAYER_ASSIGNMENT (  '', '', ( #479 ) ) ;
#504 = DIRECTION ( 'NONE',  ( -1.000000000000000000, 0.000000000000000000, 0.000000000000000000 ) ) ;
#505 = DIRECTION ( 'NONE',  ( 1.000000000000000000, -3.745768200881000497E-29, 3.346155435882000016E-30 ) ) ;
#506 = VERTEX_POINT ( 'NONE', #1045 ) ;
#507 = EDGE_CURVE ( 'NONE', #1104, #1167, #875, .T. ) ;
#508 = ORIENTED_EDGE ( 'NONE', *, *, #721, .F. ) ;
#509 = DIRECTION ( 'NONE',  ( 0.000000000000000000, -0.1183547867900039546, 0.9929713714120326218 ) ) ;
#510 = DIRECTION ( 'NONE',  ( -1.000000000000000000, 0.000000000000000000, 0.000000000000000000 ) ) ;
#511 = CARTESIAN_POINT ( 'NONE',  ( 47.05944237924699536, 17.21792314470900109, 5.941530868962999534 ) ) ;
#512 = VERTEX_POINT ( 'NONE', #533 ) ;
#513 = LINE ( 'NONE', #297, #32 ) ;
#514 = CARTESIAN_POINT ( 'NONE',  ( 47.05944237924699536, 30.91443108373099946, 1.798311459361000120 ) ) ;
#515 = DIRECTION ( 'NONE',  ( 0.000000000000000000, 0.8996765722388622155, -0.4365570585439335627 ) ) ;
#516 = CARTESIAN_POINT ( 'NONE',  ( 47.05944237924699536, 0.000000000000000000, 42.67800961100099499 ) ) ;
#517 = LINE ( 'NONE', #214, #260 ) ;
#518 = VECTOR ( 'NONE', #230, 1000.000000000000000 ) ;
#519 = AXIS2_PLACEMENT_3D ( 'NONE', #1168, #172, #1295 ) ;
#520 = DIRECTION ( 'NONE',  ( 0.000000000000000000, 0.000000000000000000, 1.000000000000000000 ) ) ;
#521 = ADVANCED_FACE ( 'NONE', ( #26 ), #1257, .F. ) ;
#522 = DIRECTION ( 'NONE',  ( -1.000000000000000000, 0.000000000000000000, 0.000000000000000000 ) ) ;
#523 = VERTEX_POINT ( 'NONE', #832 ) ;
#524 = ORIENTED_EDGE ( 'NONE', *, *, #764, .T. ) ;
#525 = CARTESIAN_POINT ( 'NONE',  ( 0.000000000000000000, 0.000000000000000000, 0.000000000000000000 ) ) ;
#526 = DIRECTION ( 'NONE',  ( 0.000000000000000000, 1.000000000000000000, 0.000000000000000000 ) ) ;
#527 = EDGE_LOOP ( 'NONE', ( #201, #944, #1273, #733 ) ) ;
#528 = EDGE_CURVE ( 'NONE', #883, #128, #846, .T. ) ;
#529 = CARTESIAN_POINT ( 'NONE',  ( 47.05944237924699536, 25.38875268437400123, 9.446587747774000121 ) ) ;
#530 = DIRECTION ( 'NONE',  ( 1.000000000000000000, 0.000000000000000000, 0.000000000000000000 ) ) ;
#531 = CARTESIAN_POINT ( 'NONE',  ( 47.05944237924699536, 25.96884563258799616, 4.579731865090999499 ) ) ;
#532 = ORIENTED_EDGE ( 'NONE', *, *, #911, .T. ) ;
#533 = CARTESIAN_POINT ( 'NONE',  ( 4.438649524070999774, 7.379493488045000049, 11.79916980283899974 ) ) ;
#534 = LINE ( 'NONE', #149, #1081 ) ;
#535 = FACE_OUTER_BOUND ( 'NONE', #379, .T. ) ;
#536 = ORIENTED_EDGE ( 'NONE', *, *, #358, .T. ) ;
#537 = ORIENTED_EDGE ( 'NONE', *, *, #81, .F. ) ;
#538 = ORIENTED_EDGE ( 'NONE', *, *, #1286, .T. ) ;
#539 = CARTESIAN_POINT ( 'NONE',  ( 0.000000000000000000, 53.63560127662700694, 2.437851286398000195 ) ) ;
#540 = VECTOR ( 'NONE', #79, 1000.000000000000000 ) ;
#541 = DIRECTION ( 'NONE',  ( 0.000000000000000000, 0.1183547867900039546, -0.9929713714120326218 ) ) ;
#542 = AXIS2_PLACEMENT_3D ( 'NONE', #772, #266, #166 ) ;
#543 = AXIS2_PLACEMENT_3D ( 'NONE', #1032, #401, #626 ) ;
#544 = CARTESIAN_POINT ( 'NONE',  ( 47.05944237924699536, 9.035309066085000396, 12.92089827779200029 ) ) ;
#545 = VECTOR ( 'NONE', #258, 1000.000000000000114 ) ;
#546 = VERTEX_POINT ( 'NONE', #133 ) ;
#547 = PRODUCT_DEFINITION_SHAPE ( 'NONE', 'NONE',  #989 ) ;
#548 = ADVANCED_FACE ( 'NONE', ( #658 ), #436, .T. ) ;
#549 = DIRECTION ( 'NONE',  ( 0.000000000000000000, -0.9929713714120326218, -0.1183547867900039685 ) ) ;
#550 = CARTESIAN_POINT ( 'NONE',  ( 47.05944237924699536, 27.37469542719799875, 9.683297321354999099 ) ) ;
#551 = DIRECTION ( 'NONE',  ( 1.000000000000000000, 0.000000000000000000, 0.000000000000000000 ) ) ;
#552 = EDGE_LOOP ( 'NONE', ( #6, #365, #1037, #587, #958, #242 ) ) ;
#553 = LINE ( 'NONE', #144, #3 ) ;
#554 = LINE ( 'NONE', #968, #952 ) ;
#555 = EDGE_CURVE ( 'NONE', #856, #512, #246, .T. ) ;
#556 = LINE ( 'NONE', #653, #374 ) ;
#557 = APPLICATION_PROTOCOL_DEFINITION ( 'draft international standard', 'automotive_design', 1998, #427 ) ;
#558 = VERTEX_POINT ( 'NONE', #329 ) ;
#559 = ORIENTED_EDGE ( 'NONE', *, *, #555, .T. ) ;
#560 = CARTESIAN_POINT ( 'NONE',  ( 47.05944237924699536, 8.456810967252000211, 1.693742556611999905 ) ) ;
#561 = ORIENTED_EDGE ( 'NONE', *, *, #1082, .F. ) ;
#562 = DIRECTION ( 'NONE',  ( 0.000000000000000000, 0.000000000000000000, 1.000000000000000000 ) ) ;
#563 = VECTOR ( 'NONE', #620, 1000.000000000000000 ) ;
#564 = EDGE_CURVE ( 'NONE', #432, #248, #739, .T. ) ;
#565 = LINE ( 'NONE', #978, #302 ) ;
#566 = VERTEX_POINT ( 'NONE', #454 ) ;
#567 = ORIENTED_EDGE ( 'NONE', *, *, #766, .F. ) ;
#568 = CARTESIAN_POINT ( 'NONE',  ( 0.000000000000000000, 53.63560127662700694, 2.437851286398000195 ) ) ;
#569 = ORIENTED_EDGE ( 'NONE', *, *, #105, .F. ) ;
#570 = DIRECTION ( 'NONE',  ( 1.000000000000000000, 0.000000000000000000, 0.000000000000000000 ) ) ;
#571 = PLANE ( 'NONE',  #192 ) ;
#572 = CARTESIAN_POINT ( 'NONE',  ( 47.05944237924699536, 25.96884563258799616, 4.579731865090999499 ) ) ;
#573 = DIRECTION ( 'NONE',  ( 1.000000000000000000, 0.000000000000000000, 0.000000000000000000 ) ) ;
#574 = SURFACE_SIDE_STYLE ('',( #699 ) ) ;
#575 = LINE ( 'NONE', #765, #1134 ) ;
#576 = FACE_OUTER_BOUND ( 'NONE', #40, .T. ) ;
#577 = ORIENTED_EDGE ( 'NONE', *, *, #161, .T. ) ;
#578 = CARTESIAN_POINT ( 'NONE',  ( 47.05944237924699536, 7.307724704825999673, 12.79659109885900037 ) ) ;
#579 = VECTOR ( 'NONE', #1059, 1000.000000000000000 ) ;
#580 = VECTOR ( 'NONE', #691, 1000.000000000000000 ) ;
#581 = LINE ( 'NONE', #560, #73 ) ;
#582 = EDGE_CURVE ( 'NONE', #1018, #1301, #140, .T. ) ;
#583 = CARTESIAN_POINT ( 'NONE',  ( 18.52976477775399644, 17.21792314470900109, 5.941530868962999534 ) ) ;
#584 = EDGE_CURVE ( 'NONE', #1184, #649, #957, .T. ) ;
#585 =( NAMED_UNIT ( * ) PLANE_ANGLE_UNIT ( ) SI_UNIT ( $, .RADIAN. ) );
#586 = DIRECTION ( 'NONE',  ( 1.000000000000000000, 0.000000000000000000, 0.000000000000000000 ) ) ;
#587 = ORIENTED_EDGE ( 'NONE', *, *, #181, .T. ) ;
#588 = DIRECTION ( 'NONE',  ( 0.000000000000000000, -1.000000000000000000, 0.000000000000000000 ) ) ;
#589 = ORIENTED_EDGE ( 'NONE', *, *, #757, .T. ) ;
#590 = DIRECTION ( 'NONE',  ( 0.000000000000000000, 0.000000000000000000, 1.000000000000000000 ) ) ;
#591 = EDGE_CURVE ( 'NONE', #677, #987, #745, .T. ) ;
#592 = CARTESIAN_POINT ( 'NONE',  ( 47.05944237924699536, 7.456810967252000211, 2.387111128736999710 ) ) ;
#593 = LINE ( 'NONE', #1302, #435 ) ;
#594 = DIRECTION ( 'NONE',  ( 1.000000000000000000, 0.000000000000000000, 0.000000000000000000 ) ) ;
#595 = EDGE_CURVE ( 'NONE', #284, #904, #554, .T. ) ;
#596 = ORIENTED_EDGE ( 'NONE', *, *, #582, .T. ) ;
#597 = VECTOR ( 'NONE', #905, 1000.000000000000000 ) ;
#598 = AXIS2_PLACEMENT_3D ( 'NONE', #466, #460, #761 ) ;
#599 = VERTEX_POINT ( 'NONE', #963 ) ;
#600 = AXIS2_PLACEMENT_3D ( 'NONE', #273, #395, #1205 ) ;
#601 = LINE ( 'NONE', #95, #1013 ) ;
#602 = CARTESIAN_POINT ( 'NONE',  ( 4.438649524070999774, 8.135632493845999846, 13.35745533633599891 ) ) ;
#603 = LINE ( 'NONE', #529, #913 ) ;
#604 = ORIENTED_EDGE ( 'NONE', *, *, #94, .T. ) ;
#605 = EDGE_CURVE ( 'NONE', #950, #1223, #759, .T. ) ;
#606 = ORIENTED_EDGE ( 'NONE', *, *, #1305, .F. ) ;
#607 = DIRECTION ( 'NONE',  ( 0.000000000000000000, 0.000000000000000000, -1.000000000000000000 ) ) ;
#608 = FACE_BOUND ( 'NONE', #311, .T. ) ;
#609 = ORIENTED_EDGE ( 'NONE', *, *, #251, .F. ) ;
#610 = FACE_OUTER_BOUND ( 'NONE', #1259, .T. ) ;
#611 = ORIENTED_EDGE ( 'NONE', *, *, #842, .F. ) ;
#612 = DIRECTION ( 'NONE',  ( 0.000000000000000000, 0.000000000000000000, 1.000000000000000000 ) ) ;
#613 = CARTESIAN_POINT ( 'NONE',  ( 0.000000000000000000, 81.78335331669501329, 36.91669931570899621 ) ) ;
#614 = ORIENTED_EDGE ( 'NONE', *, *, #528, .F. ) ;
#615 = CARTESIAN_POINT ( 'NONE',  ( 47.05944237924699536, 8.135632493845999846, 13.35745533633599891 ) ) ;
#616 = DIRECTION ( 'NONE',  ( 0.000000000000000000, -0.5608642374768197936, 0.8279077890197347189 ) ) ;
#617 = ORIENTED_EDGE ( 'NONE', *, *, #852, .F. ) ;
#618 = EDGE_LOOP ( 'NONE', ( #1274, #269, #1121, #833, #456, #639 ) ) ;
#619 = VECTOR ( 'NONE', #1245, 1000.000000000000000 ) ;
#620 = DIRECTION ( 'NONE',  ( 0.000000000000000000, 0.000000000000000000, 1.000000000000000000 ) ) ;
#621 = AXIS2_PLACEMENT_3D ( 'NONE', #59, #359, #1282 ) ;
#622 = EDGE_CURVE ( 'NONE', #1052, #1161, #1147, .T. ) ;
#623 = CARTESIAN_POINT ( 'NONE',  ( 47.05944237924699536, 0.000000000000000000, 0.000000000000000000 ) ) ;
#624 = ORIENTED_EDGE ( 'NONE', *, *, #293, .T. ) ;
#625 = EDGE_CURVE ( 'NONE', #1052, #1129, #42, .T. ) ;
#626 = DIRECTION ( 'NONE',  ( 0.000000000000000000, 0.000000000000000000, -1.000000000000000000 ) ) ;
#627 = DIRECTION ( 'NONE',  ( -0.000000000000000000, 1.000000000000000000, 0.000000000000000000 ) ) ;
#628 = ORIENTED_EDGE ( 'NONE', *, *, #462, .F. ) ;
#629 = CARTESIAN_POINT ( 'NONE',  ( 47.05944237924699536, 25.38875268437400123, 9.446587747774000121 ) ) ;
#630 = LINE ( 'NONE', #1163, #298 ) ;
#631 = EDGE_CURVE ( 'NONE', #1161, #1206, #630, .T. ) ;
#632 = CARTESIAN_POINT ( 'NONE',  ( 47.05944237924699536, 81.78335331669501329, 22.15576696078499808 ) ) ;
#633 = CARTESIAN_POINT ( 'NONE',  ( 39.03334389673700144, 7.456810967252000211, 1.693742556611999905 ) ) ;
#634 = VERTEX_POINT ( 'NONE', #1250 ) ;
#635 = PLANE ( 'NONE',  #1079 ) ;
#636 = CARTESIAN_POINT ( 'NONE',  ( 47.05944237924699536, 27.95478837541199724, 4.816441438671000164 ) ) ;
#637 = CARTESIAN_POINT ( 'NONE',  ( 47.05944237924699536, 77.13580630710599451, 14.60908165969599892 ) ) ;
#638 = CARTESIAN_POINT ( 'NONE',  ( 0.000000000000000000, 0.000000000000000000, 0.000000000000000000 ) ) ;
#639 = ORIENTED_EDGE ( 'NONE', *, *, #251, .T. ) ;
#640 = EDGE_CURVE ( 'NONE', #830, #386, #1195, .T. ) ;
#641 = VERTEX_POINT ( 'NONE', #335 ) ;
#642 = CARTESIAN_POINT ( 'NONE',  ( 47.05944237924699536, 81.78335331669501329, 36.91669931570899621 ) ) ;
#643 = AXIS2_PLACEMENT_3D ( 'NONE', #1101, #384, #784 ) ;
#644 = VECTOR ( 'NONE', #92, 1000.000000000000000 ) ;
#645 = DIRECTION ( 'NONE',  ( 1.000000000000000000, 0.000000000000000000, 0.000000000000000000 ) ) ;
#646 = CIRCLE ( 'NONE', #598, 1.807207457857000543 ) ;
#647 = CARTESIAN_POINT ( 'NONE',  ( 47.05944237924699536, 7.307724704825999673, 12.79659109885900037 ) ) ;
#648 = VECTOR ( 'NONE', #520, 1000.000000000000000 ) ;
#649 = VERTEX_POINT ( 'NONE', #236 ) ;
#650 = CARTESIAN_POINT ( 'NONE',  ( 47.05944237924699536, 30.91443108373099946, 8.474699877973000284 ) ) ;
#651 = ORIENTED_EDGE ( 'NONE', *, *, #455, .F. ) ;
#652 = CARTESIAN_POINT ( 'NONE',  ( 0.000000000000000000, 53.63560127662700694, 4.625851364349999884 ) ) ;
#653 = CARTESIAN_POINT ( 'NONE',  ( 47.05944237924699536, 28.33706405083599833, 4.862005850056000611 ) ) ;
#654 = ORIENTED_EDGE ( 'NONE', *, *, #165, .F. ) ;
#655 = UNCERTAINTY_MEASURE_WITH_UNIT (LENGTH_MEASURE( 1.000000000000000082E-05 ), #135, 'distance_accuracy_value', 'NONE');
#656 = DIRECTION ( 'NONE',  ( 0.000000000000000000, 0.000000000000000000, -1.000000000000000000 ) ) ;
#657 = ADVANCED_FACE ( 'NONE', ( #1263 ), #732, .F. ) ;
#658 = FACE_OUTER_BOUND ( 'NONE', #1229, .T. ) ;
#659 = CARTESIAN_POINT ( 'NONE',  ( 46.67446081136900204, 28.33706405083599833, 4.862005850056000611 ) ) ;
#660 = VERTEX_POINT ( 'NONE', #451 ) ;
#661 = ORIENTED_EDGE ( 'NONE', *, *, #625, .T. ) ;
#662 = EDGE_LOOP ( 'NONE', ( #1180, #420, #734, #364 ) ) ;
#663 = CARTESIAN_POINT ( 'NONE',  ( 0.000000000000000000, 51.63560127662699983, 4.625851364349999884 ) ) ;
#664 = CARTESIAN_POINT ( 'NONE',  ( 47.05944237924699536, 17.21792314470900109, 5.941530868962999534 ) ) ;
#665 = VECTOR ( 'NONE', #1128, 1000.000000000000000 ) ;
#666 = LINE ( 'NONE', #1144, #793 ) ;
#667 = EDGE_CURVE ( 'NONE', #821, #15, #671, .T. ) ;
#668 = AXIS2_PLACEMENT_3D ( 'NONE', #930, #616, #1000 ) ;
#669 = ORIENTED_EDGE ( 'NONE', *, *, #87, .T. ) ;
#670 = CARTESIAN_POINT ( 'NONE',  ( 0.000000000000000000, 94.69956254843600618, 0.000000000000000000 ) ) ;
#671 = LINE ( 'NONE', #1086, #866 ) ;
#672 = ORIENTED_EDGE ( 'NONE', *, *, #1228, .F. ) ;
#673 = DIRECTION ( 'NONE',  ( 0.000000000000000000, 1.000000000000000000, 0.000000000000000000 ) ) ;
#674 = ORIENTED_EDGE ( 'NONE', *, *, #425, .F. ) ;
#675 = EDGE_CURVE ( 'NONE', #821, #248, #992, .T. ) ;
#676 = ORIENTED_EDGE ( 'NONE', *, *, #1278, .T. ) ;
#677 = VERTEX_POINT ( 'NONE', #1094 ) ;
#678 = DIRECTION ( 'NONE',  ( 1.000000000000000000, 0.000000000000000000, 0.000000000000000000 ) ) ;
#679 = CARTESIAN_POINT ( 'NONE',  ( 47.05944237924699536, 7.307724704825999673, 12.79659109885900037 ) ) ;
#680 = ORIENTED_EDGE ( 'NONE', *, *, #189, .F. ) ;
#681 = DIRECTION ( 'NONE',  ( -0.000000000000000000, 1.000000000000000000, 0.000000000000000000 ) ) ;
#682 = EDGE_CURVE ( 'NONE', #449, #1043, #982, .T. ) ;
#683 = CARTESIAN_POINT ( 'NONE',  ( 47.05944237924699536, 33.91296809793700362, 1.798311459361000120 ) ) ;
#684 = PLANE ( 'NONE',  #322 ) ;
#685 = CARTESIAN_POINT ( 'NONE',  ( 47.05944237924699536, 94.69956254843600618, 42.67800961100099499 ) ) ;
#686 = FACE_OUTER_BOUND ( 'NONE', #806, .T. ) ;
#687 = VECTOR ( 'NONE', #693, 1000.000000000000000 ) ;
#688 = AXIS2_PLACEMENT_3D ( 'NONE', #550, #1051, #1158 ) ;
#689 = EDGE_LOOP ( 'NONE', ( #886, #282, #344, #715 ) ) ;
#690 = VECTOR ( 'NONE', #21, 1000.000000000000000 ) ;
#691 = DIRECTION ( 'NONE',  ( 0.000000000000000000, -1.000000000000000000, 0.000000000000000000 ) ) ;
#692 = EDGE_CURVE ( 'NONE', #660, #950, #895, .T. ) ;
#693 = DIRECTION ( 'NONE',  ( -1.000000000000000000, 0.000000000000000000, 0.000000000000000000 ) ) ;
#694 = ORIENTED_EDGE ( 'NONE', *, *, #757, .F. ) ;
#695 = DIRECTION ( 'NONE',  ( 1.000000000000000000, 0.000000000000000000, 0.000000000000000000 ) ) ;
#696 = ORIENTED_EDGE ( 'NONE', *, *, #499, .F. ) ;
#697 = CARTESIAN_POINT ( 'NONE',  ( 47.05944237924699536, 7.456810967252000211, 3.080479700861999959 ) ) ;
#698 = ADVANCED_FACE ( 'NONE', ( #900, #889 ), #262, .F. ) ;
#699 = SURFACE_STYLE_FILL_AREA ( #1096 ) ;
#700 = ORIENTED_EDGE ( 'NONE', *, *, #64, .F. ) ;
#701 = PLANE ( 'NONE',  #891 ) ;
#702 = LINE ( 'NONE', #9, #1111 ) ;
#703 = ADVANCED_FACE ( 'NONE', ( #496 ), #1194, .F. ) ;
#704 = CARTESIAN_POINT ( 'NONE',  ( 47.05944237924699536, 8.279170060284000598, 11.36261274429499935 ) ) ;
#705 = VECTOR ( 'NONE', #741, 1000.000000000000227 ) ;
#706 = EDGE_LOOP ( 'NONE', ( #849, #808, #770, #169 ) ) ;
#707 = AXIS2_PLACEMENT_3D ( 'NONE', #1109, #723, #612 ) ;
#708 = AXIS2_PLACEMENT_3D ( 'NONE', #408, #417, #1210 ) ;
#709 = VERTEX_POINT ( 'NONE', #685 ) ;
#710 = VECTOR ( 'NONE', #1031, 1000.000000000000000 ) ;
#711 = DIRECTION ( 'NONE',  ( -1.000000000000000000, 0.000000000000000000, 0.000000000000000000 ) ) ;
#712 = CARTESIAN_POINT ( 'NONE',  ( 47.05944237924699536, 25.81780063831400085, 4.625851364349999884 ) ) ;
#713 = DIRECTION ( 'NONE',  ( -0.000000000000000000, 0.9974212960205305345, 0.07176878321892617152 ) ) ;
#714 = ORIENTED_EDGE ( 'NONE', *, *, #682, .F. ) ;
#715 = ORIENTED_EDGE ( 'NONE', *, *, #1136, .F. ) ;
#716 = FACE_OUTER_BOUND ( 'NONE', #100, .T. ) ;
#717 = CARTESIAN_POINT ( 'NONE',  ( 47.05944237924699536, 27.37469542719799875, 9.683297321354999099 ) ) ;
#718 = PLANE ( 'NONE',  #753 ) ;
#719 = CARTESIAN_POINT ( 'NONE',  ( 47.05944237924699536, 81.78335331669501329, 36.91669931570899621 ) ) ;
#720 = VERTEX_POINT ( 'NONE', #470 ) ;
#721 = EDGE_CURVE ( 'NONE', #232, #232, #90, .T. ) ;
#722 = EDGE_CURVE ( 'NONE', #78, #937, #267, .T. ) ;
#723 = DIRECTION ( 'NONE',  ( 1.000000000000000000, 0.000000000000000000, 0.000000000000000000 ) ) ;
#724 = DIRECTION ( 'NONE',  ( 1.000000000000000000, 0.000000000000000000, 0.000000000000000000 ) ) ;
#725 = CARTESIAN_POINT ( 'NONE',  ( 47.05944237924699536, 30.91443108373099946, 8.474699877973000284 ) ) ;
#726 = CARTESIAN_POINT ( 'NONE',  ( 0.000000000000000000, 53.63560127662700694, 2.437851286398000195 ) ) ;
#727 = ORIENTED_EDGE ( 'NONE', *, *, #263, .T. ) ;
#728 = VECTOR ( 'NONE', #998, 1000.000000000000000 ) ;
#729 = LINE ( 'NONE', #1135, #1036 ) ;
#730 = VECTOR ( 'NONE', #1044, 1000.000000000000000 ) ;
#731 = EDGE_CURVE ( 'NONE', #937, #498, #787, .T. ) ;
#732 = PLANE ( 'NONE',  #154 ) ;
#733 = ORIENTED_EDGE ( 'NONE', *, *, #692, .F. ) ;
#734 = ORIENTED_EDGE ( 'NONE', *, *, #595, .F. ) ;
#735 = ORIENTED_EDGE ( 'NONE', *, *, #490, .F. ) ;
#736 = PLANE ( 'NONE',  #176 ) ;
#737 = DIRECTION ( 'NONE',  ( 0.000000000000000000, 1.000000000000000000, 0.000000000000000000 ) ) ;
#738 = PLANE ( 'NONE',  #175 ) ;
#739 = LINE ( 'NONE', #1072, #70 ) ;
#740 = ADVANCED_FACE ( 'NONE', ( #576 ), #1296, .F. ) ;
#741 = DIRECTION ( 'NONE',  ( 0.000000000000000000, 0.07176878321893619128, -0.9974212960205297573 ) ) ;
#742 = CARTESIAN_POINT ( 'NONE',  ( 47.05944237924699536, 90.15425396094899213, 22.15576696078499808 ) ) ;
#743 = EDGE_LOOP ( 'NONE', ( #23, #676, #654, #949 ) ) ;
#744 = DIRECTION ( 'NONE',  ( 0.000000000000000000, 0.000000000000000000, -1.000000000000000000 ) ) ;
#745 = LINE ( 'NONE', #636, #579 ) ;
#746 = ORIENTED_EDGE ( 'NONE', *, *, #914, .T. ) ;
#747 = DIRECTION ( 'NONE',  ( -0.000000000000000000, 1.000000000000000000, 0.000000000000000000 ) ) ;
#748 = ADVANCED_FACE ( 'NONE', ( #1187 ), #773, .F. ) ;
#749 = ORIENTED_EDGE ( 'NONE', *, *, #822, .F. ) ;
#750 = CARTESIAN_POINT ( 'NONE',  ( 47.05944237924699536, 8.456810967252000211, 2.387111128736999710 ) ) ;
#751 = VECTOR ( 'NONE', #458, 1000.000000000000000 ) ;
#752 = CARTESIAN_POINT ( 'NONE',  ( 23.52972118962400216, 77.13580630710599451, 28.64354563534900322 ) ) ;
#753 = AXIS2_PLACEMENT_3D ( 'NONE', #704, #1113, #522 ) ;
#754 = LINE ( 'NONE', #1272, #171 ) ;
#755 = ORIENTED_EDGE ( 'NONE', *, *, #803, .F. ) ;
#756 = ORIENTED_EDGE ( 'NONE', *, *, #1024, .F. ) ;
#757 = EDGE_CURVE ( 'NONE', #1225, #355, #388, .T. ) ;
#758 = DIRECTION ( 'NONE',  ( 0.000000000000000000, 0.1183547867900039546, -0.9929713714120325108 ) ) ;
#759 = LINE ( 'NONE', #46, #215 ) ;
#760 = ORIENTED_EDGE ( 'NONE', *, *, #47, .F. ) ;
#761 = DIRECTION ( 'NONE',  ( 0.000000000000000000, 0.000000000000000000, -1.000000000000000000 ) ) ;
#762 = ORIENTED_EDGE ( 'NONE', *, *, #722, .F. ) ;
#763 = ORIENTED_EDGE ( 'NONE', *, *, #34, .F. ) ;
#764 = EDGE_CURVE ( 'NONE', #1291, #950, #127, .T. ) ;
#765 = CARTESIAN_POINT ( 'NONE',  ( 47.05944237924699536, 81.78335331669501329, 36.91669931570899621 ) ) ;
#766 = EDGE_CURVE ( 'NONE', #58, #915, #180, .T. ) ;
#767 = CARTESIAN_POINT ( 'NONE',  ( 47.05944237924699536, 90.15425396094899213, 36.91669931570899621 ) ) ;
#768 = DIRECTION ( 'NONE',  ( 0.000000000000000000, -0.9929713714120325108, -0.1183547867900039824 ) ) ;
#769 = DIRECTION ( 'NONE',  ( 0.000000000000000000, 0.000000000000000000, 1.000000000000000000 ) ) ;
#770 = ORIENTED_EDGE ( 'NONE', *, *, #34, .T. ) ;
#771 = ORIENTED_EDGE ( 'NONE', *, *, #1208, .F. ) ;
#772 = CARTESIAN_POINT ( 'NONE',  ( 43.56986630347800826, 32.41369959083399976, 5.136505668667000535 ) ) ;
#773 = PLANE ( 'NONE',  #1133 ) ;
#774 = ADVANCED_FACE ( 'NONE', ( #477 ), #84, .F. ) ;
#775 = AXIS2_PLACEMENT_3D ( 'NONE', #221, #28, #332 ) ;
#776 = CIRCLE ( 'NONE', #955, 0.6933685721249999157 ) ;
#777 = AXIS2_PLACEMENT_3D ( 'NONE', #96, #292, #1237 ) ;
#778 = DIRECTION ( 'NONE',  ( -1.000000000000000000, 0.000000000000000000, 0.000000000000000000 ) ) ;
#779 = CARTESIAN_POINT ( 'NONE',  ( 0.000000000000000000, 81.78335331669501329, 18.45834965785500259 ) ) ;
#780 = EDGE_CURVE ( 'NONE', #494, #432, #1090, .T. ) ;
#781 = DIRECTION ( 'NONE',  ( 0.000000000000000000, 1.000000000000000000, 0.000000000000000000 ) ) ;
#782 = DIRECTION ( 'NONE',  ( 0.000000000000000000, 0.8996765722388622155, -0.4365570585439335627 ) ) ;
#783 = CARTESIAN_POINT ( 'NONE',  ( 47.05944237924699536, 0.000000000000000000, 0.000000000000000000 ) ) ;
#784 = DIRECTION ( 'NONE',  ( 1.000000000000000000, 0.000000000000000000, 0.000000000000000000 ) ) ;
#785 = ORIENTED_EDGE ( 'NONE', *, *, #225, .T. ) ;
#786 = LINE ( 'NONE', #162, #817 ) ;
#787 = LINE ( 'NONE', #679, #1056 ) ;
#788 = PLANE ( 'NONE',  #440 ) ;
#789 = ORIENTED_EDGE ( 'NONE', *, *, #165, .T. ) ;
#790 = AXIS2_PLACEMENT_3D ( 'NONE', #55, #465, #868 ) ;
#791 = ORIENTED_EDGE ( 'NONE', *, *, #181, .F. ) ;
#792 = AXIS2_PLACEMENT_3D ( 'NONE', #642, #1162, #744 ) ;
#793 = VECTOR ( 'NONE', #1083, 1000.000000000000114 ) ;
#794 = EDGE_CURVE ( 'NONE', #1129, #634, #1182, .T. ) ;
#795 = CARTESIAN_POINT ( 'NONE',  ( 47.05944237924699536, 9.107077849303999884, 11.92347698177099957 ) ) ;
#796 = ORIENTED_EDGE ( 'NONE', *, *, #64, .T. ) ;
#797 = LINE ( 'NONE', #1230, #1240 ) ;
#798 = EDGE_LOOP ( 'NONE', ( #785, #1126, #448, #714 ) ) ;
#799 = ORIENTED_EDGE ( 'NONE', *, *, #1092, .F. ) ;
#800 = ORIENTED_EDGE ( 'NONE', *, *, #1005, .F. ) ;
#801 = DIRECTION ( 'NONE',  ( 0.000000000000000000, 0.000000000000000000, 1.000000000000000000 ) ) ;
#802 = ORIENTED_EDGE ( 'NONE', *, *, #367, .T. ) ;
#803 = EDGE_CURVE ( 'NONE', #677, #386, #1105, .T. ) ;
#804 = CARTESIAN_POINT ( 'NONE',  ( 43.56986630347800826, 33.91296809793700362, 1.798311459361000120 ) ) ;
#805 = DIRECTION ( 'NONE',  ( 0.000000000000000000, -1.000000000000000000, 0.000000000000000000 ) ) ;
#806 = EDGE_LOOP ( 'NONE', ( #1102 ) ) ;
#807 = EDGE_LOOP ( 'NONE', ( #903, #1069, #218, #472 ) ) ;
#808 = ORIENTED_EDGE ( 'NONE', *, *, #455, .T. ) ;
#809 = DIRECTION ( 'NONE',  ( 0.000000000000000000, 1.000000000000000000, 0.000000000000000000 ) ) ;
#810 = EDGE_LOOP ( 'NONE', ( #727, #1312, #1306, #966 ) ) ;
#811 = DIRECTION ( 'NONE',  ( 1.000000000000000000, 0.000000000000000000, 0.000000000000000000 ) ) ;
#812 = EDGE_CURVE ( 'NONE', #558, #1043, #797, .T. ) ;
#813 = DIRECTION ( 'NONE',  ( -1.000000000000000000, 0.000000000000000000, 0.000000000000000000 ) ) ;
#814 = EDGE_LOOP ( 'NONE', ( #1055 ) ) ;
#815 = ORIENTED_EDGE ( 'NONE', *, *, #675, .T. ) ;
#816 = VECTOR ( 'NONE', #526, 1000.000000000000000 ) ;
#817 = VECTOR ( 'NONE', #778, 1000.000000000000000 ) ;
#818 = AXIS2_PLACEMENT_3D ( 'NONE', #871, #48, #27 ) ;
#819 = CARTESIAN_POINT ( 'NONE',  ( 0.000000000000000000, 51.63560127662699983, 2.437851286398000195 ) ) ;
#820 = CARTESIAN_POINT ( 'NONE',  ( 39.03334389673700144, 7.956810967251999323, 2.387111128736999710 ) ) ;
#821 = VERTEX_POINT ( 'NONE', #187 ) ;
#822 = EDGE_CURVE ( 'NONE', #1062, #128, #306, .T. ) ;
#823 = LINE ( 'NONE', #204, #1157 ) ;
#824 = LINE ( 'NONE', #633, #867 ) ;
#825 = EDGE_CURVE ( 'NONE', #546, #442, #517, .T. ) ;
#826 = VERTEX_POINT ( 'NONE', #1029 ) ;
#827 = EDGE_LOOP ( 'NONE', ( #617, #1023, #1145, #404 ) ) ;
#828 = LINE ( 'NONE', #922, #480 ) ;
#829 = FACE_BOUND ( 'NONE', #1001, .T. ) ;
#830 = VERTEX_POINT ( 'NONE', #99 ) ;
#831 = CARTESIAN_POINT ( 'NONE',  ( 0.000000000000000000, 0.000000000000000000, 0.000000000000000000 ) ) ;
#832 = CARTESIAN_POINT ( 'NONE',  ( 33.51186361855799589, 11.53879215436800010, 8.131707616305000386 ) ) ;
#833 = ORIENTED_EDGE ( 'NONE', *, *, #914, .F. ) ;
#834 = EDGE_CURVE ( 'NONE', #78, #403, #601, .T. ) ;
#835 = DIRECTION ( 'NONE',  ( 1.000000000000000000, 0.000000000000000000, 0.000000000000000000 ) ) ;
#836 = CARTESIAN_POINT ( 'NONE',  ( 0.000000000000000000, 81.78335331669501329, 22.15576696078499808 ) ) ;
#837 = ORIENTED_EDGE ( 'NONE', *, *, #852, .T. ) ;
#838 = CARTESIAN_POINT ( 'NONE',  ( 47.05944237924699536, 9.107077849303999884, 11.92347698177099957 ) ) ;
#839 = FACE_OUTER_BOUND ( 'NONE', #474, .T. ) ;
#840 = ORIENTED_EDGE ( 'NONE', *, *, #1065, .F. ) ;
#841 = VECTOR ( 'NONE', #60, 1000.000000000000114 ) ;
#842 = EDGE_CURVE ( 'NONE', #15, #85, #828, .T. ) ;
#843 = DIRECTION ( 'NONE',  ( -5.920930226581000351E-30, -1.000000000000000000, 0.000000000000000000 ) ) ;
#844 =( GEOMETRIC_REPRESENTATION_CONTEXT ( 3 ) GLOBAL_UNCERTAINTY_ASSIGNED_CONTEXT ( ( #655 ) ) GLOBAL_UNIT_ASSIGNED_CONTEXT ( ( #135, #1165, #965 ) ) REPRESENTATION_CONTEXT ( 'NONE', 'WORKASPACE' ) );
#845 = AXIS2_PLACEMENT_3D ( 'NONE', #544, #453, #247 ) ;
#846 = LINE ( 'NONE', #652, #51 ) ;
#847 = CARTESIAN_POINT ( 'NONE',  ( 47.05944237924699536, 7.456810967252000211, 2.387111128736999710 ) ) ;
#848 = CARTESIAN_POINT ( 'NONE',  ( 0.000000000000000000, 45.07712698047500055, 36.91669931570899621 ) ) ;
#849 = ORIENTED_EDGE ( 'NONE', *, *, #766, .T. ) ;
#850 = DIRECTION ( 'NONE',  ( -2.931863715153000202E-31, 1.000000000000000000, 0.000000000000000000 ) ) ;
#851 = CARTESIAN_POINT ( 'NONE',  ( 0.000000000000000000, 0.000000000000000000, 0.000000000000000000 ) ) ;
#852 = EDGE_CURVE ( 'NONE', #1167, #883, #112, .T. ) ;
#853 = ORIENTED_EDGE ( 'NONE', *, *, #897, .F. ) ;
#854 = DIRECTION ( 'NONE',  ( 0.000000000000000000, -1.000000000000000000, 0.000000000000000000 ) ) ;
#855 = DIRECTION ( 'NONE',  ( 1.000000000000000000, 0.000000000000000000, 0.000000000000000000 ) ) ;
#856 = VERTEX_POINT ( 'NONE', #926 ) ;
#857 = ORIENTED_EDGE ( 'NONE', *, *, #1143, .F. ) ;
#858 = CARTESIAN_POINT ( 'NONE',  ( 0.000000000000000000, 53.63560127662700694, 4.625851364349999884 ) ) ;
#859 = DIRECTION ( 'NONE',  ( 0.000000000000000000, 0.000000000000000000, -1.000000000000000000 ) ) ;
#860 = ADVANCED_FACE ( 'NONE', ( #716 ), #1307, .F. ) ;
#861 = CARTESIAN_POINT ( 'NONE',  ( 39.03334389673700144, 7.456810967252000211, 2.387111128736999710 ) ) ;
#862 = VERTEX_POINT ( 'NONE', #697 ) ;
#863 = ORIENTED_EDGE ( 'NONE', *, *, #991, .F. ) ;
#864 = UNCERTAINTY_MEASURE_WITH_UNIT (LENGTH_MEASURE( 1.000000000000000082E-05 ), #884, 'distance_accuracy_value', 'NONE');
#865 = DIRECTION ( 'NONE',  ( 0.000000000000000000, 0.000000000000000000, -1.000000000000000000 ) ) ;
#866 = VECTOR ( 'NONE', #163, 1000.000000000000000 ) ;
#867 = VECTOR ( 'NONE', #737, 1000.000000000000000 ) ;
#868 = DIRECTION ( 'NONE',  ( 0.000000000000000000, -0.9929713714120325108, -0.1183547867900039824 ) ) ;
#869 = VECTOR ( 'NONE', #782, 1000.000000000000114 ) ;
#870 = VECTOR ( 'NONE', #515, 1000.000000000000114 ) ;
#871 = CARTESIAN_POINT ( 'NONE',  ( 47.05944237924699536, 11.53879215436800010, 9.938915074162000707 ) ) ;
#872 = EDGE_CURVE ( 'NONE', #1167, #190, #593, .T. ) ;
#873 = ORIENTED_EDGE ( 'NONE', *, *, #1292, .F. ) ;
#874 = CARTESIAN_POINT ( 'NONE',  ( 0.000000000000000000, 0.000000000000000000, 42.67800961100099499 ) ) ;
#875 = LINE ( 'NONE', #352, #1 ) ;
#876 = ORIENTED_EDGE ( 'NONE', *, *, #207, .F. ) ;
#877 = CARTESIAN_POINT ( 'NONE',  ( 43.20407005243799858, 25.38875268437400123, 9.446587747774000121 ) ) ;
#878 = ORIENTED_EDGE ( 'NONE', *, *, #476, .T. ) ;
#879 = EDGE_LOOP ( 'NONE', ( #1298, #126, #83, #1193 ) ) ;
#880 = ADVANCED_FACE ( 'NONE', ( #291 ), #394, .F. ) ;
#881 = FACE_OUTER_BOUND ( 'NONE', #378, .T. ) ;
#882 = DIRECTION ( 'NONE',  ( 0.000000000000000000, -0.4365570585439336182, -0.8996765722388622155 ) ) ;
#883 = VERTEX_POINT ( 'NONE', #1317 ) ;
#884 =( LENGTH_UNIT ( ) NAMED_UNIT ( * ) SI_UNIT ( .MILLI., .METRE. ) );
#885 = PRODUCT_CONTEXT ( 'NONE', #356, 'mechanical' ) ;
#886 = ORIENTED_EDGE ( 'NONE', *, *, #161, .F. ) ;
#887 = DIRECTION ( 'NONE',  ( 1.000000000000000000, 0.000000000000000000, 0.000000000000000000 ) ) ;
#888 = ADVANCED_FACE ( 'NONE', ( #1122 ), #701, .T. ) ;
#889 = FACE_OUTER_BOUND ( 'NONE', #814, .T. ) ;
#890 = COLOUR_RGB ( '',0.7921568627450980005, 0.8196078431372548767, 0.9333333333333333481 ) ;
#891 = AXIS2_PLACEMENT_3D ( 'NONE', #405, #208, #933 ) ;
#892 = LINE ( 'NONE', #1287, #1242 ) ;
#893 = AXIS2_PLACEMENT_3D ( 'NONE', #742, #627, #530 ) ;
#894 = CARTESIAN_POINT ( 'NONE',  ( 47.05944237924699536, 8.456810967252000211, 3.080479700861999959 ) ) ;
#895 = LINE ( 'NONE', #257, #974 ) ;
#896 = DIRECTION ( 'NONE',  ( 0.000000000000000000, -0.8279077890197347189, -0.5608642374768197936 ) ) ;
#897 = EDGE_CURVE ( 'NONE', #1265, #1265, #173, .T. ) ;
#898 = CARTESIAN_POINT ( 'NONE',  ( 43.20407005243799858, 27.37469542719799875, 9.683297321354999099 ) ) ;
#899 = ORIENTED_EDGE ( 'NONE', *, *, #1016, .T. ) ;
#900 = FACE_OUTER_BOUND ( 'NONE', #1188, .T. ) ;
#901 = CARTESIAN_POINT ( 'NONE',  ( 43.56986630347800826, 33.91296809793700362, 8.474699877973000284 ) ) ;
#902 = EDGE_CURVE ( 'NONE', #1301, #403, #104, .T. ) ;
#903 = ORIENTED_EDGE ( 'NONE', *, *, #780, .T. ) ;
#904 = VERTEX_POINT ( 'NONE', #1313 ) ;
#905 = DIRECTION ( 'NONE',  ( 0.000000000000000000, -0.1183547867900039546, 0.9929713714120326218 ) ) ;
#906 = ORIENTED_EDGE ( 'NONE', *, *, #293, .F. ) ;
#907 = CARTESIAN_POINT ( 'NONE',  ( 47.05944237924699536, 81.78335331669501329, 22.15576696078499808 ) ) ;
#908 = SURFACE_STYLE_USAGE ( .BOTH. , #574 ) ;
#909 = AXIS2_PLACEMENT_3D ( 'NONE', #664, #570, #177 ) ;
#910 = VECTOR ( 'NONE', #327, 1000.000000000000000 ) ;
#911 = EDGE_CURVE ( 'NONE', #478, #68, #513, .T. ) ;
#912 = ORIENTED_EDGE ( 'NONE', *, *, #57, .F. ) ;
#913 = VECTOR ( 'NONE', #941, 1000.000000000000000 ) ;
#914 = EDGE_CURVE ( 'NONE', #1161, #357, #421, .T. ) ;
#915 = VERTEX_POINT ( 'NONE', #202 ) ;
#916 = CARTESIAN_POINT ( 'NONE',  ( 0.000000000000000000, 51.63560127662699983, 4.625851364349999884 ) ) ;
#917 = CARTESIAN_POINT ( 'NONE',  ( 47.05944237924699536, 8.456810967252000211, 3.080479700861999959 ) ) ;
#918 = LINE ( 'NONE', #97, #1219 ) ;
#919 = ORIENTED_EDGE ( 'NONE', *, *, #911, .F. ) ;
#920 = ORIENTED_EDGE ( 'NONE', *, *, #425, .T. ) ;
#921 = ADVANCED_FACE ( 'NONE', ( #1026 ), #412, .F. ) ;
#922 = CARTESIAN_POINT ( 'NONE',  ( 47.05944237924699536, 90.15425396094899213, 36.91669931570899621 ) ) ;
#923 = DIRECTION ( 'NONE',  ( 0.000000000000000000, -0.07176878321892617152, 0.9974212960205304235 ) ) ;
#924 = FACE_OUTER_BOUND ( 'NONE', #1275, .T. ) ;
#925 = ORIENTED_EDGE ( 'NONE', *, *, #1143, .T. ) ;
#926 = CARTESIAN_POINT ( 'NONE',  ( 47.05944237924699536, 7.379493488045000049, 11.79916980283899974 ) ) ;
#927 = EDGE_CURVE ( 'NONE', #63, #402, #1256, .T. ) ;
#928 = DIRECTION ( 'NONE',  ( 0.000000000000000000, 0.000000000000000000, 1.000000000000000000 ) ) ;
#929 = CARTESIAN_POINT ( 'NONE',  ( 0.000000000000000000, 90.15425396094899213, 36.91669931570899621 ) ) ;
#930 = CARTESIAN_POINT ( 'NONE',  ( 47.05944237924699536, 8.135632493845999846, 13.35745533633599891 ) ) ;
#931 = VECTOR ( 'NONE', #1201, 1000.000000000000000 ) ;
#932 = ORIENTED_EDGE ( 'NONE', *, *, #276, .F. ) ;
#933 = DIRECTION ( 'NONE',  ( 0.000000000000000000, 1.000000000000000000, 0.000000000000000000 ) ) ;
#934 = CARTESIAN_POINT ( 'NONE',  ( 4.438649524070999774, 9.107077849303999884, 11.92347698177099957 ) ) ;
#935 = LINE ( 'NONE', #632, #54 ) ;
#936 = CARTESIAN_POINT ( 'NONE',  ( 39.03334389673700144, 7.456810967252000211, 3.080479700861999959 ) ) ;
#937 = VERTEX_POINT ( 'NONE', #340 ) ;
#938 = EDGE_LOOP ( 'NONE', ( #233, #840, #1075, #680 ) ) ;
#939 = FACE_OUTER_BOUND ( 'NONE', #152, .T. ) ;
#940 = DIRECTION ( 'NONE',  ( 0.000000000000000000, 0.1183547867900039685, -0.9929713714120326218 ) ) ;
#941 = DIRECTION ( 'NONE',  ( -1.000000000000000000, 0.000000000000000000, 0.000000000000000000 ) ) ;
#942 = FACE_OUTER_BOUND ( 'NONE', #743, .T. ) ;
#943 = ADVANCED_FACE ( 'NONE', ( #939 ), #635, .F. ) ;
#944 = ORIENTED_EDGE ( 'NONE', *, *, #1185, .T. ) ;
#945 = FACE_OUTER_BOUND ( 'NONE', #467, .T. ) ;
#946 = CARTESIAN_POINT ( 'NONE',  ( 47.05944237924699536, 33.91296809793700362, 1.798311459361000120 ) ) ;
#947 = CARTESIAN_POINT ( 'NONE',  ( 47.05944237924699536, 81.78335331669501329, 22.15576696078499808 ) ) ;
#948 = CARTESIAN_POINT ( 'NONE',  ( 47.05944237924699536, 11.53879215436800010, 9.938915074162000707 ) ) ;
#949 = ORIENTED_EDGE ( 'NONE', *, *, #1185, .F. ) ;
#950 = VERTEX_POINT ( 'NONE', #1261 ) ;
#951 = VECTOR ( 'NONE', #896, 1000.000000000000114 ) ;
#952 = VECTOR ( 'NONE', #541, 1000.000000000000000 ) ;
#953 = FACE_OUTER_BOUND ( 'NONE', #961, .T. ) ;
#954 = VECTOR ( 'NONE', #261, 1000.000000000000000 ) ;
#955 = AXIS2_PLACEMENT_3D ( 'NONE', #861, #1060, #343 ) ;
#956 = AXIS2_PLACEMENT_3D ( 'NONE', #471, #988, #590 ) ;
#957 = LINE ( 'NONE', #976, #414 ) ;
#958 = ORIENTED_EDGE ( 'NONE', *, *, #462, .T. ) ;
#959 = LINE ( 'NONE', #446, #370 ) ;
#960 = ORIENTED_EDGE ( 'NONE', *, *, #81, .T. ) ;
#961 = EDGE_LOOP ( 'NONE', ( #1015, #93, #489, #1248 ) ) ;
#962 = PLANE ( 'NONE',  #792 ) ;
#963 = CARTESIAN_POINT ( 'NONE',  ( 39.03334389673700144, 7.456810967252000211, 1.693742556611999905 ) ) ;
#964 = DIRECTION ( 'NONE',  ( 0.000000000000000000, 1.000000000000000000, 0.000000000000000000 ) ) ;
#965 =( NAMED_UNIT ( * ) SI_UNIT ( $, .STERADIAN. ) SOLID_ANGLE_UNIT ( ) );
#966 = ORIENTED_EDGE ( 'NONE', *, *, #582, .F. ) ;
#967 = FACE_OUTER_BOUND ( 'NONE', #16, .T. ) ;
#968 = CARTESIAN_POINT ( 'NONE',  ( 43.20407005243799858, 25.38875268437400123, 9.446587747774000121 ) ) ;
#969 = EDGE_CURVE ( 'NONE', #883, #1173, #1146, .T. ) ;
#970 = CYLINDRICAL_SURFACE ( 'NONE', #818, 1.807207457857000543 ) ;
#971 = ORIENTED_EDGE ( 'NONE', *, *, #1005, .T. ) ;
#972 = ORIENTED_EDGE ( 'NONE', *, *, #631, .T. ) ;
#973 = FACE_OUTER_BOUND ( 'NONE', #1010, .T. ) ;
#974 = VECTOR ( 'NONE', #986, 1000.000000000000000 ) ;
#975 = VECTOR ( 'NONE', #424, 1000.000000000000000 ) ;
#976 = CARTESIAN_POINT ( 'NONE',  ( 47.05944237924699536, 12.89719501634199972, 3.021688535520999697 ) ) ;
#977 = EDGE_LOOP ( 'NONE', ( #1213, #604, #1025, #363 ) ) ;
#978 = CARTESIAN_POINT ( 'NONE',  ( 0.000000000000000000, 0.000000000000000000, 0.000000000000000000 ) ) ;
#979 = SHAPE_DEFINITION_REPRESENTATION ( #547, #132 ) ;
#980 = ORIENTED_EDGE ( 'NONE', *, *, #640, .F. ) ;
#981 = LINE ( 'NONE', #898, #954 ) ;
#982 = LINE ( 'NONE', #361, #540 ) ;
#983 = PLANE ( 'NONE',  #296 ) ;
#984 = ADVANCED_FACE ( 'NONE', ( #1141 ), #1071, .F. ) ;
#985 = PLANE ( 'NONE',  #52 ) ;
#986 = DIRECTION ( 'NONE',  ( -1.000000000000000000, 0.000000000000000000, 0.000000000000000000 ) ) ;
#987 = VERTEX_POINT ( 'NONE', #351 ) ;
#988 = DIRECTION ( 'NONE',  ( 1.000000000000000000, 0.000000000000000000, 0.000000000000000000 ) ) ;
#989 = PRODUCT_DEFINITION ( 'ๆ', '', #1303, #17 ) ;
#990 = CARTESIAN_POINT ( 'NONE',  ( 47.05944237924699536, 25.38875268437400123, 9.446587747774000121 ) ) ;
#991 = EDGE_CURVE ( 'NONE', #68, #660, #278, .T. ) ;
#992 = LINE ( 'NONE', #1100, #728 ) ;
#993 = VECTOR ( 'NONE', #923, 1000.000000000000114 ) ;
#994 = VECTOR ( 'NONE', #1204, 1000.000000000000000 ) ;
#995 = AXIS2_PLACEMENT_3D ( 'NONE', #227, #211, #586 ) ;
#996 = VECTOR ( 'NONE', #37, 1000.000000000000000 ) ;
#997 = CARTESIAN_POINT ( 'NONE',  ( 47.05944237924699536, 27.95478837541199724, 4.816441438671000164 ) ) ;
#998 = DIRECTION ( 'NONE',  ( -1.000000000000000000, 0.000000000000000000, 0.000000000000000000 ) ) ;
#999 = ORIENTED_EDGE ( 'NONE', *, *, #286, .T. ) ;
#1000 = DIRECTION ( 'NONE',  ( -1.000000000000000000, 0.000000000000000000, 0.000000000000000000 ) ) ;
#1001 = EDGE_LOOP ( 'NONE', ( #873 ) ) ;
#1002 = CARTESIAN_POINT ( 'NONE',  ( 39.03334389673700144, 8.456810967252000211, 2.387111128736999710 ) ) ;
#1003 = ORIENTED_EDGE ( 'NONE', *, *, #1169, .F. ) ;
#1004 = ORIENTED_EDGE ( 'NONE', *, *, #151, .F. ) ;
#1005 = EDGE_CURVE ( 'NONE', #442, #1018, #123, .T. ) ;
#1006 = CARTESIAN_POINT ( 'NONE',  ( 0.000000000000000000, 53.63560127662700694, 2.437851286398000195 ) ) ;
#1007 = ADVANCED_FACE ( 'NONE', ( #953 ), #962, .F. ) ;
#1008 = ORIENTED_EDGE ( 'NONE', *, *, #1286, .F. ) ;
#1009 = CARTESIAN_POINT ( 'NONE',  ( 43.20407005243799858, 27.95478837541199724, 4.816441438671000164 ) ) ;
#1010 = EDGE_LOOP ( 'NONE', ( #117, #339, #153, #837 ) ) ;
#1011 = CARTESIAN_POINT ( 'NONE',  ( 47.05944237924699536, 7.456810967252000211, 1.693742556611999905 ) ) ;
#1012 = FACE_BOUND ( 'NONE', #938, .T. ) ;
#1013 = VECTOR ( 'NONE', #504, 1000.000000000000000 ) ;
#1014 = AXIS2_PLACEMENT_3D ( 'NONE', #131, #549, #758 ) ;
#1015 = ORIENTED_EDGE ( 'NONE', *, *, #139, .T. ) ;
#1016 = EDGE_CURVE ( 'NONE', #1220, #1062, #553, .T. ) ;
#1017 =( GEOMETRIC_REPRESENTATION_CONTEXT ( 3 ) GLOBAL_UNCERTAINTY_ASSIGNED_CONTEXT ( ( #864 ) ) GLOBAL_UNIT_ASSIGNED_CONTEXT ( ( #884, #585, #76 ) ) REPRESENTATION_CONTEXT ( 'NONE', 'WORKASPACE' ) );
#1018 = VERTEX_POINT ( 'NONE', #18 ) ;
#1019 = DIRECTION ( 'NONE',  ( 0.000000000000000000, 0.000000000000000000, -1.000000000000000000 ) ) ;
#1020 = FACE_OUTER_BOUND ( 'NONE', #527, .T. ) ;
#1021 = EDGE_LOOP ( 'NONE', ( #1211, #609, #661, #5 ) ) ;
#1022 = LINE ( 'NONE', #1041, #1058 ) ;
#1023 = ORIENTED_EDGE ( 'NONE', *, *, #507, .F. ) ;
#1024 = EDGE_CURVE ( 'NONE', #1184, #904, #25, .T. ) ;
#1025 = ORIENTED_EDGE ( 'NONE', *, *, #148, .F. ) ;
#1026 = FACE_OUTER_BOUND ( 'NONE', #977, .T. ) ;
#1027 = LINE ( 'NONE', #717, #194 ) ;
#1028 = DIRECTION ( 'NONE',  ( -1.000000000000000000, 0.000000000000000000, 0.000000000000000000 ) ) ;
#1029 = CARTESIAN_POINT ( 'NONE',  ( 47.05944237924699536, 81.78335331669501329, 22.15576696078499808 ) ) ;
#1030 = ADVANCED_FACE ( 'NONE', ( #252, #967 ), #235, .T. ) ;
#1031 = DIRECTION ( 'NONE',  ( -1.000000000000000000, 0.000000000000000000, 0.000000000000000000 ) ) ;
#1032 = CARTESIAN_POINT ( 'NONE',  ( 47.05944237924699536, 30.91443108373099946, 8.474699877973000284 ) ) ;
#1033 = DIRECTION ( 'NONE',  ( 0.000000000000000000, 0.000000000000000000, 1.000000000000000000 ) ) ;
#1034 = AXIS2_PLACEMENT_3D ( 'NONE', #907, #1285, #376 ) ;
#1035 = ORIENTED_EDGE ( 'NONE', *, *, #564, .F. ) ;
#1036 = VECTOR ( 'NONE', #1050, 1000.000000000000000 ) ;
#1037 = ORIENTED_EDGE ( 'NONE', *, *, #1127, .T. ) ;
#1038 = CARTESIAN_POINT ( 'NONE',  ( 47.05944237924699536, 53.63560127662700694, 2.312925682174999942 ) ) ;
#1039 = CARTESIAN_POINT ( 'NONE',  ( 47.05944237924699536, 7.456810967252000211, 1.693742556611999905 ) ) ;
#1040 = EDGE_CURVE ( 'NONE', #1206, #709, #729, .T. ) ;
#1041 = CARTESIAN_POINT ( 'NONE',  ( 47.05944237924699536, 8.279170060284000598, 11.36261274429499935 ) ) ;
#1042 = CARTESIAN_POINT ( 'NONE',  ( 47.05944237924699536, 33.91296809793700362, 8.474699877973000284 ) ) ;
#1043 = VERTEX_POINT ( 'NONE', #223 ) ;
#1044 = DIRECTION ( 'NONE',  ( 0.000000000000000000, 0.1183547867900039546, -0.9929713714120326218 ) ) ;
#1045 = CARTESIAN_POINT ( 'NONE',  ( 43.56986630347800826, 30.91443108373099946, 8.474699877973000284 ) ) ;
#1046 = CARTESIAN_POINT ( 'NONE',  ( 0.000000000000000000, 51.63560127662699983, 2.437851286398000195 ) ) ;
#1047 = CARTESIAN_POINT ( 'NONE',  ( 47.05944237924699536, 7.456810967252000211, 1.693742556611999905 ) ) ;
#1048 = ORIENTED_EDGE ( 'NONE', *, *, #1190, .F. ) ;
#1049 = EDGE_CURVE ( 'NONE', #1043, #212, #1057, .T. ) ;
#1050 = DIRECTION ( 'NONE',  ( 0.000000000000000000, 0.000000000000000000, 1.000000000000000000 ) ) ;
#1051 = DIRECTION ( 'NONE',  ( 0.000000000000000000, -0.1183547867900039685, 0.9929713714120326218 ) ) ;
#1052 = VERTEX_POINT ( 'NONE', #45 ) ;
#1053 = DIRECTION ( 'NONE',  ( 0.000000000000000000, 0.07176878321893619128, -0.9974212960205297573 ) ) ;
#1054 = EDGE_LOOP ( 'NONE', ( #561, #700, #38, #674 ) ) ;
#1055 = ORIENTED_EDGE ( 'NONE', *, *, #105, .T. ) ;
#1056 = VECTOR ( 'NONE', #158, 1000.000000000000000 ) ;
#1057 = LINE ( 'NONE', #1064, #1197 ) ;
#1058 = VECTOR ( 'NONE', #1028, 1000.000000000000000 ) ;
#1059 = DIRECTION ( 'NONE',  ( -1.000000000000000000, 0.000000000000000000, 0.000000000000000000 ) ) ;
#1060 = DIRECTION ( 'NONE',  ( 1.000000000000000000, 0.000000000000000000, 0.000000000000000000 ) ) ;
#1061 = ORIENTED_EDGE ( 'NONE', *, *, #1228, .T. ) ;
#1062 = VERTEX_POINT ( 'NONE', #35 ) ;
#1063 = EDGE_CURVE ( 'NONE', #506, #58, #1156, .T. ) ;
#1064 = CARTESIAN_POINT ( 'NONE',  ( 0.000000000000000000, 77.13580630710599451, 14.60908165969599892 ) ) ;
#1065 = EDGE_CURVE ( 'NONE', #1196, #1184, #457, .T. ) ;
#1066 = DIRECTION ( 'NONE',  ( 0.000000000000000000, -1.000000000000000000, 0.000000000000000000 ) ) ;
#1067 = EDGE_LOOP ( 'NONE', ( #980, #878, #1288, #1202, #50 ) ) ;
#1068 = CARTESIAN_POINT ( 'NONE',  ( 47.05944237924699536, 90.15425396094899213, 36.91669931570899621 ) ) ;
#1069 = ORIENTED_EDGE ( 'NONE', *, *, #564, .T. ) ;
#1070 = EDGE_LOOP ( 'NONE', ( #146, #371, #426, #383, #906, #696 ) ) ;
#1071 = PLANE ( 'NONE',  #1014 ) ;
#1072 = CARTESIAN_POINT ( 'NONE',  ( 0.000000000000000000, 40.89167665834700216, 22.15576696078499808 ) ) ;
#1073 = ADVANCED_FACE ( 'NONE', ( #945 ), #738, .T. ) ;
#1074 = DIRECTION ( 'NONE',  ( 0.000000000000000000, 0.1183547867900039546, -0.9929713714120325108 ) ) ;
#1075 = ORIENTED_EDGE ( 'NONE', *, *, #476, .F. ) ;
#1076 = VERTEX_POINT ( 'NONE', #375 ) ;
#1077 = CARTESIAN_POINT ( 'NONE',  ( 0.000000000000000000, 90.15425396094899213, 11.07788348039199988 ) ) ;
#1078 = AXIS2_PLACEMENT_3D ( 'NONE', #583, #488, #1170 ) ;
#1079 = AXIS2_PLACEMENT_3D ( 'NONE', #539, #865, #428 ) ;
#1080 = DIRECTION ( 'NONE',  ( 1.000000000000000000, 0.000000000000000000, 0.000000000000000000 ) ) ;
#1081 = VECTOR ( 'NONE', #551, 1000.000000000000000 ) ;
#1082 = EDGE_CURVE ( 'NONE', #558, #357, #366, .T. ) ;
#1083 = DIRECTION ( 'NONE',  ( 0.000000000000000000, 0.8279077890197347189, 0.5608642374768197936 ) ) ;
#1084 = ORIENTED_EDGE ( 'NONE', *, *, #130, .T. ) ;
#1085 = FACE_OUTER_BOUND ( 'NONE', #706, .T. ) ;
#1086 = CARTESIAN_POINT ( 'NONE',  ( 47.05944237924699536, 90.15425396094899213, 22.15576696078499808 ) ) ;
#1087 = ORIENTED_EDGE ( 'NONE', *, *, #667, .T. ) ;
#1088 = DIRECTION ( 'NONE',  ( 0.000000000000000000, -0.9974212960205298684, -0.07176878321893620516 ) ) ;
#1089 = PLANE ( 'NONE',  #393 ) ;
#1090 = LINE ( 'NONE', #779, #1283 ) ;
#1091 = DIRECTION ( 'NONE',  ( 0.000000000000000000, 0.07176878321893619128, -0.9974212960205297573 ) ) ;
#1092 = EDGE_CURVE ( 'NONE', #660, #862, #487, .T. ) ;
#1093 = DIRECTION ( 'NONE',  ( -1.000000000000000000, 0.000000000000000000, 0.000000000000000000 ) ) ;
#1094 = CARTESIAN_POINT ( 'NONE',  ( 46.67446081136900204, 27.95478837541199724, 4.816441438671000164 ) ) ;
#1095 = AXIS2_PLACEMENT_3D ( 'NONE', #820, #505, #209 ) ;
#1096 = FILL_AREA_STYLE ('',( #377 ) ) ;
#1097 = VECTOR ( 'NONE', #1181, 1000.000000000000000 ) ;
#1098 = FACE_OUTER_BOUND ( 'NONE', #798, .T. ) ;
#1099 = ADVANCED_FACE ( 'NONE', ( #1098 ), #1289, .F. ) ;
#1100 = CARTESIAN_POINT ( 'NONE',  ( 47.05944237924699536, 90.15425396094899213, 22.15576696078499808 ) ) ;
#1101 = CARTESIAN_POINT ( 'NONE',  ( 0.000000000000000000, 0.000000000000000000, 0.000000000000000000 ) ) ;
#1102 = ORIENTED_EDGE ( 'NONE', *, *, #1292, .T. ) ;
#1103 = PLANE ( 'NONE',  #893 ) ;
#1104 = VERTEX_POINT ( 'NONE', #1269 ) ;
#1105 = LINE ( 'NONE', #89, #459 ) ;
#1106 = FACE_OUTER_BOUND ( 'NONE', #98, .T. ) ;
#1107 = ADVANCED_FACE ( 'NONE', ( #156 ), #1089, .T. ) ;
#1108 = EDGE_LOOP ( 'NONE', ( #760 ) ) ;
#1109 = CARTESIAN_POINT ( 'NONE',  ( 33.51186361855799589, 11.53879215436800010, 9.938915074162000707 ) ) ;
#1110 = FACE_BOUND ( 'NONE', #1281, .T. ) ;
#1111 = VECTOR ( 'NONE', #928, 1000.000000000000000 ) ;
#1112 = ADVANCED_FACE ( 'NONE', ( #1085 ), #77, .T. ) ;
#1113 = DIRECTION ( 'NONE',  ( 0.000000000000000000, 0.5608642374768197936, -0.8279077890197347189 ) ) ;
#1114 = VECTOR ( 'NONE', #1116, 1000.000000000000000 ) ;
#1115 = EDGE_LOOP ( 'NONE', ( #410, #589, #651, #1048 ) ) ;
#1116 = DIRECTION ( 'NONE',  ( 0.000000000000000000, 0.000000000000000000, 1.000000000000000000 ) ) ;
#1117 = LINE ( 'NONE', #804, #648 ) ;
#1118 = CARTESIAN_POINT ( 'NONE',  ( 47.05944237924699536, 53.63560127662700694, 4.625851364349999884 ) ) ;
#1119 = ORIENTED_EDGE ( 'NONE', *, *, #825, .T. ) ;
#1120 = EDGE_CURVE ( 'NONE', #641, #284, #981, .T. ) ;
#1121 = ORIENTED_EDGE ( 'NONE', *, *, #1082, .T. ) ;
#1122 = FACE_OUTER_BOUND ( 'NONE', #1108, .T. ) ;
#1123 = FACE_BOUND ( 'NONE', #336, .T. ) ;
#1124 = CARTESIAN_POINT ( 'NONE',  ( 47.05944237924699536, 81.78335331669501329, 36.91669931570899621 ) ) ;
#1125 = CARTESIAN_POINT ( 'NONE',  ( 47.05944237924699536, 0.000000000000000000, 0.000000000000000000 ) ) ;
#1126 = ORIENTED_EDGE ( 'NONE', *, *, #499, .T. ) ;
#1127 = EDGE_CURVE ( 'NONE', #512, #397, #381, .T. ) ;
#1128 = DIRECTION ( 'NONE',  ( 0.000000000000000000, 0.000000000000000000, 1.000000000000000000 ) ) ;
#1129 = VERTEX_POINT ( 'NONE', #277 ) ;
#1130 = CARTESIAN_POINT ( 'NONE',  ( 4.438649524070999774, 7.307724704825999673, 12.79659109885900037 ) ) ;
#1131 = DIRECTION ( 'NONE',  ( 1.000000000000000000, 0.000000000000000000, 0.000000000000000000 ) ) ;
#1132 = PLANE ( 'NONE',  #775 ) ;
#1133 = AXIS2_PLACEMENT_3D ( 'NONE', #1279, #382, #588 ) ;
#1134 = VECTOR ( 'NONE', #1174, 1000.000000000000000 ) ;
#1135 = CARTESIAN_POINT ( 'NONE',  ( 47.05944237924699536, 94.69956254843600618, 0.000000000000000000 ) ) ;
#1136 = EDGE_CURVE ( 'NONE', #1255, #826, #575, .T. ) ;
#1137 = CARTESIAN_POINT ( 'NONE',  ( 47.05944237924699536, 33.91296809793700362, 8.474699877973000284 ) ) ;
#1138 = ORIENTED_EDGE ( 'NONE', *, *, #367, .F. ) ;
#1139 = LINE ( 'NONE', #304, #1262 ) ;
#1140 = VERTEX_POINT ( 'NONE', #88 ) ;
#1141 = FACE_OUTER_BOUND ( 'NONE', #662, .T. ) ;
#1142 = DIRECTION ( 'NONE',  ( 0.000000000000000000, 1.000000000000000000, 0.000000000000000000 ) ) ;
#1143 = EDGE_CURVE ( 'NONE', #68, #1291, #581, .T. ) ;
#1144 = CARTESIAN_POINT ( 'NONE',  ( 4.438649524070999774, 8.279170060284000598, 11.36261274429499935 ) ) ;
#1145 = ORIENTED_EDGE ( 'NONE', *, *, #358, .F. ) ;
#1146 = LINE ( 'NONE', #858, #461 ) ;
#1147 = LINE ( 'NONE', #445, #751 ) ;
#1148 = PLANE ( 'NONE',  #845 ) ;
#1149 = ORIENTED_EDGE ( 'NONE', *, *, #625, .F. ) ;
#1150 = ORIENTED_EDGE ( 'NONE', *, *, #822, .T. ) ;
#1151 = ADVANCED_FACE ( 'NONE', ( #973 ), #475, .F. ) ;
#1152 = ORIENTED_EDGE ( 'NONE', *, *, #764, .F. ) ;
#1153 = MECHANICAL_DESIGN_GEOMETRIC_PRESENTATION_REPRESENTATION (  '', ( #479 ), #1017 ) ;
#1154 = EDGE_CURVE ( 'NONE', #386, #641, #469, .T. ) ;
#1155 = AXIS2_PLACEMENT_3D ( 'NONE', #525, #801, #313 ) ;
#1156 = LINE ( 'NONE', #138, #910 ) ;
#1157 = VECTOR ( 'NONE', #1226, 1000.000000000000000 ) ;
#1158 = DIRECTION ( 'NONE',  ( -1.000000000000000000, 0.000000000000000000, 0.000000000000000000 ) ) ;
#1159 = PLANE ( 'NONE',  #349 ) ;
#1160 = ORIENTED_EDGE ( 'NONE', *, *, #1299, .F. ) ;
#1161 = VERTEX_POINT ( 'NONE', #670 ) ;
#1162 = DIRECTION ( 'NONE',  ( 0.000000000000000000, -1.000000000000000000, 0.000000000000000000 ) ) ;
#1163 = CARTESIAN_POINT ( 'NONE',  ( 0.000000000000000000, 94.69956254843600618, 0.000000000000000000 ) ) ;
#1164 = CARTESIAN_POINT ( 'NONE',  ( 0.000000000000000000, 94.69956254843600618, 0.000000000000000000 ) ) ;
#1165 =( NAMED_UNIT ( * ) PLANE_ANGLE_UNIT ( ) SI_UNIT ( $, .RADIAN. ) );
#1166 = ORIENTED_EDGE ( 'NONE', *, *, #812, .T. ) ;
#1167 = VERTEX_POINT ( 'NONE', #663 ) ;
#1168 = CARTESIAN_POINT ( 'NONE',  ( 0.000000000000000000, 51.63560127662699983, 4.625851364349999884 ) ) ;
#1169 = EDGE_CURVE ( 'NONE', #248, #85, #270, .T. ) ;
#1170 = DIRECTION ( 'NONE',  ( 0.000000000000000000, 0.000000000000000000, 1.000000000000000000 ) ) ;
#1171 = CARTESIAN_POINT ( 'NONE',  ( 47.05944237924699536, 9.035309066085000396, 12.92089827779200029 ) ) ;
#1172 = EDGE_LOOP ( 'NONE', ( #75, #746, #920, #1254 ) ) ;
#1173 = VERTEX_POINT ( 'NONE', #568 ) ;
#1174 = DIRECTION ( 'NONE',  ( 4.813671106100999932E-16, 0.000000000000000000, -1.000000000000000000 ) ) ;
#1175 = AXIS2_PLACEMENT_3D ( 'NONE', #1011, #607, #399 ) ;
#1176 = AXIS2_PLACEMENT_3D ( 'NONE', #511, #430, #115 ) ;
#1177 = DIRECTION ( 'NONE',  ( 0.000000000000000000, -0.8996765722388622155, 0.4365570585439336182 ) ) ;
#1178 = ORIENTED_EDGE ( 'NONE', *, *, #731, .F. ) ;
#1179 = AXIS2_PLACEMENT_3D ( 'NONE', #847, #331, #56 ) ;
#1180 = ORIENTED_EDGE ( 'NONE', *, *, #1065, .T. ) ;
#1181 = DIRECTION ( 'NONE',  ( 0.000000000000000000, 1.000000000000000000, 0.000000000000000000 ) ) ;
#1182 = LINE ( 'NONE', #783, #563 ) ;
#1183 = CYLINDRICAL_SURFACE ( 'NONE', #956, 2.021336095935998944 ) ;
#1184 = VERTEX_POINT ( 'NONE', #572 ) ;
#1185 = EDGE_CURVE ( 'NONE', #862, #1223, #786, .T. ) ;
#1186 = DIRECTION ( 'NONE',  ( -1.000000000000000000, 0.000000000000000000, 0.000000000000000000 ) ) ;
#1187 = FACE_OUTER_BOUND ( 'NONE', #241, .T. ) ;
#1188 = EDGE_LOOP ( 'NONE', ( #508 ) ) ;
#1189 = CYLINDRICAL_SURFACE ( 'NONE', #600, 0.6933685721249999157 ) ;
#1190 = EDGE_CURVE ( 'NONE', #502, #915, #1191, .T. ) ;
#1191 = LINE ( 'NONE', #683, #243 ) ;
#1192 = ADVANCED_FACE ( 'NONE', ( #881 ), #985, .F. ) ;
#1193 = ORIENTED_EDGE ( 'NONE', *, *, #130, .F. ) ;
#1194 = PLANE ( 'NONE',  #391 ) ;
#1195 = CIRCLE ( 'NONE', #790, 0.3849815678780006967 ) ;
#1196 = VERTEX_POINT ( 'NONE', #990 ) ;
#1197 = VECTOR ( 'NONE', #450, 1000.000000000000000 ) ;
#1198 = FACE_OUTER_BOUND ( 'NONE', #259, .T. ) ;
#1199 = CIRCLE ( 'NONE', #1176, 3.788154569979000019 ) ;
#1200 = ORIENTED_EDGE ( 'NONE', *, *, #803, .T. ) ;
#1201 = DIRECTION ( 'NONE',  ( 0.000000000000000000, 1.000000000000000000, 0.000000000000000000 ) ) ;
#1202 = ORIENTED_EDGE ( 'NONE', *, *, #1120, .F. ) ;
#1203 = EDGE_CURVE ( 'NONE', #720, #709, #69, .T. ) ;
#1204 = DIRECTION ( 'NONE',  ( 0.000000000000000000, 1.000000000000000000, 0.000000000000000000 ) ) ;
#1205 = DIRECTION ( 'NONE',  ( 0.000000000000000000, 0.000000000000000000, 1.000000000000000000 ) ) ;
#1206 = VERTEX_POINT ( 'NONE', #1247 ) ;
#1207 = DIRECTION ( 'NONE',  ( 1.000000000000000000, 0.000000000000000000, 0.000000000000000000 ) ) ;
#1208 = EDGE_CURVE ( 'NONE', #1173, #1062, #116, .T. ) ;
#1209 = CARTESIAN_POINT ( 'NONE',  ( 47.05944237924699536, 9.107077849303999884, 11.92347698177099957 ) ) ;
#1210 = DIRECTION ( 'NONE',  ( 0.000000000000000000, 0.000000000000000000, -1.000000000000000000 ) ) ;
#1211 = ORIENTED_EDGE ( 'NONE', *, *, #225, .F. ) ;
#1212 = ORIENTED_EDGE ( 'NONE', *, *, #721, .T. ) ;
#1213 = ORIENTED_EDGE ( 'NONE', *, *, #872, .T. ) ;
#1214 = CARTESIAN_POINT ( 'NONE',  ( 0.000000000000000000, 94.69956254843600618, 0.000000000000000000 ) ) ;
#1215 = VECTOR ( 'NONE', #1297, 1000.000000000000000 ) ;
#1216 = FACE_BOUND ( 'NONE', #333, .T. ) ;
#1217 = ADVANCED_FACE ( 'NONE', ( #431 ), #1132, .F. ) ;
#1218 = CARTESIAN_POINT ( 'NONE',  ( 47.05944237924699536, 90.15425396094899213, 36.91669931570899621 ) ) ;
#1219 = VECTOR ( 'NONE', #324, 1000.000000000000000 ) ;
#1220 = VERTEX_POINT ( 'NONE', #285 ) ;
#1221 = AXIS2_PLACEMENT_3D ( 'NONE', #407, #940, #510 ) ;
#1222 = DIRECTION ( 'NONE',  ( 0.000000000000000000, -1.000000000000000000, 0.000000000000000000 ) ) ;
#1223 = VERTEX_POINT ( 'NONE', #936 ) ;
#1224 = FACE_OUTER_BOUND ( 'NONE', #1054, .T. ) ;
#1225 = VERTEX_POINT ( 'NONE', #1042 ) ;
#1226 = DIRECTION ( 'NONE',  ( -1.000000000000000000, 0.000000000000000000, 0.000000000000000000 ) ) ;
#1227 = DIRECTION ( 'NONE',  ( 0.000000000000000000, 0.000000000000000000, 1.000000000000000000 ) ) ;
#1228 = EDGE_CURVE ( 'NONE', #442, #1076, #121, .T. ) ;
#1229 = EDGE_LOOP ( 'NONE', ( #624, #796, #1166, #308 ) ) ;
#1230 = CARTESIAN_POINT ( 'NONE',  ( 0.000000000000000000, 77.13580630710599451, 42.67800961100099499 ) ) ;
#1231 = FACE_OUTER_BOUND ( 'NONE', #1070, .T. ) ;
#1232 = EDGE_LOOP ( 'NONE', ( #249 ) ) ;
#1233 = PLANE ( 'NONE',  #543 ) ;
#1234 = VERTEX_POINT ( 'NONE', #185 ) ;
#1235 = ADVANCED_FACE ( 'NONE', ( #535 ), #1103, .F. ) ;
#1236 = CARTESIAN_POINT ( 'NONE',  ( 33.51186361855799589, 11.53879215436800010, 9.938915074162000707 ) ) ;
#1237 = DIRECTION ( 'NONE',  ( 1.000000000000000000, 0.000000000000000000, 0.000000000000000000 ) ) ;
#1238 = LINE ( 'NONE', #210, #33 ) ;
#1239 = PLANE ( 'NONE',  #668 ) ;
#1240 = VECTOR ( 'NONE', #1019, 1000.000000000000000 ) ;
#1241 = VECTOR ( 'NONE', #326, 1000.000000000000000 ) ;
#1242 = VECTOR ( 'NONE', #781, 1000.000000000000000 ) ;
#1243 = CARTESIAN_POINT ( 'NONE',  ( 47.05944237924699536, 9.107077849303999884, 11.92347698177099957 ) ) ;
#1244 = ADVANCED_FACE ( 'NONE', ( #839 ), #179, .T. ) ;
#1245 = DIRECTION ( 'NONE',  ( -1.000000000000000000, 0.000000000000000000, 0.000000000000000000 ) ) ;
#1246 = CARTESIAN_POINT ( 'NONE',  ( 47.05944237924699536, 77.13580630710599451, 14.60908165969599892 ) ) ;
#1247 = CARTESIAN_POINT ( 'NONE',  ( 47.05944237924699536, 94.69956254843600618, 0.000000000000000000 ) ) ;
#1248 = ORIENTED_EDGE ( 'NONE', *, *, #1136, .T. ) ;
#1249 = DIRECTION ( 'NONE',  ( 0.000000000000000000, 1.000000000000000000, 0.000000000000000000 ) ) ;
#1250 = CARTESIAN_POINT ( 'NONE',  ( 47.05944237924699536, 0.000000000000000000, 14.60908165969599892 ) ) ;
#1251 = ADVANCED_FACE ( 'NONE', ( #1300 ), #1239, .F. ) ;
#1252 = ORIENTED_EDGE ( 'NONE', *, *, #834, .F. ) ;
#1253 = DIRECTION ( 'NONE',  ( 0.000000000000000000, 0.000000000000000000, 1.000000000000000000 ) ) ;
#1254 = ORIENTED_EDGE ( 'NONE', *, *, #1040, .F. ) ;
#1255 = VERTEX_POINT ( 'NONE', #719 ) ;
#1256 = LINE ( 'NONE', #650, #321 ) ;
#1257 = PLANE ( 'NONE',  #688 ) ;
#1258 = LINE ( 'NONE', #1068, #280 ) ;
#1259 = EDGE_LOOP ( 'NONE', ( #1119, #1061, #791, #44 ) ) ;
#1260 = CIRCLE ( 'NONE', #1179, 0.6933685721249999157 ) ;
#1261 = CARTESIAN_POINT ( 'NONE',  ( 39.03334389673700144, 8.456810967252000211, 3.080479700861999959 ) ) ;
#1262 = VECTOR ( 'NONE', #805, 1000.000000000000000 ) ;
#1263 = FACE_OUTER_BOUND ( 'NONE', #234, .T. ) ;
#1264 = FACE_OUTER_BOUND ( 'NONE', #1172, .T. ) ;
#1265 = VERTEX_POINT ( 'NONE', #240 ) ;
#1266 = EDGE_LOOP ( 'NONE', ( #136 ) ) ;
#1267 = EDGE_CURVE ( 'NONE', #1129, #1206, #418, .T. ) ;
#1268 = ORIENTED_EDGE ( 'NONE', *, *, #1190, .T. ) ;
#1269 = CARTESIAN_POINT ( 'NONE',  ( 0.000000000000000000, 51.63560127662699983, 2.437851286398000195 ) ) ;
#1270 = CARTESIAN_POINT ( 'NONE',  ( 47.05944237924699536, 9.035309066085000396, 12.92089827779200029 ) ) ;
#1271 = EDGE_LOOP ( 'NONE', ( #524, #213, #789, #538 ) ) ;
#1272 = CARTESIAN_POINT ( 'NONE',  ( 4.438649524070999774, 7.307724704825999673, 12.79659109885900037 ) ) ;
#1273 = ORIENTED_EDGE ( 'NONE', *, *, #605, .F. ) ;
#1274 = ORIENTED_EDGE ( 'NONE', *, *, #682, .T. ) ;
#1275 = EDGE_LOOP ( 'NONE', ( #971, #596, #628, #672 ) ) ;
#1276 = FACE_BOUND ( 'NONE', #807, .T. ) ;
#1277 = CARTESIAN_POINT ( 'NONE',  ( 47.05944237924699536, 27.37469542719799875, 9.683297321354999099 ) ) ;
#1278 = EDGE_CURVE ( 'NONE', #478, #599, #441, .T. ) ;
#1279 = CARTESIAN_POINT ( 'NONE',  ( 47.05944237924699536, 30.91443108373099946, 1.798311459361000120 ) ) ;
#1280 = CARTESIAN_POINT ( 'NONE',  ( 46.67446081136900204, 27.37469542719799875, 9.683297321354999099 ) ) ;
#1281 = EDGE_LOOP ( 'NONE', ( #1311, #10, #735, #749 ) ) ;
#1282 = DIRECTION ( 'NONE',  ( 0.000000000000000000, -1.000000000000000000, 0.000000000000000000 ) ) ;
#1283 = VECTOR ( 'NONE', #167, 1000.000000000000000 ) ;
#1284 = VECTOR ( 'NONE', #695, 1000.000000000000000 ) ;
#1285 = DIRECTION ( 'NONE',  ( 0.000000000000000000, 0.000000000000000000, -1.000000000000000000 ) ) ;
#1286 = EDGE_CURVE ( 'NONE', #599, #1291, #824, .T. ) ;
#1287 = CARTESIAN_POINT ( 'NONE',  ( 47.05944237924699536, 30.91443108373099946, 1.798311459361000120 ) ) ;
#1288 = ORIENTED_EDGE ( 'NONE', *, *, #14, .T. ) ;
#1289 = PLANE ( 'NONE',  #621 ) ;
#1290 = DIRECTION ( 'NONE',  ( 0.000000000000000000, 1.000000000000000000, 0.000000000000000000 ) ) ;
#1291 = VERTEX_POINT ( 'NONE', #13 ) ;
#1292 = EDGE_CURVE ( 'NONE', #566, #566, #437, .T. ) ;
#1293 = CARTESIAN_POINT ( 'NONE',  ( 0.000000000000000000, 53.63560127662700694, 4.625851364349999884 ) ) ;
#1294 = ADVANCED_FACE ( 'NONE', ( #942 ), #82, .F. ) ;
#1295 = DIRECTION ( 'NONE',  ( 1.000000000000000000, 0.000000000000000000, 0.000000000000000000 ) ) ;
#1296 = PLANE ( 'NONE',  #107 ) ;
#1297 = DIRECTION ( 'NONE',  ( 0.000000000000000000, -1.000000000000000000, 0.000000000000000000 ) ) ;
#1298 = ORIENTED_EDGE ( 'NONE', *, *, #927, .T. ) ;
#1299 = EDGE_CURVE ( 'NONE', #85, #494, #22, .T. ) ;
#1300 = FACE_OUTER_BOUND ( 'NONE', #191, .T. ) ;
#1301 = VERTEX_POINT ( 'NONE', #495 ) ;
#1302 = CARTESIAN_POINT ( 'NONE',  ( 0.000000000000000000, 51.63560127662699983, 4.625851364349999884 ) ) ;
#1303 = PRODUCT_DEFINITION_FORMATION_WITH_SPECIFIED_SOURCE ( 'ไป', '', #143, .NOT_KNOWN. ) ;
#1304 = FACE_OUTER_BOUND ( 'NONE', #1021, .T. ) ;
#1305 = EDGE_CURVE ( 'NONE', #987, #641, #310, .T. ) ;
#1306 = ORIENTED_EDGE ( 'NONE', *, *, #902, .F. ) ;
#1307 = PLANE ( 'NONE',  #1155 ) ;
#1308 = DIRECTION ( 'NONE',  ( 0.000000000000000000, 0.000000000000000000, 1.000000000000000000 ) ) ;
#1309 = CARTESIAN_POINT ( 'NONE',  ( 47.05944237924699536, 33.91296809793700362, 8.474699877973000284 ) ) ;
#1310 = ORIENTED_EDGE ( 'NONE', *, *, #148, .T. ) ;
#1311 = ORIENTED_EDGE ( 'NONE', *, *, #1016, .F. ) ;
#1312 = ORIENTED_EDGE ( 'NONE', *, *, #834, .T. ) ;
#1313 = CARTESIAN_POINT ( 'NONE',  ( 43.20407005243799858, 25.96884563258799616, 4.579731865090999499 ) ) ;
#1314 = CARTESIAN_POINT ( 'NONE',  ( 0.000000000000000000, 94.69956254843600618, 42.67800961100099499 ) ) ;
#1315 = DIRECTION ( 'NONE',  ( 1.000000000000000000, 0.000000000000000000, 0.000000000000000000 ) ) ;
#1316 = ORIENTED_EDGE ( 'NONE', *, *, #444, .F. ) ;
#1317 = CARTESIAN_POINT ( 'NONE',  ( 0.000000000000000000, 53.63560127662700694, 4.625851364349999884 ) ) ;
#1318 = FACE_OUTER_BOUND ( 'NONE', #1271, .T. ) ;
ENDSEC;
END-ISO-10303-21;
