ISO-10303-21;
HEADER;
FILE_DESCRIPTION (( 'STEP AP214' ),
    '1' );
FILE_NAME ('20260414_160844_170.STEP',
    '2026-04-16T15:29:21',
    ( '' ),
    ( '' ),
    'SwSTEP 2.0',
    'SolidWorks 2025',
    '' );
FILE_SCHEMA (( 'AUTOMOTIVE_DESIGN' ));
ENDSEC;

DATA;
#1 = ORIENTED_EDGE ( 'NONE', *, *, #1198, .F. ) ;
#2 = VECTOR ( 'NONE', #544, 1000.000000000000000 ) ;
#3 = CARTESIAN_POINT ( 'NONE',  ( 18.61594094888699757, 47.96802459287900433, 24.19142231320200054 ) ) ;
#4 = ORIENTED_EDGE ( 'NONE', *, *, #946, .F. ) ;
#5 = DIRECTION ( 'NONE',  ( 0.000000000000000000, 0.000000000000000000, -1.000000000000000000 ) ) ;
#6 = CARTESIAN_POINT ( 'NONE',  ( 19.09549724239499824, 0.000000000000000000, 25.55906038174999750 ) ) ;
#7 = ORIENTED_EDGE ( 'NONE', *, *, #586, .T. ) ;
#8 = CARTESIAN_POINT ( 'NONE',  ( 20.98475956997799940, 0.000000000000000000, 23.36080644775600135 ) ) ;
#9 = ORIENTED_EDGE ( 'NONE', *, *, #949, .T. ) ;
#10 = CARTESIAN_POINT ( 'NONE',  ( 22.48421362487200170, 14.42234309403600001, 13.41286178648900140 ) ) ;
#11 = VERTEX_POINT ( 'NONE', #762 ) ;
#12 = VERTEX_POINT ( 'NONE', #921 ) ;
#13 = PLANE ( 'NONE',  #292 ) ;
#14 = FACE_OUTER_BOUND ( 'NONE', #381, .T. ) ;
#15 = DIRECTION ( 'NONE',  ( 0.000000000000000000, -1.000000000000000000, 0.000000000000000000 ) ) ;
#16 = ADVANCED_FACE ( 'NONE', ( #364 ), #266, .T. ) ;
#17 = CARTESIAN_POINT ( 'NONE',  ( 16.35909669697900171, 21.78466263304800066, 0.000000000000000000 ) ) ;
#18 = EDGE_LOOP ( 'NONE', ( #278, #483, #403, #51 ) ) ;
#19 = VECTOR ( 'NONE', #988, 1000.000000000000114 ) ;
#20 = PLANE ( 'NONE',  #458 ) ;
#21 = ORIENTED_EDGE ( 'NONE', *, *, #445, .F. ) ;
#22 = AXIS2_PLACEMENT_3D ( 'NONE', #550, #912, #740 ) ;
#23 = AXIS2_PLACEMENT_3D ( 'NONE', #289, #700, #1051 ) ;
#24 = CARTESIAN_POINT ( 'NONE',  ( 18.61594094888699757, 47.96802459287900433, 24.19142231320200054 ) ) ;
#25 = EDGE_CURVE ( 'NONE', #383, #501, #320, .T. ) ;
#26 = CARTESIAN_POINT ( 'NONE',  ( 65.70381446740600495, 0.000000000000000000, 0.000000000000000000 ) ) ;
#27 = DIRECTION ( 'NONE',  ( -0.4900478647511450903, -0.8716955261172580904, 0.000000000000000000 ) ) ;
#28 = EDGE_LOOP ( 'NONE', ( #1020 ) ) ;
#29 = DIRECTION ( 'NONE',  ( 0.8716955261172580904, -0.4900478647511450347, 0.000000000000000000 ) ) ;
#30 = EDGE_CURVE ( 'NONE', #948, #994, #1119, .T. ) ;
#31 = CARTESIAN_POINT ( 'NONE',  ( 18.65291294610799966, 17.46394410380399975, 13.41286178648900140 ) ) ;
#32 = VERTEX_POINT ( 'NONE', #232 ) ;
#33 = EDGE_CURVE ( 'NONE', #1154, #963, #705, .T. ) ;
#34 = CARTESIAN_POINT ( 'NONE',  ( 0.000000000000000000, 19.04228445454499763, 48.04734269863000407 ) ) ;
#35 = EDGE_LOOP ( 'NONE', ( #37, #551, #666, #743 ) ) ;
#36 = DIRECTION ( 'NONE',  ( 0.9826872286337592355, 0.000000000000000000, 0.1852722609569545376 ) ) ;
#37 = ORIENTED_EDGE ( 'NONE', *, *, #493, .T. ) ;
#38 = DIRECTION ( 'NONE',  ( 0.000000000000000000, -1.000000000000000000, 0.000000000000000000 ) ) ;
#39 = EDGE_CURVE ( 'NONE', #818, #127, #756, .T. ) ;
#40 = DIRECTION ( 'NONE',  ( 0.000000000000000000, 0.000000000000000000, -1.000000000000000000 ) ) ;
#41 = VERTEX_POINT ( 'NONE', #1057 ) ;
#42 = VECTOR ( 'NONE', #1032, 1000.000000000000227 ) ;
#43 = LINE ( 'NONE', #530, #47 ) ;
#44 = CIRCLE ( 'NONE', #273, 1.000000000000000888 ) ;
#45 = FACE_BOUND ( 'NONE', #738, .T. ) ;
#46 = VECTOR ( 'NONE', #734, 1000.000000000000000 ) ;
#47 = VECTOR ( 'NONE', #416, 1000.000000000000000 ) ;
#48 = EDGE_LOOP ( 'NONE', ( #572, #103, #327, #397 ) ) ;
#49 = CARTESIAN_POINT ( 'NONE',  ( 62.63977245092300450, 35.89358469958600040, 13.10959103551600080 ) ) ;
#50 = DIRECTION ( 'NONE',  ( -1.000000000000000000, 0.000000000000000000, 0.000000000000000000 ) ) ;
#51 = ORIENTED_EDGE ( 'NONE', *, *, #429, .F. ) ;
#52 = EDGE_CURVE ( 'NONE', #846, #846, #596, .T. ) ;
#53 = CARTESIAN_POINT ( 'NONE',  ( 50.99708656394099648, 35.41867399186800469, 27.16886408708500156 ) ) ;
#54 = CARTESIAN_POINT ( 'NONE',  ( 25.01976021094399982, 31.51571887675100214, 5.653306721842999316 ) ) ;
#55 = CARTESIAN_POINT ( 'NONE',  ( 25.01976021094399982, 31.51571887675100214, 57.52639916650600327 ) ) ;
#56 = LINE ( 'NONE', #725, #46 ) ;
#57 = CARTESIAN_POINT ( 'NONE',  ( 16.35909669697900171, 21.78466263304800066, 0.000000000000000000 ) ) ;
#58 = ORIENTED_EDGE ( 'NONE', *, *, #1136, .F. ) ;
#59 = LINE ( 'NONE', #817, #1033 ) ;
#60 = EDGE_CURVE ( 'NONE', #369, #1116, #134, .T. ) ;
#61 = DIRECTION ( 'NONE',  ( 4.676488889744999840E-32, 5.966745564259000225E-31, -1.000000000000000000 ) ) ;
#62 = LINE ( 'NONE', #234, #1162 ) ;
#63 = ORIENTED_EDGE ( 'NONE', *, *, #284, .T. ) ;
#64 = CARTESIAN_POINT ( 'NONE',  ( 31.19986506658399961, 28.04140118473199905, 0.000000000000000000 ) ) ;
#65 = LINE ( 'NONE', #330, #19 ) ;
#66 = AXIS2_PLACEMENT_3D ( 'NONE', #1127, #492, #119 ) ;
#67 =( GEOMETRIC_REPRESENTATION_CONTEXT ( 3 ) GLOBAL_UNCERTAINTY_ASSIGNED_CONTEXT ( ( #156 ) ) GLOBAL_UNIT_ASSIGNED_CONTEXT ( ( #771, #1130, #613 ) ) REPRESENTATION_CONTEXT ( 'NONE', 'WORKASPACE' ) );
#68 = EDGE_CURVE ( 'NONE', #695, #695, #312, .T. ) ;
#69 = AXIS2_PLACEMENT_3D ( 'NONE', #856, #388, #1093 ) ;
#70 = CARTESIAN_POINT ( 'NONE',  ( 25.92014051904600080, 47.96802459287900433, 24.16400096359000216 ) ) ;
#71 = LINE ( 'NONE', #890, #768 ) ;
#72 = ORIENTED_EDGE ( 'NONE', *, *, #214, .T. ) ;
#73 = DIRECTION ( 'NONE',  ( 0.000000000000000000, 0.000000000000000000, 1.000000000000000000 ) ) ;
#74 = DIRECTION ( 'NONE',  ( -1.000000000000000000, 0.000000000000000000, 0.000000000000000000 ) ) ;
#75 = UNCERTAINTY_MEASURE_WITH_UNIT (LENGTH_MEASURE( 1.000000000000000082E-05 ), #519, 'distance_accuracy_value', 'NONE');
#76 = DIRECTION ( 'NONE',  ( 0.000000000000000000, 1.000000000000000000, 0.000000000000000000 ) ) ;
#77 = CARTESIAN_POINT ( 'NONE',  ( 50.99708656394099648, 47.96802459287900433, 27.16886408708500156 ) ) ;
#78 = EDGE_CURVE ( 'NONE', #658, #832, #1062, .T. ) ;
#79 = ORIENTED_EDGE ( 'NONE', *, *, #667, .F. ) ;
#80 = LINE ( 'NONE', #537, #732 ) ;
#81 = ORIENTED_EDGE ( 'NONE', *, *, #376, .T. ) ;
#82 = CARTESIAN_POINT ( 'NONE',  ( 21.46431586348600007, 47.96802459287900433, 24.72844451630399831 ) ) ;
#83 = DIRECTION ( 'NONE',  ( -1.000000000000000000, 0.000000000000000000, 0.000000000000000000 ) ) ;
#84 = ORIENTED_EDGE ( 'NONE', *, *, #592, .T. ) ;
#85 = EDGE_CURVE ( 'NONE', #159, #105, #789, .T. ) ;
#86 = CARTESIAN_POINT ( 'NONE',  ( 26.95995002823000064, 33.98925750170400306, 25.46785244654299873 ) ) ;
#87 = LINE ( 'NONE', #1090, #659 ) ;
#88 = VERTEX_POINT ( 'NONE', #672 ) ;
#89 = VECTOR ( 'NONE', #1117, 1000.000000000000114 ) ;
#90 = AXIS2_PLACEMENT_3D ( 'NONE', #595, #865, #689 ) ;
#91 = DIRECTION ( 'NONE',  ( -0.4509519152491098248, 0.000000000000000000, 0.8925482452692177215 ) ) ;
#92 = ORIENTED_EDGE ( 'NONE', *, *, #214, .F. ) ;
#93 = AXIS2_PLACEMENT_3D ( 'NONE', #3, #467, #1188 ) ;
#94 = DIRECTION ( 'NONE',  ( -0.7583959734930242336, 0.000000000000000000, -0.6517940989220202264 ) ) ;
#95 = ORIENTED_EDGE ( 'NONE', *, *, #793, .T. ) ;
#96 = ADVANCED_FACE ( 'NONE', ( #1125 ), #943, .T. ) ;
#97 = LINE ( 'NONE', #1192, #309 ) ;
#98 = EDGE_LOOP ( 'NONE', ( #541, #702, #610, #401 ) ) ;
#99 = LINE ( 'NONE', #368, #1027 ) ;
#100 = ORIENTED_EDGE ( 'NONE', *, *, #656, .T. ) ;
#101 = VERTEX_POINT ( 'NONE', #118 ) ;
#102 = DIRECTION ( 'NONE',  ( 0.000000000000000000, 0.000000000000000000, 1.000000000000000000 ) ) ;
#103 = ORIENTED_EDGE ( 'NONE', *, *, #739, .F. ) ;
#104 = CARTESIAN_POINT ( 'NONE',  ( 0.000000000000000000, 31.51571887675100214, 27.16886408708500156 ) ) ;
#105 = VERTEX_POINT ( 'NONE', #616 ) ;
#106 = VECTOR ( 'NONE', #400, 1000.000000000000000 ) ;
#107 = FACE_BOUND ( 'NONE', #1175, .T. ) ;
#108 = ORIENTED_EDGE ( 'NONE', *, *, #807, .T. ) ;
#109 = VECTOR ( 'NONE', #978, 1000.000000000000000 ) ;
#110 = LINE ( 'NONE', #1100, #623 ) ;
#111 = ORIENTED_EDGE ( 'NONE', *, *, #1034, .T. ) ;
#112 = DIRECTION ( 'NONE',  ( 0.000000000000000000, 0.000000000000000000, 1.000000000000000000 ) ) ;
#113 = VERTEX_POINT ( 'NONE', #482 ) ;
#114 = VERTEX_POINT ( 'NONE', #1152 ) ;
#115 = ADVANCED_FACE ( 'NONE', ( #481 ), #583, .T. ) ;
#116 = FACE_BOUND ( 'NONE', #1089, .T. ) ;
#117 = ORIENTED_EDGE ( 'NONE', *, *, #340, .F. ) ;
#118 = CARTESIAN_POINT ( 'NONE',  ( 19.09549724239499824, 47.96802459287900433, 25.55906038174999750 ) ) ;
#119 = DIRECTION ( 'NONE',  ( 1.000000000000000000, 0.000000000000000000, 0.000000000000000000 ) ) ;
#120 = DIRECTION ( 'NONE',  ( 1.000000000000000000, 0.000000000000000000, 0.000000000000000000 ) ) ;
#121 = CARTESIAN_POINT ( 'NONE',  ( 34.17306986498499555, 26.36993148083899996, 57.52639916650600327 ) ) ;
#122 = ORIENTED_EDGE ( 'NONE', *, *, #775, .T. ) ;
#123 = EDGE_CURVE ( 'NONE', #763, #383, #972, .T. ) ;
#124 = VERTEX_POINT ( 'NONE', #1139 ) ;
#125 = AXIS2_PLACEMENT_3D ( 'NONE', #675, #587, #603 ) ;
#126 = PLANE ( 'NONE',  #661 ) ;
#127 = VERTEX_POINT ( 'NONE', #418 ) ;
#128 = VECTOR ( 'NONE', #753, 1000.000000000000000 ) ;
#129 = ADVANCED_FACE ( 'NONE', ( #14 ), #283, .F. ) ;
#130 = DIRECTION ( 'NONE',  ( 0.000000000000000000, 0.000000000000000000, 1.000000000000000000 ) ) ;
#131 = DIRECTION ( 'NONE',  ( 0.000000000000000000, 0.000000000000000000, -1.000000000000000000 ) ) ;
#132 = VERTEX_POINT ( 'NONE', #964 ) ;
#133 = CARTESIAN_POINT ( 'NONE',  ( 14.82161226734400117, 20.50554511357199772, 13.41286178648900140 ) ) ;
#134 = LINE ( 'NONE', #874, #1126 ) ;
#135 = DIRECTION ( 'NONE',  ( -0.8716955261172580904, 0.4900478647511450903, 0.000000000000000000 ) ) ;
#136 = ORIENTED_EDGE ( 'NONE', *, *, #1114, .T. ) ;
#137 = PLANE ( 'NONE',  #411 ) ;
#138 = DIRECTION ( 'NONE',  ( 0.000000000000000000, 0.000000000000000000, 1.000000000000000000 ) ) ;
#139 = FACE_OUTER_BOUND ( 'NONE', #754, .T. ) ;
#140 = ORIENTED_EDGE ( 'NONE', *, *, #619, .F. ) ;
#141 = AXIS2_PLACEMENT_3D ( 'NONE', #868, #960, #389 ) ;
#142 = AXIS2_PLACEMENT_3D ( 'NONE', #884, #333, #979 ) ;
#143 = DIRECTION ( 'NONE',  ( 0.8716955261172580904, -0.4900478647511450347, 0.000000000000000000 ) ) ;
#144 = AXIS2_PLACEMENT_3D ( 'NONE', #553, #748, #1005 ) ;
#145 = CARTESIAN_POINT ( 'NONE',  ( 65.70381446740600495, 31.51571887675100214, 27.16886408708500156 ) ) ;
#146 = FACE_OUTER_BOUND ( 'NONE', #18, .T. ) ;
#147 = ORIENTED_EDGE ( 'NONE', *, *, #1097, .T. ) ;
#148 = EDGE_CURVE ( 'NONE', #369, #1154, #510, .T. ) ;
#149 = CARTESIAN_POINT ( 'NONE',  ( 26.95995002823000064, 47.96802459287900433, 25.46785244654299873 ) ) ;
#150 = LINE ( 'NONE', #345, #1010 ) ;
#151 = DIRECTION ( 'NONE',  ( 0.000000000000000000, -1.000000000000000000, 0.000000000000000000 ) ) ;
#152 = ORIENTED_EDGE ( 'NONE', *, *, #340, .T. ) ;
#153 = APPLICATION_CONTEXT ( 'automotive_design' ) ;
#154 = CARTESIAN_POINT ( 'NONE',  ( 0.000000000000000000, 31.51571887675100214, 57.52639916650600327 ) ) ;
#155 = ADVANCED_FACE ( 'NONE', ( #487 ), #206, .T. ) ;
#156 = UNCERTAINTY_MEASURE_WITH_UNIT (LENGTH_MEASURE( 1.000000000000000082E-05 ), #771, 'distance_accuracy_value', 'NONE');
#157 = LINE ( 'NONE', #900, #331 ) ;
#158 = CARTESIAN_POINT ( 'NONE',  ( 20.98475956997799940, 47.96802459287900433, 23.36080644775600135 ) ) ;
#159 = VERTEX_POINT ( 'NONE', #145 ) ;
#160 = LINE ( 'NONE', #529, #1145 ) ;
#161 = AXIS2_PLACEMENT_3D ( 'NONE', #34, #294, #40 ) ;
#162 = AXIS2_PLACEMENT_3D ( 'NONE', #677, #1113, #937 ) ;
#163 = EDGE_CURVE ( 'NONE', #838, #466, #157, .T. ) ;
#164 = VECTOR ( 'NONE', #622, 1000.000000000000000 ) ;
#165 = DIRECTION ( 'NONE',  ( 0.000000000000000000, -1.000000000000000000, 0.000000000000000000 ) ) ;
#166 = CARTESIAN_POINT ( 'NONE',  ( 25.15422715690199951, 47.96802459287900433, 25.67993781692999988 ) ) ;
#167 = ORIENTED_EDGE ( 'NONE', *, *, #365, .F. ) ;
#168 = DIRECTION ( 'NONE',  ( 0.9826872286337592355, 0.000000000000000000, 0.1852722609569545376 ) ) ;
#169 = VERTEX_POINT ( 'NONE', #332 ) ;
#170 = LINE ( 'NONE', #450, #2 ) ;
#171 = ADVANCED_FACE ( 'NONE', ( #991 ), #532, .F. ) ;
#172 = FACE_OUTER_BOUND ( 'NONE', #1022, .T. ) ;
#173 = ORIENTED_EDGE ( 'NONE', *, *, #1092, .F. ) ;
#174 = PLANE ( 'NONE',  #614 ) ;
#175 = ORIENTED_EDGE ( 'NONE', *, *, #693, .F. ) ;
#176 = PRODUCT_DEFINITION ( 'ๆ', '', #783, #612 ) ;
#177 = LINE ( 'NONE', #565, #1124 ) ;
#178 = ORIENTED_EDGE ( 'NONE', *, *, #615, .T. ) ;
#179 = EDGE_CURVE ( 'NONE', #288, #714, #150, .T. ) ;
#180 = DIRECTION ( 'NONE',  ( 0.000000000000000000, 0.000000000000000000, -1.000000000000000000 ) ) ;
#181 = VECTOR ( 'NONE', #559, 1000.000000000000000 ) ;
#182 = VECTOR ( 'NONE', #924, 1000.000000000000000 ) ;
#183 = CARTESIAN_POINT ( 'NONE',  ( 19.09549724239499824, 47.96802459287900433, 25.55906038174999750 ) ) ;
#184 = ORIENTED_EDGE ( 'NONE', *, *, #1105, .F. ) ;
#185 = FACE_OUTER_BOUND ( 'NONE', #632, .T. ) ;
#186 = EDGE_LOOP ( 'NONE', ( #669, #92, #264, #468 ) ) ;
#187 = EDGE_CURVE ( 'NONE', #658, #1000, #889, .T. ) ;
#188 = CARTESIAN_POINT ( 'NONE',  ( 50.99708656394099648, 47.96802459287900433, 12.41079704793299854 ) ) ;
#189 = EDGE_LOOP ( 'NONE', ( #1056 ) ) ;
#190 = DIRECTION ( 'NONE',  ( 1.000000000000000000, 0.000000000000000000, 0.000000000000000000 ) ) ;
#191 = EDGE_LOOP ( 'NONE', ( #322 ) ) ;
#192 = ORIENTED_EDGE ( 'NONE', *, *, #457, .T. ) ;
#193 = DIRECTION ( 'NONE',  ( 0.000000000000000000, -1.000000000000000000, 0.000000000000000000 ) ) ;
#194 = EDGE_LOOP ( 'NONE', ( #409, #167, #1131, #307 ) ) ;
#195 = DIRECTION ( 'NONE',  ( 0.8716955261172580904, -0.4900478647511450347, 0.000000000000000000 ) ) ;
#196 = VERTEX_POINT ( 'NONE', #82 ) ;
#197 = CARTESIAN_POINT ( 'NONE',  ( 60.97960483736699189, 34.07141638141599316, 23.22183200662900049 ) ) ;
#198 = VECTOR ( 'NONE', #36, 1000.000000000000000 ) ;
#199 = EDGE_CURVE ( 'NONE', #574, #1053, #794, .T. ) ;
#200 = VECTOR ( 'NONE', #999, 1000.000000000000000 ) ;
#201 = DIRECTION ( 'NONE',  ( 0.000000000000000000, 0.000000000000000000, -1.000000000000000000 ) ) ;
#202 = EDGE_LOOP ( 'NONE', ( #787 ) ) ;
#203 = VECTOR ( 'NONE', #1070, 1000.000000000000000 ) ;
#204 = FACE_BOUND ( 'NONE', #456, .T. ) ;
#205 = ORIENTED_EDGE ( 'NONE', *, *, #1072, .F. ) ;
#206 = PLANE ( 'NONE',  #69 ) ;
#207 = LINE ( 'NONE', #944, #42 ) ;
#208 = ADVANCED_FACE ( 'NONE', ( #539, #1158 ), #251, .F. ) ;
#209 = FACE_OUTER_BOUND ( 'NONE', #777, .T. ) ;
#210 = ORIENTED_EDGE ( 'NONE', *, *, #1037, .T. ) ;
#211 = PLANE ( 'NONE',  #90 ) ;
#212 = DIRECTION ( 'NONE',  ( 0.000000000000000000, 1.000000000000000000, 0.000000000000000000 ) ) ;
#213 = ORIENTED_EDGE ( 'NONE', *, *, #599, .F. ) ;
#214 = EDGE_CURVE ( 'NONE', #105, #1172, #1173, .T. ) ;
#215 = CARTESIAN_POINT ( 'NONE',  ( 34.17306986498499555, 26.36993148083899996, 0.000000000000000000 ) ) ;
#216 = CARTESIAN_POINT ( 'NONE',  ( 61.86055033565300221, 47.96802459287900433, 19.77068645646400213 ) ) ;
#217 = AXIS2_PLACEMENT_3D ( 'NONE', #704, #337, #417 ) ;
#218 = CARTESIAN_POINT ( 'NONE',  ( 28.22666026818300011, 29.71287088862399983, 57.52639916650600327 ) ) ;
#219 = EDGE_LOOP ( 'NONE', ( #235, #728, #840, #660 ) ) ;
#220 = AXIS2_PLACEMENT_3D ( 'NONE', #966, #1153, #1071 ) ;
#221 = CARTESIAN_POINT ( 'NONE',  ( 25.01976021094399982, 31.51571887675100214, 57.52639916650600327 ) ) ;
#222 = EDGE_CURVE ( 'NONE', #940, #367, #56, .T. ) ;
#223 = DIRECTION ( 'NONE',  ( 0.6395587597382058620, -0.7687422148172479153, 0.000000000000000000 ) ) ;
#224 = CARTESIAN_POINT ( 'NONE',  ( 28.22666026818300011, 29.71287088862399983, 57.52639916650600327 ) ) ;
#225 = DIRECTION ( 'NONE',  ( -1.000000000000000000, 0.000000000000000000, 0.000000000000000000 ) ) ;
#226 = EDGE_LOOP ( 'NONE', ( #1104, #147, #1014 ) ) ;
#227 = DIRECTION ( 'NONE',  ( 0.7583959734930242336, 0.000000000000000000, 0.6517940989220202264 ) ) ;
#228 = ORIENTED_EDGE ( 'NONE', *, *, #667, .T. ) ;
#229 = DIRECTION ( 'NONE',  ( -0.000000000000000000, 1.000000000000000000, 0.000000000000000000 ) ) ;
#230 = PLANE ( 'NONE',  #142 ) ;
#231 = ORIENTED_EDGE ( 'NONE', *, *, #199, .T. ) ;
#232 = CARTESIAN_POINT ( 'NONE',  ( 19.56057211267799900, 0.000000000000000000, 23.09229534620500246 ) ) ;
#233 = EDGE_CURVE ( 'NONE', #159, #574, #882, .T. ) ;
#234 = CARTESIAN_POINT ( 'NONE',  ( 65.70381446740600495, 47.96802459287900433, 0.000000000000000000 ) ) ;
#235 = ORIENTED_EDGE ( 'NONE', *, *, #1055, .T. ) ;
#236 = VECTOR ( 'NONE', #1046, 1000.000000000000000 ) ;
#237 = AXIS2_PLACEMENT_3D ( 'NONE', #31, #201, #933 ) ;
#238 = CARTESIAN_POINT ( 'NONE',  ( 65.70381446740600495, 47.96802459287900433, 27.16886408708500156 ) ) ;
#239 = VECTOR ( 'NONE', #377, 1000.000000000000227 ) ;
#240 = EDGE_CURVE ( 'NONE', #1053, #12, #813, .T. ) ;
#241 = CARTESIAN_POINT ( 'NONE',  ( 61.86055033565300221, 38.05552510271199651, 19.77068645646400213 ) ) ;
#242 = VERTEX_POINT ( 'NONE', #1181 ) ;
#243 = CARTESIAN_POINT ( 'NONE',  ( 34.17306986498499555, 26.36993148083899996, 57.52639916650600327 ) ) ;
#244 = CARTESIAN_POINT ( 'NONE',  ( 65.70381446740600495, 31.51571887675100214, 27.16886408708500156 ) ) ;
#245 = CARTESIAN_POINT ( 'NONE',  ( 28.22666026818300011, 29.71287088862399983, 57.52639916650600327 ) ) ;
#246 = ORIENTED_EDGE ( 'NONE', *, *, #319, .F. ) ;
#247 = EDGE_CURVE ( 'NONE', #101, #1138, #1087, .T. ) ;
#248 = CARTESIAN_POINT ( 'NONE',  ( 60.97960483736699189, 34.07141638141599316, 23.22183200662900049 ) ) ;
#249 = SURFACE_STYLE_FILL_AREA ( #448 ) ;
#250 = EDGE_CURVE ( 'NONE', #569, #948, #170, .T. ) ;
#251 = CYLINDRICAL_SURFACE ( 'NONE', #577, 1.000000000000000888 ) ;
#252 = LINE ( 'NONE', #895, #494 ) ;
#253 = VERTEX_POINT ( 'NONE', #911 ) ;
#254 = LINE ( 'NONE', #54, #576 ) ;
#255 = EDGE_LOOP ( 'NONE', ( #568, #1084, #523, #407 ) ) ;
#256 = EDGE_CURVE ( 'NONE', #350, #288, #710, .T. ) ;
#257 = CARTESIAN_POINT ( 'NONE',  ( 19.09549724239499824, 47.96802459287900433, 25.55906038174999750 ) ) ;
#258 = CARTESIAN_POINT ( 'NONE',  ( 33.32258591396600167, 35.41867399186800469, 27.16886408708500156 ) ) ;
#259 = ORIENTED_EDGE ( 'NONE', *, *, #586, .F. ) ;
#260 = PLANE ( 'NONE',  #435 ) ;
#261 = ORIENTED_EDGE ( 'NONE', *, *, #946, .T. ) ;
#262 = CARTESIAN_POINT ( 'NONE',  ( 20.98475956997799940, 47.96802459287900433, 23.36080644775600135 ) ) ;
#263 = FACE_OUTER_BOUND ( 'NONE', #942, .T. ) ;
#264 = ORIENTED_EDGE ( 'NONE', *, *, #85, .F. ) ;
#265 = CYLINDRICAL_SURFACE ( 'NONE', #392, 1.000000000000000888 ) ;
#266 = PLANE ( 'NONE',  #162 ) ;
#267 = LINE ( 'NONE', #735, #128 ) ;
#268 = ORIENTED_EDGE ( 'NONE', *, *, #187, .F. ) ;
#269 = CARTESIAN_POINT ( 'NONE',  ( 0.000000000000000000, 47.96802459287900433, 0.000000000000000000 ) ) ;
#270 = ORIENTED_EDGE ( 'NONE', *, *, #1017, .T. ) ;
#271 = ORIENTED_EDGE ( 'NONE', *, *, #1114, .F. ) ;
#272 = AXIS2_PLACEMENT_3D ( 'NONE', #634, #910, #1156 ) ;
#273 = AXIS2_PLACEMENT_3D ( 'NONE', #1132, #212, #590 ) ;
#274 = LINE ( 'NONE', #839, #990 ) ;
#275 = ORIENTED_EDGE ( 'NONE', *, *, #390, .F. ) ;
#276 = CYLINDRICAL_SURFACE ( 'NONE', #1128, 1.000000000000000888 ) ;
#277 = EDGE_LOOP ( 'NONE', ( #1047, #747, #640, #604 ) ) ;
#278 = ORIENTED_EDGE ( 'NONE', *, *, #1102, .T. ) ;
#279 = DIRECTION ( 'NONE',  ( 0.000000000000000000, 0.000000000000000000, -1.000000000000000000 ) ) ;
#280 = EDGE_LOOP ( 'NONE', ( #627, #228, #347, #339 ) ) ;
#281 = CARTESIAN_POINT ( 'NONE',  ( 8.725950297383999299, 0.000000000000000000, 21.04957532110899621 ) ) ;
#282 = VERTEX_POINT ( 'NONE', #353 ) ;
#283 = PLANE ( 'NONE',  #23 ) ;
#284 = EDGE_CURVE ( 'NONE', #1000, #1012, #625, .T. ) ;
#285 = CARTESIAN_POINT ( 'NONE',  ( 50.99708656394099648, 35.41867399186800469, 27.16886408708500156 ) ) ;
#286 = ORIENTED_EDGE ( 'NONE', *, *, #955, .T. ) ;
#287 = LINE ( 'NONE', #875, #799 ) ;
#288 = VERTEX_POINT ( 'NONE', #526 ) ;
#289 = CARTESIAN_POINT ( 'NONE',  ( 50.99708656394099648, 35.41867399186800469, 27.16886408708500156 ) ) ;
#290 = EDGE_CURVE ( 'NONE', #1008, #580, #716, .T. ) ;
#291 = VECTOR ( 'NONE', #593, 1000.000000000000000 ) ;
#292 = AXIS2_PLACEMENT_3D ( 'NONE', #1042, #776, #485 ) ;
#293 = CLOSED_SHELL ( 'NONE', ( #96, #974, #439, #155, #1129, #1178, #1009, #208, #679, #642, #857, #1078, #886, #16, #129, #769, #564, #649, #607, #869, #686, #825, #897, #1061, #711, #703, #171, #1018, #469, #430, #746, #981, #525, #848, #798, #115, #1157, #406, #505, #922, #1151 ) ) ;
#294 = DIRECTION ( 'NONE',  ( -1.000000000000000000, 0.000000000000000000, 0.000000000000000000 ) ) ;
#295 = ORIENTED_EDGE ( 'NONE', *, *, #546, .F. ) ;
#296 = CARTESIAN_POINT ( 'NONE',  ( 32.85190723370300248, 39.74187173481499968, 27.16886408708500156 ) ) ;
#297 = DIRECTION ( 'NONE',  ( 0.3308931297110132008, 0.000000000000000000, 0.9436682344500373354 ) ) ;
#298 = CARTESIAN_POINT ( 'NONE',  ( 18.61594094888699757, 47.96802459287900433, 24.19142231320200054 ) ) ;
#299 = ORIENTED_EDGE ( 'NONE', *, *, #793, .F. ) ;
#300 = EDGE_CURVE ( 'NONE', #461, #367, #1075, .T. ) ;
#301 = LINE ( 'NONE', #121, #766 ) ;
#302 = ORIENTED_EDGE ( 'NONE', *, *, #1136, .T. ) ;
#303 = CARTESIAN_POINT ( 'NONE',  ( 50.99708656394099648, 35.41867399186800469, 12.41079704793299854 ) ) ;
#304 = DIRECTION ( 'NONE',  ( 3.754800573463999707E-32, -5.595793644232999483E-32, 1.000000000000000000 ) ) ;
#305 = EDGE_CURVE ( 'NONE', #714, #620, #160, .T. ) ;
#306 = CARTESIAN_POINT ( 'NONE',  ( 34.17306986498499555, 26.36993148083899996, 57.52639916650600327 ) ) ;
#307 = ORIENTED_EDGE ( 'NONE', *, *, #148, .T. ) ;
#308 = VERTEX_POINT ( 'NONE', #495 ) ;
#309 = VECTOR ( 'NONE', #366, 1000.000000000000114 ) ;
#310 = FACE_BOUND ( 'NONE', #1133, .T. ) ;
#311 = ORIENTED_EDGE ( 'NONE', *, *, #1024, .F. ) ;
#312 = CIRCLE ( 'NONE', #373, 1.000000000000000888 ) ;
#313 = CARTESIAN_POINT ( 'NONE',  ( 65.70381446740600495, 8.644047151425001019, 5.653306721842999316 ) ) ;
#314 = AXIS2_PLACEMENT_3D ( 'NONE', #248, #904, #535 ) ;
#315 = EDGE_LOOP ( 'NONE', ( #178, #699, #231, #117, #861, #497, #261, #100, #528 ) ) ;
#316 = DIRECTION ( 'NONE',  ( 0.000000000000000000, -1.000000000000000000, -5.966745564259000225E-31 ) ) ;
#317 = LINE ( 'NONE', #425, #899 ) ;
#318 = EDGE_LOOP ( 'NONE', ( #1141, #1109, #561, #140, #913, #645, #1029 ) ) ;
#319 = EDGE_CURVE ( 'NONE', #124, #124, #845, .T. ) ;
#320 = LINE ( 'NONE', #961, #662 ) ;
#321 = DIRECTION ( 'NONE',  ( -0.000000000000000000, 1.000000000000000000, 0.000000000000000000 ) ) ;
#322 = ORIENTED_EDGE ( 'NONE', *, *, #864, .F. ) ;
#323 = LINE ( 'NONE', #343, #680 ) ;
#324 = EDGE_CURVE ( 'NONE', #1116, #763, #887, .T. ) ;
#325 = DIRECTION ( 'NONE',  ( 0.000000000000000000, -1.000000000000000000, 0.000000000000000000 ) ) ;
#326 = PLANE ( 'NONE',  #351 ) ;
#327 = ORIENTED_EDGE ( 'NONE', *, *, #928, .F. ) ;
#328 = AXIS2_PLACEMENT_3D ( 'NONE', #154, #638, #996 ) ;
#329 = AXIS2_PLACEMENT_3D ( 'NONE', #354, #1002, #1197 ) ;
#330 = CARTESIAN_POINT ( 'NONE',  ( 26.82206868507899955, 30.50250108119099934, 0.000000000000000000 ) ) ;
#331 = VECTOR ( 'NONE', #1080, 1000.000000000000000 ) ;
#332 = CARTESIAN_POINT ( 'NONE',  ( 18.61594094888699757, 0.000000000000000000, 24.19142231320200054 ) ) ;
#333 = DIRECTION ( 'NONE',  ( 0.000000000000000000, 0.000000000000000000, 1.000000000000000000 ) ) ;
#334 = EDGE_CURVE ( 'NONE', #447, #466, #696, .T. ) ;
#335 = ORIENTED_EDGE ( 'NONE', *, *, #290, .T. ) ;
#336 = DIRECTION ( 'NONE',  ( 0.000000000000000000, 1.000000000000000000, 0.000000000000000000 ) ) ;
#337 = DIRECTION ( 'NONE',  ( 0.000000000000000000, 0.000000000000000000, 1.000000000000000000 ) ) ;
#338 = CARTESIAN_POINT ( 'NONE',  ( 31.19986506658399961, 28.04140118473199905, 57.52639916650600327 ) ) ;
#339 = ORIENTED_EDGE ( 'NONE', *, *, #290, .F. ) ;
#340 = EDGE_CURVE ( 'NONE', #1195, #1053, #968, .T. ) ;
#341 = DIRECTION ( 'NONE',  ( -0.6234981031328099554, 0.000000000000000000, -0.7818248623507619843 ) ) ;
#342 = PRODUCT_DEFINITION_SHAPE ( 'NONE', 'NONE',  #176 ) ;
#343 = CARTESIAN_POINT ( 'NONE',  ( 33.32258591396600167, 35.41867399186800469, 27.16886408708500156 ) ) ;
#344 = ORIENTED_EDGE ( 'NONE', *, *, #25, .T. ) ;
#345 = CARTESIAN_POINT ( 'NONE',  ( 22.54445595956200066, 0.000000000000000000, 23.47164593370600016 ) ) ;
#346 = LINE ( 'NONE', #727, #956 ) ;
#347 = ORIENTED_EDGE ( 'NONE', *, *, #907, .F. ) ;
#348 = CARTESIAN_POINT ( 'NONE',  ( 0.000000000000000000, 0.000000000000000000, 0.000000000000000000 ) ) ;
#349 = MECHANICAL_DESIGN_GEOMETRIC_PRESENTATION_REPRESENTATION (  '', ( #883 ), #517 ) ;
#350 = VERTEX_POINT ( 'NONE', #877 ) ;
#351 = AXIS2_PLACEMENT_3D ( 'NONE', #701, #1076, #413 ) ;
#352 = AXIS2_PLACEMENT_3D ( 'NONE', #55, #542, #804 ) ;
#353 = CARTESIAN_POINT ( 'NONE',  ( 18.61594094888699757, 47.96802459287900433, 24.19142231320200054 ) ) ;
#354 = CARTESIAN_POINT ( 'NONE',  ( 25.15422715690199951, 47.96802459287900433, 25.67993781692999988 ) ) ;
#355 = VERTEX_POINT ( 'NONE', #313 ) ;
#356 = CARTESIAN_POINT ( 'NONE',  ( 0.000000000000000000, 0.000000000000000000, 57.52639916650600327 ) ) ;
#357 = FACE_OUTER_BOUND ( 'NONE', #967, .T. ) ;
#358 = APPLICATION_CONTEXT ( 'automotive_design' ) ;
#359 = EDGE_CURVE ( 'NONE', #88, #832, #605, .T. ) ;
#360 = CARTESIAN_POINT ( 'NONE',  ( 0.000000000000000000, 0.000000000000000000, 0.000000000000000000 ) ) ;
#361 = EDGE_LOOP ( 'NONE', ( #760, #741, #930, #184, #543, #563 ) ) ;
#362 = FACE_OUTER_BOUND ( 'NONE', #826, .T. ) ;
#363 = ORIENTED_EDGE ( 'NONE', *, *, #52, .T. ) ;
#364 = FACE_OUTER_BOUND ( 'NONE', #35, .T. ) ;
#365 = EDGE_CURVE ( 'NONE', #1116, #963, #453, .T. ) ;
#366 = DIRECTION ( 'NONE',  ( 0.3308931297110132008, 0.000000000000000000, 0.9436682344500373354 ) ) ;
#367 = VERTEX_POINT ( 'NONE', #1121 ) ;
#368 = CARTESIAN_POINT ( 'NONE',  ( 0.000000000000000000, 47.96802459287900433, 0.000000000000000000 ) ) ;
#369 = VERTEX_POINT ( 'NONE', #681 ) ;
#370 = ORIENTED_EDGE ( 'NONE', *, *, #233, .F. ) ;
#371 = AXIS2_PLACEMENT_3D ( 'NONE', #985, #1159, #786 ) ;
#372 = VECTOR ( 'NONE', #1031, 1000.000000000000000 ) ;
#373 = AXIS2_PLACEMENT_3D ( 'NONE', #49, #602, #112 ) ;
#374 = CARTESIAN_POINT ( 'NONE',  ( 65.70381446740600495, 0.000000000000000000, 57.52639916650600327 ) ) ;
#375 = ORIENTED_EDGE ( 'NONE', *, *, #955, .F. ) ;
#376 = EDGE_CURVE ( 'NONE', #32, #169, #207, .T. ) ;
#377 = DIRECTION ( 'NONE',  ( 0.6517940989220202264, 0.000000000000000000, -0.7583959734930241225 ) ) ;
#378 = ORIENTED_EDGE ( 'NONE', *, *, #376, .F. ) ;
#379 = CARTESIAN_POINT ( 'NONE',  ( 65.70381446740600495, 31.51571887675100214, 57.52639916650600327 ) ) ;
#380 = FACE_OUTER_BOUND ( 'NONE', #1148, .T. ) ;
#381 = EDGE_LOOP ( 'NONE', ( #152, #486, #959, #79 ) ) ;
#382 = PLANE ( 'NONE',  #144 ) ;
#383 = VERTEX_POINT ( 'NONE', #221 ) ;
#384 = DIRECTION ( 'NONE',  ( -4.676488889744999840E-32, -5.966745564259000225E-31, 1.000000000000000000 ) ) ;
#385 = CARTESIAN_POINT ( 'NONE',  ( 61.86055033565300221, 38.05552510271199651, 20.77068645646400213 ) ) ;
#386 = ORIENTED_EDGE ( 'NONE', *, *, #478, .F. ) ;
#387 = FACE_OUTER_BOUND ( 'NONE', #1064, .T. ) ;
#388 = DIRECTION ( 'NONE',  ( -1.603872052983000204E-28, 1.000000000000000000, 7.080122483304999854E-30 ) ) ;
#389 = DIRECTION ( 'NONE',  ( 0.000000000000000000, 1.000000000000000000, 0.000000000000000000 ) ) ;
#390 = EDGE_CURVE ( 'NONE', #308, #308, #1085, .T. ) ;
#391 = EDGE_CURVE ( 'NONE', #1172, #127, #254, .T. ) ;
#392 = AXIS2_PLACEMENT_3D ( 'NONE', #831, #1021, #567 ) ;
#393 = AXIS2_PLACEMENT_3D ( 'NONE', #757, #304, #477 ) ;
#394 = LINE ( 'NONE', #17, #729 ) ;
#395 = AXIS2_PLACEMENT_3D ( 'NONE', #1146, #504, #765 ) ;
#396 = DIRECTION ( 'NONE',  ( -0.8925482452692177215, 0.000000000000000000, -0.4509519152491099359 ) ) ;
#397 = ORIENTED_EDGE ( 'NONE', *, *, #1092, .T. ) ;
#398 = CARTESIAN_POINT ( 'NONE',  ( 28.22666026818300011, 29.71287088862399983, 0.000000000000000000 ) ) ;
#399 = EDGE_CURVE ( 'NONE', #664, #736, #427, .T. ) ;
#400 = DIRECTION ( 'NONE',  ( 0.000000000000000000, -1.000000000000000000, 0.000000000000000000 ) ) ;
#401 = ORIENTED_EDGE ( 'NONE', *, *, #222, .F. ) ;
#402 = PLANE ( 'NONE',  #678 ) ;
#403 = ORIENTED_EDGE ( 'NONE', *, *, #300, .F. ) ;
#404 = CARTESIAN_POINT ( 'NONE',  ( 25.01976021094399982, 31.51571887675100214, 27.16886408708500156 ) ) ;
#405 = LINE ( 'NONE', #489, #918 ) ;
#406 = ADVANCED_FACE ( 'NONE', ( #421 ), #982, .F. ) ;
#407 = ORIENTED_EDGE ( 'NONE', *, *, #250, .F. ) ;
#408 = CARTESIAN_POINT ( 'NONE',  ( 33.32258591396600167, 35.41867399186800469, 27.16886408708500156 ) ) ;
#409 = ORIENTED_EDGE ( 'NONE', *, *, #33, .T. ) ;
#410 = PRODUCT_CONTEXT ( 'NONE', #358, 'mechanical' ) ;
#411 = AXIS2_PLACEMENT_3D ( 'NONE', #348, #723, #437 ) ;
#412 = DIRECTION ( 'NONE',  ( 1.000000000000000000, 0.000000000000000000, 0.000000000000000000 ) ) ;
#413 = DIRECTION ( 'NONE',  ( 0.000000000000000000, -1.000000000000000000, 0.000000000000000000 ) ) ;
#414 = ORIENTED_EDGE ( 'NONE', *, *, #457, .F. ) ;
#415 = EDGE_CURVE ( 'NONE', #41, #758, #43, .T. ) ;
#416 = DIRECTION ( 'NONE',  ( 4.676488889744999840E-32, 5.966745564259000225E-31, -1.000000000000000000 ) ) ;
#417 = DIRECTION ( 'NONE',  ( 1.000000000000000000, 0.000000000000000000, 0.000000000000000000 ) ) ;
#418 = CARTESIAN_POINT ( 'NONE',  ( 28.22666026818300011, 29.71287088862399983, 5.653306721842999316 ) ) ;
#419 = CARTESIAN_POINT ( 'NONE',  ( 65.70381446740600495, 0.000000000000000000, 57.52639916650600327 ) ) ;
#420 = ORIENTED_EDGE ( 'NONE', *, *, #163, .F. ) ;
#421 = FACE_OUTER_BOUND ( 'NONE', #891, .T. ) ;
#422 = CARTESIAN_POINT ( 'NONE',  ( 7.548781698451000111, 0.000000000000000000, 23.38208480587899984 ) ) ;
#423 = EDGE_CURVE ( 'NONE', #569, #876, #518, .T. ) ;
#424 = CARTESIAN_POINT ( 'NONE',  ( 50.99708656394099648, 47.96802459287900433, 27.16886408708500156 ) ) ;
#425 = CARTESIAN_POINT ( 'NONE',  ( 65.70381446740600495, 8.644047151425001019, 5.653306721842999316 ) ) ;
#426 = ORIENTED_EDGE ( 'NONE', *, *, #256, .F. ) ;
#427 = LINE ( 'NONE', #628, #1101 ) ;
#428 = CARTESIAN_POINT ( 'NONE',  ( 7.749188202390999258, 19.04228445454499763, 48.04734269863000407 ) ) ;
#429 = EDGE_CURVE ( 'NONE', #653, #461, #1065, .T. ) ;
#430 = ADVANCED_FACE ( 'NONE', ( #498 ), #1039, .T. ) ;
#431 = SHAPE_DEFINITION_REPRESENTATION ( #342, #611 ) ;
#432 = CARTESIAN_POINT ( 'NONE',  ( 25.15422715690199951, 47.96802459287900433, 25.67993781692999988 ) ) ;
#433 = PLANE ( 'NONE',  #556 ) ;
#434 = ORIENTED_EDGE ( 'NONE', *, *, #898, .F. ) ;
#435 = AXIS2_PLACEMENT_3D ( 'NONE', #1096, #652, #180 ) ;
#436 = VECTOR ( 'NONE', #1088, 1000.000000000000227 ) ;
#437 = DIRECTION ( 'NONE',  ( 1.000000000000000000, 0.000000000000000000, 0.000000000000000000 ) ) ;
#438 = DIRECTION ( 'NONE',  ( -1.000000000000000000, 0.000000000000000000, 0.000000000000000000 ) ) ;
#439 = ADVANCED_FACE ( 'NONE', ( #858 ), #767, .T. ) ;
#440 = LINE ( 'NONE', #1169, #200 ) ;
#441 = ORIENTED_EDGE ( 'NONE', *, *, #989, .F. ) ;
#442 = CARTESIAN_POINT ( 'NONE',  ( 0.000000000000000000, 0.000000000000000000, 57.52639916650600327 ) ) ;
#443 = DIRECTION ( 'NONE',  ( 0.000000000000000000, 0.000000000000000000, -1.000000000000000000 ) ) ;
#444 = DIRECTION ( 'NONE',  ( 0.000000000000000000, 1.000000000000000000, 0.000000000000000000 ) ) ;
#445 = EDGE_CURVE ( 'NONE', #282, #101, #1144, .T. ) ;
#446 = LINE ( 'NONE', #571, #436 ) ;
#447 = VERTEX_POINT ( 'NONE', #398 ) ;
#448 = FILL_AREA_STYLE ('',( #1083 ) ) ;
#449 = ORIENTED_EDGE ( 'NONE', *, *, #552, .T. ) ;
#450 = CARTESIAN_POINT ( 'NONE',  ( 22.48421362487200170, 14.42234309403600001, 0.000000000000000000 ) ) ;
#451 = LINE ( 'NONE', #374, #1048 ) ;
#452 = ORIENTED_EDGE ( 'NONE', *, *, #484, .T. ) ;
#453 = LINE ( 'NONE', #356, #181 ) ;
#454 = CARTESIAN_POINT ( 'NONE',  ( 14.82161226734400117, 20.50554511357199772, 0.000000000000000000 ) ) ;
#455 = AXIS2_PLACEMENT_3D ( 'NONE', #1134, #227, #15 ) ;
#456 = EDGE_LOOP ( 'NONE', ( #464, #547, #268 ) ) ;
#457 = EDGE_CURVE ( 'NONE', #127, #838, #584, .T. ) ;
#458 = AXIS2_PLACEMENT_3D ( 'NONE', #687, #396, #597 ) ;
#459 = VECTOR ( 'NONE', #1149, 1000.000000000000000 ) ;
#460 = CARTESIAN_POINT ( 'NONE',  ( 7.749188202390999258, 19.04228445454499763, 48.04734269863000407 ) ) ;
#461 = VERTEX_POINT ( 'NONE', #133 ) ;
#462 = PLANE ( 'NONE',  #93 ) ;
#463 = ORIENTED_EDGE ( 'NONE', *, *, #305, .T. ) ;
#464 = ORIENTED_EDGE ( 'NONE', *, *, #592, .F. ) ;
#465 = CARTESIAN_POINT ( 'NONE',  ( 20.94672919523699761, 13.14322557456000062, 13.41286178648900140 ) ) ;
#466 = VERTEX_POINT ( 'NONE', #215 ) ;
#467 = DIRECTION ( 'NONE',  ( -0.9436682344500373354, 0.000000000000000000, 0.3308931297110132008 ) ) ;
#468 = ORIENTED_EDGE ( 'NONE', *, *, #615, .F. ) ;
#469 = ADVANCED_FACE ( 'NONE', ( #782 ), #1150, .F. ) ;
#470 = LINE ( 'NONE', #360, #182 ) ;
#471 = ORIENTED_EDGE ( 'NONE', *, *, #739, .T. ) ;
#472 = FACE_OUTER_BOUND ( 'NONE', #255, .T. ) ;
#473 = EDGE_LOOP ( 'NONE', ( #1187, #934, #674, #1167, #449 ) ) ;
#474 = DIRECTION ( 'NONE',  ( 0.000000000000000000, 0.000000000000000000, -1.000000000000000000 ) ) ;
#475 = CIRCLE ( 'NONE', #712, 1.000000000000000888 ) ;
#476 = VECTOR ( 'NONE', #633, 1000.000000000000227 ) ;
#477 = DIRECTION ( 'NONE',  ( 0.000000000000000000, -1.000000000000000000, -5.595793644232999483E-32 ) ) ;
#478 = EDGE_CURVE ( 'NONE', #655, #501, #502, .T. ) ;
#479 = ORIENTED_EDGE ( 'NONE', *, *, #78, .F. ) ;
#480 = LINE ( 'NONE', #1194, #862 ) ;
#481 = FACE_OUTER_BOUND ( 'NONE', #315, .T. ) ;
#482 = CARTESIAN_POINT ( 'NONE',  ( 60.97960483736699189, 47.96802459287900433, 24.22183200662900049 ) ) ;
#483 = ORIENTED_EDGE ( 'NONE', *, *, #222, .T. ) ;
#484 = EDGE_CURVE ( 'NONE', #101, #350, #878, .T. ) ;
#485 = DIRECTION ( 'NONE',  ( -0.6395587597382058620, 0.7687422148172479153, 0.000000000000000000 ) ) ;
#486 = ORIENTED_EDGE ( 'NONE', *, *, #240, .T. ) ;
#487 = FACE_OUTER_BOUND ( 'NONE', #226, .T. ) ;
#488 = LINE ( 'NONE', #303, #879 ) ;
#489 = CARTESIAN_POINT ( 'NONE',  ( 25.15422715690199951, 33.98925750170400306, 25.67993781692999988 ) ) ;
#490 = FACE_BOUND ( 'NONE', #191, .T. ) ;
#491 = ORIENTED_EDGE ( 'NONE', *, *, #949, .F. ) ;
#492 = DIRECTION ( 'NONE',  ( -0.000000000000000000, 1.000000000000000000, 0.000000000000000000 ) ) ;
#493 = EDGE_CURVE ( 'NONE', #896, #12, #488, .T. ) ;
#494 = VECTOR ( 'NONE', #50, 1000.000000000000000 ) ;
#495 = CARTESIAN_POINT ( 'NONE',  ( 62.63977245092300450, 47.96802459287900433, 14.10959103551600080 ) ) ;
#496 = CYLINDRICAL_SURFACE ( 'NONE', #880, 2.150313248005998545 ) ;
#497 = ORIENTED_EDGE ( 'NONE', *, *, #893, .F. ) ;
#498 = FACE_OUTER_BOUND ( 'NONE', #566, .T. ) ;
#499 = CARTESIAN_POINT ( 'NONE',  ( 62.63977245092300450, 35.89358469958600040, 14.10959103551600080 ) ) ;
#500 = CARTESIAN_POINT ( 'NONE',  ( 25.92014051904600080, 33.98925750170400306, 24.16400096359000216 ) ) ;
#501 = VERTEX_POINT ( 'NONE', #404 ) ;
#502 = LINE ( 'NONE', #873, #291 ) ;
#503 = APPLICATION_PROTOCOL_DEFINITION ( 'draft international standard', 'automotive_design', 1998, #153 ) ;
#504 = DIRECTION ( 'NONE',  ( 0.000000000000000000, 1.000000000000000000, 0.000000000000000000 ) ) ;
#505 = ADVANCED_FACE ( 'NONE', ( #45, #778 ), #137, .F. ) ;
#506 = FACE_OUTER_BOUND ( 'NONE', #219, .T. ) ;
#507 = ORIENTED_EDGE ( 'NONE', *, *, #284, .F. ) ;
#508 = DIRECTION ( 'NONE',  ( 0.000000000000000000, 0.000000000000000000, 1.000000000000000000 ) ) ;
#509 = VECTOR ( 'NONE', #670, 1000.000000000000000 ) ;
#510 = LINE ( 'NONE', #684, #784 ) ;
#511 = VECTOR ( 'NONE', #1058, 1000.000000000000000 ) ;
#512 = EDGE_CURVE ( 'NONE', #1000, #132, #80, .T. ) ;
#513 = DIRECTION ( 'NONE',  ( 0.000000000000000000, -1.000000000000000000, 0.000000000000000000 ) ) ;
#514 = ORIENTED_EDGE ( 'NONE', *, *, #932, .T. ) ;
#515 = VECTOR ( 'NONE', #474, 1000.000000000000000 ) ;
#516 = DIRECTION ( 'NONE',  ( 1.000000000000000000, 0.000000000000000000, 0.000000000000000000 ) ) ;
#517 =( GEOMETRIC_REPRESENTATION_CONTEXT ( 3 ) GLOBAL_UNCERTAINTY_ASSIGNED_CONTEXT ( ( #75 ) ) GLOBAL_UNIT_ASSIGNED_CONTEXT ( ( #519, #811, #708 ) ) REPRESENTATION_CONTEXT ( 'NONE', 'WORKASPACE' ) );
#518 = LINE ( 'NONE', #888, #594 ) ;
#519 =( LENGTH_UNIT ( ) NAMED_UNIT ( * ) SI_UNIT ( .MILLI., .METRE. ) );
#520 = MANIFOLD_SOLID_BREP ( 'Open CASCADE STEP translator 7.5 11[1]', #293 ) ;
#521 = CARTESIAN_POINT ( 'NONE',  ( 65.70381446740600495, 31.51571887675100214, 5.653306721842999316 ) ) ;
#522 = DIRECTION ( 'NONE',  ( 0.000000000000000000, -1.000000000000000000, 0.000000000000000000 ) ) ;
#523 = ORIENTED_EDGE ( 'NONE', *, *, #30, .F. ) ;
#524 = DIRECTION ( 'NONE',  ( -0.6234981031328099554, 0.000000000000000000, -0.7818248623507619843 ) ) ;
#525 = ADVANCED_FACE ( 'NONE', ( #720 ), #892, .F. ) ;
#526 = CARTESIAN_POINT ( 'NONE',  ( 20.51968469969499864, 0.000000000000000000, 25.82757148330099994 ) ) ;
#527 = PLANE ( 'NONE',  #371 ) ;
#528 = ORIENTED_EDGE ( 'NONE', *, *, #478, .T. ) ;
#529 = CARTESIAN_POINT ( 'NONE',  ( 16.42847942481899892, 0.000000000000000000, 10.36683209720800036 ) ) ;
#530 = CARTESIAN_POINT ( 'NONE',  ( 33.32258591396600167, 47.96802459287900433, 27.16886408708500156 ) ) ;
#531 = LINE ( 'NONE', #920, #954 ) ;
#532 = PLANE ( 'NONE',  #938 ) ;
#533 = FACE_OUTER_BOUND ( 'NONE', #718, .T. ) ;
#534 = ORIENTED_EDGE ( 'NONE', *, *, #199, .F. ) ;
#535 = DIRECTION ( 'NONE',  ( 0.000000000000000000, 0.000000000000000000, 1.000000000000000000 ) ) ;
#536 = VECTOR ( 'NONE', #444, 1000.000000000000000 ) ;
#537 = CARTESIAN_POINT ( 'NONE',  ( 25.15422715690199951, 47.96802459287900433, 25.67993781692999988 ) ) ;
#538 = VECTOR ( 'NONE', #809, 1000.000000000000000 ) ;
#539 = FACE_OUTER_BOUND ( 'NONE', #1016, .T. ) ;
#540 = CARTESIAN_POINT ( 'NONE',  ( 33.32258591396600167, 47.96802459287900433, 12.41079704793299854 ) ) ;
#541 = ORIENTED_EDGE ( 'NONE', *, *, #1198, .T. ) ;
#542 = DIRECTION ( 'NONE',  ( -0.4900478647511450903, -0.8716955261172580904, 0.000000000000000000 ) ) ;
#543 = ORIENTED_EDGE ( 'NONE', *, *, #60, .T. ) ;
#544 = DIRECTION ( 'NONE',  ( 0.000000000000000000, 0.000000000000000000, 1.000000000000000000 ) ) ;
#545 = LINE ( 'NONE', #188, #637 ) ;
#546 = EDGE_CURVE ( 'NONE', #242, #282, #59, .T. ) ;
#547 = ORIENTED_EDGE ( 'NONE', *, *, #512, .F. ) ;
#548 = FACE_OUTER_BOUND ( 'NONE', #202, .T. ) ;
#549 = ORIENTED_EDGE ( 'NONE', *, *, #305, .F. ) ;
#550 = CARTESIAN_POINT ( 'NONE',  ( 21.46431586348600007, 47.96802459287900433, 24.72844451630399831 ) ) ;
#551 = ORIENTED_EDGE ( 'NONE', *, *, #1072, .T. ) ;
#552 = EDGE_CURVE ( 'NONE', #383, #818, #969, .T. ) ;
#553 = CARTESIAN_POINT ( 'NONE',  ( 65.70381446740600495, 31.51571887675100214, 57.52639916650600327 ) ) ;
#554 = VECTOR ( 'NONE', #29, 1000.000000000000114 ) ;
#555 = ORIENTED_EDGE ( 'NONE', *, *, #546, .T. ) ;
#556 = AXIS2_PLACEMENT_3D ( 'NONE', #241, #321, #802 ) ;
#557 = LINE ( 'NONE', #834, #970 ) ;
#558 = ORIENTED_EDGE ( 'NONE', *, *, #816, .T. ) ;
#559 = DIRECTION ( 'NONE',  ( 1.000000000000000000, 0.000000000000000000, 0.000000000000000000 ) ) ;
#560 = LINE ( 'NONE', #1107, #827 ) ;
#561 = ORIENTED_EDGE ( 'NONE', *, *, #1024, .T. ) ;
#562 = EDGE_CURVE ( 'NONE', #1138, #288, #1176, .T. ) ;
#563 = ORIENTED_EDGE ( 'NONE', *, *, #324, .T. ) ;
#564 = ADVANCED_FACE ( 'NONE', ( #1168 ), #997, .F. ) ;
#565 = CARTESIAN_POINT ( 'NONE',  ( 25.92014051904600080, 33.98925750170400306, 24.16400096359000216 ) ) ;
#566 = EDGE_LOOP ( 'NONE', ( #311, #722, #1004, #9, #370, #707, #375, #815 ) ) ;
#567 = DIRECTION ( 'NONE',  ( 0.000000000000000000, 0.000000000000000000, 1.000000000000000000 ) ) ;
#568 = ORIENTED_EDGE ( 'NONE', *, *, #423, .T. ) ;
#569 = VERTEX_POINT ( 'NONE', #1079 ) ;
#570 = EDGE_CURVE ( 'NONE', #1008, #1195, #323, .T. ) ;
#571 = CARTESIAN_POINT ( 'NONE',  ( 20.94672919523699761, 13.14322557456000062, 0.000000000000000000 ) ) ;
#572 = ORIENTED_EDGE ( 'NONE', *, *, #1041, .T. ) ;
#573 = FACE_OUTER_BOUND ( 'NONE', #796, .T. ) ;
#574 = VERTEX_POINT ( 'NONE', #238 ) ;
#575 = DIRECTION ( 'NONE',  ( 0.000000000000000000, 0.000000000000000000, -1.000000000000000000 ) ) ;
#576 = VECTOR ( 'NONE', #987, 1000.000000000000114 ) ;
#577 = AXIS2_PLACEMENT_3D ( 'NONE', #906, #76, #998 ) ;
#578 = PRESENTATION_LAYER_ASSIGNMENT (  '', '', ( #883 ) ) ;
#579 = CARTESIAN_POINT ( 'NONE',  ( 0.000000000000000000, 19.04228445454499763, 45.89702945062400374 ) ) ;
#580 = VERTEX_POINT ( 'NONE', #624 ) ;
#581 = CARTESIAN_POINT ( 'NONE',  ( 0.000000000000000000, 31.51571887675100214, 57.52639916650600327 ) ) ;
#582 = ORIENTED_EDGE ( 'NONE', *, *, #724, .T. ) ;
#583 = PLANE ( 'NONE',  #919 ) ;
#584 = LINE ( 'NONE', #1044, #554 ) ;
#585 = LINE ( 'NONE', #298, #106 ) ;
#586 = EDGE_CURVE ( 'NONE', #466, #447, #65, .T. ) ;
#587 = DIRECTION ( 'NONE',  ( -0.000000000000000000, 1.000000000000000000, 0.000000000000000000 ) ) ;
#588 = ORIENTED_EDGE ( 'NONE', *, *, #240, .F. ) ;
#589 = FACE_OUTER_BOUND ( 'NONE', #867, .T. ) ;
#590 = DIRECTION ( 'NONE',  ( 0.000000000000000000, 0.000000000000000000, 1.000000000000000000 ) ) ;
#591 = ORIENTED_EDGE ( 'NONE', *, *, #599, .T. ) ;
#592 = EDGE_CURVE ( 'NONE', #132, #658, #977, .T. ) ;
#593 = DIRECTION ( 'NONE',  ( 1.000000000000000000, 0.000000000000000000, 0.000000000000000000 ) ) ;
#594 = VECTOR ( 'NONE', #1155, 1000.000000000000227 ) ;
#595 = CARTESIAN_POINT ( 'NONE',  ( 0.000000000000000000, 0.000000000000000000, 0.000000000000000000 ) ) ;
#596 = CIRCLE ( 'NONE', #395, 1.000000000000000888 ) ;
#597 = DIRECTION ( 'NONE',  ( -0.4509519152491099359, 0.000000000000000000, 0.8925482452692177215 ) ) ;
#598 = ORIENTED_EDGE ( 'NONE', *, *, #1191, .T. ) ;
#599 = EDGE_CURVE ( 'NONE', #685, #685, #709, .T. ) ;
#600 = APPLICATION_PROTOCOL_DEFINITION ( 'draft international standard', 'automotive_design', 1998, #358 ) ;
#601 = ORIENTED_EDGE ( 'NONE', *, *, #724, .F. ) ;
#602 = DIRECTION ( 'NONE',  ( 0.000000000000000000, 1.000000000000000000, 0.000000000000000000 ) ) ;
#603 = DIRECTION ( 'NONE',  ( 1.000000000000000000, 0.000000000000000000, 0.000000000000000000 ) ) ;
#604 = ORIENTED_EDGE ( 'NONE', *, *, #1105, .T. ) ;
#605 = LINE ( 'NONE', #86, #923 ) ;
#606 = DIRECTION ( 'NONE',  ( 0.000000000000000000, 1.000000000000000000, 0.000000000000000000 ) ) ;
#607 = ADVANCED_FACE ( 'NONE', ( #1161 ), #715, .F. ) ;
#608 = DIRECTION ( 'NONE',  ( 1.000000000000000000, 0.000000000000000000, 0.000000000000000000 ) ) ;
#609 = LINE ( 'NONE', #908, #801 ) ;
#610 = ORIENTED_EDGE ( 'NONE', *, *, #1034, .F. ) ;
#611 = ADVANCED_BREP_SHAPE_REPRESENTATION ( '20260414_160844_170', ( #520, #217 ), #67 ) ;
#612 = PRODUCT_DEFINITION_CONTEXT ( 'detailed design', #153, 'design' ) ;
#613 =( NAMED_UNIT ( * ) SI_UNIT ( $, .STERADIAN. ) SOLID_ANGLE_UNIT ( ) );
#614 = AXIS2_PLACEMENT_3D ( 'NONE', #1011, #94, #841 ) ;
#615 = EDGE_CURVE ( 'NONE', #501, #159, #531, .T. ) ;
#616 = CARTESIAN_POINT ( 'NONE',  ( 65.70381446740600495, 31.51571887675100214, 5.653306721842999316 ) ) ;
#617 = VECTOR ( 'NONE', #939, 1000.000000000000000 ) ;
#618 = CYLINDRICAL_SURFACE ( 'NONE', #843, 3.410829480385003443 ) ;
#619 = EDGE_CURVE ( 'NONE', #872, #114, #480, .T. ) ;
#620 = VERTEX_POINT ( 'NONE', #8 ) ;
#621 = VECTOR ( 'NONE', #5, 1000.000000000000000 ) ;
#622 = DIRECTION ( 'NONE',  ( 0.000000000000000000, 1.000000000000000000, 0.000000000000000000 ) ) ;
#623 = VECTOR ( 'NONE', #646, 1000.000000000000000 ) ;
#624 = CARTESIAN_POINT ( 'NONE',  ( 33.32258591396600167, 35.41867399186800469, 12.41079704793299854 ) ) ;
#625 = LINE ( 'NONE', #432, #109 ) ;
#626 = CARTESIAN_POINT ( 'NONE',  ( 50.99708656394099648, 35.41867399186800469, 12.41079704793299854 ) ) ;
#627 = ORIENTED_EDGE ( 'NONE', *, *, #570, .T. ) ;
#628 = CARTESIAN_POINT ( 'NONE',  ( 0.000000000000000000, 47.96802459287900433, 0.000000000000000000 ) ) ;
#629 = DIRECTION ( 'NONE',  ( 0.4900478647511450903, 0.8716955261172580904, 0.000000000000000000 ) ) ;
#630 = DIRECTION ( 'NONE',  ( 4.676488889744999840E-32, 5.966745564259000225E-31, -1.000000000000000000 ) ) ;
#631 = DIRECTION ( 'NONE',  ( 0.000000000000000000, 0.000000000000000000, -1.000000000000000000 ) ) ;
#632 = EDGE_LOOP ( 'NONE', ( #980 ) ) ;
#633 = DIRECTION ( 'NONE',  ( 0.7687422148172479153, 0.6395587597382058620, 0.000000000000000000 ) ) ;
#634 = CARTESIAN_POINT ( 'NONE',  ( 33.32258591396600167, 47.96802459287900433, 27.16886408708500156 ) ) ;
#635 = DIRECTION ( 'NONE',  ( 0.000000000000000000, 0.000000000000000000, 1.000000000000000000 ) ) ;
#636 = ORIENTED_EDGE ( 'NONE', *, *, #399, .T. ) ;
#637 = VECTOR ( 'NONE', #83, 1000.000000000000000 ) ;
#638 = DIRECTION ( 'NONE',  ( 0.000000000000000000, -1.000000000000000000, 0.000000000000000000 ) ) ;
#639 = SURFACE_STYLE_USAGE ( .BOTH. , #792 ) ;
#640 = ORIENTED_EDGE ( 'NONE', *, *, #148, .F. ) ;
#641 = VECTOR ( 'NONE', #325, 1000.000000000000000 ) ;
#642 = ADVANCED_FACE ( 'NONE', ( #548, #185 ), #265, .F. ) ;
#643 = CARTESIAN_POINT ( 'NONE',  ( 65.70381446740600495, 47.96802459287900433, 27.16886408708500156 ) ) ;
#644 = FACE_OUTER_BOUND ( 'NONE', #1036, .T. ) ;
#645 = ORIENTED_EDGE ( 'NONE', *, *, #552, .F. ) ;
#646 = DIRECTION ( 'NONE',  ( 0.000000000000000000, 0.000000000000000000, -1.000000000000000000 ) ) ;
#647 = ORIENTED_EDGE ( 'NONE', *, *, #893, .T. ) ;
#648 = DIRECTION ( 'NONE',  ( -0.4509519152491098248, 0.000000000000000000, 0.8925482452692177215 ) ) ;
#649 = ADVANCED_FACE ( 'NONE', ( #849 ), #382, .F. ) ;
#650 = DIRECTION ( 'NONE',  ( -0.9826872286337592355, 0.000000000000000000, -0.1852722609569545376 ) ) ;
#651 = ORIENTED_EDGE ( 'NONE', *, *, #30, .T. ) ;
#652 = DIRECTION ( 'NONE',  ( 0.6395587597382059730, -0.7687422148172480263, 0.000000000000000000 ) ) ;
#653 = VERTEX_POINT ( 'NONE', #454 ) ;
#654 = PLANE ( 'NONE',  #329 ) ;
#655 = VERTEX_POINT ( 'NONE', #104 ) ;
#656 = EDGE_CURVE ( 'NONE', #736, #655, #560, .T. ) ;
#657 = CARTESIAN_POINT ( 'NONE',  ( 21.46431586348600007, 0.000000000000000000, 24.72844451630399831 ) ) ;
#658 = VERTEX_POINT ( 'NONE', #931 ) ;
#659 = VECTOR ( 'NONE', #1185, 1000.000000000000000 ) ;
#660 = ORIENTED_EDGE ( 'NONE', *, *, #805, .F. ) ;
#661 = AXIS2_PLACEMENT_3D ( 'NONE', #958, #866, #1137 ) ;
#662 = VECTOR ( 'NONE', #575, 1000.000000000000000 ) ;
#663 = CARTESIAN_POINT ( 'NONE',  ( 19.56057211267799900, 47.96802459287900433, 23.09229534620500246 ) ) ;
#664 = VERTEX_POINT ( 'NONE', #269 ) ;
#665 = DIRECTION ( 'NONE',  ( 1.000000000000000000, 0.000000000000000000, 0.000000000000000000 ) ) ;
#666 = ORIENTED_EDGE ( 'NONE', *, *, #898, .T. ) ;
#667 = EDGE_CURVE ( 'NONE', #1195, #896, #87, .T. ) ;
#668 = DIRECTION ( 'NONE',  ( 0.6395587597382058620, -0.7687422148172479153, 0.000000000000000000 ) ) ;
#669 = ORIENTED_EDGE ( 'NONE', *, *, #1120, .T. ) ;
#670 = DIRECTION ( 'NONE',  ( -0.9826872286337592355, 0.000000000000000000, -0.1852722609569545376 ) ) ;
#671 = ORIENTED_EDGE ( 'NONE', *, *, #1003, .T. ) ;
#672 = CARTESIAN_POINT ( 'NONE',  ( 26.95995002823000064, 33.98925750170400306, 25.46785244654299873 ) ) ;
#673 = VERTEX_POINT ( 'NONE', #579 ) ;
#674 = ORIENTED_EDGE ( 'NONE', *, *, #1120, .F. ) ;
#675 = CARTESIAN_POINT ( 'NONE',  ( 0.000000000000000000, 47.96802459287900433, 0.000000000000000000 ) ) ;
#676 = EDGE_LOOP ( 'NONE', ( #773, #7 ) ) ;
#677 = CARTESIAN_POINT ( 'NONE',  ( 42.15983623895400001, 41.69334929237399479, 12.41079704793299854 ) ) ;
#678 = AXIS2_PLACEMENT_3D ( 'NONE', #408, #941, #764 ) ;
#679 = ADVANCED_FACE ( 'NONE', ( #742, #357 ), #276, .F. ) ;
#680 = VECTOR ( 'NONE', #1066, 1000.000000000000000 ) ;
#681 = CARTESIAN_POINT ( 'NONE',  ( 0.000000000000000000, 0.000000000000000000, 0.000000000000000000 ) ) ;
#682 = CARTESIAN_POINT ( 'NONE',  ( 0.000000000000000000, 0.000000000000000000, 0.000000000000000000 ) ) ;
#683 = CARTESIAN_POINT ( 'NONE',  ( 0.000000000000000000, 19.04228445454499763, 48.04734269863000407 ) ) ;
#684 = CARTESIAN_POINT ( 'NONE',  ( 0.000000000000000000, 0.000000000000000000, 0.000000000000000000 ) ) ;
#685 = VERTEX_POINT ( 'NONE', #1115 ) ;
#686 = ADVANCED_FACE ( 'NONE', ( #472 ), #260, .F. ) ;
#687 = CARTESIAN_POINT ( 'NONE',  ( 25.92014051904600080, 47.96802459287900433, 24.16400096359000216 ) ) ;
#688 = ORIENTED_EDGE ( 'NONE', *, *, #163, .T. ) ;
#689 = DIRECTION ( 'NONE',  ( 0.000000000000000000, 1.000000000000000000, 0.000000000000000000 ) ) ;
#690 = PRODUCT_RELATED_PRODUCT_CATEGORY ( 'part', '', ( #828 ) ) ;
#691 = CARTESIAN_POINT ( 'NONE',  ( 21.46431586348600007, 47.96802459287900433, 24.72844451630399831 ) ) ;
#692 = EDGE_LOOP ( 'NONE', ( #84, #812, #951, #903 ) ) ;
#693 = EDGE_CURVE ( 'NONE', #763, #655, #110, .T. ) ;
#694 = VECTOR ( 'NONE', #631, 1000.000000000000000 ) ;
#695 = VERTEX_POINT ( 'NONE', #499 ) ;
#696 = CIRCLE ( 'NONE', #1049, 3.410829480385003443 ) ;
#697 = CARTESIAN_POINT ( 'NONE',  ( 26.95995002823000064, 47.96802459287900433, 25.46785244654299873 ) ) ;
#698 = EDGE_LOOP ( 'NONE', ( #1095, #259, #420, #414 ) ) ;
#699 = ORIENTED_EDGE ( 'NONE', *, *, #233, .T. ) ;
#700 = DIRECTION ( 'NONE',  ( 1.000000000000000000, 0.000000000000000000, 4.676488889744999840E-32 ) ) ;
#701 = CARTESIAN_POINT ( 'NONE',  ( 26.95995002823000064, 47.96802459287900433, 25.46785244654299873 ) ) ;
#702 = ORIENTED_EDGE ( 'NONE', *, *, #250, .T. ) ;
#703 = ADVANCED_FACE ( 'NONE', ( #1001 ), #174, .F. ) ;
#704 = CARTESIAN_POINT ( 'NONE',  ( 0.000000000000000000, 0.000000000000000000, 0.000000000000000000 ) ) ;
#705 = LINE ( 'NONE', #785, #372 ) ;
#706 = LINE ( 'NONE', #790, #511 ) ;
#707 = ORIENTED_EDGE ( 'NONE', *, *, #85, .T. ) ;
#708 =( NAMED_UNIT ( * ) SI_UNIT ( $, .STERADIAN. ) SOLID_ANGLE_UNIT ( ) );
#709 = CIRCLE ( 'NONE', #770, 2.150313248005998545 ) ;
#710 = LINE ( 'NONE', #819, #641 ) ;
#711 = ADVANCED_FACE ( 'NONE', ( #362 ), #462, .F. ) ;
#712 = AXIS2_PLACEMENT_3D ( 'NONE', #216, #957, #130 ) ;
#713 = FACE_OUTER_BOUND ( 'NONE', #318, .T. ) ;
#714 = VERTEX_POINT ( 'NONE', #657 ) ;
#715 = PLANE ( 'NONE',  #915 ) ;
#716 = LINE ( 'NONE', #894, #995 ) ;
#717 = LINE ( 'NONE', #245, #694 ) ;
#718 = EDGE_LOOP ( 'NONE', ( #363 ) ) ;
#719 = DIRECTION ( 'NONE',  ( 0.000000000000000000, 0.000000000000000000, 1.000000000000000000 ) ) ;
#720 = FACE_OUTER_BOUND ( 'NONE', #473, .T. ) ;
#721 = LINE ( 'NONE', #158, #1030 ) ;
#722 = ORIENTED_EDGE ( 'NONE', *, *, #33, .F. ) ;
#723 = DIRECTION ( 'NONE',  ( -0.000000000000000000, 1.000000000000000000, 0.000000000000000000 ) ) ;
#724 = EDGE_CURVE ( 'NONE', #350, #196, #926, .T. ) ;
#725 = CARTESIAN_POINT ( 'NONE',  ( 16.35909669697900171, 21.78466263304800066, 0.000000000000000000 ) ) ;
#726 = VECTOR ( 'NONE', #297, 1000.000000000000114 ) ;
#727 = CARTESIAN_POINT ( 'NONE',  ( 16.35909669697900171, 21.78466263304800066, 13.41286178648900140 ) ) ;
#728 = ORIENTED_EDGE ( 'NONE', *, *, #429, .T. ) ;
#729 = VECTOR ( 'NONE', #223, 1000.000000000000227 ) ;
#730 = VECTOR ( 'NONE', #630, 1000.000000000000000 ) ;
#731 = PRESENTATION_STYLE_ASSIGNMENT (( #639 ) ) ;
#732 = VECTOR ( 'NONE', #797, 1000.000000000000114 ) ;
#733 = EDGE_CURVE ( 'NONE', #664, #835, #99, .T. ) ;
#734 = DIRECTION ( 'NONE',  ( 0.000000000000000000, 0.000000000000000000, 1.000000000000000000 ) ) ;
#735 = CARTESIAN_POINT ( 'NONE',  ( 21.46431586348600007, 47.96802459287900433, 24.72844451630399831 ) ) ;
#736 = VERTEX_POINT ( 'NONE', #755 ) ;
#737 = DIRECTION ( 'NONE',  ( 0.000000000000000000, 1.000000000000000000, 0.000000000000000000 ) ) ;
#738 = EDGE_LOOP ( 'NONE', ( #463, #471, #81, #136, #803, #750 ) ) ;
#739 = EDGE_CURVE ( 'NONE', #620, #32, #1112, .T. ) ;
#740 = DIRECTION ( 'NONE',  ( 0.000000000000000000, -1.000000000000000000, 0.000000000000000000 ) ) ;
#741 = ORIENTED_EDGE ( 'NONE', *, *, #656, .F. ) ;
#742 = FACE_OUTER_BOUND ( 'NONE', #953, .T. ) ;
#743 = ORIENTED_EDGE ( 'NONE', *, *, #907, .T. ) ;
#744 = EDGE_LOOP ( 'NONE', ( #270, #1183, #426, #582 ) ) ;
#745 = CARTESIAN_POINT ( 'NONE',  ( 25.15422715690199951, 33.98925750170400306, 25.67993781692999988 ) ) ;
#746 = ADVANCED_FACE ( 'NONE', ( #573 ), #935, .F. ) ;
#747 = ORIENTED_EDGE ( 'NONE', *, *, #1142, .F. ) ;
#748 = DIRECTION ( 'NONE',  ( -0.000000000000000000, 1.000000000000000000, 0.000000000000000000 ) ) ;
#749 = ORIENTED_EDGE ( 'NONE', *, *, #300, .T. ) ;
#750 = ORIENTED_EDGE ( 'NONE', *, *, #179, .T. ) ;
#751 = VECTOR ( 'NONE', #522, 1000.000000000000000 ) ;
#752 = VECTOR ( 'NONE', #648, 1000.000000000000114 ) ;
#753 = DIRECTION ( 'NONE',  ( 0.000000000000000000, -1.000000000000000000, 0.000000000000000000 ) ) ;
#754 = EDGE_LOOP ( 'NONE', ( #95, #688, #909, #441, #808, #1073 ) ) ;
#755 = CARTESIAN_POINT ( 'NONE',  ( 0.000000000000000000, 47.96802459287900433, 27.16886408708500156 ) ) ;
#756 = LINE ( 'NONE', #224, #515 ) ;
#757 = CARTESIAN_POINT ( 'NONE',  ( 49.58263834163300743, 24.30073401654600218, 5.653306721842999316 ) ) ;
#758 = VERTEX_POINT ( 'NONE', #1140 ) ;
#759 = LINE ( 'NONE', #691, #89 ) ;
#760 = ORIENTED_EDGE ( 'NONE', *, *, #693, .T. ) ;
#761 = CARTESIAN_POINT ( 'NONE',  ( 0.000000000000000000, 31.51571887675100214, 57.52639916650600327 ) ) ;
#762 = CARTESIAN_POINT ( 'NONE',  ( 61.86055033565300221, 47.96802459287900433, 20.77068645646400213 ) ) ;
#763 = VERTEX_POINT ( 'NONE', #581 ) ;
#764 = DIRECTION ( 'NONE',  ( 0.000000000000000000, 5.966745564259000225E-31, -1.000000000000000000 ) ) ;
#765 = DIRECTION ( 'NONE',  ( 0.000000000000000000, 0.000000000000000000, 1.000000000000000000 ) ) ;
#766 = VECTOR ( 'NONE', #131, 1000.000000000000000 ) ;
#767 = PLANE ( 'NONE',  #66 ) ;
#768 = VECTOR ( 'NONE', #1081, 1000.000000000000114 ) ;
#769 = ADVANCED_FACE ( 'NONE', ( #871 ), #402, .F. ) ;
#770 = AXIS2_PLACEMENT_3D ( 'NONE', #428, #74, #443 ) ;
#771 =( LENGTH_UNIT ( ) NAMED_UNIT ( * ) SI_UNIT ( .MILLI., .METRE. ) );
#772 = FACE_BOUND ( 'NONE', #853, .T. ) ;
#773 = ORIENTED_EDGE ( 'NONE', *, *, #334, .T. ) ;
#774 = CARTESIAN_POINT ( 'NONE',  ( 65.70381446740600495, 0.000000000000000000, 0.000000000000000000 ) ) ;
#775 = EDGE_CURVE ( 'NONE', #196, #253, #759, .T. ) ;
#776 = DIRECTION ( 'NONE',  ( -0.7687422148172480263, -0.6395587597382059730, 0.000000000000000000 ) ) ;
#777 = EDGE_LOOP ( 'NONE', ( #837, #63, #936, #479 ) ) ;
#778 = FACE_OUTER_BOUND ( 'NONE', #194, .T. ) ;
#779 = FACE_BOUND ( 'NONE', #189, .T. ) ;
#780 = FACE_OUTER_BOUND ( 'NONE', #881, .T. ) ;
#781 = ORIENTED_EDGE ( 'NONE', *, *, #1102, .F. ) ;
#782 = FACE_OUTER_BOUND ( 'NONE', #744, .T. ) ;
#783 = PRODUCT_DEFINITION_FORMATION_WITH_SPECIFIED_SOURCE ( 'ไป', '', #828, .NOT_KNOWN. ) ;
#784 = VECTOR ( 'NONE', #1023, 1000.000000000000000 ) ;
#785 = CARTESIAN_POINT ( 'NONE',  ( 65.70381446740600495, 0.000000000000000000, 0.000000000000000000 ) ) ;
#786 = DIRECTION ( 'NONE',  ( 0.000000000000000000, 0.000000000000000000, 1.000000000000000000 ) ) ;
#787 = ORIENTED_EDGE ( 'NONE', *, *, #68, .F. ) ;
#788 = CARTESIAN_POINT ( 'NONE',  ( 14.82161226734400117, 20.50554511357199772, 0.000000000000000000 ) ) ;
#789 = LINE ( 'NONE', #379, #621 ) ;
#790 = CARTESIAN_POINT ( 'NONE',  ( 33.32258591396600167, 35.41867399186800469, 12.41079704793299854 ) ) ;
#791 = ORIENTED_EDGE ( 'NONE', *, *, #391, .T. ) ;
#792 = SURFACE_SIDE_STYLE ('',( #249 ) ) ;
#793 = EDGE_CURVE ( 'NONE', #872, #838, #301, .T. ) ;
#794 = LINE ( 'NONE', #643, #1163 ) ;
#795 = DIRECTION ( 'NONE',  ( 0.000000000000000000, 1.000000000000000000, 0.000000000000000000 ) ) ;
#796 = EDGE_LOOP ( 'NONE', ( #671, #1189, #299, #1040 ) ) ;
#797 = DIRECTION ( 'NONE',  ( 0.9931730912242150433, 0.000000000000000000, -0.1166499501420252133 ) ) ;
#798 = ADVANCED_FACE ( 'NONE', ( #490, #772, #310, #204, #116, #780 ), #1123, .T. ) ;
#799 = VECTOR ( 'NONE', #1028, 1000.000000000000000 ) ;
#800 = DIRECTION ( 'NONE',  ( 0.1852722609569545653, 0.000000000000000000, -0.9826872286337592355 ) ) ;
#801 = VECTOR ( 'NONE', #513, 1000.000000000000000 ) ;
#802 = DIRECTION ( 'NONE',  ( 1.000000000000000000, 0.000000000000000000, 0.000000000000000000 ) ) ;
#803 = ORIENTED_EDGE ( 'NONE', *, *, #562, .T. ) ;
#804 = DIRECTION ( 'NONE',  ( -0.8716955261172580904, 0.4900478647511450903, 0.000000000000000000 ) ) ;
#805 = EDGE_CURVE ( 'NONE', #876, #994, #287, .T. ) ;
#806 = LINE ( 'NONE', #540, #751 ) ;
#807 = EDGE_CURVE ( 'NONE', #132, #88, #860, .T. ) ;
#808 = ORIENTED_EDGE ( 'NONE', *, *, #39, .F. ) ;
#809 = DIRECTION ( 'NONE',  ( 0.000000000000000000, 1.000000000000000000, 0.000000000000000000 ) ) ;
#810 = CARTESIAN_POINT ( 'NONE',  ( 62.63977245092300450, 47.96802459287900433, 13.10959103551600080 ) ) ;
#811 =( NAMED_UNIT ( * ) PLANE_ANGLE_UNIT ( ) SI_UNIT ( $, .RADIAN. ) );
#812 = ORIENTED_EDGE ( 'NONE', *, *, #78, .T. ) ;
#813 = LINE ( 'NONE', #424, #730 ) ;
#814 = DIRECTION ( 'NONE',  ( -0.1852722609569545653, 0.000000000000000000, 0.9826872286337592355 ) ) ;
#815 = ORIENTED_EDGE ( 'NONE', *, *, #1003, .F. ) ;
#816 = EDGE_CURVE ( 'NONE', #673, #673, #1067, .T. ) ;
#817 = CARTESIAN_POINT ( 'NONE',  ( 19.56057211267799900, 47.96802459287900433, 23.09229534620500246 ) ) ;
#818 = VERTEX_POINT ( 'NONE', #218 ) ;
#819 = CARTESIAN_POINT ( 'NONE',  ( 20.51968469969499864, 47.96802459287900433, 25.82757148330099994 ) ) ;
#820 = VECTOR ( 'NONE', #143, 1000.000000000000114 ) ;
#821 = DIRECTION ( 'NONE',  ( 0.000000000000000000, 1.000000000000000000, 0.000000000000000000 ) ) ;
#822 = ORIENTED_EDGE ( 'NONE', *, *, #1041, .F. ) ;
#823 = AXIS2_PLACEMENT_3D ( 'NONE', #183, #814, #821 ) ;
#824 = CARTESIAN_POINT ( 'NONE',  ( 61.86055033565300221, 47.96802459287900433, 19.77068645646400213 ) ) ;
#825 = ADVANCED_FACE ( 'NONE', ( #506 ), #13, .F. ) ;
#826 = EDGE_LOOP ( 'NONE', ( #1043, #271, #58, #1160 ) ) ;
#827 = VECTOR ( 'NONE', #914, 1000.000000000000000 ) ;
#828 = PRODUCT ( '20260414_160844_170', '20260414_160844_170', '', ( #410 ) ) ;
#829 = CARTESIAN_POINT ( 'NONE',  ( 14.82161226734400117, 20.50554511357199772, 0.000000000000000000 ) ) ;
#830 = ORIENTED_EDGE ( 'NONE', *, *, #733, .F. ) ;
#831 = CARTESIAN_POINT ( 'NONE',  ( 62.63977245092300450, 47.96802459287900433, 13.10959103551600080 ) ) ;
#832 = VERTEX_POINT ( 'NONE', #500 ) ;
#833 = ORIENTED_EDGE ( 'NONE', *, *, #1165, .F. ) ;
#834 = CARTESIAN_POINT ( 'NONE',  ( 20.98475956997799940, 47.96802459287900433, 23.36080644775600135 ) ) ;
#835 = VERTEX_POINT ( 'NONE', #962 ) ;
#836 = CARTESIAN_POINT ( 'NONE',  ( 20.51968469969499864, 47.96802459287900433, 25.82757148330099994 ) ) ;
#837 = ORIENTED_EDGE ( 'NONE', *, *, #187, .T. ) ;
#838 = VERTEX_POINT ( 'NONE', #1052 ) ;
#839 = CARTESIAN_POINT ( 'NONE',  ( 25.01976021094399982, 31.51571887675100214, 57.52639916650600327 ) ) ;
#840 = ORIENTED_EDGE ( 'NONE', *, *, #1037, .F. ) ;
#841 = DIRECTION ( 'NONE',  ( -0.6517940989220201153, 0.000000000000000000, 0.7583959734930241225 ) ) ;
#842 = ORIENTED_EDGE ( 'NONE', *, *, #256, .T. ) ;
#843 = AXIS2_PLACEMENT_3D ( 'NONE', #338, #993, #1166 ) ;
#844 = CARTESIAN_POINT ( 'NONE',  ( 25.92014051904600080, 47.96802459287900433, 24.16400096359000216 ) ) ;
#845 = CIRCLE ( 'NONE', #314, 1.000000000000000888 ) ;
#846 = VERTEX_POINT ( 'NONE', #385 ) ;
#847 = ORIENTED_EDGE ( 'NONE', *, *, #928, .T. ) ;
#848 = ADVANCED_FACE ( 'NONE', ( #854, #387 ), #496, .F. ) ;
#849 = FACE_OUTER_BOUND ( 'NONE', #186, .T. ) ;
#850 = ORIENTED_EDGE ( 'NONE', *, *, #512, .T. ) ;
#851 = DIRECTION ( 'NONE',  ( -0.7687422148172479153, -0.6395587597382058620, 0.000000000000000000 ) ) ;
#852 = DIRECTION ( 'NONE',  ( 0.000000000000000000, 0.000000000000000000, 1.000000000000000000 ) ) ;
#853 = EDGE_LOOP ( 'NONE', ( #1193 ) ) ;
#854 = FACE_OUTER_BOUND ( 'NONE', #855, .T. ) ;
#855 = EDGE_LOOP ( 'NONE', ( #213 ) ) ;
#856 = CARTESIAN_POINT ( 'NONE',  ( 26.00995229987400137, 33.98925750170400306, 25.11648867237300209 ) ) ;
#857 = ADVANCED_FACE ( 'NONE', ( #209 ), #20, .F. ) ;
#858 = FACE_OUTER_BOUND ( 'NONE', #1190, .T. ) ;
#859 = PLANE ( 'NONE',  #393 ) ;
#860 = LINE ( 'NONE', #697, #236 ) ;
#861 = ORIENTED_EDGE ( 'NONE', *, *, #570, .F. ) ;
#862 = VECTOR ( 'NONE', #195, 1000.000000000000114 ) ;
#863 = VECTOR ( 'NONE', #1186, 1000.000000000000227 ) ;
#864 = EDGE_CURVE ( 'NONE', #113, #113, #44, .T. ) ;
#865 = DIRECTION ( 'NONE',  ( 1.000000000000000000, 0.000000000000000000, 0.000000000000000000 ) ) ;
#866 = DIRECTION ( 'NONE',  ( 0.7687422148172480263, 0.6395587597382059730, 0.000000000000000000 ) ) ;
#867 = EDGE_LOOP ( 'NONE', ( #111, #651, #210, #749 ) ) ;
#868 = CARTESIAN_POINT ( 'NONE',  ( 65.70381446740600495, 0.000000000000000000, 0.000000000000000000 ) ) ;
#869 = ADVANCED_FACE ( 'NONE', ( #952 ), #126, .F. ) ;
#870 = FACE_OUTER_BOUND ( 'NONE', #277, .T. ) ;
#871 = FACE_OUTER_BOUND ( 'NONE', #280, .T. ) ;
#872 = VERTEX_POINT ( 'NONE', #306 ) ;
#873 = CARTESIAN_POINT ( 'NONE',  ( 0.000000000000000000, 31.51571887675100214, 27.16886408708500156 ) ) ;
#874 = CARTESIAN_POINT ( 'NONE',  ( 0.000000000000000000, 0.000000000000000000, 0.000000000000000000 ) ) ;
#875 = CARTESIAN_POINT ( 'NONE',  ( 20.94672919523699761, 13.14322557456000062, 0.000000000000000000 ) ) ;
#876 = VERTEX_POINT ( 'NONE', #975 ) ;
#877 = CARTESIAN_POINT ( 'NONE',  ( 20.51968469969499864, 47.96802459287900433, 25.82757148330099994 ) ) ;
#878 = LINE ( 'NONE', #1054, #198 ) ;
#879 = VECTOR ( 'NONE', #606, 1000.000000000000000 ) ;
#880 = AXIS2_PLACEMENT_3D ( 'NONE', #683, #225, #1038 ) ;
#881 = EDGE_LOOP ( 'NONE', ( #491, #830, #636, #4, #1177, #205, #588, #534 ) ) ;
#882 = LINE ( 'NONE', #244, #536 ) ;
#883 = STYLED_ITEM ( 'NONE', ( #731 ), #520 ) ;
#884 = CARTESIAN_POINT ( 'NONE',  ( 0.000000000000000000, 0.000000000000000000, 57.52639916650600327 ) ) ;
#885 = ORIENTED_EDGE ( 'NONE', *, *, #123, .T. ) ;
#886 = ADVANCED_FACE ( 'NONE', ( #1063 ), #326, .F. ) ;
#887 = LINE ( 'NONE', #442, #164 ) ;
#888 = CARTESIAN_POINT ( 'NONE',  ( 22.48421362487200170, 14.42234309403600001, 0.000000000000000000 ) ) ;
#889 = LINE ( 'NONE', #70, #752 ) ;
#890 = CARTESIAN_POINT ( 'NONE',  ( 25.01976021094399982, 31.51571887675100214, 5.653306721842999316 ) ) ;
#891 = EDGE_LOOP ( 'NONE', ( #344, #386, #175, #885 ) ) ;
#892 = PLANE ( 'NONE',  #352 ) ;
#893 = EDGE_CURVE ( 'NONE', #41, #1008, #609, .T. ) ;
#894 = CARTESIAN_POINT ( 'NONE',  ( 33.32258591396600167, 35.41867399186800469, 27.16886408708500156 ) ) ;
#895 = CARTESIAN_POINT ( 'NONE',  ( 65.70381446740600495, 47.96802459287900433, 27.16886408708500156 ) ) ;
#896 = VERTEX_POINT ( 'NONE', #626 ) ;
#897 = ADVANCED_FACE ( 'NONE', ( #146 ), #527, .F. ) ;
#898 = EDGE_CURVE ( 'NONE', #758, #580, #806, .T. ) ;
#899 = VECTOR ( 'NONE', #795, 1000.000000000000000 ) ;
#900 = CARTESIAN_POINT ( 'NONE',  ( 34.17306986498499555, 26.36993148083899996, 57.52639916650600327 ) ) ;
#901 = VECTOR ( 'NONE', #984, 1000.000000000000000 ) ;
#902 = CARTESIAN_POINT ( 'NONE',  ( 20.94672919523699761, 13.14322557456000062, 13.41286178648900140 ) ) ;
#903 = ORIENTED_EDGE ( 'NONE', *, *, #807, .F. ) ;
#904 = DIRECTION ( 'NONE',  ( 0.000000000000000000, 1.000000000000000000, 0.000000000000000000 ) ) ;
#905 = CARTESIAN_POINT ( 'NONE',  ( 25.01976021094399982, 31.51571887675100214, 57.52639916650600327 ) ) ;
#906 = CARTESIAN_POINT ( 'NONE',  ( 60.97960483736699189, 47.96802459287900433, 23.22183200662900049 ) ) ;
#907 = EDGE_CURVE ( 'NONE', #580, #896, #706, .T. ) ;
#908 = CARTESIAN_POINT ( 'NONE',  ( 33.32258591396600167, 47.96802459287900433, 27.16886408708500156 ) ) ;
#909 = ORIENTED_EDGE ( 'NONE', *, *, #334, .F. ) ;
#910 = DIRECTION ( 'NONE',  ( -1.000000000000000000, 0.000000000000000000, -4.676488889744999840E-32 ) ) ;
#911 = CARTESIAN_POINT ( 'NONE',  ( 20.98475956997799940, 47.96802459287900433, 23.36080644775600135 ) ) ;
#912 = DIRECTION ( 'NONE',  ( 0.9436682344500373354, 0.000000000000000000, -0.3308931297110132008 ) ) ;
#913 = ORIENTED_EDGE ( 'NONE', *, *, #965, .F. ) ;
#914 = DIRECTION ( 'NONE',  ( 0.000000000000000000, -1.000000000000000000, 0.000000000000000000 ) ) ;
#915 = AXIS2_PLACEMENT_3D ( 'NONE', #243, #629, #983 ) ;
#916 = DIRECTION ( 'NONE',  ( 0.000000000000000000, 1.000000000000000000, 0.000000000000000000 ) ) ;
#917 = EDGE_LOOP ( 'NONE', ( #302, #378, #822, #555 ) ) ;
#918 = VECTOR ( 'NONE', #1045, 1000.000000000000114 ) ;
#919 = AXIS2_PLACEMENT_3D ( 'NONE', #296, #384, #316 ) ;
#920 = CARTESIAN_POINT ( 'NONE',  ( 0.000000000000000000, 31.51571887675100214, 27.16886408708500156 ) ) ;
#921 = CARTESIAN_POINT ( 'NONE',  ( 50.99708656394099648, 47.96802459287900433, 12.41079704793299854 ) ) ;
#922 = ADVANCED_FACE ( 'NONE', ( #713 ), #230, .T. ) ;
#923 = VECTOR ( 'NONE', #341, 1000.000000000000114 ) ;
#924 = DIRECTION ( 'NONE',  ( 0.000000000000000000, 1.000000000000000000, 0.000000000000000000 ) ) ;
#925 = ORIENTED_EDGE ( 'NONE', *, *, #415, .F. ) ;
#926 = LINE ( 'NONE', #836, #239 ) ;
#927 = ORIENTED_EDGE ( 'NONE', *, *, #775, .F. ) ;
#928 = EDGE_CURVE ( 'NONE', #253, #620, #721, .T. ) ;
#929 = LINE ( 'NONE', #829, #863 ) ;
#930 = ORIENTED_EDGE ( 'NONE', *, *, #399, .F. ) ;
#931 = CARTESIAN_POINT ( 'NONE',  ( 25.92014051904600080, 47.96802459287900433, 24.16400096359000216 ) ) ;
#932 = EDGE_CURVE ( 'NONE', #838, #355, #71, .T. ) ;
#933 = DIRECTION ( 'NONE',  ( 0.000000000000000000, -1.000000000000000000, 0.000000000000000000 ) ) ;
#934 = ORIENTED_EDGE ( 'NONE', *, *, #391, .F. ) ;
#935 = PLANE ( 'NONE',  #1179 ) ;
#936 = ORIENTED_EDGE ( 'NONE', *, *, #1097, .F. ) ;
#937 = DIRECTION ( 'NONE',  ( 1.000000000000000000, 0.000000000000000000, 0.000000000000000000 ) ) ;
#938 = AXIS2_PLACEMENT_3D ( 'NONE', #262, #800, #165 ) ;
#939 = DIRECTION ( 'NONE',  ( 0.000000000000000000, 1.000000000000000000, 0.000000000000000000 ) ) ;
#940 = VERTEX_POINT ( 'NONE', #57 ) ;
#941 = DIRECTION ( 'NONE',  ( 0.000000000000000000, -1.000000000000000000, -5.966745564259000225E-31 ) ) ;
#942 = EDGE_LOOP ( 'NONE', ( #591 ) ) ;
#943 = PLANE ( 'NONE',  #992 ) ;
#944 = CARTESIAN_POINT ( 'NONE',  ( 21.11302779064899937, 0.000000000000000000, 21.28593328010800079 ) ) ;
#945 = FACE_OUTER_BOUND ( 'NONE', #361, .T. ) ;
#946 = EDGE_CURVE ( 'NONE', #41, #736, #252, .T. ) ;
#947 = CARTESIAN_POINT ( 'NONE',  ( 25.01976021094399982, 31.51571887675100214, 57.52639916650600327 ) ) ;
#948 = VERTEX_POINT ( 'NONE', #1147 ) ;
#949 = EDGE_CURVE ( 'NONE', #835, #574, #62, .T. ) ;
#950 = FACE_BOUND ( 'NONE', #676, .T. ) ;
#951 = ORIENTED_EDGE ( 'NONE', *, *, #359, .F. ) ;
#952 = FACE_OUTER_BOUND ( 'NONE', #98, .T. ) ;
#953 = EDGE_LOOP ( 'NONE', ( #1111 ) ) ;
#954 = VECTOR ( 'NONE', #190, 1000.000000000000000 ) ;
#955 = EDGE_CURVE ( 'NONE', #355, #105, #317, .T. ) ;
#956 = VECTOR ( 'NONE', #668, 1000.000000000000227 ) ;
#957 = DIRECTION ( 'NONE',  ( 0.000000000000000000, 1.000000000000000000, 0.000000000000000000 ) ) ;
#958 = CARTESIAN_POINT ( 'NONE',  ( 16.35909669697900171, 21.78466263304800066, 0.000000000000000000 ) ) ;
#959 = ORIENTED_EDGE ( 'NONE', *, *, #493, .F. ) ;
#960 = DIRECTION ( 'NONE',  ( 1.000000000000000000, 0.000000000000000000, 0.000000000000000000 ) ) ;
#961 = CARTESIAN_POINT ( 'NONE',  ( 25.01976021094399982, 31.51571887675100214, 57.52639916650600327 ) ) ;
#962 = CARTESIAN_POINT ( 'NONE',  ( 65.70381446740600495, 47.96802459287900433, 0.000000000000000000 ) ) ;
#963 = VERTEX_POINT ( 'NONE', #419 ) ;
#964 = CARTESIAN_POINT ( 'NONE',  ( 26.95995002823000064, 47.96802459287900433, 25.46785244654299873 ) ) ;
#965 = EDGE_CURVE ( 'NONE', #818, #872, #1086, .T. ) ;
#966 = CARTESIAN_POINT ( 'NONE',  ( 31.19986506658399961, 28.04140118473199905, 57.52639916650600327 ) ) ;
#967 = EDGE_LOOP ( 'NONE', ( #598 ) ) ;
#968 = LINE ( 'NONE', #53, #538 ) ;
#969 = LINE ( 'NONE', #905, #820 ) ;
#970 = VECTOR ( 'NONE', #650, 1000.000000000000000 ) ;
#971 = VECTOR ( 'NONE', #38, 1000.000000000000000 ) ;
#972 = LINE ( 'NONE', #761, #1069 ) ;
#973 = COLOUR_RGB ( '',0.7921568627450980005, 0.8196078431372548767, 0.9333333333333333481 ) ;
#974 = ADVANCED_FACE ( 'NONE', ( #533 ), #433, .T. ) ;
#975 = CARTESIAN_POINT ( 'NONE',  ( 20.94672919523699761, 13.14322557456000062, 0.000000000000000000 ) ) ;
#976 = ORIENTED_EDGE ( 'NONE', *, *, #1055, .F. ) ;
#977 = LINE ( 'NONE', #149, #1122 ) ;
#978 = DIRECTION ( 'NONE',  ( 0.000000000000000000, -1.000000000000000000, 0.000000000000000000 ) ) ;
#979 = DIRECTION ( 'NONE',  ( 1.000000000000000000, 0.000000000000000000, 0.000000000000000000 ) ) ;
#980 = ORIENTED_EDGE ( 'NONE', *, *, #390, .T. ) ;
#981 = ADVANCED_FACE ( 'NONE', ( #139 ), #618, .F. ) ;
#982 = PLANE ( 'NONE',  #328 ) ;
#983 = DIRECTION ( 'NONE',  ( 0.000000000000000000, 0.000000000000000000, -1.000000000000000000 ) ) ;
#984 = DIRECTION ( 'NONE',  ( -1.000000000000000000, 0.000000000000000000, 0.000000000000000000 ) ) ;
#985 = CARTESIAN_POINT ( 'NONE',  ( 14.82161226734400117, 20.50554511357199772, 0.000000000000000000 ) ) ;
#986 = ORIENTED_EDGE ( 'NONE', *, *, #68, .T. ) ;
#987 = DIRECTION ( 'NONE',  ( 0.8716955261172580904, -0.4900478647511450347, 0.000000000000000000 ) ) ;
#988 = DIRECTION ( 'NONE',  ( -0.8716955261172580904, 0.4900478647511450347, 0.000000000000000000 ) ) ;
#989 = EDGE_CURVE ( 'NONE', #127, #447, #717, .T. ) ;
#990 = VECTOR ( 'NONE', #279, 1000.000000000000000 ) ;
#991 = FACE_OUTER_BOUND ( 'NONE', #48, .T. ) ;
#992 = AXIS2_PLACEMENT_3D ( 'NONE', #197, #229, #412 ) ;
#993 = DIRECTION ( 'NONE',  ( 0.000000000000000000, 0.000000000000000000, 1.000000000000000000 ) ) ;
#994 = VERTEX_POINT ( 'NONE', #902 ) ;
#995 = VECTOR ( 'NONE', #61, 1000.000000000000000 ) ;
#996 = DIRECTION ( 'NONE',  ( 0.000000000000000000, 0.000000000000000000, -1.000000000000000000 ) ) ;
#997 = PLANE ( 'NONE',  #272 ) ;
#998 = DIRECTION ( 'NONE',  ( 0.000000000000000000, 0.000000000000000000, 1.000000000000000000 ) ) ;
#999 = DIRECTION ( 'NONE',  ( 0.000000000000000000, 0.000000000000000000, -1.000000000000000000 ) ) ;
#1000 = VERTEX_POINT ( 'NONE', #166 ) ;
#1001 = FACE_OUTER_BOUND ( 'NONE', #917, .T. ) ;
#1002 = DIRECTION ( 'NONE',  ( 0.1166499501420252272, 0.000000000000000000, 0.9931730912242151543 ) ) ;
#1003 = EDGE_CURVE ( 'NONE', #114, #355, #440, .T. ) ;
#1004 = ORIENTED_EDGE ( 'NONE', *, *, #1142, .T. ) ;
#1005 = DIRECTION ( 'NONE',  ( 1.000000000000000000, 0.000000000000000000, 0.000000000000000000 ) ) ;
#1006 = AXIS2_PLACEMENT_3D ( 'NONE', #810, #336, #719 ) ;
#1007 = PLANE ( 'NONE',  #22 ) ;
#1008 = VERTEX_POINT ( 'NONE', #258 ) ;
#1009 = ADVANCED_FACE ( 'NONE', ( #263 ), #1013, .T. ) ;
#1010 = VECTOR ( 'NONE', #1164, 1000.000000000000227 ) ;
#1011 = CARTESIAN_POINT ( 'NONE',  ( 19.56057211267799900, 47.96802459287900433, 23.09229534620500246 ) ) ;
#1012 = VERTEX_POINT ( 'NONE', #745 ) ;
#1013 = PLANE ( 'NONE',  #1196 ) ;
#1014 = ORIENTED_EDGE ( 'NONE', *, *, #1165, .T. ) ;
#1015 = DIRECTION ( 'NONE',  ( 0.000000000000000000, 0.000000000000000000, 1.000000000000000000 ) ) ;
#1016 = EDGE_LOOP ( 'NONE', ( #246 ) ) ;
#1017 = EDGE_CURVE ( 'NONE', #196, #714, #267, .T. ) ;
#1018 = ADVANCED_FACE ( 'NONE', ( #172 ), #1007, .F. ) ;
#1019 = DIRECTION ( 'NONE',  ( -1.000000000000000000, 0.000000000000000000, 0.000000000000000000 ) ) ;
#1020 = ORIENTED_EDGE ( 'NONE', *, *, #319, .T. ) ;
#1021 = DIRECTION ( 'NONE',  ( 0.000000000000000000, 1.000000000000000000, 0.000000000000000000 ) ) ;
#1022 = EDGE_LOOP ( 'NONE', ( #847, #549, #1082, #122 ) ) ;
#1023 = DIRECTION ( 'NONE',  ( 1.000000000000000000, 0.000000000000000000, 0.000000000000000000 ) ) ;
#1024 = EDGE_CURVE ( 'NONE', #963, #114, #451, .T. ) ;
#1025 = PLANE ( 'NONE',  #1143 ) ;
#1026 = ORIENTED_EDGE ( 'NONE', *, *, #864, .T. ) ;
#1027 = VECTOR ( 'NONE', #665, 1000.000000000000000 ) ;
#1028 = DIRECTION ( 'NONE',  ( 0.000000000000000000, 0.000000000000000000, 1.000000000000000000 ) ) ;
#1029 = ORIENTED_EDGE ( 'NONE', *, *, #123, .F. ) ;
#1030 = VECTOR ( 'NONE', #151, 1000.000000000000000 ) ;
#1031 = DIRECTION ( 'NONE',  ( 0.000000000000000000, 0.000000000000000000, 1.000000000000000000 ) ) ;
#1032 = DIRECTION ( 'NONE',  ( -0.6517940989220202264, 0.000000000000000000, 0.7583959734930241225 ) ) ;
#1033 = VECTOR ( 'NONE', #1171, 1000.000000000000227 ) ;
#1034 = EDGE_CURVE ( 'NONE', #367, #948, #346, .T. ) ;
#1035 = LINE ( 'NONE', #26, #617 ) ;
#1036 = EDGE_LOOP ( 'NONE', ( #842, #1118, #1099, #452 ) ) ;
#1037 = EDGE_CURVE ( 'NONE', #994, #461, #1094, .T. ) ;
#1038 = DIRECTION ( 'NONE',  ( 0.000000000000000000, 0.000000000000000000, -1.000000000000000000 ) ) ;
#1039 = PLANE ( 'NONE',  #141 ) ;
#1040 = ORIENTED_EDGE ( 'NONE', *, *, #619, .T. ) ;
#1041 = EDGE_CURVE ( 'NONE', #242, #32, #1174, .T. ) ;
#1042 = CARTESIAN_POINT ( 'NONE',  ( 20.94672919523699761, 13.14322557456000062, 0.000000000000000000 ) ) ;
#1043 = ORIENTED_EDGE ( 'NONE', *, *, #247, .T. ) ;
#1044 = CARTESIAN_POINT ( 'NONE',  ( 25.01976021094399982, 31.51571887675100214, 5.653306721842999316 ) ) ;
#1045 = DIRECTION ( 'NONE',  ( 0.9931730912242150433, 0.000000000000000000, -0.1166499501420252133 ) ) ;
#1046 = DIRECTION ( 'NONE',  ( 0.000000000000000000, -1.000000000000000000, 0.000000000000000000 ) ) ;
#1047 = ORIENTED_EDGE ( 'NONE', *, *, #733, .T. ) ;
#1048 = VECTOR ( 'NONE', #916, 1000.000000000000000 ) ;
#1049 = AXIS2_PLACEMENT_3D ( 'NONE', #64, #508, #516 ) ;
#1050 = PLANE ( 'NONE',  #237 ) ;
#1051 = DIRECTION ( 'NONE',  ( -4.676488889744999840E-32, 0.000000000000000000, 1.000000000000000000 ) ) ;
#1052 = CARTESIAN_POINT ( 'NONE',  ( 34.17306986498499555, 26.36993148083899996, 5.653306721842999316 ) ) ;
#1053 = VERTEX_POINT ( 'NONE', #77 ) ;
#1054 = CARTESIAN_POINT ( 'NONE',  ( 19.09549724239499824, 47.96802459287900433, 25.55906038174999750 ) ) ;
#1055 = EDGE_CURVE ( 'NONE', #876, #653, #446, .T. ) ;
#1056 = ORIENTED_EDGE ( 'NONE', *, *, #816, .F. ) ;
#1057 = CARTESIAN_POINT ( 'NONE',  ( 33.32258591396600167, 47.96802459287900433, 27.16886408708500156 ) ) ;
#1058 = DIRECTION ( 'NONE',  ( 1.000000000000000000, 0.000000000000000000, 0.000000000000000000 ) ) ;
#1059 = EDGE_LOOP ( 'NONE', ( #647, #335, #434, #925 ) ) ;
#1060 = DIRECTION ( 'NONE',  ( -0.3308931297110132008, 0.000000000000000000, -0.9436682344500373354 ) ) ;
#1061 = ADVANCED_FACE ( 'NONE', ( #644 ), #1098, .F. ) ;
#1062 = LINE ( 'NONE', #844, #971 ) ;
#1063 = FACE_OUTER_BOUND ( 'NONE', #692, .T. ) ;
#1064 = EDGE_LOOP ( 'NONE', ( #558 ) ) ;
#1065 = LINE ( 'NONE', #788, #459 ) ;
#1066 = DIRECTION ( 'NONE',  ( 1.000000000000000000, 0.000000000000000000, 0.000000000000000000 ) ) ;
#1067 = CIRCLE ( 'NONE', #161, 2.150313248005998545 ) ;
#1068 = VECTOR ( 'NONE', #1110, 1000.000000000000227 ) ;
#1069 = VECTOR ( 'NONE', #608, 1000.000000000000000 ) ;
#1070 = DIRECTION ( 'NONE',  ( 0.000000000000000000, -1.000000000000000000, 0.000000000000000000 ) ) ;
#1071 = DIRECTION ( 'NONE',  ( 1.000000000000000000, 0.000000000000000000, 0.000000000000000000 ) ) ;
#1072 = EDGE_CURVE ( 'NONE', #12, #758, #545, .T. ) ;
#1073 = ORIENTED_EDGE ( 'NONE', *, *, #965, .T. ) ;
#1074 = CARTESIAN_POINT ( 'NONE',  ( 14.82161226734400117, 20.50554511357199772, 13.41286178648900140 ) ) ;
#1075 = LINE ( 'NONE', #1074, #476 ) ;
#1076 = DIRECTION ( 'NONE',  ( 0.7818248623507619843, 0.000000000000000000, -0.6234981031328099554 ) ) ;
#1077 = ORIENTED_EDGE ( 'NONE', *, *, #423, .F. ) ;
#1078 = ADVANCED_FACE ( 'NONE', ( #1182 ), #654, .F. ) ;
#1079 = CARTESIAN_POINT ( 'NONE',  ( 22.48421362487200170, 14.42234309403600001, 0.000000000000000000 ) ) ;
#1080 = DIRECTION ( 'NONE',  ( 0.000000000000000000, 0.000000000000000000, -1.000000000000000000 ) ) ;
#1081 = DIRECTION ( 'NONE',  ( 0.8716955261172580904, -0.4900478647511450347, 0.000000000000000000 ) ) ;
#1082 = ORIENTED_EDGE ( 'NONE', *, *, #1017, .F. ) ;
#1083 = FILL_AREA_STYLE_COLOUR ( '', #973 ) ;
#1084 = ORIENTED_EDGE ( 'NONE', *, *, #805, .T. ) ;
#1085 = CIRCLE ( 'NONE', #1006, 1.000000000000000888 ) ;
#1086 = CIRCLE ( 'NONE', #220, 3.410829480385003443 ) ;
#1087 = LINE ( 'NONE', #257, #203 ) ;
#1088 = DIRECTION ( 'NONE',  ( -0.6395587597382058620, 0.7687422148172479153, 0.000000000000000000 ) ) ;
#1089 = EDGE_LOOP ( 'NONE', ( #601, #1108, #21, #295, #173, #927 ) ) ;
#1090 = CARTESIAN_POINT ( 'NONE',  ( 50.99708656394099648, 35.41867399186800469, 27.16886408708500156 ) ) ;
#1091 = EDGE_LOOP ( 'NONE', ( #1026 ) ) ;
#1092 = EDGE_CURVE ( 'NONE', #253, #242, #557, .T. ) ;
#1093 = DIRECTION ( 'NONE',  ( 1.000000000000000000, 1.603872052983000204E-28, 0.000000000000000000 ) ) ;
#1094 = LINE ( 'NONE', #465, #1068 ) ;
#1095 = ORIENTED_EDGE ( 'NONE', *, *, #989, .T. ) ;
#1096 = CARTESIAN_POINT ( 'NONE',  ( 22.48421362487200170, 14.42234309403600001, 0.000000000000000000 ) ) ;
#1097 = EDGE_CURVE ( 'NONE', #832, #1012, #177, .T. ) ;
#1098 = PLANE ( 'NONE',  #823 ) ;
#1099 = ORIENTED_EDGE ( 'NONE', *, *, #247, .F. ) ;
#1100 = CARTESIAN_POINT ( 'NONE',  ( 0.000000000000000000, 31.51571887675100214, 57.52639916650600327 ) ) ;
#1101 = VECTOR ( 'NONE', #73, 1000.000000000000000 ) ;
#1102 = EDGE_CURVE ( 'NONE', #653, #940, #929, .T. ) ;
#1103 = CARTESIAN_POINT ( 'NONE',  ( 0.000000000000000000, 0.000000000000000000, 57.52639916650600327 ) ) ;
#1104 = ORIENTED_EDGE ( 'NONE', *, *, #359, .T. ) ;
#1105 = EDGE_CURVE ( 'NONE', #369, #664, #470, .T. ) ;
#1106 = VECTOR ( 'NONE', #851, 1000.000000000000227 ) ;
#1107 = CARTESIAN_POINT ( 'NONE',  ( 0.000000000000000000, 47.96802459287900433, 27.16886408708500156 ) ) ;
#1108 = ORIENTED_EDGE ( 'NONE', *, *, #484, .F. ) ;
#1109 = ORIENTED_EDGE ( 'NONE', *, *, #365, .T. ) ;
#1110 = DIRECTION ( 'NONE',  ( -0.6395587597382058620, 0.7687422148172479153, 0.000000000000000000 ) ) ;
#1111 = ORIENTED_EDGE ( 'NONE', *, *, #52, .F. ) ;
#1112 = LINE ( 'NONE', #281, #509 ) ;
#1113 = DIRECTION ( 'NONE',  ( 0.000000000000000000, 0.000000000000000000, 1.000000000000000000 ) ) ;
#1114 = EDGE_CURVE ( 'NONE', #169, #1138, #97, .T. ) ;
#1115 = CARTESIAN_POINT ( 'NONE',  ( 7.749188202390999258, 19.04228445454499763, 45.89702945062400374 ) ) ;
#1116 = VERTEX_POINT ( 'NONE', #1103 ) ;
#1117 = DIRECTION ( 'NONE',  ( -0.3308931297110132008, 0.000000000000000000, -0.9436682344500373354 ) ) ;
#1118 = ORIENTED_EDGE ( 'NONE', *, *, #562, .F. ) ;
#1119 = LINE ( 'NONE', #10, #1106 ) ;
#1120 = EDGE_CURVE ( 'NONE', #501, #1172, #274, .T. ) ;
#1121 = CARTESIAN_POINT ( 'NONE',  ( 16.35909669697900171, 21.78466263304800066, 13.41286178648900140 ) ) ;
#1122 = VECTOR ( 'NONE', #524, 1000.000000000000114 ) ;
#1123 = PLANE ( 'NONE',  #125 ) ;
#1124 = VECTOR ( 'NONE', #91, 1000.000000000000114 ) ;
#1125 = FACE_OUTER_BOUND ( 'NONE', #28, .T. ) ;
#1126 = VECTOR ( 'NONE', #138, 1000.000000000000000 ) ;
#1127 = CARTESIAN_POINT ( 'NONE',  ( 62.63977245092300450, 35.89358469958600040, 13.10959103551600080 ) ) ;
#1128 = AXIS2_PLACEMENT_3D ( 'NONE', #824, #737, #1015 ) ;
#1129 = ADVANCED_FACE ( 'NONE', ( #589 ), #1050, .T. ) ;
#1130 =( NAMED_UNIT ( * ) PLANE_ANGLE_UNIT ( ) SI_UNIT ( $, .RADIAN. ) );
#1131 = ORIENTED_EDGE ( 'NONE', *, *, #60, .F. ) ;
#1132 = CARTESIAN_POINT ( 'NONE',  ( 60.97960483736699189, 47.96802459287900433, 23.22183200662900049 ) ) ;
#1133 = EDGE_LOOP ( 'NONE', ( #275 ) ) ;
#1134 = CARTESIAN_POINT ( 'NONE',  ( 20.51968469969499864, 47.96802459287900433, 25.82757148330099994 ) ) ;
#1135 = CARTESIAN_POINT ( 'NONE',  ( 25.01976021094399982, 31.51571887675100214, 5.653306721842999316 ) ) ;
#1136 = EDGE_CURVE ( 'NONE', #282, #169, #585, .T. ) ;
#1137 = DIRECTION ( 'NONE',  ( 0.000000000000000000, 0.000000000000000000, -1.000000000000000000 ) ) ;
#1138 = VERTEX_POINT ( 'NONE', #6 ) ;
#1139 = CARTESIAN_POINT ( 'NONE',  ( 60.97960483736699189, 34.07141638141599316, 24.22183200662900049 ) ) ;
#1140 = CARTESIAN_POINT ( 'NONE',  ( 33.32258591396600167, 47.96802459287900433, 12.41079704793299854 ) ) ;
#1141 = ORIENTED_EDGE ( 'NONE', *, *, #324, .F. ) ;
#1142 = EDGE_CURVE ( 'NONE', #1154, #835, #1035, .T. ) ;
#1143 = AXIS2_PLACEMENT_3D ( 'NONE', #682, #852, #120 ) ;
#1144 = LINE ( 'NONE', #24, #726 ) ;
#1145 = VECTOR ( 'NONE', #1060, 1000.000000000000114 ) ;
#1146 = CARTESIAN_POINT ( 'NONE',  ( 61.86055033565300221, 38.05552510271199651, 19.77068645646400213 ) ) ;
#1147 = CARTESIAN_POINT ( 'NONE',  ( 22.48421362487200170, 14.42234309403600001, 13.41286178648900140 ) ) ;
#1148 = EDGE_LOOP ( 'NONE', ( #286, #72, #791, #192, #514 ) ) ;
#1149 = DIRECTION ( 'NONE',  ( 0.000000000000000000, 0.000000000000000000, 1.000000000000000000 ) ) ;
#1150 = PLANE ( 'NONE',  #455 ) ;
#1151 = ADVANCED_FACE ( 'NONE', ( #779, #945 ), #211, .F. ) ;
#1152 = CARTESIAN_POINT ( 'NONE',  ( 65.70381446740600495, 8.644047151425001019, 57.52639916650600327 ) ) ;
#1153 = DIRECTION ( 'NONE',  ( 0.000000000000000000, 0.000000000000000000, 1.000000000000000000 ) ) ;
#1154 = VERTEX_POINT ( 'NONE', #774 ) ;
#1155 = DIRECTION ( 'NONE',  ( -0.7687422148172479153, -0.6395587597382058620, 0.000000000000000000 ) ) ;
#1156 = DIRECTION ( 'NONE',  ( -4.676488889744999840E-32, 0.000000000000000000, 1.000000000000000000 ) ) ;
#1157 = ADVANCED_FACE ( 'NONE', ( #950, #107, #870 ), #1025, .F. ) ;
#1158 = FACE_OUTER_BOUND ( 'NONE', #1091, .T. ) ;
#1159 = DIRECTION ( 'NONE',  ( -0.6395587597382059730, 0.7687422148172480263, 0.000000000000000000 ) ) ;
#1160 = ORIENTED_EDGE ( 'NONE', *, *, #445, .T. ) ;
#1161 = FACE_OUTER_BOUND ( 'NONE', #698, .T. ) ;
#1162 = VECTOR ( 'NONE', #635, 1000.000000000000000 ) ;
#1163 = VECTOR ( 'NONE', #438, 1000.000000000000000 ) ;
#1164 = DIRECTION ( 'NONE',  ( 0.6517940989220202264, 0.000000000000000000, -0.7583959734930241225 ) ) ;
#1165 = EDGE_CURVE ( 'NONE', #1012, #88, #405, .T. ) ;
#1166 = DIRECTION ( 'NONE',  ( 1.000000000000000000, 0.000000000000000000, 0.000000000000000000 ) ) ;
#1167 = ORIENTED_EDGE ( 'NONE', *, *, #25, .F. ) ;
#1168 = FACE_OUTER_BOUND ( 'NONE', #1059, .T. ) ;
#1169 = CARTESIAN_POINT ( 'NONE',  ( 65.70381446740600495, 8.644047151425001019, 57.52639916650600327 ) ) ;
#1170 = EDGE_LOOP ( 'NONE', ( #850, #108, #833, #507 ) ) ;
#1171 = DIRECTION ( 'NONE',  ( -0.6517940989220202264, 0.000000000000000000, 0.7583959734930241225 ) ) ;
#1172 = VERTEX_POINT ( 'NONE', #1135 ) ;
#1173 = LINE ( 'NONE', #521, #901 ) ;
#1174 = LINE ( 'NONE', #663, #1180 ) ;
#1175 = EDGE_LOOP ( 'NONE', ( #976, #1077, #1, #781 ) ) ;
#1176 = LINE ( 'NONE', #422, #1184 ) ;
#1177 = ORIENTED_EDGE ( 'NONE', *, *, #415, .T. ) ;
#1178 = ADVANCED_FACE ( 'NONE', ( #380 ), #859, .T. ) ;
#1179 = AXIS2_PLACEMENT_3D ( 'NONE', #947, #27, #135 ) ;
#1180 = VECTOR ( 'NONE', #193, 1000.000000000000000 ) ;
#1181 = CARTESIAN_POINT ( 'NONE',  ( 19.56057211267799900, 47.96802459287900433, 23.09229534620500246 ) ) ;
#1182 = FACE_OUTER_BOUND ( 'NONE', #1170, .T. ) ;
#1183 = ORIENTED_EDGE ( 'NONE', *, *, #179, .F. ) ;
#1184 = VECTOR ( 'NONE', #168, 1000.000000000000000 ) ;
#1185 = DIRECTION ( 'NONE',  ( 4.676488889744999840E-32, 5.966745564259000225E-31, -1.000000000000000000 ) ) ;
#1186 = DIRECTION ( 'NONE',  ( 0.7687422148172479153, 0.6395587597382058620, 0.000000000000000000 ) ) ;
#1187 = ORIENTED_EDGE ( 'NONE', *, *, #39, .T. ) ;
#1188 = DIRECTION ( 'NONE',  ( 0.000000000000000000, 1.000000000000000000, 0.000000000000000000 ) ) ;
#1189 = ORIENTED_EDGE ( 'NONE', *, *, #932, .F. ) ;
#1190 = EDGE_LOOP ( 'NONE', ( #986 ) ) ;
#1191 = EDGE_CURVE ( 'NONE', #11, #11, #475, .T. ) ;
#1192 = CARTESIAN_POINT ( 'NONE',  ( 13.81988265697400031, 0.000000000000000000, 10.51362892837999929 ) ) ;
#1193 = ORIENTED_EDGE ( 'NONE', *, *, #1191, .F. ) ;
#1194 = CARTESIAN_POINT ( 'NONE',  ( 25.01976021094399982, 31.51571887675100214, 57.52639916650600327 ) ) ;
#1195 = VERTEX_POINT ( 'NONE', #285 ) ;
#1196 = AXIS2_PLACEMENT_3D ( 'NONE', #460, #1019, #102 ) ;
#1197 = DIRECTION ( 'NONE',  ( 0.000000000000000000, -1.000000000000000000, 0.000000000000000000 ) ) ;
#1198 = EDGE_CURVE ( 'NONE', #940, #569, #394, .T. ) ;
ENDSEC;
END-ISO-10303-21;
