ISO-10303-21;
HEADER;
FILE_DESCRIPTION (( 'STEP AP214' ),
    '1' );
FILE_NAME ('20260414_160844_111.STEP',
    '2026-04-16T14:56:53',
    ( '' ),
    ( '' ),
    'SwSTEP 2.0',
    'SolidWorks 2025',
    '' );
FILE_SCHEMA (( 'AUTOMOTIVE_DESIGN' ));
ENDSEC;

DATA;
#1 = LINE ( 'NONE', #408, #39 ) ;
#2 = CARTESIAN_POINT ( 'NONE',  ( 76.19793320711599449, 16.01760949616000218, 12.17784399803999840 ) ) ;
#3 = EDGE_LOOP ( 'NONE', ( #421, #814, #146, #340 ) ) ;
#4 = VECTOR ( 'NONE', #272, 1000.000000000000000 ) ;
#5 = ORIENTED_EDGE ( 'NONE', *, *, #71, .F. ) ;
#6 = CIRCLE ( 'NONE', #495, 8.382353059134999285 ) ;
#7 = CARTESIAN_POINT ( 'NONE',  ( 31.39924158559999867, 0.000000000000000000, 0.000000000000000000 ) ) ;
#8 = AXIS2_PLACEMENT_3D ( 'NONE', #1033, #228, #964 ) ;
#9 = EDGE_CURVE ( 'NONE', #575, #32, #101, .T. ) ;
#10 = DIRECTION ( 'NONE',  ( -0.1360490996319702051, 0.000000000000000000, -0.9907020957327840049 ) ) ;
#11 = ORIENTED_EDGE ( 'NONE', *, *, #210, .T. ) ;
#12 = ORIENTED_EDGE ( 'NONE', *, *, #210, .F. ) ;
#13 = CARTESIAN_POINT ( 'NONE',  ( 76.19793320711599449, 0.000000000000000000, 0.000000000000000000 ) ) ;
#14 = EDGE_CURVE ( 'NONE', #608, #781, #771, .T. ) ;
#15 = DIRECTION ( 'NONE',  ( 0.000000000000000000, -1.000000000000000000, 0.000000000000000000 ) ) ;
#16 = EDGE_LOOP ( 'NONE', ( #175, #927, #622, #504 ) ) ;
#17 = VERTEX_POINT ( 'NONE', #301 ) ;
#18 = DIRECTION ( 'NONE',  ( 1.000000000000000000, 0.000000000000000000, 0.000000000000000000 ) ) ;
#19 = DIRECTION ( 'NONE',  ( 1.000000000000000000, 0.000000000000000000, 0.000000000000000000 ) ) ;
#20 = ORIENTED_EDGE ( 'NONE', *, *, #296, .F. ) ;
#21 = ORIENTED_EDGE ( 'NONE', *, *, #250, .F. ) ;
#22 = CARTESIAN_POINT ( 'NONE',  ( 50.38366451234699639, 14.39391749847700019, 24.08187043194499921 ) ) ;
#23 = EDGE_CURVE ( 'NONE', #959, #809, #277, .T. ) ;
#24 = VECTOR ( 'NONE', #46, 1000.000000000000000 ) ;
#25 = CIRCLE ( 'NONE', #1027, 1.507470223060001446 ) ;
#26 = CARTESIAN_POINT ( 'NONE',  ( 76.19793320711599449, 38.14050145230899602, 0.000000000000000000 ) ) ;
#27 = CARTESIAN_POINT ( 'NONE',  ( 0.000000000000000000, 38.14050145230899602, 0.000000000000000000 ) ) ;
#28 = ORIENTED_EDGE ( 'NONE', *, *, #708, .F. ) ;
#29 = CARTESIAN_POINT ( 'NONE',  ( 52.81644625834000095, 0.000000000000000000, 6.366486936299000199 ) ) ;
#30 = CARTESIAN_POINT ( 'NONE',  ( 76.19793320711599449, 17.61464083782799861, 9.601734938979999967 ) ) ;
#31 = CARTESIAN_POINT ( 'NONE',  ( 40.25830508063900481, 0.000000000000000000, 7.913790979514000234 ) ) ;
#32 = VERTEX_POINT ( 'NONE', #361 ) ;
#33 = CARTESIAN_POINT ( 'NONE',  ( 31.39924158559999867, 0.000000000000000000, 7.913790979514000234 ) ) ;
#34 = APPLICATION_CONTEXT ( 'automotive_design' ) ;
#35 = EDGE_CURVE ( 'NONE', #598, #831, #450, .T. ) ;
#36 = ORIENTED_EDGE ( 'NONE', *, *, #472, .F. ) ;
#37 = DIRECTION ( 'NONE',  ( 0.5271848174539697229, 0.000000000000000000, -0.8497506506299506990 ) ) ;
#38 = VECTOR ( 'NONE', #168, 1000.000000000000114 ) ;
#39 = VECTOR ( 'NONE', #255, 1000.000000000000114 ) ;
#40 = CARTESIAN_POINT ( 'NONE',  ( 66.67848121012472973, 8.015565368629308907, 2.847777887703310196 ) ) ;
#41 = COLOUR_RGB ( '',0.7921568627450980005, 0.8196078431372548767, 0.9333333333333333481 ) ;
#42 = EDGE_CURVE ( 'NONE', #825, #68, #196, .T. ) ;
#43 = VECTOR ( 'NONE', #935, 1000.000000000000000 ) ;
#44 = PLANE ( 'NONE',  #890 ) ;
#45 = ORIENTED_EDGE ( 'NONE', *, *, #1009, .F. ) ;
#46 = DIRECTION ( 'NONE',  ( 1.000000000000000000, 0.000000000000000000, 0.000000000000000000 ) ) ;
#47 = CARTESIAN_POINT ( 'NONE',  ( 76.19793320711599449, 19.04710105505899875, 12.27285918103399887 ) ) ;
#48 = CARTESIAN_POINT ( 'NONE',  ( 66.74625722680600859, 19.04710105505899875, 12.27285918103399887 ) ) ;
#49 = VERTEX_POINT ( 'NONE', #641 ) ;
#50 = CARTESIAN_POINT ( 'NONE',  ( 37.24872853547299911, 38.14050145230899602, 8.924258438230999957 ) ) ;
#51 = CARTESIAN_POINT ( 'NONE',  ( 67.46119411731899618, 7.305931228849999570, 4.109405271728999942 ) ) ;
#52 = LINE ( 'NONE', #954, #270 ) ;
#53 = ORIENTED_EDGE ( 'NONE', *, *, #254, .F. ) ;
#54 = LINE ( 'NONE', #486, #75 ) ;
#55 = EDGE_CURVE ( 'NONE', #466, #602, #806, .T. ) ;
#56 = DIRECTION ( 'NONE',  ( 0.000000000000000000, 1.000000000000000000, 0.000000000000000000 ) ) ;
#57 = DIRECTION ( 'NONE',  ( 0.000000000000000000, 0.000000000000000000, 1.000000000000000000 ) ) ;
#58 = EDGE_CURVE ( 'NONE', #68, #762, #635, .T. ) ;
#59 = VECTOR ( 'NONE', #1025, 1000.000000000000000 ) ;
#60 = FACE_OUTER_BOUND ( 'NONE', #74, .T. ) ;
#61 = ORIENTED_EDGE ( 'NONE', *, *, #355, .T. ) ;
#62 = CARTESIAN_POINT ( 'NONE',  ( 37.24872853547299911, 38.14050145230899602, 11.55698885537800003 ) ) ;
#63 = CARTESIAN_POINT ( 'NONE',  ( 50.92989354511699673, 38.14050145230899602, 20.10426051773199774 ) ) ;
#64 = CARTESIAN_POINT ( 'NONE',  ( 50.38366451234699639, 38.14050145230899602, 24.08187043194499921 ) ) ;
#65 = ORIENTED_EDGE ( 'NONE', *, *, #904, .T. ) ;
#66 = FACE_OUTER_BOUND ( 'NONE', #499, .T. ) ;
#67 = CARTESIAN_POINT ( 'NONE',  ( 70.01066679664799608, 38.14050145230899602, 0.000000000000000000 ) ) ;
#68 = VERTEX_POINT ( 'NONE', #726 ) ;
#69 = EDGE_CURVE ( 'NONE', #84, #626, #1019, .T. ) ;
#70 = FACE_OUTER_BOUND ( 'NONE', #921, .T. ) ;
#71 = EDGE_CURVE ( 'NONE', #893, #647, #972, .T. ) ;
#72 = DIRECTION ( 'NONE',  ( 0.000000000000000000, 0.000000000000000000, 1.000000000000000000 ) ) ;
#73 = CARTESIAN_POINT ( 'NONE',  ( 50.72480357854799848, 14.39391749847700019, 21.59771442697200072 ) ) ;
#74 = EDGE_LOOP ( 'NONE', ( #903, #154, #65, #323 ) ) ;
#75 = VECTOR ( 'NONE', #400, 1000.000000000000000 ) ;
#76 = DIRECTION ( 'NONE',  ( 0.5271848174539697229, 0.000000000000000000, 0.8497506506299506990 ) ) ;
#77 = CARTESIAN_POINT ( 'NONE',  ( 49.23134966930799550, 14.39391749847700019, 21.39262446040299892 ) ) ;
#78 = LINE ( 'NONE', #332, #840 ) ;
#79 = ORIENTED_EDGE ( 'NONE', *, *, #918, .F. ) ;
#80 = ORIENTED_EDGE ( 'NONE', *, *, #269, .F. ) ;
#81 = LINE ( 'NONE', #312, #977 ) ;
#82 = CARTESIAN_POINT ( 'NONE',  ( 66.74625722680600859, 16.07246653763899857, 10.42876623100100097 ) ) ;
#83 = CARTESIAN_POINT ( 'NONE',  ( 40.25830508063900481, 38.14050145230899602, 7.913790979514000234 ) ) ;
#84 = VERTEX_POINT ( 'NONE', #203 ) ;
#85 = ORIENTED_EDGE ( 'NONE', *, *, #1047, .T. ) ;
#86 = EDGE_CURVE ( 'NONE', #647, #612, #107, .T. ) ;
#87 = DIRECTION ( 'NONE',  ( 0.000000000000000000, 0.8812737764579712252, -0.4726061054699841613 ) ) ;
#88 = DIRECTION ( 'NONE',  ( 0.000000000000000000, 0.000000000000000000, -1.000000000000000000 ) ) ;
#89 = VERTEX_POINT ( 'NONE', #967 ) ;
#90 = AXIS2_PLACEMENT_3D ( 'NONE', #646, #502, #988 ) ;
#91 = VERTEX_POINT ( 'NONE', #531 ) ;
#92 = VECTOR ( 'NONE', #633, 1000.000000000000000 ) ;
#93 = EDGE_CURVE ( 'NONE', #68, #278, #957, .T. ) ;
#94 = DIRECTION ( 'NONE',  ( 0.000000000000000000, 0.000000000000000000, 1.000000000000000000 ) ) ;
#95 = LINE ( 'NONE', #429, #941 ) ;
#96 = VERTEX_POINT ( 'NONE', #221 ) ;
#97 = ORIENTED_EDGE ( 'NONE', *, *, #453, .T. ) ;
#98 = EDGE_CURVE ( 'NONE', #395, #353, #855, .T. ) ;
#99 = DIRECTION ( 'NONE',  ( 0.000000000000000000, 1.000000000000000000, 0.000000000000000000 ) ) ;
#100 = PLANE ( 'NONE',  #974 ) ;
#101 = LINE ( 'NONE', #282, #820 ) ;
#102 = EDGE_CURVE ( 'NONE', #395, #219, #631, .T. ) ;
#103 = VERTEX_POINT ( 'NONE', #31 ) ;
#104 = DIRECTION ( 'NONE',  ( 0.000000000000000000, -0.03134799490790927262, 0.9995085308366576937 ) ) ;
#105 = EDGE_CURVE ( 'NONE', #498, #343, #553, .T. ) ;
#106 = LINE ( 'NONE', #26, #374 ) ;
#107 = LINE ( 'NONE', #439, #768 ) ;
#108 = EDGE_CURVE ( 'NONE', #959, #462, #860, .T. ) ;
#109 = EDGE_LOOP ( 'NONE', ( #557, #140, #719, #824, #420, #479 ) ) ;
#110 = AXIS2_PLACEMENT_3D ( 'NONE', #816, #667, #659 ) ;
#111 = CARTESIAN_POINT ( 'NONE',  ( 0.000000000000000000, 0.000000000000000000, 0.000000000000000000 ) ) ;
#112 = MECHANICAL_DESIGN_GEOMETRIC_PRESENTATION_REPRESENTATION (  '', ( #201 ), #668 ) ;
#113 = AXIS2_PLACEMENT_3D ( 'NONE', #133, #541, #398 ) ;
#114 = DIRECTION ( 'NONE',  ( 0.000000000000000000, -1.000000000000000000, 0.000000000000000000 ) ) ;
#115 = DIRECTION ( 'NONE',  ( 0.000000000000000000, -1.000000000000000000, 0.000000000000000000 ) ) ;
#116 = EDGE_LOOP ( 'NONE', ( #328, #975, #970, #356, #162, #1068, #45, #911 ) ) ;
#117 = LINE ( 'NONE', #437, #475 ) ;
#118 = DIRECTION ( 'NONE',  ( 0.000000000000000000, 1.000000000000000000, 0.000000000000000000 ) ) ;
#119 = CARTESIAN_POINT ( 'NONE',  ( 0.000000000000000000, 38.14050145230899602, 0.000000000000000000 ) ) ;
#120 = ORIENTED_EDGE ( 'NONE', *, *, #331, .T. ) ;
#121 = LINE ( 'NONE', #382, #425 ) ;
#122 = EDGE_CURVE ( 'NONE', #503, #49, #792, .T. ) ;
#123 = CARTESIAN_POINT ( 'NONE',  ( 49.23134966930799550, 14.39391749847700019, 21.39262446040299892 ) ) ;
#124 = ORIENTED_EDGE ( 'NONE', *, *, #217, .F. ) ;
#125 = SURFACE_SIDE_STYLE ('',( #388 ) ) ;
#126 = ADVANCED_FACE ( 'NONE', ( #880 ), #468, .F. ) ;
#127 = SHAPE_DEFINITION_REPRESENTATION ( #170, #640 ) ;
#128 = VECTOR ( 'NONE', #37, 1000.000000000000114 ) ;
#129 = DIRECTION ( 'NONE',  ( -1.000000000000000000, 0.000000000000000000, 0.000000000000000000 ) ) ;
#130 = ORIENTED_EDGE ( 'NONE', *, *, #780, .T. ) ;
#131 = FACE_OUTER_BOUND ( 'NONE', #847, .T. ) ;
#132 = CARTESIAN_POINT ( 'NONE',  ( 64.91172143798999628, 8.382353059134999285, -3.849533181520999533E-16 ) ) ;
#133 = CARTESIAN_POINT ( 'NONE',  ( 0.000000000000000000, 0.000000000000000000, 28.56912190006800145 ) ) ;
#134 = VERTEX_POINT ( 'NONE', #401 ) ;
#135 = EDGE_CURVE ( 'NONE', #411, #134, #330, .T. ) ;
#136 = DIRECTION ( 'NONE',  ( 0.000000000000000000, -1.000000000000000000, 0.000000000000000000 ) ) ;
#137 = DIRECTION ( 'NONE',  ( 0.000000000000000000, 1.000000000000000000, 0.000000000000000000 ) ) ;
#138 = CARTESIAN_POINT ( 'NONE',  ( 53.42309521264699868, -3.552713678800999489E-15, 10.78407141155899929 ) ) ;
#139 = ORIENTED_EDGE ( 'NONE', *, *, #748, .F. ) ;
#140 = ORIENTED_EDGE ( 'NONE', *, *, #1047, .F. ) ;
#141 = CARTESIAN_POINT ( 'NONE',  ( 76.19793320711599449, 8.382353059134999285, -7.699066363041999067E-16 ) ) ;
#142 = CARTESIAN_POINT ( 'NONE',  ( 52.81644625834000095, 38.14050145230899602, 6.366486936299000199 ) ) ;
#143 = VECTOR ( 'NONE', #869, 1000.000000000000000 ) ;
#144 = VECTOR ( 'NONE', #145, 1000.000000000000000 ) ;
#145 = DIRECTION ( 'NONE',  ( 0.000000000000000000, 1.000000000000000000, 0.000000000000000000 ) ) ;
#146 = ORIENTED_EDGE ( 'NONE', *, *, #870, .F. ) ;
#147 = AXIS2_PLACEMENT_3D ( 'NONE', #807, #211, #794 ) ;
#148 = ORIENTED_EDGE ( 'NONE', *, *, #669, .F. ) ;
#149 = CARTESIAN_POINT ( 'NONE',  ( 40.25830508063900481, 0.000000000000000000, 7.913790979514000234 ) ) ;
#150 = PLANE ( 'NONE',  #373 ) ;
#151 = EDGE_CURVE ( 'NONE', #403, #17, #674, .T. ) ;
#152 = LINE ( 'NONE', #506, #182 ) ;
#153 = EDGE_CURVE ( 'NONE', #268, #350, #1, .T. ) ;
#154 = ORIENTED_EDGE ( 'NONE', *, *, #1017, .F. ) ;
#155 = DIRECTION ( 'NONE',  ( 1.000000000000000000, 0.000000000000000000, 0.000000000000000000 ) ) ;
#156 = CARTESIAN_POINT ( 'NONE',  ( 31.39924158559999867, 0.000000000000000000, 7.913790979514000234 ) ) ;
#157 = ORIENTED_EDGE ( 'NONE', *, *, #378, .F. ) ;
#158 = ORIENTED_EDGE ( 'NONE', *, *, #42, .F. ) ;
#159 = CARTESIAN_POINT ( 'NONE',  ( 76.19793320711599449, 17.61464083782799861, 9.601734938979999967 ) ) ;
#160 = DIRECTION ( 'NONE',  ( 1.000000000000000000, 0.000000000000000000, 0.000000000000000000 ) ) ;
#161 = DIRECTION ( 'NONE',  ( 0.000000000000000000, 0.000000000000000000, 1.000000000000000000 ) ) ;
#162 = ORIENTED_EDGE ( 'NONE', *, *, #397, .T. ) ;
#163 = VECTOR ( 'NONE', #815, 1000.000000000000000 ) ;
#164 = VECTOR ( 'NONE', #402, 1000.000000000000000 ) ;
#165 = ORIENTED_EDGE ( 'NONE', *, *, #98, .T. ) ;
#166 = PLANE ( 'NONE',  #944 ) ;
#167 = CARTESIAN_POINT ( 'NONE',  ( 40.25830508063900481, 0.000000000000000000, 0.000000000000000000 ) ) ;
#168 = DIRECTION ( 'NONE',  ( 0.000000000000000000, 0.03134799490791926463, -0.9995085308366572496 ) ) ;
#169 = ORIENTED_EDGE ( 'NONE', *, *, #839, .F. ) ;
#170 = PRODUCT_DEFINITION_SHAPE ( 'NONE', 'NONE',  #940 ) ;
#171 = ORIENTED_EDGE ( 'NONE', *, *, #86, .T. ) ;
#172 = ADVANCED_FACE ( 'NONE', ( #341 ), #1060, .F. ) ;
#173 = LINE ( 'NONE', #572, #924 ) ;
#174 = DIRECTION ( 'NONE',  ( 1.000000000000000000, 0.000000000000000000, 0.000000000000000000 ) ) ;
#175 = ORIENTED_EDGE ( 'NONE', *, *, #105, .T. ) ;
#176 = ADVANCED_FACE ( 'NONE', ( #652 ), #335, .T. ) ;
#177 = ADVANCED_FACE ( 'NONE', ( #991 ), #913, .F. ) ;
#178 = ORIENTED_EDGE ( 'NONE', *, *, #839, .T. ) ;
#179 = LINE ( 'NONE', #33, #409 ) ;
#180 = CARTESIAN_POINT ( 'NONE',  ( 64.91172143798999628, 38.14050145230899602, 0.000000000000000000 ) ) ;
#181 = ORIENTED_EDGE ( 'NONE', *, *, #606, .F. ) ;
#182 = VECTOR ( 'NONE', #817, 1000.000000000000000 ) ;
#183 = ORIENTED_EDGE ( 'NONE', *, *, #715, .T. ) ;
#184 = VECTOR ( 'NONE', #810, 1000.000000000000000 ) ;
#185 = DIRECTION ( 'NONE',  ( -1.000000000000000000, 0.000000000000000000, 0.000000000000000000 ) ) ;
#186 = ADVANCED_FACE ( 'NONE', ( #981 ), #996, .F. ) ;
#187 = LINE ( 'NONE', #859, #43 ) ;
#188 = ORIENTED_EDGE ( 'NONE', *, *, #601, .F. ) ;
#189 = EDGE_LOOP ( 'NONE', ( #638, #735, #537, #933 ) ) ;
#190 = LINE ( 'NONE', #605, #320 ) ;
#191 = CARTESIAN_POINT ( 'NONE',  ( 0.000000000000000000, 38.14050145230899602, 28.56912190006800145 ) ) ;
#192 = VERTEX_POINT ( 'NONE', #82 ) ;
#193 = VERTEX_POINT ( 'NONE', #167 ) ;
#194 = CARTESIAN_POINT ( 'NONE',  ( 49.09530056967599876, 38.14050145230899602, 22.38332655613599798 ) ) ;
#195 = FACE_OUTER_BOUND ( 'NONE', #212, .T. ) ;
#196 = LINE ( 'NONE', #142, #837 ) ;
#197 = EDGE_LOOP ( 'NONE', ( #545, #999, #249, #542 ) ) ;
#198 = VECTOR ( 'NONE', #556, 1000.000000000000000 ) ;
#199 = VECTOR ( 'NONE', #695, 1000.000000000000000 ) ;
#200 = FACE_BOUND ( 'NONE', #109, .T. ) ;
#201 = STYLED_ITEM ( 'NONE', ( #458 ), #521 ) ;
#202 = CARTESIAN_POINT ( 'NONE',  ( 0.000000000000000000, 0.000000000000000000, 0.000000000000000000 ) ) ;
#203 = CARTESIAN_POINT ( 'NONE',  ( 55.86544404413800180, 38.14050145230899602, 28.56912190006800145 ) ) ;
#204 = ORIENTED_EDGE ( 'NONE', *, *, #344, .T. ) ;
#205 = EDGE_CURVE ( 'NONE', #965, #134, #319, .T. ) ;
#206 = CARTESIAN_POINT ( 'NONE',  ( 67.46119411731899618, 38.14050145230899602, 4.109405271728999942 ) ) ;
#207 = CARTESIAN_POINT ( 'NONE',  ( 70.01066679664799608, 8.382353059134999285, -3.849533181520999533E-16 ) ) ;
#208 = ORIENTED_EDGE ( 'NONE', *, *, #862, .F. ) ;
#209 = CARTESIAN_POINT ( 'NONE',  ( 37.24872853547299911, 28.16057157200700090, 8.924258438230999957 ) ) ;
#210 = EDGE_CURVE ( 'NONE', #103, #835, #418, .T. ) ;
#211 = DIRECTION ( 'NONE',  ( 1.000000000000000000, -1.805302150032999963E-31, -1.805302150032999963E-31 ) ) ;
#212 = EDGE_LOOP ( 'NONE', ( #766, #436, #756, #1028 ) ) ;
#213 = CARTESIAN_POINT ( 'NONE',  ( 0.000000000000000000, 38.14050145230899602, 28.56912190006800145 ) ) ;
#214 = VECTOR ( 'NONE', #1045, 1000.000000000000000 ) ;
#215 = CARTESIAN_POINT ( 'NONE',  ( 76.19793320711599449, 16.07246653763899857, 10.42876623100100097 ) ) ;
#216 = VECTOR ( 'NONE', #891, 1000.000000000000114 ) ;
#217 = EDGE_CURVE ( 'NONE', #91, #503, #173, .T. ) ;
#218 = DIRECTION ( 'NONE',  ( 1.000000000000000000, 0.000000000000000000, 0.000000000000000000 ) ) ;
#219 = VERTEX_POINT ( 'NONE', #505 ) ;
#220 = CARTESIAN_POINT ( 'NONE',  ( 40.25830508063900481, 0.000000000000000000, 0.000000000000000000 ) ) ;
#221 = CARTESIAN_POINT ( 'NONE',  ( 76.19793320711599449, 17.50492675486999872, 13.09989047305599996 ) ) ;
#222 = CARTESIAN_POINT ( 'NONE',  ( 0.000000000000000000, 0.000000000000000000, 0.000000000000000000 ) ) ;
#223 = DIRECTION ( 'NONE',  ( 0.000000000000000000, 1.000000000000000000, 0.000000000000000000 ) ) ;
#224 = ORIENTED_EDGE ( 'NONE', *, *, #288, .F. ) ;
#225 = SURFACE_STYLE_USAGE ( .BOTH. , #125 ) ;
#226 = CARTESIAN_POINT ( 'NONE',  ( 50.72480357854799848, 38.14050145230899602, 21.59771442697200072 ) ) ;
#227 = APPLICATION_PROTOCOL_DEFINITION ( 'draft international standard', 'automotive_design', 1998, #34 ) ;
#228 = DIRECTION ( 'NONE',  ( 1.000000000000000000, 0.000000000000000000, 0.000000000000000000 ) ) ;
#229 = ORIENTED_EDGE ( 'NONE', *, *, #205, .F. ) ;
#230 = CARTESIAN_POINT ( 'NONE',  ( 76.19793320711599449, 19.10195809653799870, 10.52378141399599976 ) ) ;
#231 = LINE ( 'NONE', #986, #496 ) ;
#232 = VECTOR ( 'NONE', #926, 1000.000000000000000 ) ;
#233 = CARTESIAN_POINT ( 'NONE',  ( 76.19793320711599449, 19.10195809653799870, 10.52378141399599976 ) ) ;
#234 = VERTEX_POINT ( 'NONE', #753 ) ;
#235 = PLANE ( 'NONE',  #653 ) ;
#236 = EDGE_CURVE ( 'NONE', #834, #993, #231, .T. ) ;
#237 = DIRECTION ( 'NONE',  ( 0.000000000000000000, 1.000000000000000000, 0.000000000000000000 ) ) ;
#238 = FACE_OUTER_BOUND ( 'NONE', #818, .T. ) ;
#239 = VERTEX_POINT ( 'NONE', #242 ) ;
#240 = LINE ( 'NONE', #906, #459 ) ;
#241 = EDGE_CURVE ( 'NONE', #192, #661, #821, .T. ) ;
#242 = CARTESIAN_POINT ( 'NONE',  ( 31.39924158559999867, 0.000000000000000000, 7.913790979514000234 ) ) ;
#243 = PLANE ( 'NONE',  #909 ) ;
#244 = EDGE_LOOP ( 'NONE', ( #947, #261, #1069, #808 ) ) ;
#245 = CARTESIAN_POINT ( 'NONE',  ( 55.86544404413800180, 38.14050145230899602, 28.56912190006800145 ) ) ;
#246 = LINE ( 'NONE', #1071, #216 ) ;
#247 = CARTESIAN_POINT ( 'NONE',  ( 37.24872853547299911, 28.16057157200700090, 11.55698885537800003 ) ) ;
#248 = AXIS2_PLACEMENT_3D ( 'NONE', #414, #577, #326 ) ;
#249 = ORIENTED_EDGE ( 'NONE', *, *, #636, .F. ) ;
#250 = EDGE_CURVE ( 'NONE', #677, #353, #422, .T. ) ;
#251 = VECTOR ( 'NONE', #613, 1000.000000000000000 ) ;
#252 = VECTOR ( 'NONE', #614, 1000.000000000000000 ) ;
#253 = ORIENTED_EDGE ( 'NONE', *, *, #578, .F. ) ;
#254 = EDGE_CURVE ( 'NONE', #278, #395, #246, .T. ) ;
#255 = DIRECTION ( 'NONE',  ( -0.1360490996319702051, 0.000000000000000000, 0.9907020957327840049 ) ) ;
#256 = FACE_OUTER_BOUND ( 'NONE', #867, .T. ) ;
#257 = ORIENTED_EDGE ( 'NONE', *, *, #952, .T. ) ;
#258 = ORIENTED_EDGE ( 'NONE', *, *, #623, .T. ) ;
#259 = FACE_OUTER_BOUND ( 'NONE', #710, .T. ) ;
#260 = DIRECTION ( 'NONE',  ( 1.000000000000000000, 0.000000000000000000, 0.000000000000000000 ) ) ;
#261 = ORIENTED_EDGE ( 'NONE', *, *, #895, .T. ) ;
#262 = ORIENTED_EDGE ( 'NONE', *, *, #35, .F. ) ;
#263 = DIRECTION ( 'NONE',  ( 0.000000000000000000, 0.000000000000000000, 1.000000000000000000 ) ) ;
#264 = EDGE_CURVE ( 'NONE', #17, #809, #582, .T. ) ;
#265 = ADVANCED_FACE ( 'NONE', ( #66 ), #150, .F. ) ;
#266 = FACE_OUTER_BOUND ( 'NONE', #587, .T. ) ;
#267 = ORIENTED_EDGE ( 'NONE', *, *, #592, .T. ) ;
#268 = VERTEX_POINT ( 'NONE', #29 ) ;
#269 = EDGE_CURVE ( 'NONE', #403, #898, #190, .T. ) ;
#270 = VECTOR ( 'NONE', #465, 1000.000000000000000 ) ;
#271 = LINE ( 'NONE', #917, #533 ) ;
#272 = DIRECTION ( 'NONE',  ( 1.000000000000000000, 0.000000000000000000, 0.000000000000000000 ) ) ;
#273 = VERTEX_POINT ( 'NONE', #22 ) ;
#274 = EDGE_LOOP ( 'NONE', ( #672, #604, #345, #713 ) ) ;
#275 = DIRECTION ( 'NONE',  ( 1.000000000000000000, 0.000000000000000000, 0.000000000000000000 ) ) ;
#276 = CARTESIAN_POINT ( 'NONE',  ( 0.000000000000000000, 0.000000000000000000, 28.56912190006800145 ) ) ;
#277 = LINE ( 'NONE', #27, #199 ) ;
#278 = VERTEX_POINT ( 'NONE', #359 ) ;
#279 = DIRECTION ( 'NONE',  ( 0.000000000000000000, -1.000000000000000000, 0.000000000000000000 ) ) ;
#280 = FACE_OUTER_BOUND ( 'NONE', #760, .T. ) ;
#281 = ADVANCED_FACE ( 'NONE', ( #697 ), #351, .F. ) ;
#282 = CARTESIAN_POINT ( 'NONE',  ( 0.000000000000000000, 0.000000000000000000, 28.56912190006800145 ) ) ;
#283 = VERTEX_POINT ( 'NONE', #534 ) ;
#284 = AXIS2_PLACEMENT_3D ( 'NONE', #222, #57, #379 ) ;
#285 = LINE ( 'NONE', #714, #567 ) ;
#286 = AXIS2_PLACEMENT_3D ( 'NONE', #796, #868, #721 ) ;
#287 =( LENGTH_UNIT ( ) NAMED_UNIT ( * ) SI_UNIT ( .MILLI., .METRE. ) );
#288 = EDGE_CURVE ( 'NONE', #353, #273, #25, .T. ) ;
#289 = CARTESIAN_POINT ( 'NONE',  ( 76.19793320711599449, 38.14050145230899602, 28.56912190006800145 ) ) ;
#290 = ORIENTED_EDGE ( 'NONE', *, *, #761, .T. ) ;
#291 = CARTESIAN_POINT ( 'NONE',  ( 59.51109069842399180, 0.000000000000000000, 8.382353059134999285 ) ) ;
#292 = ADVANCED_FACE ( 'NONE', ( #929 ), #1016, .F. ) ;
#293 = CARTESIAN_POINT ( 'NONE',  ( 76.19793320711599449, 19.04710105505899875, 12.27285918103399887 ) ) ;
#294 = ORIENTED_EDGE ( 'NONE', *, *, #205, .T. ) ;
#295 = DIRECTION ( 'NONE',  ( 0.000000000000000000, 0.000000000000000000, -1.000000000000000000 ) ) ;
#296 = EDGE_CURVE ( 'NONE', #451, #411, #6, .T. ) ;
#297 = CARTESIAN_POINT ( 'NONE',  ( 66.74625722680600859, 17.50492675486999872, 13.09989047305599996 ) ) ;
#298 = EDGE_LOOP ( 'NONE', ( #306, #178, #333, #130 ) ) ;
#299 = CARTESIAN_POINT ( 'NONE',  ( 50.05424492673800074, 14.39391749847700019, 22.01032191102900271 ) ) ;
#300 = AXIS2_PLACEMENT_3D ( 'NONE', #536, #137, #447 ) ;
#301 = CARTESIAN_POINT ( 'NONE',  ( 31.39924158559999867, 0.000000000000000000, 0.000000000000000000 ) ) ;
#302 = VECTOR ( 'NONE', #894, 1000.000000000000000 ) ;
#303 = CARTESIAN_POINT ( 'NONE',  ( 76.19793320711599449, 17.50492675486999872, 13.09989047305599996 ) ) ;
#304 = AXIS2_PLACEMENT_3D ( 'NONE', #866, #949, #1041 ) ;
#305 = DIRECTION ( 'NONE',  ( 0.000000000000000000, -1.000000000000000000, 0.000000000000000000 ) ) ;
#306 = ORIENTED_EDGE ( 'NONE', *, *, #264, .T. ) ;
#307 = DIRECTION ( 'NONE',  ( -0.000000000000000000, 1.000000000000000000, 0.000000000000000000 ) ) ;
#308 = CARTESIAN_POINT ( 'NONE',  ( 39.68251412303199999, 28.16057157200700090, 11.55698885537800003 ) ) ;
#309 = LINE ( 'NONE', #303, #997 ) ;
#310 = CARTESIAN_POINT ( 'NONE',  ( 70.01066679664799608, 8.382353059134999285, -3.849533181520999533E-16 ) ) ;
#311 = ORIENTED_EDGE ( 'NONE', *, *, #862, .T. ) ;
#312 = CARTESIAN_POINT ( 'NONE',  ( 64.91172143798999628, 38.14050145230899602, 0.000000000000000000 ) ) ;
#313 = CARTESIAN_POINT ( 'NONE',  ( 76.19793320711599449, 17.61464083782799861, 9.601734938979999967 ) ) ;
#314 = CARTESIAN_POINT ( 'NONE',  ( 31.39924158559999867, 38.14050145230899602, 3.956895489757000117 ) ) ;
#315 = EDGE_CURVE ( 'NONE', #781, #893, #363, .T. ) ;
#316 = EDGE_LOOP ( 'NONE', ( #508, #789, #430, #381 ) ) ;
#317 = DIRECTION ( 'NONE',  ( 1.000000000000000000, 0.000000000000000000, 0.000000000000000000 ) ) ;
#318 = CARTESIAN_POINT ( 'NONE',  ( 37.24872853547299911, 38.14050145230899602, 8.924258438230999957 ) ) ;
#319 = CIRCLE ( 'NONE', #720, 8.382353059134999285 ) ;
#320 = VECTOR ( 'NONE', #94, 1000.000000000000000 ) ;
#321 = DIRECTION ( 'NONE',  ( 0.000000000000000000, 0.03134799490791926463, -0.9995085308366573607 ) ) ;
#322 = ADVANCED_FACE ( 'NONE', ( #259 ), #763, .F. ) ;
#323 = ORIENTED_EDGE ( 'NONE', *, *, #397, .F. ) ;
#324 = ORIENTED_EDGE ( 'NONE', *, *, #1055, .T. ) ;
#325 = DIRECTION ( 'NONE',  ( -0.000000000000000000, 1.000000000000000000, 0.000000000000000000 ) ) ;
#326 = DIRECTION ( 'NONE',  ( -1.000000000000000000, 0.000000000000000000, 0.000000000000000000 ) ) ;
#327 = LINE ( 'NONE', #743, #476 ) ;
#328 = ORIENTED_EDGE ( 'NONE', *, *, #58, .T. ) ;
#329 = CARTESIAN_POINT ( 'NONE',  ( 39.68251412303199999, 38.14050145230899602, 11.55698885537800003 ) ) ;
#330 = LINE ( 'NONE', #908, #583 ) ;
#331 = EDGE_CURVE ( 'NONE', #239, #89, #179, .T. ) ;
#332 = CARTESIAN_POINT ( 'NONE',  ( 39.68251412303199999, 38.14050145230899602, 8.924258438230999957 ) ) ;
#333 = ORIENTED_EDGE ( 'NONE', *, *, #331, .F. ) ;
#334 = VERTEX_POINT ( 'NONE', #368 ) ;
#335 = PLANE ( 'NONE',  #110 ) ;
#336 = AXIS2_PLACEMENT_3D ( 'NONE', #600, #676, #769 ) ;
#337 = PLANE ( 'NONE',  #1043 ) ;
#338 = EDGE_LOOP ( 'NONE', ( #843, #559, #484, #689, #955, #171 ) ) ;
#339 = VECTOR ( 'NONE', #804, 1000.000000000000000 ) ;
#340 = ORIENTED_EDGE ( 'NONE', *, *, #592, .F. ) ;
#341 = FACE_OUTER_BOUND ( 'NONE', #740, .T. ) ;
#342 = LINE ( 'NONE', #202, #232 ) ;
#343 = VERTEX_POINT ( 'NONE', #449 ) ;
#344 = EDGE_CURVE ( 'NONE', #193, #103, #679, .T. ) ;
#345 = ORIENTED_EDGE ( 'NONE', *, *, #539, .F. ) ;
#346 = DIRECTION ( 'NONE',  ( 0.000000000000000000, 0.000000000000000000, 1.000000000000000000 ) ) ;
#347 = EDGE_CURVE ( 'NONE', #219, #334, #1011, .T. ) ;
#348 = PLANE ( 'NONE',  #722 ) ;
#349 = ORIENTED_EDGE ( 'NONE', *, *, #780, .F. ) ;
#350 = VERTEX_POINT ( 'NONE', #1001 ) ;
#351 = PLANE ( 'NONE',  #873 ) ;
#352 = CARTESIAN_POINT ( 'NONE',  ( 52.81644625834000095, 38.14050145230899602, 6.366486936299000199 ) ) ;
#353 = VERTEX_POINT ( 'NONE', #523 ) ;
#354 = VECTOR ( 'NONE', #945, 1000.000000000000000 ) ;
#355 = EDGE_CURVE ( 'NONE', #96, #612, #271, .T. ) ;
#356 = ORIENTED_EDGE ( 'NONE', *, *, #347, .T. ) ;
#357 = VECTOR ( 'NONE', #797, 1000.000000000000000 ) ;
#358 = AXIS2_PLACEMENT_3D ( 'NONE', #518, #18, #99 ) ;
#359 = CARTESIAN_POINT ( 'NONE',  ( 49.23134966930799550, 38.14050145230899602, 21.39262446040299892 ) ) ;
#360 = DIRECTION ( 'NONE',  ( 0.000000000000000000, 0.000000000000000000, 1.000000000000000000 ) ) ;
#361 = CARTESIAN_POINT ( 'NONE',  ( 76.19793320711599449, 0.000000000000000000, 28.56912190006800145 ) ) ;
#362 = VERTEX_POINT ( 'NONE', #510 ) ;
#363 = LINE ( 'NONE', #609, #1012 ) ;
#364 = ADVANCED_FACE ( 'NONE', ( #200, #934 ), #599, .T. ) ;
#365 = DIRECTION ( 'NONE',  ( 0.000000000000000000, -1.000000000000000000, 0.000000000000000000 ) ) ;
#366 = DIRECTION ( 'NONE',  ( 0.000000000000000000, -1.000000000000000000, 0.000000000000000000 ) ) ;
#367 = ORIENTED_EDGE ( 'NONE', *, *, #870, .T. ) ;
#368 = CARTESIAN_POINT ( 'NONE',  ( 49.76744847254099824, 38.14050145230899602, 28.56912190006800145 ) ) ;
#369 = PLANE ( 'NONE',  #885 ) ;
#370 = ORIENTED_EDGE ( 'NONE', *, *, #548, .T. ) ;
#371 = VECTOR ( 'NONE', #390, 1000.000000000000000 ) ;
#372 = CARTESIAN_POINT ( 'NONE',  ( 76.19793320711599449, 1.026542190562000002E-15, 8.382353059134999285 ) ) ;
#373 = AXIS2_PLACEMENT_3D ( 'NONE', #828, #747, #279 ) ;
#374 = VECTOR ( 'NONE', #360, 1000.000000000000000 ) ;
#375 = DIRECTION ( 'NONE',  ( -0.000000000000000000, 0.4726061054699841057, 0.8812737764579712252 ) ) ;
#376 = ORIENTED_EDGE ( 'NONE', *, *, #529, .F. ) ;
#377 = EDGE_CURVE ( 'NONE', #608, #661, #432, .T. ) ;
#378 = EDGE_CURVE ( 'NONE', #1005, #647, #117, .T. ) ;
#379 = DIRECTION ( 'NONE',  ( 1.000000000000000000, 0.000000000000000000, 0.000000000000000000 ) ) ;
#380 = FACE_OUTER_BOUND ( 'NONE', #197, .T. ) ;
#381 = ORIENTED_EDGE ( 'NONE', *, *, #23, .T. ) ;
#382 = CARTESIAN_POINT ( 'NONE',  ( 40.25830508063900481, 38.14050145230899602, 0.000000000000000000 ) ) ;
#383 = DIRECTION ( 'NONE',  ( 0.000000000000000000, 0.000000000000000000, 1.000000000000000000 ) ) ;
#384 = CARTESIAN_POINT ( 'NONE',  ( 64.91172143798999628, 38.14050145230899602, 0.000000000000000000 ) ) ;
#385 = PLANE ( 'NONE',  #304 ) ;
#386 = ORIENTED_EDGE ( 'NONE', *, *, #761, .F. ) ;
#387 = PRODUCT_DEFINITION_CONTEXT ( 'detailed design', #34, 'design' ) ;
#388 = SURFACE_STYLE_FILL_AREA ( #966 ) ;
#389 = AXIS2_PLACEMENT_3D ( 'NONE', #723, #883, #160 ) ;
#390 = DIRECTION ( 'NONE',  ( -1.000000000000000000, 0.000000000000000000, 0.000000000000000000 ) ) ;
#391 = VECTOR ( 'NONE', #875, 1000.000000000000000 ) ;
#392 = DIRECTION ( 'NONE',  ( 0.000000000000000000, 1.000000000000000000, 0.000000000000000000 ) ) ;
#393 = AXIS2_PLACEMENT_3D ( 'NONE', #215, #549, #628 ) ;
#394 = FACE_OUTER_BOUND ( 'NONE', #551, .T. ) ;
#395 = VERTEX_POINT ( 'NONE', #194 ) ;
#396 = PLANE ( 'NONE',  #442 ) ;
#397 = EDGE_CURVE ( 'NONE', #334, #350, #528, .T. ) ;
#398 = DIRECTION ( 'NONE',  ( 1.000000000000000000, 0.000000000000000000, 0.000000000000000000 ) ) ;
#399 = EDGE_LOOP ( 'NONE', ( #258, #842, #367, #1057 ) ) ;
#400 = DIRECTION ( 'NONE',  ( 0.000000000000000000, -1.000000000000000000, 0.000000000000000000 ) ) ;
#401 = CARTESIAN_POINT ( 'NONE',  ( 59.51109069842399180, 1.026542190562000002E-15, 8.382353059134999285 ) ) ;
#402 = DIRECTION ( 'NONE',  ( -1.000000000000000000, 0.000000000000000000, 0.000000000000000000 ) ) ;
#403 = VERTEX_POINT ( 'NONE', #467 ) ;
#404 = PRODUCT ( '20260414_160844_111', '20260414_160844_111', '', ( #555 ) ) ;
#405 = ORIENTED_EDGE ( 'NONE', *, *, #445, .F. ) ;
#406 = DIRECTION ( 'NONE',  ( 1.000000000000000000, 0.000000000000000000, 0.000000000000000000 ) ) ;
#407 = EDGE_CURVE ( 'NONE', #835, #846, #121, .T. ) ;
#408 = CARTESIAN_POINT ( 'NONE',  ( 52.75669771069399872, -3.552713678800999489E-15, 6.801572589414999648 ) ) ;
#409 = VECTOR ( 'NONE', #444, 1000.000000000000000 ) ;
#410 = DIRECTION ( 'NONE',  ( -1.000000000000000000, 0.000000000000000000, 0.000000000000000000 ) ) ;
#411 = VERTEX_POINT ( 'NONE', #372 ) ;
#412 = FACE_OUTER_BOUND ( 'NONE', #916, .T. ) ;
#413 = ADVANCED_FACE ( 'NONE', ( #956 ), #452, .F. ) ;
#414 = CARTESIAN_POINT ( 'NONE',  ( 76.19793320711599449, 17.50492675486999872, 13.09989047305599996 ) ) ;
#415 = CARTESIAN_POINT ( 'NONE',  ( 76.19793320711599449, 16.01760949616000218, 12.17784399803999840 ) ) ;
#416 = ORIENTED_EDGE ( 'NONE', *, *, #715, .F. ) ;
#417 = DIRECTION ( 'NONE',  ( 0.000000000000000000, 0.000000000000000000, 1.000000000000000000 ) ) ;
#418 = LINE ( 'NONE', #589, #853 ) ;
#419 = CARTESIAN_POINT ( 'NONE',  ( 50.92989354511699673, 14.39391749847700019, 20.10426051773199774 ) ) ;
#420 = ORIENTED_EDGE ( 'NONE', *, *, #540, .F. ) ;
#421 = ORIENTED_EDGE ( 'NONE', *, *, #55, .T. ) ;
#422 = LINE ( 'NONE', #77, #584 ) ;
#423 = DIRECTION ( 'NONE',  ( 0.1360490996319702051, 0.000000000000000000, -0.9907020957327840049 ) ) ;
#424 = EDGE_LOOP ( 'NONE', ( #349, #886, #1042, #257, #704, #700, #744, #1062, #915, #673, #795, #80, #778 ) ) ;
#425 = VECTOR ( 'NONE', #295, 1000.000000000000000 ) ;
#426 = ORIENTED_EDGE ( 'NONE', *, *, #105, .F. ) ;
#427 = CARTESIAN_POINT ( 'NONE',  ( 0.000000000000000000, 0.000000000000000000, 0.000000000000000000 ) ) ;
#428 = ADVANCED_FACE ( 'NONE', ( #782 ), #471, .T. ) ;
#429 = CARTESIAN_POINT ( 'NONE',  ( 55.86544404413800180, 38.14050145230899602, 28.56912190006800145 ) ) ;
#430 = ORIENTED_EDGE ( 'NONE', *, *, #636, .T. ) ;
#431 = ORIENTED_EDGE ( 'NONE', *, *, #729, .F. ) ;
#432 = LINE ( 'NONE', #858, #515 ) ;
#433 = ADVANCED_FACE ( 'NONE', ( #131 ), #1038, .F. ) ;
#434 = PLANE ( 'NONE',  #654 ) ;
#435 = ORIENTED_EDGE ( 'NONE', *, *, #657, .F. ) ;
#436 = ORIENTED_EDGE ( 'NONE', *, *, #526, .T. ) ;
#437 = CARTESIAN_POINT ( 'NONE',  ( 66.74625722680600859, 19.10195809653799870, 10.52378141399599976 ) ) ;
#438 = FACE_OUTER_BOUND ( 'NONE', #920, .T. ) ;
#439 = CARTESIAN_POINT ( 'NONE',  ( 66.74625722680600859, 19.04710105505899875, 12.27285918103399887 ) ) ;
#440 = VECTOR ( 'NONE', #383, 1000.000000000000000 ) ;
#441 = ORIENTED_EDGE ( 'NONE', *, *, #930, .T. ) ;
#442 = AXIS2_PLACEMENT_3D ( 'NONE', #1058, #662, #1051 ) ;
#443 = AXIS2_PLACEMENT_3D ( 'NONE', #733, #1061, #321 ) ;
#444 = DIRECTION ( 'NONE',  ( 0.000000000000000000, 1.000000000000000000, 0.000000000000000000 ) ) ;
#445 = EDGE_CURVE ( 'NONE', #834, #728, #863, .T. ) ;
#446 = CARTESIAN_POINT ( 'NONE',  ( 59.51109069842399180, 8.382353059134999285, -7.699066363041999067E-16 ) ) ;
#447 = DIRECTION ( 'NONE',  ( 0.000000000000000000, 0.000000000000000000, 1.000000000000000000 ) ) ;
#448 = ORIENTED_EDGE ( 'NONE', *, *, #492, .F. ) ;
#449 = CARTESIAN_POINT ( 'NONE',  ( 67.46119411731899618, 7.305931228849999570, 4.109405271728999942 ) ) ;
#450 = LINE ( 'NONE', #308, #783 ) ;
#451 = VERTEX_POINT ( 'NONE', #141 ) ;
#452 = PLANE ( 'NONE',  #754 ) ;
#453 = EDGE_CURVE ( 'NONE', #91, #466, #1035, .T. ) ;
#454 = LINE ( 'NONE', #709, #1063 ) ;
#455 = ORIENTED_EDGE ( 'NONE', *, *, #456, .T. ) ;
#456 = EDGE_CURVE ( 'NONE', #234, #91, #546, .T. ) ;
#457 = AXIS2_PLACEMENT_3D ( 'NONE', #318, #487, #1066 ) ;
#458 = PRESENTATION_STYLE_ASSIGNMENT (( #225 ) ) ;
#459 = VECTOR ( 'NONE', #1064, 1000.000000000000000 ) ;
#460 = DIRECTION ( 'NONE',  ( -0.8497506506299508100, 0.000000000000000000, 0.5271848174539698340 ) ) ;
#461 = DIRECTION ( 'NONE',  ( -0.1360490996319702051, 0.000000000000000000, -0.9907020957327840049 ) ) ;
#462 = VERTEX_POINT ( 'NONE', #213 ) ;
#463 = LINE ( 'NONE', #879, #24 ) ;
#464 = FACE_OUTER_BOUND ( 'NONE', #16, .T. ) ;
#465 = DIRECTION ( 'NONE',  ( 0.000000000000000000, 1.000000000000000000, 0.000000000000000000 ) ) ;
#466 = VERTEX_POINT ( 'NONE', #62 ) ;
#467 = CARTESIAN_POINT ( 'NONE',  ( 0.000000000000000000, 0.000000000000000000, 0.000000000000000000 ) ) ;
#468 = PLANE ( 'NONE',  #389 ) ;
#469 = ORIENTED_EDGE ( 'NONE', *, *, #241, .F. ) ;
#470 = VECTOR ( 'NONE', #365, 1000.000000000000000 ) ;
#471 = PLANE ( 'NONE',  #838 ) ;
#472 = EDGE_CURVE ( 'NONE', #846, #985, #463, .T. ) ;
#473 = VECTOR ( 'NONE', #474, 1000.000000000000000 ) ;
#474 = DIRECTION ( 'NONE',  ( 0.000000000000000000, 0.000000000000000000, 1.000000000000000000 ) ) ;
#475 = VECTOR ( 'NONE', #104, 999.9999999999998863 ) ;
#476 = VECTOR ( 'NONE', #88, 1000.000000000000000 ) ;
#477 = LINE ( 'NONE', #64, #738 ) ;
#478 = ORIENTED_EDGE ( 'NONE', *, *, #456, .F. ) ;
#479 = ORIENTED_EDGE ( 'NONE', *, *, #827, .F. ) ;
#480 = CARTESIAN_POINT ( 'NONE',  ( 39.68251412303199999, 28.16057157200700090, 11.55698885537800003 ) ) ;
#481 = EDGE_CURVE ( 'NONE', #134, #912, #791, .T. ) ;
#482 = DIRECTION ( 'NONE',  ( -0.1360490996319702051, 0.000000000000000000, 0.9907020957327840049 ) ) ;
#483 = CARTESIAN_POINT ( 'NONE',  ( 39.68251412303199999, 28.16057157200700090, 8.924258438230999957 ) ) ;
#484 = ORIENTED_EDGE ( 'NONE', *, *, #241, .T. ) ;
#485 = EDGE_CURVE ( 'NONE', #602, #598, #948, .T. ) ;
#486 = CARTESIAN_POINT ( 'NONE',  ( 49.23134966930799550, 38.14050145230899602, 21.39262446040299892 ) ) ;
#487 = DIRECTION ( 'NONE',  ( -1.000000000000000000, 0.000000000000000000, 0.000000000000000000 ) ) ;
#488 = CARTESIAN_POINT ( 'NONE',  ( 76.19793320711599449, 19.04710105505899875, 12.27285918103399887 ) ) ;
#489 = ORIENTED_EDGE ( 'NONE', *, *, #708, .T. ) ;
#490 = EDGE_CURVE ( 'NONE', #498, #834, #1044, .T. ) ;
#491 = DIRECTION ( 'NONE',  ( 0.000000000000000000, 0.8812737764579712252, -0.4726061054699841613 ) ) ;
#492 = EDGE_CURVE ( 'NONE', #32, #626, #285, .T. ) ;
#493 = CARTESIAN_POINT ( 'NONE',  ( 59.51109069842399180, 0.000000000000000000, 0.000000000000000000 ) ) ;
#494 = VECTOR ( 'NONE', #115, 1000.000000000000000 ) ;
#495 = AXIS2_PLACEMENT_3D ( 'NONE', #13, #923, #346 ) ;
#496 = VECTOR ( 'NONE', #155, 1000.000000000000000 ) ;
#497 = CARTESIAN_POINT ( 'NONE',  ( 40.25830508063900481, 38.14050145230899602, 0.000000000000000000 ) ) ;
#498 = VERTEX_POINT ( 'NONE', #624 ) ;
#499 = EDGE_LOOP ( 'NONE', ( #455, #950, #607, #386 ) ) ;
#500 = FACE_OUTER_BOUND ( 'NONE', #338, .T. ) ;
#501 = DIRECTION ( 'NONE',  ( 0.000000000000000000, 1.000000000000000000, 0.000000000000000000 ) ) ;
#502 = DIRECTION ( 'NONE',  ( 0.9907020957327840049, 0.000000000000000000, -0.1360490996319702051 ) ) ;
#503 = VERTEX_POINT ( 'NONE', #209 ) ;
#504 = ORIENTED_EDGE ( 'NONE', *, *, #578, .T. ) ;
#505 = CARTESIAN_POINT ( 'NONE',  ( 50.38366451234699639, 38.14050145230899602, 24.08187043194499921 ) ) ;
#506 = CARTESIAN_POINT ( 'NONE',  ( 76.19793320711599449, 8.382353059134999285, -7.699066363041999067E-16 ) ) ;
#507 = ORIENTED_EDGE ( 'NONE', *, *, #526, .F. ) ;
#508 = ORIENTED_EDGE ( 'NONE', *, *, #264, .F. ) ;
#509 = EDGE_CURVE ( 'NONE', #193, #846, #961, .T. ) ;
#510 = CARTESIAN_POINT ( 'NONE',  ( 76.19793320711599449, 16.07246653763899857, 10.42876623100100097 ) ) ;
#511 = VECTOR ( 'NONE', #423, 1000.000000000000114 ) ;
#512 = DIRECTION ( 'NONE',  ( 0.000000000000000000, 1.000000000000000000, 0.000000000000000000 ) ) ;
#513 = VECTOR ( 'NONE', #737, 1000.000000000000000 ) ;
#514 = ORIENTED_EDGE ( 'NONE', *, *, #529, .T. ) ;
#515 = VECTOR ( 'NONE', #848, 1000.000000000000000 ) ;
#516 = AXIS2_PLACEMENT_3D ( 'NONE', #586, #897, #749 ) ;
#517 = ORIENTED_EDGE ( 'NONE', *, *, #922, .T. ) ;
#518 = CARTESIAN_POINT ( 'NONE',  ( 76.19793320711599449, 0.000000000000000000, 0.000000000000000000 ) ) ;
#519 = CARTESIAN_POINT ( 'NONE',  ( 0.000000000000000000, 0.000000000000000000, 28.56912190006800145 ) ) ;
#520 = ORIENTED_EDGE ( 'NONE', *, *, #453, .F. ) ;
#521 = MANIFOLD_SOLID_BREP ( 'Open CASCADE STEP translator 7.5 16[1]', #688 ) ;
#522 = EDGE_LOOP ( 'NONE', ( #517, #527, #435, #593, #878, #532 ) ) ;
#523 = CARTESIAN_POINT ( 'NONE',  ( 49.09530056967599876, 14.39391749847700019, 22.38332655613599798 ) ) ;
#524 = LINE ( 'NONE', #47, #856 ) ;
#525 = DIRECTION ( 'NONE',  ( 0.000000000000000000, 0.000000000000000000, -1.000000000000000000 ) ) ;
#526 = EDGE_CURVE ( 'NONE', #781, #1005, #819, .T. ) ;
#527 = ORIENTED_EDGE ( 'NONE', *, *, #752, .T. ) ;
#528 = LINE ( 'NONE', #767, #59 ) ;
#529 = EDGE_CURVE ( 'NONE', #278, #677, #54, .T. ) ;
#530 = DIRECTION ( 'NONE',  ( 0.000000000000000000, 0.5269024253660127277, -0.8499257815500206314 ) ) ;
#531 = CARTESIAN_POINT ( 'NONE',  ( 37.24872853547299911, 38.14050145230899602, 8.924258438230999957 ) ) ;
#532 = ORIENTED_EDGE ( 'NONE', *, *, #472, .T. ) ;
#533 = VECTOR ( 'NONE', #185, 1000.000000000000000 ) ;
#534 = CARTESIAN_POINT ( 'NONE',  ( 66.74625722680600859, 16.01760949616000218, 12.17784399803999840 ) ) ;
#535 = LINE ( 'NONE', #1022, #252 ) ;
#536 = CARTESIAN_POINT ( 'NONE',  ( 50.58875447891599464, 38.14050145230899602, 22.58841652270499978 ) ) ;
#537 = ORIENTED_EDGE ( 'NONE', *, *, #9, .T. ) ;
#538 = DIRECTION ( 'NONE',  ( 0.000000000000000000, 0.000000000000000000, 1.000000000000000000 ) ) ;
#539 = EDGE_CURVE ( 'NONE', #84, #575, #731, .T. ) ;
#540 = EDGE_CURVE ( 'NONE', #362, #608, #565, .T. ) ;
#541 = DIRECTION ( 'NONE',  ( 0.000000000000000000, 0.000000000000000000, 1.000000000000000000 ) ) ;
#542 = ORIENTED_EDGE ( 'NONE', *, *, #269, .T. ) ;
#543 = FILL_AREA_STYLE_COLOUR ( '', #41 ) ;
#544 = DIRECTION ( 'NONE',  ( 1.000000000000000000, 0.000000000000000000, 0.000000000000000000 ) ) ;
#545 = ORIENTED_EDGE ( 'NONE', *, *, #1017, .T. ) ;
#546 = LINE ( 'NONE', #627, #887 ) ;
#547 = VECTOR ( 'NONE', #136, 1000.000000000000000 ) ;
#548 = EDGE_CURVE ( 'NONE', #602, #234, #240, .T. ) ;
#549 = DIRECTION ( 'NONE',  ( 0.000000000000000000, -0.4726061054699841057, -0.8812737764579712252 ) ) ;
#550 = FACE_OUTER_BOUND ( 'NONE', #683, .T. ) ;
#551 = EDGE_LOOP ( 'NONE', ( #1024, #229, #596, #899, #431, #208, #994 ) ) ;
#552 = DIRECTION ( 'NONE',  ( 0.000000000000000000, 1.000000000000000000, 0.000000000000000000 ) ) ;
#553 = LINE ( 'NONE', #777, #976 ) ;
#554 =( BOUNDED_CURVE ( )  B_SPLINE_CURVE ( 3, ( #310, #642, #664, #671 ),
 .UNSPECIFIED., .F., .T. ) 
 B_SPLINE_CURVE_WITH_KNOTS ( ( 4, 4 ),
 ( 1.570796326794896558, 2.083166962563683722 ),
 .UNSPECIFIED. ) 
 CURVE ( )  GEOMETRIC_REPRESENTATION_ITEM ( )  RATIONAL_B_SPLINE_CURVE ( ( 1.000000000000000000, 0.9782424166610004246, 0.9782424166610004246, 1.000000000000000000 ) ) 
 REPRESENTATION_ITEM ( '' )  );
#555 = PRODUCT_CONTEXT ( 'NONE', #1052, 'mechanical' ) ;
#556 = DIRECTION ( 'NONE',  ( -1.000000000000000000, 0.000000000000000000, 0.000000000000000000 ) ) ;
#557 = ORIENTED_EDGE ( 'NONE', *, *, #1065, .F. ) ;
#558 = ADVANCED_FACE ( 'NONE', ( #826, #70 ), #166, .T. ) ;
#559 = ORIENTED_EDGE ( 'NONE', *, *, #606, .T. ) ;
#560 =( LENGTH_UNIT ( ) NAMED_UNIT ( * ) SI_UNIT ( .MILLI., .METRE. ) );
#561 = CARTESIAN_POINT ( 'NONE',  ( 37.24872853547299911, 28.16057157200700090, 8.924258438230999957 ) ) ;
#562 = CARTESIAN_POINT ( 'NONE',  ( 40.25830508063900481, 0.000000000000000000, 7.913790979514000234 ) ) ;
#563 = CARTESIAN_POINT ( 'NONE',  ( 76.19793320711599449, 0.000000000000000000, 0.000000000000000000 ) ) ;
#564 = EDGE_LOOP ( 'NONE', ( #857, #183, #181, #139 ) ) ;
#565 = LINE ( 'NONE', #581, #618 ) ;
#566 = DIRECTION ( 'NONE',  ( -0.1360490996319702051, 0.000000000000000000, 0.9907020957327840049 ) ) ;
#567 = VECTOR ( 'NONE', #1030, 1000.000000000000000 ) ;
#568 = VECTOR ( 'NONE', #114, 1000.000000000000000 ) ;
#569 = PLANE ( 'NONE',  #443 ) ;
#570 = ORIENTED_EDGE ( 'NONE', *, *, #895, .F. ) ;
#571 = CARTESIAN_POINT ( 'NONE',  ( 55.86544404413800180, 0.000000000000000000, 28.56912190006800145 ) ) ;
#572 = CARTESIAN_POINT ( 'NONE',  ( 37.24872853547299911, 38.14050145230899602, 8.924258438230999957 ) ) ;
#573 = ADVANCED_FACE ( 'NONE', ( #500 ), #396, .T. ) ;
#574 = CYLINDRICAL_SURFACE ( 'NONE', #516, 1.507470223060001446 ) ;
#575 = VERTEX_POINT ( 'NONE', #571 ) ;
#576 = DIRECTION ( 'NONE',  ( 0.000000000000000000, 0.03134799490791926463, -0.9995085308366572496 ) ) ;
#577 = DIRECTION ( 'NONE',  ( 0.000000000000000000, -0.5269024253660127277, 0.8499257815500206314 ) ) ;
#578 = EDGE_CURVE ( 'NONE', #985, #498, #81, .T. ) ;
#579 = DIRECTION ( 'NONE',  ( -0.000000000000000000, 0.9995085308366576937, 0.03134799490790927262 ) ) ;
#580 = ORIENTED_EDGE ( 'NONE', *, *, #445, .T. ) ;
#581 = CARTESIAN_POINT ( 'NONE',  ( 76.19793320711599449, 16.07246653763899857, 10.42876623100100097 ) ) ;
#582 = LINE ( 'NONE', #7, #925 ) ;
#583 = VECTOR ( 'NONE', #732, 1000.000000000000000 ) ;
#584 = VECTOR ( 'NONE', #482, 1000.000000000000114 ) ;
#585 = VECTOR ( 'NONE', #260, 1000.000000000000000 ) ;
#586 = CARTESIAN_POINT ( 'NONE',  ( 50.72480357854799848, 38.14050145230899602, 21.59771442697200072 ) ) ;
#587 = EDGE_LOOP ( 'NONE', ( #11, #800, #643, #204 ) ) ;
#588 = ORIENTED_EDGE ( 'NONE', *, *, #55, .F. ) ;
#589 = CARTESIAN_POINT ( 'NONE',  ( 40.25830508063900481, 0.000000000000000000, 7.913790979514000234 ) ) ;
#590 = DIRECTION ( 'NONE',  ( -1.000000000000000000, 0.000000000000000000, 0.000000000000000000 ) ) ;
#591 = ORIENTED_EDGE ( 'NONE', *, *, #347, .F. ) ;
#592 = EDGE_CURVE ( 'NONE', #466, #49, #979, .T. ) ;
#593 = ORIENTED_EDGE ( 'NONE', *, *, #952, .F. ) ;
#594 = DIRECTION ( 'NONE',  ( 0.000000000000000000, -0.03134799490790927262, 0.9995085308366576937 ) ) ;
#595 = DIRECTION ( 'NONE',  ( 0.000000000000000000, 0.000000000000000000, 1.000000000000000000 ) ) ;
#596 = ORIENTED_EDGE ( 'NONE', *, *, #752, .F. ) ;
#597 = ADVANCED_FACE ( 'NONE', ( #412 ), #235, .F. ) ;
#598 = VERTEX_POINT ( 'NONE', #480 ) ;
#599 = PLANE ( 'NONE',  #358 ) ;
#600 = CARTESIAN_POINT ( 'NONE',  ( 39.68251412303199999, 38.14050145230899602, 11.55698885537800003 ) ) ;
#601 = EDGE_CURVE ( 'NONE', #89, #835, #746, .T. ) ;
#602 = VERTEX_POINT ( 'NONE', #329 ) ;
#603 = VECTOR ( 'NONE', #774, 1000.000000000000114 ) ;
#604 = ORIENTED_EDGE ( 'NONE', *, *, #717, .F. ) ;
#605 = CARTESIAN_POINT ( 'NONE',  ( 0.000000000000000000, 0.000000000000000000, 0.000000000000000000 ) ) ;
#606 = EDGE_CURVE ( 'NONE', #283, #192, #736, .T. ) ;
#607 = ORIENTED_EDGE ( 'NONE', *, *, #623, .F. ) ;
#608 = VERTEX_POINT ( 'NONE', #159 ) ;
#609 = CARTESIAN_POINT ( 'NONE',  ( 76.19793320711599449, 19.10195809653799870, 10.52378141399599976 ) ) ;
#610 = CARTESIAN_POINT ( 'NONE',  ( 40.25830508063900481, 0.000000000000000000, 0.000000000000000000 ) ) ;
#611 = CARTESIAN_POINT ( 'NONE',  ( 76.19793320711599449, 19.04710105505899875, 12.27285918103399887 ) ) ;
#612 = VERTEX_POINT ( 'NONE', #297 ) ;
#613 = DIRECTION ( 'NONE',  ( 0.000000000000000000, 0.000000000000000000, 1.000000000000000000 ) ) ;
#614 = DIRECTION ( 'NONE',  ( 0.000000000000000000, 1.000000000000000000, 0.000000000000000000 ) ) ;
#615 = VECTOR ( 'NONE', #876, 1000.000000000000000 ) ;
#616 = DIRECTION ( 'NONE',  ( -0.1360490996319702051, 0.000000000000000000, 0.9907020957327840049 ) ) ;
#617 = ORIENTED_EDGE ( 'NONE', *, *, #601, .T. ) ;
#618 = VECTOR ( 'NONE', #491, 1000.000000000000227 ) ;
#619 = DIRECTION ( 'NONE',  ( -1.000000000000000000, 0.000000000000000000, 0.000000000000000000 ) ) ;
#620 = LINE ( 'NONE', #562, #615 ) ;
#621 = PLANE ( 'NONE',  #147 ) ;
#622 = ORIENTED_EDGE ( 'NONE', *, *, #922, .F. ) ;
#623 = EDGE_CURVE ( 'NONE', #831, #503, #454, .T. ) ;
#624 = CARTESIAN_POINT ( 'NONE',  ( 67.46119411731899618, 38.14050145230899602, 4.109405271728999942 ) ) ;
#625 = CARTESIAN_POINT ( 'NONE',  ( 76.19793320711599449, 16.07246653763899857, 10.42876623100100097 ) ) ;
#626 = VERTEX_POINT ( 'NONE', #289 ) ;
#627 = CARTESIAN_POINT ( 'NONE',  ( 39.68251412303199999, 38.14050145230899602, 8.924258438230999957 ) ) ;
#628 = DIRECTION ( 'NONE',  ( 0.000000000000000000, -0.8812737764579712252, 0.4726061054699841057 ) ) ;
#629 = CARTESIAN_POINT ( 'NONE',  ( 66.74625722680600859, 17.61464083782799861, 9.601734938979999967 ) ) ;
#630 = EDGE_LOOP ( 'NONE', ( #757, #1073, #294 ) ) ;
#631 = CIRCLE ( 'NONE', #300, 1.507470223060001446 ) ;
#632 = PRESENTATION_LAYER_ASSIGNMENT (  '', '', ( #201 ) ) ;
#633 = DIRECTION ( 'NONE',  ( 0.000000000000000000, -1.000000000000000000, 0.000000000000000000 ) ) ;
#634 = VECTOR ( 'NONE', #410, 1000.000000000000000 ) ;
#635 = LINE ( 'NONE', #63, #801 ) ;
#636 = EDGE_CURVE ( 'NONE', #403, #959, #718, .T. ) ;
#637 = DIRECTION ( 'NONE',  ( 0.000000000000000000, -0.8499257815500207425, -0.5269024253660127277 ) ) ;
#638 = ORIENTED_EDGE ( 'NONE', *, *, #69, .F. ) ;
#639 = CARTESIAN_POINT ( 'NONE',  ( 70.01066679664799608, 38.14050145230899602, 0.000000000000000000 ) ) ;
#640 = ADVANCED_BREP_SHAPE_REPRESENTATION ( '20260414_160844_111', ( #521, #284 ), #702 ) ;
#641 = CARTESIAN_POINT ( 'NONE',  ( 37.24872853547299911, 28.16057157200700090, 11.55698885537800003 ) ) ;
#642 = CARTESIAN_POINT ( 'NONE',  ( 69.11263262050916012, 8.382353059135004614, 1.447509678194652150 ) ) ;
#643 = ORIENTED_EDGE ( 'NONE', *, *, #509, .F. ) ;
#644 = CARTESIAN_POINT ( 'NONE',  ( 37.24872853547299911, 38.14050145230899602, 11.55698885537800003 ) ) ;
#645 = CARTESIAN_POINT ( 'NONE',  ( 0.000000000000000000, 38.14050145230899602, 28.56912190006800145 ) ) ;
#646 = CARTESIAN_POINT ( 'NONE',  ( 55.86544404413800180, 38.14050145230899602, 28.56912190006800145 ) ) ;
#647 = VERTEX_POINT ( 'NONE', #48 ) ;
#648 = AXIS2_PLACEMENT_3D ( 'NONE', #1007, #845, #15 ) ;
#649 =( NAMED_UNIT ( * ) SI_UNIT ( $, .STERADIAN. ) SOLID_ANGLE_UNIT ( ) );
#650 = EDGE_CURVE ( 'NONE', #219, #273, #477, .T. ) ;
#651 = AXIS2_PLACEMENT_3D ( 'NONE', #901, #742, #566 ) ;
#652 = FACE_OUTER_BOUND ( 'NONE', #399, .T. ) ;
#653 = AXIS2_PLACEMENT_3D ( 'NONE', #149, #417, #406 ) ;
#654 = AXIS2_PLACEMENT_3D ( 'NONE', #30, #530, #764 ) ;
#655 = LINE ( 'NONE', #2, #38 ) ;
#656 = ORIENTED_EDGE ( 'NONE', *, *, #355, .F. ) ;
#657 = EDGE_CURVE ( 'NONE', #912, #965, #52, .T. ) ;
#658 = CARTESIAN_POINT ( 'NONE',  ( 66.74625722680600859, 16.01760949616000218, 12.17784399803999840 ) ) ;
#659 = DIRECTION ( 'NONE',  ( 1.000000000000000000, 0.000000000000000000, 0.000000000000000000 ) ) ;
#660 = FACE_OUTER_BOUND ( 'NONE', #274, .T. ) ;
#661 = VERTEX_POINT ( 'NONE', #629 ) ;
#662 = DIRECTION ( 'NONE',  ( 1.000000000000000000, 0.000000000000000000, 0.000000000000000000 ) ) ;
#663 = DIRECTION ( 'NONE',  ( 1.000000000000000000, 0.000000000000000000, 0.000000000000000000 ) ) ;
#664 = CARTESIAN_POINT ( 'NONE',  ( 68.24390702451324842, 8.015565368629308907, 2.847777887703312416 ) ) ;
#665 = EDGE_LOOP ( 'NONE', ( #682, #725, #469, #416 ) ) ;
#666 = ORIENTED_EDGE ( 'NONE', *, *, #650, .T. ) ;
#667 = DIRECTION ( 'NONE',  ( -0.000000000000000000, 1.000000000000000000, 0.000000000000000000 ) ) ;
#668 =( GEOMETRIC_REPRESENTATION_CONTEXT ( 3 ) GLOBAL_UNCERTAINTY_ASSIGNED_CONTEXT ( ( #745 ) ) GLOBAL_UNIT_ASSIGNED_CONTEXT ( ( #560, #971, #649 ) ) REPRESENTATION_CONTEXT ( 'NONE', 'WORKASPACE' ) );
#669 = EDGE_CURVE ( 'NONE', #612, #283, #798, .T. ) ;
#670 = VECTOR ( 'NONE', #161, 1000.000000000000000 ) ;
#671 = CARTESIAN_POINT ( 'NONE',  ( 67.46119411731899618, 7.305931228849999570, 4.109405271728999942 ) ) ;
#672 = ORIENTED_EDGE ( 'NONE', *, *, #1009, .T. ) ;
#673 = ORIENTED_EDGE ( 'NONE', *, *, #153, .T. ) ;
#674 = LINE ( 'NONE', #811, #513 ) ;
#675 = ADVANCED_FACE ( 'NONE', ( #380 ), #784, .F. ) ;
#676 = DIRECTION ( 'NONE',  ( 1.000000000000000000, 0.000000000000000000, 0.000000000000000000 ) ) ;
#677 = VERTEX_POINT ( 'NONE', #123 ) ;
#678 = ORIENTED_EDGE ( 'NONE', *, *, #1029, .T. ) ;
#679 = LINE ( 'NONE', #1006, #251 ) ;
#680 = ADVANCED_FACE ( 'NONE', ( #550 ), #44, .F. ) ;
#681 = DIRECTION ( 'NONE',  ( 0.000000000000000000, 0.000000000000000000, 1.000000000000000000 ) ) ;
#682 = ORIENTED_EDGE ( 'NONE', *, *, #540, .T. ) ;
#683 = EDGE_LOOP ( 'NONE', ( #85, #61, #741, #5 ) ) ;
#684 = DIRECTION ( 'NONE',  ( 1.000000000000000000, 0.000000000000000000, 0.000000000000000000 ) ) ;
#685 = ADVANCED_FACE ( 'NONE', ( #60 ), #877, .T. ) ;
#686 = ADVANCED_FACE ( 'NONE', ( #968 ), #621, .T. ) ;
#687 = CARTESIAN_POINT ( 'NONE',  ( 76.19793320711599449, 38.14050145230899602, 0.000000000000000000 ) ) ;
#688 = CLOSED_SHELL ( 'NONE', ( #573, #176, #428, #680, #790, #1004, #1050, #865, #177, #907, #413, #172, #265, #1054, #322, #937, #433, #281, #874, #186, #786, #969, #364, #703, #686, #692, #982, #597, #889, #126, #558, #685, #292, #675 ) ) ;
#689 = ORIENTED_EDGE ( 'NONE', *, *, #987, .T. ) ;
#690 = VECTOR ( 'NONE', #637, 1000.000000000000000 ) ;
#691 = ORIENTED_EDGE ( 'NONE', *, *, #69, .T. ) ;
#692 = ADVANCED_FACE ( 'NONE', ( #727 ), #385, .F. ) ;
#693 = DIRECTION ( 'NONE',  ( 0.000000000000000000, 0.000000000000000000, 1.000000000000000000 ) ) ;
#694 = CARTESIAN_POINT ( 'NONE',  ( 0.000000000000000000, 38.14050145230899602, 0.000000000000000000 ) ) ;
#695 = DIRECTION ( 'NONE',  ( 1.000000000000000000, 0.000000000000000000, 0.000000000000000000 ) ) ;
#696 = ORIENTED_EDGE ( 'NONE', *, *, #315, .T. ) ;
#697 = FACE_OUTER_BOUND ( 'NONE', #1008, .T. ) ;
#698 = CARTESIAN_POINT ( 'NONE',  ( 66.74625722680600859, 19.10195809653799870, 10.52378141399599976 ) ) ;
#699 = CARTESIAN_POINT ( 'NONE',  ( 37.24872853547299911, 38.14050145230899602, 11.55698885537800003 ) ) ;
#700 = ORIENTED_EDGE ( 'NONE', *, *, #135, .F. ) ;
#701 = CARTESIAN_POINT ( 'NONE',  ( 39.68251412303199999, 38.14050145230899602, 11.55698885537800003 ) ) ;
#702 =( GEOMETRIC_REPRESENTATION_CONTEXT ( 3 ) GLOBAL_UNCERTAINTY_ASSIGNED_CONTEXT ( ( #905 ) ) GLOBAL_UNIT_ASSIGNED_CONTEXT ( ( #287, #707, #1039 ) ) REPRESENTATION_CONTEXT ( 'NONE', 'WORKASPACE' ) );
#703 = ADVANCED_FACE ( 'NONE', ( #394 ), #1036, .F. ) ;
#704 = ORIENTED_EDGE ( 'NONE', *, *, #481, .F. ) ;
#705 = VECTOR ( 'NONE', #552, 1000.000000000000000 ) ;
#706 = CARTESIAN_POINT ( 'NONE',  ( 37.24872853547299911, 38.14050145230899602, 11.55698885537800003 ) ) ;
#707 =( NAMED_UNIT ( * ) PLANE_ANGLE_UNIT ( ) SI_UNIT ( $, .RADIAN. ) );
#708 = EDGE_CURVE ( 'NONE', #451, #993, #1048, .T. ) ;
#709 = CARTESIAN_POINT ( 'NONE',  ( 39.68251412303199999, 28.16057157200700090, 8.924258438230999957 ) ) ;
#710 = EDGE_LOOP ( 'NONE', ( #861, #666, #224, #730 ) ) ;
#711 = CARTESIAN_POINT ( 'NONE',  ( 76.19793320711599449, 0.000000000000000000, 0.000000000000000000 ) ) ;
#712 = CARTESIAN_POINT ( 'NONE',  ( 0.000000000000000000, 0.000000000000000000, 0.000000000000000000 ) ) ;
#713 = ORIENTED_EDGE ( 'NONE', *, *, #918, .T. ) ;
#714 = CARTESIAN_POINT ( 'NONE',  ( 76.19793320711599449, 0.000000000000000000, 28.56912190006800145 ) ) ;
#715 = EDGE_CURVE ( 'NONE', #362, #192, #884, .T. ) ;
#716 = DIRECTION ( 'NONE',  ( 0.000000000000000000, -0.8499257815500207425, -0.5269024253660127277 ) ) ;
#717 = EDGE_CURVE ( 'NONE', #575, #268, #871, .T. ) ;
#718 = LINE ( 'NONE', #788, #144 ) ;
#719 = ORIENTED_EDGE ( 'NONE', *, *, #315, .F. ) ;
#720 = AXIS2_PLACEMENT_3D ( 'NONE', #493, #663, #72 ) ;
#721 = DIRECTION ( 'NONE',  ( -0.1360490996319702051, 0.000000000000000000, 0.9907020957327840049 ) ) ;
#722 = AXIS2_PLACEMENT_3D ( 'NONE', #276, #681, #19 ) ;
#723 = CARTESIAN_POINT ( 'NONE',  ( 0.000000000000000000, 0.000000000000000000, 0.000000000000000000 ) ) ;
#724 = CARTESIAN_POINT ( 'NONE',  ( 64.91172143798999628, 8.382353059134999285, -3.849533181520999533E-16 ) ) ;
#725 = ORIENTED_EDGE ( 'NONE', *, *, #377, .T. ) ;
#726 = CARTESIAN_POINT ( 'NONE',  ( 50.92989354511699673, 38.14050145230899602, 20.10426051773199774 ) ) ;
#727 = FACE_OUTER_BOUND ( 'NONE', #522, .T. ) ;
#728 = VERTEX_POINT ( 'NONE', #207 ) ;
#729 = EDGE_CURVE ( 'NONE', #728, #343, #554, .T. ) ;
#730 = ORIENTED_EDGE ( 'NONE', *, *, #98, .F. ) ;
#731 = LINE ( 'NONE', #245, #302 ) ;
#732 = DIRECTION ( 'NONE',  ( -1.000000000000000000, 0.000000000000000000, 0.000000000000000000 ) ) ;
#733 = CARTESIAN_POINT ( 'NONE',  ( 76.19793320711599449, 16.01760949616000218, 12.17784399803999840 ) ) ;
#734 = VERTEX_POINT ( 'NONE', #724 ) ;
#735 = ORIENTED_EDGE ( 'NONE', *, *, #539, .T. ) ;
#736 = LINE ( 'NONE', #658, #802 ) ;
#737 = DIRECTION ( 'NONE',  ( 1.000000000000000000, 0.000000000000000000, 0.000000000000000000 ) ) ;
#738 = VECTOR ( 'NONE', #305, 1000.000000000000000 ) ;
#739 = CARTESIAN_POINT ( 'NONE',  ( 76.19793320711599449, 19.10195809653799870, 10.52378141399599976 ) ) ;
#740 = EDGE_LOOP ( 'NONE', ( #97, #267, #1003, #124 ) ) ;
#741 = ORIENTED_EDGE ( 'NONE', *, *, #86, .F. ) ;
#742 = DIRECTION ( 'NONE',  ( -0.9907020957327840049, 0.000000000000000000, -0.1360490996319702051 ) ) ;
#743 = CARTESIAN_POINT ( 'NONE',  ( 31.39924158559999867, 0.000000000000000000, 7.913790979514000234 ) ) ;
#744 = ORIENTED_EDGE ( 'NONE', *, *, #1059, .T. ) ;
#745 = UNCERTAINTY_MEASURE_WITH_UNIT (LENGTH_MEASURE( 1.000000000000000082E-05 ), #560, 'distance_accuracy_value', 'NONE');
#746 = LINE ( 'NONE', #900, #184 ) ;
#747 = DIRECTION ( 'NONE',  ( 0.000000000000000000, 0.000000000000000000, -1.000000000000000000 ) ) ;
#748 = EDGE_CURVE ( 'NONE', #1014, #283, #823, .T. ) ;
#749 = DIRECTION ( 'NONE',  ( 0.000000000000000000, 0.000000000000000000, 1.000000000000000000 ) ) ;
#750 = ORIENTED_EDGE ( 'NONE', *, *, #748, .T. ) ;
#751 = ORIENTED_EDGE ( 'NONE', *, *, #236, .F. ) ;
#752 = EDGE_CURVE ( 'NONE', #734, #965, #152, .T. ) ;
#753 = CARTESIAN_POINT ( 'NONE',  ( 39.68251412303199999, 38.14050145230899602, 8.924258438230999957 ) ) ;
#754 = AXIS2_PLACEMENT_3D ( 'NONE', #706, #538, #951 ) ;
#755 = LINE ( 'NONE', #931, #585 ) ;
#756 = ORIENTED_EDGE ( 'NONE', *, *, #987, .F. ) ;
#757 = ORIENTED_EDGE ( 'NONE', *, *, #481, .T. ) ;
#758 = DIRECTION ( 'NONE',  ( 0.000000000000000000, 1.000000000000000000, 0.000000000000000000 ) ) ;
#759 = CARTESIAN_POINT ( 'NONE',  ( 64.91172143798999628, 38.14050145230899602, 0.000000000000000000 ) ) ;
#760 = EDGE_LOOP ( 'NONE', ( #370, #290, #262, #978 ) ) ;
#761 = EDGE_CURVE ( 'NONE', #234, #831, #78, .T. ) ;
#762 = VERTEX_POINT ( 'NONE', #419 ) ;
#763 = CYLINDRICAL_SURFACE ( 'NONE', #770, 1.507470223060001446 ) ;
#764 = DIRECTION ( 'NONE',  ( -1.000000000000000000, 0.000000000000000000, 0.000000000000000000 ) ) ;
#765 = ORIENTED_EDGE ( 'NONE', *, *, #93, .T. ) ;
#766 = ORIENTED_EDGE ( 'NONE', *, *, #14, .T. ) ;
#767 = CARTESIAN_POINT ( 'NONE',  ( 49.76744847254099824, 38.14050145230899602, 28.56912190006800145 ) ) ;
#768 = VECTOR ( 'NONE', #936, 1000.000000000000227 ) ;
#769 = DIRECTION ( 'NONE',  ( 0.000000000000000000, 1.000000000000000000, 0.000000000000000000 ) ) ;
#770 = AXIS2_PLACEMENT_3D ( 'NONE', #779, #1021, #263 ) ;
#771 = LINE ( 'NONE', #313, #214 ) ;
#772 = CIRCLE ( 'NONE', #980, 1.507470223060001446 ) ;
#773 = ORIENTED_EDGE ( 'NONE', *, *, #108, .T. ) ;
#774 = DIRECTION ( 'NONE',  ( -0.1360490996319702051, 0.000000000000000000, 0.9907020957327840049 ) ) ;
#775 =( BOUNDED_CURVE ( )  B_SPLINE_CURVE ( 3, ( #51, #40, #953, #132 ),
 .UNSPECIFIED., .F., .T. ) 
 B_SPLINE_CURVE_WITH_KNOTS ( ( 4, 4 ),
 ( 1.058425691026110060, 1.570796326794896558 ),
 .UNSPECIFIED. ) 
 CURVE ( )  GEOMETRIC_REPRESENTATION_ITEM ( )  RATIONAL_B_SPLINE_CURVE ( ( 1.000000000000000000, 0.9782424166610006466, 0.9782424166610006466, 1.000000000000000000 ) ) 
 REPRESENTATION_ITEM ( '' )  );
#776 = LINE ( 'NONE', #352, #470 ) ;
#777 = CARTESIAN_POINT ( 'NONE',  ( 67.46119411731899618, 38.14050145230899602, 4.109405271728999942 ) ) ;
#778 = ORIENTED_EDGE ( 'NONE', *, *, #151, .T. ) ;
#779 = CARTESIAN_POINT ( 'NONE',  ( 50.58875447891599464, 38.14050145230899602, 22.58841652270499978 ) ) ;
#780 = EDGE_CURVE ( 'NONE', #239, #17, #327, .T. ) ;
#781 = VERTEX_POINT ( 'NONE', #739 ) ;
#782 = FACE_OUTER_BOUND ( 'NONE', #244, .T. ) ;
#783 = VECTOR ( 'NONE', #525, 1000.000000000000000 ) ;
#784 = PLANE ( 'NONE',  #822 ) ;
#785 = ORIENTED_EDGE ( 'NONE', *, *, #236, .T. ) ;
#786 = ADVANCED_FACE ( 'NONE', ( #660 ), #1067, .F. ) ;
#787 = DIRECTION ( 'NONE',  ( 1.000000000000000000, 0.000000000000000000, 0.000000000000000000 ) ) ;
#788 = CARTESIAN_POINT ( 'NONE',  ( 0.000000000000000000, 0.000000000000000000, 0.000000000000000000 ) ) ;
#789 = ORIENTED_EDGE ( 'NONE', *, *, #151, .F. ) ;
#790 = ADVANCED_FACE ( 'NONE', ( #256 ), #243, .F. ) ;
#791 = LINE ( 'NONE', #291, #391 ) ;
#792 = LINE ( 'NONE', #561, #440 ) ;
#793 = PLANE ( 'NONE',  #393 ) ;
#794 = DIRECTION ( 'NONE',  ( 1.805302150032999963E-31, 1.000000000000000000, 0.000000000000000000 ) ) ;
#795 = ORIENTED_EDGE ( 'NONE', *, *, #904, .F. ) ;
#796 = CARTESIAN_POINT ( 'NONE',  ( 49.23134966930799550, 38.14050145230899602, 21.39262446040299892 ) ) ;
#797 = DIRECTION ( 'NONE',  ( 1.000000000000000000, 0.000000000000000000, 0.000000000000000000 ) ) ;
#798 = LINE ( 'NONE', #958, #690 ) ;
#799 = VECTOR ( 'NONE', #461, 1000.000000000000114 ) ;
#800 = ORIENTED_EDGE ( 'NONE', *, *, #407, .T. ) ;
#801 = VECTOR ( 'NONE', #850, 1000.000000000000000 ) ;
#802 = VECTOR ( 'NONE', #576, 1000.000000000000114 ) ;
#803 = ORIENTED_EDGE ( 'NONE', *, *, #102, .F. ) ;
#804 = DIRECTION ( 'NONE',  ( 0.000000000000000000, 0.000000000000000000, 1.000000000000000000 ) ) ;
#805 = PRODUCT_DEFINITION_FORMATION_WITH_SPECIFIED_SOURCE ( 'ไป', '', #404, .NOT_KNOWN. ) ;
#806 = LINE ( 'NONE', #699, #357 ) ;
#807 = CARTESIAN_POINT ( 'NONE',  ( 59.51109069842399180, 3.458543296720999916, 3.458543296720999916 ) ) ;
#808 = ORIENTED_EDGE ( 'NONE', *, *, #288, .T. ) ;
#809 = VERTEX_POINT ( 'NONE', #1072 ) ;
#810 = DIRECTION ( 'NONE',  ( 1.000000000000000000, 0.000000000000000000, 0.000000000000000000 ) ) ;
#811 = CARTESIAN_POINT ( 'NONE',  ( 0.000000000000000000, 0.000000000000000000, 0.000000000000000000 ) ) ;
#812 = EDGE_CURVE ( 'NONE', #273, #762, #902, .T. ) ;
#813 = CARTESIAN_POINT ( 'NONE',  ( 76.19793320711599449, 8.382353059134999285, -7.699066363041999067E-16 ) ) ;
#814 = ORIENTED_EDGE ( 'NONE', *, *, #485, .T. ) ;
#815 = DIRECTION ( 'NONE',  ( -1.000000000000000000, 0.000000000000000000, 0.000000000000000000 ) ) ;
#816 = CARTESIAN_POINT ( 'NONE',  ( 38.46562132925200217, 28.16057157200700090, 10.24062364680399995 ) ) ;
#817 = DIRECTION ( 'NONE',  ( -1.000000000000000000, 0.000000000000000000, 0.000000000000000000 ) ) ;
#818 = EDGE_LOOP ( 'NONE', ( #765, #514, #570, #928 ) ) ;
#819 = LINE ( 'NONE', #230, #163 ) ;
#820 = VECTOR ( 'NONE', #1053, 1000.000000000000000 ) ;
#821 = LINE ( 'NONE', #832, #995 ) ;
#822 = AXIS2_PLACEMENT_3D ( 'NONE', #712, #218, #881 ) ;
#823 = LINE ( 'NONE', #415, #634 ) ;
#824 = ORIENTED_EDGE ( 'NONE', *, *, #14, .F. ) ;
#825 = VERTEX_POINT ( 'NONE', #829 ) ;
#826 = FACE_BOUND ( 'NONE', #990, .T. ) ;
#827 = EDGE_CURVE ( 'NONE', #1014, #362, #655, .T. ) ;
#828 = CARTESIAN_POINT ( 'NONE',  ( 39.68251412303199999, 38.14050145230899602, 8.924258438230999957 ) ) ;
#829 = CARTESIAN_POINT ( 'NONE',  ( 52.81644625834000095, 38.14050145230899602, 6.366486936299000199 ) ) ;
#830 = ORIENTED_EDGE ( 'NONE', *, *, #1059, .F. ) ;
#831 = VERTEX_POINT ( 'NONE', #483 ) ;
#832 = CARTESIAN_POINT ( 'NONE',  ( 66.74625722680600859, 16.07246653763899857, 10.42876623100100097 ) ) ;
#833 = LINE ( 'NONE', #314, #670 ) ;
#834 = VERTEX_POINT ( 'NONE', #67 ) ;
#835 = VERTEX_POINT ( 'NONE', #83 ) ;
#836 = CARTESIAN_POINT ( 'NONE',  ( 50.58875447891599464, 14.39391749847700019, 22.58841652270499978 ) ) ;
#837 = VECTOR ( 'NONE', #616, 1000.000000000000114 ) ;
#838 = AXIS2_PLACEMENT_3D ( 'NONE', #299, #307, #787 ) ;
#839 = EDGE_CURVE ( 'NONE', #809, #89, #833, .T. ) ;
#840 = VECTOR ( 'NONE', #992, 1000.000000000000000 ) ;
#841 = CARTESIAN_POINT ( 'NONE',  ( 59.51109069842399180, 0.000000000000000000, 0.000000000000000000 ) ) ;
#842 = ORIENTED_EDGE ( 'NONE', *, *, #122, .T. ) ;
#843 = ORIENTED_EDGE ( 'NONE', *, *, #669, .T. ) ;
#844 = DIRECTION ( 'NONE',  ( -0.000000000000000000, 1.000000000000000000, 0.000000000000000000 ) ) ;
#845 = DIRECTION ( 'NONE',  ( 0.8497506506299508100, 0.000000000000000000, 0.5271848174539698340 ) ) ;
#846 = VERTEX_POINT ( 'NONE', #497 ) ;
#847 = EDGE_LOOP ( 'NONE', ( #932, #165, #21, #376 ) ) ;
#848 = DIRECTION ( 'NONE',  ( -1.000000000000000000, 0.000000000000000000, 0.000000000000000000 ) ) ;
#849 = PLANE ( 'NONE',  #336 ) ;
#850 = DIRECTION ( 'NONE',  ( 0.000000000000000000, -1.000000000000000000, 0.000000000000000000 ) ) ;
#851 = ORIENTED_EDGE ( 'NONE', *, *, #23, .F. ) ;
#852 = DIRECTION ( 'NONE',  ( 0.000000000000000000, 0.000000000000000000, 1.000000000000000000 ) ) ;
#853 = VECTOR ( 'NONE', #237, 1000.000000000000000 ) ;
#854 = LINE ( 'NONE', #759, #568 ) ;
#855 = LINE ( 'NONE', #962, #494 ) ;
#856 = VECTOR ( 'NONE', #1046, 1000.000000000000227 ) ;
#857 = ORIENTED_EDGE ( 'NONE', *, *, #827, .T. ) ;
#858 = CARTESIAN_POINT ( 'NONE',  ( 76.19793320711599449, 17.61464083782799861, 9.601734938979999967 ) ) ;
#859 = CARTESIAN_POINT ( 'NONE',  ( 66.74625722680600859, 17.61464083782799861, 9.601734938979999967 ) ) ;
#860 = LINE ( 'NONE', #119, #473 ) ;
#861 = ORIENTED_EDGE ( 'NONE', *, *, #102, .T. ) ;
#862 = EDGE_CURVE ( 'NONE', #451, #728, #892, .T. ) ;
#863 = LINE ( 'NONE', #639, #92 ) ;
#864 = APPLICATION_PROTOCOL_DEFINITION ( 'draft international standard', 'automotive_design', 1998, #1052 ) ;
#865 = ADVANCED_FACE ( 'NONE', ( #973 ), #569, .F. ) ;
#866 = CARTESIAN_POINT ( 'NONE',  ( 0.000000000000000000, 0.000000000000000000, 0.000000000000000000 ) ) ;
#867 = EDGE_LOOP ( 'NONE', ( #696, #872, #157, #507 ) ) ;
#868 = DIRECTION ( 'NONE',  ( -0.9907020957327840049, 0.000000000000000000, -0.1360490996319702051 ) ) ;
#869 = DIRECTION ( 'NONE',  ( 0.000000000000000000, 0.000000000000000000, 1.000000000000000000 ) ) ;
#870 = EDGE_CURVE ( 'NONE', #49, #598, #983, .T. ) ;
#871 = LINE ( 'NONE', #138, #799 ) ;
#872 = ORIENTED_EDGE ( 'NONE', *, *, #71, .T. ) ;
#873 = AXIS2_PLACEMENT_3D ( 'NONE', #427, #852, #684 ) ;
#874 = ADVANCED_FACE ( 'NONE', ( #238 ), #574, .F. ) ;
#875 = DIRECTION ( 'NONE',  ( 0.000000000000000000, 0.000000000000000000, -1.000000000000000000 ) ) ;
#876 = DIRECTION ( 'NONE',  ( -1.000000000000000000, 0.000000000000000000, 0.000000000000000000 ) ) ;
#877 = PLANE ( 'NONE',  #113 ) ;
#878 = ORIENTED_EDGE ( 'NONE', *, *, #509, .T. ) ;
#879 = CARTESIAN_POINT ( 'NONE',  ( 0.000000000000000000, 38.14050145230899602, 0.000000000000000000 ) ) ;
#880 = FACE_OUTER_BOUND ( 'NONE', #316, .T. ) ;
#881 = DIRECTION ( 'NONE',  ( 0.000000000000000000, 1.000000000000000000, 0.000000000000000000 ) ) ;
#882 = ORIENTED_EDGE ( 'NONE', *, *, #407, .F. ) ;
#883 = DIRECTION ( 'NONE',  ( 0.000000000000000000, 0.000000000000000000, 1.000000000000000000 ) ) ;
#884 = LINE ( 'NONE', #625, #198 ) ;
#885 = AXIS2_PLACEMENT_3D ( 'NONE', #384, #460, #392 ) ;
#886 = ORIENTED_EDGE ( 'NONE', *, *, #1055, .F. ) ;
#887 = VECTOR ( 'NONE', #619, 1000.000000000000000 ) ;
#888 = CARTESIAN_POINT ( 'NONE',  ( 0.000000000000000000, 38.14050145230899602, 0.000000000000000000 ) ) ;
#889 = ADVANCED_FACE ( 'NONE', ( #910 ), #337, .F. ) ;
#890 = AXIS2_PLACEMENT_3D ( 'NONE', #293, #375, #544 ) ;
#891 = DIRECTION ( 'NONE',  ( -0.1360490996319702051, 0.000000000000000000, 0.9907020957327840049 ) ) ;
#892 = LINE ( 'NONE', #813, #164 ) ;
#893 = VERTEX_POINT ( 'NONE', #488 ) ;
#894 = DIRECTION ( 'NONE',  ( 0.000000000000000000, -1.000000000000000000, 0.000000000000000000 ) ) ;
#895 = EDGE_CURVE ( 'NONE', #762, #677, #772, .T. ) ;
#896 = DIRECTION ( 'NONE',  ( 0.000000000000000000, -1.000000000000000000, 0.000000000000000000 ) ) ;
#897 = DIRECTION ( 'NONE',  ( 0.000000000000000000, 1.000000000000000000, 0.000000000000000000 ) ) ;
#898 = VERTEX_POINT ( 'NONE', #519 ) ;
#899 = ORIENTED_EDGE ( 'NONE', *, *, #1031, .F. ) ;
#900 = CARTESIAN_POINT ( 'NONE',  ( 20.12915254031999979, 38.14050145230899602, 7.913790979514000234 ) ) ;
#901 = CARTESIAN_POINT ( 'NONE',  ( 52.81644625834000095, 38.14050145230899602, 6.366486936299000199 ) ) ;
#902 = LINE ( 'NONE', #1056, #511 ) ;
#903 = ORIENTED_EDGE ( 'NONE', *, *, #1029, .F. ) ;
#904 = EDGE_CURVE ( 'NONE', #898, #350, #755, .T. ) ;
#905 = UNCERTAINTY_MEASURE_WITH_UNIT (LENGTH_MEASURE( 1.000000000000000082E-05 ), #287, 'distance_accuracy_value', 'NONE');
#906 = CARTESIAN_POINT ( 'NONE',  ( 39.68251412303199999, 38.14050145230899602, 11.55698885537800003 ) ) ;
#907 = ADVANCED_FACE ( 'NONE', ( #280 ), #849, .F. ) ;
#908 = CARTESIAN_POINT ( 'NONE',  ( 76.19793320711599449, 1.026542190562000002E-15, 8.382353059134999285 ) ) ;
#909 = AXIS2_PLACEMENT_3D ( 'NONE', #233, #579, #174 ) ;
#910 = FACE_OUTER_BOUND ( 'NONE', #298, .T. ) ;
#911 = ORIENTED_EDGE ( 'NONE', *, *, #42, .T. ) ;
#912 = VERTEX_POINT ( 'NONE', #841 ) ;
#913 = PLANE ( 'NONE',  #248 ) ;
#914 = DIRECTION ( 'NONE',  ( 0.000000000000000000, 0.000000000000000000, 1.000000000000000000 ) ) ;
#915 = ORIENTED_EDGE ( 'NONE', *, *, #717, .T. ) ;
#916 = EDGE_LOOP ( 'NONE', ( #120, #617, #12, #324 ) ) ;
#917 = CARTESIAN_POINT ( 'NONE',  ( 76.19793320711599449, 17.50492675486999872, 13.09989047305599996 ) ) ;
#918 = EDGE_CURVE ( 'NONE', #84, #825, #95, .T. ) ;
#919 = PLANE ( 'NONE',  #648 ) ;
#920 = EDGE_LOOP ( 'NONE', ( #580, #1010, #426, #1034 ) ) ;
#921 = EDGE_LOOP ( 'NONE', ( #79, #691, #1000, #751, #1037, #253, #36, #882, #188, #169, #851, #773, #678, #591, #803, #53, #1020, #158 ) ) ;
#922 = EDGE_CURVE ( 'NONE', #985, #734, #854, .T. ) ;
#923 = DIRECTION ( 'NONE',  ( 1.000000000000000000, 0.000000000000000000, 0.000000000000000000 ) ) ;
#924 = VECTOR ( 'NONE', #896, 1000.000000000000000 ) ;
#925 = VECTOR ( 'NONE', #501, 1000.000000000000000 ) ;
#926 = DIRECTION ( 'NONE',  ( 1.000000000000000000, 0.000000000000000000, 0.000000000000000000 ) ) ;
#927 = ORIENTED_EDGE ( 'NONE', *, *, #1031, .T. ) ;
#928 = ORIENTED_EDGE ( 'NONE', *, *, #58, .F. ) ;
#929 = FACE_OUTER_BOUND ( 'NONE', #424, .T. ) ;
#930 = EDGE_CURVE ( 'NONE', #993, #626, #106, .T. ) ;
#931 = CARTESIAN_POINT ( 'NONE',  ( 0.000000000000000000, 0.000000000000000000, 28.56912190006800145 ) ) ;
#932 = ORIENTED_EDGE ( 'NONE', *, *, #254, .T. ) ;
#933 = ORIENTED_EDGE ( 'NONE', *, *, #492, .T. ) ;
#934 = FACE_OUTER_BOUND ( 'NONE', #1049, .T. ) ;
#935 = DIRECTION ( 'NONE',  ( 0.000000000000000000, 0.8499257815500207425, 0.5269024253660127277 ) ) ;
#936 = DIRECTION ( 'NONE',  ( 0.000000000000000000, -0.8812737764579712252, 0.4726061054699841613 ) ) ;
#937 = ADVANCED_FACE ( 'NONE', ( #438 ), #919, .F. ) ;
#938 = EDGE_LOOP ( 'NONE', ( #1015, #750, #148, #656 ) ) ;
#939 = CARTESIAN_POINT ( 'NONE',  ( 52.81644625834000095, 38.14050145230899602, 6.366486936299000199 ) ) ;
#940 = PRODUCT_DEFINITION ( 'ๆ', '', #805, #387 ) ;
#941 = VECTOR ( 'NONE', #10, 1000.000000000000114 ) ;
#942 = AXIS2_PLACEMENT_3D ( 'NONE', #226, #56, #1023 ) ;
#943 = LINE ( 'NONE', #191, #4 ) ;
#944 = AXIS2_PLACEMENT_3D ( 'NONE', #888, #325, #317 ) ;
#945 = DIRECTION ( 'NONE',  ( 1.000000000000000000, 0.000000000000000000, 0.000000000000000000 ) ) ;
#946 = VECTOR ( 'NONE', #998, 1000.000000000000000 ) ;
#947 = ORIENTED_EDGE ( 'NONE', *, *, #812, .T. ) ;
#948 = LINE ( 'NONE', #701, #547 ) ;
#949 = DIRECTION ( 'NONE',  ( 0.000000000000000000, 0.000000000000000000, 1.000000000000000000 ) ) ;
#950 = ORIENTED_EDGE ( 'NONE', *, *, #217, .T. ) ;
#951 = DIRECTION ( 'NONE',  ( 1.000000000000000000, 0.000000000000000000, 0.000000000000000000 ) ) ;
#952 = EDGE_CURVE ( 'NONE', #193, #912, #342, .T. ) ;
#953 = CARTESIAN_POINT ( 'NONE',  ( 65.80975561412881802, 8.382353059135004614, 1.447509678194651261 ) ) ;
#954 = CARTESIAN_POINT ( 'NONE',  ( 59.51109069842399180, 0.000000000000000000, 0.000000000000000000 ) ) ;
#955 = ORIENTED_EDGE ( 'NONE', *, *, #378, .T. ) ;
#956 = FACE_OUTER_BOUND ( 'NONE', #3, .T. ) ;
#957 = CIRCLE ( 'NONE', #942, 1.507470223060001446 ) ;
#958 = CARTESIAN_POINT ( 'NONE',  ( 66.74625722680600859, 17.50492675486999872, 13.09989047305599996 ) ) ;
#959 = VERTEX_POINT ( 'NONE', #694 ) ;
#960 = AXIS2_PLACEMENT_3D ( 'NONE', #111, #844, #275 ) ;
#961 = LINE ( 'NONE', #220, #705 ) ;
#962 = CARTESIAN_POINT ( 'NONE',  ( 49.09530056967599876, 38.14050145230899602, 22.38332655613599798 ) ) ;
#963 = FACE_OUTER_BOUND ( 'NONE', #665, .T. ) ;
#964 = DIRECTION ( 'NONE',  ( 0.000000000000000000, 0.000000000000000000, 1.000000000000000000 ) ) ;
#965 = VERTEX_POINT ( 'NONE', #446 ) ;
#966 = FILL_AREA_STYLE ('',( #543 ) ) ;
#967 = CARTESIAN_POINT ( 'NONE',  ( 31.39924158559999867, 38.14050145230899602, 7.913790979514000234 ) ) ;
#968 = FACE_OUTER_BOUND ( 'NONE', #630, .T. ) ;
#969 = ADVANCED_FACE ( 'NONE', ( #1018 ), #348, .T. ) ;
#970 = ORIENTED_EDGE ( 'NONE', *, *, #650, .F. ) ;
#971 =( NAMED_UNIT ( * ) PLANE_ANGLE_UNIT ( ) SI_UNIT ( $, .RADIAN. ) );
#972 = LINE ( 'NONE', #611, #371 ) ;
#973 = FACE_OUTER_BOUND ( 'NONE', #564, .T. ) ;
#974 = AXIS2_PLACEMENT_3D ( 'NONE', #610, #1002, #118 ) ;
#975 = ORIENTED_EDGE ( 'NONE', *, *, #812, .F. ) ;
#976 = VECTOR ( 'NONE', #366, 1000.000000000000000 ) ;
#977 = VECTOR ( 'NONE', #76, 1000.000000000000114 ) ;
#978 = ORIENTED_EDGE ( 'NONE', *, *, #485, .F. ) ;
#979 = LINE ( 'NONE', #644, #1040 ) ;
#980 = AXIS2_PLACEMENT_3D ( 'NONE', #73, #512, #595 ) ;
#981 = FACE_OUTER_BOUND ( 'NONE', #116, .T. ) ;
#982 = ADVANCED_FACE ( 'NONE', ( #266 ), #100, .F. ) ;
#983 = LINE ( 'NONE', #247, #946 ) ;
#984 = ORIENTED_EDGE ( 'NONE', *, *, #548, .F. ) ;
#985 = VERTEX_POINT ( 'NONE', #180 ) ;
#986 = CARTESIAN_POINT ( 'NONE',  ( 0.000000000000000000, 38.14050145230899602, 0.000000000000000000 ) ) ;
#987 = EDGE_CURVE ( 'NONE', #661, #1005, #187, .T. ) ;
#988 = DIRECTION ( 'NONE',  ( 0.000000000000000000, -1.000000000000000000, 0.000000000000000000 ) ) ;
#989 = PRODUCT_RELATED_PRODUCT_CATEGORY ( 'part', '', ( #404 ) ) ;
#990 = EDGE_LOOP ( 'NONE', ( #478, #984, #588, #520 ) ) ;
#991 = FACE_OUTER_BOUND ( 'NONE', #938, .T. ) ;
#992 = DIRECTION ( 'NONE',  ( 0.000000000000000000, -1.000000000000000000, 0.000000000000000000 ) ) ;
#993 = VERTEX_POINT ( 'NONE', #687 ) ;
#994 = ORIENTED_EDGE ( 'NONE', *, *, #296, .T. ) ;
#995 = VECTOR ( 'NONE', #87, 1000.000000000000227 ) ;
#996 = PLANE ( 'NONE',  #651 ) ;
#997 = VECTOR ( 'NONE', #716, 1000.000000000000000 ) ;
#998 = DIRECTION ( 'NONE',  ( 1.000000000000000000, 0.000000000000000000, 0.000000000000000000 ) ) ;
#999 = ORIENTED_EDGE ( 'NONE', *, *, #108, .F. ) ;
#1000 = ORIENTED_EDGE ( 'NONE', *, *, #930, .F. ) ;
#1001 = CARTESIAN_POINT ( 'NONE',  ( 49.76744847254099824, 0.000000000000000000, 28.56912190006800145 ) ) ;
#1002 = DIRECTION ( 'NONE',  ( 1.000000000000000000, 0.000000000000000000, 0.000000000000000000 ) ) ;
#1003 = ORIENTED_EDGE ( 'NONE', *, *, #122, .F. ) ;
#1004 = ADVANCED_FACE ( 'NONE', ( #195 ), #434, .F. ) ;
#1005 = VERTEX_POINT ( 'NONE', #698 ) ;
#1006 = CARTESIAN_POINT ( 'NONE',  ( 40.25830508063900481, 0.000000000000000000, 0.000000000000000000 ) ) ;
#1007 = CARTESIAN_POINT ( 'NONE',  ( 67.46119411731899618, 38.14050145230899602, 4.109405271728999942 ) ) ;
#1008 = EDGE_LOOP ( 'NONE', ( #28, #311, #405, #785 ) ) ;
#1009 = EDGE_CURVE ( 'NONE', #825, #268, #776, .T. ) ;
#1010 = ORIENTED_EDGE ( 'NONE', *, *, #729, .T. ) ;
#1011 = LINE ( 'NONE', #939, #603 ) ;
#1012 = VECTOR ( 'NONE', #594, 999.9999999999998863 ) ;
#1013 = CARTESIAN_POINT ( 'NONE',  ( 76.19793320711599449, 16.01760949616000218, 12.17784399803999840 ) ) ;
#1014 = VERTEX_POINT ( 'NONE', #1013 ) ;
#1015 = ORIENTED_EDGE ( 'NONE', *, *, #1065, .T. ) ;
#1016 = PLANE ( 'NONE',  #960 ) ;
#1017 = EDGE_CURVE ( 'NONE', #898, #462, #535, .T. ) ;
#1018 = FACE_OUTER_BOUND ( 'NONE', #189, .T. ) ;
#1019 = LINE ( 'NONE', #645, #354 ) ;
#1020 = ORIENTED_EDGE ( 'NONE', *, *, #93, .F. ) ;
#1021 = DIRECTION ( 'NONE',  ( 0.000000000000000000, 1.000000000000000000, 0.000000000000000000 ) ) ;
#1022 = CARTESIAN_POINT ( 'NONE',  ( 0.000000000000000000, 0.000000000000000000, 28.56912190006800145 ) ) ;
#1023 = DIRECTION ( 'NONE',  ( 0.000000000000000000, 0.000000000000000000, 1.000000000000000000 ) ) ;
#1024 = ORIENTED_EDGE ( 'NONE', *, *, #135, .T. ) ;
#1025 = DIRECTION ( 'NONE',  ( 0.000000000000000000, -1.000000000000000000, 0.000000000000000000 ) ) ;
#1026 = VECTOR ( 'NONE', #223, 1000.000000000000000 ) ;
#1027 = AXIS2_PLACEMENT_3D ( 'NONE', #836, #758, #693 ) ;
#1028 = ORIENTED_EDGE ( 'NONE', *, *, #377, .F. ) ;
#1029 = EDGE_CURVE ( 'NONE', #462, #334, #943, .T. ) ;
#1030 = DIRECTION ( 'NONE',  ( 0.000000000000000000, 1.000000000000000000, 0.000000000000000000 ) ) ;
#1031 = EDGE_CURVE ( 'NONE', #343, #734, #775, .T. ) ;
#1032 = LINE ( 'NONE', #711, #143 ) ;
#1033 = CARTESIAN_POINT ( 'NONE',  ( 76.19793320711599449, 0.000000000000000000, 0.000000000000000000 ) ) ;
#1034 = ORIENTED_EDGE ( 'NONE', *, *, #490, .T. ) ;
#1035 = LINE ( 'NONE', #50, #339 ) ;
#1036 = CYLINDRICAL_SURFACE ( 'NONE', #8, 8.382353059134999285 ) ;
#1037 = ORIENTED_EDGE ( 'NONE', *, *, #490, .F. ) ;
#1038 = PLANE ( 'NONE',  #286 ) ;
#1039 =( NAMED_UNIT ( * ) SI_UNIT ( $, .STERADIAN. ) SOLID_ANGLE_UNIT ( ) );
#1040 = VECTOR ( 'NONE', #1070, 1000.000000000000000 ) ;
#1041 = DIRECTION ( 'NONE',  ( 1.000000000000000000, 0.000000000000000000, 0.000000000000000000 ) ) ;
#1042 = ORIENTED_EDGE ( 'NONE', *, *, #344, .F. ) ;
#1043 = AXIS2_PLACEMENT_3D ( 'NONE', #156, #590, #914 ) ;
#1044 = LINE ( 'NONE', #206, #128 ) ;
#1045 = DIRECTION ( 'NONE',  ( 0.000000000000000000, 0.8499257815500207425, 0.5269024253660127277 ) ) ;
#1046 = DIRECTION ( 'NONE',  ( 0.000000000000000000, -0.8812737764579712252, 0.4726061054699841613 ) ) ;
#1047 = EDGE_CURVE ( 'NONE', #893, #96, #524, .T. ) ;
#1048 = LINE ( 'NONE', #563, #1026 ) ;
#1049 = EDGE_LOOP ( 'NONE', ( #830, #20, #489, #441, #448 ) ) ;
#1050 = ADVANCED_FACE ( 'NONE', ( #963 ), #793, .F. ) ;
#1051 = DIRECTION ( 'NONE',  ( 0.000000000000000000, 1.000000000000000000, 0.000000000000000000 ) ) ;
#1052 = APPLICATION_CONTEXT ( 'automotive_design' ) ;
#1053 = DIRECTION ( 'NONE',  ( 1.000000000000000000, 0.000000000000000000, 0.000000000000000000 ) ) ;
#1054 = ADVANCED_FACE ( 'NONE', ( #464 ), #369, .F. ) ;
#1055 = EDGE_CURVE ( 'NONE', #103, #239, #620, .T. ) ;
#1056 = CARTESIAN_POINT ( 'NONE',  ( 50.38366451234699639, 14.39391749847700019, 24.08187043194499921 ) ) ;
#1057 = ORIENTED_EDGE ( 'NONE', *, *, #35, .T. ) ;
#1058 = CARTESIAN_POINT ( 'NONE',  ( 66.74625722680600859, 17.55978379634899866, 11.35081270601800085 ) ) ;
#1059 = EDGE_CURVE ( 'NONE', #411, #32, #1032, .T. ) ;
#1060 = PLANE ( 'NONE',  #457 ) ;
#1061 = DIRECTION ( 'NONE',  ( 0.000000000000000000, -0.9995085308366573607, -0.03134799490791926463 ) ) ;
#1062 = ORIENTED_EDGE ( 'NONE', *, *, #9, .F. ) ;
#1063 = VECTOR ( 'NONE', #129, 1000.000000000000000 ) ;
#1064 = DIRECTION ( 'NONE',  ( 0.000000000000000000, 0.000000000000000000, -1.000000000000000000 ) ) ;
#1065 = EDGE_CURVE ( 'NONE', #96, #1014, #309, .T. ) ;
#1066 = DIRECTION ( 'NONE',  ( 0.000000000000000000, 0.000000000000000000, 1.000000000000000000 ) ) ;
#1067 = PLANE ( 'NONE',  #90 ) ;
#1068 = ORIENTED_EDGE ( 'NONE', *, *, #153, .F. ) ;
#1069 = ORIENTED_EDGE ( 'NONE', *, *, #250, .T. ) ;
#1070 = DIRECTION ( 'NONE',  ( 0.000000000000000000, -1.000000000000000000, 0.000000000000000000 ) ) ;
#1071 = CARTESIAN_POINT ( 'NONE',  ( 49.23134966930799550, 38.14050145230899602, 21.39262446040299892 ) ) ;
#1072 = CARTESIAN_POINT ( 'NONE',  ( 31.39924158559999867, 38.14050145230899602, 0.000000000000000000 ) ) ;
#1073 = ORIENTED_EDGE ( 'NONE', *, *, #657, .T. ) ;
ENDSEC;
END-ISO-10303-21;
