ISO-10303-21;
HEADER;
FILE_DESCRIPTION (( 'STEP AP214' ),
    '1' );
FILE_NAME ('20260414_160844_137.STEP',
    '2026-04-16T15:09:16',
    ( '' ),
    ( '' ),
    'SwSTEP 2.0',
    'SolidWorks 2025',
    '' );
FILE_SCHEMA (( 'AUTOMOTIVE_DESIGN' ));
ENDSEC;

DATA;
#1 = FILL_AREA_STYLE ('',( #438 ) ) ;
#2 = VERTEX_POINT ( 'NONE', #302 ) ;
#3 = VECTOR ( 'NONE', #124, 1000.000000000000000 ) ;
#4 = EDGE_CURVE ( 'NONE', #448, #448, #170, .T. ) ;
#5 = CARTESIAN_POINT ( 'NONE',  ( 67.78079747736799732, 72.52938686156299752, 2.231622154353000376 ) ) ;
#6 = VERTEX_POINT ( 'NONE', #451 ) ;
#7 = EDGE_CURVE ( 'NONE', #40, #213, #19, .T. ) ;
#8 = CIRCLE ( 'NONE', #353, 3.382908331722001005 ) ;
#9 = LINE ( 'NONE', #223, #200 ) ;
#10 = ORIENTED_EDGE ( 'NONE', *, *, #383, .T. ) ;
#11 = DIRECTION ( 'NONE',  ( -1.000000000000000000, 0.000000000000000000, 0.000000000000000000 ) ) ;
#12 = VERTEX_POINT ( 'NONE', #418 ) ;
#13 = DIRECTION ( 'NONE',  ( 0.000000000000000000, 0.000000000000000000, 1.000000000000000000 ) ) ;
#14 = VERTEX_POINT ( 'NONE', #17 ) ;
#15 = CARTESIAN_POINT ( 'NONE',  ( 65.14855263178701250, 72.52938686156299752, 2.231622154353000376 ) ) ;
#16 = FACE_OUTER_BOUND ( 'NONE', #193, .T. ) ;
#17 = CARTESIAN_POINT ( 'NONE',  ( 87.79488659866500200, 0.000000000000000000, 2.231622154353000376 ) ) ;
#18 = APPLICATION_CONTEXT ( 'automotive_design' ) ;
#19 = LINE ( 'NONE', #409, #393 ) ;
#20 = PRODUCT_DEFINITION_CONTEXT ( 'detailed design', #18, 'design' ) ;
#21 = DIRECTION ( 'NONE',  ( -1.000000000000000000, 0.000000000000000000, 0.000000000000000000 ) ) ;
#22 = PLANE ( 'NONE',  #195 ) ;
#23 = AXIS2_PLACEMENT_3D ( 'NONE', #278, #420, #93 ) ;
#24 = AXIS2_PLACEMENT_3D ( 'NONE', #143, #428, #392 ) ;
#25 = FACE_OUTER_BOUND ( 'NONE', #301, .T. ) ;
#26 = ORIENTED_EDGE ( 'NONE', *, *, #189, .F. ) ;
#27 = VERTEX_POINT ( 'NONE', #56 ) ;
#28 = PLANE ( 'NONE',  #24 ) ;
#29 = COLOUR_RGB ( '',0.7921568627450980005, 0.8196078431372548767, 0.9333333333333333481 ) ;
#30 = VERTEX_POINT ( 'NONE', #412 ) ;
#31 = DIRECTION ( 'NONE',  ( 0.000000000000000000, 0.000000000000000000, -1.000000000000000000 ) ) ;
#32 = EDGE_CURVE ( 'NONE', #30, #462, #54, .T. ) ;
#33 = DIRECTION ( 'NONE',  ( 1.000000000000000000, 0.000000000000000000, 0.000000000000000000 ) ) ;
#34 = ORIENTED_EDGE ( 'NONE', *, *, #4, .T. ) ;
#35 =( GEOMETRIC_REPRESENTATION_CONTEXT ( 3 ) GLOBAL_UNCERTAINTY_ASSIGNED_CONTEXT ( ( #309 ) ) GLOBAL_UNIT_ASSIGNED_CONTEXT ( ( #277, #282, #142 ) ) REPRESENTATION_CONTEXT ( 'NONE', 'WORKASPACE' ) );
#36 = LINE ( 'NONE', #5, #63 ) ;
#37 = EDGE_LOOP ( 'NONE', ( #259, #104, #188, #229, #140 ) ) ;
#38 = CARTESIAN_POINT ( 'NONE',  ( 0.000000000000000000, 68.07921244798801297, 10.05506319539599858 ) ) ;
#39 = EDGE_LOOP ( 'NONE', ( #191, #348, #183, #72 ) ) ;
#40 = VERTEX_POINT ( 'NONE', #201 ) ;
#41 = CARTESIAN_POINT ( 'NONE',  ( 71.44949914647200728, 66.22844034687699377, 2.413237515007000233 ) ) ;
#42 = ORIENTED_EDGE ( 'NONE', *, *, #374, .T. ) ;
#43 = DIRECTION ( 'NONE',  ( 0.7069599618349600156, -0.7069599618349600156, 0.02037706368993884992 ) ) ;
#44 = VERTEX_POINT ( 'NONE', #130 ) ;
#45 = EDGE_CURVE ( 'NONE', #351, #40, #166, .T. ) ;
#46 = DIRECTION ( 'NONE',  ( 1.000000000000000000, 0.000000000000000000, 0.000000000000000000 ) ) ;
#47 = AXIS2_PLACEMENT_3D ( 'NONE', #58, #322, #245 ) ;
#48 = ORIENTED_EDGE ( 'NONE', *, *, #164, .T. ) ;
#49 = DIRECTION ( 'NONE',  ( -0.000000000000000000, 0.02881153882082091583, 0.9995848614453783920 ) ) ;
#50 = CARTESIAN_POINT ( 'NONE',  ( 33.13872510641800062, 29.30123781805900052, 0.000000000000000000 ) ) ;
#51 = VECTOR ( 'NONE', #440, 1000.000000000000000 ) ;
#52 = DIRECTION ( 'NONE',  ( 1.000000000000000000, 0.000000000000000000, 1.901911571303999950E-31 ) ) ;
#53 = PRODUCT_DEFINITION ( 'ๆ', '', #300, #20 ) ;
#54 = LINE ( 'NONE', #239, #431 ) ;
#55 = CARTESIAN_POINT ( 'NONE',  ( 33.13872510641800062, 29.30123781805900052, 2.461709024635000187 ) ) ;
#56 = CARTESIAN_POINT ( 'NONE',  ( 36.52163343814000029, 29.30123781805900052, 2.461709024635000187 ) ) ;
#57 = CARTESIAN_POINT ( 'NONE',  ( 87.79488659866500200, 72.52938686156299752, 0.000000000000000000 ) ) ;
#58 = CARTESIAN_POINT ( 'NONE',  ( 33.13872510641800062, 29.30123781805900052, 0.000000000000000000 ) ) ;
#59 = EDGE_LOOP ( 'NONE', ( #314, #48, #42, #246, #467, #441 ) ) ;
#60 = VECTOR ( 'NONE', #33, 1000.000000000000000 ) ;
#61 = CARTESIAN_POINT ( 'NONE',  ( 67.78079747736799732, 0.000000000000000000, 2.231622154353000376 ) ) ;
#62 = PLANE ( 'NONE',  #447 ) ;
#63 = VECTOR ( 'NONE', #78, 1000.000000000000000 ) ;
#64 = EDGE_CURVE ( 'NONE', #213, #6, #80, .T. ) ;
#65 = CARTESIAN_POINT ( 'NONE',  ( 87.79488659866500200, 72.52938686156299752, 2.231622154353000376 ) ) ;
#66 = DIRECTION ( 'NONE',  ( 0.000000000000000000, 0.000000000000000000, 1.000000000000000000 ) ) ;
#67 = ORIENTED_EDGE ( 'NONE', *, *, #294, .T. ) ;
#68 = AXIS2_PLACEMENT_3D ( 'NONE', #267, #83, #233 ) ;
#69 = LINE ( 'NONE', #192, #331 ) ;
#70 = ORIENTED_EDGE ( 'NONE', *, *, #125, .F. ) ;
#71 = EDGE_CURVE ( 'NONE', #185, #213, #343, .T. ) ;
#72 = ORIENTED_EDGE ( 'NONE', *, *, #102, .F. ) ;
#73 = DIRECTION ( 'NONE',  ( 0.000000000000000000, 0.000000000000000000, -1.000000000000000000 ) ) ;
#74 = ORIENTED_EDGE ( 'NONE', *, *, #45, .F. ) ;
#75 = LINE ( 'NONE', #396, #154 ) ;
#76 = ORIENTED_EDGE ( 'NONE', *, *, #254, .T. ) ;
#77 = EDGE_CURVE ( 'NONE', #439, #256, #310, .T. ) ;
#78 = DIRECTION ( 'NONE',  ( 0.000000000000000000, -0.9995848614453783920, 0.02881153882082091583 ) ) ;
#79 = VERTEX_POINT ( 'NONE', #163 ) ;
#80 = CIRCLE ( 'NONE', #150, 4.450174413574999654 ) ;
#81 = DIRECTION ( 'NONE',  ( 1.000000000000000000, 0.000000000000000000, 0.000000000000000000 ) ) ;
#82 = CIRCLE ( 'NONE', #232, 7.313727789907000343 ) ;
#83 = DIRECTION ( 'NONE',  ( -1.000000000000000000, 0.000000000000000000, 0.000000000000000000 ) ) ;
#84 = FACE_OUTER_BOUND ( 'NONE', #210, .T. ) ;
#85 = STYLED_ITEM ( 'NONE', ( #399 ), #376 ) ;
#86 = EDGE_CURVE ( 'NONE', #395, #79, #384, .T. ) ;
#87 = DIRECTION ( 'NONE',  ( 0.000000000000000000, 0.000000000000000000, 1.000000000000000000 ) ) ;
#88 = ADVANCED_BREP_SHAPE_REPRESENTATION ( '20260414_160844_137', ( #376, #419 ), #35 ) ;
#89 = CARTESIAN_POINT ( 'NONE',  ( 87.79488659866500200, 0.000000000000000000, 0.000000000000000000 ) ) ;
#90 = APPLICATION_PROTOCOL_DEFINITION ( 'draft international standard', 'automotive_design', 1998, #18 ) ;
#91 = DIRECTION ( 'NONE',  ( 1.000000000000000000, 0.000000000000000000, 0.000000000000000000 ) ) ;
#92 = DIRECTION ( 'NONE',  ( 1.000000000000000000, 0.000000000000000000, 0.000000000000000000 ) ) ;
#93 = DIRECTION ( 'NONE',  ( -1.000000000000000000, 0.000000000000000000, 0.000000000000000000 ) ) ;
#94 = ORIENTED_EDGE ( 'NONE', *, *, #86, .F. ) ;
#95 = CARTESIAN_POINT ( 'NONE',  ( 0.000000000000000000, 72.52938686156299752, 0.000000000000000000 ) ) ;
#96 = EDGE_LOOP ( 'NONE', ( #397, #74, #291, #360, #67 ) ) ;
#97 = AXIS2_PLACEMENT_3D ( 'NONE', #307, #52, #237 ) ;
#98 = DIRECTION ( 'NONE',  ( 1.000000000000000000, 0.000000000000000000, 0.000000000000000000 ) ) ;
#99 = PRODUCT_RELATED_PRODUCT_CATEGORY ( 'part', '', ( #105 ) ) ;
#100 = ORIENTED_EDGE ( 'NONE', *, *, #71, .T. ) ;
#101 = DIRECTION ( 'NONE',  ( 0.000000000000000000, 0.000000000000000000, 1.000000000000000000 ) ) ;
#102 = EDGE_CURVE ( 'NONE', #304, #439, #346, .T. ) ;
#103 = FACE_OUTER_BOUND ( 'NONE', #131, .T. ) ;
#104 = ORIENTED_EDGE ( 'NONE', *, *, #437, .T. ) ;
#105 = PRODUCT ( '20260414_160844_137', '20260414_160844_137', '', ( #286 ) ) ;
#106 = VECTOR ( 'NONE', #456, 1000.000000000000000 ) ;
#107 = LINE ( 'NONE', #38, #51 ) ;
#108 = ORIENTED_EDGE ( 'NONE', *, *, #450, .T. ) ;
#109 = ADVANCED_FACE ( 'NONE', ( #268, #84 ), #416, .T. ) ;
#110 = CARTESIAN_POINT ( 'NONE',  ( 0.000000000000000000, 0.000000000000000000, 0.000000000000000000 ) ) ;
#111 = ORIENTED_EDGE ( 'NONE', *, *, #430, .T. ) ;
#112 = VECTOR ( 'NONE', #403, 1000.000000000000000 ) ;
#113 =( NAMED_UNIT ( * ) PLANE_ANGLE_UNIT ( ) SI_UNIT ( $, .RADIAN. ) );
#114 = ORIENTED_EDGE ( 'NONE', *, *, #333, .T. ) ;
#115 = DIRECTION ( 'NONE',  ( 0.000000000000000000, 0.000000000000000000, 1.000000000000000000 ) ) ;
#116 = ADVANCED_FACE ( 'NONE', ( #161 ), #445, .T. ) ;
#117 = ORIENTED_EDGE ( 'NONE', *, *, #284, .T. ) ;
#118 = CARTESIAN_POINT ( 'NONE',  ( 87.79488659866500200, 0.000000000000000000, 10.05506319539599858 ) ) ;
#119 = ORIENTED_EDGE ( 'NONE', *, *, #383, .F. ) ;
#120 = CARTESIAN_POINT ( 'NONE',  ( 0.000000000000000000, 72.52938686156299752, 10.05506319539599858 ) ) ;
#121 = DIRECTION ( 'NONE',  ( 0.000000000000000000, 1.000000000000000000, 0.000000000000000000 ) ) ;
#122 = ADVANCED_FACE ( 'NONE', ( #373 ), #344, .T. ) ;
#123 = PLANE ( 'NONE',  #68 ) ;
#124 = DIRECTION ( 'NONE',  ( -1.000000000000000000, 0.000000000000000000, 0.000000000000000000 ) ) ;
#125 = EDGE_CURVE ( 'NONE', #270, #270, #82, .T. ) ;
#126 = CARTESIAN_POINT ( 'NONE',  ( 36.52163343814000029, 29.30123781805900052, 0.000000000000000000 ) ) ;
#127 = FACE_OUTER_BOUND ( 'NONE', #96, .T. ) ;
#128 = CIRCLE ( 'NONE', #391, 4.450174413574999654 ) ;
#129 = CARTESIAN_POINT ( 'NONE',  ( 87.79488659866500200, 72.52938686156299752, 2.231622154353000376 ) ) ;
#130 = CARTESIAN_POINT ( 'NONE',  ( 67.78079747736799732, 69.89714201598198429, 2.307492675685999917 ) ) ;
#131 = EDGE_LOOP ( 'NONE', ( #407 ) ) ;
#132 = ADVANCED_FACE ( 'NONE', ( #127 ), #381, .F. ) ;
#133 = PLANE ( 'NONE',  #432 ) ;
#134 = AXIS2_PLACEMENT_3D ( 'NONE', #110, #262, #226 ) ;
#135 = FACE_OUTER_BOUND ( 'NONE', #243, .T. ) ;
#136 = VERTEX_POINT ( 'NONE', #15 ) ;
#137 = VERTEX_POINT ( 'NONE', #426 ) ;
#138 = ADVANCED_FACE ( 'NONE', ( #283 ), #62, .F. ) ;
#139 = CARTESIAN_POINT ( 'NONE',  ( 0.000000000000000000, 0.000000000000000000, 0.000000000000000000 ) ) ;
#140 = ORIENTED_EDGE ( 'NONE', *, *, #257, .T. ) ;
#141 = APPLICATION_CONTEXT ( 'automotive_design' ) ;
#142 =( NAMED_UNIT ( * ) SI_UNIT ( $, .STERADIAN. ) SOLID_ANGLE_UNIT ( ) );
#143 = CARTESIAN_POINT ( 'NONE',  ( 66.46467505457700042, 71.21326443877200063, 0.000000000000000000 ) ) ;
#144 = EDGE_LOOP ( 'NONE', ( #250 ) ) ;
#145 = APPLICATION_PROTOCOL_DEFINITION ( 'draft international standard', 'automotive_design', 1998, #141 ) ;
#146 = LINE ( 'NONE', #394, #187 ) ;
#147 = VERTEX_POINT ( 'NONE', #216 ) ;
#148 = CARTESIAN_POINT ( 'NONE',  ( 87.79488659866500200, 0.000000000000000000, 10.05506319539599858 ) ) ;
#149 = ORIENTED_EDGE ( 'NONE', *, *, #326, .F. ) ;
#150 = AXIS2_PLACEMENT_3D ( 'NONE', #274, #21, #446 ) ;
#151 = ORIENTED_EDGE ( 'NONE', *, *, #204, .F. ) ;
#152 = DIRECTION ( 'NONE',  ( 0.000000000000000000, 1.000000000000000000, 0.000000000000000000 ) ) ;
#153 = EDGE_LOOP ( 'NONE', ( #319 ) ) ;
#154 = VECTOR ( 'NONE', #323, 1000.000000000000000 ) ;
#155 = ADVANCED_FACE ( 'NONE', ( #424 ), #28, .T. ) ;
#156 = DIRECTION ( 'NONE',  ( 0.000000000000000000, 1.000000000000000000, 0.000000000000000000 ) ) ;
#157 = ORIENTED_EDGE ( 'NONE', *, *, #45, .T. ) ;
#158 = CARTESIAN_POINT ( 'NONE',  ( 0.000000000000000000, 72.52938686156299752, 10.05506319539599858 ) ) ;
#159 = ORIENTED_EDGE ( 'NONE', *, *, #271, .T. ) ;
#160 = FACE_OUTER_BOUND ( 'NONE', #364, .T. ) ;
#161 = FACE_OUTER_BOUND ( 'NONE', #402, .T. ) ;
#162 = LINE ( 'NONE', #265, #238 ) ;
#163 = CARTESIAN_POINT ( 'NONE',  ( 87.79488659866500200, 72.52938686156299752, 10.05506319539599858 ) ) ;
#164 = EDGE_CURVE ( 'NONE', #12, #335, #455, .T. ) ;
#165 = DIRECTION ( 'NONE',  ( 1.000000000000000000, 0.000000000000000000, 0.000000000000000000 ) ) ;
#166 = LINE ( 'NONE', #413, #230 ) ;
#167 = AXIS2_PLACEMENT_3D ( 'NONE', #139, #208, #98 ) ;
#168 = DIRECTION ( 'NONE',  ( 0.000000000000000000, 0.000000000000000000, -1.000000000000000000 ) ) ;
#169 = DIRECTION ( 'NONE',  ( 0.000000000000000000, -0.9995848614453783920, -0.02881153882082091583 ) ) ;
#170 = CIRCLE ( 'NONE', #290, 3.382908331722001005 ) ;
#171 = CARTESIAN_POINT ( 'NONE',  ( 86.49222355875400581, 72.52938686156299752, 10.05506319539599858 ) ) ;
#172 = DIRECTION ( 'NONE',  ( 1.000000000000000000, 0.000000000000000000, 0.000000000000000000 ) ) ;
#173 = EDGE_LOOP ( 'NONE', ( #288, #108, #117, #266 ) ) ;
#174 = VECTOR ( 'NONE', #196, 1000.000000000000000 ) ;
#175 = LINE ( 'NONE', #242, #327 ) ;
#176 = ORIENTED_EDGE ( 'NONE', *, *, #64, .F. ) ;
#177 = EDGE_CURVE ( 'NONE', #147, #12, #175, .T. ) ;
#178 = DIRECTION ( 'NONE',  ( 1.000000000000000000, 0.000000000000000000, 0.000000000000000000 ) ) ;
#179 = CARTESIAN_POINT ( 'NONE',  ( 0.000000000000000000, 0.000000000000000000, 0.000000000000000000 ) ) ;
#180 = VECTOR ( 'NONE', #13, 1000.000000000000000 ) ;
#181 = LINE ( 'NONE', #65, #106 ) ;
#182 = LINE ( 'NONE', #324, #112 ) ;
#183 = ORIENTED_EDGE ( 'NONE', *, *, #77, .F. ) ;
#184 = CARTESIAN_POINT ( 'NONE',  ( 87.79488659866500200, 36.26469343078100138, 3.276897711143000436 ) ) ;
#185 = VERTEX_POINT ( 'NONE', #171 ) ;
#186 = CARTESIAN_POINT ( 'NONE',  ( 67.78079747736799732, 0.000000000000000000, 0.000000000000000000 ) ) ;
#187 = VECTOR ( 'NONE', #347, 1000.000000000000000 ) ;
#188 = ORIENTED_EDGE ( 'NONE', *, *, #305, .T. ) ;
#189 = EDGE_CURVE ( 'NONE', #304, #14, #146, .T. ) ;
#190 = CARTESIAN_POINT ( 'NONE',  ( 87.79488659866500200, 72.52938686156299752, 2.231622154353000376 ) ) ;
#191 = ORIENTED_EDGE ( 'NONE', *, *, #189, .T. ) ;
#192 = CARTESIAN_POINT ( 'NONE',  ( 0.000000000000000000, 0.000000000000000000, 10.05506319539599858 ) ) ;
#193 = EDGE_LOOP ( 'NONE', ( #114, #367, #176, #433 ) ) ;
#194 = ADVANCED_FACE ( 'NONE', ( #218, #211 ), #354, .F. ) ;
#195 = AXIS2_PLACEMENT_3D ( 'NONE', #249, #101, #312 ) ;
#196 = DIRECTION ( 'NONE',  ( 0.000000000000000000, 1.000000000000000000, 0.000000000000000000 ) ) ;
#197 = ORIENTED_EDGE ( 'NONE', *, *, #264, .F. ) ;
#198 = PRODUCT_DEFINITION_SHAPE ( 'NONE', 'NONE',  #53 ) ;
#199 = CARTESIAN_POINT ( 'NONE',  ( 0.000000000000000000, 0.000000000000000000, 0.000000000000000000 ) ) ;
#200 = VECTOR ( 'NONE', #260, 1000.000000000000000 ) ;
#201 = CARTESIAN_POINT ( 'NONE',  ( 0.000000000000000000, 72.52938686156299752, 5.604888781820999810 ) ) ;
#202 =( NAMED_UNIT ( * ) SI_UNIT ( $, .STERADIAN. ) SOLID_ANGLE_UNIT ( ) );
#203 = CARTESIAN_POINT ( 'NONE',  ( 87.79488659866500200, 36.26469343078100138, 3.276897711143000436 ) ) ;
#204 = EDGE_CURVE ( 'NONE', #395, #304, #181, .T. ) ;
#205 = DIRECTION ( 'NONE',  ( 1.000000000000000000, 0.000000000000000000, 0.000000000000000000 ) ) ;
#206 = DIRECTION ( 'NONE',  ( 0.000000000000000000, 0.000000000000000000, 1.000000000000000000 ) ) ;
#207 = SHAPE_DEFINITION_REPRESENTATION ( #198, #88 ) ;
#208 = DIRECTION ( 'NONE',  ( 0.000000000000000000, 0.000000000000000000, 1.000000000000000000 ) ) ;
#209 = ADVANCED_FACE ( 'NONE', ( #25, #103 ), #287, .F. ) ;
#210 = EDGE_LOOP ( 'NONE', ( #369 ) ) ;
#211 = FACE_OUTER_BOUND ( 'NONE', #227, .T. ) ;
#212 = ADVANCED_FACE ( 'NONE', ( #350 ), #22, .T. ) ;
#213 = VERTEX_POINT ( 'NONE', #389 ) ;
#214 =( GEOMETRIC_REPRESENTATION_CONTEXT ( 3 ) GLOBAL_UNCERTAINTY_ASSIGNED_CONTEXT ( ( #280 ) ) GLOBAL_UNIT_ASSIGNED_CONTEXT ( ( #252, #113, #202 ) ) REPRESENTATION_CONTEXT ( 'NONE', 'WORKASPACE' ) );
#215 = CYLINDRICAL_SURFACE ( 'NONE', #371, 3.382908331722001005 ) ;
#216 = CARTESIAN_POINT ( 'NONE',  ( 0.000000000000000000, 0.000000000000000000, 0.000000000000000000 ) ) ;
#217 = EDGE_LOOP ( 'NONE', ( #387, #157, #390, #220, #111, #94, #10, #329 ) ) ;
#218 = FACE_BOUND ( 'NONE', #293, .T. ) ;
#219 = FACE_OUTER_BOUND ( 'NONE', #400, .T. ) ;
#220 = ORIENTED_EDGE ( 'NONE', *, *, #71, .F. ) ;
#221 = LINE ( 'NONE', #366, #315 ) ;
#222 = ORIENTED_EDGE ( 'NONE', *, *, #374, .F. ) ;
#223 = CARTESIAN_POINT ( 'NONE',  ( 87.79488659866500200, 0.000000000000000000, 2.231622154353000376 ) ) ;
#224 = ORIENTED_EDGE ( 'NONE', *, *, #257, .F. ) ;
#225 = ADVANCED_FACE ( 'NONE', ( #316 ), #133, .T. ) ;
#226 = DIRECTION ( 'NONE',  ( 1.000000000000000000, 0.000000000000000000, 0.000000000000000000 ) ) ;
#227 = EDGE_LOOP ( 'NONE', ( #261, #197, #453, #263, #76 ) ) ;
#228 = CARTESIAN_POINT ( 'NONE',  ( 67.78079747736799732, 36.26469343078100138, 3.276897711143000436 ) ) ;
#229 = ORIENTED_EDGE ( 'NONE', *, *, #77, .T. ) ;
#230 = VECTOR ( 'NONE', #87, 1000.000000000000000 ) ;
#231 = CARTESIAN_POINT ( 'NONE',  ( 33.13872510641800062, 29.30123781805900052, 0.000000000000000000 ) ) ;
#232 = AXIS2_PLACEMENT_3D ( 'NONE', #50, #449, #341 ) ;
#233 = DIRECTION ( 'NONE',  ( 0.000000000000000000, 0.000000000000000000, 1.000000000000000000 ) ) ;
#234 = DIRECTION ( 'NONE',  ( 0.000000000000000000, 0.000000000000000000, 1.000000000000000000 ) ) ;
#235 = CARTESIAN_POINT ( 'NONE',  ( 86.49222355875400581, 72.52938686156299752, 10.05506319539599858 ) ) ;
#236 = DIRECTION ( 'NONE',  ( 0.000000000000000000, 0.000000000000000000, -1.000000000000000000 ) ) ;
#237 = DIRECTION ( 'NONE',  ( -1.901911571303999950E-31, 0.000000000000000000, 1.000000000000000000 ) ) ;
#238 = VECTOR ( 'NONE', #46, 1000.000000000000000 ) ;
#239 = CARTESIAN_POINT ( 'NONE',  ( 67.65182240062600272, 70.02611709272399310, 0.000000000000000000 ) ) ;
#240 = FACE_OUTER_BOUND ( 'NONE', #296, .T. ) ;
#241 = EDGE_CURVE ( 'NONE', #137, #137, #251, .T. ) ;
#242 = CARTESIAN_POINT ( 'NONE',  ( 0.000000000000000000, 0.000000000000000000, 0.000000000000000000 ) ) ;
#243 = EDGE_LOOP ( 'NONE', ( #34 ) ) ;
#244 = AXIS2_PLACEMENT_3D ( 'NONE', #89, #81, #121 ) ;
#245 = DIRECTION ( 'NONE',  ( -1.000000000000000000, 0.000000000000000000, 0.000000000000000000 ) ) ;
#246 = ORIENTED_EDGE ( 'NONE', *, *, #430, .F. ) ;
#247 = CARTESIAN_POINT ( 'NONE',  ( 0.000000000000000000, 0.000000000000000000, 10.05506319539599858 ) ) ;
#248 = ADVANCED_FACE ( 'NONE', ( #240, #135 ), #215, .T. ) ;
#249 = CARTESIAN_POINT ( 'NONE',  ( 0.000000000000000000, 0.000000000000000000, 10.05506319539599858 ) ) ;
#250 = ORIENTED_EDGE ( 'NONE', *, *, #326, .T. ) ;
#251 = CIRCLE ( 'NONE', #23, 7.313727789907000343 ) ;
#252 =( LENGTH_UNIT ( ) NAMED_UNIT ( * ) SI_UNIT ( .MILLI., .METRE. ) );
#253 = ORIENTED_EDGE ( 'NONE', *, *, #86, .T. ) ;
#254 = EDGE_CURVE ( 'NONE', #351, #30, #422, .T. ) ;
#255 = CARTESIAN_POINT ( 'NONE',  ( 87.79488659866500200, 36.26469343078100138, 3.276897711143000436 ) ) ;
#256 = VERTEX_POINT ( 'NONE', #61 ) ;
#257 = EDGE_CURVE ( 'NONE', #256, #325, #318, .T. ) ;
#258 = PLANE ( 'NONE',  #273 ) ;
#259 = ORIENTED_EDGE ( 'NONE', *, *, #264, .T. ) ;
#260 = DIRECTION ( 'NONE',  ( -1.000000000000000000, 0.000000000000000000, 0.000000000000000000 ) ) ;
#261 = ORIENTED_EDGE ( 'NONE', *, *, #32, .T. ) ;
#262 = DIRECTION ( 'NONE',  ( -0.000000000000000000, 1.000000000000000000, 0.000000000000000000 ) ) ;
#263 = ORIENTED_EDGE ( 'NONE', *, *, #356, .T. ) ;
#264 = EDGE_CURVE ( 'NONE', #325, #462, #427, .T. ) ;
#265 = CARTESIAN_POINT ( 'NONE',  ( 0.000000000000000000, 72.52938686156299752, 10.05506319539599858 ) ) ;
#266 = ORIENTED_EDGE ( 'NONE', *, *, #437, .F. ) ;
#267 = CARTESIAN_POINT ( 'NONE',  ( 86.49222355875400581, 70.69325316751199750, 8.218929501345000332 ) ) ;
#268 = FACE_BOUND ( 'NONE', #144, .T. ) ;
#269 = AXIS2_PLACEMENT_3D ( 'NONE', #55, #308, #375 ) ;
#270 = VERTEX_POINT ( 'NONE', #460 ) ;
#271 = EDGE_CURVE ( 'NONE', #14, #335, #221, .T. ) ;
#272 = DIRECTION ( 'NONE',  ( 1.000000000000000000, 0.000000000000000000, 0.000000000000000000 ) ) ;
#273 = AXIS2_PLACEMENT_3D ( 'NONE', #184, #405, #11 ) ;
#274 = CARTESIAN_POINT ( 'NONE',  ( 86.49222355875400581, 72.52938686156299752, 10.05506319539599858 ) ) ;
#275 = CARTESIAN_POINT ( 'NONE',  ( 67.78079747736799732, 69.89714201598198429, 0.000000000000000000 ) ) ;
#276 = DIRECTION ( 'NONE',  ( 0.7071067811865474617, -0.7071067811865474617, 0.000000000000000000 ) ) ;
#277 =( LENGTH_UNIT ( ) NAMED_UNIT ( * ) SI_UNIT ( .MILLI., .METRE. ) );
#278 = CARTESIAN_POINT ( 'NONE',  ( 33.13872510641800062, 29.30123781805900052, 2.461709024635000187 ) ) ;
#279 = CARTESIAN_POINT ( 'NONE',  ( 33.13872510641800062, 29.30123781805900052, 0.000000000000000000 ) ) ;
#280 = UNCERTAINTY_MEASURE_WITH_UNIT (LENGTH_MEASURE( 1.000000000000000082E-05 ), #252, 'distance_accuracy_value', 'NONE');
#281 = ORIENTED_EDGE ( 'NONE', *, *, #352, .F. ) ;
#282 =( NAMED_UNIT ( * ) PLANE_ANGLE_UNIT ( ) SI_UNIT ( $, .RADIAN. ) );
#283 = FACE_OUTER_BOUND ( 'NONE', #153, .T. ) ;
#284 = EDGE_CURVE ( 'NONE', #136, #44, #361, .T. ) ;
#285 = DIRECTION ( 'NONE',  ( 0.000000000000000000, 0.000000000000000000, -1.000000000000000000 ) ) ;
#286 = PRODUCT_CONTEXT ( 'NONE', #141, 'mechanical' ) ;
#287 = CYLINDRICAL_SURFACE ( 'NONE', #47, 7.313727789907000343 ) ;
#288 = ORIENTED_EDGE ( 'NONE', *, *, #32, .F. ) ;
#289 = SURFACE_SIDE_STYLE ('',( #434 ) ) ;
#290 = AXIS2_PLACEMENT_3D ( 'NONE', #231, #234, #272 ) ;
#291 = ORIENTED_EDGE ( 'NONE', *, *, #356, .F. ) ;
#292 = VECTOR ( 'NONE', #169, 1000.000000000000000 ) ;
#293 = EDGE_LOOP ( 'NONE', ( #70 ) ) ;
#294 = EDGE_CURVE ( 'NONE', #12, #2, #69, .T. ) ;
#295 = PLANE ( 'NONE',  #134 ) ;
#296 = EDGE_LOOP ( 'NONE', ( #149 ) ) ;
#297 = ORIENTED_EDGE ( 'NONE', *, *, #177, .F. ) ;
#298 = DIRECTION ( 'NONE',  ( -1.000000000000000000, 0.000000000000000000, 0.000000000000000000 ) ) ;
#299 = ADVANCED_FACE ( 'NONE', ( #401 ), #258, .F. ) ;
#300 = PRODUCT_DEFINITION_FORMATION_WITH_SPECIFIED_SOURCE ( 'ไป', '', #105, .NOT_KNOWN. ) ;
#301 = EDGE_LOOP ( 'NONE', ( #458 ) ) ;
#302 = CARTESIAN_POINT ( 'NONE',  ( 0.000000000000000000, 68.07921244798801297, 10.05506319539599858 ) ) ;
#303 = FACE_OUTER_BOUND ( 'NONE', #357, .T. ) ;
#304 = VERTEX_POINT ( 'NONE', #255 ) ;
#305 = EDGE_CURVE ( 'NONE', #44, #439, #36, .T. ) ;
#306 = CARTESIAN_POINT ( 'NONE',  ( 67.78079747736799732, 69.89714201598198429, 0.000000000000000000 ) ) ;
#307 = CARTESIAN_POINT ( 'NONE',  ( 67.78079747736799732, 36.26469343078100138, 1.369608524086000090 ) ) ;
#308 = DIRECTION ( 'NONE',  ( 0.000000000000000000, 0.000000000000000000, -1.000000000000000000 ) ) ;
#309 = UNCERTAINTY_MEASURE_WITH_UNIT (LENGTH_MEASURE( 1.000000000000000082E-05 ), #277, 'distance_accuracy_value', 'NONE');
#310 = LINE ( 'NONE', #379, #292 ) ;
#311 = VECTOR ( 'NONE', #285, 1000.000000000000000 ) ;
#312 = DIRECTION ( 'NONE',  ( 1.000000000000000000, 0.000000000000000000, 0.000000000000000000 ) ) ;
#313 = DIRECTION ( 'NONE',  ( -0.000000000000000000, 1.000000000000000000, 0.000000000000000000 ) ) ;
#314 = ORIENTED_EDGE ( 'NONE', *, *, #294, .F. ) ;
#315 = VECTOR ( 'NONE', #330, 1000.000000000000000 ) ;
#316 = FACE_OUTER_BOUND ( 'NONE', #217, .T. ) ;
#317 = ORIENTED_EDGE ( 'NONE', *, *, #102, .T. ) ;
#318 = LINE ( 'NONE', #463, #311 ) ;
#319 = ORIENTED_EDGE ( 'NONE', *, *, #4, .F. ) ;
#320 = AXIS2_PLACEMENT_3D ( 'NONE', #120, #411, #236 ) ;
#321 = DIRECTION ( 'NONE',  ( 0.000000000000000000, 0.000000000000000000, 1.000000000000000000 ) ) ;
#322 = DIRECTION ( 'NONE',  ( 0.000000000000000000, 0.000000000000000000, -1.000000000000000000 ) ) ;
#323 = DIRECTION ( 'NONE',  ( 1.000000000000000000, 0.000000000000000000, 0.000000000000000000 ) ) ;
#324 = CARTESIAN_POINT ( 'NONE',  ( 0.000000000000000000, 0.000000000000000000, 0.000000000000000000 ) ) ;
#325 = VERTEX_POINT ( 'NONE', #442 ) ;
#326 = EDGE_CURVE ( 'NONE', #27, #27, #8, .T. ) ;
#327 = VECTOR ( 'NONE', #66, 1000.000000000000000 ) ;
#328 = CARTESIAN_POINT ( 'NONE',  ( 33.13872510641800062, 29.30123781805900052, 2.461709024635000187 ) ) ;
#329 = ORIENTED_EDGE ( 'NONE', *, *, #450, .F. ) ;
#330 = DIRECTION ( 'NONE',  ( 0.000000000000000000, 0.000000000000000000, 1.000000000000000000 ) ) ;
#331 = VECTOR ( 'NONE', #152, 1000.000000000000000 ) ;
#332 = ORIENTED_EDGE ( 'NONE', *, *, #406, .T. ) ;
#333 = EDGE_CURVE ( 'NONE', #40, #2, #128, .T. ) ;
#334 = DIRECTION ( 'NONE',  ( 0.000000000000000000, 1.000000000000000000, 0.000000000000000000 ) ) ;
#335 = VERTEX_POINT ( 'NONE', #118 ) ;
#336 = CARTESIAN_POINT ( 'NONE',  ( 65.14855263178701250, 72.52938686156299752, 0.000000000000000000 ) ) ;
#337 = AXIS2_PLACEMENT_3D ( 'NONE', #408, #49, #165 ) ;
#338 = ORIENTED_EDGE ( 'NONE', *, *, #164, .F. ) ;
#339 = DIRECTION ( 'NONE',  ( 0.000000000000000000, 1.000000000000000000, 0.000000000000000000 ) ) ;
#340 = LINE ( 'NONE', #378, #174 ) ;
#341 = DIRECTION ( 'NONE',  ( -1.000000000000000000, 0.000000000000000000, 0.000000000000000000 ) ) ;
#342 = EDGE_CURVE ( 'NONE', #2, #6, #107, .T. ) ;
#343 = LINE ( 'NONE', #235, #425 ) ;
#344 = PLANE ( 'NONE',  #97 ) ;
#345 = ADVANCED_FACE ( 'NONE', ( #219 ), #295, .F. ) ;
#346 = LINE ( 'NONE', #203, #3 ) ;
#347 = DIRECTION ( 'NONE',  ( 0.000000000000000000, -0.9995848614453783920, -0.02881153882082091583 ) ) ;
#348 = ORIENTED_EDGE ( 'NONE', *, *, #352, .T. ) ;
#349 = AXIS2_PLACEMENT_3D ( 'NONE', #199, #205, #339 ) ;
#350 = FACE_OUTER_BOUND ( 'NONE', #59, .T. ) ;
#351 = VERTEX_POINT ( 'NONE', #358 ) ;
#352 = EDGE_CURVE ( 'NONE', #14, #256, #9, .T. ) ;
#353 = AXIS2_PLACEMENT_3D ( 'NONE', #328, #115, #359 ) ;
#354 = PLANE ( 'NONE',  #167 ) ;
#355 = CARTESIAN_POINT ( 'NONE',  ( 0.000000000000000000, 0.000000000000000000, 0.000000000000000000 ) ) ;
#356 = EDGE_CURVE ( 'NONE', #147, #351, #182, .T. ) ;
#357 = EDGE_LOOP ( 'NONE', ( #332, #100, #421 ) ) ;
#358 = CARTESIAN_POINT ( 'NONE',  ( 0.000000000000000000, 72.52938686156299752, 0.000000000000000000 ) ) ;
#359 = DIRECTION ( 'NONE',  ( 1.000000000000000000, 0.000000000000000000, 0.000000000000000000 ) ) ;
#360 = ORIENTED_EDGE ( 'NONE', *, *, #177, .T. ) ;
#361 = LINE ( 'NONE', #41, #436 ) ;
#362 = ORIENTED_EDGE ( 'NONE', *, *, #284, .F. ) ;
#363 = SURFACE_STYLE_USAGE ( .BOTH. , #289 ) ;
#364 = EDGE_LOOP ( 'NONE', ( #362, #119, #429, #317, #443 ) ) ;
#365 = EDGE_CURVE ( 'NONE', #147, #325, #75, .T. ) ;
#366 = CARTESIAN_POINT ( 'NONE',  ( 87.79488659866500200, 0.000000000000000000, 0.000000000000000000 ) ) ;
#367 = ORIENTED_EDGE ( 'NONE', *, *, #342, .T. ) ;
#368 = LINE ( 'NONE', #336, #180 ) ;
#369 = ORIENTED_EDGE ( 'NONE', *, *, #241, .T. ) ;
#370 = CLOSED_SHELL ( 'NONE', ( #138, #248, #109, #299, #209, #345, #122, #212, #116, #464, #410, #459, #132, #155, #194, #225 ) ) ;
#371 = AXIS2_PLACEMENT_3D ( 'NONE', #279, #31, #178 ) ;
#372 = DIRECTION ( 'NONE',  ( -1.000000000000000000, 0.000000000000000000, 0.000000000000000000 ) ) ;
#373 = FACE_OUTER_BOUND ( 'NONE', #37, .T. ) ;
#374 = EDGE_CURVE ( 'NONE', #335, #79, #466, .T. ) ;
#375 = DIRECTION ( 'NONE',  ( 0.000000000000000000, -1.000000000000000000, 0.000000000000000000 ) ) ;
#376 = MANIFOLD_SOLID_BREP ( 'Open CASCADE STEP translator 7.5 13[1]', #370 ) ;
#377 = VECTOR ( 'NONE', #372, 1000.000000000000000 ) ;
#378 = CARTESIAN_POINT ( 'NONE',  ( 86.49222355875400581, 68.07921244798801297, 10.05506319539599858 ) ) ;
#379 = CARTESIAN_POINT ( 'NONE',  ( 67.78079747736799732, 36.26469343078100138, 3.276897711143000436 ) ) ;
#380 = LINE ( 'NONE', #129, #377 ) ;
#381 = PLANE ( 'NONE',  #349 ) ;
#382 = VECTOR ( 'NONE', #417, 1000.000000000000000 ) ;
#383 = EDGE_CURVE ( 'NONE', #395, #136, #380, .T. ) ;
#384 = LINE ( 'NONE', #57, #388 ) ;
#385 = CARTESIAN_POINT ( 'NONE',  ( 0.000000000000000000, 72.52938686156299752, 0.000000000000000000 ) ) ;
#386 = DIRECTION ( 'NONE',  ( 1.000000000000000000, 0.000000000000000000, 0.000000000000000000 ) ) ;
#387 = ORIENTED_EDGE ( 'NONE', *, *, #254, .F. ) ;
#388 = VECTOR ( 'NONE', #206, 1000.000000000000000 ) ;
#389 = CARTESIAN_POINT ( 'NONE',  ( 86.49222355875400581, 72.52938686156299752, 5.604888781820999810 ) ) ;
#390 = ORIENTED_EDGE ( 'NONE', *, *, #7, .T. ) ;
#391 = AXIS2_PLACEMENT_3D ( 'NONE', #158, #298, #73 ) ;
#392 = DIRECTION ( 'NONE',  ( 0.000000000000000000, 4.188378453226534276E-17, -1.000000000000000000 ) ) ;
#393 = VECTOR ( 'NONE', #91, 1000.000000000000000 ) ;
#394 = CARTESIAN_POINT ( 'NONE',  ( 87.79488659866500200, 36.26469343078100138, 3.276897711143000436 ) ) ;
#395 = VERTEX_POINT ( 'NONE', #190 ) ;
#396 = CARTESIAN_POINT ( 'NONE',  ( 0.000000000000000000, 0.000000000000000000, 0.000000000000000000 ) ) ;
#397 = ORIENTED_EDGE ( 'NONE', *, *, #333, .F. ) ;
#398 = VECTOR ( 'NONE', #156, 1000.000000000000000 ) ;
#399 = PRESENTATION_STYLE_ASSIGNMENT (( #363 ) ) ;
#400 = EDGE_LOOP ( 'NONE', ( #224, #281, #159, #338, #297, #435 ) ) ;
#401 = FACE_OUTER_BOUND ( 'NONE', #39, .T. ) ;
#402 = EDGE_LOOP ( 'NONE', ( #404, #26, #151, #253, #222 ) ) ;
#403 = DIRECTION ( 'NONE',  ( 0.000000000000000000, 1.000000000000000000, 0.000000000000000000 ) ) ;
#404 = ORIENTED_EDGE ( 'NONE', *, *, #271, .F. ) ;
#405 = DIRECTION ( 'NONE',  ( 0.000000000000000000, -0.02881153882082091583, 0.9995848614453783920 ) ) ;
#406 = EDGE_CURVE ( 'NONE', #6, #185, #340, .T. ) ;
#407 = ORIENTED_EDGE ( 'NONE', *, *, #125, .T. ) ;
#408 = CARTESIAN_POINT ( 'NONE',  ( 87.79488659866500200, 72.52938686156299752, 2.231622154353000376 ) ) ;
#409 = CARTESIAN_POINT ( 'NONE',  ( 0.000000000000000000, 72.52938686156299752, 5.604888781820999810 ) ) ;
#410 = ADVANCED_FACE ( 'NONE', ( #16 ), #415, .F. ) ;
#411 = DIRECTION ( 'NONE',  ( -1.000000000000000000, 0.000000000000000000, 0.000000000000000000 ) ) ;
#412 = CARTESIAN_POINT ( 'NONE',  ( 65.14855263178701250, 72.52938686156299752, 0.000000000000000000 ) ) ;
#413 = CARTESIAN_POINT ( 'NONE',  ( 0.000000000000000000, 72.52938686156299752, 0.000000000000000000 ) ) ;
#414 = PRESENTATION_LAYER_ASSIGNMENT (  '', '', ( #85 ) ) ;
#415 = CYLINDRICAL_SURFACE ( 'NONE', #320, 4.450174413574999654 ) ;
#416 = PLANE ( 'NONE',  #269 ) ;
#417 = DIRECTION ( 'NONE',  ( 0.000000000000000000, 0.000000000000000000, 1.000000000000000000 ) ) ;
#418 = CARTESIAN_POINT ( 'NONE',  ( 0.000000000000000000, 0.000000000000000000, 10.05506319539599858 ) ) ;
#419 = AXIS2_PLACEMENT_3D ( 'NONE', #179, #321, #92 ) ;
#420 = DIRECTION ( 'NONE',  ( 0.000000000000000000, 0.000000000000000000, -1.000000000000000000 ) ) ;
#421 = ORIENTED_EDGE ( 'NONE', *, *, #64, .T. ) ;
#422 = LINE ( 'NONE', #95, #454 ) ;
#423 = VECTOR ( 'NONE', #334, 1000.000000000000000 ) ;
#424 = FACE_OUTER_BOUND ( 'NONE', #173, .T. ) ;
#425 = VECTOR ( 'NONE', #168, 1000.000000000000000 ) ;
#426 = CARTESIAN_POINT ( 'NONE',  ( 25.82499731651100205, 29.30123781805900052, 2.461709024635000187 ) ) ;
#427 = LINE ( 'NONE', #186, #423 ) ;
#428 = DIRECTION ( 'NONE',  ( 0.7071067811865475727, 0.7071067811865475727, 2.961630806452105443E-17 ) ) ;
#429 = ORIENTED_EDGE ( 'NONE', *, *, #204, .T. ) ;
#430 = EDGE_CURVE ( 'NONE', #185, #79, #162, .T. ) ;
#431 = VECTOR ( 'NONE', #276, 1000.000000000000114 ) ;
#432 = AXIS2_PLACEMENT_3D ( 'NONE', #385, #313, #461 ) ;
#433 = ORIENTED_EDGE ( 'NONE', *, *, #7, .F. ) ;
#434 = SURFACE_STYLE_FILL_AREA ( #1 ) ;
#435 = ORIENTED_EDGE ( 'NONE', *, *, #365, .T. ) ;
#436 = VECTOR ( 'NONE', #43, 1000.000000000000114 ) ;
#437 = EDGE_CURVE ( 'NONE', #462, #44, #452, .T. ) ;
#438 = FILL_AREA_STYLE_COLOUR ( '', #29 ) ;
#439 = VERTEX_POINT ( 'NONE', #228 ) ;
#440 = DIRECTION ( 'NONE',  ( 1.000000000000000000, 0.000000000000000000, 0.000000000000000000 ) ) ;
#441 = ORIENTED_EDGE ( 'NONE', *, *, #342, .F. ) ;
#442 = CARTESIAN_POINT ( 'NONE',  ( 67.78079747736799732, 0.000000000000000000, 0.000000000000000000 ) ) ;
#443 = ORIENTED_EDGE ( 'NONE', *, *, #305, .F. ) ;
#444 = PLANE ( 'NONE',  #337 ) ;
#445 = PLANE ( 'NONE',  #244 ) ;
#446 = DIRECTION ( 'NONE',  ( 0.000000000000000000, 0.000000000000000000, -1.000000000000000000 ) ) ;
#447 = AXIS2_PLACEMENT_3D ( 'NONE', #355, #465, #172 ) ;
#448 = VERTEX_POINT ( 'NONE', #126 ) ;
#449 = DIRECTION ( 'NONE',  ( 0.000000000000000000, 0.000000000000000000, -1.000000000000000000 ) ) ;
#450 = EDGE_CURVE ( 'NONE', #30, #136, #368, .T. ) ;
#451 = CARTESIAN_POINT ( 'NONE',  ( 86.49222355875400581, 68.07921244798801297, 10.05506319539599858 ) ) ;
#452 = LINE ( 'NONE', #275, #382 ) ;
#453 = ORIENTED_EDGE ( 'NONE', *, *, #365, .F. ) ;
#454 = VECTOR ( 'NONE', #386, 1000.000000000000000 ) ;
#455 = LINE ( 'NONE', #247, #60 ) ;
#456 = DIRECTION ( 'NONE',  ( 0.000000000000000000, -0.9995848614453783920, 0.02881153882082091583 ) ) ;
#457 = MECHANICAL_DESIGN_GEOMETRIC_PRESENTATION_REPRESENTATION (  '', ( #85 ), #214 ) ;
#458 = ORIENTED_EDGE ( 'NONE', *, *, #241, .F. ) ;
#459 = ADVANCED_FACE ( 'NONE', ( #160 ), #444, .F. ) ;
#460 = CARTESIAN_POINT ( 'NONE',  ( 25.82499731651100205, 29.30123781805900052, 0.000000000000000000 ) ) ;
#461 = DIRECTION ( 'NONE',  ( 1.000000000000000000, 0.000000000000000000, 0.000000000000000000 ) ) ;
#462 = VERTEX_POINT ( 'NONE', #306 ) ;
#463 = CARTESIAN_POINT ( 'NONE',  ( 67.78079747736799732, 0.000000000000000000, 2.231622154353000376 ) ) ;
#464 = ADVANCED_FACE ( 'NONE', ( #303 ), #123, .T. ) ;
#465 = DIRECTION ( 'NONE',  ( 0.000000000000000000, 0.000000000000000000, 1.000000000000000000 ) ) ;
#466 = LINE ( 'NONE', #148, #398 ) ;
#467 = ORIENTED_EDGE ( 'NONE', *, *, #406, .F. ) ;
ENDSEC;
END-ISO-10303-21;
