ISO-10303-21;
HEADER;
FILE_DESCRIPTION (( 'STEP AP214' ),
    '1' );
FILE_NAME ('20260414_160844_142.STEP',
    '2026-04-16T15:14:36',
    ( '' ),
    ( '' ),
    'SwSTEP 2.0',
    'SolidWorks 2025',
    '' );
FILE_SCHEMA (( 'AUTOMOTIVE_DESIGN' ));
ENDSEC;

DATA;
#1 = ADVANCED_FACE ( 'NONE', ( #696, #48 ), #219, .F. ) ;
#2 = EDGE_LOOP ( 'NONE', ( #463, #118, #383, #60 ) ) ;
#3 = EDGE_LOOP ( 'NONE', ( #255, #394, #78, #652 ) ) ;
#4 = CARTESIAN_POINT ( 'NONE',  ( 70.28330518609899968, 16.78368096483099947, 7.325160433066999488 ) ) ;
#5 = ORIENTED_EDGE ( 'NONE', *, *, #685, .T. ) ;
#6 = AXIS2_PLACEMENT_3D ( 'NONE', #559, #677, #360 ) ;
#7 = LINE ( 'NONE', #71, #166 ) ;
#8 = CARTESIAN_POINT ( 'NONE',  ( 0.000000000000000000, 10.76357780680699960, 11.25588486222999940 ) ) ;
#9 = VERTEX_POINT ( 'NONE', #700 ) ;
#10 = EDGE_CURVE ( 'NONE', #160, #447, #164, .T. ) ;
#11 = LINE ( 'NONE', #462, #135 ) ;
#12 = VERTEX_POINT ( 'NONE', #640 ) ;
#13 = EDGE_CURVE ( 'NONE', #536, #562, #493, .T. ) ;
#14 = DIRECTION ( 'NONE',  ( 1.000000000000000000, 0.000000000000000000, 0.000000000000000000 ) ) ;
#15 = ADVANCED_FACE ( 'NONE', ( #430 ), #645, .F. ) ;
#16 = PLANE ( 'NONE',  #686 ) ;
#17 = ORIENTED_EDGE ( 'NONE', *, *, #257, .T. ) ;
#18 = LINE ( 'NONE', #534, #386 ) ;
#19 = VECTOR ( 'NONE', #486, 1000.000000000000227 ) ;
#20 = CARTESIAN_POINT ( 'NONE',  ( 87.00188151802200309, 21.21490699316700201, 6.513965035205999676 ) ) ;
#21 = VECTOR ( 'NONE', #605, 999.9999999999998863 ) ;
#22 = CARTESIAN_POINT ( 'NONE',  ( 0.000000000000000000, 0.000000000000000000, 0.000000000000000000 ) ) ;
#23 = ORIENTED_EDGE ( 'NONE', *, *, #108, .F. ) ;
#24 = LINE ( 'NONE', #183, #576 ) ;
#25 = CARTESIAN_POINT ( 'NONE',  ( 89.06678727429000730, 21.21490699316700201, 22.75408736909800211 ) ) ;
#26 = ORIENTED_EDGE ( 'NONE', *, *, #126, .F. ) ;
#27 = DIRECTION ( 'NONE',  ( 0.000000000000000000, 0.000000000000000000, 1.000000000000000000 ) ) ;
#28 = ORIENTED_EDGE ( 'NONE', *, *, #656, .T. ) ;
#29 = DIRECTION ( 'NONE',  ( 1.000000000000000000, 0.000000000000000000, 0.000000000000000000 ) ) ;
#30 = CARTESIAN_POINT ( 'NONE',  ( 0.000000000000000000, 21.21490699316700201, 0.000000000000000000 ) ) ;
#31 = VECTOR ( 'NONE', #553, 1000.000000000000000 ) ;
#32 = VECTOR ( 'NONE', #468, 1000.000000000000000 ) ;
#33 = ORIENTED_EDGE ( 'NONE', *, *, #663, .F. ) ;
#34 = VECTOR ( 'NONE', #49, 1000.000000000000000 ) ;
#35 =( LENGTH_UNIT ( ) NAMED_UNIT ( * ) SI_UNIT ( .MILLI., .METRE. ) );
#36 = CARTESIAN_POINT ( 'NONE',  ( 0.000000000000000000, 0.000000000000000000, 32.86473614057700132 ) ) ;
#37 = ORIENTED_EDGE ( 'NONE', *, *, #690, .T. ) ;
#38 = DIRECTION ( 'NONE',  ( 0.000000000000000000, 0.000000000000000000, 1.000000000000000000 ) ) ;
#39 = EDGE_CURVE ( 'NONE', #220, #359, #379, .T. ) ;
#40 = VERTEX_POINT ( 'NONE', #651 ) ;
#41 =( NAMED_UNIT ( * ) SI_UNIT ( $, .STERADIAN. ) SOLID_ANGLE_UNIT ( ) );
#42 = FACE_OUTER_BOUND ( 'NONE', #432, .T. ) ;
#43 = VERTEX_POINT ( 'NONE', #4 ) ;
#44 = AXIS2_PLACEMENT_3D ( 'NONE', #354, #410, #622 ) ;
#45 = VECTOR ( 'NONE', #600, 1000.000000000000000 ) ;
#46 = EDGE_CURVE ( 'NONE', #630, #323, #269, .T. ) ;
#47 = CARTESIAN_POINT ( 'NONE',  ( 89.06678727429000730, 16.24302504970400207, 32.86473614057700132 ) ) ;
#48 = FACE_OUTER_BOUND ( 'NONE', #603, .T. ) ;
#49 = DIRECTION ( 'NONE',  ( 0.000000000000000000, 1.000000000000000000, 0.000000000000000000 ) ) ;
#50 = CARTESIAN_POINT ( 'NONE',  ( 0.000000000000000000, 0.000000000000000000, 0.000000000000000000 ) ) ;
#51 = ORIENTED_EDGE ( 'NONE', *, *, #189, .F. ) ;
#52 = LINE ( 'NONE', #236, #662 ) ;
#53 = ADVANCED_FACE ( 'NONE', ( #385 ), #109, .F. ) ;
#54 = ORIENTED_EDGE ( 'NONE', *, *, #327, .F. ) ;
#55 = EDGE_CURVE ( 'NONE', #401, #113, #101, .T. ) ;
#56 = VERTEX_POINT ( 'NONE', #319 ) ;
#57 = VECTOR ( 'NONE', #125, 1000.000000000000000 ) ;
#58 = CARTESIAN_POINT ( 'NONE',  ( 0.000000000000000000, 8.766073603299998851, 16.99276954782800075 ) ) ;
#59 = PRODUCT ( '20260414_160844_142', '20260414_160844_142', '', ( #215 ) ) ;
#60 = ORIENTED_EDGE ( 'NONE', *, *, #291, .F. ) ;
#61 = DIRECTION ( 'NONE',  ( 0.000000000000000000, -0.1874256626820599847, -0.9822787898393158246 ) ) ;
#62 = VERTEX_POINT ( 'NONE', #104 ) ;
#63 = DIRECTION ( 'NONE',  ( 1.000000000000000000, 0.000000000000000000, 0.000000000000000000 ) ) ;
#64 = FACE_OUTER_BOUND ( 'NONE', #3, .T. ) ;
#65 = EDGE_CURVE ( 'NONE', #12, #323, #539, .T. ) ;
#66 = VECTOR ( 'NONE', #625, 1000.000000000000000 ) ;
#67 = CARTESIAN_POINT ( 'NONE',  ( 69.19426654760201245, 21.21490699316700201, 7.325160433066999488 ) ) ;
#68 = CARTESIAN_POINT ( 'NONE',  ( 87.00188151802200309, 19.23146570507999797, 22.61962961551999740 ) ) ;
#69 = ORIENTED_EDGE ( 'NONE', *, *, #146, .F. ) ;
#70 = CARTESIAN_POINT ( 'NONE',  ( 0.000000000000000000, 5.453881685759999876, 15.83950995822599950 ) ) ;
#71 = CARTESIAN_POINT ( 'NONE',  ( 0.000000000000000000, 4.796537828744000365, 12.39443782062599908 ) ) ;
#72 = DIRECTION ( 'NONE',  ( 0.000000000000000000, 0.000000000000000000, 1.000000000000000000 ) ) ;
#73 = ORIENTED_EDGE ( 'NONE', *, *, #241, .T. ) ;
#74 = CARTESIAN_POINT ( 'NONE',  ( 0.000000000000000000, 0.000000000000000000, 0.000000000000000000 ) ) ;
#75 = CARTESIAN_POINT ( 'NONE',  ( 70.28330518609899968, 16.78368096483099947, 7.325160433066999488 ) ) ;
#76 = CARTESIAN_POINT ( 'NONE',  ( 89.06678727429000730, 10.76357780680699960, 11.25588486222999940 ) ) ;
#77 = LINE ( 'NONE', #332, #650 ) ;
#78 = ORIENTED_EDGE ( 'NONE', *, *, #129, .F. ) ;
#79 = VECTOR ( 'NONE', #305, 1000.000000000000227 ) ;
#80 = LINE ( 'NONE', #510, #148 ) ;
#81 = DIRECTION ( 'NONE',  ( 0.000000000000000000, -1.000000000000000000, 0.000000000000000000 ) ) ;
#82 = ORIENTED_EDGE ( 'NONE', *, *, #200, .F. ) ;
#83 = LINE ( 'NONE', #466, #595 ) ;
#84 = ORIENTED_EDGE ( 'NONE', *, *, #327, .T. ) ;
#85 = CARTESIAN_POINT ( 'NONE',  ( 44.53339363714500365, 21.21490699316700201, 19.85426491981300146 ) ) ;
#86 = DIRECTION ( 'NONE',  ( 0.000000000000000000, -1.000000000000000000, 0.000000000000000000 ) ) ;
#87 = ORIENTED_EDGE ( 'NONE', *, *, #648, .F. ) ;
#88 = CARTESIAN_POINT ( 'NONE',  ( 0.000000000000000000, 7.451385889267000628, 10.10262527262799992 ) ) ;
#89 = CARTESIAN_POINT ( 'NONE',  ( 68.10522790910499680, 16.78368096483099947, 2.698666328104000200 ) ) ;
#90 = VECTOR ( 'NONE', #256, 999.9999999999998863 ) ;
#91 = VERTEX_POINT ( 'NONE', #590 ) ;
#92 = PRESENTATION_STYLE_ASSIGNMENT (( #473 ) ) ;
#93 = EDGE_CURVE ( 'NONE', #301, #220, #221, .T. ) ;
#94 = EDGE_CURVE ( 'NONE', #113, #169, #535, .T. ) ;
#95 = PLANE ( 'NONE',  #306 ) ;
#96 = EDGE_LOOP ( 'NONE', ( #484, #414, #694, #615 ) ) ;
#97 = CARTESIAN_POINT ( 'NONE',  ( 0.000000000000000000, 8.766073603299998851, 16.99276954782800075 ) ) ;
#98 = DIRECTION ( 'NONE',  ( 0.000000000000000000, 1.000000000000000000, 0.000000000000000000 ) ) ;
#99 = EDGE_LOOP ( 'NONE', ( #144, #467, #330, #404 ) ) ;
#100 = DIRECTION ( 'NONE',  ( 0.000000000000000000, 0.000000000000000000, 1.000000000000000000 ) ) ;
#101 = LINE ( 'NONE', #328, #191 ) ;
#102 = VECTOR ( 'NONE', #481, 1000.000000000000000 ) ;
#103 = LINE ( 'NONE', #154, #367 ) ;
#104 = CARTESIAN_POINT ( 'NONE',  ( 0.000000000000000000, 4.796537828744000365, 12.39443782062599908 ) ) ;
#105 = ORIENTED_EDGE ( 'NONE', *, *, #417, .F. ) ;
#106 = ORIENTED_EDGE ( 'NONE', *, *, #210, .F. ) ;
#107 = ORIENTED_EDGE ( 'NONE', *, *, #538, .F. ) ;
#108 = EDGE_CURVE ( 'NONE', #91, #43, #495, .T. ) ;
#109 = CYLINDRICAL_SURFACE ( 'NONE', #631, 1.089038638496999667 ) ;
#110 = ORIENTED_EDGE ( 'NONE', *, *, #152, .F. ) ;
#111 = AXIS2_PLACEMENT_3D ( 'NONE', #8, #446, #228 ) ;
#112 = ADVANCED_FACE ( 'NONE', ( #671 ), #348, .T. ) ;
#113 = VERTEX_POINT ( 'NONE', #133 ) ;
#114 = LINE ( 'NONE', #601, #31 ) ;
#115 = ORIENTED_EDGE ( 'NONE', *, *, #475, .T. ) ;
#116 = DIRECTION ( 'NONE',  ( 0.000000000000000000, 0.000000000000000000, 1.000000000000000000 ) ) ;
#117 = DIRECTION ( 'NONE',  ( 0.000000000000000000, -0.9443912169405226376, -0.3288240097158333652 ) ) ;
#118 = ORIENTED_EDGE ( 'NONE', *, *, #145, .T. ) ;
#119 = SHAPE_DEFINITION_REPRESENTATION ( #325, #532 ) ;
#120 = VECTOR ( 'NONE', #381, 1000.000000000000000 ) ;
#121 = AXIS2_PLACEMENT_3D ( 'NONE', #425, #375, #98 ) ;
#122 = VECTOR ( 'NONE', #331, 1000.000000000000000 ) ;
#123 = FACE_BOUND ( 'NONE', #672, .T. ) ;
#124 = VERTEX_POINT ( 'NONE', #233 ) ;
#125 = DIRECTION ( 'NONE',  ( 0.000000000000000000, -1.000000000000000000, 0.000000000000000000 ) ) ;
#126 = EDGE_CURVE ( 'NONE', #447, #556, #114, .T. ) ;
#127 = FACE_OUTER_BOUND ( 'NONE', #618, .T. ) ;
#128 = CARTESIAN_POINT ( 'NONE',  ( 87.00188151802200309, 21.21490699316700201, 6.513965035205999676 ) ) ;
#129 = EDGE_CURVE ( 'NONE', #169, #9, #352, .T. ) ;
#130 = EDGE_LOOP ( 'NONE', ( #107, #155, #521, #697, #349, #682, #204 ) ) ;
#131 = DIRECTION ( 'NONE',  ( 0.000000000000000000, 0.1222283896610361908, -0.9925020003812938807 ) ) ;
#132 = CARTESIAN_POINT ( 'NONE',  ( 44.53339363714500365, 21.21490699316700201, 19.85426491981300146 ) ) ;
#133 = CARTESIAN_POINT ( 'NONE',  ( 89.06678727429000730, 11.42092166382299823, 14.70095699982999982 ) ) ;
#134 = EDGE_LOOP ( 'NONE', ( #84, #689, #502, #578, #182 ) ) ;
#135 = VECTOR ( 'NONE', #81, 1000.000000000000000 ) ;
#136 = LINE ( 'NONE', #621, #469 ) ;
#137 = EDGE_LOOP ( 'NONE', ( #575, #73, #380, #270, #531, #343 ) ) ;
#138 = CARTESIAN_POINT ( 'NONE',  ( 0.000000000000000000, 0.000000000000000000, 0.000000000000000000 ) ) ;
#139 = DIRECTION ( 'NONE',  ( 0.000000000000000000, 1.000000000000000000, 0.000000000000000000 ) ) ;
#140 = EDGE_LOOP ( 'NONE', ( #497, #523, #480, #208 ) ) ;
#141 = ADVANCED_FACE ( 'NONE', ( #545 ), #334, .F. ) ;
#142 = DIRECTION ( 'NONE',  ( -0.000000000000000000, 0.6534547801239912745, 0.7569655542579901697 ) ) ;
#143 = DIRECTION ( 'NONE',  ( 0.000000000000000000, 0.000000000000000000, 1.000000000000000000 ) ) ;
#144 = ORIENTED_EDGE ( 'NONE', *, *, #366, .T. ) ;
#145 = EDGE_CURVE ( 'NONE', #62, #324, #7, .T. ) ;
#146 = EDGE_CURVE ( 'NONE', #324, #507, #565, .T. ) ;
#147 = PLANE ( 'NONE',  #549 ) ;
#148 = VECTOR ( 'NONE', #409, 1000.000000000000000 ) ;
#149 = ORIENTED_EDGE ( 'NONE', *, *, #592, .F. ) ;
#150 = DIRECTION ( 'NONE',  ( -0.000000000000000000, 1.000000000000000000, 0.000000000000000000 ) ) ;
#151 = DIRECTION ( 'NONE',  ( 0.000000000000000000, 1.000000000000000000, 0.000000000000000000 ) ) ;
#152 = EDGE_CURVE ( 'NONE', #623, #242, #642, .T. ) ;
#153 = VERTEX_POINT ( 'NONE', #610 ) ;
#154 = CARTESIAN_POINT ( 'NONE',  ( 89.06678727429000730, 0.000000000000000000, 32.86473614057700132 ) ) ;
#155 = ORIENTED_EDGE ( 'NONE', *, *, #475, .F. ) ;
#156 = DIRECTION ( 'NONE',  ( 1.000000000000000000, 2.120776374368000143E-29, 7.653208026624000785E-31 ) ) ;
#157 = DIRECTION ( 'NONE',  ( 0.000000000000000000, 1.000000000000000000, 0.000000000000000000 ) ) ;
#158 = VECTOR ( 'NONE', #527, 1000.000000000000000 ) ;
#159 = CARTESIAN_POINT ( 'NONE',  ( 44.53339363714500365, 21.21490699316700201, 19.85426491981300146 ) ) ;
#160 = VERTEX_POINT ( 'NONE', #22 ) ;
#161 = ADVANCED_FACE ( 'NONE', ( #283 ), #389, .F. ) ;
#162 = ORIENTED_EDGE ( 'NONE', *, *, #503, .T. ) ;
#163 = ADVANCED_FACE ( 'NONE', ( #598 ), #501, .T. ) ;
#164 = LINE ( 'NONE', #50, #120 ) ;
#165 = ORIENTED_EDGE ( 'NONE', *, *, #639, .F. ) ;
#166 = VECTOR ( 'NONE', #399, 1000.000000000000000 ) ;
#167 = CARTESIAN_POINT ( 'NONE',  ( 0.000000000000000000, 7.451385889267000628, 10.10262527262799992 ) ) ;
#168 = DIRECTION ( 'NONE',  ( -7.570222519176000889E-29, 1.000000000000000000, -2.719525441860000144E-31 ) ) ;
#169 = VERTEX_POINT ( 'NONE', #240 ) ;
#170 = UNCERTAINTY_MEASURE_WITH_UNIT (LENGTH_MEASURE( 1.000000000000000082E-05 ), #557, 'distance_accuracy_value', 'NONE');
#171 = CARTESIAN_POINT ( 'NONE',  ( 0.000000000000000000, 0.000000000000000000, 0.000000000000000000 ) ) ;
#172 = EDGE_LOOP ( 'NONE', ( #165, #607, #226, #246 ) ) ;
#173 = AXIS2_PLACEMENT_3D ( 'NONE', #167, #649, #646 ) ;
#174 = AXIS2_PLACEMENT_3D ( 'NONE', #449, #442, #561 ) ;
#176 = EDGE_CURVE ( 'NONE', #313, #124, #11, .T. ) ;
#175 = VECTOR ( 'NONE', #312, 1000.000000000000000 ) ;
#177 = CARTESIAN_POINT ( 'NONE',  ( 89.06678727429000730, 0.000000000000000000, 0.000000000000000000 ) ) ;
#178 = DIRECTION ( 'NONE',  ( 0.000000000000000000, -0.9925020003812938807, -0.1222283896610361908 ) ) ;
#179 = ORIENTED_EDGE ( 'NONE', *, *, #612, .F. ) ;
#180 = DIRECTION ( 'NONE',  ( -0.9978866917920361512, 0.000000000000000000, 0.06497807587445232624 ) ) ;
#181 = CARTESIAN_POINT ( 'NONE',  ( 44.53339363714500365, 21.21490699316700201, 19.85426491981300146 ) ) ;
#182 = ORIENTED_EDGE ( 'NONE', *, *, #494, .T. ) ;
#183 = CARTESIAN_POINT ( 'NONE',  ( 89.06678727429000730, 19.21490699316700201, 22.75408736909800211 ) ) ;
#184 = ORIENTED_EDGE ( 'NONE', *, *, #46, .F. ) ;
#185 = LINE ( 'NONE', #299, #79 ) ;
#186 = AXIS2_PLACEMENT_3D ( 'NONE', #336, #178, #653 ) ;
#187 = VECTOR ( 'NONE', #413, 1000.000000000000000 ) ;
#188 = CARTESIAN_POINT ( 'NONE',  ( 70.28330518609899968, 21.21490699316700201, 2.698666328104000200 ) ) ;
#189 = EDGE_CURVE ( 'NONE', #635, #507, #668, .T. ) ;
#190 = EDGE_CURVE ( 'NONE', #376, #12, #445, .T. ) ;
#191 = VECTOR ( 'NONE', #435, 1000.000000000000227 ) ;
#192 = EDGE_LOOP ( 'NONE', ( #693, #459, #355, #338 ) ) ;
#193 = FILL_AREA_STYLE_COLOUR ( '', #384 ) ;
#194 = LINE ( 'NONE', #613, #187 ) ;
#195 = CARTESIAN_POINT ( 'NONE',  ( 69.19426654760201245, 16.78368096483099947, 2.698666328104000200 ) ) ;
#196 = ORIENTED_EDGE ( 'NONE', *, *, #10, .T. ) ;
#197 = PLANE ( 'NONE',  #317 ) ;
#198 = CARTESIAN_POINT ( 'NONE',  ( 89.06678727429000730, 0.000000000000000000, 32.86473614057700132 ) ) ;
#199 = VERTEX_POINT ( 'NONE', #181 ) ;
#200 = EDGE_CURVE ( 'NONE', #229, #62, #614, .T. ) ;
#201 = LINE ( 'NONE', #636, #158 ) ;
#202 = AXIS2_PLACEMENT_3D ( 'NONE', #560, #168, #297 ) ;
#203 = AXIS2_PLACEMENT_3D ( 'NONE', #505, #288, #279 ) ;
#204 = ORIENTED_EDGE ( 'NONE', *, *, #13, .F. ) ;
#205 = FACE_BOUND ( 'NONE', #137, .T. ) ;
#206 = EDGE_LOOP ( 'NONE', ( #406, #488, #106, #17 ) ) ;
#207 = CARTESIAN_POINT ( 'NONE',  ( 89.06678727429000730, 21.21490699316700201, 22.75408736909800211 ) ) ;
#208 = ORIENTED_EDGE ( 'NONE', *, *, #395, .F. ) ;
#209 = DIRECTION ( 'NONE',  ( 0.000000000000000000, -1.000000000000000000, 0.000000000000000000 ) ) ;
#210 = EDGE_CURVE ( 'NONE', #160, #654, #225, .T. ) ;
#211 = DIRECTION ( 'NONE',  ( 0.000000000000000000, 0.000000000000000000, -1.000000000000000000 ) ) ;
#212 = AXIS2_PLACEMENT_3D ( 'NONE', #407, #250, #260 ) ;
#213 = PRODUCT_DEFINITION_FORMATION_WITH_SPECIFIED_SOURCE ( 'ไป', '', #59, .NOT_KNOWN. ) ;
#214 = ORIENTED_EDGE ( 'NONE', *, *, #152, .T. ) ;
#215 = PRODUCT_CONTEXT ( 'NONE', #239, 'mechanical' ) ;
#216 = EDGE_CURVE ( 'NONE', #12, #199, #392, .T. ) ;
#217 = CARTESIAN_POINT ( 'NONE',  ( 69.19426654760201245, 21.21490699316700201, 2.698666328104000200 ) ) ;
#218 = ADVANCED_FACE ( 'NONE', ( #123, #341 ), #16, .T. ) ;
#219 = PLANE ( 'NONE',  #587 ) ;
#220 = VERTEX_POINT ( 'NONE', #570 ) ;
#221 = LINE ( 'NONE', #58, #19 ) ;
#222 = VECTOR ( 'NONE', #61, 999.9999999999998863 ) ;
#223 = CIRCLE ( 'NONE', #429, 1.089038638496999667 ) ;
#224 = VECTOR ( 'NONE', #243, 1000.000000000000000 ) ;
#225 = LINE ( 'NONE', #171, #396 ) ;
#226 = ORIENTED_EDGE ( 'NONE', *, *, #538, .T. ) ;
#227 = DIRECTION ( 'NONE',  ( -0.000000000000000000, 1.000000000000000000, 0.000000000000000000 ) ) ;
#228 = DIRECTION ( 'NONE',  ( -1.000000000000000000, 0.000000000000000000, 0.000000000000000000 ) ) ;
#229 = VERTEX_POINT ( 'NONE', #88 ) ;
#230 = APPLICATION_PROTOCOL_DEFINITION ( 'draft international standard', 'automotive_design', 1998, #276 ) ;
#231 = CARTESIAN_POINT ( 'NONE',  ( 0.000000000000000000, 0.000000000000000000, 32.86473614057700132 ) ) ;
#232 = ADVANCED_FACE ( 'NONE', ( #365 ), #197, .F. ) ;
#233 = CARTESIAN_POINT ( 'NONE',  ( 0.000000000000000000, 16.24302504970400207, 22.75408736909800211 ) ) ;
#234 = CARTESIAN_POINT ( 'NONE',  ( 89.06678727429000730, 4.796537828744000365, 12.39443782062599908 ) ) ;
#235 = ORIENTED_EDGE ( 'NONE', *, *, #690, .F. ) ;
#236 = CARTESIAN_POINT ( 'NONE',  ( 87.00188151802200309, 19.21490699316700201, 22.75408736909800211 ) ) ;
#237 = AXIS2_PLACEMENT_3D ( 'NONE', #67, #550, #293 ) ;
#238 = LINE ( 'NONE', #363, #674 ) ;
#239 = APPLICATION_CONTEXT ( 'automotive_design' ) ;
#240 = CARTESIAN_POINT ( 'NONE',  ( 89.06678727429000730, 10.76357780680699960, 11.25588486222999940 ) ) ;
#241 = EDGE_CURVE ( 'NONE', #9, #324, #185, .T. ) ;
#242 = VERTEX_POINT ( 'NONE', #624 ) ;
#243 = DIRECTION ( 'NONE',  ( 0.000000000000000000, -1.000000000000000000, 0.000000000000000000 ) ) ;
#244 = DIRECTION ( 'NONE',  ( 0.000000000000000000, 0.1222283896610361908, -0.9925020003812938807 ) ) ;
#245 = CARTESIAN_POINT ( 'NONE',  ( 0.000000000000000000, 5.453881685759999876, 15.83950995822599950 ) ) ;
#246 = ORIENTED_EDGE ( 'NONE', *, *, #569, .F. ) ;
#247 = PLANE ( 'NONE',  #212 ) ;
#248 = PLANE ( 'NONE',  #6 ) ;
#249 = ORIENTED_EDGE ( 'NONE', *, *, #310, .F. ) ;
#250 = DIRECTION ( 'NONE',  ( 0.06497807587445232624, 0.000000000000000000, -0.9978866917920361512 ) ) ;
#251 = VECTOR ( 'NONE', #209, 1000.000000000000000 ) ;
#252 = DIRECTION ( 'NONE',  ( 0.000000000000000000, -0.3288240097158334208, 0.9443912169405227486 ) ) ;
#253 = ORIENTED_EDGE ( 'NONE', *, *, #460, .T. ) ;
#254 = LINE ( 'NONE', #267, #369 ) ;
#255 = ORIENTED_EDGE ( 'NONE', *, *, #516, .T. ) ;
#256 = DIRECTION ( 'NONE',  ( -0.9978866917920361512, 0.000000000000000000, 0.06497807587445232624 ) ) ;
#257 = EDGE_CURVE ( 'NONE', #160, #422, #311, .T. ) ;
#258 = CARTESIAN_POINT ( 'NONE',  ( 0.000000000000000000, 5.453881685759999876, 15.83950995822599950 ) ) ;
#259 = ORIENTED_EDGE ( 'NONE', *, *, #176, .F. ) ;
#260 = DIRECTION ( 'NONE',  ( 0.000000000000000000, -1.000000000000000000, 0.000000000000000000 ) ) ;
#261 = CARTESIAN_POINT ( 'NONE',  ( 87.00188151802200309, 20.68423490610300064, 15.10335411508799908 ) ) ;
#262 = STYLED_ITEM ( 'NONE', ( #92 ), #284 ) ;
#263 = ORIENTED_EDGE ( 'NONE', *, *, #216, .F. ) ;
#264 = PLANE ( 'NONE',  #121 ) ;
#265 = CARTESIAN_POINT ( 'NONE',  ( 0.000000000000000000, 11.42092166382299823, 14.70095699982999982 ) ) ;
#266 = EDGE_CURVE ( 'NONE', #199, #313, #412, .T. ) ;
#267 = CARTESIAN_POINT ( 'NONE',  ( 89.06678727429000730, 16.24302504970400207, 22.75408736909800211 ) ) ;
#268 = ADVANCED_FACE ( 'NONE', ( #371 ), #247, .F. ) ;
#269 = LINE ( 'NONE', #583, #584 ) ;
#270 = ORIENTED_EDGE ( 'NONE', *, *, #310, .T. ) ;
#271 = EDGE_CURVE ( 'NONE', #359, #169, #620, .T. ) ;
#272 = ADVANCED_FACE ( 'NONE', ( #302 ), #478, .F. ) ;
#273 = DIRECTION ( 'NONE',  ( 0.000000000000000000, -0.1874256626820599847, -0.9822787898393158246 ) ) ;
#274 = VECTOR ( 'NONE', #14, 1000.000000000000000 ) ;
#275 = DIRECTION ( 'NONE',  ( 0.000000000000000000, 1.000000000000000000, 0.000000000000000000 ) ) ;
#276 = APPLICATION_CONTEXT ( 'automotive_design' ) ;
#277 = ORIENTED_EDGE ( 'NONE', *, *, #444, .F. ) ;
#278 = EDGE_LOOP ( 'NONE', ( #214, #37, #23, #611 ) ) ;
#279 = DIRECTION ( 'NONE',  ( -1.000000000000000000, 0.000000000000000000, 0.000000000000000000 ) ) ;
#280 = VERTEX_POINT ( 'NONE', #676 ) ;
#281 = VECTOR ( 'NONE', #403, 999.9999999999998863 ) ;
#282 = APPLICATION_PROTOCOL_DEFINITION ( 'draft international standard', 'automotive_design', 1998, #239 ) ;
#283 = FACE_OUTER_BOUND ( 'NONE', #333, .T. ) ;
#284 = MANIFOLD_SOLID_BREP ( 'Open CASCADE STEP translator 7.5 13[1]', #431 ) ;
#285 = ORIENTED_EDGE ( 'NONE', *, *, #266, .F. ) ;
#286 = LINE ( 'NONE', #350, #45 ) ;
#287 = CARTESIAN_POINT ( 'NONE',  ( 44.53339363714500365, 16.24302504970400207, 19.85426491981300146 ) ) ;
#288 = DIRECTION ( 'NONE',  ( 0.000000000000000000, -0.9822787898393158246, 0.1874256626820599847 ) ) ;
#289 = DIRECTION ( 'NONE',  ( 0.000000000000000000, 0.9443912169405226376, 0.3288240097158333652 ) ) ;
#290 = ORIENTED_EDGE ( 'NONE', *, *, #503, .F. ) ;
#291 = EDGE_CURVE ( 'NONE', #229, #9, #627, .T. ) ;
#292 = LINE ( 'NONE', #287, #439 ) ;
#293 = DIRECTION ( 'NONE',  ( 0.000000000000000000, 0.000000000000000000, 1.000000000000000000 ) ) ;
#294 = ORIENTED_EDGE ( 'NONE', *, *, #639, .T. ) ;
#295 = CIRCLE ( 'NONE', #44, 1.089038638496999667 ) ;
#296 = CARTESIAN_POINT ( 'NONE',  ( 68.10522790910499680, 21.21490699316700201, 2.698666328104000200 ) ) ;
#297 = DIRECTION ( 'NONE',  ( 1.000000000000000000, 7.570222519176000889E-29, 0.000000000000000000 ) ) ;
#298 = ORIENTED_EDGE ( 'NONE', *, *, #366, .F. ) ;
#299 = CARTESIAN_POINT ( 'NONE',  ( 89.06678727429000730, 7.451385889267000628, 10.10262527262799992 ) ) ;
#300 = DIRECTION ( 'NONE',  ( 0.000000000000000000, -0.9443912169405226376, -0.3288240097158333652 ) ) ;
#301 = VERTEX_POINT ( 'NONE', #602 ) ;
#302 = FACE_OUTER_BOUND ( 'NONE', #678, .T. ) ;
#303 = CARTESIAN_POINT ( 'NONE',  ( 0.000000000000000000, 21.21490699316700201, 0.000000000000000000 ) ) ;
#304 = ORIENTED_EDGE ( 'NONE', *, *, #189, .T. ) ;
#305 = DIRECTION ( 'NONE',  ( 0.000000000000000000, -0.7569655542579901697, 0.6534547801239912745 ) ) ;
#306 = AXIS2_PLACEMENT_3D ( 'NONE', #485, #100, #428 ) ;
#307 = LINE ( 'NONE', #638, #318 ) ;
#308 = VECTOR ( 'NONE', #683, 999.9999999999998863 ) ;
#309 = ORIENTED_EDGE ( 'NONE', *, *, #537, .T. ) ;
#310 = EDGE_CURVE ( 'NONE', #507, #401, #77, .T. ) ;
#311 = LINE ( 'NONE', #632, #32 ) ;
#312 = DIRECTION ( 'NONE',  ( 0.000000000000000000, -1.000000000000000000, 0.000000000000000000 ) ) ;
#313 = VERTEX_POINT ( 'NONE', #400 ) ;
#314 = FACE_OUTER_BOUND ( 'NONE', #206, .T. ) ;
#315 = ORIENTED_EDGE ( 'NONE', *, *, #210, .T. ) ;
#316 = CARTESIAN_POINT ( 'NONE',  ( 89.06678727429000730, 21.21490699316700201, 0.000000000000000000 ) ) ;
#317 = AXIS2_PLACEMENT_3D ( 'NONE', #97, #142, #29 ) ;
#318 = VECTOR ( 'NONE', #529, 1000.000000000000000 ) ;
#319 = CARTESIAN_POINT ( 'NONE',  ( 89.06678727429000730, 21.21490699316700201, 6.513965035205999676 ) ) ;
#320 = ADVANCED_FACE ( 'NONE', ( #393 ), #542, .T. ) ;
#321 = CARTESIAN_POINT ( 'NONE',  ( 68.10522790910499680, 21.21490699316700201, 7.325160433066999488 ) ) ;
#322 = DIRECTION ( 'NONE',  ( 1.000000000000000000, 0.000000000000000000, 0.000000000000000000 ) ) ;
#323 = VERTEX_POINT ( 'NONE', #68 ) ;
#324 = VERTEX_POINT ( 'NONE', #234 ) ;
#325 = PRODUCT_DEFINITION_SHAPE ( 'NONE', 'NONE',  #543 ) ;
#326 = ORIENTED_EDGE ( 'NONE', *, *, #145, .F. ) ;
#327 = EDGE_CURVE ( 'NONE', #124, #40, #599, .T. ) ;
#328 = CARTESIAN_POINT ( 'NONE',  ( 89.06678727429000730, 8.766073603299998851, 16.99276954782800075 ) ) ;
#329 =( GEOMETRIC_REPRESENTATION_CONTEXT ( 3 ) GLOBAL_UNCERTAINTY_ASSIGNED_CONTEXT ( ( #340 ) ) GLOBAL_UNIT_ASSIGNED_CONTEXT ( ( #35, #679, #41 ) ) REPRESENTATION_CONTEXT ( 'NONE', 'WORKASPACE' ) );
#330 = ORIENTED_EDGE ( 'NONE', *, *, #372, .F. ) ;
#331 = DIRECTION ( 'NONE',  ( 2.120776374368000143E-29, -1.000000000000000000, 1.380958071692000154E-30 ) ) ;
#332 = CARTESIAN_POINT ( 'NONE',  ( 89.06678727429000730, 5.453881685759999876, 15.83950995822599950 ) ) ;
#333 = EDGE_LOOP ( 'NONE', ( #499, #304, #69, #326 ) ) ;
#334 = PLANE ( 'NONE',  #186 ) ;
#335 = CARTESIAN_POINT ( 'NONE',  ( 0.000000000000000000, 16.24302504970400207, 22.75408736909800211 ) ) ;
#336 = CARTESIAN_POINT ( 'NONE',  ( 89.06678727429000730, 19.21490699316700201, 22.75408736909800211 ) ) ;
#337 = VECTOR ( 'NONE', #273, 999.9999999999998863 ) ;
#338 = ORIENTED_EDGE ( 'NONE', *, *, #491, .T. ) ;
#339 = VECTOR ( 'NONE', #655, 1000.000000000000227 ) ;
#340 = UNCERTAINTY_MEASURE_WITH_UNIT (LENGTH_MEASURE( 1.000000000000000082E-05 ), #35, 'distance_accuracy_value', 'NONE');
#341 = FACE_OUTER_BOUND ( 'NONE', #514, .T. ) ;
#342 = PLANE ( 'NONE',  #356 ) ;
#343 = ORIENTED_EDGE ( 'NONE', *, *, #94, .T. ) ;
#344 = LINE ( 'NONE', #548, #224 ) ;
#345 = ADVANCED_FACE ( 'NONE', ( #64 ), #606, .F. ) ;
#346 = ADVANCED_FACE ( 'NONE', ( #657 ), #342, .F. ) ;
#347 = CARTESIAN_POINT ( 'NONE',  ( 70.28330518609899968, 16.78368096483099947, 2.698666328104000200 ) ) ;
#348 = PLANE ( 'NONE',  #202 ) ;
#349 = ORIENTED_EDGE ( 'NONE', *, *, #460, .F. ) ;
#350 = CARTESIAN_POINT ( 'NONE',  ( 89.06678727429000730, 21.21490699316700201, 6.513965035205999676 ) ) ;
#351 = DIRECTION ( 'NONE',  ( 0.000000000000000000, 0.000000000000000000, 1.000000000000000000 ) ) ;
#352 = LINE ( 'NONE', #76, #506 ) ;
#353 = PRODUCT_RELATED_PRODUCT_CATEGORY ( 'part', '', ( #59 ) ) ;
#354 = CARTESIAN_POINT ( 'NONE',  ( 69.19426654760201245, 21.21490699316700201, 2.698666328104000200 ) ) ;
#355 = ORIENTED_EDGE ( 'NONE', *, *, #108, .T. ) ;
#356 = AXIS2_PLACEMENT_3D ( 'NONE', #555, #453, #72 ) ;
#357 = VECTOR ( 'NONE', #421, 1000.000000000000000 ) ;
#358 = DIRECTION ( 'NONE',  ( 0.000000000000000000, 0.9443912169405226376, 0.3288240097158333652 ) ) ;
#359 = VERTEX_POINT ( 'NONE', #664 ) ;
#360 = DIRECTION ( 'NONE',  ( -1.000000000000000000, 0.000000000000000000, 0.000000000000000000 ) ) ;
#361 = ORIENTED_EDGE ( 'NONE', *, *, #680, .F. ) ;
#362 = FILL_AREA_STYLE ('',( #193 ) ) ;
#363 = CARTESIAN_POINT ( 'NONE',  ( 68.10522790910499680, 21.21490699316700201, 2.698666328104000200 ) ) ;
#364 = ORIENTED_EDGE ( 'NONE', *, *, #46, .T. ) ;
#365 = FACE_OUTER_BOUND ( 'NONE', #140, .T. ) ;
#366 = EDGE_CURVE ( 'NONE', #525, #411, #295, .T. ) ;
#367 = VECTOR ( 'NONE', #151, 1000.000000000000000 ) ;
#368 = LINE ( 'NONE', #479, #308 ) ;
#369 = VECTOR ( 'NONE', #487, 999.9999999999998863 ) ;
#370 = ORIENTED_EDGE ( 'NONE', *, *, #433, .T. ) ;
#371 = FACE_OUTER_BOUND ( 'NONE', #518, .T. ) ;
#372 = EDGE_CURVE ( 'NONE', #391, #280, #223, .T. ) ;
#373 = DIRECTION ( 'NONE',  ( 1.000000000000000000, 0.000000000000000000, 0.000000000000000000 ) ) ;
#374 = ORIENTED_EDGE ( 'NONE', *, *, #39, .F. ) ;
#375 = DIRECTION ( 'NONE',  ( 1.000000000000000000, 0.000000000000000000, 0.000000000000000000 ) ) ;
#376 = VERTEX_POINT ( 'NONE', #20 ) ;
#377 = DIRECTION ( 'NONE',  ( 0.000000000000000000, 1.000000000000000000, 0.000000000000000000 ) ) ;
#378 = AXIS2_PLACEMENT_3D ( 'NONE', #132, #517, #180 ) ;
#379 = LINE ( 'NONE', #265, #222 ) ;
#380 = ORIENTED_EDGE ( 'NONE', *, *, #146, .T. ) ;
#381 = DIRECTION ( 'NONE',  ( 0.000000000000000000, 0.000000000000000000, 1.000000000000000000 ) ) ;
#382 = ADVANCED_FACE ( 'NONE', ( #673 ), #571, .F. ) ;
#383 = ORIENTED_EDGE ( 'NONE', *, *, #241, .F. ) ;
#384 = COLOUR_RGB ( '',0.7921568627450980005, 0.8196078431372548767, 0.9333333333333333481 ) ;
#385 = FACE_OUTER_BOUND ( 'NONE', #99, .T. ) ;
#386 = VECTOR ( 'NONE', #116, 1000.000000000000000 ) ;
#387 = ORIENTED_EDGE ( 'NONE', *, *, #608, .F. ) ;
#388 = CARTESIAN_POINT ( 'NONE',  ( 89.06678727429000730, 4.796537828744000365, 12.39443782062599908 ) ) ;
#389 = PLANE ( 'NONE',  #203 ) ;
#390 = ADVANCED_FACE ( 'NONE', ( #470 ), #248, .F. ) ;
#391 = VERTEX_POINT ( 'NONE', #347 ) ;
#392 = LINE ( 'NONE', #25, #21 ) ;
#393 = FACE_OUTER_BOUND ( 'NONE', #172, .T. ) ;
#394 = ORIENTED_EDGE ( 'NONE', *, *, #291, .T. ) ;
#395 = EDGE_CURVE ( 'NONE', #301, #401, #194, .T. ) ;
#396 = VECTOR ( 'NONE', #496, 1000.000000000000000 ) ;
#397 = DIRECTION ( 'NONE',  ( 0.000000000000000000, 0.000000000000000000, 1.000000000000000000 ) ) ;
#398 = CARTESIAN_POINT ( 'NONE',  ( 0.000000000000000000, 11.42092166382299823, 14.70095699982999982 ) ) ;
#399 = DIRECTION ( 'NONE',  ( 1.000000000000000000, 0.000000000000000000, 0.000000000000000000 ) ) ;
#400 = CARTESIAN_POINT ( 'NONE',  ( 0.000000000000000000, 21.21490699316700201, 22.75408736909800211 ) ) ;
#401 = VERTEX_POINT ( 'NONE', #609 ) ;
#402 = FACE_OUTER_BOUND ( 'NONE', #96, .T. ) ;
#403 = DIRECTION ( 'NONE',  ( 0.000000000000000000, 0.1874256626820599847, 0.9822787898393158246 ) ) ;
#404 = ORIENTED_EDGE ( 'NONE', *, *, #656, .F. ) ;
#405 = PLANE ( 'NONE',  #378 ) ;
#406 = ORIENTED_EDGE ( 'NONE', *, *, #417, .T. ) ;
#407 = CARTESIAN_POINT ( 'NONE',  ( 89.06678727429000730, 21.21490699316700201, 22.75408736909800211 ) ) ;
#408 = AXIS2_PLACEMENT_3D ( 'NONE', #70, #252, #659 ) ;
#409 = DIRECTION ( 'NONE',  ( 1.000000000000000000, 0.000000000000000000, 0.000000000000000000 ) ) ;
#410 = DIRECTION ( 'NONE',  ( 0.000000000000000000, 1.000000000000000000, 0.000000000000000000 ) ) ;
#411 = VERTEX_POINT ( 'NONE', #296 ) ;
#412 = LINE ( 'NONE', #85, #90 ) ;
#413 = DIRECTION ( 'NONE',  ( 1.000000000000000000, 0.000000000000000000, 0.000000000000000000 ) ) ;
#414 = ORIENTED_EDGE ( 'NONE', *, *, #176, .T. ) ;
#415 = LINE ( 'NONE', #628, #175 ) ;
#416 = ORIENTED_EDGE ( 'NONE', *, *, #692, .T. ) ;
#417 = EDGE_CURVE ( 'NONE', #422, #153, #80, .T. ) ;
#418 = CARTESIAN_POINT ( 'NONE',  ( 0.000000000000000000, 10.76357780680699960, 11.25588486222999940 ) ) ;
#419 = AXIS2_PLACEMENT_3D ( 'NONE', #490, #275, #492 ) ;
#420 = VECTOR ( 'NONE', #597, 1000.000000000000000 ) ;
#421 = DIRECTION ( 'NONE',  ( 0.000000000000000000, 0.000000000000000000, 1.000000000000000000 ) ) ;
#422 = VERTEX_POINT ( 'NONE', #303 ) ;
#423 = CARTESIAN_POINT ( 'NONE',  ( 89.06678727429000730, 16.24302504970400207, 22.75408736909800211 ) ) ;
#424 = VERTEX_POINT ( 'NONE', #670 ) ;
#425 = CARTESIAN_POINT ( 'NONE',  ( 70.28330518609899968, 21.21490699316700201, 7.325160433066999488 ) ) ;
#426 = CARTESIAN_POINT ( 'NONE',  ( 89.06678727429000730, 16.24302504970400207, 32.86473614057700132 ) ) ;
#427 = EDGE_LOOP ( 'NONE', ( #374, #477, #290, #33, #82, #551 ) ) ;
#428 = DIRECTION ( 'NONE',  ( 1.000000000000000000, 0.000000000000000000, 0.000000000000000000 ) ) ;
#429 = AXIS2_PLACEMENT_3D ( 'NONE', #195, #139, #513 ) ;
#430 = FACE_OUTER_BOUND ( 'NONE', #2, .T. ) ;
#431 = CLOSED_SHELL ( 'NONE', ( #112, #563, #382, #346, #53, #533, #141, #268, #554, #15, #161, #476, #232, #390, #345, #218, #471, #591, #163, #272, #320, #1 ) ) ;
#432 = EDGE_LOOP ( 'NONE', ( #443, #436, #512 ) ) ;
#433 = EDGE_CURVE ( 'NONE', #422, #313, #500, .T. ) ;
#434 =( NAMED_UNIT ( * ) SI_UNIT ( $, .STERADIAN. ) SOLID_ANGLE_UNIT ( ) );
#435 = DIRECTION ( 'NONE',  ( 0.000000000000000000, 0.7569655542579901697, -0.6534547801239912745 ) ) ;
#436 = ORIENTED_EDGE ( 'NONE', *, *, #190, .T. ) ;
#437 = ORIENTED_EDGE ( 'NONE', *, *, #39, .T. ) ;
#438 = EDGE_CURVE ( 'NONE', #220, #113, #667, .T. ) ;
#439 = VECTOR ( 'NONE', #451, 999.9999999999998863 ) ;
#440 = CARTESIAN_POINT ( 'NONE',  ( 89.06678727429000730, 11.42092166382299823, 14.70095699982999982 ) ) ;
#441 = AXIS2_PLACEMENT_3D ( 'NONE', #74, #397, #509 ) ;
#442 = DIRECTION ( 'NONE',  ( 0.000000000000000000, 0.000000000000000000, 1.000000000000000000 ) ) ;
#443 = ORIENTED_EDGE ( 'NONE', *, *, #680, .T. ) ;
#444 = EDGE_CURVE ( 'NONE', #411, #280, #238, .T. ) ;
#445 = LINE ( 'NONE', #128, #604 ) ;
#446 = DIRECTION ( 'NONE',  ( 0.000000000000000000, 0.3288240097158334208, -0.9443912169405227486 ) ) ;
#447 = VERTEX_POINT ( 'NONE', #231 ) ;
#448 = DIRECTION ( 'NONE',  ( 0.000000000000000000, 0.000000000000000000, 1.000000000000000000 ) ) ;
#449 = CARTESIAN_POINT ( 'NONE',  ( 0.000000000000000000, 0.000000000000000000, 32.86473614057700132 ) ) ;
#450 = ORIENTED_EDGE ( 'NONE', *, *, #10, .F. ) ;
#451 = DIRECTION ( 'NONE',  ( -0.9978866917920361512, 0.000000000000000000, 0.06497807587445232624 ) ) ;
#452 = DIRECTION ( 'NONE',  ( -0.000000000000000000, 1.000000000000000000, 0.000000000000000000 ) ) ;
#453 = DIRECTION ( 'NONE',  ( -1.000000000000000000, 0.000000000000000000, 0.000000000000000000 ) ) ;
#454 = EDGE_LOOP ( 'NONE', ( #5, #361, #184, #253 ) ) ;
#455 = AXIS2_PLACEMENT_3D ( 'NONE', #261, #156, #580 ) ;
#456 = LINE ( 'NONE', #552, #57 ) ;
#457 = CARTESIAN_POINT ( 'NONE',  ( 69.19426654760201245, 21.21490699316700201, 7.325160433066999488 ) ) ;
#458 = CARTESIAN_POINT ( 'NONE',  ( 44.53339363714500365, 16.24302504970400207, 27.15280007088599845 ) ) ;
#459 = ORIENTED_EDGE ( 'NONE', *, *, #612, .T. ) ;
#460 = EDGE_CURVE ( 'NONE', #630, #56, #24, .T. ) ;
#461 = PLANE ( 'NONE',  #408 ) ;
#462 = CARTESIAN_POINT ( 'NONE',  ( 0.000000000000000000, 21.21490699316700201, 22.75408736909800211 ) ) ;
#463 = ORIENTED_EDGE ( 'NONE', *, *, #200, .T. ) ;
#464 = PRODUCT_DEFINITION_CONTEXT ( 'detailed design', #276, 'design' ) ;
#465 = DIRECTION ( 'NONE',  ( 1.000000000000000000, 0.000000000000000000, 0.000000000000000000 ) ) ;
#466 = CARTESIAN_POINT ( 'NONE',  ( 0.000000000000000000, 10.76357780680699960, 11.25588486222999940 ) ) ;
#467 = ORIENTED_EDGE ( 'NONE', *, *, #444, .T. ) ;
#468 = DIRECTION ( 'NONE',  ( 0.000000000000000000, 1.000000000000000000, 0.000000000000000000 ) ) ;
#469 = VECTOR ( 'NONE', #358, 1000.000000000000114 ) ;
#470 = FACE_OUTER_BOUND ( 'NONE', #541, .T. ) ;
#471 = ADVANCED_FACE ( 'NONE', ( #402 ), #405, .F. ) ;
#472 = ORIENTED_EDGE ( 'NONE', *, *, #395, .T. ) ;
#473 = SURFACE_STYLE_USAGE ( .BOTH. , #579 ) ;
#474 = LINE ( 'NONE', #36, #34 ) ;
#475 = EDGE_CURVE ( 'NONE', #654, #556, #616, .T. ) ;
#476 = ADVANCED_FACE ( 'NONE', ( #127 ), #461, .F. ) ;
#477 = ORIENTED_EDGE ( 'NONE', *, *, #93, .F. ) ;
#478 = PLANE ( 'NONE',  #660 ) ;
#479 = CARTESIAN_POINT ( 'NONE',  ( 0.000000000000000000, 4.796537828744000365, 12.39443782062599908 ) ) ;
#480 = ORIENTED_EDGE ( 'NONE', *, *, #55, .F. ) ;
#481 = DIRECTION ( 'NONE',  ( 1.000000000000000000, 0.000000000000000000, 0.000000000000000000 ) ) ;
#482 = PRESENTATION_LAYER_ASSIGNMENT (  '', '', ( #262 ) ) ;
#483 = LINE ( 'NONE', #89, #357 ) ;
#484 = ORIENTED_EDGE ( 'NONE', *, *, #266, .T. ) ;
#485 = CARTESIAN_POINT ( 'NONE',  ( 0.000000000000000000, 0.000000000000000000, 0.000000000000000000 ) ) ;
#486 = DIRECTION ( 'NONE',  ( 0.000000000000000000, 0.7569655542579901697, -0.6534547801239912745 ) ) ;
#487 = DIRECTION ( 'NONE',  ( -0.9978866917920361512, 0.000000000000000000, -0.06497807587445232624 ) ) ;
#488 = ORIENTED_EDGE ( 'NONE', *, *, #629, .F. ) ;
#489 =( NAMED_UNIT ( * ) PLANE_ANGLE_UNIT ( ) SI_UNIT ( $, .RADIAN. ) );
#490 = CARTESIAN_POINT ( 'NONE',  ( 69.19426654760201245, 16.78368096483099947, 7.325160433066999488 ) ) ;
#491 = EDGE_CURVE ( 'NONE', #43, #391, #504, .T. ) ;
#492 = DIRECTION ( 'NONE',  ( 0.000000000000000000, 0.000000000000000000, 1.000000000000000000 ) ) ;
#493 = LINE ( 'NONE', #426, #641 ) ;
#494 = EDGE_CURVE ( 'NONE', #424, #124, #292, .T. ) ;
#495 = CIRCLE ( 'NONE', #419, 1.089038638497000555 ) ;
#496 = DIRECTION ( 'NONE',  ( 1.000000000000000000, 0.000000000000000000, 0.000000000000000000 ) ) ;
#497 = ORIENTED_EDGE ( 'NONE', *, *, #93, .T. ) ;
#498 = DIRECTION ( 'NONE',  ( 1.000000000000000000, 0.000000000000000000, 0.000000000000000000 ) ) ;
#499 = ORIENTED_EDGE ( 'NONE', *, *, #663, .T. ) ;
#500 = LINE ( 'NONE', #30, #508 ) ;
#501 = PLANE ( 'NONE',  #698 ) ;
#502 = ORIENTED_EDGE ( 'NONE', *, *, #13, .T. ) ;
#503 = EDGE_CURVE ( 'NONE', #635, #301, #136, .T. ) ;
#504 = LINE ( 'NONE', #75, #66 ) ;
#505 = CARTESIAN_POINT ( 'NONE',  ( 0.000000000000000000, 4.796537828744000365, 12.39443782062599908 ) ) ;
#506 = VECTOR ( 'NONE', #117, 1000.000000000000114 ) ;
#507 = VERTEX_POINT ( 'NONE', #567 ) ;
#508 = VECTOR ( 'NONE', #143, 1000.000000000000000 ) ;
#509 = DIRECTION ( 'NONE',  ( 1.000000000000000000, 0.000000000000000000, 0.000000000000000000 ) ) ;
#510 = CARTESIAN_POINT ( 'NONE',  ( 0.000000000000000000, 21.21490699316700201, 0.000000000000000000 ) ) ;
#511 = CARTESIAN_POINT ( 'NONE',  ( 0.000000000000000000, 7.451385889267000628, 10.10262527262799992 ) ) ;
#512 = ORIENTED_EDGE ( 'NONE', *, *, #65, .T. ) ;
#513 = DIRECTION ( 'NONE',  ( 0.000000000000000000, 0.000000000000000000, 1.000000000000000000 ) ) ;
#514 = EDGE_LOOP ( 'NONE', ( #149, #105, #370, #285, #263, #544, #540 ) ) ;
#515 = DIRECTION ( 'NONE',  ( 1.000000000000000000, 0.000000000000000000, 0.000000000000000000 ) ) ;
#516 = EDGE_CURVE ( 'NONE', #359, #229, #83, .T. ) ;
#517 = DIRECTION ( 'NONE',  ( -0.06497807587445232624, 0.000000000000000000, -0.9978866917920361512 ) ) ;
#518 = EDGE_LOOP ( 'NONE', ( #647, #669, #568, #87, #387, #364 ) ) ;
#519 = VECTOR ( 'NONE', #520, 1000.000000000000000 ) ;
#520 = DIRECTION ( 'NONE',  ( 1.000000000000000000, 0.000000000000000000, 0.000000000000000000 ) ) ;
#521 = ORIENTED_EDGE ( 'NONE', *, *, #629, .T. ) ;
#522 = PLANE ( 'NONE',  #455 ) ;
#523 = ORIENTED_EDGE ( 'NONE', *, *, #438, .T. ) ;
#524 = CARTESIAN_POINT ( 'NONE',  ( 89.06678727429000730, 19.21490699316700201, 22.75408736909800211 ) ) ;
#525 = VERTEX_POINT ( 'NONE', #188 ) ;
#526 = VECTOR ( 'NONE', #546, 1000.000000000000000 ) ;
#527 = DIRECTION ( 'NONE',  ( 0.000000000000000000, 0.000000000000000000, -1.000000000000000000 ) ) ;
#528 = DIRECTION ( 'NONE',  ( 0.000000000000000000, 0.000000000000000000, 1.000000000000000000 ) ) ;
#529 = DIRECTION ( 'NONE',  ( 0.000000000000000000, 1.000000000000000000, 0.000000000000000000 ) ) ;
#530 = CARTESIAN_POINT ( 'NONE',  ( 87.00188151802200309, 20.94957094963499955, 22.61962961551999740 ) ) ;
#531 = ORIENTED_EDGE ( 'NONE', *, *, #55, .T. ) ;
#532 = ADVANCED_BREP_SHAPE_REPRESENTATION ( '20260414_160844_142', ( #284, #441 ), #643 ) ;
#533 = ADVANCED_FACE ( 'NONE', ( #42 ), #522, .T. ) ;
#534 = CARTESIAN_POINT ( 'NONE',  ( 68.10522790910499680, 21.21490699316700201, 2.698666328104000200 ) ) ;
#535 = LINE ( 'NONE', #440, #337 ) ;
#536 = VERTEX_POINT ( 'NONE', #47 ) ;
#537 = EDGE_CURVE ( 'NONE', #242, #525, #201, .T. ) ;
#538 = EDGE_CURVE ( 'NONE', #556, #536, #103, .T. ) ;
#539 = LINE ( 'NONE', #530, #122 ) ;
#540 = ORIENTED_EDGE ( 'NONE', *, *, #685, .F. ) ;
#541 = EDGE_LOOP ( 'NONE', ( #437, #566, #684, #547 ) ) ;
#542 = PLANE ( 'NONE',  #174 ) ;
#543 = PRODUCT_DEFINITION ( 'ๆ', '', #213, #464 ) ;
#544 = ORIENTED_EDGE ( 'NONE', *, *, #190, .F. ) ;
#545 = FACE_OUTER_BOUND ( 'NONE', #454, .T. ) ;
#546 = DIRECTION ( 'NONE',  ( 0.000000000000000000, 0.000000000000000000, 1.000000000000000000 ) ) ;
#547 = ORIENTED_EDGE ( 'NONE', *, *, #438, .F. ) ;
#548 = CARTESIAN_POINT ( 'NONE',  ( 68.10522790910499680, 21.21490699316700201, 7.325160433066999488 ) ) ;
#549 = AXIS2_PLACEMENT_3D ( 'NONE', #688, #373, #377 ) ;
#550 = DIRECTION ( 'NONE',  ( 0.000000000000000000, 1.000000000000000000, 0.000000000000000000 ) ) ;
#551 = ORIENTED_EDGE ( 'NONE', *, *, #516, .F. ) ;
#552 = CARTESIAN_POINT ( 'NONE',  ( 70.28330518609899968, 21.21490699316700201, 7.325160433066999488 ) ) ;
#553 = DIRECTION ( 'NONE',  ( 1.000000000000000000, 0.000000000000000000, 0.000000000000000000 ) ) ;
#554 = ADVANCED_FACE ( 'NONE', ( #205, #634 ), #147, .T. ) ;
#555 = CARTESIAN_POINT ( 'NONE',  ( 68.10522790910499680, 21.21490699316700201, 2.698666328104000200 ) ) ;
#556 = VERTEX_POINT ( 'NONE', #198 ) ;
#557 =( LENGTH_UNIT ( ) NAMED_UNIT ( * ) SI_UNIT ( .MILLI., .METRE. ) );
#558 = EDGE_CURVE ( 'NONE', #199, #424, #681, .T. ) ;
#559 = CARTESIAN_POINT ( 'NONE',  ( 0.000000000000000000, 11.42092166382299823, 14.70095699982999982 ) ) ;
#560 = CARTESIAN_POINT ( 'NONE',  ( 69.19426654760201245, 16.78368096483099947, 5.011913380584999800 ) ) ;
#561 = DIRECTION ( 'NONE',  ( 1.000000000000000000, 0.000000000000000000, 0.000000000000000000 ) ) ;
#562 = VERTEX_POINT ( 'NONE', #423 ) ;
#563 = ADVANCED_FACE ( 'NONE', ( #586 ), #264, .F. ) ;
#564 = DIRECTION ( 'NONE',  ( 0.000000000000000000, 1.000000000000000000, 0.000000000000000000 ) ) ;
#565 = LINE ( 'NONE', #388, #281 ) ;
#566 = ORIENTED_EDGE ( 'NONE', *, *, #271, .T. ) ;
#567 = CARTESIAN_POINT ( 'NONE',  ( 89.06678727429000730, 5.453881685759999876, 15.83950995822599950 ) ) ;
#568 = ORIENTED_EDGE ( 'NONE', *, *, #558, .T. ) ;
#569 = EDGE_CURVE ( 'NONE', #40, #536, #582, .T. ) ;
#570 = CARTESIAN_POINT ( 'NONE',  ( 0.000000000000000000, 11.42092166382299823, 14.70095699982999982 ) ) ;
#571 = CYLINDRICAL_SURFACE ( 'NONE', #617, 1.089038638497000555 ) ;
#572 = ORIENTED_EDGE ( 'NONE', *, *, #666, .T. ) ;
#573 = SURFACE_STYLE_FILL_AREA ( #362 ) ;
#574 = CARTESIAN_POINT ( 'NONE',  ( 0.000000000000000000, 16.24302504970400207, 32.86473614057700132 ) ) ;
#575 = ORIENTED_EDGE ( 'NONE', *, *, #129, .T. ) ;
#576 = VECTOR ( 'NONE', #244, 1000.000000000000114 ) ;
#577 = DIRECTION ( 'NONE',  ( 0.000000000000000000, -1.000000000000000000, 0.000000000000000000 ) ) ;
#578 = ORIENTED_EDGE ( 'NONE', *, *, #648, .T. ) ;
#579 = SURFACE_SIDE_STYLE ('',( #573 ) ) ;
#580 = DIRECTION ( 'NONE',  ( -2.120776374368000143E-29, 1.000000000000000000, 0.000000000000000000 ) ) ;
#581 = ORIENTED_EDGE ( 'NONE', *, *, #433, .F. ) ;
#582 = LINE ( 'NONE', #574, #519 ) ;
#583 = CARTESIAN_POINT ( 'NONE',  ( 89.05880253081900833, 19.21497102372499910, 22.75356743705500051 ) ) ;
#584 = VECTOR ( 'NONE', #596, 1000.000000000000227 ) ;
#585 = VECTOR ( 'NONE', #351, 1000.000000000000000 ) ;
#586 = FACE_OUTER_BOUND ( 'NONE', #626, .T. ) ;
#587 = AXIS2_PLACEMENT_3D ( 'NONE', #593, #322, #157 ) ;
#588 = DIRECTION ( 'NONE',  ( 0.000000000000000000, 1.000000000000000000, 0.000000000000000000 ) ) ;
#589 = ORIENTED_EDGE ( 'NONE', *, *, #257, .F. ) ;
#590 = CARTESIAN_POINT ( 'NONE',  ( 68.10522790910499680, 16.78368096483099947, 7.325160433066999488 ) ) ;
#591 = ADVANCED_FACE ( 'NONE', ( #314 ), #95, .F. ) ;
#592 = EDGE_CURVE ( 'NONE', #153, #56, #644, .T. ) ;
#593 = CARTESIAN_POINT ( 'NONE',  ( 0.000000000000000000, 0.000000000000000000, 0.000000000000000000 ) ) ;
#594 = MECHANICAL_DESIGN_GEOMETRIC_PRESENTATION_REPRESENTATION (  '', ( #262 ), #329 ) ;
#595 = VECTOR ( 'NONE', #300, 1000.000000000000114 ) ;
#596 = DIRECTION ( 'NONE',  ( -0.9978547436599981557, 0.008001909617926992319, -0.06497599554993990778 ) ) ;
#597 = DIRECTION ( 'NONE',  ( 1.000000000000000000, 0.000000000000000000, 0.000000000000000000 ) ) ;
#598 = FACE_OUTER_BOUND ( 'NONE', #134, .T. ) ;
#599 = LINE ( 'NONE', #335, #526 ) ;
#600 = DIRECTION ( 'NONE',  ( -1.000000000000000000, 0.000000000000000000, 0.000000000000000000 ) ) ;
#601 = CARTESIAN_POINT ( 'NONE',  ( 0.000000000000000000, 0.000000000000000000, 32.86473614057700132 ) ) ;
#602 = CARTESIAN_POINT ( 'NONE',  ( 0.000000000000000000, 8.766073603299998851, 16.99276954782800075 ) ) ;
#603 = EDGE_LOOP ( 'NONE', ( #54, #259, #581, #589, #196, #294 ) ) ;
#604 = VECTOR ( 'NONE', #448, 1000.000000000000000 ) ;
#605 = DIRECTION ( 'NONE',  ( -0.9978866917920361512, 0.000000000000000000, -0.06497807587445232624 ) ) ;
#606 = PLANE ( 'NONE',  #111 ) ;
#607 = ORIENTED_EDGE ( 'NONE', *, *, #126, .T. ) ;
#608 = EDGE_CURVE ( 'NONE', #630, #562, #691, .T. ) ;
#609 = CARTESIAN_POINT ( 'NONE',  ( 89.06678727429000730, 8.766073603299998851, 16.99276954782800075 ) ) ;
#610 = CARTESIAN_POINT ( 'NONE',  ( 89.06678727429000730, 21.21490699316700201, 0.000000000000000000 ) ) ;
#611 = ORIENTED_EDGE ( 'NONE', *, *, #692, .F. ) ;
#612 = EDGE_CURVE ( 'NONE', #280, #91, #483, .T. ) ;
#613 = CARTESIAN_POINT ( 'NONE',  ( 0.000000000000000000, 8.766073603299998851, 16.99276954782800075 ) ) ;
#614 = LINE ( 'NONE', #511, #339 ) ;
#615 = ORIENTED_EDGE ( 'NONE', *, *, #558, .F. ) ;
#616 = LINE ( 'NONE', #177, #585 ) ;
#617 = AXIS2_PLACEMENT_3D ( 'NONE', #457, #564, #27 ) ;
#618 = EDGE_LOOP ( 'NONE', ( #162, #472, #249, #51 ) ) ;
#619 = VECTOR ( 'NONE', #577, 1000.000000000000000 ) ;
#620 = LINE ( 'NONE', #418, #102 ) ;
#621 = CARTESIAN_POINT ( 'NONE',  ( 0.000000000000000000, 5.453881685759999876, 15.83950995822599950 ) ) ;
#622 = DIRECTION ( 'NONE',  ( 0.000000000000000000, 0.000000000000000000, 1.000000000000000000 ) ) ;
#623 = VERTEX_POINT ( 'NONE', #321 ) ;
#624 = CARTESIAN_POINT ( 'NONE',  ( 70.28330518609899968, 21.21490699316700201, 7.325160433066999488 ) ) ;
#625 = DIRECTION ( 'NONE',  ( 0.000000000000000000, 0.000000000000000000, -1.000000000000000000 ) ) ;
#626 = EDGE_LOOP ( 'NONE', ( #309, #28, #658, #235 ) ) ;
#627 = LINE ( 'NONE', #687, #420 ) ;
#628 = CARTESIAN_POINT ( 'NONE',  ( 70.28330518609899968, 21.21490699316700201, 2.698666328104000200 ) ) ;
#629 = EDGE_CURVE ( 'NONE', #654, #153, #307, .T. ) ;
#630 = VERTEX_POINT ( 'NONE', #524 ) ;
#631 = AXIS2_PLACEMENT_3D ( 'NONE', #217, #588, #528 ) ;
#632 = CARTESIAN_POINT ( 'NONE',  ( 0.000000000000000000, 0.000000000000000000, 0.000000000000000000 ) ) ;
#633 = VECTOR ( 'NONE', #63, 1000.000000000000000 ) ;
#634 = FACE_OUTER_BOUND ( 'NONE', #130, .T. ) ;
#635 = VERTEX_POINT ( 'NONE', #258 ) ;
#636 = CARTESIAN_POINT ( 'NONE',  ( 70.28330518609899968, 21.21490699316700201, 7.325160433066999488 ) ) ;
#637 = ORIENTED_EDGE ( 'NONE', *, *, #537, .F. ) ;
#638 = CARTESIAN_POINT ( 'NONE',  ( 89.06678727429000730, 0.000000000000000000, 0.000000000000000000 ) ) ;
#639 = EDGE_CURVE ( 'NONE', #447, #40, #474, .T. ) ;
#640 = CARTESIAN_POINT ( 'NONE',  ( 87.00188151802200309, 21.21490699316700201, 22.61962961551999740 ) ) ;
#641 = VECTOR ( 'NONE', #211, 1000.000000000000000 ) ;
#642 = CIRCLE ( 'NONE', #237, 1.089038638497000555 ) ;
#643 =( GEOMETRIC_REPRESENTATION_CONTEXT ( 3 ) GLOBAL_UNCERTAINTY_ASSIGNED_CONTEXT ( ( #170 ) ) GLOBAL_UNIT_ASSIGNED_CONTEXT ( ( #557, #489, #434 ) ) REPRESENTATION_CONTEXT ( 'NONE', 'WORKASPACE' ) );
#644 = LINE ( 'NONE', #316, #699 ) ;
#645 = PLANE ( 'NONE',  #173 ) ;
#646 = DIRECTION ( 'NONE',  ( 0.000000000000000000, -0.7569655542579901697, 0.6534547801239912745 ) ) ;
#647 = ORIENTED_EDGE ( 'NONE', *, *, #65, .F. ) ;
#648 = EDGE_CURVE ( 'NONE', #562, #424, #254, .T. ) ;
#649 = DIRECTION ( 'NONE',  ( 0.000000000000000000, -0.6534547801239912745, -0.7569655542579901697 ) ) ;
#650 = VECTOR ( 'NONE', #289, 1000.000000000000114 ) ;
#651 = CARTESIAN_POINT ( 'NONE',  ( 0.000000000000000000, 16.24302504970400207, 32.86473614057700132 ) ) ;
#652 = ORIENTED_EDGE ( 'NONE', *, *, #271, .F. ) ;
#653 = DIRECTION ( 'NONE',  ( 0.000000000000000000, 0.1222283896610361908, -0.9925020003812938807 ) ) ;
#654 = VERTEX_POINT ( 'NONE', #695 ) ;
#655 = DIRECTION ( 'NONE',  ( 0.000000000000000000, -0.7569655542579901697, 0.6534547801239912745 ) ) ;
#656 = EDGE_CURVE ( 'NONE', #525, #391, #415, .T. ) ;
#657 = FACE_OUTER_BOUND ( 'NONE', #665, .T. ) ;
#658 = ORIENTED_EDGE ( 'NONE', *, *, #491, .F. ) ;
#659 = DIRECTION ( 'NONE',  ( -1.000000000000000000, 0.000000000000000000, 0.000000000000000000 ) ) ;
#660 = AXIS2_PLACEMENT_3D ( 'NONE', #138, #150, #515 ) ;
#661 = CARTESIAN_POINT ( 'NONE',  ( 0.000000000000000000, 21.21490699316700201, 0.000000000000000000 ) ) ;
#662 = VECTOR ( 'NONE', #131, 1000.000000000000114 ) ;
#663 = EDGE_CURVE ( 'NONE', #62, #635, #368, .T. ) ;
#664 = CARTESIAN_POINT ( 'NONE',  ( 0.000000000000000000, 10.76357780680699960, 11.25588486222999940 ) ) ;
#665 = EDGE_LOOP ( 'NONE', ( #572, #416, #179, #277 ) ) ;
#666 = EDGE_CURVE ( 'NONE', #411, #623, #18, .T. ) ;
#667 = LINE ( 'NONE', #398, #274 ) ;
#668 = LINE ( 'NONE', #245, #633 ) ;
#669 = ORIENTED_EDGE ( 'NONE', *, *, #216, .T. ) ;
#670 = CARTESIAN_POINT ( 'NONE',  ( 44.53339363714500365, 16.24302504970400207, 19.85426491981300146 ) ) ;
#671 = FACE_OUTER_BOUND ( 'NONE', #192, .T. ) ;
#672 = EDGE_LOOP ( 'NONE', ( #298, #637, #110, #675 ) ) ;
#673 = FACE_OUTER_BOUND ( 'NONE', #278, .T. ) ;
#674 = VECTOR ( 'NONE', #86, 1000.000000000000000 ) ;
#675 = ORIENTED_EDGE ( 'NONE', *, *, #666, .F. ) ;
#676 = CARTESIAN_POINT ( 'NONE',  ( 68.10522790910499680, 16.78368096483099947, 2.698666328104000200 ) ) ;
#677 = DIRECTION ( 'NONE',  ( 0.000000000000000000, 0.9822787898393158246, -0.1874256626820599847 ) ) ;
#678 = EDGE_LOOP ( 'NONE', ( #115, #26, #450, #315 ) ) ;
#679 =( NAMED_UNIT ( * ) PLANE_ANGLE_UNIT ( ) SI_UNIT ( $, .RADIAN. ) );
#680 = EDGE_CURVE ( 'NONE', #323, #376, #52, .T. ) ;
#681 = LINE ( 'NONE', #159, #251 ) ;
#682 = ORIENTED_EDGE ( 'NONE', *, *, #608, .T. ) ;
#683 = DIRECTION ( 'NONE',  ( 0.000000000000000000, 0.1874256626820599847, 0.9822787898393158246 ) ) ;
#684 = ORIENTED_EDGE ( 'NONE', *, *, #94, .F. ) ;
#685 = EDGE_CURVE ( 'NONE', #56, #376, #286, .T. ) ;
#686 = AXIS2_PLACEMENT_3D ( 'NONE', #661, #452, #465 ) ;
#687 = CARTESIAN_POINT ( 'NONE',  ( 0.000000000000000000, 7.451385889267000628, 10.10262527262799992 ) ) ;
#688 = CARTESIAN_POINT ( 'NONE',  ( 89.06678727429000730, 0.000000000000000000, 0.000000000000000000 ) ) ;
#689 = ORIENTED_EDGE ( 'NONE', *, *, #569, .T. ) ;
#690 = EDGE_CURVE ( 'NONE', #242, #43, #456, .T. ) ;
#691 = LINE ( 'NONE', #207, #619 ) ;
#692 = EDGE_CURVE ( 'NONE', #623, #91, #344, .T. ) ;
#693 = ORIENTED_EDGE ( 'NONE', *, *, #372, .T. ) ;
#694 = ORIENTED_EDGE ( 'NONE', *, *, #494, .F. ) ;
#695 = CARTESIAN_POINT ( 'NONE',  ( 89.06678727429000730, 0.000000000000000000, 0.000000000000000000 ) ) ;
#696 = FACE_BOUND ( 'NONE', #427, .T. ) ;
#697 = ORIENTED_EDGE ( 'NONE', *, *, #592, .T. ) ;
#698 = AXIS2_PLACEMENT_3D ( 'NONE', #458, #227, #498 ) ;
#699 = VECTOR ( 'NONE', #38, 1000.000000000000000 ) ;
#700 = CARTESIAN_POINT ( 'NONE',  ( 89.06678727429000730, 7.451385889267000628, 10.10262527262799992 ) ) ;
ENDSEC;
END-ISO-10303-21;
