ISO-10303-21;
HEADER;
FILE_DESCRIPTION (( 'STEP AP214' ),
    '1' );
FILE_NAME ('20260414_160844_127.STEP',
    '2026-04-16T15:03:47',
    ( '' ),
    ( '' ),
    'SwSTEP 2.0',
    'SolidWorks 2025',
    '' );
FILE_SCHEMA (( 'AUTOMOTIVE_DESIGN' ));
ENDSEC;

DATA;
#1 = ORIENTED_EDGE ( 'NONE', *, *, #597, .F. ) ;
#2 = CARTESIAN_POINT ( 'NONE',  ( 0.000000000000000000, 0.000000000000000000, 0.000000000000000000 ) ) ;
#3 = CARTESIAN_POINT ( 'NONE',  ( 0.000000000000000000, 0.000000000000000000, 0.000000000000000000 ) ) ;
#4 = ORIENTED_EDGE ( 'NONE', *, *, #670, .T. ) ;
#5 = DIRECTION ( 'NONE',  ( 1.000000000000000000, 0.000000000000000000, 0.000000000000000000 ) ) ;
#6 = VECTOR ( 'NONE', #205, 1000.000000000000114 ) ;
#7 = EDGE_CURVE ( 'NONE', #579, #369, #169, .T. ) ;
#8 = ORIENTED_EDGE ( 'NONE', *, *, #371, .T. ) ;
#9 = CARTESIAN_POINT ( 'NONE',  ( 33.42021167432759654, 14.99774731982731879, 55.28728302411822426 ) ) ;
#10 = EDGE_CURVE ( 'NONE', #199, #141, #20, .T. ) ;
#11 = ORIENTED_EDGE ( 'NONE', *, *, #670, .F. ) ;
#12 = DIRECTION ( 'NONE',  ( -0.8151592347671777761, 0.5792369307751268348, 0.000000000000000000 ) ) ;
#13 = AXIS2_PLACEMENT_3D ( 'NONE', #564, #675, #101 ) ;
#14 = ORIENTED_EDGE ( 'NONE', *, *, #608, .F. ) ;
#15 = PRESENTATION_LAYER_ASSIGNMENT (  '', '', ( #155 ) ) ;
#16 = DIRECTION ( 'NONE',  ( 0.000000000000000000, 0.000000000000000000, -1.000000000000000000 ) ) ;
#17 = EDGE_CURVE ( 'NONE', #632, #267, #118, .T. ) ;
#18 = VERTEX_POINT ( 'NONE', #22 ) ;
#19 = CARTESIAN_POINT ( 'NONE',  ( 33.23851145491899928, 15.14135384406200124, 54.84861989013799644 ) ) ;
#20 = LINE ( 'NONE', #224, #36 ) ;
#21 = DIRECTION ( 'NONE',  ( -0.4149611118789810482, -0.9098391482169581046, 0.000000000000000000 ) ) ;
#22 = CARTESIAN_POINT ( 'NONE',  ( 20.58273331372599912, 2.915289842551999744, 38.71486302807500124 ) ) ;
#23 = LINE ( 'NONE', #428, #247 ) ;
#24 = EDGE_CURVE ( 'NONE', #578, #490, #433, .T. ) ;
#25 = PRESENTATION_STYLE_ASSIGNMENT (( #486 ) ) ;
#26 = ORIENTED_EDGE ( 'NONE', *, *, #384, .F. ) ;
#27 = LINE ( 'NONE', #87, #70 ) ;
#28 = LINE ( 'NONE', #452, #417 ) ;
#29 = ORIENTED_EDGE ( 'NONE', *, *, #590, .F. ) ;
#30 = APPLICATION_CONTEXT ( 'automotive_design' ) ;
#31 = DIRECTION ( 'NONE',  ( 1.000000000000000000, 0.000000000000000000, 0.000000000000000000 ) ) ;
#32 = AXIS2_PLACEMENT_3D ( 'NONE', #457, #493, #447 ) ;
#33 = ADVANCED_FACE ( 'NONE', ( #595 ), #127, .T. ) ;
#34 = CARTESIAN_POINT ( 'NONE',  ( 3.373409033012999991, 10.24943242839099966, 55.28728302411799689 ) ) ;
#35 = ORIENTED_EDGE ( 'NONE', *, *, #24, .F. ) ;
#36 = VECTOR ( 'NONE', #330, 1000.000000000000114 ) ;
#37 = DIRECTION ( 'NONE',  ( 0.000000000000000000, 1.000000000000000000, 0.000000000000000000 ) ) ;
#38 = LINE ( 'NONE', #669, #328 ) ;
#39 = DIRECTION ( 'NONE',  ( 0.000000000000000000, -0.3111252494169929883, 0.9503689174079790192 ) ) ;
#40 = AXIS2_PLACEMENT_3D ( 'NONE', #3, #426, #523 ) ;
#41 = EDGE_LOOP ( 'NONE', ( #512, #668, #626, #391, #152 ) ) ;
#42 = DIRECTION ( 'NONE',  ( 0.000000000000000000, 0.000000000000000000, 1.000000000000000000 ) ) ;
#43 = CARTESIAN_POINT ( 'NONE',  ( 2.296290247765999659, 10.74068674474800034, 18.94062410602500179 ) ) ;
#44 = DIRECTION ( 'NONE',  ( 0.000000000000000000, 0.000000000000000000, -1.000000000000000000 ) ) ;
#45 = ADVANCED_FACE ( 'NONE', ( #492 ), #513, .T. ) ;
#46 = ORIENTED_EDGE ( 'NONE', *, *, #124, .F. ) ;
#47 = FACE_OUTER_BOUND ( 'NONE', #210, .T. ) ;
#48 = AXIS2_PLACEMENT_3D ( 'NONE', #226, #585, #528 ) ;
#49 = VECTOR ( 'NONE', #138, 1000.000000000000114 ) ;
#50 = DIRECTION ( 'NONE',  ( -0.7158009235576752172, -0.6983044019866831986, 0.000000000000000000 ) ) ;
#51 = VERTEX_POINT ( 'NONE', #105 ) ;
#52 = CARTESIAN_POINT ( 'NONE',  ( 33.23851145491899928, 14.99774731982700082, 54.84861989013799644 ) ) ;
#53 = CARTESIAN_POINT ( 'NONE',  ( 0.000000000000000000, 0.000000000000000000, 55.28728302411799689 ) ) ;
#54 = ORIENTED_EDGE ( 'NONE', *, *, #414, .T. ) ;
#55 = DIRECTION ( 'NONE',  ( 0.4237833930389123260, 0.9057635650568126584, 0.000000000000000000 ) ) ;
#56 = DIRECTION ( 'NONE',  ( 0.000000000000000000, 1.000000000000000000, 0.000000000000000000 ) ) ;
#57 = ORIENTED_EDGE ( 'NONE', *, *, #128, .F. ) ;
#58 = ADVANCED_FACE ( 'NONE', ( #623 ), #616, .F. ) ;
#59 = DIRECTION ( 'NONE',  ( -0.2460443716399405845, -0.9692585657007662947, 0.000000000000000000 ) ) ;
#60 = EDGE_CURVE ( 'NONE', #261, #499, #463, .T. ) ;
#61 = ORIENTED_EDGE ( 'NONE', *, *, #197, .F. ) ;
#62 = CARTESIAN_POINT ( 'NONE',  ( 38.29306777981600618, 0.000000000000000000, 55.28728302411799689 ) ) ;
#63 = PRODUCT_CONTEXT ( 'NONE', #107, 'mechanical' ) ;
#64 = ORIENTED_EDGE ( 'NONE', *, *, #657, .F. ) ;
#65 = CARTESIAN_POINT ( 'NONE',  ( 10.98630075503699999, 7.720849330240999286, 55.28728302411799689 ) ) ;
#66 = EDGE_LOOP ( 'NONE', ( #481, #314, #574, #421 ) ) ;
#67 = EDGE_CURVE ( 'NONE', #490, #199, #249, .T. ) ;
#68 = LINE ( 'NONE', #642, #336 ) ;
#69 = VERTEX_POINT ( 'NONE', #93 ) ;
#70 = VECTOR ( 'NONE', #37, 1000.000000000000000 ) ;
#71 = CARTESIAN_POINT ( 'NONE',  ( 5.048891976521000302, 11.40038324245900014, 18.94062410602400348 ) ) ;
#72 = VECTOR ( 'NONE', #148, 1000.000000000000000 ) ;
#73 = CARTESIAN_POINT ( 'NONE',  ( 38.29306777981600618, 45.28824800168500531, 0.000000000000000000 ) ) ;
#74 = AXIS2_PLACEMENT_3D ( 'NONE', #236, #356, #667 ) ;
#75 = DIRECTION ( 'NONE',  ( 0.000000000000000000, 0.000000000000000000, 1.000000000000000000 ) ) ;
#76 = EDGE_CURVE ( 'NONE', #132, #406, #139, .T. ) ;
#77 = VECTOR ( 'NONE', #12, 999.9999999999998863 ) ;
#78 = EDGE_CURVE ( 'NONE', #361, #69, #312, .T. ) ;
#79 = DIRECTION ( 'NONE',  ( -0.9098391482169581046, 0.4149611118789811037, 0.000000000000000000 ) ) ;
#80 = LINE ( 'NONE', #293, #273 ) ;
#81 = CARTESIAN_POINT ( 'NONE',  ( 18.41389073387600206, 3.930035304740999713, 0.000000000000000000 ) ) ;
#82 = DIRECTION ( 'NONE',  ( 0.000000000000000000, 0.000000000000000000, -1.000000000000000000 ) ) ;
#83 = DIRECTION ( 'NONE',  ( 0.000000000000000000, 0.000000000000000000, -1.000000000000000000 ) ) ;
#84 = UNCERTAINTY_MEASURE_WITH_UNIT (LENGTH_MEASURE( 1.000000000000000082E-05 ), #648, 'distance_accuracy_value', 'NONE');
#85 = ORIENTED_EDGE ( 'NONE', *, *, #283, .F. ) ;
#86 = VERTEX_POINT ( 'NONE', #606 ) ;
#87 = CARTESIAN_POINT ( 'NONE',  ( 38.29306777981600618, 0.000000000000000000, 0.000000000000000000 ) ) ;
#88 = PLANE ( 'NONE',  #469 ) ;
#89 = CARTESIAN_POINT ( 'NONE',  ( 6.355403715749999627, 8.889398809712000471, 18.94062410602500179 ) ) ;
#90 = ORIENTED_EDGE ( 'NONE', *, *, #390, .F. ) ;
#91 = VECTOR ( 'NONE', #350, 1000.000000000000000 ) ;
#92 = SURFACE_STYLE_FILL_AREA ( #552 ) ;
#93 = CARTESIAN_POINT ( 'NONE',  ( 20.58273331372599912, 2.915289842551999744, 0.000000000000000000 ) ) ;
#94 = CARTESIAN_POINT ( 'NONE',  ( 6.741053910416999528, 8.713510759731999400, 55.28728302411799689 ) ) ;
#95 = ORIENTED_EDGE ( 'NONE', *, *, #78, .T. ) ;
#96 = DIRECTION ( 'NONE',  ( 0.000000000000000000, -0.3111252494169929883, 0.9503689174079790192 ) ) ;
#97 = LINE ( 'NONE', #34, #658 ) ;
#98 = ORIENTED_EDGE ( 'NONE', *, *, #225, .T. ) ;
#99 = CARTESIAN_POINT ( 'NONE',  ( 33.23851145491899928, 45.28824800168500531, 0.000000000000000000 ) ) ;
#100 = VECTOR ( 'NONE', #16, 1000.000000000000000 ) ;
#101 = DIRECTION ( 'NONE',  ( 0.000000000000000000, 0.000000000000000000, -1.000000000000000000 ) ) ;
#102 = MECHANICAL_DESIGN_GEOMETRIC_PRESENTATION_REPRESENTATION (  '', ( #155 ), #530 ) ;
#103 = ORIENTED_EDGE ( 'NONE', *, *, #657, .T. ) ;
#104 = ORIENTED_EDGE ( 'NONE', *, *, #125, .F. ) ;
#105 = CARTESIAN_POINT ( 'NONE',  ( 10.98630075503699999, 7.720849330240999286, 0.000000000000000000 ) ) ;
#106 = FACE_OUTER_BOUND ( 'NONE', #419, .T. ) ;
#107 = APPLICATION_CONTEXT ( 'automotive_design' ) ;
#108 = VERTEX_POINT ( 'NONE', #496 ) ;
#109 = ADVANCED_FACE ( 'NONE', ( #354 ), #407, .F. ) ;
#110 = CARTESIAN_POINT ( 'NONE',  ( 18.41389073387600206, 3.930035304740999713, 38.71486302807500124 ) ) ;
#111 = ORIENTED_EDGE ( 'NONE', *, *, #276, .F. ) ;
#112 = CARTESIAN_POINT ( 'NONE',  ( 33.23851145491899928, 15.14135384406200124, 54.84861989013799644 ) ) ;
#113 = ORIENTED_EDGE ( 'NONE', *, *, #355, .T. ) ;
#114 = PLANE ( 'NONE',  #497 ) ;
#115 = ADVANCED_FACE ( 'NONE', ( #548 ), #88, .F. ) ;
#116 = ORIENTED_EDGE ( 'NONE', *, *, #60, .T. ) ;
#117 = PLANE ( 'NONE',  #48 ) ;
#118 = LINE ( 'NONE', #431, #263 ) ;
#119 = ORIENTED_EDGE ( 'NONE', *, *, #295, .T. ) ;
#120 = CARTESIAN_POINT ( 'NONE',  ( 18.89485563684399949, 1.268669430380000129, 38.71486302807500124 ) ) ;
#121 = DIRECTION ( 'NONE',  ( 1.000000000000000000, 0.000000000000000000, 0.000000000000000000 ) ) ;
#122 = DIRECTION ( 'NONE',  ( 0.000000000000000000, -1.000000000000000000, 0.000000000000000000 ) ) ;
#123 = VECTOR ( 'NONE', #159, 1000.000000000000114 ) ;
#124 = EDGE_CURVE ( 'NONE', #673, #578, #153, .T. ) ;
#125 = EDGE_CURVE ( 'NONE', #320, #200, #363, .T. ) ;
#126 = LINE ( 'NONE', #277, #387 ) ;
#127 = PLANE ( 'NONE',  #654 ) ;
#128 = EDGE_CURVE ( 'NONE', #525, #320, #560, .T. ) ;
#129 = PLANE ( 'NONE',  #565 ) ;
#130 = VECTOR ( 'NONE', #264, 1000.000000000000000 ) ;
#131 = DIRECTION ( 'NONE',  ( 0.000000000000000000, 1.000000000000000000, 0.000000000000000000 ) ) ;
#132 = VERTEX_POINT ( 'NONE', #99 ) ;
#133 = ADVANCED_FACE ( 'NONE', ( #302, #505, #47 ), #501, .T. ) ;
#134 = DIRECTION ( 'NONE',  ( 0.000000000000000000, 0.000000000000000000, -1.000000000000000000 ) ) ;
#135 = DIRECTION ( 'NONE',  ( 0.000000000000000000, 0.000000000000000000, 1.000000000000000000 ) ) ;
#136 = ORIENTED_EDGE ( 'NONE', *, *, #355, .F. ) ;
#137 = ORIENTED_EDGE ( 'NONE', *, *, #78, .F. ) ;
#138 = DIRECTION ( 'NONE',  ( -0.9098391482169581046, 0.4149611118789810482, 0.000000000000000000 ) ) ;
#139 = LINE ( 'NONE', #394, #628 ) ;
#140 = CARTESIAN_POINT ( 'NONE',  ( 8.187143899944000935, 11.88419169019100075, 55.28728302411799689 ) ) ;
#141 = VERTEX_POINT ( 'NONE', #43 ) ;
#142 = LINE ( 'NONE', #491, #182 ) ;
#143 = DIRECTION ( 'NONE',  ( 0.000000000000000000, 0.000000000000000000, 1.000000000000000000 ) ) ;
#144 = DIRECTION ( 'NONE',  ( 0.4149611118789810482, 0.9098391482169581046, 0.000000000000000000 ) ) ;
#145 = ORIENTED_EDGE ( 'NONE', *, *, #60, .F. ) ;
#146 = EDGE_CURVE ( 'NONE', #472, #86, #38, .T. ) ;
#147 = FACE_OUTER_BOUND ( 'NONE', #348, .T. ) ;
#148 = DIRECTION ( 'NONE',  ( 0.000000000000000000, 0.000000000000000000, -1.000000000000000000 ) ) ;
#149 = VERTEX_POINT ( 'NONE', #563 ) ;
#150 = CARTESIAN_POINT ( 'NONE',  ( 6.741053910416999528, 8.713510759731999400, 55.28728302411799689 ) ) ;
#151 = LINE ( 'NONE', #460, #130 ) ;
#152 = ORIENTED_EDGE ( 'NONE', *, *, #295, .F. ) ;
#153 = LINE ( 'NONE', #150, #6 ) ;
#154 = DIRECTION ( 'NONE',  ( 0.000000000000000000, 0.000000000000000000, 1.000000000000000000 ) ) ;
#155 = STYLED_ITEM ( 'NONE', ( #25 ), #540 ) ;
#156 = EDGE_CURVE ( 'NONE', #323, #504, #510, .T. ) ;
#157 = ORIENTED_EDGE ( 'NONE', *, *, #17, .T. ) ;
#158 = VECTOR ( 'NONE', #300, 1000.000000000000000 ) ;
#159 = DIRECTION ( 'NONE',  ( -0.6433534314929421072, 0.2934218161379735235, -0.7071067811869360398 ) ) ;
#160 = VERTEX_POINT ( 'NONE', #399 ) ;
#161 = VECTOR ( 'NONE', #50, 1000.000000000000114 ) ;
#162 = LINE ( 'NONE', #110, #598 ) ;
#163 = ORIENTED_EDGE ( 'NONE', *, *, #370, .T. ) ;
#164 = CARTESIAN_POINT ( 'NONE',  ( 7.994318802610001384, 11.97213571518100039, 55.07534985141199968 ) ) ;
#165 = ADVANCED_FACE ( 'NONE', ( #245, #612, #450 ), #624, .F. ) ;
#166 = VECTOR ( 'NONE', #122, 1000.000000000000000 ) ;
#167 = ORIENTED_EDGE ( 'NONE', *, *, #317, .F. ) ;
#168 = LINE ( 'NONE', #385, #77 ) ;
#169 = LINE ( 'NONE', #586, #278 ) ;
#170 = EDGE_LOOP ( 'NONE', ( #163, #521, #29, #638 ) ) ;
#171 = FACE_OUTER_BOUND ( 'NONE', #214, .T. ) ;
#172 = EDGE_LOOP ( 'NONE', ( #220, #26, #566, #568, #479, #306 ) ) ;
#173 = CARTESIAN_POINT ( 'NONE',  ( 33.23851145491899928, 45.28824800168500531, 0.000000000000000000 ) ) ;
#174 = ADVANCED_FACE ( 'NONE', ( #202 ), #634, .T. ) ;
#175 = EDGE_CURVE ( 'NONE', #578, #582, #413, .T. ) ;
#176 = CARTESIAN_POINT ( 'NONE',  ( 18.41389073387600206, 3.930035304740999713, 0.000000000000000000 ) ) ;
#177 = VECTOR ( 'NONE', #96, 1000.000000000000000 ) ;
#178 = CARTESIAN_POINT ( 'NONE',  ( 7.801493705276000057, 12.06007974017100004, 55.28728302411799689 ) ) ;
#179 = LINE ( 'NONE', #73, #538 ) ;
#180 = ADVANCED_FACE ( 'NONE', ( #106 ), #313, .F. ) ;
#181 = VECTOR ( 'NONE', #260, 1000.000000000000000 ) ;
#182 = VECTOR ( 'NONE', #131, 1000.000000000000000 ) ;
#183 = CARTESIAN_POINT ( 'NONE',  ( 0.000000000000000000, 0.000000000000000000, 55.28728302411799689 ) ) ;
#184 = ORIENTED_EDGE ( 'NONE', *, *, #266, .T. ) ;
#185 = CARTESIAN_POINT ( 'NONE',  ( 38.29306777981600618, 0.000000000000000000, 0.000000000000000000 ) ) ;
#186 = CARTESIAN_POINT ( 'NONE',  ( 3.742380237292999734, 13.91136767520600159, 55.28728302411799689 ) ) ;
#187 = VECTOR ( 'NONE', #144, 1000.000000000000114 ) ;
#188 = PLANE ( 'NONE',  #444 ) ;
#189 = VERTEX_POINT ( 'NONE', #62 ) ;
#190 = DIRECTION ( 'NONE',  ( 0.000000000000000000, 1.000000000000000000, 0.000000000000000000 ) ) ;
#191 = CARTESIAN_POINT ( 'NONE',  ( 18.89485563684399949, 1.268669430380000129, 0.000000000000000000 ) ) ;
#192 = CARTESIAN_POINT ( 'NONE',  ( 9.374701421862997819, 6.781778857351000056, 55.28728302411799689 ) ) ;
#193 = ADVANCED_FACE ( 'NONE', ( #318 ), #114, .T. ) ;
#194 = ORIENTED_EDGE ( 'NONE', *, *, #386, .T. ) ;
#195 = SURFACE_SIDE_STYLE ('',( #92 ) ) ;
#196 = DIRECTION ( 'NONE',  ( 1.000000000000000000, 0.000000000000000000, 0.000000000000000000 ) ) ;
#197 = EDGE_CURVE ( 'NONE', #189, #369, #250, .T. ) ;
#198 = CARTESIAN_POINT ( 'NONE',  ( 6.355403715749999627, 8.889398809712000471, 55.28728302411799689 ) ) ;
#199 = VERTEX_POINT ( 'NONE', #212 ) ;
#200 = VERTEX_POINT ( 'NONE', #571 ) ;
#201 = CARTESIAN_POINT ( 'NONE',  ( 38.29306777981600618, 0.000000000000000000, 0.000000000000000000 ) ) ;
#202 = FACE_OUTER_BOUND ( 'NONE', #429, .T. ) ;
#203 = FACE_OUTER_BOUND ( 'NONE', #170, .T. ) ;
#204 = VERTEX_POINT ( 'NONE', #456 ) ;
#205 = DIRECTION ( 'NONE',  ( 0.4149611118789810482, 0.9098391482169581046, 0.000000000000000000 ) ) ;
#206 = CARTESIAN_POINT ( 'NONE',  ( 20.58273331372599912, 2.915289842551999744, 0.000000000000000000 ) ) ;
#207 = ORIENTED_EDGE ( 'NONE', *, *, #276, .T. ) ;
#208 = DIRECTION ( 'NONE',  ( 0.000000000000000000, 0.000000000000000000, 1.000000000000000000 ) ) ;
#209 = UNCERTAINTY_MEASURE_WITH_UNIT (LENGTH_MEASURE( 1.000000000000000082E-05 ), #603, 'distance_accuracy_value', 'NONE');
#210 = EDGE_LOOP ( 'NONE', ( #629, #376, #466, #617, #520, #448 ) ) ;
#211 = VECTOR ( 'NONE', #631, 1000.000000000000000 ) ;
#212 = CARTESIAN_POINT ( 'NONE',  ( 3.742380237292999734, 13.91136767520600159, 18.94062410602500179 ) ) ;
#213 = ORIENTED_EDGE ( 'NONE', *, *, #487, .T. ) ;
#214 = EDGE_LOOP ( 'NONE', ( #379, #622, #292, #291, #57 ) ) ;
#215 = LINE ( 'NONE', #375, #181 ) ;
#216 = APPLICATION_PROTOCOL_DEFINITION ( 'draft international standard', 'automotive_design', 1998, #30 ) ;
#217 = VERTEX_POINT ( 'NONE', #322 ) ;
#218 = DIRECTION ( 'NONE',  ( -0.1778402672499424797, 0.9840593677946818385, 0.000000000000000000 ) ) ;
#219 = AXIS2_PLACEMENT_3D ( 'NONE', #536, #332, #383 ) ;
#220 = ORIENTED_EDGE ( 'NONE', *, *, #524, .T. ) ;
#221 = LINE ( 'NONE', #435, #100 ) ;
#222 = ORIENTED_EDGE ( 'NONE', *, *, #304, .T. ) ;
#223 = LINE ( 'NONE', #173, #166 ) ;
#224 = CARTESIAN_POINT ( 'NONE',  ( 3.742380237292999734, 13.91136767520600159, 18.94062410602500179 ) ) ;
#225 = EDGE_CURVE ( 'NONE', #160, #18, #162, .T. ) ;
#226 = CARTESIAN_POINT ( 'NONE',  ( 0.000000000000000000, 33.09731834470699852, 0.000000000000000000 ) ) ;
#227 = FACE_OUTER_BOUND ( 'NONE', #546, .T. ) ;
#228 = ADVANCED_FACE ( 'NONE', ( #258 ), #367, .F. ) ;
#229 = PRODUCT_RELATED_PRODUCT_CATEGORY ( 'part', '', ( #570 ) ) ;
#230 = LINE ( 'NONE', #183, #337 ) ;
#231 = LINE ( 'NONE', #545, #233 ) ;
#232 = ORIENTED_EDGE ( 'NONE', *, *, #242, .T. ) ;
#233 = VECTOR ( 'NONE', #613, 1000.000000000000000 ) ;
#234 = CARTESIAN_POINT ( 'NONE',  ( 33.67717458889999449, 14.99774731982700082, 55.28728302411799689 ) ) ;
#235 = AXIS2_PLACEMENT_3D ( 'NONE', #526, #5, #56 ) ;
#236 = CARTESIAN_POINT ( 'NONE',  ( 19.26827979059699913, 2.703283023326999768, 38.71486302807500124 ) ) ;
#237 = ORIENTED_EDGE ( 'NONE', *, *, #321, .F. ) ;
#238 = CARTESIAN_POINT ( 'NONE',  ( 3.742380237292999734, 13.91136767520600159, 55.28728302411799689 ) ) ;
#239 = CARTESIAN_POINT ( 'NONE',  ( 0.000000000000000000, 0.000000000000000000, 0.000000000000000000 ) ) ;
#240 = EDGE_CURVE ( 'NONE', #217, #320, #576, .T. ) ;
#241 = LINE ( 'NONE', #81, #630 ) ;
#242 = EDGE_CURVE ( 'NONE', #470, #204, #619, .T. ) ;
#243 = ORIENTED_EDGE ( 'NONE', *, *, #283, .T. ) ;
#244 = LINE ( 'NONE', #449, #327 ) ;
#245 = FACE_BOUND ( 'NONE', #401, .T. ) ;
#246 = LINE ( 'NONE', #503, #368 ) ;
#247 = VECTOR ( 'NONE', #474, 1000.000000000000114 ) ;
#248 = ORIENTED_EDGE ( 'NONE', *, *, #514, .F. ) ;
#249 = LINE ( 'NONE', #186, #72 ) ;
#250 = LINE ( 'NONE', #580, #211 ) ;
#251 = CARTESIAN_POINT ( 'NONE',  ( 9.822930875761999303, 8.547518242873998418, 55.28728302411799689 ) ) ;
#252 = ORIENTED_EDGE ( 'NONE', *, *, #321, .T. ) ;
#253 = DIRECTION ( 'NONE',  ( 1.000000000000000000, 0.000000000000000000, 0.000000000000000000 ) ) ;
#254 = EDGE_CURVE ( 'NONE', #529, #141, #215, .T. ) ;
#255 = LINE ( 'NONE', #206, #451 ) ;
#256 = ORIENTED_EDGE ( 'NONE', *, *, #17, .F. ) ;
#257 = DIRECTION ( 'NONE',  ( 0.000000000000000000, 0.000000000000000000, 1.000000000000000000 ) ) ;
#258 = FACE_OUTER_BOUND ( 'NONE', #288, .T. ) ;
#259 = ORIENTED_EDGE ( 'NONE', *, *, #610, .F. ) ;
#260 = DIRECTION ( 'NONE',  ( 0.000000000000000000, 0.000000000000000000, -1.000000000000000000 ) ) ;
#261 = VERTEX_POINT ( 'NONE', #522 ) ;
#262 = ORIENTED_EDGE ( 'NONE', *, *, #506, .T. ) ;
#263 = VECTOR ( 'NONE', #535, 1000.000000000000114 ) ;
#264 = DIRECTION ( 'NONE',  ( 0.000000000000000000, 0.000000000000000000, 1.000000000000000000 ) ) ;
#265 = SHAPE_DEFINITION_REPRESENTATION ( #462, #581 ) ;
#266 = EDGE_CURVE ( 'NONE', #323, #274, #151, .T. ) ;
#267 = VERTEX_POINT ( 'NONE', #359 ) ;
#268 = CARTESIAN_POINT ( 'NONE',  ( 18.89485563684399949, 1.268669430380000129, 0.000000000000000000 ) ) ;
#269 = ADVANCED_FACE ( 'NONE', ( #471 ), #420, .F. ) ;
#270 = ORIENTED_EDGE ( 'NONE', *, *, #254, .T. ) ;
#271 = FACE_OUTER_BOUND ( 'NONE', #509, .T. ) ;
#272 = AXIS2_PLACEMENT_3D ( 'NONE', #309, #315, #671 ) ;
#273 = VECTOR ( 'NONE', #190, 1000.000000000000000 ) ;
#274 = VERTEX_POINT ( 'NONE', #53 ) ;
#275 = VECTOR ( 'NONE', #257, 1000.000000000000000 ) ;
#276 = EDGE_CURVE ( 'NONE', #69, #261, #255, .T. ) ;
#277 = CARTESIAN_POINT ( 'NONE',  ( 7.801493705276000057, 12.06007974017100004, 55.28728302411799689 ) ) ;
#278 = VECTOR ( 'NONE', #121, 1000.000000000000000 ) ;
#279 = LINE ( 'NONE', #534, #374 ) ;
#280 = LINE ( 'NONE', #120, #476 ) ;
#281 = VECTOR ( 'NONE', #591, 1000.000000000000114 ) ;
#282 = DIRECTION ( 'NONE',  ( 1.000000000000000000, 0.000000000000000000, 0.000000000000000000 ) ) ;
#283 = EDGE_CURVE ( 'NONE', #673, #472, #645, .T. ) ;
#284 = CARTESIAN_POINT ( 'NONE',  ( 2.296290247765999659, 10.74068674474800034, 55.28728302411799689 ) ) ;
#285 =( NAMED_UNIT ( * ) PLANE_ANGLE_UNIT ( ) SI_UNIT ( $, .RADIAN. ) );
#286 = CARTESIAN_POINT ( 'NONE',  ( 7.801493705276000057, 12.06007974017100004, 55.28728302411799689 ) ) ;
#287 = ORIENTED_EDGE ( 'NONE', *, *, #128, .T. ) ;
#288 = EDGE_LOOP ( 'NONE', ( #157, #113, #427, #614 ) ) ;
#289 = DIRECTION ( 'NONE',  ( -0.4149611118789811037, -0.9098391482169581046, 0.000000000000000000 ) ) ;
#290 = CARTESIAN_POINT ( 'NONE',  ( 20.58273331372599912, 2.915289842551999744, 38.71486302807500124 ) ) ;
#291 = ORIENTED_EDGE ( 'NONE', *, *, #240, .T. ) ;
#292 = ORIENTED_EDGE ( 'NONE', *, *, #583, .T. ) ;
#293 = CARTESIAN_POINT ( 'NONE',  ( 0.000000000000000000, 0.000000000000000000, 0.000000000000000000 ) ) ;
#294 = DIRECTION ( 'NONE',  ( 0.000000000000000000, -0.9236352289822715722, 0.3832727015883947708 ) ) ;
#295 = EDGE_CURVE ( 'NONE', #579, #200, #649, .T. ) ;
#296 = AXIS2_PLACEMENT_3D ( 'NONE', #459, #346, #446 ) ;
#297 = CARTESIAN_POINT ( 'NONE',  ( 33.67717458889999449, 45.28824800168500531, 55.28728302411799689 ) ) ;
#298 = EDGE_LOOP ( 'NONE', ( #343, #643, #458, #237 ) ) ;
#299 = DIRECTION ( 'NONE',  ( 0.6983044019866831986, -0.7158009235576752172, 0.000000000000000000 ) ) ;
#300 = DIRECTION ( 'NONE',  ( 0.000000000000000000, 1.000000000000000000, 0.000000000000000000 ) ) ;
#301 = ORIENTED_EDGE ( 'NONE', *, *, #370, .F. ) ;
#302 = FACE_BOUND ( 'NONE', #357, .T. ) ;
#303 = CARTESIAN_POINT ( 'NONE',  ( 0.000000000000000000, 14.99774731982700082, 55.28728302411799689 ) ) ;
#304 = EDGE_CURVE ( 'NONE', #51, #470, #168, .T. ) ;
#305 = VECTOR ( 'NONE', #334, 1000.000000000000000 ) ;
#306 = ORIENTED_EDGE ( 'NONE', *, *, #533, .T. ) ;
#307 = AXIS2_PLACEMENT_3D ( 'NONE', #602, #289, #340 ) ;
#308 = DIRECTION ( 'NONE',  ( 1.000000000000000000, 0.000000000000000000, 0.000000000000000000 ) ) ;
#309 = CARTESIAN_POINT ( 'NONE',  ( 9.822930875761999303, 8.547518242873998418, 55.28728302411799689 ) ) ;
#310 = ORIENTED_EDGE ( 'NONE', *, *, #67, .T. ) ;
#311 = ORIENTED_EDGE ( 'NONE', *, *, #608, .T. ) ;
#312 = LINE ( 'NONE', #553, #91 ) ;
#313 = PLANE ( 'NONE',  #235 ) ;
#314 = ORIENTED_EDGE ( 'NONE', *, *, #483, .F. ) ;
#315 = DIRECTION ( 'NONE',  ( -0.9692585657007664057, 0.2460443716399406122, 0.000000000000000000 ) ) ;
#316 = ORIENTED_EDGE ( 'NONE', *, *, #124, .T. ) ;
#317 = EDGE_CURVE ( 'NONE', #582, #443, #126, .T. ) ;
#318 = FACE_OUTER_BOUND ( 'NONE', #635, .T. ) ;
#319 = EDGE_LOOP ( 'NONE', ( #95, #311, #556, #259 ) ) ;
#320 = VERTEX_POINT ( 'NONE', #19 ) ;
#321 = EDGE_CURVE ( 'NONE', #149, #51, #326, .T. ) ;
#322 = CARTESIAN_POINT ( 'NONE',  ( 33.67717458889999449, 14.99774731982700082, 55.28728302411799689 ) ) ;
#323 = VERTEX_POINT ( 'NONE', #639 ) ;
#324 = DIRECTION ( 'NONE',  ( 0.000000000000000000, 0.000000000000000000, -1.000000000000000000 ) ) ;
#325 = ORIENTED_EDGE ( 'NONE', *, *, #404, .T. ) ;
#326 = LINE ( 'NONE', #65, #305 ) ;
#327 = VECTOR ( 'NONE', #547, 1000.000000000000000 ) ;
#328 = VECTOR ( 'NONE', #403, 1000.000000000000000 ) ;
#329 = DIRECTION ( 'NONE',  ( -4.898172074971000916E-31, 1.733430374747000256E-30, 1.000000000000000000 ) ) ;
#330 = DIRECTION ( 'NONE',  ( -0.4149611118789810482, -0.9098391482169581046, 0.000000000000000000 ) ) ;
#331 =( GEOMETRIC_REPRESENTATION_CONTEXT ( 3 ) GLOBAL_UNCERTAINTY_ASSIGNED_CONTEXT ( ( #209 ) ) GLOBAL_UNIT_ASSIGNED_CONTEXT ( ( #603, #339, #543 ) ) REPRESENTATION_CONTEXT ( 'NONE', 'WORKASPACE' ) );
#332 = DIRECTION ( 'NONE',  ( 0.000000000000000000, -1.000000000000000000, 0.000000000000000000 ) ) ;
#333 = CARTESIAN_POINT ( 'NONE',  ( 0.000000000000000000, 45.28824800168500531, 0.000000000000000000 ) ) ;
#334 = DIRECTION ( 'NONE',  ( 0.000000000000000000, 0.000000000000000000, -1.000000000000000000 ) ) ;
#335 = EDGE_CURVE ( 'NONE', #504, #189, #596, .T. ) ;
#336 = VECTOR ( 'NONE', #21, 1000.000000000000114 ) ;
#337 = VECTOR ( 'NONE', #31, 1000.000000000000000 ) ;
#338 = CARTESIAN_POINT ( 'NONE',  ( 9.822930875761999303, 8.547518242873998418, 0.000000000000000000 ) ) ;
#339 =( NAMED_UNIT ( * ) PLANE_ANGLE_UNIT ( ) SI_UNIT ( $, .RADIAN. ) );
#340 = DIRECTION ( 'NONE',  ( -0.9098391482169579936, 0.4149611118789810482, 0.000000000000000000 ) ) ;
#341 = FACE_OUTER_BOUND ( 'NONE', #604, .T. ) ;
#342 = EDGE_LOOP ( 'NONE', ( #663, #550, #325, #61 ) ) ;
#343 = ORIENTED_EDGE ( 'NONE', *, *, #436, .T. ) ;
#344 = ADVANCED_FACE ( 'NONE', ( #485 ), #588, .F. ) ;
#345 = CARTESIAN_POINT ( 'NONE',  ( 9.374701421862997819, 6.781778857351000056, 0.000000000000000000 ) ) ;
#346 = DIRECTION ( 'NONE',  ( 0.5034593022660932560, -0.8640189413211603053, 0.000000000000000000 ) ) ;
#347 = LINE ( 'NONE', #89, #187 ) ;
#348 = EDGE_LOOP ( 'NONE', ( #352, #659, #601, #243, #653 ) ) ;
#349 = FILL_AREA_STYLE_COLOUR ( '', #651 ) ;
#350 = DIRECTION ( 'NONE',  ( 0.9057635650568125474, -0.4237833930389123260, 0.000000000000000000 ) ) ;
#351 = CARTESIAN_POINT ( 'NONE',  ( 7.801493705276000057, 12.06007974017100004, 54.86341667870600247 ) ) ;
#352 = ORIENTED_EDGE ( 'NONE', *, *, #386, .F. ) ;
#353 = ORIENTED_EDGE ( 'NONE', *, *, #125, .T. ) ;
#354 = FACE_OUTER_BOUND ( 'NONE', #517, .T. ) ;
#355 = EDGE_CURVE ( 'NONE', #267, #204, #221, .T. ) ;
#356 = DIRECTION ( 'NONE',  ( 0.000000000000000000, 0.000000000000000000, -1.000000000000000000 ) ) ;
#357 = EDGE_LOOP ( 'NONE', ( #256, #561, #11 ) ) ;
#358 = CARTESIAN_POINT ( 'NONE',  ( 33.23851145491899928, 33.09731834470699852, 0.000000000000000000 ) ) ;
#359 = CARTESIAN_POINT ( 'NONE',  ( 9.374701421862997819, 6.781778857351000056, 55.28728302411799689 ) ) ;
#360 = PRODUCT_DEFINITION ( 'ๆ', '', #515, #519 ) ;
#361 = VERTEX_POINT ( 'NONE', #176 ) ;
#362 = AXIS2_PLACEMENT_3D ( 'NONE', #437, #79, #42 ) ;
#363 = LINE ( 'NONE', #52, #158 ) ;
#364 = DIRECTION ( 'NONE',  ( 0.000000000000000000, 1.000000000000000000, 0.000000000000000000 ) ) ;
#365 = AXIS2_PLACEMENT_3D ( 'NONE', #455, #143, #308 ) ;
#366 = ORIENTED_EDGE ( 'NONE', *, *, #620, .F. ) ;
#367 = PLANE ( 'NONE',  #272 ) ;
#368 = VECTOR ( 'NONE', #39, 1000.000000000000000 ) ;
#369 = VERTEX_POINT ( 'NONE', #644 ) ;
#370 = EDGE_CURVE ( 'NONE', #472, #582, #23, .T. ) ;
#371 = EDGE_CURVE ( 'NONE', #499, #160, #280, .T. ) ;
#372 = DIRECTION ( 'NONE',  ( -1.000000000000000000, 0.000000000000000000, 0.000000000000000000 ) ) ;
#373 = EDGE_LOOP ( 'NONE', ( #366, #396, #35, #46 ) ) ;
#374 = VECTOR ( 'NONE', #647, 1000.000000000000114 ) ;
#375 = CARTESIAN_POINT ( 'NONE',  ( 2.296290247765999659, 10.74068674474800034, 55.28728302411799689 ) ) ;
#376 = ORIENTED_EDGE ( 'NONE', *, *, #473, .F. ) ;
#377 = CARTESIAN_POINT ( 'NONE',  ( 38.29306777981600618, 45.28824800168500531, 0.000000000000000000 ) ) ;
#378 = ADVANCED_FACE ( 'NONE', ( #227 ), #129, .T. ) ;
#379 = ORIENTED_EDGE ( 'NONE', *, *, #524, .F. ) ;
#380 = DIRECTION ( 'NONE',  ( 0.000000000000000000, -1.000000000000000000, 1.733430374747000256E-30 ) ) ;
#381 = LINE ( 'NONE', #594, #281 ) ;
#382 = VECTOR ( 'NONE', #646, 1000.000000000000114 ) ;
#383 = DIRECTION ( 'NONE',  ( 0.000000000000000000, 0.000000000000000000, 1.000000000000000000 ) ) ;
#384 = EDGE_CURVE ( 'NONE', #132, #525, #223, .T. ) ;
#385 = CARTESIAN_POINT ( 'NONE',  ( 10.98630075503699999, 7.720849330240999286, 0.000000000000000000 ) ) ;
#386 = EDGE_CURVE ( 'NONE', #141, #86, #381, .T. ) ;
#387 = VECTOR ( 'NONE', #324, 1000.000000000000000 ) ;
#388 = VECTOR ( 'NONE', #498, 1000.000000000000000 ) ;
#389 = LINE ( 'NONE', #234, #438 ) ;
#390 = EDGE_CURVE ( 'NONE', #261, #361, #279, .T. ) ;
#391 = ORIENTED_EDGE ( 'NONE', *, *, #487, .F. ) ;
#392 = VECTOR ( 'NONE', #400, 1000.000000000000114 ) ;
#393 = LINE ( 'NONE', #605, #49 ) ;
#394 = CARTESIAN_POINT ( 'NONE',  ( 0.000000000000000000, 45.28824800168500531, 0.000000000000000000 ) ) ;
#395 = LINE ( 'NONE', #290, #161 ) ;
#396 = ORIENTED_EDGE ( 'NONE', *, *, #414, .F. ) ;
#397 = ORIENTED_EDGE ( 'NONE', *, *, #506, .F. ) ;
#398 = DIRECTION ( 'NONE',  ( 0.000000000000000000, 1.000000000000000000, 0.000000000000000000 ) ) ;
#399 = CARTESIAN_POINT ( 'NONE',  ( 18.41389073387600206, 3.930035304740999713, 38.71486302807500124 ) ) ;
#400 = DIRECTION ( 'NONE',  ( 0.8640189413211603053, 0.5034593022660931450, 0.000000000000000000 ) ) ;
#401 = EDGE_LOOP ( 'NONE', ( #489, #222, #232 ) ) ;
#402 = DIRECTION ( 'NONE',  ( 0.8640189413211603053, 0.5034593022660931450, 0.000000000000000000 ) ) ;
#403 = DIRECTION ( 'NONE',  ( 0.000000000000000000, 0.000000000000000000, -1.000000000000000000 ) ) ;
#404 = EDGE_CURVE ( 'NONE', #406, #369, #179, .T. ) ;
#405 = DIRECTION ( 'NONE',  ( 0.4149611118789811037, 0.9098391482169581046, 0.000000000000000000 ) ) ;
#406 = VERTEX_POINT ( 'NONE', #377 ) ;
#407 = PLANE ( 'NONE',  #296 ) ;
#408 = CARTESIAN_POINT ( 'NONE',  ( 33.67717458889999449, 14.99774731982700082, 55.28728302411799689 ) ) ;
#409 = ORIENTED_EDGE ( 'NONE', *, *, #533, .F. ) ;
#410 = CARTESIAN_POINT ( 'NONE',  ( 18.41389073387600206, 3.930035304740999713, 0.000000000000000000 ) ) ;
#411 = DIRECTION ( 'NONE',  ( -0.7158009235576752172, -0.6983044019866831986, 0.000000000000000000 ) ) ;
#412 = ORIENTED_EDGE ( 'NONE', *, *, #10, .T. ) ;
#413 = LINE ( 'NONE', #164, #123 ) ;
#414 = EDGE_CURVE ( 'NONE', #490, #529, #68, .T. ) ;
#415 = ORIENTED_EDGE ( 'NONE', *, *, #390, .T. ) ;
#416 = DIRECTION ( 'NONE',  ( 0.9057635650568125474, -0.4237833930389123260, 0.000000000000000000 ) ) ;
#417 = VECTOR ( 'NONE', #555, 1000.000000000000000 ) ;
#418 = ORIENTED_EDGE ( 'NONE', *, *, #384, .T. ) ;
#419 = EDGE_LOOP ( 'NONE', ( #1, #409, #184, #592 ) ) ;
#420 = PLANE ( 'NONE',  #13 ) ;
#421 = ORIENTED_EDGE ( 'NONE', *, *, #156, .T. ) ;
#422 = VECTOR ( 'NONE', #59, 1000.000000000000114 ) ;
#423 = VECTOR ( 'NONE', #542, 999.9999999999998863 ) ;
#424 = DIRECTION ( 'NONE',  ( 0.000000000000000000, 0.000000000000000000, 1.000000000000000000 ) ) ;
#425 = ADVANCED_FACE ( 'NONE', ( #171 ), #117, .F. ) ;
#426 = DIRECTION ( 'NONE',  ( 0.000000000000000000, 0.000000000000000000, 1.000000000000000000 ) ) ;
#427 = ORIENTED_EDGE ( 'NONE', *, *, #242, .F. ) ;
#428 = CARTESIAN_POINT ( 'NONE',  ( 6.355403715749999627, 8.889398809712000471, 54.86341667870600247 ) ) ;
#429 = EDGE_LOOP ( 'NONE', ( #609, #119, #104, #439 ) ) ;
#430 = DIRECTION ( 'NONE',  ( -0.6433534314929421072, 0.2934218161379735235, -0.7071067811869360398 ) ) ;
#431 = CARTESIAN_POINT ( 'NONE',  ( 9.822930875761999303, 8.547518242873998418, 55.28728302411799689 ) ) ;
#432 = CARTESIAN_POINT ( 'NONE',  ( 5.533450446086999541, 9.264276768481000346, 53.96001164137300776 ) ) ;
#433 = LINE ( 'NONE', #178, #382 ) ;
#434 = ADVANCED_FACE ( 'NONE', ( #271 ), #478, .F. ) ;
#435 = CARTESIAN_POINT ( 'NONE',  ( 9.374701421862997819, 6.781778857351000056, 55.28728302411799689 ) ) ;
#436 = EDGE_CURVE ( 'NONE', #149, #632, #445, .T. ) ;
#437 = CARTESIAN_POINT ( 'NONE',  ( 3.742380237292999734, 13.91136767520600159, 55.28728302411799689 ) ) ;
#438 = VECTOR ( 'NONE', #398, 1000.000000000000000 ) ;
#439 = ORIENTED_EDGE ( 'NONE', *, *, #240, .F. ) ;
#440 = PLANE ( 'NONE',  #307 ) ;
#441 = VECTOR ( 'NONE', #661, 1000.000000000000000 ) ;
#442 = PLANE ( 'NONE',  #74 ) ;
#443 = VERTEX_POINT ( 'NONE', #650 ) ;
#444 = AXIS2_PLACEMENT_3D ( 'NONE', #286, #405, #83 ) ;
#445 = LINE ( 'NONE', #611, #423 ) ;
#446 = DIRECTION ( 'NONE',  ( 0.000000000000000000, 0.000000000000000000, -1.000000000000000000 ) ) ;
#447 = DIRECTION ( 'NONE',  ( 1.000000000000000000, 0.000000000000000000, 0.000000000000000000 ) ) ;
#448 = ORIENTED_EDGE ( 'NONE', *, *, #197, .T. ) ;
#449 = CARTESIAN_POINT ( 'NONE',  ( 0.000000000000000000, 33.09731834470699852, 0.000000000000000000 ) ) ;
#450 = FACE_OUTER_BOUND ( 'NONE', #172, .T. ) ;
#451 = VECTOR ( 'NONE', #411, 1000.000000000000114 ) ;
#452 = CARTESIAN_POINT ( 'NONE',  ( 20.58273331372599912, 2.915289842551999744, 0.000000000000000000 ) ) ;
#453 = EDGE_CURVE ( 'NONE', #274, #640, #142, .T. ) ;
#454 = EDGE_LOOP ( 'NONE', ( #415, #461, #527, #145 ) ) ;
#455 = CARTESIAN_POINT ( 'NONE',  ( 0.000000000000000000, 0.000000000000000000, 55.28728302411799689 ) ) ;
#456 = CARTESIAN_POINT ( 'NONE',  ( 9.374701421862997819, 6.781778857351000056, 0.000000000000000000 ) ) ;
#457 = CARTESIAN_POINT ( 'NONE',  ( 0.000000000000000000, 0.000000000000000000, 0.000000000000000000 ) ) ;
#458 = ORIENTED_EDGE ( 'NONE', *, *, #304, .F. ) ;
#459 = CARTESIAN_POINT ( 'NONE',  ( 9.374701421862997819, 6.781778857351000056, 55.28728302411799689 ) ) ;
#460 = CARTESIAN_POINT ( 'NONE',  ( 0.000000000000000000, 0.000000000000000000, 0.000000000000000000 ) ) ;
#461 = ORIENTED_EDGE ( 'NONE', *, *, #610, .T. ) ;
#462 = PRODUCT_DEFINITION_SHAPE ( 'NONE', 'NONE',  #360 ) ;
#463 = LINE ( 'NONE', #191, #275 ) ;
#464 = CARTESIAN_POINT ( 'NONE',  ( 33.23851145491999404, 15.05723108981058367, 55.10558280471052939 ) ) ;
#465 = EDGE_CURVE ( 'NONE', #504, #406, #27, .T. ) ;
#466 = ORIENTED_EDGE ( 'NONE', *, *, #583, .F. ) ;
#467 = EDGE_LOOP ( 'NONE', ( #85, #316, #562, #301 ) ) ;
#468 = DIRECTION ( 'NONE',  ( 0.000000000000000000, 0.000000000000000000, 1.000000000000000000 ) ) ;
#469 = AXIS2_PLACEMENT_3D ( 'NONE', #618, #674, #294 ) ;
#470 = VERTEX_POINT ( 'NONE', #338 ) ;
#471 = FACE_OUTER_BOUND ( 'NONE', #298, .T. ) ;
#472 = VERTEX_POINT ( 'NONE', #615 ) ;
#473 = EDGE_CURVE ( 'NONE', #217, #579, #389, .T. ) ;
#474 = DIRECTION ( 'NONE',  ( 0.4149611118789810482, 0.9098391482169581046, 0.000000000000000000 ) ) ;
#475 = ORIENTED_EDGE ( 'NONE', *, *, #590, .T. ) ;
#476 = VECTOR ( 'NONE', #218, 1000.000000000000114 ) ;
#477 = AXIS2_PLACEMENT_3D ( 'NONE', #500, #299, #134 ) ;
#478 = PLANE ( 'NONE',  #477 ) ;
#479 = ORIENTED_EDGE ( 'NONE', *, *, #156, .F. ) ;
#480 = CARTESIAN_POINT ( 'NONE',  ( 38.29306777981600618, 0.000000000000000000, 0.000000000000000000 ) ) ;
#481 = ORIENTED_EDGE ( 'NONE', *, *, #335, .T. ) ;
#482 = DIRECTION ( 'NONE',  ( -0.9840593677946819495, -0.1778402672499425075, 0.000000000000000000 ) ) ;
#483 = EDGE_CURVE ( 'NONE', #274, #189, #230, .T. ) ;
#484 = ADVANCED_FACE ( 'NONE', ( #147 ), #440, .F. ) ;
#485 = FACE_OUTER_BOUND ( 'NONE', #454, .T. ) ;
#486 = SURFACE_STYLE_USAGE ( .BOTH. , #195 ) ;
#487 = EDGE_CURVE ( 'NONE', #200, #132, #488, .T. ) ;
#488 = LINE ( 'NONE', #544, #567 ) ;
#489 = ORIENTED_EDGE ( 'NONE', *, *, #514, .T. ) ;
#490 = VERTEX_POINT ( 'NONE', #238 ) ;
#491 = CARTESIAN_POINT ( 'NONE',  ( 0.000000000000000000, 0.000000000000000000, 55.28728302411799689 ) ) ;
#492 = FACE_OUTER_BOUND ( 'NONE', #342, .T. ) ;
#493 = DIRECTION ( 'NONE',  ( -0.000000000000000000, 1.000000000000000000, 0.000000000000000000 ) ) ;
#494 = EDGE_LOOP ( 'NONE', ( #575, #584, #310, #397, #167 ) ) ;
#495 = PLANE ( 'NONE',  #362 ) ;
#496 = CARTESIAN_POINT ( 'NONE',  ( 0.000000000000000000, 33.09731834470699852, 0.000000000000000000 ) ) ;
#497 = AXIS2_PLACEMENT_3D ( 'NONE', #511, #372, #468 ) ;
#498 = DIRECTION ( 'NONE',  ( 1.000000000000000000, 0.000000000000000000, 0.000000000000000000 ) ) ;
#499 = VERTEX_POINT ( 'NONE', #655 ) ;
#500 = CARTESIAN_POINT ( 'NONE',  ( 20.58273331372599912, 2.915289842551999744, 0.000000000000000000 ) ) ;
#501 = PLANE ( 'NONE',  #365 ) ;
#502 = ADVANCED_FACE ( 'NONE', ( #539 ), #495, .F. ) ;
#503 = CARTESIAN_POINT ( 'NONE',  ( 0.000000000000000000, 33.09731834470699852, 0.000000000000000000 ) ) ;
#504 = VERTEX_POINT ( 'NONE', #185 ) ;
#505 = FACE_BOUND ( 'NONE', #373, .T. ) ;
#506 = EDGE_CURVE ( 'NONE', #443, #199, #393, .T. ) ;
#507 = AXIS2_PLACEMENT_3D ( 'NONE', #268, #482, #531 ) ;
#508 = LINE ( 'NONE', #303, #388 ) ;
#509 = EDGE_LOOP ( 'NONE', ( #207, #116, #64, #14 ) ) ;
#510 = LINE ( 'NONE', #239, #441 ) ;
#511 = CARTESIAN_POINT ( 'NONE',  ( 33.23851145491899928, 33.94607395712699827, 30.85210365264999766 ) ) ;
#512 = ORIENTED_EDGE ( 'NONE', *, *, #7, .T. ) ;
#513 = PLANE ( 'NONE',  #593 ) ;
#514 = EDGE_CURVE ( 'NONE', #204, #51, #599, .T. ) ;
#515 = PRODUCT_DEFINITION_FORMATION_WITH_SPECIFIED_SOURCE ( 'ไป', '', #570, .NOT_KNOWN. ) ;
#516 = DIRECTION ( 'NONE',  ( 1.000000000000000000, 0.000000000000000000, 0.000000000000000000 ) ) ;
#517 = EDGE_LOOP ( 'NONE', ( #4, #252, #248, #136 ) ) ;
#518 = CARTESIAN_POINT ( 'NONE',  ( 9.822930875761999303, 8.547518242873998418, 0.000000000000000000 ) ) ;
#519 = PRODUCT_DEFINITION_CONTEXT ( 'detailed design', #30, 'design' ) ;
#520 = ORIENTED_EDGE ( 'NONE', *, *, #483, .T. ) ;
#521 = ORIENTED_EDGE ( 'NONE', *, *, #317, .T. ) ;
#522 = CARTESIAN_POINT ( 'NONE',  ( 18.89485563684399949, 1.268669430380000129, 0.000000000000000000 ) ) ;
#523 = DIRECTION ( 'NONE',  ( 1.000000000000000000, 0.000000000000000000, 0.000000000000000000 ) ) ;
#524 = EDGE_CURVE ( 'NONE', #108, #525, #244, .T. ) ;
#525 = VERTEX_POINT ( 'NONE', #660 ) ;
#526 = CARTESIAN_POINT ( 'NONE',  ( 0.000000000000000000, 0.000000000000000000, 0.000000000000000000 ) ) ;
#527 = ORIENTED_EDGE ( 'NONE', *, *, #371, .F. ) ;
#528 = DIRECTION ( 'NONE',  ( 0.000000000000000000, 0.3111252494169929883, -0.9503689174079790192 ) ) ;
#529 = VERTEX_POINT ( 'NONE', #284 ) ;
#530 =( GEOMETRIC_REPRESENTATION_CONTEXT ( 3 ) GLOBAL_UNCERTAINTY_ASSIGNED_CONTEXT ( ( #84 ) ) GLOBAL_UNIT_ASSIGNED_CONTEXT ( ( #648, #285, #559 ) ) REPRESENTATION_CONTEXT ( 'NONE', 'WORKASPACE' ) );
#531 = DIRECTION ( 'NONE',  ( -0.1778402672499424797, 0.9840593677946818385, 0.000000000000000000 ) ) ;
#532 = AXIS2_PLACEMENT_3D ( 'NONE', #627, #364, #208 ) ;
#533 = EDGE_CURVE ( 'NONE', #323, #108, #80, .T. ) ;
#534 = CARTESIAN_POINT ( 'NONE',  ( 18.89485563684399949, 1.268669430380000129, 0.000000000000000000 ) ) ;
#535 = DIRECTION ( 'NONE',  ( -0.2460443716399405845, -0.9692585657007662947, 0.000000000000000000 ) ) ;
#536 = CARTESIAN_POINT ( 'NONE',  ( 33.67717458889999449, 45.28824800168500531, 54.84861989013799644 ) ) ;
#537 = DIRECTION ( 'NONE',  ( -0.000000000000000000, 1.000000000000000000, 0.000000000000000000 ) ) ;
#538 = VECTOR ( 'NONE', #424, 1000.000000000000000 ) ;
#539 = FACE_OUTER_BOUND ( 'NONE', #587, .T. ) ;
#540 = MANIFOLD_SOLID_BREP ( 'Open CASCADE STEP translator 7.5 10[1]', #573 ) ;
#541 = EDGE_CURVE ( 'NONE', #632, #470, #231, .T. ) ;
#542 = DIRECTION ( 'NONE',  ( -0.8151592347671777761, 0.5792369307751268348, 0.000000000000000000 ) ) ;
#543 =( NAMED_UNIT ( * ) SI_UNIT ( $, .STERADIAN. ) SOLID_ANGLE_UNIT ( ) );
#544 = CARTESIAN_POINT ( 'NONE',  ( 33.23851145491899928, 45.28824800168500531, 55.28728302411799689 ) ) ;
#545 = CARTESIAN_POINT ( 'NONE',  ( 9.822930875761999303, 8.547518242873998418, 55.28728302411799689 ) ) ;
#546 = EDGE_LOOP ( 'NONE', ( #475, #262, #412, #194 ) ) ;
#547 = DIRECTION ( 'NONE',  ( 1.000000000000000000, 0.000000000000000000, 0.000000000000000000 ) ) ;
#548 = FACE_OUTER_BOUND ( 'NONE', #467, .T. ) ;
#549 = FACE_OUTER_BOUND ( 'NONE', #494, .T. ) ;
#550 = ORIENTED_EDGE ( 'NONE', *, *, #465, .T. ) ;
#551 = ADVANCED_FACE ( 'NONE', ( #664 ), #607, .F. ) ;
#552 = FILL_AREA_STYLE ('',( #349 ) ) ;
#553 = CARTESIAN_POINT ( 'NONE',  ( 18.41389073387600206, 3.930035304740999713, 0.000000000000000000 ) ) ;
#554 = AXIS2_PLACEMENT_3D ( 'NONE', #2, #154, #516 ) ;
#555 = DIRECTION ( 'NONE',  ( 0.000000000000000000, 0.000000000000000000, 1.000000000000000000 ) ) ;
#556 = ORIENTED_EDGE ( 'NONE', *, *, #225, .F. ) ;
#557 = ADVANCED_FACE ( 'NONE', ( #203 ), #672, .F. ) ;
#558 = EDGE_LOOP ( 'NONE', ( #111, #137, #90 ) ) ;
#559 =( NAMED_UNIT ( * ) SI_UNIT ( $, .STERADIAN. ) SOLID_ANGLE_UNIT ( ) );
#560 = LINE ( 'NONE', #358, #177 ) ;
#561 = ORIENTED_EDGE ( 'NONE', *, *, #436, .F. ) ;
#562 = ORIENTED_EDGE ( 'NONE', *, *, #175, .T. ) ;
#563 = CARTESIAN_POINT ( 'NONE',  ( 10.98630075503699999, 7.720849330240999286, 55.28728302411799689 ) ) ;
#564 = CARTESIAN_POINT ( 'NONE',  ( 10.98630075503699999, 7.720849330240999286, 55.28728302411799689 ) ) ;
#565 = AXIS2_PLACEMENT_3D ( 'NONE', #71, #329, #380 ) ;
#566 = ORIENTED_EDGE ( 'NONE', *, *, #76, .T. ) ;
#567 = VECTOR ( 'NONE', #82, 1000.000000000000000 ) ;
#568 = ORIENTED_EDGE ( 'NONE', *, *, #465, .F. ) ;
#569 = DIRECTION ( 'NONE',  ( 0.000000000000000000, 1.000000000000000000, 0.000000000000000000 ) ) ;
#570 = PRODUCT ( '20260414_160844_127', '20260414_160844_127', '', ( #63 ) ) ;
#571 = CARTESIAN_POINT ( 'NONE',  ( 33.23851145491899928, 45.28824800168500531, 54.84861989013799644 ) ) ;
#572 = AXIS2_PLACEMENT_3D ( 'NONE', #410, #55, #665 ) ;
#573 = CLOSED_SHELL ( 'NONE', ( #633, #58, #434, #344, #378, #557, #165, #193, #109, #269, #228, #636, #502, #115, #484, #180, #551, #425, #45, #174, #33, #133 ) ) ;
#574 = ORIENTED_EDGE ( 'NONE', *, *, #266, .F. ) ;
#575 = ORIENTED_EDGE ( 'NONE', *, *, #175, .F. ) ;
#576 =( BOUNDED_CURVE ( )  B_SPLINE_CURVE ( 3, ( #408, #9, #464, #112 ),
 .UNSPECIFIED., .F., .T. ) 
 B_SPLINE_CURVE_WITH_KNOTS ( ( 4, 4 ),
 ( 3.141592653589793116, 4.712388980384689674 ),
 .UNSPECIFIED. ) 
 CURVE ( )  GEOMETRIC_REPRESENTATION_ITEM ( )  RATIONAL_B_SPLINE_CURVE ( ( 1.000000000000000000, 0.8047378541243649375, 0.8047378541243649375, 1.000000000000000000 ) ) 
 REPRESENTATION_ITEM ( '' )  );
#577 = APPLICATION_PROTOCOL_DEFINITION ( 'draft international standard', 'automotive_design', 1998, #107 ) ;
#578 = VERTEX_POINT ( 'NONE', #140 ) ;
#579 = VERTEX_POINT ( 'NONE', #297 ) ;
#580 = CARTESIAN_POINT ( 'NONE',  ( 38.29306777981600618, 0.000000000000000000, 55.28728302411799689 ) ) ;
#581 = ADVANCED_BREP_SHAPE_REPRESENTATION ( '20260414_160844_127', ( #540, #40 ), #331 ) ;
#582 = VERTEX_POINT ( 'NONE', #351 ) ;
#583 = EDGE_CURVE ( 'NONE', #640, #217, #508, .T. ) ;
#584 = ORIENTED_EDGE ( 'NONE', *, *, #24, .T. ) ;
#585 = DIRECTION ( 'NONE',  ( 0.000000000000000000, -0.9503689174079790192, -0.3111252494169929883 ) ) ;
#586 = CARTESIAN_POINT ( 'NONE',  ( 0.000000000000000000, 45.28824800168500531, 55.28728302411799689 ) ) ;
#587 = EDGE_LOOP ( 'NONE', ( #54, #270, #641, #589 ) ) ;
#588 = PLANE ( 'NONE',  #507 ) ;
#589 = ORIENTED_EDGE ( 'NONE', *, *, #67, .F. ) ;
#590 = EDGE_CURVE ( 'NONE', #86, #443, #347, .T. ) ;
#591 = DIRECTION ( 'NONE',  ( 0.9098391482169581046, -0.4149611118789810482, 0.000000000000000000 ) ) ;
#592 = ORIENTED_EDGE ( 'NONE', *, *, #453, .T. ) ;
#593 = AXIS2_PLACEMENT_3D ( 'NONE', #201, #253, #569 ) ;
#594 = CARTESIAN_POINT ( 'NONE',  ( 2.296290247765999659, 10.74068674474800034, 18.94062410602500179 ) ) ;
#595 = FACE_OUTER_BOUND ( 'NONE', #41, .T. ) ;
#596 = LINE ( 'NONE', #480, #666 ) ;
#597 = EDGE_CURVE ( 'NONE', #108, #640, #246, .T. ) ;
#598 = VECTOR ( 'NONE', #416, 1000.000000000000000 ) ;
#599 = LINE ( 'NONE', #345, #625 ) ;
#600 = AXIS2_PLACEMENT_3D ( 'NONE', #198, #621, #44 ) ;
#601 = ORIENTED_EDGE ( 'NONE', *, *, #620, .T. ) ;
#602 = CARTESIAN_POINT ( 'NONE',  ( 2.296290247765999659, 10.74068674474800034, 55.28728302411799689 ) ) ;
#603 =( LENGTH_UNIT ( ) NAMED_UNIT ( * ) SI_UNIT ( .MILLI., .METRE. ) );
#604 = EDGE_LOOP ( 'NONE', ( #98, #103, #8 ) ) ;
#605 = CARTESIAN_POINT ( 'NONE',  ( 7.801493705276000057, 12.06007974017100004, 18.94062410602500179 ) ) ;
#606 = CARTESIAN_POINT ( 'NONE',  ( 6.355403715749999627, 8.889398809712000471, 18.94062410602500179 ) ) ;
#607 = PLANE ( 'NONE',  #32 ) ;
#608 = EDGE_CURVE ( 'NONE', #69, #18, #28, .T. ) ;
#609 = ORIENTED_EDGE ( 'NONE', *, *, #473, .T. ) ;
#610 = EDGE_CURVE ( 'NONE', #361, #160, #241, .T. ) ;
#611 = CARTESIAN_POINT ( 'NONE',  ( 10.98630075503699999, 7.720849330240999286, 55.28728302411799689 ) ) ;
#612 = FACE_BOUND ( 'NONE', #558, .T. ) ;
#613 = DIRECTION ( 'NONE',  ( 0.000000000000000000, 0.000000000000000000, -1.000000000000000000 ) ) ;
#614 = ORIENTED_EDGE ( 'NONE', *, *, #541, .F. ) ;
#615 = CARTESIAN_POINT ( 'NONE',  ( 6.355403715749999627, 8.889398809712000471, 54.86341667870600247 ) ) ;
#616 = PLANE ( 'NONE',  #572 ) ;
#617 = ORIENTED_EDGE ( 'NONE', *, *, #453, .F. ) ;
#618 = CARTESIAN_POINT ( 'NONE',  ( 6.548228813082999977, 8.801454784722000824, 55.07534985141199968 ) ) ;
#619 = LINE ( 'NONE', #518, #422 ) ;
#620 = EDGE_CURVE ( 'NONE', #529, #673, #97, .T. ) ;
#621 = DIRECTION ( 'NONE',  ( 0.9098391482169581046, -0.4149611118789811037, 0.000000000000000000 ) ) ;
#622 = ORIENTED_EDGE ( 'NONE', *, *, #597, .T. ) ;
#623 = FACE_OUTER_BOUND ( 'NONE', #319, .T. ) ;
#624 = PLANE ( 'NONE',  #554 ) ;
#625 = VECTOR ( 'NONE', #402, 1000.000000000000114 ) ;
#626 = ORIENTED_EDGE ( 'NONE', *, *, #76, .F. ) ;
#627 = CARTESIAN_POINT ( 'NONE',  ( 33.67717458889999449, 14.99774731982700082, 54.84861989013799644 ) ) ;
#628 = VECTOR ( 'NONE', #196, 1000.000000000000000 ) ;
#629 = ORIENTED_EDGE ( 'NONE', *, *, #7, .F. ) ;
#630 = VECTOR ( 'NONE', #135, 1000.000000000000000 ) ;
#631 = DIRECTION ( 'NONE',  ( 0.000000000000000000, 1.000000000000000000, 0.000000000000000000 ) ) ;
#632 = VERTEX_POINT ( 'NONE', #251 ) ;
#633 = ADVANCED_FACE ( 'NONE', ( #341 ), #442, .T. ) ;
#634 = CYLINDRICAL_SURFACE ( 'NONE', #532, 0.4386631339799995644 ) ;
#635 = EDGE_LOOP ( 'NONE', ( #213, #418, #287, #353 ) ) ;
#636 = ADVANCED_FACE ( 'NONE', ( #549 ), #188, .F. ) ;
#637 = VECTOR ( 'NONE', #430, 1000.000000000000114 ) ;
#638 = ORIENTED_EDGE ( 'NONE', *, *, #146, .F. ) ;
#639 = CARTESIAN_POINT ( 'NONE',  ( 0.000000000000000000, 0.000000000000000000, 0.000000000000000000 ) ) ;
#640 = VERTEX_POINT ( 'NONE', #656 ) ;
#641 = ORIENTED_EDGE ( 'NONE', *, *, #10, .F. ) ;
#642 = CARTESIAN_POINT ( 'NONE',  ( 3.742380237292999734, 13.91136767520600159, 55.28728302411799689 ) ) ;
#643 = ORIENTED_EDGE ( 'NONE', *, *, #541, .T. ) ;
#644 = CARTESIAN_POINT ( 'NONE',  ( 38.29306777981600618, 45.28824800168500531, 55.28728302411799689 ) ) ;
#645 = LINE ( 'NONE', #432, #637 ) ;
#646 = DIRECTION ( 'NONE',  ( -0.9098391482169581046, 0.4149611118789810482, 0.000000000000000000 ) ) ;
#647 = DIRECTION ( 'NONE',  ( -0.1778402672499424797, 0.9840593677946818385, 0.000000000000000000 ) ) ;
#648 =( LENGTH_UNIT ( ) NAMED_UNIT ( * ) SI_UNIT ( .MILLI., .METRE. ) );
#649 = CIRCLE ( 'NONE', #219, 0.4386631339799995644 ) ;
#650 = CARTESIAN_POINT ( 'NONE',  ( 7.801493705276000057, 12.06007974017100004, 18.94062410602500179 ) ) ;
#651 = COLOUR_RGB ( '',0.7921568627450980005, 0.8196078431372548767, 0.9333333333333333481 ) ;
#652 = DIRECTION ( 'NONE',  ( 0.9098391482169581046, -0.4149611118789810482, 0.000000000000000000 ) ) ;
#653 = ORIENTED_EDGE ( 'NONE', *, *, #146, .T. ) ;
#654 = AXIS2_PLACEMENT_3D ( 'NONE', #333, #537, #282 ) ;
#655 = CARTESIAN_POINT ( 'NONE',  ( 18.89485563684399949, 1.268669430380000129, 38.71486302807500124 ) ) ;
#656 = CARTESIAN_POINT ( 'NONE',  ( 0.000000000000000000, 14.99774731982700082, 55.28728302411799689 ) ) ;
#657 = EDGE_CURVE ( 'NONE', #18, #499, #395, .T. ) ;
#658 = VECTOR ( 'NONE', #652, 1000.000000000000114 ) ;
#659 = ORIENTED_EDGE ( 'NONE', *, *, #254, .F. ) ;
#660 = CARTESIAN_POINT ( 'NONE',  ( 33.23851145491899928, 33.09731834470699852, 0.000000000000000000 ) ) ;
#661 = DIRECTION ( 'NONE',  ( 1.000000000000000000, 0.000000000000000000, 0.000000000000000000 ) ) ;
#662 = LINE ( 'NONE', #192, #392 ) ;
#663 = ORIENTED_EDGE ( 'NONE', *, *, #335, .F. ) ;
#664 = FACE_OUTER_BOUND ( 'NONE', #66, .T. ) ;
#665 = DIRECTION ( 'NONE',  ( 0.000000000000000000, 0.000000000000000000, -1.000000000000000000 ) ) ;
#666 = VECTOR ( 'NONE', #75, 1000.000000000000000 ) ;
#667 = DIRECTION ( 'NONE',  ( 0.000000000000000000, -1.000000000000000000, 0.000000000000000000 ) ) ;
#668 = ORIENTED_EDGE ( 'NONE', *, *, #404, .F. ) ;
#669 = CARTESIAN_POINT ( 'NONE',  ( 6.355403715749999627, 8.889398809712000471, 55.28728302411799689 ) ) ;
#670 = EDGE_CURVE ( 'NONE', #267, #149, #662, .T. ) ;
#671 = DIRECTION ( 'NONE',  ( 0.000000000000000000, 0.000000000000000000, 1.000000000000000000 ) ) ;
#672 = PLANE ( 'NONE',  #600 ) ;
#673 = VERTEX_POINT ( 'NONE', #94 ) ;
#674 = DIRECTION ( 'NONE',  ( 0.6433534314929421072, -0.2934218161379733569, -0.7071067811869362618 ) ) ;
#675 = DIRECTION ( 'NONE',  ( 0.5792369307751268348, 0.8151592347671778871, 0.000000000000000000 ) ) ;
ENDSEC;
END-ISO-10303-21;
