ISO-10303-21;
HEADER;
FILE_DESCRIPTION (( 'STEP AP214' ),
    '1' );
FILE_NAME ('20260414_160844_113.STEP',
    '2026-04-16T14:57:13',
    ( '' ),
    ( '' ),
    'SwSTEP 2.0',
    'SolidWorks 2025',
    '' );
FILE_SCHEMA (( 'AUTOMOTIVE_DESIGN' ));
ENDSEC;

DATA;
#1 = MANIFOLD_SOLID_BREP ( 'Open CASCADE STEP translator 7.5 13[1]', #654 ) ;
#2 = VERTEX_POINT ( 'NONE', #562 ) ;
#3 = LINE ( 'NONE', #618, #338 ) ;
#4 = ADVANCED_FACE ( 'NONE', ( #828 ), #824, .T. ) ;
#5 = ORIENTED_EDGE ( 'NONE', *, *, #42, .T. ) ;
#6 = COLOUR_RGB ( '',0.7921568627450980005, 0.8196078431372548767, 0.9333333333333333481 ) ;
#7 = PLANE ( 'NONE',  #864 ) ;
#8 = EDGE_LOOP ( 'NONE', ( #329, #826, #31, #702 ) ) ;
#9 = PLANE ( 'NONE',  #244 ) ;
#10 = PLANE ( 'NONE',  #745 ) ;
#11 = LINE ( 'NONE', #83, #162 ) ;
#12 = ORIENTED_EDGE ( 'NONE', *, *, #805, .T. ) ;
#13 = CARTESIAN_POINT ( 'NONE',  ( 39.22082137387899792, 2.661648348388999885, 8.937491430476999454 ) ) ;
#14 = ADVANCED_FACE ( 'NONE', ( #159 ), #10, .F. ) ;
#15 = LINE ( 'NONE', #78, #408 ) ;
#16 = ORIENTED_EDGE ( 'NONE', *, *, #368, .F. ) ;
#17 = ADVANCED_FACE ( 'NONE', ( #20 ), #341, .F. ) ;
#18 = VECTOR ( 'NONE', #502, 1000.000000000000000 ) ;
#19 = CARTESIAN_POINT ( 'NONE',  ( 36.67396916156999964, 65.93513915307799778, 17.17065098636900089 ) ) ;
#20 = FACE_OUTER_BOUND ( 'NONE', #671, .T. ) ;
#21 = LINE ( 'NONE', #287, #596 ) ;
#22 = ORIENTED_EDGE ( 'NONE', *, *, #131, .F. ) ;
#23 = DIRECTION ( 'NONE',  ( 0.000000000000000000, 0.000000000000000000, 1.000000000000000000 ) ) ;
#24 = CARTESIAN_POINT ( 'NONE',  ( 12.82807430987999986, 2.661648348388999885, 17.58992183229599959 ) ) ;
#25 = ORIENTED_EDGE ( 'NONE', *, *, #681, .T. ) ;
#26 = PRODUCT ( '20260414_160844_113', '20260414_160844_113', '', ( #52 ) ) ;
#27 = CARTESIAN_POINT ( 'NONE',  ( 12.82807430987999986, 9.589354793280000067, 8.937491430476999454 ) ) ;
#28 = CARTESIAN_POINT ( 'NONE',  ( 39.22082137387899792, 0.000000000000000000, 29.69230738724400354 ) ) ;
#29 = EDGE_CURVE ( 'NONE', #37, #224, #554, .T. ) ;
#30 = DIRECTION ( 'NONE',  ( 0.000000000000000000, 1.000000000000000000, 0.000000000000000000 ) ) ;
#31 = ORIENTED_EDGE ( 'NONE', *, *, #794, .F. ) ;
#32 = DIRECTION ( 'NONE',  ( 0.5750081012768770705, -0.4115406218899116397, -0.7071067811868484432 ) ) ;
#33 = VECTOR ( 'NONE', #167, 1000.000000000000000 ) ;
#34 = VECTOR ( 'NONE', #217, 1000.000000000000000 ) ;
#35 = DIRECTION ( 'NONE',  ( 0.000000000000000000, -1.000000000000000000, 0.000000000000000000 ) ) ;
#36 = DIRECTION ( 'NONE',  ( 1.000000000000000000, 0.000000000000000000, 0.000000000000000000 ) ) ;
#37 = VERTEX_POINT ( 'NONE', #684 ) ;
#38 = DIRECTION ( 'NONE',  ( 0.5820063289439085796, 0.8131842553008725716, 0.000000000000000000 ) ) ;
#39 = PLANE ( 'NONE',  #268 ) ;
#40 = DIRECTION ( 'NONE',  ( 0.000000000000000000, -1.000000000000000000, 0.000000000000000000 ) ) ;
#41 = ORIENTED_EDGE ( 'NONE', *, *, #613, .T. ) ;
#42 = EDGE_CURVE ( 'NONE', #806, #863, #818, .T. ) ;
#43 = CARTESIAN_POINT ( 'NONE',  ( 0.000000000000000000, 0.000000000000000000, 0.000000000000000000 ) ) ;
#44 = ORIENTED_EDGE ( 'NONE', *, *, #819, .F. ) ;
#45 = EDGE_CURVE ( 'NONE', #706, #843, #757, .T. ) ;
#46 = FACE_OUTER_BOUND ( 'NONE', #771, .T. ) ;
#47 = APPLICATION_CONTEXT ( 'automotive_design' ) ;
#48 = VECTOR ( 'NONE', #564, 1000.000000000000000 ) ;
#49 = CARTESIAN_POINT ( 'NONE',  ( 39.22082137387899792, 2.661648348388999885, 8.937491430476999454 ) ) ;
#50 = VECTOR ( 'NONE', #500, 1000.000000000000000 ) ;
#51 = ORIENTED_EDGE ( 'NONE', *, *, #379, .T. ) ;
#52 = PRODUCT_CONTEXT ( 'NONE', #47, 'mechanical' ) ;
#53 = CARTESIAN_POINT ( 'NONE',  ( 0.000000000000000000, 65.93513915307799778, 17.17065098636900089 ) ) ;
#54 = ORIENTED_EDGE ( 'NONE', *, *, #526, .F. ) ;
#55 = EDGE_CURVE ( 'NONE', #488, #583, #278, .T. ) ;
#56 = DIRECTION ( 'NONE',  ( 0.000000000000000000, 0.000000000000000000, -1.000000000000000000 ) ) ;
#57 = PLANE ( 'NONE',  #213 ) ;
#58 = DIRECTION ( 'NONE',  ( 0.000000000000000000, -1.000000000000000000, 0.000000000000000000 ) ) ;
#59 = ORIENTED_EDGE ( 'NONE', *, *, #206, .T. ) ;
#60 = LINE ( 'NONE', #190, #763 ) ;
#61 = VECTOR ( 'NONE', #747, 1000.000000000000000 ) ;
#62 = VERTEX_POINT ( 'NONE', #424 ) ;
#63 = AXIS2_PLACEMENT_3D ( 'NONE', #429, #575, #166 ) ;
#64 = CARTESIAN_POINT ( 'NONE',  ( 1.461540210813999874, 37.92752751431300595, 3.944211372997000087 ) ) ;
#65 = ORIENTED_EDGE ( 'NONE', *, *, #336, .F. ) ;
#66 = EDGE_CURVE ( 'NONE', #296, #507, #150, .T. ) ;
#67 = ORIENTED_EDGE ( 'NONE', *, *, #537, .T. ) ;
#68 = DIRECTION ( 'NONE',  ( 0.000000000000000000, 0.000000000000000000, -1.000000000000000000 ) ) ;
#69 = ORIENTED_EDGE ( 'NONE', *, *, #326, .F. ) ;
#70 = ORIENTED_EDGE ( 'NONE', *, *, #290, .T. ) ;
#71 = DIRECTION ( 'NONE',  ( 0.5820063289439085796, 0.8131842553008725716, 0.000000000000000000 ) ) ;
#72 = ORIENTED_EDGE ( 'NONE', *, *, #113, .F. ) ;
#73 = VECTOR ( 'NONE', #92, 1000.000000000000000 ) ;
#74 = ORIENTED_EDGE ( 'NONE', *, *, #250, .F. ) ;
#75 = AXIS2_PLACEMENT_3D ( 'NONE', #389, #786, #56 ) ;
#76 = CARTESIAN_POINT ( 'NONE',  ( 2.782797132732000023, 35.01594303365000371, 3.944211372997000087 ) ) ;
#77 = CARTESIAN_POINT ( 'NONE',  ( 4.643674797292000278, 37.61597733328899551, 3.944211372997000087 ) ) ;
#78 = CARTESIAN_POINT ( 'NONE',  ( 2.185363127116000115, 65.93513915307799778, 9.967457632752999785 ) ) ;
#79 = ORIENTED_EDGE ( 'NONE', *, *, #755, .F. ) ;
#80 = EDGE_CURVE ( 'NONE', #727, #94, #218, .T. ) ;
#81 = CARTESIAN_POINT ( 'NONE',  ( 36.67396916156999964, 65.93513915307799778, 17.17065098636900089 ) ) ;
#82 = ORIENTED_EDGE ( 'NONE', *, *, #819, .T. ) ;
#83 = CARTESIAN_POINT ( 'NONE',  ( 39.22082137387899792, 31.21131550865399973, 4.648364890004000216 ) ) ;
#84 = ORIENTED_EDGE ( 'NONE', *, *, #548, .F. ) ;
#85 = PLANE ( 'NONE',  #410 ) ;
#86 =( NAMED_UNIT ( * ) SI_UNIT ( $, .STERADIAN. ) SOLID_ANGLE_UNIT ( ) );
#87 = DIRECTION ( 'NONE',  ( -0.4132350585760914408, 0.9106243936792020044, 0.000000000000000000 ) ) ;
#88 = VERTEX_POINT ( 'NONE', #414 ) ;
#89 = VECTOR ( 'NONE', #716, 1000.000000000000000 ) ;
#90 = AXIS2_PLACEMENT_3D ( 'NONE', #589, #660, #180 ) ;
#91 = CARTESIAN_POINT ( 'NONE',  ( 0.1845340728009999820, 40.83477957616599952, 0.000000000000000000 ) ) ;
#92 = DIRECTION ( 'NONE',  ( -1.000000000000000000, 0.000000000000000000, 0.000000000000000000 ) ) ;
#93 = DIRECTION ( 'NONE',  ( -1.000000000000000000, 0.000000000000000000, 0.000000000000000000 ) ) ;
#94 = VERTEX_POINT ( 'NONE', #752 ) ;
#95 = EDGE_CURVE ( 'NONE', #121, #799, #694, .T. ) ;
#96 = LINE ( 'NONE', #361, #598 ) ;
#97 = DIRECTION ( 'NONE',  ( -1.000000000000000000, 0.000000000000000000, 0.000000000000000000 ) ) ;
#98 = ORIENTED_EDGE ( 'NONE', *, *, #345, .F. ) ;
#99 = PLANE ( 'NONE',  #834 ) ;
#100 = PLANE ( 'NONE',  #733 ) ;
#101 = CARTESIAN_POINT ( 'NONE',  ( 2.185363127116000115, 0.000000000000000000, 9.967457632752999785 ) ) ;
#102 = ORIENTED_EDGE ( 'NONE', *, *, #29, .T. ) ;
#103 = VECTOR ( 'NONE', #295, 1000.000000000000000 ) ;
#104 = CARTESIAN_POINT ( 'NONE',  ( 1.461540210813999874, 37.92752751431300595, 2.730480385188999826 ) ) ;
#105 = VECTOR ( 'NONE', #867, 1000.000000000000000 ) ;
#106 = LINE ( 'NONE', #43, #848 ) ;
#107 = DIRECTION ( 'NONE',  ( 1.000000000000000000, 0.000000000000000000, 0.000000000000000000 ) ) ;
#108 = ORIENTED_EDGE ( 'NONE', *, *, #669, .F. ) ;
#109 = EDGE_CURVE ( 'NONE', #94, #266, #435, .T. ) ;
#110 = CARTESIAN_POINT ( 'NONE',  ( 14.64360672161400068, 31.21131550865399973, 0.000000000000000000 ) ) ;
#111 = DIRECTION ( 'NONE',  ( 0.000000000000000000, 1.000000000000000000, 0.000000000000000000 ) ) ;
#112 = EDGE_LOOP ( 'NONE', ( #556, #251, #65, #453 ) ) ;
#113 = EDGE_CURVE ( 'NONE', #732, #152, #367, .T. ) ;
#114 = CARTESIAN_POINT ( 'NONE',  ( 39.22082137387899792, 0.000000000000000000, 0.000000000000000000 ) ) ;
#115 = LINE ( 'NONE', #49, #552 ) ;
#116 = EDGE_LOOP ( 'NONE', ( #203, #782, #383, #74 ) ) ;
#117 = AXIS2_PLACEMENT_3D ( 'NONE', #840, #374, #382 ) ;
#118 = PLANE ( 'NONE',  #175 ) ;
#119 = VECTOR ( 'NONE', #293, 1000.000000000000000 ) ;
#120 = ADVANCED_FACE ( 'NONE', ( #719 ), #100, .F. ) ;
#121 = VERTEX_POINT ( 'NONE', #301 ) ;
#122 = PLANE ( 'NONE',  #90 ) ;
#123 = EDGE_CURVE ( 'NONE', #498, #714, #501, .T. ) ;
#124 = DIRECTION ( 'NONE',  ( -1.000000000000000000, 0.000000000000000000, 0.000000000000000000 ) ) ;
#125 = CARTESIAN_POINT ( 'NONE',  ( 39.22082137387899792, 65.93513915307799778, 4.648364890004000216 ) ) ;
#126 = ORIENTED_EDGE ( 'NONE', *, *, #393, .T. ) ;
#127 = LINE ( 'NONE', #779, #314 ) ;
#128 = CARTESIAN_POINT ( 'NONE',  ( 8.649038248559001829, 65.93513915307799778, 9.967457632752999785 ) ) ;
#129 = ORIENTED_EDGE ( 'NONE', *, *, #643, .F. ) ;
#130 = ORIENTED_EDGE ( 'NONE', *, *, #311, .T. ) ;
#131 = EDGE_CURVE ( 'NONE', #216, #406, #305, .T. ) ;
#132 = CARTESIAN_POINT ( 'NONE',  ( 39.22082137387899792, 0.000000000000000000, 0.000000000000000000 ) ) ;
#133 = AXIS2_PLACEMENT_3D ( 'NONE', #753, #421, #87 ) ;
#134 = ORIENTED_EDGE ( 'NONE', *, *, #750, .T. ) ;
#135 = VECTOR ( 'NONE', #38, 1000.000000000000114 ) ;
#136 = EDGE_CURVE ( 'NONE', #173, #296, #516, .T. ) ;
#137 = DIRECTION ( 'NONE',  ( 0.000000000000000000, 1.000000000000000000, 0.000000000000000000 ) ) ;
#138 = ORIENTED_EDGE ( 'NONE', *, *, #250, .T. ) ;
#139 = EDGE_CURVE ( 'NONE', #246, #604, #315, .T. ) ;
#140 = ORIENTED_EDGE ( 'NONE', *, *, #672, .F. ) ;
#141 = DIRECTION ( 'NONE',  ( 0.000000000000000000, 0.000000000000000000, 1.000000000000000000 ) ) ;
#142 = ORIENTED_EDGE ( 'NONE', *, *, #139, .F. ) ;
#143 = DIRECTION ( 'NONE',  ( 0.000000000000000000, 0.000000000000000000, -1.000000000000000000 ) ) ;
#144 = ADVANCED_FACE ( 'NONE', ( #648 ), #39, .F. ) ;
#145 =( GEOMETRIC_REPRESENTATION_CONTEXT ( 3 ) GLOBAL_UNCERTAINTY_ASSIGNED_CONTEXT ( ( #249 ) ) GLOBAL_UNIT_ASSIGNED_CONTEXT ( ( #764, #212, #86 ) ) REPRESENTATION_CONTEXT ( 'NONE', 'WORKASPACE' ) );
#146 = CARTESIAN_POINT ( 'NONE',  ( 0.000000000000000000, 65.93513915307799778, 0.000000000000000000 ) ) ;
#147 = ORIENTED_EDGE ( 'NONE', *, *, #282, .F. ) ;
#148 = VECTOR ( 'NONE', #233, 1000.000000000000114 ) ;
#149 = DIRECTION ( 'NONE',  ( -0.9952413875200499804, 0.09744013837821491331, 0.000000000000000000 ) ) ;
#150 = LINE ( 'NONE', #567, #73 ) ;
#151 = LINE ( 'NONE', #146, #639 ) ;
#152 = VERTEX_POINT ( 'NONE', #505 ) ;
#153 = FACE_OUTER_BOUND ( 'NONE', #520, .T. ) ;
#154 = DIRECTION ( 'NONE',  ( 0.000000000000000000, 0.000000000000000000, 1.000000000000000000 ) ) ;
#155 = DIRECTION ( 'NONE',  ( 0.4132350585760914408, -0.9106243936792020044, 0.000000000000000000 ) ) ;
#156 = ORIENTED_EDGE ( 'NONE', *, *, #692, .F. ) ;
#157 = DIRECTION ( 'NONE',  ( 1.000000000000000000, 0.000000000000000000, 0.000000000000000000 ) ) ;
#158 = EDGE_CURVE ( 'NONE', #544, #488, #106, .T. ) ;
#159 = FACE_OUTER_BOUND ( 'NONE', #112, .T. ) ;
#160 = CARTESIAN_POINT ( 'NONE',  ( 5.964931719209999983, 34.70439285262600038, 0.000000000000000000 ) ) ;
#161 = ORIENTED_EDGE ( 'NONE', *, *, #365, .T. ) ;
#162 = VECTOR ( 'NONE', #93, 1000.000000000000000 ) ;
#163 = FACE_OUTER_BOUND ( 'NONE', #608, .T. ) ;
#164 = PLANE ( 'NONE',  #467 ) ;
#165 = ORIENTED_EDGE ( 'NONE', *, *, #55, .F. ) ;
#166 = DIRECTION ( 'NONE',  ( 1.000000000000000000, 0.000000000000000000, 0.000000000000000000 ) ) ;
#167 = DIRECTION ( 'NONE',  ( 0.000000000000000000, 0.000000000000000000, -1.000000000000000000 ) ) ;
#168 = LINE ( 'NONE', #793, #230 ) ;
#169 = ORIENTED_EDGE ( 'NONE', *, *, #261, .F. ) ;
#170 = LINE ( 'NONE', #104, #135 ) ;
#171 = DIRECTION ( 'NONE',  ( 0.000000000000000000, 1.000000000000000000, 0.000000000000000000 ) ) ;
#172 = CARTESIAN_POINT ( 'NONE',  ( 2.185363127116000115, 65.93513915307799778, 9.967457632752999785 ) ) ;
#173 = VERTEX_POINT ( 'NONE', #248 ) ;
#174 = ADVANCED_FACE ( 'NONE', ( #183 ), #118, .T. ) ;
#175 = AXIS2_PLACEMENT_3D ( 'NONE', #855, #577, #309 ) ;
#176 = CARTESIAN_POINT ( 'NONE',  ( 39.22082137387899792, 9.589354793280000067, 17.58992183229599959 ) ) ;
#177 = AXIS2_PLACEMENT_3D ( 'NONE', #573, #506, #722 ) ;
#178 = PLANE ( 'NONE',  #568 ) ;
#179 = ORIENTED_EDGE ( 'NONE', *, *, #326, .T. ) ;
#180 = DIRECTION ( 'NONE',  ( 0.000000000000000000, 0.000000000000000000, -1.000000000000000000 ) ) ;
#181 = DIRECTION ( 'NONE',  ( 0.000000000000000000, 0.000000000000000000, -1.000000000000000000 ) ) ;
#182 = ORIENTED_EDGE ( 'NONE', *, *, #236, .F. ) ;
#183 = FACE_OUTER_BOUND ( 'NONE', #866, .T. ) ;
#184 = ORIENTED_EDGE ( 'NONE', *, *, #576, .T. ) ;
#185 = ADVANCED_FACE ( 'NONE', ( #845 ), #572, .F. ) ;
#186 = PLANE ( 'NONE',  #177 ) ;
#187 = DIRECTION ( 'NONE',  ( 1.000000000000000000, 0.000000000000000000, 0.000000000000000000 ) ) ;
#188 = VECTOR ( 'NONE', #23, 1000.000000000000000 ) ;
#189 = VERTEX_POINT ( 'NONE', #232 ) ;
#190 = CARTESIAN_POINT ( 'NONE',  ( 3.322417875372999596, 40.52756181395199775, 0.000000000000000000 ) ) ;
#191 = ORIENTED_EDGE ( 'NONE', *, *, #345, .T. ) ;
#192 = EDGE_CURVE ( 'NONE', #224, #498, #115, .T. ) ;
#193 = DIRECTION ( 'NONE',  ( -0.000000000000000000, 1.000000000000000000, 0.000000000000000000 ) ) ;
#194 = ORIENTED_EDGE ( 'NONE', *, *, #688, .F. ) ;
#195 = ADVANCED_FACE ( 'NONE', ( #449 ), #387, .F. ) ;
#196 = DIRECTION ( 'NONE',  ( 0.000000000000000000, 0.000000000000000000, 1.000000000000000000 ) ) ;
#197 = VECTOR ( 'NONE', #626, 1000.000000000000000 ) ;
#198 = EDGE_CURVE ( 'NONE', #542, #94, #777, .T. ) ;
#199 = VERTEX_POINT ( 'NONE', #318 ) ;
#200 = VECTOR ( 'NONE', #243, 1000.000000000000000 ) ;
#201 = ORIENTED_EDGE ( 'NONE', *, *, #603, .F. ) ;
#202 = LINE ( 'NONE', #751, #513 ) ;
#203 = ORIENTED_EDGE ( 'NONE', *, *, #136, .T. ) ;
#204 = EDGE_LOOP ( 'NONE', ( #67, #70, #339, #837 ) ) ;
#205 = CARTESIAN_POINT ( 'NONE',  ( 3.322417875372999596, 40.52756181395199775, 0.000000000000000000 ) ) ;
#206 = EDGE_CURVE ( 'NONE', #266, #265, #519, .T. ) ;
#207 = DIRECTION ( 'NONE',  ( 0.000000000000000000, 1.000000000000000000, 0.000000000000000000 ) ) ;
#208 = LINE ( 'NONE', #631, #229 ) ;
#209 = ORIENTED_EDGE ( 'NONE', *, *, #139, .T. ) ;
#210 = ADVANCED_FACE ( 'NONE', ( #645, #509 ), #178, .F. ) ;
#211 = LINE ( 'NONE', #64, #850 ) ;
#212 =( NAMED_UNIT ( * ) PLANE_ANGLE_UNIT ( ) SI_UNIT ( $, .RADIAN. ) );
#213 = AXIS2_PLACEMENT_3D ( 'NONE', #238, #661, #578 ) ;
#214 = VECTOR ( 'NONE', #862, 1000.000000000000000 ) ;
#215 = CARTESIAN_POINT ( 'NONE',  ( 14.64360672161400068, 31.21131550865399973, 4.648364890004000216 ) ) ;
#216 = VERTEX_POINT ( 'NONE', #858 ) ;
#217 = DIRECTION ( 'NONE',  ( 1.000000000000000000, 0.000000000000000000, 0.000000000000000000 ) ) ;
#218 = LINE ( 'NONE', #474, #477 ) ;
#219 = FACE_OUTER_BOUND ( 'NONE', #331, .T. ) ;
#220 = EDGE_LOOP ( 'NONE', ( #82, #396, #169, #666 ) ) ;
#221 = FACE_OUTER_BOUND ( 'NONE', #739, .T. ) ;
#222 = CARTESIAN_POINT ( 'NONE',  ( 0.000000000000000000, 65.93513915307799778, 0.000000000000000000 ) ) ;
#223 = DIRECTION ( 'NONE',  ( 0.000000000000000000, 0.000000000000000000, 1.000000000000000000 ) ) ;
#224 = VERTEX_POINT ( 'NONE', #255 ) ;
#225 = DIRECTION ( 'NONE',  ( 0.000000000000000000, -0.8642776460438710284, 0.5030150599622889018 ) ) ;
#226 = DIRECTION ( 'NONE',  ( 0.000000000000000000, 0.000000000000000000, 1.000000000000000000 ) ) ;
#227 = LINE ( 'NONE', #765, #257 ) ;
#228 = ORIENTED_EDGE ( 'NONE', *, *, #852, .T. ) ;
#229 = VECTOR ( 'NONE', #689, 1000.000000000000000 ) ;
#230 = VECTOR ( 'NONE', #705, 1000.000000000000000 ) ;
#231 = DIRECTION ( 'NONE',  ( 0.000000000000000000, 0.000000000000000000, 1.000000000000000000 ) ) ;
#232 = CARTESIAN_POINT ( 'NONE',  ( 12.82807430987999986, 9.589354793280000067, 17.58992183229599959 ) ) ;
#233 = DIRECTION ( 'NONE',  ( 0.4132350585760914408, -0.9106243936792020044, 0.000000000000000000 ) ) ;
#234 = VERTEX_POINT ( 'NONE', #524 ) ;
#235 = DIRECTION ( 'NONE',  ( 0.000000000000000000, 0.000000000000000000, -1.000000000000000000 ) ) ;
#236 = EDGE_CURVE ( 'NONE', #847, #216, #662, .T. ) ;
#237 = DIRECTION ( 'NONE',  ( 0.000000000000000000, -0.08806737649286036640, -0.9961145201218908340 ) ) ;
#238 = CARTESIAN_POINT ( 'NONE',  ( 39.22082137387899792, 0.000000000000000000, 0.000000000000000000 ) ) ;
#239 = ORIENTED_EDGE ( 'NONE', *, *, #136, .F. ) ;
#240 = CARTESIAN_POINT ( 'NONE',  ( 0.000000000000000000, 0.000000000000000000, 0.000000000000000000 ) ) ;
#241 = CARTESIAN_POINT ( 'NONE',  ( 2.185363127116000115, 0.000000000000000000, 9.967457632752999785 ) ) ;
#242 = ORIENTED_EDGE ( 'NONE', *, *, #325, .T. ) ;
#243 = DIRECTION ( 'NONE',  ( -1.000000000000000000, 0.000000000000000000, 0.000000000000000000 ) ) ;
#244 = AXIS2_PLACEMENT_3D ( 'NONE', #418, #606, #540 ) ;
#245 = DIRECTION ( 'NONE',  ( 0.000000000000000000, 0.000000000000000000, -1.000000000000000000 ) ) ;
#246 = VERTEX_POINT ( 'NONE', #125 ) ;
#247 = LINE ( 'NONE', #114, #386 ) ;
#248 = CARTESIAN_POINT ( 'NONE',  ( 8.649038248559001829, 65.93513915307799778, 15.75835802902899729 ) ) ;
#249 = UNCERTAINTY_MEASURE_WITH_UNIT (LENGTH_MEASURE( 1.000000000000000082E-05 ), #764, 'distance_accuracy_value', 'NONE');
#250 = EDGE_CURVE ( 'NONE', #173, #266, #391, .T. ) ;
#251 = ORIENTED_EDGE ( 'NONE', *, *, #823, .T. ) ;
#252 = LINE ( 'NONE', #853, #105 ) ;
#253 = ADVANCED_BREP_SHAPE_REPRESENTATION ( '20260414_160844_113', ( #1, #679 ), #496 ) ;
#254 = CARTESIAN_POINT ( 'NONE',  ( 0.000000000000000000, 65.93513915307799778, 17.17065098636900089 ) ) ;
#255 = CARTESIAN_POINT ( 'NONE',  ( 39.22082137387899792, 2.661648348388999885, 8.937491430476999454 ) ) ;
#256 = ORIENTED_EDGE ( 'NONE', *, *, #236, .T. ) ;
#257 = VECTOR ( 'NONE', #375, 1000.000000000000000 ) ;
#258 = LINE ( 'NONE', #670, #148 ) ;
#259 = EDGE_LOOP ( 'NONE', ( #310, #392, #650, #686 ) ) ;
#260 = FACE_OUTER_BOUND ( 'NONE', #348, .T. ) ;
#261 = EDGE_CURVE ( 'NONE', #604, #269, #11, .T. ) ;
#262 = ORIENTED_EDGE ( 'NONE', *, *, #66, .T. ) ;
#263 = ADVANCED_FACE ( 'NONE', ( #359, #497 ), #164, .T. ) ;
#264 = LINE ( 'NONE', #534, #119 ) ;
#265 = VERTEX_POINT ( 'NONE', #829 ) ;
#266 = VERTEX_POINT ( 'NONE', #482 ) ;
#267 = LINE ( 'NONE', #469, #585 ) ;
#268 = AXIS2_PLACEMENT_3D ( 'NONE', #781, #658, #181 ) ;
#269 = VERTEX_POINT ( 'NONE', #354 ) ;
#270 = CARTESIAN_POINT ( 'NONE',  ( 7.825809383769999350, 37.30442715226499928, 0.000000000000000000 ) ) ;
#271 = VERTEX_POINT ( 'NONE', #491 ) ;
#272 = EDGE_CURVE ( 'NONE', #189, #292, #545, .T. ) ;
#273 = PLANE ( 'NONE',  #327 ) ;
#274 = ORIENTED_EDGE ( 'NONE', *, *, #580, .F. ) ;
#275 = CARTESIAN_POINT ( 'NONE',  ( 0.000000000000000000, 65.93513915307799778, 0.000000000000000000 ) ) ;
#276 = EDGE_LOOP ( 'NONE', ( #663, #228, #570, #517 ) ) ;
#277 = DIRECTION ( 'NONE',  ( -0.4132350585760914408, 0.9106243936792020044, 0.000000000000000000 ) ) ;
#278 = LINE ( 'NONE', #222, #454 ) ;
#279 = MECHANICAL_DESIGN_GEOMETRIC_PRESENTATION_REPRESENTATION (  '', ( #312 ), #145 ) ;
#280 = VECTOR ( 'NONE', #344, 1000.000000000000114 ) ;
#281 = CARTESIAN_POINT ( 'NONE',  ( 2.185363127116000115, 65.93513915307799778, 15.75835802902899729 ) ) ;
#282 = EDGE_CURVE ( 'NONE', #544, #612, #559, .T. ) ;
#283 = EDGE_LOOP ( 'NONE', ( #712, #140, #541, #165, #565, #126, #79, #642 ) ) ;
#284 = CARTESIAN_POINT ( 'NONE',  ( 14.64360672161400068, 31.21131550865399973, 0.000000000000000000 ) ) ;
#285 = FILL_AREA_STYLE ('',( #351 ) ) ;
#286 = EDGE_CURVE ( 'NONE', #488, #121, #151, .T. ) ;
#287 = CARTESIAN_POINT ( 'NONE',  ( 1.461540210813999874, 37.92752751431300595, 0.000000000000000000 ) ) ;
#288 = EDGE_LOOP ( 'NONE', ( #194, #400, #754, #619, #621, #441 ) ) ;
#289 = CARTESIAN_POINT ( 'NONE',  ( 36.67396916156999964, 0.000000000000000000, 29.69230738724400354 ) ) ;
#290 = EDGE_CURVE ( 'NONE', #37, #292, #415, .T. ) ;
#291 = CARTESIAN_POINT ( 'NONE',  ( 3.322417875372999596, 40.52756181395199775, 0.000000000000000000 ) ) ;
#292 = VERTEX_POINT ( 'NONE', #24 ) ;
#293 = DIRECTION ( 'NONE',  ( 0.000000000000000000, 1.000000000000000000, 0.000000000000000000 ) ) ;
#294 = DIRECTION ( 'NONE',  ( 1.000000000000000000, 0.000000000000000000, 0.000000000000000000 ) ) ;
#295 = DIRECTION ( 'NONE',  ( 1.000000000000000000, 0.000000000000000000, 0.000000000000000000 ) ) ;
#296 = VERTEX_POINT ( 'NONE', #549 ) ;
#297 = VECTOR ( 'NONE', #35, 1000.000000000000000 ) ;
#298 = PRODUCT_DEFINITION_FORMATION_WITH_SPECIFIED_SOURCE ( 'ไป', '', #26, .NOT_KNOWN. ) ;
#299 = ADVANCED_FACE ( 'NONE', ( #616 ), #809, .F. ) ;
#300 = DIRECTION ( 'NONE',  ( -0.8131842553008726826, 0.5820063289439085796, 0.000000000000000000 ) ) ;
#301 = CARTESIAN_POINT ( 'NONE',  ( 0.000000000000000000, 65.93513915307799778, 17.17065098636900089 ) ) ;
#302 = CARTESIAN_POINT ( 'NONE',  ( 0.000000000000000000, 65.93513915307799778, 29.69230738724400354 ) ) ;
#303 = ORIENTED_EDGE ( 'NONE', *, *, #512, .F. ) ;
#304 = PLANE ( 'NONE',  #791 ) ;
#305 = LINE ( 'NONE', #784, #744 ) ;
#306 = DIRECTION ( 'NONE',  ( 0.9952413875200499804, -0.09744013837821491331, 0.000000000000000000 ) ) ;
#307 = ORIENTED_EDGE ( 'NONE', *, *, #657, .T. ) ;
#308 = FACE_OUTER_BOUND ( 'NONE', #736, .T. ) ;
#309 = DIRECTION ( 'NONE',  ( 0.000000000000000000, 1.000000000000000000, 0.000000000000000000 ) ) ;
#310 = ORIENTED_EDGE ( 'NONE', *, *, #838, .F. ) ;
#311 = EDGE_CURVE ( 'NONE', #507, #542, #15, .T. ) ;
#312 = STYLED_ITEM ( 'NONE', ( #625 ), #1 ) ;
#313 = CARTESIAN_POINT ( 'NONE',  ( 39.22082137387899792, 65.93513915307799778, 29.69230738724400354 ) ) ;
#314 = VECTOR ( 'NONE', #783, 1000.000000000000000 ) ;
#315 = LINE ( 'NONE', #439, #297 ) ;
#316 = ORIENTED_EDGE ( 'NONE', *, *, #613, .F. ) ;
#317 = SHAPE_DEFINITION_REPRESENTATION ( #697, #253 ) ;
#318 = CARTESIAN_POINT ( 'NONE',  ( 14.64360672161400068, 65.93513915307799778, 4.648364890004000216 ) ) ;
#319 = EDGE_LOOP ( 'NONE', ( #659, #628, #395, #129, #16 ) ) ;
#320 =( NAMED_UNIT ( * ) PLANE_ANGLE_UNIT ( ) SI_UNIT ( $, .RADIAN. ) );
#321 = CARTESIAN_POINT ( 'NONE',  ( 12.82807430987999986, 2.661648348388999885, 17.58992183229599959 ) ) ;
#322 = ORIENTED_EDGE ( 'NONE', *, *, #336, .T. ) ;
#323 = DIRECTION ( 'NONE',  ( 1.000000000000000000, 0.000000000000000000, 0.000000000000000000 ) ) ;
#324 = VECTOR ( 'NONE', #436, 1000.000000000000114 ) ;
#325 = EDGE_CURVE ( 'NONE', #2, #732, #208, .T. ) ;
#326 = EDGE_CURVE ( 'NONE', #727, #173, #342, .T. ) ;
#327 = AXIS2_PLACEMENT_3D ( 'NONE', #673, #141, #547 ) ;
#328 = DIRECTION ( 'NONE',  ( 0.000000000000000000, 0.000000000000000000, 1.000000000000000000 ) ) ;
#329 = ORIENTED_EDGE ( 'NONE', *, *, #95, .T. ) ;
#330 = CARTESIAN_POINT ( 'NONE',  ( 3.322417875372999596, 40.52756181395199775, 3.944211372997000087 ) ) ;
#331 = EDGE_LOOP ( 'NONE', ( #795, #84, #678, #401, #370 ) ) ;
#332 = CARTESIAN_POINT ( 'NONE',  ( 5.964931719209999983, 34.70439285262600038, 0.000000000000000000 ) ) ;
#333 = EDGE_LOOP ( 'NONE', ( #355, #388, #797, #376 ) ) ;
#334 = VERTEX_POINT ( 'NONE', #411 ) ;
#335 = LINE ( 'NONE', #803, #865 ) ;
#336 = EDGE_CURVE ( 'NONE', #269, #199, #825, .T. ) ;
#337 = ORIENTED_EDGE ( 'NONE', *, *, #533, .T. ) ;
#338 = VECTOR ( 'NONE', #277, 1000.000000000000114 ) ;
#339 = ORIENTED_EDGE ( 'NONE', *, *, #272, .F. ) ;
#340 = FACE_OUTER_BOUND ( 'NONE', #830, .T. ) ;
#341 = PLANE ( 'NONE',  #800 ) ;
#342 = LINE ( 'NONE', #281, #197 ) ;
#343 = ORIENTED_EDGE ( 'NONE', *, *, #852, .F. ) ;
#344 = DIRECTION ( 'NONE',  ( -0.4132350585760914408, 0.9106243936792020044, 0.000000000000000000 ) ) ;
#345 = EDGE_CURVE ( 'NONE', #62, #216, #555, .T. ) ;
#346 = SURFACE_STYLE_USAGE ( .BOTH. , #430 ) ;
#347 = DIRECTION ( 'NONE',  ( 0.000000000000000000, 1.000000000000000000, 0.000000000000000000 ) ) ;
#348 = EDGE_LOOP ( 'NONE', ( #778, #12, #316, #343 ) ) ;
#349 = CARTESIAN_POINT ( 'NONE',  ( 36.67396916156999964, 34.23741808402699860, 24.82452811726099995 ) ) ;
#350 = ADVANCED_FACE ( 'NONE', ( #219 ), #487, .F. ) ;
#351 = FILL_AREA_STYLE_COLOUR ( '', #6 ) ;
#352 = PRESENTATION_LAYER_ASSIGNMENT (  '', '', ( #312 ) ) ;
#353 = VECTOR ( 'NONE', #36, 1000.000000000000000 ) ;
#354 = CARTESIAN_POINT ( 'NONE',  ( 14.64360672161400068, 31.21131550865399973, 4.648364890004000216 ) ) ;
#355 = ORIENTED_EDGE ( 'NONE', *, *, #95, .F. ) ;
#356 = EDGE_CURVE ( 'NONE', #416, #814, #21, .T. ) ;
#357 = DIRECTION ( 'NONE',  ( 0.000000000000000000, 0.000000000000000000, 1.000000000000000000 ) ) ;
#358 = SURFACE_STYLE_FILL_AREA ( #285 ) ;
#359 = FACE_BOUND ( 'NONE', #647, .T. ) ;
#360 = ORIENTED_EDGE ( 'NONE', *, *, #198, .F. ) ;
#361 = CARTESIAN_POINT ( 'NONE',  ( 39.22082137387899792, 65.93513915307799778, 0.000000000000000000 ) ) ;
#362 = DIRECTION ( 'NONE',  ( -1.000000000000000000, 0.000000000000000000, 0.000000000000000000 ) ) ;
#363 = CARTESIAN_POINT ( 'NONE',  ( 0.000000000000000000, 0.000000000000000000, 0.000000000000000000 ) ) ;
#364 = ORIENTED_EDGE ( 'NONE', *, *, #533, .F. ) ;
#365 = EDGE_CURVE ( 'NONE', #617, #406, #759, .T. ) ;
#366 = CARTESIAN_POINT ( 'NONE',  ( 1.461540210813999874, 37.92752751431300595, 0.000000000000000000 ) ) ;
#367 = LINE ( 'NONE', #638, #833 ) ;
#368 = EDGE_CURVE ( 'NONE', #843, #234, #695, .T. ) ;
#369 = CARTESIAN_POINT ( 'NONE',  ( 0.000000000000000000, 0.000000000000000000, 23.00003566715199810 ) ) ;
#370 = ORIENTED_EDGE ( 'NONE', *, *, #356, .T. ) ;
#371 = VECTOR ( 'NONE', #427, 1000.000000000000000 ) ;
#372 = VECTOR ( 'NONE', #207, 1000.000000000000000 ) ;
#373 = CARTESIAN_POINT ( 'NONE',  ( 0.3513483814920000392, 38.72210594693100205, 1.365240192593999868 ) ) ;
#374 = DIRECTION ( 'NONE',  ( 0.000000000000000000, 0.000000000000000000, -1.000000000000000000 ) ) ;
#375 = DIRECTION ( 'NONE',  ( -1.000000000000000000, 0.000000000000000000, 0.000000000000000000 ) ) ;
#376 = ORIENTED_EDGE ( 'NONE', *, *, #768, .T. ) ;
#377 = DIRECTION ( 'NONE',  ( -1.000000000000000000, 0.000000000000000000, 0.000000000000000000 ) ) ;
#378 = CARTESIAN_POINT ( 'NONE',  ( 8.649038248559001829, 65.93513915307799778, 15.75835802902899729 ) ) ;
#379 = EDGE_CURVE ( 'NONE', #265, #542, #227, .T. ) ;
#380 = ORIENTED_EDGE ( 'NONE', *, *, #755, .T. ) ;
#381 = DIRECTION ( 'NONE',  ( 0.000000000000000000, 0.000000000000000000, 1.000000000000000000 ) ) ;
#382 = DIRECTION ( 'NONE',  ( 0.000000000000000000, -1.000000000000000000, 0.000000000000000000 ) ) ;
#383 = ORIENTED_EDGE ( 'NONE', *, *, #206, .F. ) ;
#384 = VECTOR ( 'NONE', #97, 1000.000000000000000 ) ;
#385 = APPLICATION_PROTOCOL_DEFINITION ( 'draft international standard', 'automotive_design', 1998, #47 ) ;
#386 = VECTOR ( 'NONE', #860, 1000.000000000000000 ) ;
#387 = PLANE ( 'NONE',  #762 ) ;
#388 = ORIENTED_EDGE ( 'NONE', *, *, #286, .F. ) ;
#389 = CARTESIAN_POINT ( 'NONE',  ( 6.504552461851000444, 40.21601163292799441, 0.000000000000000000 ) ) ;
#390 = LINE ( 'NONE', #726, #734 ) ;
#391 = LINE ( 'NONE', #590, #538 ) ;
#392 = ORIENTED_EDGE ( 'NONE', *, *, #451, .T. ) ;
#393 = EDGE_CURVE ( 'NONE', #121, #632, #787, .T. ) ;
#394 = CARTESIAN_POINT ( 'NONE',  ( 2.185363127116000115, 65.93513915307799778, 9.967457632752999785 ) ) ;
#395 = ORIENTED_EDGE ( 'NONE', *, *, #692, .T. ) ;
#396 = ORIENTED_EDGE ( 'NONE', *, *, #861, .T. ) ;
#397 = VECTOR ( 'NONE', #490, 1000.000000000000114 ) ;
#398 = VECTOR ( 'NONE', #328, 1000.000000000000000 ) ;
#399 = LINE ( 'NONE', #569, #324 ) ;
#400 = ORIENTED_EDGE ( 'NONE', *, *, #325, .F. ) ;
#401 = ORIENTED_EDGE ( 'NONE', *, *, #838, .T. ) ;
#402 = CARTESIAN_POINT ( 'NONE',  ( 39.22082137387899792, 31.21131550865399973, 4.648364890004000216 ) ) ;
#403 = ORIENTED_EDGE ( 'NONE', *, *, #311, .F. ) ;
#404 = ADVANCED_FACE ( 'NONE', ( #531, #440 ), #57, .T. ) ;
#405 = FACE_BOUND ( 'NONE', #464, .T. ) ;
#406 = VERTEX_POINT ( 'NONE', #462 ) ;
#407 = LINE ( 'NONE', #330, #655 ) ;
#408 = VECTOR ( 'NONE', #812, 1000.000000000000000 ) ;
#409 = DIRECTION ( 'NONE',  ( 0.000000000000000000, -0.9961145201218908340, 0.08806737649286038028 ) ) ;
#410 = AXIS2_PLACEMENT_3D ( 'NONE', #423, #357, #493 ) ;
#411 = CARTESIAN_POINT ( 'NONE',  ( 39.22082137387899792, 9.589354793280000067, 8.937491430476999454 ) ) ;
#412 = ORIENTED_EDGE ( 'NONE', *, *, #580, .T. ) ;
#413 = DIRECTION ( 'NONE',  ( 0.000000000000000000, 0.000000000000000000, 1.000000000000000000 ) ) ;
#414 = CARTESIAN_POINT ( 'NONE',  ( 2.782797132732000023, 35.01594303365000371, 3.944211372997000087 ) ) ;
#415 = LINE ( 'NONE', #682, #384 ) ;
#416 = VERTEX_POINT ( 'NONE', #457 ) ;
#417 = EDGE_CURVE ( 'NONE', #847, #617, #399, .T. ) ;
#418 = CARTESIAN_POINT ( 'NONE',  ( 5.964931719209999983, 34.70439285262600038, 0.000000000000000000 ) ) ;
#419 = DIRECTION ( 'NONE',  ( 1.000000000000000000, 0.000000000000000000, 0.000000000000000000 ) ) ;
#420 = EDGE_CURVE ( 'NONE', #152, #863, #641, .T. ) ;
#421 = DIRECTION ( 'NONE',  ( -0.9106243936792020044, -0.4132350585760914408, 0.000000000000000000 ) ) ;
#422 = ORIENTED_EDGE ( 'NONE', *, *, #548, .T. ) ;
#423 = CARTESIAN_POINT ( 'NONE',  ( 39.22082137387899792, 9.589354793280000067, 17.58992183229599959 ) ) ;
#424 = CARTESIAN_POINT ( 'NONE',  ( 6.504552461851000444, 40.21601163292799441, 3.944211372997000087 ) ) ;
#425 = VECTOR ( 'NONE', #30, 1000.000000000000000 ) ;
#426 = VECTOR ( 'NONE', #157, 1000.000000000000000 ) ;
#427 = DIRECTION ( 'NONE',  ( 0.000000000000000000, 0.000000000000000000, 1.000000000000000000 ) ) ;
#428 = ORIENTED_EDGE ( 'NONE', *, *, #672, .T. ) ;
#429 = CARTESIAN_POINT ( 'NONE',  ( 0.000000000000000000, 0.000000000000000000, 29.69230738724400354 ) ) ;
#430 = SURFACE_SIDE_STYLE ('',( #358 ) ) ;
#431 = DIRECTION ( 'NONE',  ( 0.000000000000000000, 0.000000000000000000, 1.000000000000000000 ) ) ;
#432 = ORIENTED_EDGE ( 'NONE', *, *, #368, .T. ) ;
#433 = EDGE_CURVE ( 'NONE', #292, #498, #646, .T. ) ;
#434 = CARTESIAN_POINT ( 'NONE',  ( 36.67396916156999964, 65.93513915307799778, 29.69230738724400354 ) ) ;
#435 = LINE ( 'NONE', #713, #442 ) ;
#436 = DIRECTION ( 'NONE',  ( -0.5820063289439085796, -0.8131842553008725716, 0.000000000000000000 ) ) ;
#437 = ORIENTED_EDGE ( 'NONE', *, *, #451, .F. ) ;
#438 = LINE ( 'NONE', #240, #640 ) ;
#439 = CARTESIAN_POINT ( 'NONE',  ( 39.22082137387899792, 65.93513915307799778, 4.648364890004000216 ) ) ;
#440 = FACE_OUTER_BOUND ( 'NONE', #674, .T. ) ;
#441 = ORIENTED_EDGE ( 'NONE', *, *, #512, .T. ) ;
#442 = VECTOR ( 'NONE', #452, 1000.000000000000000 ) ;
#443 = AXIS2_PLACEMENT_3D ( 'NONE', #172, #124, #599 ) ;
#444 = CARTESIAN_POINT ( 'NONE',  ( 1.280663539342000057, 38.32611593480599765, 2.351413340424999721 ) ) ;
#445 = DIRECTION ( 'NONE',  ( 1.000000000000000000, 0.000000000000000000, 0.000000000000000000 ) ) ;
#446 = ORIENTED_EDGE ( 'NONE', *, *, #42, .F. ) ;
#447 = ADVANCED_FACE ( 'NONE', ( #260 ), #846, .F. ) ;
#448 = CARTESIAN_POINT ( 'NONE',  ( 3.322417875372999596, 40.52756181395199775, 2.730480385188999826 ) ) ;
#449 = FACE_OUTER_BOUND ( 'NONE', #8, .T. ) ;
#450 = ORIENTED_EDGE ( 'NONE', *, *, #261, .T. ) ;
#451 = EDGE_CURVE ( 'NONE', #546, #706, #390, .T. ) ;
#452 = DIRECTION ( 'NONE',  ( 1.000000000000000000, 0.000000000000000000, 0.000000000000000000 ) ) ;
#453 = ORIENTED_EDGE ( 'NONE', *, *, #861, .F. ) ;
#454 = VECTOR ( 'NONE', #294, 1000.000000000000000 ) ;
#455 = CARTESIAN_POINT ( 'NONE',  ( 39.22082137387899792, 0.000000000000000000, 29.69230738724400354 ) ) ;
#456 = VECTOR ( 'NONE', #377, 1000.000000000000000 ) ;
#457 = CARTESIAN_POINT ( 'NONE',  ( 1.461540210813999874, 37.92752751431300595, 2.730480385188999826 ) ) ;
#458 = DIRECTION ( 'NONE',  ( 0.000000000000000000, 0.000000000000000000, 1.000000000000000000 ) ) ;
#459 = EDGE_CURVE ( 'NONE', #799, #2, #730, .T. ) ;
#460 = ORIENTED_EDGE ( 'NONE', *, *, #481, .F. ) ;
#461 =( LENGTH_UNIT ( ) NAMED_UNIT ( * ) SI_UNIT ( .MILLI., .METRE. ) );
#462 = CARTESIAN_POINT ( 'NONE',  ( 5.964931719209999983, 34.70439285262600038, 3.944211372997000087 ) ) ;
#463 = PRODUCT_DEFINITION_CONTEXT ( 'detailed design', #841, 'design' ) ;
#464 = EDGE_LOOP ( 'NONE', ( #108, #804, #717, #364, #466, #437 ) ) ;
#465 = FACE_OUTER_BOUND ( 'NONE', #785, .T. ) ;
#466 = ORIENTED_EDGE ( 'NONE', *, *, #499, .F. ) ;
#467 = AXIS2_PLACEMENT_3D ( 'NONE', #275, #620, #475 ) ;
#468 = VECTOR ( 'NONE', #703, 1000.000000000000000 ) ;
#469 = CARTESIAN_POINT ( 'NONE',  ( 12.82807430987999986, 9.589354793280000067, 8.937491430476999454 ) ) ;
#470 = ORIENTED_EDGE ( 'NONE', *, *, #417, .T. ) ;
#471 = DIRECTION ( 'NONE',  ( -0.9952413875200499804, 0.09744013837821491331, 0.000000000000000000 ) ) ;
#472 = EDGE_LOOP ( 'NONE', ( #470, #161, #22, #182 ) ) ;
#473 = DIRECTION ( 'NONE',  ( 0.09744013837821491331, 0.9952413875200499804, 0.000000000000000000 ) ) ;
#474 = CARTESIAN_POINT ( 'NONE',  ( 2.185363127116000115, 65.93513915307799778, 15.75835802902899729 ) ) ;
#475 = DIRECTION ( 'NONE',  ( 1.000000000000000000, 0.000000000000000000, 0.000000000000000000 ) ) ;
#476 = CARTESIAN_POINT ( 'NONE',  ( 5.964931719209999983, 34.70439285262600038, 0.000000000000000000 ) ) ;
#477 = VECTOR ( 'NONE', #486, 1000.000000000000000 ) ;
#478 = AXIS2_PLACEMENT_3D ( 'NONE', #373, #32, #225 ) ;
#479 = CARTESIAN_POINT ( 'NONE',  ( 14.64360672161400068, 31.21131550865399973, 0.000000000000000000 ) ) ;
#480 = VECTOR ( 'NONE', #137, 1000.000000000000000 ) ;
#481 = EDGE_CURVE ( 'NONE', #296, #265, #774, .T. ) ;
#482 = CARTESIAN_POINT ( 'NONE',  ( 8.649038248559001829, 0.000000000000000000, 15.75835802902899729 ) ) ;
#483 = ORIENTED_EDGE ( 'NONE', *, *, #688, .T. ) ;
#484 = DIRECTION ( 'NONE',  ( 0.000000000000000000, 0.000000000000000000, 1.000000000000000000 ) ) ;
#485 = PRODUCT_RELATED_PRODUCT_CATEGORY ( 'part', '', ( #26 ) ) ;
#486 = DIRECTION ( 'NONE',  ( 0.000000000000000000, -1.000000000000000000, 0.000000000000000000 ) ) ;
#487 = PLANE ( 'NONE',  #133 ) ;
#488 = VERTEX_POINT ( 'NONE', #523 ) ;
#489 = CARTESIAN_POINT ( 'NONE',  ( 0.000000000000000000, 0.000000000000000000, 23.00003566715199810 ) ) ;
#490 = DIRECTION ( 'NONE',  ( 0.7523317731019748544, -0.07365782110412759376, 0.6546536707079789741 ) ) ;
#491 = CARTESIAN_POINT ( 'NONE',  ( 2.782797132732000023, 35.01594303365000371, 0.000000000000000000 ) ) ;
#492 = ORIENTED_EDGE ( 'NONE', *, *, #643, .T. ) ;
#493 = DIRECTION ( 'NONE',  ( 1.000000000000000000, 0.000000000000000000, 0.000000000000000000 ) ) ;
#494 = CARTESIAN_POINT ( 'NONE',  ( 2.185363127116000115, 65.93513915307799778, 15.75835802902899729 ) ) ;
#495 = VECTOR ( 'NONE', #111, 1000.000000000000000 ) ;
#496 =( GEOMETRIC_REPRESENTATION_CONTEXT ( 3 ) GLOBAL_UNCERTAINTY_ASSIGNED_CONTEXT ( ( #649 ) ) GLOBAL_UNIT_ASSIGNED_CONTEXT ( ( #461, #320, #514 ) ) REPRESENTATION_CONTEXT ( 'NONE', 'WORKASPACE' ) );
#497 = FACE_OUTER_BOUND ( 'NONE', #283, .T. ) ;
#498 = VERTEX_POINT ( 'NONE', #770 ) ;
#499 = EDGE_CURVE ( 'NONE', #706, #766, #60, .T. ) ;
#500 = DIRECTION ( 'NONE',  ( 0.000000000000000000, 0.000000000000000000, 1.000000000000000000 ) ) ;
#501 = LINE ( 'NONE', #652, #495 ) ;
#502 = DIRECTION ( 'NONE',  ( 0.000000000000000000, 0.000000000000000000, -1.000000000000000000 ) ) ;
#503 = ORIENTED_EDGE ( 'NONE', *, *, #29, .F. ) ;
#504 = CARTESIAN_POINT ( 'NONE',  ( 39.22082137387899792, 31.21131550865399973, 0.000000000000000000 ) ) ;
#505 = CARTESIAN_POINT ( 'NONE',  ( 36.67396916156999964, 65.93513915307799778, 29.69230738724400354 ) ) ;
#506 = DIRECTION ( 'NONE',  ( 0.000000000000000000, 0.000000000000000000, -1.000000000000000000 ) ) ;
#507 = VERTEX_POINT ( 'NONE', #394 ) ;
#508 = LINE ( 'NONE', #504, #188 ) ;
#509 = FACE_OUTER_BOUND ( 'NONE', #288, .T. ) ;
#510 = ORIENTED_EDGE ( 'NONE', *, *, #420, .F. ) ;
#511 = VECTOR ( 'NONE', #245, 1000.000000000000000 ) ;
#512 = EDGE_CURVE ( 'NONE', #612, #806, #711, .T. ) ;
#513 = VECTOR ( 'NONE', #413, 1000.000000000000000 ) ;
#514 =( NAMED_UNIT ( * ) SI_UNIT ( $, .STERADIAN. ) SOLID_ANGLE_UNIT ( ) );
#515 = ADVANCED_FACE ( 'NONE', ( #465 ), #186, .T. ) ;
#516 = LINE ( 'NONE', #378, #511 ) ;
#517 = ORIENTED_EDGE ( 'NONE', *, *, #192, .F. ) ;
#518 = LINE ( 'NONE', #444, #693 ) ;
#519 = LINE ( 'NONE', #769, #33 ) ;
#520 = EDGE_LOOP ( 'NONE', ( #535, #44, #595, #147, #579, #525 ) ) ;
#521 = PLANE ( 'NONE',  #75 ) ;
#522 = ADVANCED_FACE ( 'NONE', ( #836 ), #868, .F. ) ;
#523 = CARTESIAN_POINT ( 'NONE',  ( 0.000000000000000000, 65.93513915307799778, 0.000000000000000000 ) ) ;
#524 = CARTESIAN_POINT ( 'NONE',  ( 3.322417875372999596, 40.52756181395199775, 3.944211372997000087 ) ) ;
#525 = ORIENTED_EDGE ( 'NONE', *, *, #55, .T. ) ;
#526 = EDGE_CURVE ( 'NONE', #334, #789, #594, .T. ) ;
#527 = VECTOR ( 'NONE', #155, 1000.000000000000114 ) ;
#528 = APPLICATION_PROTOCOL_DEFINITION ( 'draft international standard', 'automotive_design', 1998, #841 ) ;
#529 = CARTESIAN_POINT ( 'NONE',  ( 39.22082137387899792, 9.589354793280000067, 8.937491430476999454 ) ) ;
#530 = EDGE_LOOP ( 'NONE', ( #550, #492, #191, #630, #412, #307 ) ) ;
#531 = FACE_BOUND ( 'NONE', #808, .T. ) ;
#532 = ORIENTED_EDGE ( 'NONE', *, *, #365, .F. ) ;
#533 = EDGE_CURVE ( 'NONE', #766, #847, #258, .T. ) ;
#534 = CARTESIAN_POINT ( 'NONE',  ( 14.64360672161400068, 31.21131550865399973, 0.000000000000000000 ) ) ;
#535 = ORIENTED_EDGE ( 'NONE', *, *, #677, .F. ) ;
#536 = ORIENTED_EDGE ( 'NONE', *, *, #433, .T. ) ;
#537 = EDGE_CURVE ( 'NONE', #789, #37, #168, .T. ) ;
#538 = VECTOR ( 'NONE', #58, 1000.000000000000000 ) ;
#539 = VECTOR ( 'NONE', #381, 1000.000000000000000 ) ;
#540 = DIRECTION ( 'NONE',  ( -0.9952413875200499804, 0.09744013837821491331, 0.000000000000000000 ) ) ;
#541 = ORIENTED_EDGE ( 'NONE', *, *, #823, .F. ) ;
#542 = VERTEX_POINT ( 'NONE', #101 ) ;
#543 = CARTESIAN_POINT ( 'NONE',  ( 2.782797132732000023, 35.01594303365000371, 0.000000000000000000 ) ) ;
#544 = VERTEX_POINT ( 'NONE', #810 ) ;
#545 = LINE ( 'NONE', #748, #609 ) ;
#546 = VERTEX_POINT ( 'NONE', #807 ) ;
#547 = DIRECTION ( 'NONE',  ( 1.000000000000000000, 0.000000000000000000, 0.000000000000000000 ) ) ;
#548 = EDGE_CURVE ( 'NONE', #271, #88, #738, .T. ) ;
#549 = CARTESIAN_POINT ( 'NONE',  ( 8.649038248559001829, 65.93513915307799778, 9.967457632752999785 ) ) ;
#550 = ORIENTED_EDGE ( 'NONE', *, *, #603, .T. ) ;
#551 = LINE ( 'NONE', #817, #34 ) ;
#552 = VECTOR ( 'NONE', #709, 1000.000000000000000 ) ;
#553 = VECTOR ( 'NONE', #107, 1000.000000000000000 ) ;
#554 = LINE ( 'NONE', #615, #61 ) ;
#555 = LINE ( 'NONE', #820, #527 ) ;
#556 = ORIENTED_EDGE ( 'NONE', *, *, #677, .T. ) ;
#557 = DIRECTION ( 'NONE',  ( 0.000000000000000000, -0.9961145201218908340, 0.08806737649286038028 ) ) ;
#558 = CARTESIAN_POINT ( 'NONE',  ( 1.523019876202999834, 40.70373373790400251, 1.164705088519999876 ) ) ;
#559 = LINE ( 'NONE', #743, #584 ) ;
#560 = ORIENTED_EDGE ( 'NONE', *, *, #198, .T. ) ;
#561 = PLANE ( 'NONE',  #63 ) ;
#562 = CARTESIAN_POINT ( 'NONE',  ( 36.67396916156999964, 0.000000000000000000, 23.00003566715199810 ) ) ;
#563 = ADVANCED_FACE ( 'NONE', ( #683 ), #746, .F. ) ;
#564 = DIRECTION ( 'NONE',  ( 0.000000000000000000, 0.000000000000000000, 1.000000000000000000 ) ) ;
#565 = ORIENTED_EDGE ( 'NONE', *, *, #286, .T. ) ;
#566 = PLANE ( 'NONE',  #478 ) ;
#567 = CARTESIAN_POINT ( 'NONE',  ( 8.649038248559001829, 65.93513915307799778, 9.967457632752999785 ) ) ;
#568 = AXIS2_PLACEMENT_3D ( 'NONE', #849, #788, #187 ) ;
#569 = CARTESIAN_POINT ( 'NONE',  ( 7.825809383769999350, 37.30442715226499928, 0.000000000000000000 ) ) ;
#570 = ORIENTED_EDGE ( 'NONE', *, *, #123, .F. ) ;
#571 = PLANE ( 'NONE',  #668 ) ;
#572 = PLANE ( 'NONE',  #117 ) ;
#573 = CARTESIAN_POINT ( 'NONE',  ( 26.93221404774699934, 48.57322733086599698, 4.648364890004000216 ) ) ;
#574 = ORIENTED_EDGE ( 'NONE', *, *, #601, .F. ) ;
#575 = DIRECTION ( 'NONE',  ( 0.000000000000000000, 0.000000000000000000, 1.000000000000000000 ) ) ;
#576 = EDGE_CURVE ( 'NONE', #507, #727, #202, .T. ) ;
#577 = DIRECTION ( 'NONE',  ( 1.000000000000000000, 0.000000000000000000, 0.000000000000000000 ) ) ;
#578 = DIRECTION ( 'NONE',  ( 0.000000000000000000, 1.000000000000000000, 0.000000000000000000 ) ) ;
#579 = ORIENTED_EDGE ( 'NONE', *, *, #158, .T. ) ;
#580 = EDGE_CURVE ( 'NONE', #406, #88, #335, .T. ) ;
#581 = LINE ( 'NONE', #593, #200 ) ;
#582 = CARTESIAN_POINT ( 'NONE',  ( 8.649038248559001829, 65.93513915307799778, 15.75835802902899729 ) ) ;
#583 = VERTEX_POINT ( 'NONE', #675 ) ;
#584 = VECTOR ( 'NONE', #701, 1000.000000000000000 ) ;
#585 = VECTOR ( 'NONE', #484, 1000.000000000000000 ) ;
#586 = CARTESIAN_POINT ( 'NONE',  ( 0.000000000000000000, 0.000000000000000000, 0.000000000000000000 ) ) ;
#587 = DIRECTION ( 'NONE',  ( 0.000000000000000000, 1.000000000000000000, 0.000000000000000000 ) ) ;
#588 = ORIENTED_EDGE ( 'NONE', *, *, #80, .F. ) ;
#589 = CARTESIAN_POINT ( 'NONE',  ( 39.22082137387899792, 2.661648348388999885, 17.58992183229599959 ) ) ;
#590 = CARTESIAN_POINT ( 'NONE',  ( 8.649038248559001829, 65.93513915307799778, 15.75835802902899729 ) ) ;
#591 = ADVANCED_FACE ( 'NONE', ( #153, #405 ), #273, .F. ) ;
#592 = EDGE_LOOP ( 'NONE', ( #184, #775, #360, #403 ) ) ;
#593 = CARTESIAN_POINT ( 'NONE',  ( 39.22082137387899792, 31.21131550865399973, 0.000000000000000000 ) ) ;
#594 = LINE ( 'NONE', #529, #214 ) ;
#595 = ORIENTED_EDGE ( 'NONE', *, *, #831, .F. ) ;
#596 = VECTOR ( 'NONE', #223, 1000.000000000000000 ) ;
#597 = EDGE_LOOP ( 'NONE', ( #59, #51, #560, #811 ) ) ;
#598 = VECTOR ( 'NONE', #844, 1000.000000000000000 ) ;
#599 = DIRECTION ( 'NONE',  ( 0.000000000000000000, 0.000000000000000000, 1.000000000000000000 ) ) ;
#600 = ORIENTED_EDGE ( 'NONE', *, *, #379, .F. ) ;
#601 = EDGE_CURVE ( 'NONE', #224, #334, #798, .T. ) ;
#602 = LINE ( 'NONE', #76, #280 ) ;
#603 = EDGE_CURVE ( 'NONE', #814, #234, #211, .T. ) ;
#604 = VERTEX_POINT ( 'NONE', #402 ) ;
#605 = ADVANCED_FACE ( 'NONE', ( #611 ), #7, .F. ) ;
#606 = DIRECTION ( 'NONE',  ( -0.09744013837821491331, -0.9952413875200499804, 0.000000000000000000 ) ) ;
#607 = ORIENTED_EDGE ( 'NONE', *, *, #627, .T. ) ;
#608 = EDGE_LOOP ( 'NONE', ( #72, #483, #5, #510 ) ) ;
#609 = VECTOR ( 'NONE', #685, 1000.000000000000000 ) ;
#610 = AXIS2_PLACEMENT_3D ( 'NONE', #796, #193, #665 ) ;
#611 = FACE_OUTER_BOUND ( 'NONE', #319, .T. ) ;
#612 = VERTEX_POINT ( 'NONE', #735 ) ;
#613 = EDGE_CURVE ( 'NONE', #714, #189, #267, .T. ) ;
#614 = LINE ( 'NONE', #332, #721 ) ;
#615 = CARTESIAN_POINT ( 'NONE',  ( 39.22082137387899792, 2.661648348388999885, 17.58992183229599959 ) ) ;
#616 = FACE_OUTER_BOUND ( 'NONE', #333, .T. ) ;
#617 = VERTEX_POINT ( 'NONE', #476 ) ;
#618 = CARTESIAN_POINT ( 'NONE',  ( 2.782797132732000023, 35.01594303365000371, 0.000000000000000000 ) ) ;
#619 = ORIENTED_EDGE ( 'NONE', *, *, #768, .F. ) ;
#620 = DIRECTION ( 'NONE',  ( -0.000000000000000000, 1.000000000000000000, 0.000000000000000000 ) ) ;
#621 = ORIENTED_EDGE ( 'NONE', *, *, #282, .T. ) ;
#622 = LINE ( 'NONE', #633, #426 ) ;
#623 = AXIS2_PLACEMENT_3D ( 'NONE', #77, #634, #700 ) ;
#624 = VECTOR ( 'NONE', #557, 1000.000000000000000 ) ;
#625 = PRESENTATION_STYLE_ASSIGNMENT (( #346 ) ) ;
#626 = DIRECTION ( 'NONE',  ( 1.000000000000000000, 0.000000000000000000, 0.000000000000000000 ) ) ;
#627 = EDGE_CURVE ( 'NONE', #617, #271, #614, .T. ) ;
#628 = ORIENTED_EDGE ( 'NONE', *, *, #499, .T. ) ;
#629 = DIRECTION ( 'NONE',  ( -1.000000000000000000, 0.000000000000000000, 0.000000000000000000 ) ) ;
#630 = ORIENTED_EDGE ( 'NONE', *, *, #131, .T. ) ;
#631 = CARTESIAN_POINT ( 'NONE',  ( 36.67396916156999964, 0.000000000000000000, 23.00003566715199810 ) ) ;
#632 = VERTEX_POINT ( 'NONE', #81 ) ;
#633 = CARTESIAN_POINT ( 'NONE',  ( 0.000000000000000000, 0.000000000000000000, 29.69230738724400354 ) ) ;
#634 = DIRECTION ( 'NONE',  ( 0.000000000000000000, 0.000000000000000000, -1.000000000000000000 ) ) ;
#635 = DIRECTION ( 'NONE',  ( 1.000000000000000000, 0.000000000000000000, 0.000000000000000000 ) ) ;
#636 = ORIENTED_EDGE ( 'NONE', *, *, #433, .F. ) ;
#637 = FACE_OUTER_BOUND ( 'NONE', #760, .T. ) ;
#638 = CARTESIAN_POINT ( 'NONE',  ( 36.67396916156999964, 0.000000000000000000, 29.69230738724400354 ) ) ;
#639 = VECTOR ( 'NONE', #431, 1000.000000000000000 ) ;
#640 = VECTOR ( 'NONE', #708, 1000.000000000000000 ) ;
#641 = LINE ( 'NONE', #302, #553 ) ;
#642 = ORIENTED_EDGE ( 'NONE', *, *, #420, .T. ) ;
#643 = EDGE_CURVE ( 'NONE', #234, #62, #407, .T. ) ;
#644 = FACE_OUTER_BOUND ( 'NONE', #259, .T. ) ;
#645 = FACE_BOUND ( 'NONE', #597, .T. ) ;
#646 = LINE ( 'NONE', #321, #18 ) ;
#647 = EDGE_LOOP ( 'NONE', ( #69, #856, #690, #239 ) ) ;
#648 = FACE_OUTER_BOUND ( 'NONE', #220, .T. ) ;
#649 = UNCERTAINTY_MEASURE_WITH_UNIT (LENGTH_MEASURE( 1.000000000000000082E-05 ), #461, 'distance_accuracy_value', 'NONE');
#650 = ORIENTED_EDGE ( 'NONE', *, *, #45, .T. ) ;
#651 = LINE ( 'NONE', #110, #539 ) ;
#652 = CARTESIAN_POINT ( 'NONE',  ( 12.82807430987999986, 2.661648348388999885, 8.937491430476999454 ) ) ;
#653 = ORIENTED_EDGE ( 'NONE', *, *, #123, .T. ) ;
#654 = CLOSED_SHELL ( 'NONE', ( #174, #729, #447, #185, #813, #522, #707, #120, #17, #195, #731, #740, #515, #4, #758, #404, #144, #210, #14, #299, #263, #854, #563, #605, #664, #718, #350, #591 ) ) ;
#655 = VECTOR ( 'NONE', #680, 1000.000000000000000 ) ;
#656 = CARTESIAN_POINT ( 'NONE',  ( 1.461540210813999874, 37.92752751431300595, 3.944211372997000087 ) ) ;
#657 = EDGE_CURVE ( 'NONE', #88, #814, #602, .T. ) ;
#658 = DIRECTION ( 'NONE',  ( 0.000000000000000000, -1.000000000000000000, 0.000000000000000000 ) ) ;
#659 = ORIENTED_EDGE ( 'NONE', *, *, #45, .F. ) ;
#660 = DIRECTION ( 'NONE',  ( 0.000000000000000000, -1.000000000000000000, 0.000000000000000000 ) ) ;
#661 = DIRECTION ( 'NONE',  ( 1.000000000000000000, 0.000000000000000000, 0.000000000000000000 ) ) ;
#662 = LINE ( 'NONE', #723, #667 ) ;
#663 = ORIENTED_EDGE ( 'NONE', *, *, #601, .T. ) ;
#664 = ADVANCED_FACE ( 'NONE', ( #340 ), #9, .F. ) ;
#665 = DIRECTION ( 'NONE',  ( 1.000000000000000000, 0.000000000000000000, 0.000000000000000000 ) ) ;
#666 = ORIENTED_EDGE ( 'NONE', *, *, #681, .F. ) ;
#667 = VECTOR ( 'NONE', #458, 1000.000000000000000 ) ;
#668 = AXIS2_PLACEMENT_3D ( 'NONE', #776, #235, #691 ) ;
#669 = EDGE_CURVE ( 'NONE', #271, #546, #3, .T. ) ;
#670 = CARTESIAN_POINT ( 'NONE',  ( 6.504552461851000444, 40.21601163292799441, 0.000000000000000000 ) ) ;
#671 = EDGE_LOOP ( 'NONE', ( #179, #138, #801, #588 ) ) ;
#672 = EDGE_CURVE ( 'NONE', #199, #246, #551, .T. ) ;
#673 = CARTESIAN_POINT ( 'NONE',  ( 0.000000000000000000, 0.000000000000000000, 0.000000000000000000 ) ) ;
#674 = EDGE_LOOP ( 'NONE', ( #446, #303, #821, #25, #142, #134 ) ) ;
#675 = CARTESIAN_POINT ( 'NONE',  ( 14.64360672161400068, 65.93513915307799778, 0.000000000000000000 ) ) ;
#676 = VERTEX_POINT ( 'NONE', #870 ) ;
#677 = EDGE_CURVE ( 'NONE', #728, #583, #264, .T. ) ;
#678 = ORIENTED_EDGE ( 'NONE', *, *, #669, .T. ) ;
#679 = AXIS2_PLACEMENT_3D ( 'NONE', #586, #792, #323 ) ;
#680 = DIRECTION ( 'NONE',  ( 0.9952413875200499804, -0.09744013837821491331, 0.000000000000000000 ) ) ;
#681 = EDGE_CURVE ( 'NONE', #676, #604, #508, .T. ) ;
#682 = CARTESIAN_POINT ( 'NONE',  ( 39.22082137387899792, 2.661648348388999885, 17.58992183229599959 ) ) ;
#683 = FACE_OUTER_BOUND ( 'NONE', #472, .T. ) ;
#684 = CARTESIAN_POINT ( 'NONE',  ( 39.22082137387899792, 2.661648348388999885, 17.58992183229599959 ) ) ;
#685 = DIRECTION ( 'NONE',  ( 0.000000000000000000, -1.000000000000000000, 0.000000000000000000 ) ) ;
#686 = ORIENTED_EDGE ( 'NONE', *, *, #780, .F. ) ;
#687 = LINE ( 'NONE', #19, #624 ) ;
#688 = EDGE_CURVE ( 'NONE', #732, #806, #622, .T. ) ;
#689 = DIRECTION ( 'NONE',  ( 0.000000000000000000, 0.000000000000000000, 1.000000000000000000 ) ) ;
#690 = ORIENTED_EDGE ( 'NONE', *, *, #66, .F. ) ;
#691 = DIRECTION ( 'NONE',  ( 0.000000000000000000, -1.000000000000000000, 0.000000000000000000 ) ) ;
#692 = EDGE_CURVE ( 'NONE', #766, #62, #761, .T. ) ;
#693 = VECTOR ( 'NONE', #857, 999.9999999999998863 ) ;
#694 = LINE ( 'NONE', #742, #815 ) ;
#695 = LINE ( 'NONE', #291, #48 ) ;
#696 = ORIENTED_EDGE ( 'NONE', *, *, #794, .T. ) ;
#697 = PRODUCT_DEFINITION_SHAPE ( 'NONE', 'NONE',  #698 ) ;
#698 = PRODUCT_DEFINITION ( 'ๆ', '', #298, #463 ) ;
#699 = FACE_OUTER_BOUND ( 'NONE', #749, .T. ) ;
#700 = DIRECTION ( 'NONE',  ( 0.000000000000000000, -1.000000000000000000, 0.000000000000000000 ) ) ;
#701 = DIRECTION ( 'NONE',  ( 1.000000000000000000, 0.000000000000000000, 0.000000000000000000 ) ) ;
#702 = ORIENTED_EDGE ( 'NONE', *, *, #393, .F. ) ;
#703 = DIRECTION ( 'NONE',  ( 0.000000000000000000, 0.000000000000000000, -1.000000000000000000 ) ) ;
#704 = DIRECTION ( 'NONE',  ( 0.000000000000000000, 1.000000000000000000, 0.000000000000000000 ) ) ;
#705 = DIRECTION ( 'NONE',  ( 0.000000000000000000, -1.000000000000000000, 0.000000000000000000 ) ) ;
#706 = VERTEX_POINT ( 'NONE', #91 ) ;
#707 = ADVANCED_FACE ( 'NONE', ( #637 ), #571, .F. ) ;
#708 = DIRECTION ( 'NONE',  ( 0.000000000000000000, 0.000000000000000000, 1.000000000000000000 ) ) ;
#709 = DIRECTION ( 'NONE',  ( -1.000000000000000000, 0.000000000000000000, 0.000000000000000000 ) ) ;
#710 = AXIS2_PLACEMENT_3D ( 'NONE', #270, #741, #68 ) ;
#711 = LINE ( 'NONE', #132, #398 ) ;
#712 = ORIENTED_EDGE ( 'NONE', *, *, #750, .F. ) ;
#713 = CARTESIAN_POINT ( 'NONE',  ( 2.185363127116000115, 0.000000000000000000, 15.75835802902899729 ) ) ;
#714 = VERTEX_POINT ( 'NONE', #27 ) ;
#715 = CARTESIAN_POINT ( 'NONE',  ( 7.825809383769999350, 37.30442715226499928, 0.000000000000000000 ) ) ;
#716 = DIRECTION ( 'NONE',  ( 0.000000000000000000, 0.000000000000000000, 1.000000000000000000 ) ) ;
#717 = ORIENTED_EDGE ( 'NONE', *, *, #417, .F. ) ;
#718 = ADVANCED_FACE ( 'NONE', ( #644 ), #566, .T. ) ;
#719 = FACE_OUTER_BOUND ( 'NONE', #116, .T. ) ;
#720 = ORIENTED_EDGE ( 'NONE', *, *, #780, .T. ) ;
#721 = VECTOR ( 'NONE', #149, 1000.000000000000000 ) ;
#722 = DIRECTION ( 'NONE',  ( 0.000000000000000000, -1.000000000000000000, 0.000000000000000000 ) ) ;
#723 = CARTESIAN_POINT ( 'NONE',  ( 7.825809383769999350, 37.30442715226499928, 0.000000000000000000 ) ) ;
#724 = ORIENTED_EDGE ( 'NONE', *, *, #113, .T. ) ;
#725 = CARTESIAN_POINT ( 'NONE',  ( 39.22082137387899792, 9.589354793280000067, 17.58992183229599959 ) ) ;
#726 = CARTESIAN_POINT ( 'NONE',  ( -0.7588434478300000174, 39.51668437954899815, 0.000000000000000000 ) ) ;
#727 = VERTEX_POINT ( 'NONE', #767 ) ;
#728 = VERTEX_POINT ( 'NONE', #284 ) ;
#729 = ADVANCED_FACE ( 'NONE', ( #827 ), #85, .F. ) ;
#730 = LINE ( 'NONE', #369, #353 ) ;
#731 = ADVANCED_FACE ( 'NONE', ( #699 ), #304, .T. ) ;
#732 = VERTEX_POINT ( 'NONE', #289 ) ;
#733 = AXIS2_PLACEMENT_3D ( 'NONE', #582, #445, #171 ) ;
#734 = VECTOR ( 'NONE', #842, 1000.000000000000114 ) ;
#735 = CARTESIAN_POINT ( 'NONE',  ( 39.22082137387899792, 0.000000000000000000, 0.000000000000000000 ) ) ;
#736 = EDGE_LOOP ( 'NONE', ( #337, #256, #98, #156 ) ) ;
#737 = ORIENTED_EDGE ( 'NONE', *, *, #537, .F. ) ;
#738 = LINE ( 'NONE', #543, #802 ) ;
#739 = EDGE_LOOP ( 'NONE', ( #720, #432, #201, #859 ) ) ;
#740 = ADVANCED_FACE ( 'NONE', ( #163 ), #561, .T. ) ;
#741 = DIRECTION ( 'NONE',  ( 0.8131842553008726826, -0.5820063289439085796, 0.000000000000000000 ) ) ;
#742 = CARTESIAN_POINT ( 'NONE',  ( 0.000000000000000000, 65.93513915307799778, 17.17065098636900089 ) ) ;
#743 = CARTESIAN_POINT ( 'NONE',  ( 0.000000000000000000, 0.000000000000000000, 0.000000000000000000 ) ) ;
#744 = VECTOR ( 'NONE', #835, 1000.000000000000114 ) ;
#745 = AXIS2_PLACEMENT_3D ( 'NONE', #479, #362, #226 ) ;
#746 = PLANE ( 'NONE',  #710 ) ;
#747 = DIRECTION ( 'NONE',  ( 0.000000000000000000, 0.000000000000000000, -1.000000000000000000 ) ) ;
#748 = CARTESIAN_POINT ( 'NONE',  ( 12.82807430987999986, 9.589354793280000067, 17.58992183229599959 ) ) ;
#749 = EDGE_LOOP ( 'NONE', ( #242, #724, #380, #696 ) ) ;
#750 = EDGE_CURVE ( 'NONE', #246, #863, #96, .T. ) ;
#751 = CARTESIAN_POINT ( 'NONE',  ( 2.185363127116000115, 65.93513915307799778, 9.967457632752999785 ) ) ;
#752 = CARTESIAN_POINT ( 'NONE',  ( 2.185363127116000115, 0.000000000000000000, 15.75835802902899729 ) ) ;
#753 = CARTESIAN_POINT ( 'NONE',  ( 2.782797132732000023, 35.01594303365000371, 0.000000000000000000 ) ) ;
#754 = ORIENTED_EDGE ( 'NONE', *, *, #459, .F. ) ;
#755 = EDGE_CURVE ( 'NONE', #152, #632, #822, .T. ) ;
#756 = LINE ( 'NONE', #725, #456 ) ;
#757 = LINE ( 'NONE', #558, #397 ) ;
#758 = ADVANCED_FACE ( 'NONE', ( #221 ), #99, .F. ) ;
#759 = LINE ( 'NONE', #160, #371 ) ;
#760 = EDGE_LOOP ( 'NONE', ( #262, #130, #600, #460 ) ) ;
#761 = LINE ( 'NONE', #832, #50 ) ;
#762 = AXIS2_PLACEMENT_3D ( 'NONE', #53, #237, #773 ) ;
#763 = VECTOR ( 'NONE', #306, 1000.000000000000000 ) ;
#764 =( LENGTH_UNIT ( ) NAMED_UNIT ( * ) SI_UNIT ( .MILLI., .METRE. ) );
#765 = CARTESIAN_POINT ( 'NONE',  ( 8.649038248559001829, 0.000000000000000000, 9.967457632752999785 ) ) ;
#766 = VERTEX_POINT ( 'NONE', #839 ) ;
#767 = CARTESIAN_POINT ( 'NONE',  ( 2.185363127116000115, 65.93513915307799778, 15.75835802902899729 ) ) ;
#768 = EDGE_CURVE ( 'NONE', #544, #799, #438, .T. ) ;
#769 = CARTESIAN_POINT ( 'NONE',  ( 8.649038248559001829, 0.000000000000000000, 15.75835802902899729 ) ) ;
#770 = CARTESIAN_POINT ( 'NONE',  ( 12.82807430987999986, 2.661648348388999885, 8.937491430476999454 ) ) ;
#771 = EDGE_LOOP ( 'NONE', ( #102, #851, #636, #869 ) ) ;
#772 = DIRECTION ( 'NONE',  ( 0.000000000000000000, 0.000000000000000000, 1.000000000000000000 ) ) ;
#773 = DIRECTION ( 'NONE',  ( 0.000000000000000000, -0.9961145201218908340, 0.08806737649286036640 ) ) ;
#774 = LINE ( 'NONE', #128, #816 ) ;
#775 = ORIENTED_EDGE ( 'NONE', *, *, #80, .T. ) ;
#776 = CARTESIAN_POINT ( 'NONE',  ( 8.649038248559001829, 65.93513915307799778, 9.967457632752999785 ) ) ;
#777 = LINE ( 'NONE', #241, #89 ) ;
#778 = ORIENTED_EDGE ( 'NONE', *, *, #526, .T. ) ;
#779 = CARTESIAN_POINT ( 'NONE',  ( 39.22082137387899792, 9.589354793280000067, 8.937491430476999454 ) ) ;
#780 = EDGE_CURVE ( 'NONE', #416, #843, #170, .T. ) ;
#781 = CARTESIAN_POINT ( 'NONE',  ( 39.22082137387899792, 31.21131550865399973, 0.000000000000000000 ) ) ;
#782 = ORIENTED_EDGE ( 'NONE', *, *, #481, .T. ) ;
#783 = DIRECTION ( 'NONE',  ( -1.000000000000000000, 0.000000000000000000, 0.000000000000000000 ) ) ;
#784 = CARTESIAN_POINT ( 'NONE',  ( 7.825809383769999350, 37.30442715226499928, 3.944211372997000087 ) ) ;
#785 = EDGE_LOOP ( 'NONE', ( #428, #209, #450, #322 ) ) ;
#786 = DIRECTION ( 'NONE',  ( 0.9106243936792020044, 0.4132350585760914408, 0.000000000000000000 ) ) ;
#787 = LINE ( 'NONE', #254, #103 ) ;
#788 = DIRECTION ( 'NONE',  ( -0.000000000000000000, 1.000000000000000000, 0.000000000000000000 ) ) ;
#789 = VERTEX_POINT ( 'NONE', #176 ) ;
#790 = AXIS2_PLACEMENT_3D ( 'NONE', #363, #635, #347 ) ;
#791 = AXIS2_PLACEMENT_3D ( 'NONE', #349, #629, #231 ) ;
#792 = DIRECTION ( 'NONE',  ( 0.000000000000000000, 0.000000000000000000, 1.000000000000000000 ) ) ;
#793 = CARTESIAN_POINT ( 'NONE',  ( 39.22082137387899792, 9.589354793280000067, 17.58992183229599959 ) ) ;
#794 = EDGE_CURVE ( 'NONE', #632, #2, #687, .T. ) ;
#795 = ORIENTED_EDGE ( 'NONE', *, *, #657, .F. ) ;
#796 = CARTESIAN_POINT ( 'NONE',  ( 39.22082137387899792, 9.589354793280000067, 8.937491430476999454 ) ) ;
#797 = ORIENTED_EDGE ( 'NONE', *, *, #158, .F. ) ;
#798 = LINE ( 'NONE', #13, #480 ) ;
#799 = VERTEX_POINT ( 'NONE', #489 ) ;
#800 = AXIS2_PLACEMENT_3D ( 'NONE', #494, #154, #419 ) ;
#801 = ORIENTED_EDGE ( 'NONE', *, *, #109, .F. ) ;
#802 = VECTOR ( 'NONE', #196, 1000.000000000000000 ) ;
#803 = CARTESIAN_POINT ( 'NONE',  ( 5.964931719209999983, 34.70439285262600038, 3.944211372997000087 ) ) ;
#804 = ORIENTED_EDGE ( 'NONE', *, *, #627, .F. ) ;
#805 = EDGE_CURVE ( 'NONE', #789, #189, #756, .T. ) ;
#806 = VERTEX_POINT ( 'NONE', #455 ) ;
#807 = CARTESIAN_POINT ( 'NONE',  ( 0.1586566960989999886, 40.79862348257099569, 0.000000000000000000 ) ) ;
#808 = EDGE_LOOP ( 'NONE', ( #503, #737, #54, #574 ) ) ;
#809 = PLANE ( 'NONE',  #790 ) ;
#810 = CARTESIAN_POINT ( 'NONE',  ( 0.000000000000000000, 0.000000000000000000, 0.000000000000000000 ) ) ;
#811 = ORIENTED_EDGE ( 'NONE', *, *, #109, .T. ) ;
#812 = DIRECTION ( 'NONE',  ( 0.000000000000000000, -1.000000000000000000, 0.000000000000000000 ) ) ;
#813 = ADVANCED_FACE ( 'NONE', ( #46 ), #122, .F. ) ;
#814 = VERTEX_POINT ( 'NONE', #656 ) ;
#815 = VECTOR ( 'NONE', #409, 1000.000000000000000 ) ;
#816 = VECTOR ( 'NONE', #40, 1000.000000000000000 ) ;
#817 = CARTESIAN_POINT ( 'NONE',  ( 14.64360672161400068, 65.93513915307799778, 4.648364890004000216 ) ) ;
#818 = LINE ( 'NONE', #28, #372 ) ;
#819 = EDGE_CURVE ( 'NONE', #676, #728, #581, .T. ) ;
#820 = CARTESIAN_POINT ( 'NONE',  ( 6.504552461851000444, 40.21601163292799441, 3.944211372997000087 ) ) ;
#821 = ORIENTED_EDGE ( 'NONE', *, *, #831, .T. ) ;
#822 = LINE ( 'NONE', #434, #468 ) ;
#823 = EDGE_CURVE ( 'NONE', #583, #199, #252, .T. ) ;
#824 = PLANE ( 'NONE',  #623 ) ;
#825 = LINE ( 'NONE', #215, #425 ) ;
#826 = ORIENTED_EDGE ( 'NONE', *, *, #459, .T. ) ;
#827 = FACE_OUTER_BOUND ( 'NONE', #204, .T. ) ;
#828 = FACE_OUTER_BOUND ( 'NONE', #530, .T. ) ;
#829 = CARTESIAN_POINT ( 'NONE',  ( 8.649038248559001829, 0.000000000000000000, 9.967457632752999785 ) ) ;
#830 = EDGE_LOOP ( 'NONE', ( #607, #422, #274, #532 ) ) ;
#831 = EDGE_CURVE ( 'NONE', #612, #676, #247, .T. ) ;
#832 = CARTESIAN_POINT ( 'NONE',  ( 6.504552461851000444, 40.21601163292799441, 0.000000000000000000 ) ) ;
#833 = VECTOR ( 'NONE', #587, 1000.000000000000000 ) ;
#834 = AXIS2_PLACEMENT_3D ( 'NONE', #366, #300, #772 ) ;
#835 = DIRECTION ( 'NONE',  ( -0.5820063289439085796, -0.8131842553008725716, 0.000000000000000000 ) ) ;
#836 = FACE_OUTER_BOUND ( 'NONE', #592, .T. ) ;
#837 = ORIENTED_EDGE ( 'NONE', *, *, #805, .F. ) ;
#838 = EDGE_CURVE ( 'NONE', #546, #416, #518, .T. ) ;
#839 = CARTESIAN_POINT ( 'NONE',  ( 6.504552461851000444, 40.21601163292799441, 0.000000000000000000 ) ) ;
#840 = CARTESIAN_POINT ( 'NONE',  ( 39.22082137387899792, 2.661648348388999885, 8.937491430476999454 ) ) ;
#841 = APPLICATION_CONTEXT ( 'automotive_design' ) ;
#842 = DIRECTION ( 'NONE',  ( 0.5820063289439085796, 0.8131842553008725716, 0.000000000000000000 ) ) ;
#843 = VERTEX_POINT ( 'NONE', #448 ) ;
#844 = DIRECTION ( 'NONE',  ( 0.000000000000000000, 0.000000000000000000, 1.000000000000000000 ) ) ;
#845 = FACE_OUTER_BOUND ( 'NONE', #276, .T. ) ;
#846 = PLANE ( 'NONE',  #610 ) ;
#847 = VERTEX_POINT ( 'NONE', #715 ) ;
#848 = VECTOR ( 'NONE', #704, 1000.000000000000000 ) ;
#849 = CARTESIAN_POINT ( 'NONE',  ( 0.000000000000000000, 0.000000000000000000, 0.000000000000000000 ) ) ;
#850 = VECTOR ( 'NONE', #71, 1000.000000000000114 ) ;
#851 = ORIENTED_EDGE ( 'NONE', *, *, #192, .T. ) ;
#852 = EDGE_CURVE ( 'NONE', #334, #714, #127, .T. ) ;
#853 = CARTESIAN_POINT ( 'NONE',  ( 14.64360672161400068, 65.93513915307799778, 0.000000000000000000 ) ) ;
#854 = ADVANCED_FACE ( 'NONE', ( #308 ), #521, .F. ) ;
#855 = CARTESIAN_POINT ( 'NONE',  ( 12.82807430987999986, 6.125501570834000375, 13.26370663138600037 ) ) ;
#856 = ORIENTED_EDGE ( 'NONE', *, *, #576, .F. ) ;
#857 = DIRECTION ( 'NONE',  ( 0.3123763422869414996, -0.6883673381328709873, 0.6546536707078768336 ) ) ;
#858 = CARTESIAN_POINT ( 'NONE',  ( 7.825809383769999350, 37.30442715226499928, 3.944211372997000087 ) ) ;
#859 = ORIENTED_EDGE ( 'NONE', *, *, #356, .F. ) ;
#860 = DIRECTION ( 'NONE',  ( 0.000000000000000000, 1.000000000000000000, 0.000000000000000000 ) ) ;
#861 = EDGE_CURVE ( 'NONE', #728, #269, #651, .T. ) ;
#862 = DIRECTION ( 'NONE',  ( 0.000000000000000000, 0.000000000000000000, 1.000000000000000000 ) ) ;
#863 = VERTEX_POINT ( 'NONE', #313 ) ;
#864 = AXIS2_PLACEMENT_3D ( 'NONE', #205, #473, #143 ) ;
#865 = VECTOR ( 'NONE', #471, 1000.000000000000000 ) ;
#866 = EDGE_LOOP ( 'NONE', ( #536, #653, #41, #871 ) ) ;
#867 = DIRECTION ( 'NONE',  ( 0.000000000000000000, 0.000000000000000000, 1.000000000000000000 ) ) ;
#868 = PLANE ( 'NONE',  #443 ) ;
#869 = ORIENTED_EDGE ( 'NONE', *, *, #290, .F. ) ;
#870 = CARTESIAN_POINT ( 'NONE',  ( 39.22082137387899792, 31.21131550865399973, 0.000000000000000000 ) ) ;
#871 = ORIENTED_EDGE ( 'NONE', *, *, #272, .T. ) ;
ENDSEC;
END-ISO-10303-21;
