ISO-10303-21;
HEADER;
FILE_DESCRIPTION (( 'STEP AP214' ),
    '1' );
FILE_NAME ('20260414_160844_75.STEP',
    '2026-04-16T14:27:59',
    ( '' ),
    ( '' ),
    'SwSTEP 2.0',
    'SolidWorks 2025',
    '' );
FILE_SCHEMA (( 'AUTOMOTIVE_DESIGN' ));
ENDSEC;

DATA;
#1 = VECTOR ( 'NONE', #358, 1000.000000000000114 ) ;
#2 = ORIENTED_EDGE ( 'NONE', *, *, #912, .T. ) ;
#3 = CARTESIAN_POINT ( 'NONE',  ( 68.38837236950899978, 86.31840413657799616, 81.61324261925099677 ) ) ;
#4 = CONICAL_SURFACE ( 'NONE', #98, 5.906460429409995605, 0.7853981633970000820 ) ;
#5 = PLANE ( 'NONE',  #78 ) ;
#6 = VERTEX_POINT ( 'NONE', #903 ) ;
#7 = CARTESIAN_POINT ( 'NONE',  ( 68.38837236950899978, 43.15920206828899808, 83.61324261925099677 ) ) ;
#8 = DIRECTION ( 'NONE',  ( 0.000000000000000000, 1.000000000000000000, 0.000000000000000000 ) ) ;
#9 = DIRECTION ( 'NONE',  ( 0.000000000000000000, 1.000000000000000000, 0.000000000000000000 ) ) ;
#10 = VERTEX_POINT ( 'NONE', #121 ) ;
#11 = EDGE_CURVE ( 'NONE', #537, #6, #662, .T. ) ;
#12 = DIRECTION ( 'NONE',  ( 1.000000000000000000, 0.000000000000000000, 0.000000000000000000 ) ) ;
#13 = FACE_OUTER_BOUND ( 'NONE', #476, .T. ) ;
#14 = PRESENTATION_STYLE_ASSIGNMENT (( #450 ) ) ;
#15 = VERTEX_POINT ( 'NONE', #53 ) ;
#16 = APPLICATION_CONTEXT ( 'automotive_design' ) ;
#17 = DIRECTION ( 'NONE',  ( 0.000000000000000000, 1.000000000000000000, 0.000000000000000000 ) ) ;
#18 = AXIS2_PLACEMENT_3D ( 'NONE', #984, #386, #720 ) ;
#19 = CARTESIAN_POINT ( 'NONE',  ( 51.25879307045699562, 29.44573533751400163, 50.67831664334700292 ) ) ;
#20 = AXIS2_PLACEMENT_3D ( 'NONE', #996, #404, #17 ) ;
#21 = EDGE_LOOP ( 'NONE', ( #869 ) ) ;
#22 = VECTOR ( 'NONE', #620, 1000.000000000000000 ) ;
#23 = ORIENTED_EDGE ( 'NONE', *, *, #817, .T. ) ;
#24 = ADVANCED_FACE ( 'NONE', ( #721 ), #410, .F. ) ;
#25 = FACE_BOUND ( 'NONE', #802, .T. ) ;
#26 = EDGE_CURVE ( 'NONE', #6, #550, #558, .T. ) ;
#27 = CARTESIAN_POINT ( 'NONE',  ( 0.000000000000000000, 0.000000000000000000, 0.000000000000000000 ) ) ;
#28 = EDGE_LOOP ( 'NONE', ( #292, #313, #497, #465 ) ) ;
#29 = ORIENTED_EDGE ( 'NONE', *, *, #667, .T. ) ;
#30 = CARTESIAN_POINT ( 'NONE',  ( 0.000000000000000000, 0.000000000000000000, 0.000000000000000000 ) ) ;
#31 = CARTESIAN_POINT ( 'NONE',  ( 68.38837236950899978, 81.89001972503999127, 76.51144313766700122 ) ) ;
#32 = EDGE_CURVE ( 'NONE', #774, #547, #990, .T. ) ;
#33 = DIRECTION ( 'NONE',  ( 0.000000000000000000, 1.000000000000000000, 0.000000000000000000 ) ) ;
#34 = FACE_OUTER_BOUND ( 'NONE', #309, .T. ) ;
#35 = ORIENTED_EDGE ( 'NONE', *, *, #702, .F. ) ;
#36 = CARTESIAN_POINT ( 'NONE',  ( 31.61765831142099969, 81.89001972503999127, 75.98101287951699589 ) ) ;
#37 = DIRECTION ( 'NONE',  ( 0.5456017499012749683, 0.8380445874204227596, 0.000000000000000000 ) ) ;
#38 = FACE_OUTER_BOUND ( 'NONE', #923, .T. ) ;
#39 = VECTOR ( 'NONE', #210, 1000.000000000000000 ) ;
#40 = DIRECTION ( 'NONE',  ( 0.000000000000000000, 1.000000000000000000, 0.000000000000000000 ) ) ;
#41 = VECTOR ( 'NONE', #355, 1000.000000000000000 ) ;
#42 = ORIENTED_EDGE ( 'NONE', *, *, #1030, .F. ) ;
#43 =( LENGTH_UNIT ( ) NAMED_UNIT ( * ) SI_UNIT ( .MILLI., .METRE. ) );
#44 = APPLICATION_CONTEXT ( 'automotive_design' ) ;
#45 = CARTESIAN_POINT ( 'NONE',  ( 35.85632332294699864, 53.90441461512300236, 0.000000000000000000 ) ) ;
#46 = LINE ( 'NONE', #322, #1124 ) ;
#47 = CARTESIAN_POINT ( 'NONE',  ( 68.38837236950899978, 89.33628402241100730, 0.000000000000000000 ) ) ;
#48 = EDGE_CURVE ( 'NONE', #128, #91, #740, .T. ) ;
#49 = EDGE_CURVE ( 'NONE', #726, #849, #145, .T. ) ;
#50 = VERTEX_POINT ( 'NONE', #812 ) ;
#51 = DIRECTION ( 'NONE',  ( 1.000000000000000000, 0.000000000000000000, 0.000000000000000000 ) ) ;
#52 = CARTESIAN_POINT ( 'NONE',  ( 68.38837236950899978, 81.18445131406899407, 79.89129567237499430 ) ) ;
#53 = CARTESIAN_POINT ( 'NONE',  ( 51.25879307045699562, 40.69868829552400058, 50.67831664334700292 ) ) ;
#54 = EDGE_LOOP ( 'NONE', ( #703, #503, #439, #352 ) ) ;
#55 = LINE ( 'NONE', #250, #467 ) ;
#56 = CARTESIAN_POINT ( 'NONE',  ( 68.38837236950899978, 78.97465430983901058, 79.61455537943399463 ) ) ;
#57 = CARTESIAN_POINT ( 'NONE',  ( 58.33103832079599727, 73.62557796051800096, 65.62501940186700722 ) ) ;
#58 = CLOSED_SHELL ( 'NONE', ( #1122, #527, #927, #105, #654, #878, #506, #543, #1064, #852, #273, #704, #147, #133, #818, #586, #840, #479, #392, #769, #1008, #892, #201, #607, #24, #792, #782, #76, #798, #783, #70, #461, #735, #905, #965, #64, #356, #1053, #132, #63 ) ) ;
#59 = VECTOR ( 'NONE', #969, 1000.000000000000000 ) ;
#60 = ORIENTED_EDGE ( 'NONE', *, *, #148, .T. ) ;
#61 = VECTOR ( 'NONE', #254, 1000.000000000000000 ) ;
#62 = LINE ( 'NONE', #748, #765 ) ;
#63 = ADVANCED_FACE ( 'NONE', ( #1099, #236, #34, #394 ), #126, .T. ) ;
#64 = ADVANCED_FACE ( 'NONE', ( #766 ), #1045, .F. ) ;
#65 = PLANE ( 'NONE',  #171 ) ;
#66 = FACE_OUTER_BOUND ( 'NONE', #598, .T. ) ;
#67 = VERTEX_POINT ( 'NONE', #338 ) ;
#68 = LINE ( 'NONE', #1101, #975 ) ;
#69 = DIRECTION ( 'NONE',  ( 0.000000000000000000, 0.000000000000000000, 1.000000000000000000 ) ) ;
#70 = ADVANCED_FACE ( 'NONE', ( #597, #163 ), #688, .F. ) ;
#71 = LINE ( 'NONE', #863, #934 ) ;
#72 = ORIENTED_EDGE ( 'NONE', *, *, #907, .T. ) ;
#73 = FACE_OUTER_BOUND ( 'NONE', #1049, .T. ) ;
#74 = LINE ( 'NONE', #158, #361 ) ;
#75 = CARTESIAN_POINT ( 'NONE',  ( 68.38837236950899978, 79.15964413523698795, 81.87872316213899637 ) ) ;
#76 = ADVANCED_FACE ( 'NONE', ( #853 ), #678, .F. ) ;
#77 = EDGE_LOOP ( 'NONE', ( #180, #433, #339, #803 ) ) ;
#78 = AXIS2_PLACEMENT_3D ( 'NONE', #177, #875, #1058 ) ;
#79 = DIRECTION ( 'NONE',  ( 0.000000000000000000, 0.9922493524981916835, 0.1242627155140239581 ) ) ;
#80 = VECTOR ( 'NONE', #588, 1000.000000000000000 ) ;
#81 = ORIENTED_EDGE ( 'NONE', *, *, #427, .T. ) ;
#82 = DIRECTION ( 'NONE',  ( 0.000000000000000000, 0.000000000000000000, 1.000000000000000000 ) ) ;
#83 = DIRECTION ( 'NONE',  ( 0.09272066944659015930, 0.9956921599858944427, 0.000000000000000000 ) ) ;
#84 = ORIENTED_EDGE ( 'NONE', *, *, #48, .T. ) ;
#85 = LINE ( 'NONE', #1136, #343 ) ;
#86 = ORIENTED_EDGE ( 'NONE', *, *, #157, .F. ) ;
#87 = CARTESIAN_POINT ( 'NONE',  ( 68.38837236950899978, 83.95419754721498862, 83.61324261925099677 ) ) ;
#88 = DIRECTION ( 'NONE',  ( 0.7071067811865474617, 0.000000000000000000, 0.7071067811865474617 ) ) ;
#89 = ORIENTED_EDGE ( 'NONE', *, *, #1001, .F. ) ;
#90 = FACE_OUTER_BOUND ( 'NONE', #1118, .T. ) ;
#91 = VERTEX_POINT ( 'NONE', #168 ) ;
#92 = DIRECTION ( 'NONE',  ( 0.000000000000000000, 0.000000000000000000, -1.000000000000000000 ) ) ;
#93 = FILL_AREA_STYLE ('',( #633 ) ) ;
#94 = ORIENTED_EDGE ( 'NONE', *, *, #486, .F. ) ;
#95 = LINE ( 'NONE', #455, #138 ) ;
#96 = PRESENTATION_LAYER_ASSIGNMENT (  '', '', ( #590 ) ) ;
#97 = LINE ( 'NONE', #456, #608 ) ;
#98 = AXIS2_PLACEMENT_3D ( 'NONE', #670, #754, #772 ) ;
#99 = EDGE_CURVE ( 'NONE', #116, #218, #431, .T. ) ;
#100 = SURFACE_SIDE_STYLE ('',( #189 ) ) ;
#101 = ORIENTED_EDGE ( 'NONE', *, *, #993, .F. ) ;
#102 = CARTESIAN_POINT ( 'NONE',  ( 62.13392021609799798, 40.69868829552400058, 51.61611035652699542 ) ) ;
#103 = CARTESIAN_POINT ( 'NONE',  ( 68.38837236950899978, 0.000000000000000000, 0.000000000000000000 ) ) ;
#104 = CARTESIAN_POINT ( 'NONE',  ( 68.38837236950899978, 73.62557796051800096, 61.94149038576699695 ) ) ;
#105 = ADVANCED_FACE ( 'NONE', ( #1134 ), #682, .T. ) ;
#106 = ORIENTED_EDGE ( 'NONE', *, *, #1117, .T. ) ;
#107 = CARTESIAN_POINT ( 'NONE',  ( 63.07171392927700282, 40.69868829552400058, 0.000000000000000000 ) ) ;
#108 = DIRECTION ( 'NONE',  ( 1.000000000000000000, 0.000000000000000000, 0.000000000000000000 ) ) ;
#109 = LINE ( 'NONE', #544, #59 ) ;
#110 = ORIENTED_EDGE ( 'NONE', *, *, #440, .T. ) ;
#111 = ORIENTED_EDGE ( 'NONE', *, *, #941, .T. ) ;
#112 = PLANE ( 'NONE',  #248 ) ;
#113 = DIRECTION ( 'NONE',  ( -1.000000000000000000, 0.000000000000000000, 0.000000000000000000 ) ) ;
#114 = VECTOR ( 'NONE', #777, 1000.000000000000000 ) ;
#115 = ORIENTED_EDGE ( 'NONE', *, *, #755, .F. ) ;
#116 = VERTEX_POINT ( 'NONE', #1121 ) ;
#117 =( NAMED_UNIT ( * ) PLANE_ANGLE_UNIT ( ) SI_UNIT ( $, .RADIAN. ) );
#118 = EDGE_CURVE ( 'NONE', #116, #296, #159, .T. ) ;
#119 = LINE ( 'NONE', #316, #882 ) ;
#120 = CARTESIAN_POINT ( 'NONE',  ( 51.25879307045699562, 29.44573533751400163, 50.67831664334700292 ) ) ;
#121 = CARTESIAN_POINT ( 'NONE',  ( 58.33103832079599727, 73.62557796051800096, 69.22119660748900571 ) ) ;
#122 = ORIENTED_EDGE ( 'NONE', *, *, #628, .F. ) ;
#123 = FACE_OUTER_BOUND ( 'NONE', #1140, .T. ) ;
#124 = CARTESIAN_POINT ( 'NONE',  ( 36.47111726008100163, 60.50645391083799751, 19.12532645251399899 ) ) ;
#125 = PRODUCT ( '20260414_160844_75', '20260414_160844_75', '', ( #723 ) ) ;
#126 = PLANE ( 'NONE',  #857 ) ;
#127 = UNCERTAINTY_MEASURE_WITH_UNIT (LENGTH_MEASURE( 1.000000000000000082E-05 ), #1068, 'distance_accuracy_value', 'NONE');
#128 = VERTEX_POINT ( 'NONE', #57 ) ;
#129 =( NAMED_UNIT ( * ) SI_UNIT ( $, .STERADIAN. ) SOLID_ANGLE_UNIT ( ) );
#130 = PLANE ( 'NONE',  #1033 ) ;
#131 = FACE_OUTER_BOUND ( 'NONE', #985, .T. ) ;
#132 = ADVANCED_FACE ( 'NONE', ( #258 ), #606, .F. ) ;
#133 = ADVANCED_FACE ( 'NONE', ( #330 ), #151, .F. ) ;
#134 = VECTOR ( 'NONE', #405, 1000.000000000000000 ) ;
#135 = ORIENTED_EDGE ( 'NONE', *, *, #1066, .F. ) ;
#136 = VECTOR ( 'NONE', #1138, 1000.000000000000000 ) ;
#137 = ORIENTED_EDGE ( 'NONE', *, *, #308, .F. ) ;
#138 = VECTOR ( 'NONE', #770, 1000.000000000000000 ) ;
#139 = CARTESIAN_POINT ( 'NONE',  ( 52.19658678363600046, 40.69868829552400058, 51.61611035652699542 ) ) ;
#140 = DIRECTION ( 'NONE',  ( 0.000000000000000000, 0.000000000000000000, 1.000000000000000000 ) ) ;
#141 = VERTEX_POINT ( 'NONE', #496 ) ;
#142 = EDGE_LOOP ( 'NONE', ( #268, #967, #372, #175 ) ) ;
#143 = DIRECTION ( 'NONE',  ( 0.000000000000000000, 0.000000000000000000, 1.000000000000000000 ) ) ;
#144 = DIRECTION ( 'NONE',  ( 0.000000000000000000, 0.000000000000000000, 1.000000000000000000 ) ) ;
#145 = LINE ( 'NONE', #213, #915 ) ;
#146 = EDGE_LOOP ( 'NONE', ( #914, #832, #673, #1010 ) ) ;
#147 = ADVANCED_FACE ( 'NONE', ( #66 ), #602, .F. ) ;
#148 = EDGE_CURVE ( 'NONE', #624, #774, #71, .T. ) ;
#149 = CARTESIAN_POINT ( 'NONE',  ( 68.38837236950899978, 83.95419754721498862, 81.61324261925099677 ) ) ;
#150 = FACE_OUTER_BOUND ( 'NONE', #1043, .T. ) ;
#151 = PLANE ( 'NONE',  #801 ) ;
#152 = VECTOR ( 'NONE', #756, 1000.000000000000000 ) ;
#153 = ORIENTED_EDGE ( 'NONE', *, *, #413, .T. ) ;
#154 = VECTOR ( 'NONE', #795, 1000.000000000000000 ) ;
#155 = VECTOR ( 'NONE', #794, 1000.000000000000000 ) ;
#156 = PLANE ( 'NONE',  #211 ) ;
#157 = EDGE_CURVE ( 'NONE', #407, #893, #931, .T. ) ;
#158 = CARTESIAN_POINT ( 'NONE',  ( 17.60489781420900002, 86.31840413657799616, 81.61324261925099677 ) ) ;
#159 = LINE ( 'NONE', #1040, #785 ) ;
#160 = ORIENTED_EDGE ( 'NONE', *, *, #979, .T. ) ;
#161 = CARTESIAN_POINT ( 'NONE',  ( 41.47570843851299571, 73.62557796051800096, 61.94149038576699695 ) ) ;
#162 = CARTESIAN_POINT ( 'NONE',  ( 68.38837236950899978, 81.89001972503999127, 76.51144313766700122 ) ) ;
#163 = FACE_OUTER_BOUND ( 'NONE', #565, .T. ) ;
#164 = VERTEX_POINT ( 'NONE', #351 ) ;
#165 = CARTESIAN_POINT ( 'NONE',  ( 62.13392021609799798, 40.69868829552400058, 51.61611035652699542 ) ) ;
#166 = VERTEX_POINT ( 'NONE', #836 ) ;
#167 = DIRECTION ( 'NONE',  ( -1.000000000000000000, 0.000000000000000000, 0.000000000000000000 ) ) ;
#168 = CARTESIAN_POINT ( 'NONE',  ( 60.33103832079599727, 73.62557796051800096, 65.62501940186700722 ) ) ;
#169 = EDGE_CURVE ( 'NONE', #166, #141, #751, .T. ) ;
#170 = ORIENTED_EDGE ( 'NONE', *, *, #1018, .T. ) ;
#171 = AXIS2_PLACEMENT_3D ( 'NONE', #847, #167, #600 ) ;
#172 = VECTOR ( 'NONE', #889, 1000.000000000000000 ) ;
#173 = LINE ( 'NONE', #709, #249 ) ;
#174 = VECTOR ( 'NONE', #274, 1000.000000000000000 ) ;
#175 = ORIENTED_EDGE ( 'NONE', *, *, #474, .F. ) ;
#176 = PLANE ( 'NONE',  #786 ) ;
#177 = CARTESIAN_POINT ( 'NONE',  ( 41.47570843851299571, 36.81278898025900048, 73.36248432071300840 ) ) ;
#178 = ORIENTED_EDGE ( 'NONE', *, *, #805, .T. ) ;
#179 = CYLINDRICAL_SURFACE ( 'NONE', #575, 0.1675031432540052823 ) ;
#180 = ORIENTED_EDGE ( 'NONE', *, *, #768, .T. ) ;
#181 = LINE ( 'NONE', #370, #729 ) ;
#182 = DIRECTION ( 'NONE',  ( 0.000000000000000000, 1.000000000000000000, 0.000000000000000000 ) ) ;
#183 = EDGE_LOOP ( 'NONE', ( #564 ) ) ;
#184 = EDGE_CURVE ( 'NONE', #532, #407, #438, .T. ) ;
#185 = DIRECTION ( 'NONE',  ( 0.000000000000000000, 0.000000000000000000, -1.000000000000000000 ) ) ;
#186 = EDGE_CURVE ( 'NONE', #278, #532, #334, .T. ) ;
#187 = EDGE_LOOP ( 'NONE', ( #1123 ) ) ;
#188 = FACE_OUTER_BOUND ( 'NONE', #663, .T. ) ;
#189 = SURFACE_STYLE_FILL_AREA ( #93 ) ;
#190 = EDGE_LOOP ( 'NONE', ( #1100, #727, #970, #545 ) ) ;
#191 = LINE ( 'NONE', #102, #804 ) ;
#192 = VECTOR ( 'NONE', #1098, 1000.000000000000000 ) ;
#193 = EDGE_CURVE ( 'NONE', #296, #67, #981, .T. ) ;
#194 = LINE ( 'NONE', #546, #195 ) ;
#195 = VECTOR ( 'NONE', #530, 1000.000000000000000 ) ;
#196 = CARTESIAN_POINT ( 'NONE',  ( 17.60489781420900002, 86.31840413657799616, 83.61324261925099677 ) ) ;
#197 = ORIENTED_EDGE ( 'NONE', *, *, #448, .F. ) ;
#198 = APPLICATION_PROTOCOL_DEFINITION ( 'draft international standard', 'automotive_design', 1998, #16 ) ;
#199 = DIRECTION ( 'NONE',  ( 0.000000000000000000, -1.000000000000000000, 0.000000000000000000 ) ) ;
#200 =( NAMED_UNIT ( * ) PLANE_ANGLE_UNIT ( ) SI_UNIT ( $, .RADIAN. ) );
#201 = ADVANCED_FACE ( 'NONE', ( #270 ), #5, .T. ) ;
#202 = ORIENTED_EDGE ( 'NONE', *, *, #271, .T. ) ;
#203 = DIRECTION ( 'NONE',  ( 0.000000000000000000, 0.000000000000000000, 1.000000000000000000 ) ) ;
#204 = DIRECTION ( 'NONE',  ( 0.000000000000000000, 0.000000000000000000, -1.000000000000000000 ) ) ;
#205 = ORIENTED_EDGE ( 'NONE', *, *, #378, .F. ) ;
#206 = EDGE_CURVE ( 'NONE', #15, #752, #277, .T. ) ;
#207 = ORIENTED_EDGE ( 'NONE', *, *, #755, .T. ) ;
#208 = DIRECTION ( 'NONE',  ( 0.000000000000000000, 0.000000000000000000, -1.000000000000000000 ) ) ;
#209 = AXIS2_PLACEMENT_3D ( 'NONE', #75, #584, #956 ) ;
#210 = DIRECTION ( 'NONE',  ( -1.000000000000000000, 0.000000000000000000, 0.000000000000000000 ) ) ;
#211 = AXIS2_PLACEMENT_3D ( 'NONE', #929, #143, #940 ) ;
#212 = AXIS2_PLACEMENT_3D ( 'NONE', #369, #185, #610 ) ;
#213 = CARTESIAN_POINT ( 'NONE',  ( 0.000000000000000000, 0.000000000000000000, 0.000000000000000000 ) ) ;
#214 = ORIENTED_EDGE ( 'NONE', *, *, #99, .T. ) ;
#215 = PLANE ( 'NONE',  #991 ) ;
#216 = DIRECTION ( 'NONE',  ( 1.000000000000000000, 0.000000000000000000, 0.000000000000000000 ) ) ;
#217 = ORIENTED_EDGE ( 'NONE', *, *, #719, .T. ) ;
#218 = VERTEX_POINT ( 'NONE', #630 ) ;
#219 = DIRECTION ( 'NONE',  ( 0.000000000000000000, 0.000000000000000000, 1.000000000000000000 ) ) ;
#220 = EDGE_CURVE ( 'NONE', #641, #10, #618, .T. ) ;
#221 = FACE_OUTER_BOUND ( 'NONE', #470, .T. ) ;
#222 = EDGE_CURVE ( 'NONE', #547, #141, #444, .T. ) ;
#223 = LINE ( 'NONE', #816, #39 ) ;
#224 = DIRECTION ( 'NONE',  ( 0.000000000000000000, 0.000000000000000000, -1.000000000000000000 ) ) ;
#225 = ORIENTED_EDGE ( 'NONE', *, *, #342, .T. ) ;
#226 = DIRECTION ( 'NONE',  ( -0.9956921599858945537, 0.09272066944659017318, 0.000000000000000000 ) ) ;
#227 = LINE ( 'NONE', #567, #192 ) ;
#228 = AXIS2_PLACEMENT_3D ( 'NONE', #760, #1116, #1128 ) ;
#229 = AXIS2_PLACEMENT_3D ( 'NONE', #997, #572, #563 ) ;
#230 = ORIENTED_EDGE ( 'NONE', *, *, #1088, .T. ) ;
#231 = AXIS2_PLACEMENT_3D ( 'NONE', #842, #1050, #92 ) ;
#232 = ORIENTED_EDGE ( 'NONE', *, *, #708, .F. ) ;
#233 = FACE_OUTER_BOUND ( 'NONE', #335, .T. ) ;
#234 = CARTESIAN_POINT ( 'NONE',  ( 62.60281707268799778, 40.69868829552400058, 51.14721349993700272 ) ) ;
#235 = PRODUCT_DEFINITION ( 'ๆ', '', #326, #999 ) ;
#236 = FACE_BOUND ( 'NONE', #183, .T. ) ;
#237 = ORIENTED_EDGE ( 'NONE', *, *, #32, .F. ) ;
#238 = DIRECTION ( 'NONE',  ( 1.000000000000000000, 0.000000000000000000, 0.000000000000000000 ) ) ;
#239 = DIRECTION ( 'NONE',  ( 1.000000000000000000, 0.000000000000000000, 0.000000000000000000 ) ) ;
#240 = DIRECTION ( 'NONE',  ( 0.000000000000000000, 1.000000000000000000, 0.000000000000000000 ) ) ;
#241 = EDGE_CURVE ( 'NONE', #218, #636, #1011, .T. ) ;
#242 = ORIENTED_EDGE ( 'NONE', *, *, #321, .F. ) ;
#243 = CARTESIAN_POINT ( 'NONE',  ( 57.16525349986699212, 29.44573533751400163, 50.67831664334700292 ) ) ;
#244 = DIRECTION ( 'NONE',  ( -0.7071067811865475727, 0.000000000000000000, -0.7071067811865475727 ) ) ;
#245 = CARTESIAN_POINT ( 'NONE',  ( 17.60489781420900002, 84.12170069046899812, 83.61324261925099677 ) ) ;
#246 = VECTOR ( 'NONE', #9, 1000.000000000000000 ) ;
#247 = ORIENTED_EDGE ( 'NONE', *, *, #11, .F. ) ;
#248 = AXIS2_PLACEMENT_3D ( 'NONE', #906, #637, #1002 ) ;
#249 = VECTOR ( 'NONE', #79, 1000.000000000000114 ) ;
#250 = CARTESIAN_POINT ( 'NONE',  ( 43.22930829989400081, 56.10659152542799433, 0.000000000000000000 ) ) ;
#251 = CARTESIAN_POINT ( 'NONE',  ( 63.07171392927700282, 29.44573533751400163, 50.67831664334700292 ) ) ;
#252 = CARTESIAN_POINT ( 'NONE',  ( 38.65282892967199757, 56.84595301108299736, 19.12532645251399899 ) ) ;
#253 = ORIENTED_EDGE ( 'NONE', *, *, #1079, .F. ) ;
#254 = DIRECTION ( 'NONE',  ( 0.000000000000000000, 1.000000000000000000, 0.000000000000000000 ) ) ;
#255 = EDGE_CURVE ( 'NONE', #585, #550, #525, .T. ) ;
#256 = EDGE_CURVE ( 'NONE', #364, #509, #890, .T. ) ;
#257 = CARTESIAN_POINT ( 'NONE',  ( 63.07171392927700282, 40.69868829552400058, 50.67831664334700292 ) ) ;
#258 = FACE_OUTER_BOUND ( 'NONE', #1020, .T. ) ;
#259 = EDGE_LOOP ( 'NONE', ( #526, #944, #110, #873 ) ) ;
#260 = LINE ( 'NONE', #789, #22 ) ;
#261 = ORIENTED_EDGE ( 'NONE', *, *, #817, .F. ) ;
#262 = LINE ( 'NONE', #463, #454 ) ;
#263 = DIRECTION ( 'NONE',  ( 0.000000000000000000, -1.000000000000000000, 0.000000000000000000 ) ) ;
#264 = ORIENTED_EDGE ( 'NONE', *, *, #118, .F. ) ;
#265 = VECTOR ( 'NONE', #592, 1000.000000000000000 ) ;
#266 = AXIS2_PLACEMENT_3D ( 'NONE', #753, #1032, #758 ) ;
#267 = LINE ( 'NONE', #705, #884 ) ;
#268 = ORIENTED_EDGE ( 'NONE', *, *, #220, .F. ) ;
#269 = CARTESIAN_POINT ( 'NONE',  ( 60.33103832079599727, 73.62557796051800096, 69.22119660748900571 ) ) ;
#270 = FACE_OUTER_BOUND ( 'NONE', #888, .T. ) ;
#271 = EDGE_CURVE ( 'NONE', #50, #457, #1074, .T. ) ;
#272 = ORIENTED_EDGE ( 'NONE', *, *, #378, .T. ) ;
#273 = ADVANCED_FACE ( 'NONE', ( #623 ), #693, .F. ) ;
#274 = DIRECTION ( 'NONE',  ( -1.000000000000000000, 0.000000000000000000, 0.000000000000000000 ) ) ;
#275 = VERTEX_POINT ( 'NONE', #711 ) ;
#276 = CARTESIAN_POINT ( 'NONE',  ( 68.38837236950899978, 0.000000000000000000, 61.94149038576699695 ) ) ;
#277 = LINE ( 'NONE', #1062, #466 ) ;
#278 = VERTEX_POINT ( 'NONE', #196 ) ;
#279 = EDGE_CURVE ( 'NONE', #904, #407, #109, .T. ) ;
#280 = MANIFOLD_SOLID_BREP ( 'Open CASCADE STEP translator 7.5 6[1]', #58 ) ;
#281 = DIRECTION ( 'NONE',  ( 0.000000000000000000, 0.000000000000000000, 1.000000000000000000 ) ) ;
#282 = LINE ( 'NONE', #87, #172 ) ;
#283 = CARTESIAN_POINT ( 'NONE',  ( 60.33103832079599727, 73.62557796051800096, 65.62501940186700722 ) ) ;
#284 = ORIENTED_EDGE ( 'NONE', *, *, #206, .F. ) ;
#285 = DIRECTION ( 'NONE',  ( 1.000000000000000000, 0.000000000000000000, 0.000000000000000000 ) ) ;
#286 = VECTOR ( 'NONE', #639, 1000.000000000000000 ) ;
#287 = CIRCLE ( 'NONE', #18, 4.968666716231001423 ) ;
#288 = EDGE_CURVE ( 'NONE', #559, #349, #1139, .T. ) ;
#289 = DIRECTION ( 'NONE',  ( 0.000000000000000000, 0.000000000000000000, 1.000000000000000000 ) ) ;
#290 = AXIS2_PLACEMENT_3D ( 'NONE', #535, #874, #199 ) ;
#291 = AXIS2_PLACEMENT_3D ( 'NONE', #950, #281, #1042 ) ;
#292 = ORIENTED_EDGE ( 'NONE', *, *, #828, .F. ) ;
#293 = DIRECTION ( 'NONE',  ( -1.000000000000000000, 0.000000000000000000, 0.000000000000000000 ) ) ;
#294 = CARTESIAN_POINT ( 'NONE',  ( 57.16525349986699212, 40.69868829552400058, 0.000000000000000000 ) ) ;
#295 = EDGE_CURVE ( 'NONE', #67, #752, #791, .T. ) ;
#296 = VERTEX_POINT ( 'NONE', #475 ) ;
#297 = ORIENTED_EDGE ( 'NONE', *, *, #941, .F. ) ;
#298 = CARTESIAN_POINT ( 'NONE',  ( 68.38837236950899978, 78.97465430983901058, 79.61455537943399463 ) ) ;
#299 = LINE ( 'NONE', #811, #134 ) ;
#300 = CARTESIAN_POINT ( 'NONE',  ( 68.38837236950899978, 84.12170069046899812, 83.61324261925099677 ) ) ;
#301 = ORIENTED_EDGE ( 'NONE', *, *, #367, .T. ) ;
#302 = DIRECTION ( 'NONE',  ( 0.000000000000000000, 0.000000000000000000, -1.000000000000000000 ) ) ;
#303 = CARTESIAN_POINT ( 'NONE',  ( 68.38837236950899978, 78.97465430983901058, 79.61455537943399463 ) ) ;
#304 = AXIS2_PLACEMENT_3D ( 'NONE', #426, #943, #513 ) ;
#305 = CARTESIAN_POINT ( 'NONE',  ( 41.47570843851299571, 0.000000000000000000, 84.78347825565900564 ) ) ;
#306 = DIRECTION ( 'NONE',  ( 0.000000000000000000, 0.000000000000000000, 1.000000000000000000 ) ) ;
#307 = PRODUCT_RELATED_PRODUCT_CATEGORY ( 'part', '', ( #125 ) ) ;
#308 = EDGE_CURVE ( 'NONE', #774, #166, #725, .T. ) ;
#309 = EDGE_LOOP ( 'NONE', ( #383, #717, #387, #1095, #668, #820 ) ) ;
#310 = SHAPE_DEFINITION_REPRESENTATION ( #1005, #1022 ) ;
#311 = DIRECTION ( 'NONE',  ( 0.000000000000000000, 0.000000000000000000, 1.000000000000000000 ) ) ;
#312 = CARTESIAN_POINT ( 'NONE',  ( 0.000000000000000000, 0.000000000000000000, 0.000000000000000000 ) ) ;
#313 = ORIENTED_EDGE ( 'NONE', *, *, #854, .T. ) ;
#314 = ORIENTED_EDGE ( 'NONE', *, *, #993, .T. ) ;
#315 = EDGE_CURVE ( 'NONE', #91, #657, #391, .T. ) ;
#316 = CARTESIAN_POINT ( 'NONE',  ( 41.47570843851299571, 0.000000000000000000, 84.78347825565900564 ) ) ;
#317 = DIRECTION ( 'NONE',  ( 1.000000000000000000, 0.000000000000000000, 0.000000000000000000 ) ) ;
#318 = ORIENTED_EDGE ( 'NONE', *, *, #672, .T. ) ;
#319 = ORIENTED_EDGE ( 'NONE', *, *, #1137, .F. ) ;
#320 = CARTESIAN_POINT ( 'NONE',  ( 68.38837236950899978, 83.95419754721498862, 83.61324261925099677 ) ) ;
#321 = EDGE_CURVE ( 'NONE', #349, #1104, #223, .T. ) ;
#322 = CARTESIAN_POINT ( 'NONE',  ( 63.16319538971600167, 81.18445131406899407, 79.89129567237499430 ) ) ;
#323 = VECTOR ( 'NONE', #346, 1000.000000000000000 ) ;
#324 = AXIS2_PLACEMENT_3D ( 'NONE', #1073, #987, #632 ) ;
#325 = VERTEX_POINT ( 'NONE', #305 ) ;
#326 = PRODUCT_DEFINITION_FORMATION_WITH_SPECIFIED_SOURCE ( 'ไป', '', #125, .NOT_KNOWN. ) ;
#327 = ORIENTED_EDGE ( 'NONE', *, *, #357, .T. ) ;
#328 = DIRECTION ( 'NONE',  ( -1.000000000000000000, 0.000000000000000000, 0.000000000000000000 ) ) ;
#329 = CARTESIAN_POINT ( 'NONE',  ( 60.33103832079599727, 73.62557796051800096, 65.62501940186700722 ) ) ;
#330 = FACE_OUTER_BOUND ( 'NONE', #619, .T. ) ;
#331 = ORIENTED_EDGE ( 'NONE', *, *, #601, .F. ) ;
#332 = CARTESIAN_POINT ( 'NONE',  ( 41.47570843851299571, 73.62557796051800096, 61.94149038576699695 ) ) ;
#333 = DIRECTION ( 'NONE',  ( 0.000000000000000000, 0.000000000000000000, -1.000000000000000000 ) ) ;
#334 = LINE ( 'NONE', #671, #265 ) ;
#335 = EDGE_LOOP ( 'NONE', ( #837 ) ) ;
#336 = DIRECTION ( 'NONE',  ( 0.000000000000000000, -1.000000000000000000, 0.000000000000000000 ) ) ;
#337 = CARTESIAN_POINT ( 'NONE',  ( 58.33103832079599727, 73.62557796051800096, 69.22119660748900571 ) ) ;
#338 = CARTESIAN_POINT ( 'NONE',  ( 52.19658678363600046, 29.44573533751400163, 51.61611035652699542 ) ) ;
#339 = ORIENTED_EDGE ( 'NONE', *, *, #184, .F. ) ;
#340 = VECTOR ( 'NONE', #459, 1000.000000000000000 ) ;
#341 = EDGE_CURVE ( 'NONE', #726, #445, #655, .T. ) ;
#342 = EDGE_CURVE ( 'NONE', #737, #737, #917, .T. ) ;
#343 = VECTOR ( 'NONE', #441, 1000.000000000000000 ) ;
#344 = CARTESIAN_POINT ( 'NONE',  ( 0.000000000000000000, 0.000000000000000000, 0.000000000000000000 ) ) ;
#345 = CARTESIAN_POINT ( 'NONE',  ( 17.60489781420900002, 84.12170069046899812, 83.61324261925099677 ) ) ;
#346 = DIRECTION ( 'NONE',  ( 0.000000000000000000, 1.000000000000000000, 0.000000000000000000 ) ) ;
#347 = ORIENTED_EDGE ( 'NONE', *, *, #505, .T. ) ;
#348 = CARTESIAN_POINT ( 'NONE',  ( 68.22086922625500449, 84.12170069046899812, 83.61324261925099677 ) ) ;
#349 = VERTEX_POINT ( 'NONE', #646 ) ;
#350 = LINE ( 'NONE', #612, #41 ) ;
#351 = CARTESIAN_POINT ( 'NONE',  ( 68.38837236950899978, 86.31840413657799616, 81.61324261925099677 ) ) ;
#352 = ORIENTED_EDGE ( 'NONE', *, *, #492, .F. ) ;
#353 = CARTESIAN_POINT ( 'NONE',  ( 68.38837236950899978, 86.31840413657799616, 83.61324261925099677 ) ) ;
#354 = ORIENTED_EDGE ( 'NONE', *, *, #595, .T. ) ;
#355 = DIRECTION ( 'NONE',  ( 0.000000000000000000, -1.000000000000000000, 0.000000000000000000 ) ) ;
#356 = ADVANCED_FACE ( 'NONE', ( #38 ), #480, .F. ) ;
#357 = EDGE_CURVE ( 'NONE', #1096, #1096, #519, .T. ) ;
#358 = DIRECTION ( 'NONE',  ( 0.7071067811865474617, 8.659560562349451507E-17, 0.7071067811865474617 ) ) ;
#359 = ORIENTED_EDGE ( 'NONE', *, *, #448, .T. ) ;
#360 = VECTOR ( 'NONE', #240, 1000.000000000000000 ) ;
#361 = VECTOR ( 'NONE', #69, 1000.000000000000000 ) ;
#362 = PLANE ( 'NONE',  #788 ) ;
#363 = VECTOR ( 'NONE', #604, 1000.000000000000000 ) ;
#364 = VERTEX_POINT ( 'NONE', #1009 ) ;
#365 = FACE_OUTER_BOUND ( 'NONE', #1054, .T. ) ;
#366 = DIRECTION ( 'NONE',  ( -1.000000000000000000, 0.000000000000000000, 0.000000000000000000 ) ) ;
#367 = EDGE_CURVE ( 'NONE', #537, #585, #227, .T. ) ;
#368 = EDGE_LOOP ( 'NONE', ( #691, #35, #696, #81 ) ) ;
#369 = CARTESIAN_POINT ( 'NONE',  ( 57.16525349986699212, 40.69868829552400058, 51.61611035652699542 ) ) ;
#370 = CARTESIAN_POINT ( 'NONE',  ( 63.16319538971600167, 78.97465430983901058, 79.61455537943399463 ) ) ;
#371 = CARTESIAN_POINT ( 'NONE',  ( 57.16525349986699212, 40.69868829552400058, 0.000000000000000000 ) ) ;
#372 = ORIENTED_EDGE ( 'NONE', *, *, #48, .F. ) ;
#373 = CARTESIAN_POINT ( 'NONE',  ( 68.38837236950899978, 0.000000000000000000, 0.000000000000000000 ) ) ;
#374 = CARTESIAN_POINT ( 'NONE',  ( 68.38837236950899978, 0.000000000000000000, 61.94149038576699695 ) ) ;
#375 = CARTESIAN_POINT ( 'NONE',  ( 60.33103832079599727, 73.62557796051800096, 69.22119660748900571 ) ) ;
#376 = ORIENTED_EDGE ( 'NONE', *, *, #870, .T. ) ;
#377 = VECTOR ( 'NONE', #913, 1000.000000000000000 ) ;
#378 = EDGE_CURVE ( 'NONE', #141, #916, #908, .T. ) ;
#379 = AXIS2_PLACEMENT_3D ( 'NONE', #294, #714, #478 ) ;
#380 = CARTESIAN_POINT ( 'NONE',  ( 63.07171392927700282, 40.69868829552400058, 50.67831664334700292 ) ) ;
#381 = VECTOR ( 'NONE', #8, 1000.000000000000000 ) ;
#382 =( NAMED_UNIT ( * ) SI_UNIT ( $, .STERADIAN. ) SOLID_ANGLE_UNIT ( ) );
#383 = ORIENTED_EDGE ( 'NONE', *, *, #1018, .F. ) ;
#384 = EDGE_LOOP ( 'NONE', ( #986, #616, #928, #137 ) ) ;
#385 = FACE_OUTER_BOUND ( 'NONE', #21, .T. ) ;
#386 = DIRECTION ( 'NONE',  ( 0.000000000000000000, 0.000000000000000000, -1.000000000000000000 ) ) ;
#387 = ORIENTED_EDGE ( 'NONE', *, *, #26, .T. ) ;
#388 = VERTEX_POINT ( 'NONE', #743 ) ;
#389 = CARTESIAN_POINT ( 'NONE',  ( 57.16525349986699212, 40.69868829552400058, 50.67831664334700292 ) ) ;
#390 = DIRECTION ( 'NONE',  ( 1.000000000000000000, 0.000000000000000000, 0.000000000000000000 ) ) ;
#391 = LINE ( 'NONE', #1084, #881 ) ;
#392 = ADVANCED_FACE ( 'NONE', ( #131 ), #921, .F. ) ;
#393 = EDGE_CURVE ( 'NONE', #560, #560, #974, .T. ) ;
#394 = FACE_BOUND ( 'NONE', #471, .T. ) ;
#395 = ORIENTED_EDGE ( 'NONE', *, *, #959, .T. ) ;
#396 = LINE ( 'NONE', #107, #434 ) ;
#397 = FACE_OUTER_BOUND ( 'NONE', #883, .T. ) ;
#398 = CARTESIAN_POINT ( 'NONE',  ( 31.61765831142099969, 81.89001972503999127, 76.51144313766700122 ) ) ;
#399 = AXIS2_PLACEMENT_3D ( 'NONE', #31, #390, #311 ) ;
#400 = CIRCLE ( 'NONE', #291, 0.1675031432540052823 ) ;
#401 = VERTEX_POINT ( 'NONE', #52 ) ;
#402 = EDGE_CURVE ( 'NONE', #275, #569, #549, .T. ) ;
#403 = ORIENTED_EDGE ( 'NONE', *, *, #542, .T. ) ;
#404 = DIRECTION ( 'NONE',  ( 0.000000000000000000, 0.000000000000000000, 1.000000000000000000 ) ) ;
#405 = DIRECTION ( 'NONE',  ( -1.000000000000000000, 0.000000000000000000, 0.000000000000000000 ) ) ;
#406 = ORIENTED_EDGE ( 'NONE', *, *, #768, .F. ) ;
#407 = VERTEX_POINT ( 'NONE', #490 ) ;
#408 = CARTESIAN_POINT ( 'NONE',  ( 31.61765831142099969, 81.89001972503999127, 76.51144313766700122 ) ) ;
#409 = CARTESIAN_POINT ( 'NONE',  ( 58.33103832079599727, 89.33628402241100730, 69.22119660748900571 ) ) ;
#410 = PLANE ( 'NONE',  #1085 ) ;
#411 = ORIENTED_EDGE ( 'NONE', *, *, #148, .F. ) ;
#412 = DIRECTION ( 'NONE',  ( -1.000000000000000000, 0.000000000000000000, 0.000000000000000000 ) ) ;
#413 = EDGE_CURVE ( 'NONE', #551, #50, #46, .T. ) ;
#414 = LINE ( 'NONE', #665, #918 ) ;
#415 = AXIS2_PLACEMENT_3D ( 'NONE', #1114, #333, #942 ) ;
#416 = AXIS2_PLACEMENT_3D ( 'NONE', #1119, #762, #412 ) ;
#417 = CARTESIAN_POINT ( 'NONE',  ( 17.60489781420900002, 84.12170069046899812, 81.61324261925099677 ) ) ;
#418 = ORIENTED_EDGE ( 'NONE', *, *, #220, .T. ) ;
#419 = DIRECTION ( 'NONE',  ( 0.000000000000000000, 0.000000000000000000, 1.000000000000000000 ) ) ;
#420 = FACE_OUTER_BOUND ( 'NONE', #28, .T. ) ;
#421 = DIRECTION ( 'NONE',  ( -0.9581731992361557371, -0.2861889590210464629, 0.000000000000000000 ) ) ;
#422 = ORIENTED_EDGE ( 'NONE', *, *, #621, .F. ) ;
#423 = LINE ( 'NONE', #594, #61 ) ;
#424 = DIRECTION ( 'NONE',  ( 1.000000000000000000, 0.000000000000000000, 0.000000000000000000 ) ) ;
#425 = EDGE_CURVE ( 'NONE', #611, #388, #299, .T. ) ;
#426 = CARTESIAN_POINT ( 'NONE',  ( 68.38837236950899978, 73.62557796051800096, 61.94149038576699695 ) ) ;
#427 = EDGE_CURVE ( 'NONE', #726, #537, #739, .T. ) ;
#428 = ORIENTED_EDGE ( 'NONE', *, *, #601, .T. ) ;
#429 = CYLINDRICAL_SURFACE ( 'NONE', #266, 0.5304302581499997782 ) ;
#430 = CARTESIAN_POINT ( 'NONE',  ( 63.07171392927700282, 40.69868829552400058, 0.000000000000000000 ) ) ;
#431 = LINE ( 'NONE', #938, #323 ) ;
#432 = VECTOR ( 'NONE', #33, 1000.000000000000000 ) ;
#433 = ORIENTED_EDGE ( 'NONE', *, *, #279, .T. ) ;
#434 = VECTOR ( 'NONE', #814, 1000.000000000000000 ) ;
#435 = CARTESIAN_POINT ( 'NONE',  ( 62.60281707268799778, 29.44573533751400163, 51.14721349993700272 ) ) ;
#436 = VERTEX_POINT ( 'NONE', #409 ) ;
#437 = FACE_BOUND ( 'NONE', #146, .T. ) ;
#438 = LINE ( 'NONE', #245, #152 ) ;
#439 = ORIENTED_EDGE ( 'NONE', *, *, #854, .F. ) ;
#440 = EDGE_CURVE ( 'NONE', #1025, #67, #287, .T. ) ;
#441 = DIRECTION ( 'NONE',  ( -1.000000000000000000, 0.000000000000000000, 0.000000000000000000 ) ) ;
#442 = ORIENTED_EDGE ( 'NONE', *, *, #315, .T. ) ;
#443 = CARTESIAN_POINT ( 'NONE',  ( 36.47111726008100163, 60.50645391083799751, 0.000000000000000000 ) ) ;
#444 = LINE ( 'NONE', #613, #822 ) ;
#445 = VERTEX_POINT ( 'NONE', #557 ) ;
#446 = DIRECTION ( 'NONE',  ( 0.000000000000000000, 1.000000000000000000, 0.000000000000000000 ) ) ;
#447 = ORIENTED_EDGE ( 'NONE', *, *, #295, .F. ) ;
#448 = EDGE_CURVE ( 'NONE', #296, #15, #902, .T. ) ;
#449 = DIRECTION ( 'NONE',  ( 0.000000000000000000, 0.000000000000000000, -1.000000000000000000 ) ) ;
#450 = SURFACE_STYLE_USAGE ( .BOTH. , #100 ) ;
#451 = VECTOR ( 'NONE', #909, 1000.000000000000114 ) ;
#452 = VERTEX_POINT ( 'NONE', #257 ) ;
#453 = COLOUR_RGB ( '',0.7921568627450980005, 0.8196078431372548767, 0.9333333333333333481 ) ;
#454 = VECTOR ( 'NONE', #799, 1000.000000000000000 ) ;
#455 = CARTESIAN_POINT ( 'NONE',  ( 41.47570843851299571, 0.000000000000000000, 61.94149038576699695 ) ) ;
#456 = CARTESIAN_POINT ( 'NONE',  ( 68.38837236950899978, 81.18445131406899407, 79.89129567237499430 ) ) ;
#457 = VERTEX_POINT ( 'NONE', #759 ) ;
#458 = PLANE ( 'NONE',  #731 ) ;
#459 = DIRECTION ( 'NONE',  ( 0.000000000000000000, 1.000000000000000000, 0.000000000000000000 ) ) ;
#460 = EDGE_LOOP ( 'NONE', ( #247, #301, #523, #982 ) ) ;
#461 = ADVANCED_FACE ( 'NONE', ( #437, #947 ), #596, .T. ) ;
#462 = DIRECTION ( 'NONE',  ( 1.000000000000000000, 0.000000000000000000, 0.000000000000000000 ) ) ;
#463 = CARTESIAN_POINT ( 'NONE',  ( 0.000000000000000000, 0.000000000000000000, 84.78347825565900564 ) ) ;
#464 = ORIENTED_EDGE ( 'NONE', *, *, #206, .T. ) ;
#465 = ORIENTED_EDGE ( 'NONE', *, *, #1115, .F. ) ;
#466 = VECTOR ( 'NONE', #88, 1000.000000000000114 ) ;
#467 = VECTOR ( 'NONE', #680, 1000.000000000000000 ) ;
#468 = PLANE ( 'NONE',  #954 ) ;
#469 = DIRECTION ( 'NONE',  ( 0.000000000000000000, -0.08143188802481629573, -0.9966789089835872417 ) ) ;
#470 = EDGE_LOOP ( 'NONE', ( #1046, #1081, #477, #797, #242, #1071 ) ) ;
#471 = EDGE_LOOP ( 'NONE', ( #865, #331, #534, #422 ) ) ;
#472 = CARTESIAN_POINT ( 'NONE',  ( 68.38837236950899978, 81.89001972503999127, 75.98101287951699589 ) ) ;
#473 = DIRECTION ( 'NONE',  ( 0.000000000000000000, 0.1242627155140239720, -0.9922493524981917945 ) ) ;
#474 = EDGE_CURVE ( 'NONE', #10, #128, #681, .T. ) ;
#475 = CARTESIAN_POINT ( 'NONE',  ( 51.25879307045699562, 29.44573533751400163, 50.67831664334700292 ) ) ;
#476 = EDGE_LOOP ( 'NONE', ( #347, #964, #716, #418 ) ) ;
#477 = ORIENTED_EDGE ( 'NONE', *, *, #708, .T. ) ;
#478 = DIRECTION ( 'NONE',  ( -1.000000000000000000, 0.000000000000000000, 0.000000000000000000 ) ) ;
#479 = ADVANCED_FACE ( 'NONE', ( #1110 ), #65, .F. ) ;
#480 = PLANE ( 'NONE',  #229 ) ;
#481 = CARTESIAN_POINT ( 'NONE',  ( 35.85632332294699864, 53.90441461512300236, 0.000000000000000000 ) ) ;
#482 = ORIENTED_EDGE ( 'NONE', *, *, #186, .T. ) ;
#483 = FACE_OUTER_BOUND ( 'NONE', #867, .T. ) ;
#484 = AXIS2_PLACEMENT_3D ( 'NONE', #485, #317, #140 ) ;
#485 = CARTESIAN_POINT ( 'NONE',  ( 68.38837236950899978, 81.89001972503999127, 76.51144313766700122 ) ) ;
#486 = EDGE_CURVE ( 'NONE', #509, #296, #896, .T. ) ;
#487 = ORIENTED_EDGE ( 'NONE', *, *, #634, .T. ) ;
#488 = ORIENTED_EDGE ( 'NONE', *, *, #271, .F. ) ;
#489 = DIRECTION ( 'NONE',  ( -1.000000000000000000, 0.000000000000000000, 0.000000000000000000 ) ) ;
#490 = CARTESIAN_POINT ( 'NONE',  ( 17.60489781420900002, 84.12170069046899812, 81.61324261925099677 ) ) ;
#491 = ORIENTED_EDGE ( 'NONE', *, *, #870, .F. ) ;
#492 = EDGE_CURVE ( 'NONE', #636, #452, #1034, .T. ) ;
#493 = ORIENTED_EDGE ( 'NONE', *, *, #425, .T. ) ;
#494 = FACE_BOUND ( 'NONE', #1135, .T. ) ;
#495 = DIRECTION ( 'NONE',  ( 0.000000000000000000, 0.000000000000000000, -1.000000000000000000 ) ) ;
#496 = CARTESIAN_POINT ( 'NONE',  ( 36.47111726008100163, 60.50645391083799751, 19.12532645251399899 ) ) ;
#497 = ORIENTED_EDGE ( 'NONE', *, *, #1030, .T. ) ;
#498 = FACE_OUTER_BOUND ( 'NONE', #190, .T. ) ;
#499 = PLANE ( 'NONE',  #231 ) ;
#500 = VECTOR ( 'NONE', #796, 1000.000000000000000 ) ;
#501 = AXIS2_PLACEMENT_3D ( 'NONE', #234, #244, #750 ) ;
#502 = CARTESIAN_POINT ( 'NONE',  ( 35.85632332294699864, 53.90441461512300236, 19.12532645251399899 ) ) ;
#503 = ORIENTED_EDGE ( 'NONE', *, *, #256, .T. ) ;
#504 = PLANE ( 'NONE',  #1126 ) ;
#505 = EDGE_CURVE ( 'NONE', #10, #436, #517, .T. ) ;
#506 = ADVANCED_FACE ( 'NONE', ( #860 ), #4, .F. ) ;
#507 = CARTESIAN_POINT ( 'NONE',  ( 0.000000000000000000, 89.33628402241100730, 0.000000000000000000 ) ) ;
#508 = DIRECTION ( 'NONE',  ( 1.000000000000000000, 0.000000000000000000, 0.000000000000000000 ) ) ;
#509 = VERTEX_POINT ( 'NONE', #251 ) ;
#510 = CARTESIAN_POINT ( 'NONE',  ( 68.38837236950899978, 73.62557796051800096, 61.94149038576699695 ) ) ;
#511 = FACE_OUTER_BOUND ( 'NONE', #259, .T. ) ;
#512 = EDGE_CURVE ( 'NONE', #642, #642, #1108, .T. ) ;
#513 = DIRECTION ( 'NONE',  ( 1.000000000000000000, 0.000000000000000000, 0.000000000000000000 ) ) ;
#514 = ORIENTED_EDGE ( 'NONE', *, *, #288, .T. ) ;
#515 = LINE ( 'NONE', #533, #556 ) ;
#516 = EDGE_LOOP ( 'NONE', ( #42, #1075, #761, #1132 ) ) ;
#517 = LINE ( 'NONE', #1017, #644 ) ;
#518 = DIRECTION ( 'NONE',  ( 0.000000000000000000, 0.000000000000000000, -1.000000000000000000 ) ) ;
#519 = CIRCLE ( 'NONE', #676, 1.220298123724997019 ) ;
#520 = AXIS2_PLACEMENT_3D ( 'NONE', #1083, #566, #1092 ) ;
#521 = ORIENTED_EDGE ( 'NONE', *, *, #1088, .F. ) ;
#522 = CARTESIAN_POINT ( 'NONE',  ( 41.47570843851299571, 73.62557796051800096, 84.78347825565900564 ) ) ;
#523 = ORIENTED_EDGE ( 'NONE', *, *, #255, .T. ) ;
#524 = CARTESIAN_POINT ( 'NONE',  ( 0.000000000000000000, 0.000000000000000000, 0.000000000000000000 ) ) ;
#525 = LINE ( 'NONE', #800, #500 ) ;
#526 = ORIENTED_EDGE ( 'NONE', *, *, #1001, .T. ) ;
#527 = ADVANCED_FACE ( 'NONE', ( #511 ), #1039, .T. ) ;
#528 = PLANE ( 'NONE',  #1016 ) ;
#529 = EDGE_LOOP ( 'NONE', ( #202, #647, #153 ) ) ;
#530 = DIRECTION ( 'NONE',  ( -1.000000000000000000, 0.000000000000000000, 0.000000000000000000 ) ) ;
#531 = CARTESIAN_POINT ( 'NONE',  ( 63.07171392927700282, 29.44573533751400163, 0.000000000000000000 ) ) ;
#532 = VERTEX_POINT ( 'NONE', #345 ) ;
#533 = CARTESIAN_POINT ( 'NONE',  ( 68.38837236950899978, 0.000000000000000000, 0.000000000000000000 ) ) ;
#534 = ORIENTED_EDGE ( 'NONE', *, *, #872, .F. ) ;
#535 = CARTESIAN_POINT ( 'NONE',  ( 51.72768992704699542, 29.44573533751400163, 51.14721349993700272 ) ) ;
#536 = DIRECTION ( 'NONE',  ( 0.000000000000000000, 0.000000000000000000, -1.000000000000000000 ) ) ;
#537 = VERTEX_POINT ( 'NONE', #661 ) ;
#538 = MECHANICAL_DESIGN_GEOMETRIC_PRESENTATION_REPRESENTATION (  '', ( #590 ), #728 ) ;
#539 = VECTOR ( 'NONE', #562, 1000.000000000000000 ) ;
#540 = DIRECTION ( 'NONE',  ( 0.000000000000000000, 1.000000000000000000, 0.000000000000000000 ) ) ;
#541 = LINE ( 'NONE', #886, #136 ) ;
#542 = EDGE_CURVE ( 'NONE', #893, #278, #74, .T. ) ;
#543 = ADVANCED_FACE ( 'NONE', ( #420 ), #835, .T. ) ;
#544 = CARTESIAN_POINT ( 'NONE',  ( 68.38837236950899978, 84.12170069046899812, 81.61324261925099677 ) ) ;
#545 = ORIENTED_EDGE ( 'NONE', *, *, #341, .T. ) ;
#546 = CARTESIAN_POINT ( 'NONE',  ( 68.38837236950899978, 79.15964413523698795, 81.87872316213899637 ) ) ;
#547 = VERTEX_POINT ( 'NONE', #583 ) ;
#548 = CARTESIAN_POINT ( 'NONE',  ( 68.38837236950899978, 0.000000000000000000, 0.000000000000000000 ) ) ;
#549 = LINE ( 'NONE', #826, #571 ) ;
#550 = VERTEX_POINT ( 'NONE', #1023 ) ;
#551 = VERTEX_POINT ( 'NONE', #579 ) ;
#552 = DIRECTION ( 'NONE',  ( 0.000000000000000000, 1.000000000000000000, 0.000000000000000000 ) ) ;
#553 = AXIS2_PLACEMENT_3D ( 'NONE', #1103, #988, #113 ) ;
#554 = AXIS2_PLACEMENT_3D ( 'NONE', #344, #830, #51 ) ;
#555 = PLANE ( 'NONE',  #749 ) ;
#556 = VECTOR ( 'NONE', #779, 1000.000000000000000 ) ;
#557 = CARTESIAN_POINT ( 'NONE',  ( 0.000000000000000000, 0.000000000000000000, 84.78347825565900564 ) ) ;
#558 = LINE ( 'NONE', #47, #746 ) ;
#559 = VERTEX_POINT ( 'NONE', #589 ) ;
#560 = VERTEX_POINT ( 'NONE', #1091 ) ;
#561 = EDGE_CURVE ( 'NONE', #91, #641, #925, .T. ) ;
#562 = DIRECTION ( 'NONE',  ( 0.000000000000000000, 1.000000000000000000, 0.000000000000000000 ) ) ;
#563 = DIRECTION ( 'NONE',  ( 1.000000000000000000, 0.000000000000000000, 0.000000000000000000 ) ) ;
#564 = ORIENTED_EDGE ( 'NONE', *, *, #393, .F. ) ;
#565 = EDGE_LOOP ( 'NONE', ( #514, #679, #297, #651 ) ) ;
#566 = DIRECTION ( 'NONE',  ( 0.000000000000000000, 0.000000000000000000, 1.000000000000000000 ) ) ;
#567 = CARTESIAN_POINT ( 'NONE',  ( 0.000000000000000000, 89.33628402241100730, 0.000000000000000000 ) ) ;
#568 = ORIENTED_EDGE ( 'NONE', *, *, #621, .T. ) ;
#569 = VERTEX_POINT ( 'NONE', #56 ) ;
#570 = FACE_OUTER_BOUND ( 'NONE', #855, .T. ) ;
#571 = VECTOR ( 'NONE', #469, 1000.000000000000000 ) ;
#572 = DIRECTION ( 'NONE',  ( -0.000000000000000000, 1.000000000000000000, 0.000000000000000000 ) ) ;
#573 = AXIS2_PLACEMENT_3D ( 'NONE', #243, #935, #238 ) ;
#574 = EDGE_CURVE ( 'NONE', #436, #813, #414, .T. ) ;
#575 = AXIS2_PLACEMENT_3D ( 'NONE', #960, #1060, #285 ) ;
#576 = VERTEX_POINT ( 'NONE', #937 ) ;
#577 = ORIENTED_EDGE ( 'NONE', *, *, #474, .T. ) ;
#578 = CARTESIAN_POINT ( 'NONE',  ( 68.22086922625500449, 84.12170069046899812, 81.61324261925099677 ) ) ;
#579 = CARTESIAN_POINT ( 'NONE',  ( 63.16319538971600167, 81.18445131406899407, 79.89129567237499430 ) ) ;
#580 = ORIENTED_EDGE ( 'NONE', *, *, #1066, .T. ) ;
#581 = ORIENTED_EDGE ( 'NONE', *, *, #402, .F. ) ;
#582 = DIRECTION ( 'NONE',  ( 0.000000000000000000, 1.000000000000000000, 0.000000000000000000 ) ) ;
#583 = CARTESIAN_POINT ( 'NONE',  ( 36.47111726008100163, 60.50645391083799751, 0.000000000000000000 ) ) ;
#584 = DIRECTION ( 'NONE',  ( 0.000000000000000000, -0.9966789089835872417, 0.08143188802481632349 ) ) ;
#585 = VERTEX_POINT ( 'NONE', #930 ) ;
#586 = ADVANCED_FACE ( 'NONE', ( #150 ), #499, .F. ) ;
#587 = EDGE_CURVE ( 'NONE', #813, #657, #617, .T. ) ;
#588 = DIRECTION ( 'NONE',  ( 0.000000000000000000, 0.000000000000000000, 1.000000000000000000 ) ) ;
#589 = CARTESIAN_POINT ( 'NONE',  ( 68.38837236950899978, 73.62557796051800096, 61.94149038576699695 ) ) ;
#590 = STYLED_ITEM ( 'NONE', ( #14 ), #280 ) ;
#591 = VECTOR ( 'NONE', #1097, 1000.000000000000114 ) ;
#592 = DIRECTION ( 'NONE',  ( 0.000000000000000000, -1.000000000000000000, 0.000000000000000000 ) ) ;
#593 = ORIENTED_EDGE ( 'NONE', *, *, #193, .F. ) ;
#594 = CARTESIAN_POINT ( 'NONE',  ( 68.38837236950899978, 84.12170069046899812, 81.61324261925099677 ) ) ;
#595 = EDGE_CURVE ( 'NONE', #611, #559, #629, .T. ) ;
#596 = PLANE ( 'NONE',  #1069 ) ;
#597 = FACE_BOUND ( 'NONE', #142, .T. ) ;
#598 = EDGE_LOOP ( 'NONE', ( #376, #2, #949, #577 ) ) ;
#599 = CARTESIAN_POINT ( 'NONE',  ( 17.60489781420900002, 86.31840413657799616, 81.61324261925099677 ) ) ;
#600 = DIRECTION ( 'NONE',  ( 0.000000000000000000, 0.000000000000000000, 1.000000000000000000 ) ) ;
#601 = EDGE_CURVE ( 'NONE', #164, #576, #968, .T. ) ;
#602 = PLANE ( 'NONE',  #838 ) ;
#603 = ORIENTED_EDGE ( 'NONE', *, *, #907, .F. ) ;
#604 = DIRECTION ( 'NONE',  ( 0.000000000000000000, -1.000000000000000000, 0.000000000000000000 ) ) ;
#605 = CARTESIAN_POINT ( 'NONE',  ( 17.60489781420900002, 85.22005241352299265, 82.61324261925099677 ) ) ;
#606 = PLANE ( 'NONE',  #1106 ) ;
#607 = ADVANCED_FACE ( 'NONE', ( #365 ), #700, .T. ) ;
#608 = VECTOR ( 'NONE', #622, 999.9999999999998863 ) ;
#609 = ORIENTED_EDGE ( 'NONE', *, *, #980, .F. ) ;
#610 = DIRECTION ( 'NONE',  ( -1.000000000000000000, 0.000000000000000000, 0.000000000000000000 ) ) ;
#611 = VERTEX_POINT ( 'NONE', #276 ) ;
#612 = CARTESIAN_POINT ( 'NONE',  ( 41.47570843851299571, 73.62557796051800096, 84.78347825565900564 ) ) ;
#613 = CARTESIAN_POINT ( 'NONE',  ( 36.47111726008100163, 60.50645391083799751, 0.000000000000000000 ) ) ;
#614 = EDGE_LOOP ( 'NONE', ( #994, #106, #122, #1059 ) ) ;
#615 = CARTESIAN_POINT ( 'NONE',  ( 63.07171392927700282, 40.69868829552400058, 0.000000000000000000 ) ) ;
#616 = ORIENTED_EDGE ( 'NONE', *, *, #222, .T. ) ;
#617 = LINE ( 'NONE', #706, #862 ) ;
#618 = LINE ( 'NONE', #375, #1086 ) ;
#619 = EDGE_LOOP ( 'NONE', ( #442, #648, #491, #84 ) ) ;
#620 = DIRECTION ( 'NONE',  ( 0.000000000000000000, 0.000000000000000000, 1.000000000000000000 ) ) ;
#621 = EDGE_CURVE ( 'NONE', #876, #910, #282, .T. ) ;
#622 = DIRECTION ( 'NONE',  ( 0.000000000000000000, -0.7136635186577108270, 0.7004886738107157784 ) ) ;
#623 = FACE_OUTER_BOUND ( 'NONE', #635, .T. ) ;
#624 = VERTEX_POINT ( 'NONE', #1044 ) ;
#625 = AXIS2_PLACEMENT_3D ( 'NONE', #398, #650, #204 ) ;
#626 = CONICAL_SURFACE ( 'NONE', #573, 5.906460429409995605, 0.7853981633970000820 ) ;
#627 = LINE ( 'NONE', #353, #174 ) ;
#628 = EDGE_CURVE ( 'NONE', #457, #551, #181, .T. ) ;
#629 = LINE ( 'NONE', #374, #381 ) ;
#630 = CARTESIAN_POINT ( 'NONE',  ( 51.25879307045699562, 40.69868829552400058, 0.000000000000000000 ) ) ;
#631 = ORIENTED_EDGE ( 'NONE', *, *, #542, .F. ) ;
#632 = DIRECTION ( 'NONE',  ( 1.000000000000000000, 0.000000000000000000, 0.000000000000000000 ) ) ;
#633 = FILL_AREA_STYLE_COLOUR ( '', #453 ) ;
#634 = EDGE_CURVE ( 'NONE', #547, #624, #953, .T. ) ;
#635 = EDGE_LOOP ( 'NONE', ( #318, #1012, #952, #652 ) ) ;
#636 = VERTEX_POINT ( 'NONE', #687 ) ;
#637 = DIRECTION ( 'NONE',  ( 0.000000000000000000, 0.000000000000000000, -1.000000000000000000 ) ) ;
#638 = DIRECTION ( 'NONE',  ( 0.000000000000000000, 0.000000000000000000, 1.000000000000000000 ) ) ;
#639 = DIRECTION ( 'NONE',  ( 1.000000000000000000, 0.000000000000000000, 0.000000000000000000 ) ) ;
#640 = EDGE_CURVE ( 'NONE', #275, #50, #194, .T. ) ;
#641 = VERTEX_POINT ( 'NONE', #1057 ) ;
#642 = VERTEX_POINT ( 'NONE', #472 ) ;
#643 = AXIS2_PLACEMENT_3D ( 'NONE', #283, #701, #182 ) ;
#644 = VECTOR ( 'NONE', #675, 1000.000000000000000 ) ;
#645 = DIRECTION ( 'NONE',  ( -1.000000000000000000, 0.000000000000000000, 0.000000000000000000 ) ) ;
#646 = CARTESIAN_POINT ( 'NONE',  ( 68.38837236950899978, 73.62557796051800096, 84.78347825565900564 ) ) ;
#647 = ORIENTED_EDGE ( 'NONE', *, *, #628, .T. ) ;
#648 = ORIENTED_EDGE ( 'NONE', *, *, #686, .T. ) ;
#649 = LINE ( 'NONE', #380, #591 ) ;
#650 = DIRECTION ( 'NONE',  ( -1.000000000000000000, 0.000000000000000000, 0.000000000000000000 ) ) ;
#651 = ORIENTED_EDGE ( 'NONE', *, *, #959, .F. ) ;
#652 = ORIENTED_EDGE ( 'NONE', *, *, #561, .T. ) ;
#653 = DIRECTION ( 'NONE',  ( 0.000000000000000000, 0.000000000000000000, -1.000000000000000000 ) ) ;
#654 = ADVANCED_FACE ( 'NONE', ( #188 ), #978, .T. ) ;
#655 = LINE ( 'NONE', #312, #713 ) ;
#656 = EDGE_LOOP ( 'NONE', ( #1090, #859, #712, #741 ) ) ;
#657 = VERTEX_POINT ( 'NONE', #879 ) ;
#658 = VECTOR ( 'NONE', #763, 1000.000000000000000 ) ;
#659 = FACE_OUTER_BOUND ( 'NONE', #516, .T. ) ;
#660 = VECTOR ( 'NONE', #144, 1000.000000000000000 ) ;
#661 = CARTESIAN_POINT ( 'NONE',  ( 0.000000000000000000, 89.33628402241100730, 0.000000000000000000 ) ) ;
#662 = LINE ( 'NONE', #1004, #933 ) ;
#663 = EDGE_LOOP ( 'NONE', ( #593, #359, #464, #447 ) ) ;
#664 = DIRECTION ( 'NONE',  ( 1.000000000000000000, 0.000000000000000000, 0.000000000000000000 ) ) ;
#665 = CARTESIAN_POINT ( 'NONE',  ( 30.16551916039799863, 89.33628402241100730, 69.22119660748900571 ) ) ;
#666 = CARTESIAN_POINT ( 'NONE',  ( 58.33103832079599727, 73.62557796051800096, 69.22119660748900571 ) ) ;
#667 = EDGE_CURVE ( 'NONE', #401, #275, #97, .T. ) ;
#668 = ORIENTED_EDGE ( 'NONE', *, *, #288, .F. ) ;
#669 = LINE ( 'NONE', #1037, #823 ) ;
#670 = CARTESIAN_POINT ( 'NONE',  ( 57.16525349986699212, 40.69868829552400058, 50.67831664334700292 ) ) ;
#671 = CARTESIAN_POINT ( 'NONE',  ( 17.60489781420900002, 86.31840413657799616, 83.61324261925099677 ) ) ;
#672 = EDGE_CURVE ( 'NONE', #641, #813, #790, .T. ) ;
#673 = ORIENTED_EDGE ( 'NONE', *, *, #574, .F. ) ;
#674 = LINE ( 'NONE', #510, #1051 ) ;
#675 = DIRECTION ( 'NONE',  ( 0.000000000000000000, 1.000000000000000000, 0.000000000000000000 ) ) ;
#676 = AXIS2_PLACEMENT_3D ( 'NONE', #1003, #216, #1078 ) ;
#677 = AXIS2_PLACEMENT_3D ( 'NONE', #162, #1127, #1133 ) ;
#678 = PLANE ( 'NONE',  #209 ) ;
#679 = ORIENTED_EDGE ( 'NONE', *, *, #321, .T. ) ;
#680 = DIRECTION ( 'NONE',  ( 0.000000000000000000, 0.000000000000000000, 1.000000000000000000 ) ) ;
#681 = LINE ( 'NONE', #337, #658 ) ;
#682 = PLANE ( 'NONE',  #951 ) ;
#683 = EDGE_LOOP ( 'NONE', ( #284, #899, #809, #89 ) ) ;
#684 = LINE ( 'NONE', #435, #843 ) ;
#685 = ORIENTED_EDGE ( 'NONE', *, *, #279, .F. ) ;
#686 = EDGE_CURVE ( 'NONE', #657, #1000, #541, .T. ) ;
#687 = CARTESIAN_POINT ( 'NONE',  ( 63.07171392927700282, 40.69868829552400058, 0.000000000000000000 ) ) ;
#688 = PLANE ( 'NONE',  #304 ) ;
#689 = EDGE_LOOP ( 'NONE', ( #1107, #178, #488, #778 ) ) ;
#690 = DIRECTION ( 'NONE',  ( -1.000000000000000000, 0.000000000000000000, 0.000000000000000000 ) ) ;
#691 = ORIENTED_EDGE ( 'NONE', *, *, #11, .T. ) ;
#692 = DIRECTION ( 'NONE',  ( -2.019167942702000095E-28, 0.000000000000000000, 1.000000000000000000 ) ) ;
#693 = PLANE ( 'NONE',  #643 ) ;
#694 = VECTOR ( 'NONE', #82, 1000.000000000000000 ) ;
#695 = VECTOR ( 'NONE', #328, 1000.000000000000000 ) ;
#696 = ORIENTED_EDGE ( 'NONE', *, *, #49, .F. ) ;
#697 = CIRCLE ( 'NONE', #212, 4.968666716231001423 ) ;
#698 = LINE ( 'NONE', #1055, #155 ) ;
#699 = EDGE_LOOP ( 'NONE', ( #581, #845, #609 ) ) ;
#700 = PLANE ( 'NONE',  #1014 ) ;
#701 = DIRECTION ( 'NONE',  ( 1.000000000000000000, 0.000000000000000000, 0.000000000000000000 ) ) ;
#702 = EDGE_CURVE ( 'NONE', #849, #6, #710, .T. ) ;
#703 = ORIENTED_EDGE ( 'NONE', *, *, #1130, .T. ) ;
#704 = ADVANCED_FACE ( 'NONE', ( #13 ), #176, .F. ) ;
#705 = CARTESIAN_POINT ( 'NONE',  ( 68.38837236950899978, 86.31840413657799616, 81.61324261925099677 ) ) ;
#706 = CARTESIAN_POINT ( 'NONE',  ( 60.33103832079599727, 89.33628402241100730, 32.81250970093400099 ) ) ;
#707 = ORIENTED_EDGE ( 'NONE', *, *, #957, .T. ) ;
#708 = EDGE_CURVE ( 'NONE', #445, #325, #262, .T. ) ;
#709 = CARTESIAN_POINT ( 'NONE',  ( 68.38837236950899978, 78.97465430983901058, 79.61455537943399463 ) ) ;
#710 = LINE ( 'NONE', #103, #340 ) ;
#711 = CARTESIAN_POINT ( 'NONE',  ( 68.38837236950899978, 79.15964413523698795, 81.87872316213899637 ) ) ;
#712 = ORIENTED_EDGE ( 'NONE', *, *, #957, .F. ) ;
#713 = VECTOR ( 'NONE', #638, 1000.000000000000000 ) ;
#714 = DIRECTION ( 'NONE',  ( 0.000000000000000000, 0.000000000000000000, -1.000000000000000000 ) ) ;
#715 = DIRECTION ( 'NONE',  ( 0.000000000000000000, 0.000000000000000000, 1.000000000000000000 ) ) ;
#716 = ORIENTED_EDGE ( 'NONE', *, *, #672, .F. ) ;
#717 = ORIENTED_EDGE ( 'NONE', *, *, #702, .T. ) ;
#718 = FACE_OUTER_BOUND ( 'NONE', #614, .T. ) ;
#719 = EDGE_CURVE ( 'NONE', #1104, #325, #350, .T. ) ;
#720 = DIRECTION ( 'NONE',  ( 1.000000000000000000, 0.000000000000000000, 0.000000000000000000 ) ) ;
#721 = FACE_OUTER_BOUND ( 'NONE', #77, .T. ) ;
#722 = ORIENTED_EDGE ( 'NONE', *, *, #1117, .F. ) ;
#723 = PRODUCT_CONTEXT ( 'NONE', #16, 'mechanical' ) ;
#724 = PLANE ( 'NONE',  #324 ) ;
#725 = LINE ( 'NONE', #732, #747 ) ;
#726 = VERTEX_POINT ( 'NONE', #524 ) ;
#727 = ORIENTED_EDGE ( 'NONE', *, *, #367, .F. ) ;
#728 =( GEOMETRIC_REPRESENTATION_CONTEXT ( 3 ) GLOBAL_UNCERTAINTY_ASSIGNED_CONTEXT ( ( #127 ) ) GLOBAL_UNIT_ASSIGNED_CONTEXT ( ( #1068, #200, #382 ) ) REPRESENTATION_CONTEXT ( 'NONE', 'WORKASPACE' ) );
#729 = VECTOR ( 'NONE', #1061, 1000.000000000000114 ) ;
#730 = DIRECTION ( 'NONE',  ( 0.000000000000000000, 0.000000000000000000, -1.000000000000000000 ) ) ;
#731 = AXIS2_PLACEMENT_3D ( 'NONE', #373, #821, #552 ) ;
#732 = CARTESIAN_POINT ( 'NONE',  ( 35.85632332294699864, 53.90441461512300236, 0.000000000000000000 ) ) ;
#733 = DIRECTION ( 'NONE',  ( 1.000000000000000000, 0.000000000000000000, 0.000000000000000000 ) ) ;
#734 = EDGE_CURVE ( 'NONE', #349, #550, #962, .T. ) ;
#735 = ADVANCED_FACE ( 'NONE', ( #397 ), #112, .F. ) ;
#736 = EDGE_LOOP ( 'NONE', ( #327 ) ) ;
#737 = VERTEX_POINT ( 'NONE', #36 ) ;
#738 = PLANE ( 'NONE',  #520 ) ;
#739 = LINE ( 'NONE', #27, #764 ) ;
#740 = LINE ( 'NONE', #819, #286 ) ;
#741 = ORIENTED_EDGE ( 'NONE', *, *, #1130, .F. ) ;
#742 = DIRECTION ( 'NONE',  ( 0.000000000000000000, 1.000000000000000000, 0.000000000000000000 ) ) ;
#743 = CARTESIAN_POINT ( 'NONE',  ( 41.47570843851299571, 0.000000000000000000, 61.94149038576699695 ) ) ;
#744 = DIRECTION ( 'NONE',  ( 0.000000000000000000, -1.000000000000000000, 0.000000000000000000 ) ) ;
#745 = ORIENTED_EDGE ( 'NONE', *, *, #992, .F. ) ;
#746 = VECTOR ( 'NONE', #306, 1000.000000000000000 ) ;
#747 = VECTOR ( 'NONE', #895, 1000.000000000000000 ) ;
#748 = CARTESIAN_POINT ( 'NONE',  ( 58.33103832079599727, 89.33628402241100730, 34.61059830374399837 ) ) ;
#749 = AXIS2_PLACEMENT_3D ( 'NONE', #298, #473, #645 ) ;
#750 = DIRECTION ( 'NONE',  ( -0.7071067811865475727, 0.000000000000000000, 0.7071067811865475727 ) ) ;
#751 = LINE ( 'NONE', #502, #989 ) ;
#752 = VERTEX_POINT ( 'NONE', #139 ) ;
#753 = CARTESIAN_POINT ( 'NONE',  ( 68.38837236950899978, 81.89001972503999127, 76.51144313766700122 ) ) ;
#754 = DIRECTION ( 'NONE',  ( 0.000000000000000000, 0.000000000000000000, -1.000000000000000000 ) ) ;
#755 = EDGE_CURVE ( 'NONE', #325, #388, #119, .T. ) ;
#756 = DIRECTION ( 'NONE',  ( 0.000000000000000000, 0.000000000000000000, -1.000000000000000000 ) ) ;
#757 = EDGE_LOOP ( 'NONE', ( #771 ) ) ;
#758 = DIRECTION ( 'NONE',  ( 0.000000000000000000, 0.000000000000000000, -1.000000000000000000 ) ) ;
#759 = CARTESIAN_POINT ( 'NONE',  ( 63.16319538971600167, 78.97465430983901058, 79.61455537943399463 ) ) ;
#760 = CARTESIAN_POINT ( 'NONE',  ( 68.38837236950899978, 84.12170069046899812, 81.61324261925099677 ) ) ;
#761 = ORIENTED_EDGE ( 'NONE', *, *, #193, .T. ) ;
#762 = DIRECTION ( 'NONE',  ( 0.000000000000000000, 0.000000000000000000, -1.000000000000000000 ) ) ;
#763 = DIRECTION ( 'NONE',  ( 0.000000000000000000, 0.000000000000000000, -1.000000000000000000 ) ) ;
#764 = VECTOR ( 'NONE', #831, 1000.000000000000000 ) ;
#765 = VECTOR ( 'NONE', #419, 1000.000000000000000 ) ;
#766 = FACE_OUTER_BOUND ( 'NONE', #776, .T. ) ;
#767 = ORIENTED_EDGE ( 'NONE', *, *, #49, .T. ) ;
#768 = EDGE_CURVE ( 'NONE', #1082, #904, #810, .T. ) ;
#769 = ADVANCED_FACE ( 'NONE', ( #123 ), #806, .F. ) ;
#770 = DIRECTION ( 'NONE',  ( 0.000000000000000000, 1.000000000000000000, 0.000000000000000000 ) ) ;
#771 = ORIENTED_EDGE ( 'NONE', *, *, #512, .F. ) ;
#772 = DIRECTION ( 'NONE',  ( -1.000000000000000000, 0.000000000000000000, 0.000000000000000000 ) ) ;
#773 = DIRECTION ( 'NONE',  ( 0.000000000000000000, -1.000000000000000000, 0.000000000000000000 ) ) ;
#774 = VERTEX_POINT ( 'NONE', #45 ) ;
#775 = FACE_OUTER_BOUND ( 'NONE', #757, .T. ) ;
#776 = EDGE_LOOP ( 'NONE', ( #261, #787, #808, #86, #685 ) ) ;
#777 = DIRECTION ( 'NONE',  ( 0.8380445874204227596, -0.5456017499012749683, 0.000000000000000000 ) ) ;
#778 = ORIENTED_EDGE ( 'NONE', *, *, #640, .F. ) ;
#779 = DIRECTION ( 'NONE',  ( 0.000000000000000000, 0.000000000000000000, 1.000000000000000000 ) ) ;
#780 = ORIENTED_EDGE ( 'NONE', *, *, #308, .T. ) ;
#781 = DIRECTION ( 'NONE',  ( 1.000000000000000000, 8.420072271799000660E-29, 2.019167942702000095E-28 ) ) ;
#782 = ADVANCED_FACE ( 'NONE', ( #1077 ), #724, .F. ) ;
#783 = ADVANCED_FACE ( 'NONE', ( #221 ), #738, .T. ) ;
#784 = CARTESIAN_POINT ( 'NONE',  ( 52.19658678363600046, 29.44573533751400163, 51.61611035652699542 ) ) ;
#785 = VECTOR ( 'NONE', #844, 1000.000000000000000 ) ;
#786 = AXIS2_PLACEMENT_3D ( 'NONE', #1067, #289, #108 ) ;
#787 = ORIENTED_EDGE ( 'NONE', *, *, #872, .T. ) ;
#788 = AXIS2_PLACEMENT_3D ( 'NONE', #615, #966, #540 ) ;
#789 = CARTESIAN_POINT ( 'NONE',  ( 51.25879307045699562, 40.69868829552400058, 0.000000000000000000 ) ) ;
#790 = LINE ( 'NONE', #269, #841 ) ;
#791 = LINE ( 'NONE', #784, #246 ) ;
#792 = ADVANCED_FACE ( 'NONE', ( #718 ), #555, .F. ) ;
#793 = ORIENTED_EDGE ( 'NONE', *, *, #256, .F. ) ;
#794 = DIRECTION ( 'NONE',  ( 0.000000000000000000, 1.000000000000000000, 0.000000000000000000 ) ) ;
#795 = DIRECTION ( 'NONE',  ( 0.000000000000000000, 0.000000000000000000, 1.000000000000000000 ) ) ;
#796 = DIRECTION ( 'NONE',  ( 1.000000000000000000, 0.000000000000000000, 0.000000000000000000 ) ) ;
#797 = ORIENTED_EDGE ( 'NONE', *, *, #719, .F. ) ;
#798 = ADVANCED_FACE ( 'NONE', ( #483, #385 ), #911, .F. ) ;
#799 = DIRECTION ( 'NONE',  ( 1.000000000000000000, 0.000000000000000000, 0.000000000000000000 ) ) ;
#800 = CARTESIAN_POINT ( 'NONE',  ( 0.000000000000000000, 89.33628402241100730, 84.78347825565900564 ) ) ;
#801 = AXIS2_PLACEMENT_3D ( 'NONE', #1035, #848, #773 ) ;
#802 = EDGE_LOOP ( 'NONE', ( #225 ) ) ;
#803 = ORIENTED_EDGE ( 'NONE', *, *, #979, .F. ) ;
#804 = VECTOR ( 'NONE', #866, 1000.000000000000000 ) ;
#805 = EDGE_CURVE ( 'NONE', #569, #457, #1007, .T. ) ;
#806 = CYLINDRICAL_SURFACE ( 'NONE', #379, 5.906460429409995605 ) ;
#807 = DIRECTION ( 'NONE',  ( 0.000000000000000000, -0.7136635186577108270, 0.7004886738107157784 ) ) ;
#808 = ORIENTED_EDGE ( 'NONE', *, *, #992, .T. ) ;
#809 = ORIENTED_EDGE ( 'NONE', *, *, #828, .T. ) ;
#810 = LINE ( 'NONE', #919, #1013 ) ;
#811 = CARTESIAN_POINT ( 'NONE',  ( 68.38837236950899978, 0.000000000000000000, 61.94149038576699695 ) ) ;
#812 = CARTESIAN_POINT ( 'NONE',  ( 63.16319538971600167, 79.15964413523698795, 81.87872316213899637 ) ) ;
#813 = VERTEX_POINT ( 'NONE', #901 ) ;
#814 = DIRECTION ( 'NONE',  ( 0.000000000000000000, -1.000000000000000000, 0.000000000000000000 ) ) ;
#815 = CARTESIAN_POINT ( 'NONE',  ( 36.47111726008100163, 60.50645391083799751, 0.000000000000000000 ) ) ;
#816 = CARTESIAN_POINT ( 'NONE',  ( 68.38837236950899978, 73.62557796051800096, 84.78347825565900564 ) ) ;
#817 = EDGE_CURVE ( 'NONE', #910, #904, #1070, .T. ) ;
#818 = ADVANCED_FACE ( 'NONE', ( #570 ), #215, .F. ) ;
#819 = CARTESIAN_POINT ( 'NONE',  ( 58.33103832079599727, 73.62557796051800096, 65.62501940186700722 ) ) ;
#820 = ORIENTED_EDGE ( 'NONE', *, *, #595, .F. ) ;
#821 = DIRECTION ( 'NONE',  ( 1.000000000000000000, 0.000000000000000000, 0.000000000000000000 ) ) ;
#822 = VECTOR ( 'NONE', #887, 1000.000000000000000 ) ;
#823 = VECTOR ( 'NONE', #336, 1000.000000000000000 ) ;
#824 = CARTESIAN_POINT ( 'NONE',  ( 35.85632332294699864, 53.90441461512300236, 0.000000000000000000 ) ) ;
#825 =( GEOMETRIC_REPRESENTATION_CONTEXT ( 3 ) GLOBAL_UNCERTAINTY_ASSIGNED_CONTEXT ( ( #1105 ) ) GLOBAL_UNIT_ASSIGNED_CONTEXT ( ( #43, #117, #129 ) ) REPRESENTATION_CONTEXT ( 'NONE', 'WORKASPACE' ) );
#826 = CARTESIAN_POINT ( 'NONE',  ( 68.38837236950899978, 79.15964413523698795, 81.87872316213899637 ) ) ;
#827 = ORIENTED_EDGE ( 'NONE', *, *, #241, .T. ) ;
#828 = EDGE_CURVE ( 'NONE', #452, #939, #649, .T. ) ;
#829 = ORIENTED_EDGE ( 'NONE', *, *, #1102, .T. ) ;
#830 = DIRECTION ( 'NONE',  ( -0.000000000000000000, 1.000000000000000000, 0.000000000000000000 ) ) ;
#831 = DIRECTION ( 'NONE',  ( 0.000000000000000000, 1.000000000000000000, 0.000000000000000000 ) ) ;
#832 = ORIENTED_EDGE ( 'NONE', *, *, #587, .F. ) ;
#833 = ORIENTED_EDGE ( 'NONE', *, *, #157, .T. ) ;
#834 = LINE ( 'NONE', #1109, #695 ) ;
#835 = PLANE ( 'NONE',  #501 ) ;
#836 = CARTESIAN_POINT ( 'NONE',  ( 35.85632332294699864, 53.90441461512300236, 19.12532645251399899 ) ) ;
#837 = ORIENTED_EDGE ( 'NONE', *, *, #342, .F. ) ;
#838 = AXIS2_PLACEMENT_3D ( 'NONE', #666, #948, #1028 ) ;
#839 = CARTESIAN_POINT ( 'NONE',  ( 0.000000000000000000, 0.000000000000000000, 0.000000000000000000 ) ) ;
#840 = ADVANCED_FACE ( 'NONE', ( #983 ), #130, .F. ) ;
#841 = VECTOR ( 'NONE', #972, 1000.000000000000000 ) ;
#842 = CARTESIAN_POINT ( 'NONE',  ( 43.22930829989400081, 56.10659152542799433, 0.000000000000000000 ) ) ;
#843 = VECTOR ( 'NONE', #1065, 1000.000000000000114 ) ;
#844 = DIRECTION ( 'NONE',  ( 0.000000000000000000, 0.000000000000000000, 1.000000000000000000 ) ) ;
#845 = ORIENTED_EDGE ( 'NONE', *, *, #667, .F. ) ;
#846 = FACE_OUTER_BOUND ( 'NONE', #187, .T. ) ;
#847 = CARTESIAN_POINT ( 'NONE',  ( 51.25879307045699562, 29.44573533751400163, 0.000000000000000000 ) ) ;
#848 = DIRECTION ( 'NONE',  ( 0.000000000000000000, 0.000000000000000000, -1.000000000000000000 ) ) ;
#849 = VERTEX_POINT ( 'NONE', #548 ) ;
#850 = DIRECTION ( 'NONE',  ( -1.000000000000000000, 0.000000000000000000, 0.000000000000000000 ) ) ;
#851 = DIRECTION ( 'NONE',  ( 0.000000000000000000, -1.000000000000000000, 0.000000000000000000 ) ) ;
#852 = ADVANCED_FACE ( 'NONE', ( #25, #894 ), #468, .T. ) ;
#853 = FACE_OUTER_BOUND ( 'NONE', #689, .T. ) ;
#854 = EDGE_CURVE ( 'NONE', #452, #509, #669, .T. ) ;
#855 = EDGE_LOOP ( 'NONE', ( #487, #72, #205, #1076 ) ) ;
#856 = FACE_OUTER_BOUND ( 'NONE', #529, .T. ) ;
#857 = AXIS2_PLACEMENT_3D ( 'NONE', #1087, #733, #40 ) ;
#858 = VECTOR ( 'NONE', #880, 1000.000000000000000 ) ;
#859 = ORIENTED_EDGE ( 'NONE', *, *, #99, .F. ) ;
#860 = FACE_OUTER_BOUND ( 'NONE', #683, .T. ) ;
#861 = VECTOR ( 'NONE', #715, 1000.000000000000000 ) ;
#862 = VECTOR ( 'NONE', #449, 1000.000000000000000 ) ;
#863 = CARTESIAN_POINT ( 'NONE',  ( 43.22930829989400081, 56.10659152542799433, 0.000000000000000000 ) ) ;
#864 = AXIS2_PLACEMENT_3D ( 'NONE', #30, #219, #462 ) ;
#865 = ORIENTED_EDGE ( 'NONE', *, *, #1102, .F. ) ;
#866 = DIRECTION ( 'NONE',  ( 0.000000000000000000, -1.000000000000000000, 0.000000000000000000 ) ) ;
#867 = EDGE_LOOP ( 'NONE', ( #1056 ) ) ;
#868 = CARTESIAN_POINT ( 'NONE',  ( 68.38837236950899978, 0.000000000000000000, 84.78347825565900564 ) ) ;
#869 = ORIENTED_EDGE ( 'NONE', *, *, #393, .T. ) ;
#870 = EDGE_CURVE ( 'NONE', #128, #1000, #68, .T. ) ;
#871 = CARTESIAN_POINT ( 'NONE',  ( 63.16319538971600167, 79.80181687673498914, 80.49848206403399331 ) ) ;
#872 = EDGE_CURVE ( 'NONE', #910, #164, #423, .T. ) ;
#873 = ORIENTED_EDGE ( 'NONE', *, *, #295, .T. ) ;
#874 = DIRECTION ( 'NONE',  ( 0.7071067811865475727, 0.000000000000000000, -0.7071067811865475727 ) ) ;
#875 = DIRECTION ( 'NONE',  ( 1.000000000000000000, 0.000000000000000000, 0.000000000000000000 ) ) ;
#876 = VERTEX_POINT ( 'NONE', #320 ) ;
#877 = FACE_OUTER_BOUND ( 'NONE', #54, .T. ) ;
#878 = ADVANCED_FACE ( 'NONE', ( #659 ), #626, .F. ) ;
#879 = CARTESIAN_POINT ( 'NONE',  ( 60.33103832079599727, 89.33628402241100730, 65.62501940186700722 ) ) ;
#880 = DIRECTION ( 'NONE',  ( 0.000000000000000000, -0.08143188802481629573, -0.9966789089835872417 ) ) ;
#881 = VECTOR ( 'NONE', #1093, 1000.000000000000000 ) ;
#882 = VECTOR ( 'NONE', #208, 1000.000000000000000 ) ;
#883 = EDGE_LOOP ( 'NONE', ( #354, #395, #1029, #897 ) ) ;
#884 = VECTOR ( 'NONE', #690, 1000.000000000000000 ) ;
#885 = CARTESIAN_POINT ( 'NONE',  ( 62.13392021609799798, 29.44573533751400163, 51.61611035652699542 ) ) ;
#886 = CARTESIAN_POINT ( 'NONE',  ( 29.16551916039799863, 89.33628402241100730, 65.62501940186700722 ) ) ;
#887 = DIRECTION ( 'NONE',  ( 0.000000000000000000, 0.000000000000000000, 1.000000000000000000 ) ) ;
#888 = EDGE_LOOP ( 'NONE', ( #217, #207, #958, #111 ) ) ;
#889 = DIRECTION ( 'NONE',  ( 0.000000000000000000, 0.000000000000000000, -1.000000000000000000 ) ) ;
#890 = LINE ( 'NONE', #531, #861 ) ;
#891 = ORIENTED_EDGE ( 'NONE', *, *, #341, .F. ) ;
#892 = ADVANCED_FACE ( 'NONE', ( #498 ), #504, .F. ) ;
#893 = VERTEX_POINT ( 'NONE', #599 ) ;
#894 = FACE_OUTER_BOUND ( 'NONE', #736, .T. ) ;
#895 = DIRECTION ( 'NONE',  ( 0.000000000000000000, 0.000000000000000000, 1.000000000000000000 ) ) ;
#896 = CIRCLE ( 'NONE', #415, 5.906460429409995605 ) ;
#897 = ORIENTED_EDGE ( 'NONE', *, *, #425, .F. ) ;
#898 = CIRCLE ( 'NONE', #416, 5.906460429409995605 ) ;
#899 = ORIENTED_EDGE ( 'NONE', *, *, #1137, .T. ) ;
#900 = CARTESIAN_POINT ( 'NONE',  ( 31.61765831142099969, 81.89001972503999127, 77.73174126139200268 ) ) ;
#901 = CARTESIAN_POINT ( 'NONE',  ( 60.33103832079599727, 89.33628402241100730, 69.22119660748900571 ) ) ;
#902 = LINE ( 'NONE', #120, #432 ) ;
#903 = CARTESIAN_POINT ( 'NONE',  ( 68.38837236950899978, 89.33628402241100730, 0.000000000000000000 ) ) ;
#904 = VERTEX_POINT ( 'NONE', #578 ) ;
#905 = ADVANCED_FACE ( 'NONE', ( #494, #945, #924 ), #156, .F. ) ;
#906 = CARTESIAN_POINT ( 'NONE',  ( 68.38837236950899978, 0.000000000000000000, 61.94149038576699695 ) ) ;
#907 = EDGE_CURVE ( 'NONE', #624, #916, #55, .T. ) ;
#908 = LINE ( 'NONE', #124, #377 ) ;
#909 = DIRECTION ( 'NONE',  ( 0.09272066944659015930, 0.9956921599858944427, 0.000000000000000000 ) ) ;
#910 = VERTEX_POINT ( 'NONE', #149 ) ;
#911 = CYLINDRICAL_SURFACE ( 'NONE', #399, 1.220298123724997019 ) ;
#912 = EDGE_CURVE ( 'NONE', #1000, #436, #62, .T. ) ;
#913 = DIRECTION ( 'NONE',  ( 0.8380445874204227596, -0.5456017499012749683, 0.000000000000000000 ) ) ;
#914 = ORIENTED_EDGE ( 'NONE', *, *, #686, .F. ) ;
#915 = VECTOR ( 'NONE', #1019, 1000.000000000000000 ) ;
#916 = VERTEX_POINT ( 'NONE', #1021 ) ;
#917 = CIRCLE ( 'NONE', #625, 0.5304302581499997782 ) ;
#918 = VECTOR ( 'NONE', #239, 1000.000000000000000 ) ;
#919 = CARTESIAN_POINT ( 'NONE',  ( 68.22086922625500449, 84.12170069046899812, 83.61324261925099677 ) ) ;
#920 = AXIS2_PLACEMENT_3D ( 'NONE', #389, #302, #293 ) ;
#921 = CYLINDRICAL_SURFACE ( 'NONE', #553, 5.906460429409995605 ) ;
#922 = EDGE_LOOP ( 'NONE', ( #272, #580, #1129 ) ) ;
#923 = EDGE_LOOP ( 'NONE', ( #428, #314, #631, #745 ) ) ;
#924 = FACE_OUTER_BOUND ( 'NONE', #368, .T. ) ;
#925 = LINE ( 'NONE', #329, #660 ) ;
#926 = DIRECTION ( 'NONE',  ( 1.000000000000000000, 0.000000000000000000, 0.000000000000000000 ) ) ;
#927 = ADVANCED_FACE ( 'NONE', ( #233, #846 ), #429, .T. ) ;
#928 = ORIENTED_EDGE ( 'NONE', *, *, #169, .F. ) ;
#929 = CARTESIAN_POINT ( 'NONE',  ( 0.000000000000000000, 0.000000000000000000, 0.000000000000000000 ) ) ;
#930 = CARTESIAN_POINT ( 'NONE',  ( 0.000000000000000000, 89.33628402241100730, 84.78347825565900564 ) ) ;
#931 = LINE ( 'NONE', #417, #360 ) ;
#932 = ORIENTED_EDGE ( 'NONE', *, *, #184, .T. ) ;
#933 = VECTOR ( 'NONE', #926, 1000.000000000000000 ) ;
#934 = VECTOR ( 'NONE', #421, 1000.000000000000000 ) ;
#935 = DIRECTION ( 'NONE',  ( 0.000000000000000000, 0.000000000000000000, -1.000000000000000000 ) ) ;
#936 = VECTOR ( 'NONE', #489, 1000.000000000000000 ) ;
#937 = CARTESIAN_POINT ( 'NONE',  ( 68.38837236950899978, 86.31840413657799616, 83.61324261925099677 ) ) ;
#938 = CARTESIAN_POINT ( 'NONE',  ( 51.25879307045699562, 29.44573533751400163, 0.000000000000000000 ) ) ;
#939 = VERTEX_POINT ( 'NONE', #165 ) ;
#940 = DIRECTION ( 'NONE',  ( 1.000000000000000000, 0.000000000000000000, 0.000000000000000000 ) ) ;
#941 = EDGE_CURVE ( 'NONE', #946, #1104, #1113, .T. ) ;
#942 = DIRECTION ( 'NONE',  ( 1.000000000000000000, 0.000000000000000000, 0.000000000000000000 ) ) ;
#943 = DIRECTION ( 'NONE',  ( -0.000000000000000000, 1.000000000000000000, 0.000000000000000000 ) ) ;
#944 = ORIENTED_EDGE ( 'NONE', *, *, #1115, .T. ) ;
#945 = FACE_BOUND ( 'NONE', #656, .T. ) ;
#946 = VERTEX_POINT ( 'NONE', #161 ) ;
#947 = FACE_OUTER_BOUND ( 'NONE', #460, .T. ) ;
#948 = DIRECTION ( 'NONE',  ( -1.000000000000000000, 0.000000000000000000, 0.000000000000000000 ) ) ;
#949 = ORIENTED_EDGE ( 'NONE', *, *, #505, .F. ) ;
#950 = CARTESIAN_POINT ( 'NONE',  ( 68.22086922625500449, 83.95419754721498862, 83.61324261925099677 ) ) ;
#951 = AXIS2_PLACEMENT_3D ( 'NONE', #252, #518, #263 ) ;
#952 = ORIENTED_EDGE ( 'NONE', *, *, #315, .F. ) ;
#953 = LINE ( 'NONE', #443, #114 ) ;
#954 = AXIS2_PLACEMENT_3D ( 'NONE', #408, #664, #742 ) ;
#955 = CIRCLE ( 'NONE', #920, 5.906460429409995605 ) ;
#956 = DIRECTION ( 'NONE',  ( -1.000000000000000000, 0.000000000000000000, 0.000000000000000000 ) ) ;
#957 = EDGE_CURVE ( 'NONE', #364, #116, #898, .T. ) ;
#958 = ORIENTED_EDGE ( 'NONE', *, *, #1038, .T. ) ;
#959 = EDGE_CURVE ( 'NONE', #559, #946, #674, .T. ) ;
#960 = CARTESIAN_POINT ( 'NONE',  ( 68.22086922625500449, 83.95419754721498862, 83.61324261925099677 ) ) ;
#961 = ORIENTED_EDGE ( 'NONE', *, *, #186, .F. ) ;
#962 = LINE ( 'NONE', #868, #539 ) ;
#963 = DIRECTION ( 'NONE',  ( -1.000000000000000000, 0.000000000000000000, 0.000000000000000000 ) ) ;
#964 = ORIENTED_EDGE ( 'NONE', *, *, #574, .T. ) ;
#965 = ADVANCED_FACE ( 'NONE', ( #73 ), #1125, .F. ) ;
#966 = DIRECTION ( 'NONE',  ( 1.000000000000000000, 0.000000000000000000, 0.000000000000000000 ) ) ;
#967 = ORIENTED_EDGE ( 'NONE', *, *, #561, .F. ) ;
#968 = LINE ( 'NONE', #3, #154 ) ;
#969 = DIRECTION ( 'NONE',  ( -1.000000000000000000, 0.000000000000000000, 0.000000000000000000 ) ) ;
#970 = ORIENTED_EDGE ( 'NONE', *, *, #427, .F. ) ;
#971 = LINE ( 'NONE', #7, #363 ) ;
#972 = DIRECTION ( 'NONE',  ( 0.000000000000000000, 1.000000000000000000, 0.000000000000000000 ) ) ;
#973 = CARTESIAN_POINT ( 'NONE',  ( 63.16319538971600167, 79.15964413523698795, 81.87872316213899637 ) ) ;
#974 = CIRCLE ( 'NONE', #484, 1.220298123724997019 ) ;
#975 = VECTOR ( 'NONE', #1026, 1000.000000000000000 ) ;
#976 = EDGE_LOOP ( 'NONE', ( #214, #230, #197, #264 ) ) ;
#977 = LINE ( 'NONE', #1141, #1072 ) ;
#978 = PLANE ( 'NONE',  #290 ) ;
#979 = EDGE_CURVE ( 'NONE', #1082, #532, #834, .T. ) ;
#980 = EDGE_CURVE ( 'NONE', #569, #401, #173, .T. ) ;
#981 = LINE ( 'NONE', #19, #1 ) ;
#982 = ORIENTED_EDGE ( 'NONE', *, *, #26, .F. ) ;
#983 = FACE_OUTER_BOUND ( 'NONE', #384, .T. ) ;
#984 = CARTESIAN_POINT ( 'NONE',  ( 57.16525349986699212, 29.44573533751400163, 51.61611035652699542 ) ) ;
#985 = EDGE_LOOP ( 'NONE', ( #707, #1041, #94, #793 ) ) ;
#986 = ORIENTED_EDGE ( 'NONE', *, *, #32, .T. ) ;
#987 = DIRECTION ( 'NONE',  ( -0.000000000000000000, 0.7004886738107157784, 0.7136635186577108270 ) ) ;
#988 = DIRECTION ( 'NONE',  ( 0.000000000000000000, 0.000000000000000000, -1.000000000000000000 ) ) ;
#989 = VECTOR ( 'NONE', #83, 1000.000000000000114 ) ;
#990 = LINE ( 'NONE', #481, #451 ) ;
#991 = AXIS2_PLACEMENT_3D ( 'NONE', #815, #37, #730 ) ;
#992 = EDGE_CURVE ( 'NONE', #164, #893, #267, .T. ) ;
#993 = EDGE_CURVE ( 'NONE', #576, #278, #627, .T. ) ;
#994 = ORIENTED_EDGE ( 'NONE', *, *, #980, .T. ) ;
#995 = APPLICATION_PROTOCOL_DEFINITION ( 'draft international standard', 'automotive_design', 1998, #44 ) ;
#996 = CARTESIAN_POINT ( 'NONE',  ( 68.22086922625500449, 83.95419754721498862, 81.61324261925099677 ) ) ;
#997 = CARTESIAN_POINT ( 'NONE',  ( 68.38837236950899978, 86.31840413657799616, 81.61324261925099677 ) ) ;
#998 = ORIENTED_EDGE ( 'NONE', *, *, #413, .F. ) ;
#999 = PRODUCT_DEFINITION_CONTEXT ( 'detailed design', #44, 'design' ) ;
#1000 = VERTEX_POINT ( 'NONE', #1047 ) ;
#1001 = EDGE_CURVE ( 'NONE', #752, #939, #697, .T. ) ;
#1002 = DIRECTION ( 'NONE',  ( 0.000000000000000000, -1.000000000000000000, 0.000000000000000000 ) ) ;
#1003 = CARTESIAN_POINT ( 'NONE',  ( 31.61765831142099969, 81.89001972503999127, 76.51144313766700122 ) ) ;
#1004 = CARTESIAN_POINT ( 'NONE',  ( 0.000000000000000000, 89.33628402241100730, 0.000000000000000000 ) ) ;
#1005 = PRODUCT_DEFINITION_SHAPE ( 'NONE', 'NONE',  #235 ) ;
#1006 = ORIENTED_EDGE ( 'NONE', *, *, #492, .T. ) ;
#1007 = LINE ( 'NONE', #303, #936 ) ;
#1008 = ADVANCED_FACE ( 'NONE', ( #877 ), #362, .F. ) ;
#1009 = CARTESIAN_POINT ( 'NONE',  ( 63.07171392927700282, 29.44573533751400163, 0.000000000000000000 ) ) ;
#1010 = ORIENTED_EDGE ( 'NONE', *, *, #912, .F. ) ;
#1011 = CIRCLE ( 'NONE', #1031, 5.906460429409995605 ) ;
#1012 = ORIENTED_EDGE ( 'NONE', *, *, #587, .T. ) ;
#1013 = VECTOR ( 'NONE', #653, 1000.000000000000000 ) ;
#1014 = AXIS2_PLACEMENT_3D ( 'NONE', #605, #781, #692 ) ;
#1015 = DIRECTION ( 'NONE',  ( 1.000000000000000000, 0.000000000000000000, 0.000000000000000000 ) ) ;
#1016 = AXIS2_PLACEMENT_3D ( 'NONE', #871, #12, #446 ) ;
#1017 = CARTESIAN_POINT ( 'NONE',  ( 58.33103832079599727, 73.62557796051800096, 69.22119660748900571 ) ) ;
#1018 = EDGE_CURVE ( 'NONE', #849, #611, #515, .T. ) ;
#1019 = DIRECTION ( 'NONE',  ( 1.000000000000000000, 0.000000000000000000, 0.000000000000000000 ) ) ;
#1020 = EDGE_LOOP ( 'NONE', ( #961, #101, #829, #1094, #160 ) ) ;
#1021 = CARTESIAN_POINT ( 'NONE',  ( 43.22930829989400081, 56.10659152542799433, 19.12532645251399899 ) ) ;
#1022 = ADVANCED_BREP_SHAPE_REPRESENTATION ( '20260414_160844_75', ( #280, #864 ), #825 ) ;
#1023 = CARTESIAN_POINT ( 'NONE',  ( 68.38837236950899978, 89.33628402241100730, 84.78347825565900564 ) ) ;
#1024 = CARTESIAN_POINT ( 'NONE',  ( 68.38837236950899978, 86.31840413657799616, 83.61324261925099677 ) ) ;
#1025 = VERTEX_POINT ( 'NONE', #885 ) ;
#1026 = DIRECTION ( 'NONE',  ( 0.000000000000000000, 1.000000000000000000, 0.000000000000000000 ) ) ;
#1027 = CARTESIAN_POINT ( 'NONE',  ( 57.16525349986699212, 35.07221181651900110, 51.61611035652699542 ) ) ;
#1028 = DIRECTION ( 'NONE',  ( 0.000000000000000000, 0.000000000000000000, 1.000000000000000000 ) ) ;
#1029 = ORIENTED_EDGE ( 'NONE', *, *, #1038, .F. ) ;
#1030 = EDGE_CURVE ( 'NONE', #509, #1025, #684, .T. ) ;
#1031 = AXIS2_PLACEMENT_3D ( 'NONE', #371, #536, #963 ) ;
#1032 = DIRECTION ( 'NONE',  ( 1.000000000000000000, 0.000000000000000000, 0.000000000000000000 ) ) ;
#1033 = AXIS2_PLACEMENT_3D ( 'NONE', #824, #226, #203 ) ;
#1034 = LINE ( 'NONE', #430, #694 ) ;
#1035 = CARTESIAN_POINT ( 'NONE',  ( 58.33103832079599727, 73.62557796051800096, 65.62501940186700722 ) ) ;
#1036 = EDGE_LOOP ( 'NONE', ( #29, #1112, #998, #722 ) ) ;
#1037 = CARTESIAN_POINT ( 'NONE',  ( 63.07171392927700282, 40.69868829552400058, 50.67831664334700292 ) ) ;
#1038 = EDGE_CURVE ( 'NONE', #388, #946, #95, .T. ) ;
#1039 = PLANE ( 'NONE',  #1089 ) ;
#1040 = CARTESIAN_POINT ( 'NONE',  ( 51.25879307045699562, 29.44573533751400163, 0.000000000000000000 ) ) ;
#1041 = ORIENTED_EDGE ( 'NONE', *, *, #118, .T. ) ;
#1042 = DIRECTION ( 'NONE',  ( 0.000000000000000000, 1.000000000000000000, 0.000000000000000000 ) ) ;
#1043 = EDGE_LOOP ( 'NONE', ( #60, #780, #135, #603 ) ) ;
#1044 = CARTESIAN_POINT ( 'NONE',  ( 43.22930829989400081, 56.10659152542799433, 0.000000000000000000 ) ) ;
#1045 = PLANE ( 'NONE',  #228 ) ;
#1046 = ORIENTED_EDGE ( 'NONE', *, *, #255, .F. ) ;
#1047 = CARTESIAN_POINT ( 'NONE',  ( 58.33103832079599727, 89.33628402241100730, 65.62501940186700722 ) ) ;
#1048 = VECTOR ( 'NONE', #1052, 1000.000000000000000 ) ;
#1049 = EDGE_LOOP ( 'NONE', ( #493, #115, #232, #891, #767, #170 ) ) ;
#1050 = DIRECTION ( 'NONE',  ( 0.2861889590210464629, -0.9581731992361557371, 0.000000000000000000 ) ) ;
#1051 = VECTOR ( 'NONE', #850, 1000.000000000000000 ) ;
#1052 = DIRECTION ( 'NONE',  ( 0.000000000000000000, 0.000000000000000000, 1.000000000000000000 ) ) ;
#1053 = ADVANCED_FACE ( 'NONE', ( #90 ), #179, .T. ) ;
#1054 = EDGE_LOOP ( 'NONE', ( #482, #932, #833, #403 ) ) ;
#1055 = CARTESIAN_POINT ( 'NONE',  ( 0.000000000000000000, 0.000000000000000000, 84.78347825565900564 ) ) ;
#1056 = ORIENTED_EDGE ( 'NONE', *, *, #357, .F. ) ;
#1057 = CARTESIAN_POINT ( 'NONE',  ( 60.33103832079599727, 73.62557796051800096, 69.22119660748900571 ) ) ;
#1058 = DIRECTION ( 'NONE',  ( 0.000000000000000000, 1.000000000000000000, 0.000000000000000000 ) ) ;
#1059 = ORIENTED_EDGE ( 'NONE', *, *, #805, .F. ) ;
#1060 = DIRECTION ( 'NONE',  ( 0.000000000000000000, 0.000000000000000000, -1.000000000000000000 ) ) ;
#1061 = DIRECTION ( 'NONE',  ( 0.000000000000000000, 0.9922493524981916835, 0.1242627155140239581 ) ) ;
#1062 = CARTESIAN_POINT ( 'NONE',  ( 51.25879307045699562, 40.69868829552400058, 50.67831664334700292 ) ) ;
#1063 = ORIENTED_EDGE ( 'NONE', *, *, #634, .F. ) ;
#1064 = ADVANCED_FACE ( 'NONE', ( #856 ), #528, .T. ) ;
#1065 = DIRECTION ( 'NONE',  ( -0.7071067811865474617, 0.000000000000000000, 0.7071067811865474617 ) ) ;
#1066 = EDGE_CURVE ( 'NONE', #916, #166, #977, .T. ) ;
#1067 = CARTESIAN_POINT ( 'NONE',  ( 60.33103832079599727, 73.62557796051800096, 69.22119660748900571 ) ) ;
#1068 =( LENGTH_UNIT ( ) NAMED_UNIT ( * ) SI_UNIT ( .MILLI., .METRE. ) );
#1069 = AXIS2_PLACEMENT_3D ( 'NONE', #507, #1120, #424 ) ;
#1070 = CIRCLE ( 'NONE', #20, 0.1675031432540052823 ) ;
#1071 = ORIENTED_EDGE ( 'NONE', *, *, #734, .T. ) ;
#1072 = VECTOR ( 'NONE', #1131, 1000.000000000000000 ) ;
#1073 = CARTESIAN_POINT ( 'NONE',  ( 68.38837236950899978, 81.18445131406899407, 79.89129567237499430 ) ) ;
#1074 = LINE ( 'NONE', #973, #858 ) ;
#1075 = ORIENTED_EDGE ( 'NONE', *, *, #486, .T. ) ;
#1076 = ORIENTED_EDGE ( 'NONE', *, *, #222, .F. ) ;
#1077 = FACE_OUTER_BOUND ( 'NONE', #1036, .T. ) ;
#1078 = DIRECTION ( 'NONE',  ( 0.000000000000000000, 0.000000000000000000, 1.000000000000000000 ) ) ;
#1079 = EDGE_CURVE ( 'NONE', #876, #1082, #400, .T. ) ;
#1080 = EDGE_CURVE ( 'NONE', #445, #585, #698, .T. ) ;
#1081 = ORIENTED_EDGE ( 'NONE', *, *, #1080, .F. ) ;
#1082 = VERTEX_POINT ( 'NONE', #348 ) ;
#1083 = CARTESIAN_POINT ( 'NONE',  ( 0.000000000000000000, 0.000000000000000000, 84.78347825565900564 ) ) ;
#1084 = CARTESIAN_POINT ( 'NONE',  ( 60.33103832079599727, 73.62557796051800096, 65.62501940186700722 ) ) ;
#1085 = AXIS2_PLACEMENT_3D ( 'NONE', #300, #744, #224 ) ;
#1086 = VECTOR ( 'NONE', #366, 1000.000000000000000 ) ;
#1087 = CARTESIAN_POINT ( 'NONE',  ( 68.38837236950899978, 0.000000000000000000, 0.000000000000000000 ) ) ;
#1088 = EDGE_CURVE ( 'NONE', #218, #15, #260, .T. ) ;
#1089 = AXIS2_PLACEMENT_3D ( 'NONE', #1027, #495, #851 ) ;
#1090 = ORIENTED_EDGE ( 'NONE', *, *, #241, .F. ) ;
#1091 = CARTESIAN_POINT ( 'NONE',  ( 68.38837236950899978, 81.89001972503999127, 77.73174126139200268 ) ) ;
#1092 = DIRECTION ( 'NONE',  ( 1.000000000000000000, 0.000000000000000000, 0.000000000000000000 ) ) ;
#1093 = DIRECTION ( 'NONE',  ( 0.000000000000000000, 1.000000000000000000, 0.000000000000000000 ) ) ;
#1094 = ORIENTED_EDGE ( 'NONE', *, *, #1079, .T. ) ;
#1095 = ORIENTED_EDGE ( 'NONE', *, *, #734, .F. ) ;
#1096 = VERTEX_POINT ( 'NONE', #900 ) ;
#1097 = DIRECTION ( 'NONE',  ( -0.7071067811865474617, -8.659560562349451507E-17, 0.7071067811865474617 ) ) ;
#1098 = DIRECTION ( 'NONE',  ( 0.000000000000000000, 0.000000000000000000, 1.000000000000000000 ) ) ;
#1099 = FACE_BOUND ( 'NONE', #699, .T. ) ;
#1100 = ORIENTED_EDGE ( 'NONE', *, *, #1080, .T. ) ;
#1101 = CARTESIAN_POINT ( 'NONE',  ( 58.33103832079599727, 73.62557796051800096, 65.62501940186700722 ) ) ;
#1102 = EDGE_CURVE ( 'NONE', #576, #876, #971, .T. ) ;
#1103 = CARTESIAN_POINT ( 'NONE',  ( 57.16525349986699212, 29.44573533751400163, 0.000000000000000000 ) ) ;
#1104 = VERTEX_POINT ( 'NONE', #522 ) ;
#1105 = UNCERTAINTY_MEASURE_WITH_UNIT (LENGTH_MEASURE( 1.000000000000000082E-05 ), #43, 'distance_accuracy_value', 'NONE');
#1106 = AXIS2_PLACEMENT_3D ( 'NONE', #1024, #1111, #508 ) ;
#1107 = ORIENTED_EDGE ( 'NONE', *, *, #402, .T. ) ;
#1108 = CIRCLE ( 'NONE', #677, 0.5304302581499997782 ) ;
#1109 = CARTESIAN_POINT ( 'NONE',  ( 68.38837236950899978, 84.12170069046899812, 83.61324261925099677 ) ) ;
#1110 = FACE_OUTER_BOUND ( 'NONE', #976, .T. ) ;
#1111 = DIRECTION ( 'NONE',  ( 0.000000000000000000, 0.000000000000000000, 1.000000000000000000 ) ) ;
#1112 = ORIENTED_EDGE ( 'NONE', *, *, #640, .T. ) ;
#1113 = LINE ( 'NONE', #332, #80 ) ;
#1114 = CARTESIAN_POINT ( 'NONE',  ( 57.16525349986699212, 29.44573533751400163, 50.67831664334700292 ) ) ;
#1115 = EDGE_CURVE ( 'NONE', #939, #1025, #191, .T. ) ;
#1116 = DIRECTION ( 'NONE',  ( 0.000000000000000000, 0.000000000000000000, -1.000000000000000000 ) ) ;
#1117 = EDGE_CURVE ( 'NONE', #401, #551, #85, .T. ) ;
#1118 = EDGE_LOOP ( 'NONE', ( #568, #23, #406, #253 ) ) ;
#1119 = CARTESIAN_POINT ( 'NONE',  ( 57.16525349986699212, 29.44573533751400163, 0.000000000000000000 ) ) ;
#1120 = DIRECTION ( 'NONE',  ( -0.000000000000000000, 1.000000000000000000, 0.000000000000000000 ) ) ;
#1121 = CARTESIAN_POINT ( 'NONE',  ( 51.25879307045699562, 29.44573533751400163, 0.000000000000000000 ) ) ;
#1122 = ADVANCED_FACE ( 'NONE', ( #775 ), #458, .T. ) ;
#1123 = ORIENTED_EDGE ( 'NONE', *, *, #512, .T. ) ;
#1124 = VECTOR ( 'NONE', #807, 999.9999999999998863 ) ;
#1125 = PLANE ( 'NONE',  #554 ) ;
#1126 = AXIS2_PLACEMENT_3D ( 'NONE', #839, #1015, #582 ) ;
#1127 = DIRECTION ( 'NONE',  ( -1.000000000000000000, 0.000000000000000000, 0.000000000000000000 ) ) ;
#1128 = DIRECTION ( 'NONE',  ( 0.000000000000000000, -1.000000000000000000, 0.000000000000000000 ) ) ;
#1129 = ORIENTED_EDGE ( 'NONE', *, *, #169, .T. ) ;
#1130 = EDGE_CURVE ( 'NONE', #636, #364, #396, .T. ) ;
#1131 = DIRECTION ( 'NONE',  ( -0.9581731992361557371, -0.2861889590210464629, 0.000000000000000000 ) ) ;
#1132 = ORIENTED_EDGE ( 'NONE', *, *, #440, .F. ) ;
#1133 = DIRECTION ( 'NONE',  ( 0.000000000000000000, 0.000000000000000000, -1.000000000000000000 ) ) ;
#1134 = FACE_OUTER_BOUND ( 'NONE', #922, .T. ) ;
#1135 = EDGE_LOOP ( 'NONE', ( #411, #1063, #237 ) ) ;
#1136 = CARTESIAN_POINT ( 'NONE',  ( 68.38837236950899978, 81.18445131406899407, 79.89129567237499430 ) ) ;
#1137 = EDGE_CURVE ( 'NONE', #15, #452, #955, .T. ) ;
#1138 = DIRECTION ( 'NONE',  ( -1.000000000000000000, 0.000000000000000000, 0.000000000000000000 ) ) ;
#1139 = LINE ( 'NONE', #104, #1048 ) ;
#1140 = EDGE_LOOP ( 'NONE', ( #827, #1006, #319, #521 ) ) ;
#1141 = CARTESIAN_POINT ( 'NONE',  ( 43.22930829989400081, 56.10659152542799433, 19.12532645251399899 ) ) ;
ENDSEC;
END-ISO-10303-21;
