ISO-10303-21;
HEADER;
FILE_DESCRIPTION (( 'STEP AP214' ),
    '1' );
FILE_NAME ('20260414_160844_175.STEP',
    '2026-04-16T15:30:10',
    ( '' ),
    ( '' ),
    'SwSTEP 2.0',
    'SolidWorks 2025',
    '' );
FILE_SCHEMA (( 'AUTOMOTIVE_DESIGN' ));
ENDSEC;

DATA;
#1 = VECTOR ( 'NONE', #865, 1000.000000000000000 ) ;
#2 = DIRECTION ( 'NONE',  ( -1.000000000000000000, 0.000000000000000000, 0.000000000000000000 ) ) ;
#3 = LINE ( 'NONE', #815, #843 ) ;
#4 = EDGE_LOOP ( 'NONE', ( #173 ) ) ;
#5 = ORIENTED_EDGE ( 'NONE', *, *, #181, .T. ) ;
#6 = DIRECTION ( 'NONE',  ( 1.000000000000000000, 0.000000000000000000, 0.000000000000000000 ) ) ;
#7 = LINE ( 'NONE', #868, #48 ) ;
#8 = ORIENTED_EDGE ( 'NONE', *, *, #799, .F. ) ;
#9 = ORIENTED_EDGE ( 'NONE', *, *, #915, .T. ) ;
#10 = DIRECTION ( 'NONE',  ( 1.000000000000000000, 0.000000000000000000, 0.000000000000000000 ) ) ;
#11 = ADVANCED_FACE ( 'NONE', ( #163 ), #816, .F. ) ;
#12 = ORIENTED_EDGE ( 'NONE', *, *, #244, .T. ) ;
#13 = ORIENTED_EDGE ( 'NONE', *, *, #128, .T. ) ;
#14 = DIRECTION ( 'NONE',  ( 0.000000000000000000, -1.000000000000000000, 0.000000000000000000 ) ) ;
#15 = AXIS2_PLACEMENT_3D ( 'NONE', #804, #98, #391 ) ;
#16 = VECTOR ( 'NONE', #579, 1000.000000000000227 ) ;
#17 = LINE ( 'NONE', #242, #873 ) ;
#18 = EDGE_CURVE ( 'NONE', #530, #375, #880, .T. ) ;
#19 = ORIENTED_EDGE ( 'NONE', *, *, #500, .F. ) ;
#20 = ORIENTED_EDGE ( 'NONE', *, *, #831, .F. ) ;
#21 = CARTESIAN_POINT ( 'NONE',  ( 0.000000000000000000, 79.99552026207999234, 83.50381240911001157 ) ) ;
#22 = DIRECTION ( 'NONE',  ( 1.000000000000000000, 0.000000000000000000, 0.000000000000000000 ) ) ;
#23 = LINE ( 'NONE', #668, #539 ) ;
#24 = EDGE_CURVE ( 'NONE', #591, #375, #23, .T. ) ;
#25 = ORIENTED_EDGE ( 'NONE', *, *, #609, .F. ) ;
#26 = DIRECTION ( 'NONE',  ( -1.000000000000000000, 0.000000000000000000, 0.000000000000000000 ) ) ;
#27 = CARTESIAN_POINT ( 'NONE',  ( 41.67386826407400235, 0.000000000000000000, 83.50381240911001157 ) ) ;
#28 = CARTESIAN_POINT ( 'NONE',  ( 41.67386826407400235, 6.139035945414998621E-16, 56.94895644021099912 ) ) ;
#29 = ORIENTED_EDGE ( 'NONE', *, *, #69, .T. ) ;
#30 = CARTESIAN_POINT ( 'NONE',  ( 41.67386826407400235, 5.012903263707999990, 50.93605317650300179 ) ) ;
#31 = PLANE ( 'NONE',  #138 ) ;
#32 = AXIS2_PLACEMENT_3D ( 'NONE', #71, #518, #286 ) ;
#33 = DIRECTION ( 'NONE',  ( 0.000000000000000000, -1.000000000000000000, 0.000000000000000000 ) ) ;
#34 = ADVANCED_FACE ( 'NONE', ( #679 ), #596, .F. ) ;
#35 = ORIENTED_EDGE ( 'NONE', *, *, #377, .F. ) ;
#36 = CARTESIAN_POINT ( 'NONE',  ( 4.303473601832552120, 82.69961444314094479, 67.05721293210200429 ) ) ;
#37 = LINE ( 'NONE', #848, #347 ) ;
#38 = DIRECTION ( 'NONE',  ( 0.000000000000000000, 0.000000000000000000, 1.000000000000000000 ) ) ;
#39 = ORIENTED_EDGE ( 'NONE', *, *, #154, .T. ) ;
#40 = DIRECTION ( 'NONE',  ( 0.8467204324992452236, 0.5320380711831541598, 0.000000000000000000 ) ) ;
#41 = PRODUCT_DEFINITION_SHAPE ( 'NONE', 'NONE',  #847 ) ;
#42 = FACE_BOUND ( 'NONE', #164, .T. ) ;
#43 = DIRECTION ( 'NONE',  ( 1.000000000000000000, 0.000000000000000000, 0.000000000000000000 ) ) ;
#44 = DIRECTION ( 'NONE',  ( 0.000000000000000000, 1.000000000000000000, 0.000000000000000000 ) ) ;
#45 = DIRECTION ( 'NONE',  ( 0.000000000000000000, -1.000000000000000000, 0.000000000000000000 ) ) ;
#46 = AXIS2_PLACEMENT_3D ( 'NONE', #91, #528, #746 ) ;
#47 = EDGE_CURVE ( 'NONE', #577, #216, #382, .T. ) ;
#48 = VECTOR ( 'NONE', #523, 1000.000000000000114 ) ;
#49 = VECTOR ( 'NONE', #706, 1000.000000000000000 ) ;
#50 = FACE_OUTER_BOUND ( 'NONE', #148, .T. ) ;
#51 = ORIENTED_EDGE ( 'NONE', *, *, #118, .T. ) ;
#52 = CARTESIAN_POINT ( 'NONE',  ( 22.65351038836299935, 90.53294278303299336, 6.935637298705999824E-16 ) ) ;
#53 = LINE ( 'NONE', #350, #768 ) ;
#54 = ORIENTED_EDGE ( 'NONE', *, *, #548, .T. ) ;
#55 = CARTESIAN_POINT ( 'NONE',  ( 41.67386826407400235, 36.21772379756500015, 40.17303160559299613 ) ) ;
#56 = ADVANCED_FACE ( 'NONE', ( #311 ), #748, .F. ) ;
#57 = ADVANCED_FACE ( 'NONE', ( #688 ), #699, .T. ) ;
#58 = DIRECTION ( 'NONE',  ( 0.8467204324992452236, 0.5320380711831541598, 0.000000000000000000 ) ) ;
#59 = ORIENTED_EDGE ( 'NONE', *, *, #666, .T. ) ;
#60 = ORIENTED_EDGE ( 'NONE', *, *, #491, .T. ) ;
#61 = DIRECTION ( 'NONE',  ( -1.000000000000000000, 0.000000000000000000, 0.000000000000000000 ) ) ;
#62 = MECHANICAL_DESIGN_GEOMETRIC_PRESENTATION_REPRESENTATION (  '', ( #889 ), #633 ) ;
#63 = ORIENTED_EDGE ( 'NONE', *, *, #734, .F. ) ;
#64 =( NAMED_UNIT ( * ) SI_UNIT ( $, .STERADIAN. ) SOLID_ANGLE_UNIT ( ) );
#65 = EDGE_CURVE ( 'NONE', #850, #800, #827, .T. ) ;
#66 = AXIS2_PLACEMENT_3D ( 'NONE', #55, #782, #414 ) ;
#67 = FACE_BOUND ( 'NONE', #338, .T. ) ;
#68 = LINE ( 'NONE', #150, #170 ) ;
#69 = EDGE_CURVE ( 'NONE', #817, #211, #243, .T. ) ;
#70 = EDGE_LOOP ( 'NONE', ( #316 ) ) ;
#71 = CARTESIAN_POINT ( 'NONE',  ( 0.000000000000000000, 0.000000000000000000, 83.50381240911001157 ) ) ;
#72 = CARTESIAN_POINT ( 'NONE',  ( 28.46580812127200133, 97.88205407677999403, 38.80879184189300446 ) ) ;
#73 = ORIENTED_EDGE ( 'NONE', *, *, #756, .F. ) ;
#74 = LINE ( 'NONE', #224, #268 ) ;
#75 = ADVANCED_FACE ( 'NONE', ( #102 ), #177, .F. ) ;
#76 = DIRECTION ( 'NONE',  ( 0.000000000000000000, -1.000000000000000000, 0.000000000000000000 ) ) ;
#77 = VECTOR ( 'NONE', #584, 1000.000000000000000 ) ;
#78 = EDGE_LOOP ( 'NONE', ( #455, #821, #551, #379 ) ) ;
#79 = VECTOR ( 'NONE', #936, 1000.000000000000114 ) ;
#80 = ORIENTED_EDGE ( 'NONE', *, *, #678, .F. ) ;
#81 = VECTOR ( 'NONE', #727, 1000.000000000000227 ) ;
#82 = LINE ( 'NONE', #789, #127 ) ;
#83 =( LENGTH_UNIT ( ) NAMED_UNIT ( * ) SI_UNIT ( .MILLI., .METRE. ) );
#84 = ORIENTED_EDGE ( 'NONE', *, *, #882, .T. ) ;
#85 = EDGE_CURVE ( 'NONE', #328, #355, #245, .T. ) ;
#86 = VERTEX_POINT ( 'NONE', #554 ) ;
#87 = DIRECTION ( 'NONE',  ( 0.5320380711831542708, -0.8467204324992452236, 0.000000000000000000 ) ) ;
#88 = CARTESIAN_POINT ( 'NONE',  ( 41.67386826407400235, 0.000000000000000000, 83.50381240911001157 ) ) ;
#89 = DIRECTION ( 'NONE',  ( 0.000000000000000000, -1.000000000000000000, 0.000000000000000000 ) ) ;
#90 = VERTEX_POINT ( 'NONE', #106 ) ;
#91 = CARTESIAN_POINT ( 'NONE',  ( 0.000000000000000000, 90.53294278303299336, 0.000000000000000000 ) ) ;
#92 = ORIENTED_EDGE ( 'NONE', *, *, #146, .T. ) ;
#93 = EDGE_CURVE ( 'NONE', #800, #574, #763, .T. ) ;
#94 = VECTOR ( 'NONE', #44, 1000.000000000000000 ) ;
#95 = ORIENTED_EDGE ( 'NONE', *, *, #85, .T. ) ;
#96 = CARTESIAN_POINT ( 'NONE',  ( 41.67386826407400235, 36.21772379756500015, 40.17303160559299613 ) ) ;
#97 = CARTESIAN_POINT ( 'NONE',  ( 41.67386826407400235, 5.012903263707999990, 51.93605317650299469 ) ) ;
#98 = DIRECTION ( 'NONE',  ( 0.1480765569860089670, 0.000000000000000000, 0.9889759012590596532 ) ) ;
#99 = ORIENTED_EDGE ( 'NONE', *, *, #937, .F. ) ;
#100 = DIRECTION ( 'NONE',  ( 0.000000000000000000, 0.000000000000000000, 1.000000000000000000 ) ) ;
#101 = FACE_OUTER_BOUND ( 'NONE', #274, .T. ) ;
#102 = FACE_OUTER_BOUND ( 'NONE', #796, .T. ) ;
#103 = ORIENTED_EDGE ( 'NONE', *, *, #678, .T. ) ;
#104 = CARTESIAN_POINT ( 'NONE',  ( 22.65351038836299935, 97.88205407677999403, 6.935637298705999824E-16 ) ) ;
#105 = CARTESIAN_POINT ( 'NONE',  ( 0.000000000000000000, 0.000000000000000000, 69.20894973301899711 ) ) ;
#106 = CARTESIAN_POINT ( 'NONE',  ( 41.67386826407400235, 97.88205407677999403, 83.50381240911001157 ) ) ;
#107 = VERTEX_POINT ( 'NONE', #631 ) ;
#108 = DIRECTION ( 'NONE',  ( -0.6227260106841110421, 0.000000000000000000, -0.7824399757281400580 ) ) ;
#109 = VECTOR ( 'NONE', #683, 1000.000000000000000 ) ;
#110 = CYLINDRICAL_SURFACE ( 'NONE', #185, 2.151736800917000814 ) ;
#111 = DIRECTION ( 'NONE',  ( 0.000000000000000000, 1.000000000000000000, 0.000000000000000000 ) ) ;
#112 = ORIENTED_EDGE ( 'NONE', *, *, #517, .T. ) ;
#113 = CARTESIAN_POINT ( 'NONE',  ( 11.91565499723099997, -3.069517965235000087E-16, 45.92314991279500447 ) ) ;
#114 = FACE_OUTER_BOUND ( 'NONE', #321, .T. ) ;
#115 = DIRECTION ( 'NONE',  ( 0.000000000000000000, 0.000000000000000000, -1.000000000000000000 ) ) ;
#116 = VERTEX_POINT ( 'NONE', #769 ) ;
#117 = FACE_OUTER_BOUND ( 'NONE', #131, .T. ) ;
#118 = EDGE_CURVE ( 'NONE', #557, #365, #269, .T. ) ;
#119 = LINE ( 'NONE', #698, #647 ) ;
#120 = LINE ( 'NONE', #348, #792 ) ;
#121 = UNCERTAINTY_MEASURE_WITH_UNIT (LENGTH_MEASURE( 1.000000000000000082E-05 ), #83, 'distance_accuracy_value', 'NONE');
#122 = ORIENTED_EDGE ( 'NONE', *, *, #154, .F. ) ;
#123 = PLANE ( 'NONE',  #869 ) ;
#124 = CARTESIAN_POINT ( 'NONE',  ( 28.46580812127200133, 97.88205407677999403, 38.80879184189300446 ) ) ;
#125 = AXIS2_PLACEMENT_3D ( 'NONE', #180, #545, #467 ) ;
#126 = AXIS2_PLACEMENT_3D ( 'NONE', #340, #852, #194 ) ;
#127 = VECTOR ( 'NONE', #357, 1000.000000000000000 ) ;
#128 = EDGE_CURVE ( 'NONE', #887, #433, #871, .T. ) ;
#129 = EDGE_LOOP ( 'NONE', ( #949, #159, #925, #592 ) ) ;
#130 = DIRECTION ( 'NONE',  ( 0.000000000000000000, 0.000000000000000000, 1.000000000000000000 ) ) ;
#131 = EDGE_LOOP ( 'NONE', ( #940, #5, #334, #73 ) ) ;
#132 = LINE ( 'NONE', #722, #783 ) ;
#133 = ADVANCED_FACE ( 'NONE', ( #333 ), #409, .F. ) ;
#134 = ORIENTED_EDGE ( 'NONE', *, *, #267, .F. ) ;
#135 = LINE ( 'NONE', #504, #660 ) ;
#136 = LINE ( 'NONE', #515, #939 ) ;
#137 = VECTOR ( 'NONE', #931, 1000.000000000000227 ) ;
#138 = AXIS2_PLACEMENT_3D ( 'NONE', #682, #254, #22 ) ;
#139 = ORIENTED_EDGE ( 'NONE', *, *, #244, .F. ) ;
#140 = ORIENTED_EDGE ( 'NONE', *, *, #491, .F. ) ;
#141 = DIRECTION ( 'NONE',  ( 1.000000000000000000, 0.000000000000000000, 0.000000000000000000 ) ) ;
#142 = CARTESIAN_POINT ( 'NONE',  ( 0.000000000000000000, 0.000000000000000000, 0.000000000000000000 ) ) ;
#143 = ORIENTED_EDGE ( 'NONE', *, *, #915, .F. ) ;
#144 = PRODUCT_CONTEXT ( 'NONE', #262, 'mechanical' ) ;
#145 = DIRECTION ( 'NONE',  ( 0.9889759012590595422, 0.000000000000000000, -0.1480765569860089392 ) ) ;
#146 = EDGE_CURVE ( 'NONE', #168, #361, #120, .T. ) ;
#147 = CARTESIAN_POINT ( 'NONE',  ( 41.67386826407400235, 73.92869672806500603, 40.17303160559299613 ) ) ;
#148 = EDGE_LOOP ( 'NONE', ( #426, #505, #781, #374 ) ) ;
#149 = CARTESIAN_POINT ( 'NONE',  ( 23.35712413453900282, 97.88205407677999403, 29.72839108359200111 ) ) ;
#150 = CARTESIAN_POINT ( 'NONE',  ( 23.35712413453900282, 97.88205407677999403, 29.72839108359200111 ) ) ;
#151 = ADVANCED_FACE ( 'NONE', ( #50 ), #251, .F. ) ;
#152 = VECTOR ( 'NONE', #759, 1000.000000000000000 ) ;
#153 = DIRECTION ( 'NONE',  ( 0.000000000000000000, 0.000000000000000000, -1.000000000000000000 ) ) ;
#154 = EDGE_CURVE ( 'NONE', #489, #591, #636, .T. ) ;
#155 = AXIS2_PLACEMENT_3D ( 'NONE', #650, #296, #867 ) ;
#156 = ORIENTED_EDGE ( 'NONE', *, *, #476, .F. ) ;
#157 = FACE_OUTER_BOUND ( 'NONE', #673, .T. ) ;
#158 = PLANE ( 'NONE',  #281 ) ;
#159 = ORIENTED_EDGE ( 'NONE', *, *, #221, .T. ) ;
#160 = ORIENTED_EDGE ( 'NONE', *, *, #882, .F. ) ;
#161 = DIRECTION ( 'NONE',  ( 0.000000000000000000, 0.000000000000000000, 1.000000000000000000 ) ) ;
#162 = DIRECTION ( 'NONE',  ( 1.000000000000000000, 0.000000000000000000, 0.000000000000000000 ) ) ;
#163 = FACE_OUTER_BOUND ( 'NONE', #129, .T. ) ;
#164 = EDGE_LOOP ( 'NONE', ( #282 ) ) ;
#165 = CARTESIAN_POINT ( 'NONE',  ( 22.65939707172600137, 97.88205407677999403, 25.06840124573399819 ) ) ;
#166 = LINE ( 'NONE', #97, #780 ) ;
#167 = ORIENTED_EDGE ( 'NONE', *, *, #517, .F. ) ;
#168 = VERTEX_POINT ( 'NONE', #28 ) ;
#169 = PLANE ( 'NONE',  #459 ) ;
#170 = VECTOR ( 'NONE', #209, 1000.000000000000000 ) ;
#171 = FACE_OUTER_BOUND ( 'NONE', #714, .T. ) ;
#172 = CARTESIAN_POINT ( 'NONE',  ( 22.65939707172600137, 97.88205407677999403, 25.06840124573399819 ) ) ;
#173 = ORIENTED_EDGE ( 'NONE', *, *, #233, .T. ) ;
#174 = DIRECTION ( 'NONE',  ( -0.000000000000000000, 1.000000000000000000, 0.000000000000000000 ) ) ;
#175 = EDGE_CURVE ( 'NONE', #313, #649, #186, .T. ) ;
#176 = FACE_OUTER_BOUND ( 'NONE', #614, .T. ) ;
#177 = PLANE ( 'NONE',  #904 ) ;
#178 = DIRECTION ( 'NONE',  ( -0.1480765569860089670, 0.000000000000000000, -0.9889759012590596532 ) ) ;
#179 =( BOUNDED_CURVE ( )  B_SPLINE_CURVE ( 3, ( #411, #36, #407, #705 ),
 .UNSPECIFIED., .F., .T. ) 
 B_SPLINE_CURVE_WITH_KNOTS ( ( 4, 4 ),
 ( 1.570796326794896558, 4.712388980384689674 ),
 .UNSPECIFIED. ) 
 CURVE ( )  GEOMETRIC_REPRESENTATION_ITEM ( )  RATIONAL_B_SPLINE_CURVE ( ( 1.000000000000000000, 0.3333333333333333703, 0.3333333333333333703, 1.000000000000000000 ) ) 
 REPRESENTATION_ITEM ( '' )  );
#180 = CARTESIAN_POINT ( 'NONE',  ( 11.91565499723099997, 1.940885684676999734, 51.43605317650299469 ) ) ;
#181 = EDGE_CURVE ( 'NONE', #619, #368, #908, .T. ) ;
#182 = ORIENTED_EDGE ( 'NONE', *, *, #595, .F. ) ;
#183 = CARTESIAN_POINT ( 'NONE',  ( 41.67386826407400235, 0.000000000000000000, 0.000000000000000000 ) ) ;
#184 = CARTESIAN_POINT ( 'NONE',  ( 0.000000000000000000, 0.000000000000000000, 0.000000000000000000 ) ) ;
#185 = AXIS2_PLACEMENT_3D ( 'NONE', #105, #691, #232 ) ;
#186 = LINE ( 'NONE', #325, #583 ) ;
#187 = ADVANCED_FACE ( 'NONE', ( #622, #837 ), #844, .F. ) ;
#188 = ORIENTED_EDGE ( 'NONE', *, *, #945, .F. ) ;
#189 = VERTEX_POINT ( 'NONE', #623 ) ;
#190 = DIRECTION ( 'NONE',  ( 1.000000000000000000, -1.454547483776000096E-30, 0.000000000000000000 ) ) ;
#191 = DIRECTION ( 'NONE',  ( 0.7824399757281400580, 0.000000000000000000, -0.6227260106841111531 ) ) ;
#192 = EDGE_LOOP ( 'NONE', ( #651, #580, #503, #392, #566, #122, #204, #526 ) ) ;
#193 = CARTESIAN_POINT ( 'NONE',  ( 0.000000000000000000, 79.99552026207999234, 83.50381240911001157 ) ) ;
#194 = DIRECTION ( 'NONE',  ( 0.000000000000000000, 0.000000000000000000, 1.000000000000000000 ) ) ;
#195 = EDGE_CURVE ( 'NONE', #530, #669, #496, .T. ) ;
#196 = PRESENTATION_STYLE_ASSIGNMENT (( #738 ) ) ;
#197 = ORIENTED_EDGE ( 'NONE', *, *, #306, .T. ) ;
#198 = CARTESIAN_POINT ( 'NONE',  ( 11.91565499723099997, 0.000000000000000000, 56.94895644021099912 ) ) ;
#199 = DIRECTION ( 'NONE',  ( 0.000000000000000000, 0.000000000000000000, -1.000000000000000000 ) ) ;
#200 = VECTOR ( 'NONE', #153, 1000.000000000000000 ) ;
#201 = VERTEX_POINT ( 'NONE', #435 ) ;
#202 = LINE ( 'NONE', #184, #444 ) ;
#203 = EDGE_CURVE ( 'NONE', #850, #664, #7, .T. ) ;
#204 = ORIENTED_EDGE ( 'NONE', *, *, #831, .T. ) ;
#205 = LINE ( 'NONE', #439, #431 ) ;
#206 = EDGE_LOOP ( 'NONE', ( #29, #704, #733, #9, #610, #84 ) ) ;
#207 = APPLICATION_PROTOCOL_DEFINITION ( 'draft international standard', 'automotive_design', 1998, #475 ) ;
#208 = DIRECTION ( 'NONE',  ( 1.000000000000000000, 0.000000000000000000, 0.000000000000000000 ) ) ;
#209 = DIRECTION ( 'NONE',  ( 0.000000000000000000, -1.000000000000000000, 0.000000000000000000 ) ) ;
#210 = AXIS2_PLACEMENT_3D ( 'NONE', #550, #405, #626 ) ;
#211 = VERTEX_POINT ( 'NONE', #72 ) ;
#212 = EDGE_CURVE ( 'NONE', #201, #252, #68, .T. ) ;
#213 = ORIENTED_EDGE ( 'NONE', *, *, #320, .T. ) ;
#214 = LINE ( 'NONE', #735, #826 ) ;
#215 = DIRECTION ( 'NONE',  ( 0.000000000000000000, -1.000000000000000000, 0.000000000000000000 ) ) ;
#216 = VERTEX_POINT ( 'NONE', #287 ) ;
#217 = EDGE_LOOP ( 'NONE', ( #494 ) ) ;
#218 = CARTESIAN_POINT ( 'NONE',  ( 41.67386826407400235, 5.012903263707999990, 50.93605317650300179 ) ) ;
#219 = SURFACE_SIDE_STYLE ('',( #853 ) ) ;
#220 = EDGE_CURVE ( 'NONE', #669, #116, #590, .T. ) ;
#221 = EDGE_CURVE ( 'NONE', #885, #866, #291, .T. ) ;
#222 = DIRECTION ( 'NONE',  ( 0.000000000000000000, 0.000000000000000000, 1.000000000000000000 ) ) ;
#223 = VERTEX_POINT ( 'NONE', #659 ) ;
#224 = CARTESIAN_POINT ( 'NONE',  ( 41.67386826407400235, 97.88205407677999403, 0.000000000000000000 ) ) ;
#225 = PLANE ( 'NONE',  #708 ) ;
#226 = VECTOR ( 'NONE', #26, 1000.000000000000000 ) ;
#227 = PRESENTATION_LAYER_ASSIGNMENT (  '', '', ( #889 ) ) ;
#228 = ORIENTED_EDGE ( 'NONE', *, *, #456, .T. ) ;
#229 = VECTOR ( 'NONE', #487, 1000.000000000000000 ) ;
#230 = ORIENTED_EDGE ( 'NONE', *, *, #697, .T. ) ;
#231 = CARTESIAN_POINT ( 'NONE',  ( 28.46580812127200133, 97.88205407677999403, 83.50381240911001157 ) ) ;
#232 = DIRECTION ( 'NONE',  ( 0.000000000000000000, 0.000000000000000000, -1.000000000000000000 ) ) ;
#233 = EDGE_CURVE ( 'NONE', #189, #189, #824, .T. ) ;
#234 = ORIENTED_EDGE ( 'NONE', *, *, #396, .F. ) ;
#235 = EDGE_CURVE ( 'NONE', #361, #90, #809, .T. ) ;
#236 = EDGE_LOOP ( 'NONE', ( #774, #112, #718, #604 ) ) ;
#237 = CARTESIAN_POINT ( 'NONE',  ( 0.000000000000000000, 79.99552026207999234, 67.05721293210200429 ) ) ;
#238 = CARTESIAN_POINT ( 'NONE',  ( 41.67386826407400235, 0.000000000000000000, 50.93605317650300179 ) ) ;
#239 = ORIENTED_EDGE ( 'NONE', *, *, #709, .T. ) ;
#240 = ORIENTED_EDGE ( 'NONE', *, *, #638, .T. ) ;
#241 = PLANE ( 'NONE',  #345 ) ;
#242 = CARTESIAN_POINT ( 'NONE',  ( 41.67386826407400235, 73.92869672806500603, 22.74935964297799984 ) ) ;
#243 = LINE ( 'NONE', #341, #152 ) ;
#244 = EDGE_CURVE ( 'NONE', #855, #591, #429, .T. ) ;
#245 = CIRCLE ( 'NONE', #556, 2.151736800917000814 ) ;
#246 = ORIENTED_EDGE ( 'NONE', *, *, #220, .T. ) ;
#247 = CARTESIAN_POINT ( 'NONE',  ( 41.67386826407400235, 73.92869672806500603, 40.17303160559299613 ) ) ;
#248 = AXIS2_PLACEMENT_3D ( 'NONE', #784, #559, #190 ) ;
#249 = VECTOR ( 'NONE', #14, 1000.000000000000000 ) ;
#250 = CARTESIAN_POINT ( 'NONE',  ( 9.346796293134000067, 90.53294278303299336, 9.346796293134000067 ) ) ;
#251 = CYLINDRICAL_SURFACE ( 'NONE', #210, 22.65351038836299935 ) ;
#252 = VERTEX_POINT ( 'NONE', #594 ) ;
#253 = FACE_BOUND ( 'NONE', #700, .T. ) ;
#254 = DIRECTION ( 'NONE',  ( -0.000000000000000000, 1.000000000000000000, 0.000000000000000000 ) ) ;
#255 = ADVANCED_FACE ( 'NONE', ( #884 ), #158, .F. ) ;
#256 = CARTESIAN_POINT ( 'NONE',  ( 22.65939707172600137, 0.000000000000000000, 25.06840124573399819 ) ) ;
#257 = PRODUCT_DEFINITION_CONTEXT ( 'detailed design', #475, 'design' ) ;
#258 = EDGE_LOOP ( 'NONE', ( #289 ) ) ;
#259 = VERTEX_POINT ( 'NONE', #486 ) ;
#260 = DIRECTION ( 'NONE',  ( 1.000000000000000000, -2.185398285736000151E-31, -5.403035247169000242E-31 ) ) ;
#261 = CARTESIAN_POINT ( 'NONE',  ( 41.67386826407400235, 36.21772379756500015, 22.74935964297799984 ) ) ;
#262 = APPLICATION_CONTEXT ( 'automotive_design' ) ;
#263 = ORIENTED_EDGE ( 'NONE', *, *, #363, .F. ) ;
#264 = CARTESIAN_POINT ( 'NONE',  ( 41.67386826407400235, 36.21772379756500015, 22.74935964297799984 ) ) ;
#265 = VECTOR ( 'NONE', #558, 1000.000000000000114 ) ;
#266 = CARTESIAN_POINT ( 'NONE',  ( 26.04757052184599786, 97.88205407677999403, 29.32555817605599913 ) ) ;
#267 = EDGE_CURVE ( 'NONE', #107, #557, #372, .T. ) ;
#268 = VECTOR ( 'NONE', #442, 1000.000000000000000 ) ;
#269 = LINE ( 'NONE', #849, #327 ) ;
#270 = CARTESIAN_POINT ( 'NONE',  ( 25.34984345903399827, 97.88205407677999403, 24.66556833819899808 ) ) ;
#271 = ADVANCED_FACE ( 'NONE', ( #381, #493 ), #225, .T. ) ;
#272 = CARTESIAN_POINT ( 'NONE',  ( 11.91565499723099997, 5.012903263707999990, 50.93605317650300179 ) ) ;
#273 = DIRECTION ( 'NONE',  ( 0.000000000000000000, -1.000000000000000000, 0.000000000000000000 ) ) ;
#274 = EDGE_LOOP ( 'NONE', ( #860 ) ) ;
#275 = CARTESIAN_POINT ( 'NONE',  ( 25.34984345903399827, 97.88205407677999403, 24.66556833819899808 ) ) ;
#276 = CARTESIAN_POINT ( 'NONE',  ( 25.34984345903399827, 97.88205407677999403, 24.66556833819899808 ) ) ;
#277 = ORIENTED_EDGE ( 'NONE', *, *, #938, .T. ) ;
#278 = EDGE_LOOP ( 'NONE', ( #446, #812, #8, #588 ) ) ;
#279 = LINE ( 'NONE', #564, #572 ) ;
#280 = CIRCLE ( 'NONE', #46, 22.65351038836299935 ) ;
#281 = AXIS2_PLACEMENT_3D ( 'NONE', #142, #367, #742 ) ;
#282 = ORIENTED_EDGE ( 'NONE', *, *, #359, .T. ) ;
#283 = CARTESIAN_POINT ( 'NONE',  ( 0.000000000000000000, 79.99552026207999234, 83.50381240911001157 ) ) ;
#284 = ORIENTED_EDGE ( 'NONE', *, *, #569, .F. ) ;
#285 = DIRECTION ( 'NONE',  ( 1.000000000000000000, 0.000000000000000000, 0.000000000000000000 ) ) ;
#286 = DIRECTION ( 'NONE',  ( 1.000000000000000000, 0.000000000000000000, 0.000000000000000000 ) ) ;
#287 = CARTESIAN_POINT ( 'NONE',  ( 6.587793959654999406E-17, 79.99552026207999234, 71.36068653393499517 ) ) ;
#288 = EDGE_CURVE ( 'NONE', #370, #800, #136, .T. ) ;
#289 = ORIENTED_EDGE ( 'NONE', *, *, #734, .T. ) ;
#290 = CARTESIAN_POINT ( 'NONE',  ( 0.000000000000000000, 97.88205407677999403, 0.000000000000000000 ) ) ;
#291 = LINE ( 'NONE', #875, #692 ) ;
#292 = AXIS2_PLACEMENT_3D ( 'NONE', #477, #111, #337 ) ;
#293 = AXIS2_PLACEMENT_3D ( 'NONE', #238, #453, #747 ) ;
#294 = AXIS2_PLACEMENT_3D ( 'NONE', #920, #260, #841 ) ;
#295 = ORIENTED_EDGE ( 'NONE', *, *, #146, .F. ) ;
#296 = DIRECTION ( 'NONE',  ( 0.9305165327138678055, 0.000000000000000000, 0.3662498905749479450 ) ) ;
#297 = EDGE_CURVE ( 'NONE', #656, #322, #798, .T. ) ;
#298 = FILL_AREA_STYLE ('',( #565 ) ) ;
#299 = ORIENTED_EDGE ( 'NONE', *, *, #638, .F. ) ;
#300 = VERTEX_POINT ( 'NONE', #147 ) ;
#301 = DIRECTION ( 'NONE',  ( 1.000000000000000000, 0.000000000000000000, 0.000000000000000000 ) ) ;
#302 = DIRECTION ( 'NONE',  ( 0.000000000000000000, 1.000000000000000000, 0.000000000000000000 ) ) ;
#303 = EDGE_LOOP ( 'NONE', ( #535, #787, #501, #725 ) ) ;
#304 = MANIFOLD_SOLID_BREP ( 'Open CASCADE STEP translator 7.5 16[1]', #582 ) ;
#305 = ORIENTED_EDGE ( 'NONE', *, *, #221, .F. ) ;
#306 = EDGE_CURVE ( 'NONE', #574, #252, #3, .T. ) ;
#307 = CARTESIAN_POINT ( 'NONE',  ( 22.65939707172600137, 0.000000000000000000, 25.06840124573399819 ) ) ;
#308 = PLANE ( 'NONE',  #386 ) ;
#309 = VECTOR ( 'NONE', #771, 1000.000000000000000 ) ;
#310 = AXIS2_PLACEMENT_3D ( 'NONE', #395, #703, #43 ) ;
#311 = FACE_OUTER_BOUND ( 'NONE', #527, .T. ) ;
#312 = VECTOR ( 'NONE', #616, 1000.000000000000000 ) ;
#313 = VERTEX_POINT ( 'NONE', #819 ) ;
#314 = CARTESIAN_POINT ( 'NONE',  ( 0.000000000000000000, 0.000000000000000000, 0.000000000000000000 ) ) ;
#315 = CARTESIAN_POINT ( 'NONE',  ( 41.67386826407400235, 0.000000000000000000, 51.93605317650299469 ) ) ;
#316 = ORIENTED_EDGE ( 'NONE', *, *, #406, .F. ) ;
#317 = ORIENTED_EDGE ( 'NONE', *, *, #569, .T. ) ;
#318 = LINE ( 'NONE', #104, #498 ) ;
#319 = CARTESIAN_POINT ( 'NONE',  ( 27.04393018409399829, 0.000000000000000000, 26.79414680335900201 ) ) ;
#320 = EDGE_CURVE ( 'NONE', #383, #223, #895, .T. ) ;
#321 = EDGE_LOOP ( 'NONE', ( #944, #59, #420, #80, #160 ) ) ;
#322 = VERTEX_POINT ( 'NONE', #319 ) ;
#323 = PLANE ( 'NONE',  #508 ) ;
#324 = LINE ( 'NONE', #762, #312 ) ;
#325 = CARTESIAN_POINT ( 'NONE',  ( 41.67386826407400235, 5.012903263707999990, 50.93605317650300179 ) ) ;
#326 = VECTOR ( 'NONE', #108, 1000.000000000000227 ) ;
#327 = VECTOR ( 'NONE', #33, 1000.000000000000000 ) ;
#328 = VERTEX_POINT ( 'NONE', #825 ) ;
#329 = FACE_OUTER_BOUND ( 'NONE', #4, .T. ) ;
#330 = VECTOR ( 'NONE', #45, 1000.000000000000000 ) ;
#331 = ADVANCED_FACE ( 'NONE', ( #101 ), #31, .T. ) ;
#332 = ADVANCED_FACE ( 'NONE', ( #171 ), #308, .F. ) ;
#333 = FACE_OUTER_BOUND ( 'NONE', #451, .T. ) ;
#334 = ORIENTED_EDGE ( 'NONE', *, *, #436, .F. ) ;
#335 = DIRECTION ( 'NONE',  ( 0.000000000000000000, 0.000000000000000000, -1.000000000000000000 ) ) ;
#336 = CARTESIAN_POINT ( 'NONE',  ( 0.000000000000000000, 0.000000000000000000, 0.000000000000000000 ) ) ;
#337 = DIRECTION ( 'NONE',  ( 0.000000000000000000, 0.000000000000000000, 1.000000000000000000 ) ) ;
#338 = EDGE_LOOP ( 'NONE', ( #19, #182, #156, #516, #485, #99 ) ) ;
#339 = CARTESIAN_POINT ( 'NONE',  ( 26.04757052184599786, 0.000000000000000000, 29.32555817605599913 ) ) ;
#340 = CARTESIAN_POINT ( 'NONE',  ( 33.97854158216100018, 47.44142907063800152, 18.04051074922000097 ) ) ;
#341 = CARTESIAN_POINT ( 'NONE',  ( 28.46580812127200133, 97.88205407677999403, 83.50381240911001157 ) ) ;
#342 = ADVANCED_FACE ( 'NONE', ( #676 ), #767, .T. ) ;
#343 = ORIENTED_EDGE ( 'NONE', *, *, #687, .T. ) ;
#344 = CARTESIAN_POINT ( 'NONE',  ( 33.97854158216100018, 97.88205407677999403, 20.12347232490300186 ) ) ;
#345 = AXIS2_PLACEMENT_3D ( 'NONE', #536, #161, #452 ) ;
#346 = PLANE ( 'NONE',  #248 ) ;
#347 = VECTOR ( 'NONE', #779, 1000.000000000000227 ) ;
#348 = CARTESIAN_POINT ( 'NONE',  ( 41.67386826407400235, 0.000000000000000000, 0.000000000000000000 ) ) ;
#349 = CARTESIAN_POINT ( 'NONE',  ( 11.91565499723099997, 5.012903263707999990, 51.93605317650299469 ) ) ;
#350 = CARTESIAN_POINT ( 'NONE',  ( 41.67386826407400235, 73.92869672806500603, 22.74935964297799984 ) ) ;
#351 = EDGE_CURVE ( 'NONE', #86, #300, #17, .T. ) ;
#352 = ORIENTED_EDGE ( 'NONE', *, *, #645, .T. ) ;
#353 = DIRECTION ( 'NONE',  ( 0.000000000000000000, 1.000000000000000000, 0.000000000000000000 ) ) ;
#354 = LINE ( 'NONE', #266, #79 ) ;
#355 = VERTEX_POINT ( 'NONE', #621 ) ;
#356 = ORIENTED_EDGE ( 'NONE', *, *, #928, .T. ) ;
#357 = DIRECTION ( 'NONE',  ( 0.000000000000000000, -1.000000000000000000, 0.000000000000000000 ) ) ;
#358 = CIRCLE ( 'NONE', #643, 2.082961575682999111 ) ;
#359 = EDGE_CURVE ( 'NONE', #715, #715, #462, .T. ) ;
#360 = AXIS2_PLACEMENT_3D ( 'NONE', #773, #488, #38 ) ;
#361 = VERTEX_POINT ( 'NONE', #27 ) ;
#362 = PLANE ( 'NONE',  #481 ) ;
#363 = EDGE_CURVE ( 'NONE', #355, #216, #324, .T. ) ;
#364 = CARTESIAN_POINT ( 'NONE',  ( 41.67386826407400235, 0.000000000000000000, 0.000000000000000000 ) ) ;
#365 = VERTEX_POINT ( 'NONE', #549 ) ;
#366 = CARTESIAN_POINT ( 'NONE',  ( 21.66303740947800449, 0.000000000000000000, 27.59981261843099887 ) ) ;
#367 = DIRECTION ( 'NONE',  ( 0.000000000000000000, 0.000000000000000000, 1.000000000000000000 ) ) ;
#368 = VERTEX_POINT ( 'NONE', #905 ) ;
#369 = EDGE_CURVE ( 'NONE', #530, #383, #911, .T. ) ;
#370 = VERTEX_POINT ( 'NONE', #533 ) ;
#371 = CARTESIAN_POINT ( 'NONE',  ( 27.04393018409399829, 0.000000000000000000, 26.79414680335900201 ) ) ;
#372 = LINE ( 'NONE', #440, #808 ) ;
#373 = CIRCLE ( 'NONE', #907, 5.012903263707999102 ) ;
#374 = ORIENTED_EDGE ( 'NONE', *, *, #18, .F. ) ;
#375 = VERTEX_POINT ( 'NONE', #891 ) ;
#376 = LINE ( 'NONE', #657, #418 ) ;
#377 = EDGE_CURVE ( 'NONE', #649, #887, #166, .T. ) ;
#378 = ORIENTED_EDGE ( 'NONE', *, *, #363, .T. ) ;
#379 = ORIENTED_EDGE ( 'NONE', *, *, #351, .F. ) ;
#380 = DIRECTION ( 'NONE',  ( 0.000000000000000000, 1.000000000000000000, 0.000000000000000000 ) ) ;
#381 = FACE_BOUND ( 'NONE', #78, .T. ) ;
#382 = LINE ( 'NONE', #672, #200 ) ;
#383 = VERTEX_POINT ( 'NONE', #830 ) ;
#384 = CARTESIAN_POINT ( 'NONE',  ( 0.000000000000000000, 0.000000000000000000, 0.000000000000000000 ) ) ;
#385 = FACE_OUTER_BOUND ( 'NONE', #608, .T. ) ;
#386 = AXIS2_PLACEMENT_3D ( 'NONE', #600, #162, #612 ) ;
#387 = EDGE_LOOP ( 'NONE', ( #472, #913, #468, #680 ) ) ;
#388 = EDGE_LOOP ( 'NONE', ( #12, #711, #820 ) ) ;
#389 = DIRECTION ( 'NONE',  ( 0.000000000000000000, 0.000000000000000000, 1.000000000000000000 ) ) ;
#390 = ADVANCED_FACE ( 'NONE', ( #176 ), #110, .F. ) ;
#391 = DIRECTION ( 'NONE',  ( 0.000000000000000000, -1.000000000000000000, 0.000000000000000000 ) ) ;
#392 = ORIENTED_EDGE ( 'NONE', *, *, #18, .T. ) ;
#393 = DIRECTION ( 'NONE',  ( -0.000000000000000000, 1.000000000000000000, 0.000000000000000000 ) ) ;
#394 = DIRECTION ( 'NONE',  ( -0.000000000000000000, 1.000000000000000000, 0.000000000000000000 ) ) ;
#395 = CARTESIAN_POINT ( 'NONE',  ( 41.67386826407400235, 73.92869672806500603, 40.17303160559299613 ) ) ;
#396 = EDGE_CURVE ( 'NONE', #790, #313, #737, .T. ) ;
#397 = ADVANCED_FACE ( 'NONE', ( #385 ), #458, .F. ) ;
#398 = EDGE_LOOP ( 'NONE', ( #603, #239, #902, #13 ) ) ;
#399 = DIRECTION ( 'NONE',  ( 0.000000000000000000, -1.000000000000000000, 0.000000000000000000 ) ) ;
#400 = DIRECTION ( 'NONE',  ( 0.000000000000000000, 0.000000000000000000, 1.000000000000000000 ) ) ;
#401 = CARTESIAN_POINT ( 'NONE',  ( 0.000000000000000000, 0.000000000000000000, 0.000000000000000000 ) ) ;
#402 = PLANE ( 'NONE',  #66 ) ;
#403 = CIRCLE ( 'NONE', #511, 5.012903263707999102 ) ;
#404 = LINE ( 'NONE', #916, #330 ) ;
#405 = DIRECTION ( 'NONE',  ( 0.000000000000000000, 1.000000000000000000, 0.000000000000000000 ) ) ;
#406 = EDGE_CURVE ( 'NONE', #259, #259, #585, .T. ) ;
#407 = CARTESIAN_POINT ( 'NONE',  ( 4.303473601832552120, 82.69961444314094479, 71.36068653393600414 ) ) ;
#408 = PLANE ( 'NONE',  #32 ) ;
#409 = PLANE ( 'NONE',  #310 ) ;
#410 = ORIENTED_EDGE ( 'NONE', *, *, #369, .T. ) ;
#411 = CARTESIAN_POINT ( 'NONE',  ( 0.000000000000000000, 79.99552026207999234, 67.05721293210200429 ) ) ;
#412 = LINE ( 'NONE', #635, #49 ) ;
#413 = DIRECTION ( 'NONE',  ( -0.000000000000000000, 1.000000000000000000, 0.000000000000000000 ) ) ;
#414 = DIRECTION ( 'NONE',  ( 0.000000000000000000, 0.000000000000000000, -1.000000000000000000 ) ) ;
#415 = VECTOR ( 'NONE', #917, 1000.000000000000000 ) ;
#416 = FACE_OUTER_BOUND ( 'NONE', #765, .T. ) ;
#417 = ADVANCED_FACE ( 'NONE', ( #42, #416 ), #346, .T. ) ;
#418 = VECTOR ( 'NONE', #6, 1000.000000000000000 ) ;
#419 = PRODUCT ( '20260414_160844_175', '20260414_160844_175', '', ( #144 ) ) ;
#420 = ORIENTED_EDGE ( 'NONE', *, *, #235, .T. ) ;
#421 = LINE ( 'NONE', #701, #326 ) ;
#422 = FACE_OUTER_BOUND ( 'NONE', #587, .T. ) ;
#423 = ORIENTED_EDGE ( 'NONE', *, *, #666, .F. ) ;
#424 = EDGE_CURVE ( 'NONE', #664, #574, #404, .T. ) ;
#425 = LINE ( 'NONE', #434, #1 ) ;
#426 = ORIENTED_EDGE ( 'NONE', *, *, #195, .T. ) ;
#427 = FACE_OUTER_BOUND ( 'NONE', #897, .T. ) ;
#428 = VECTOR ( 'NONE', #751, 1000.000000000000000 ) ;
#429 = LINE ( 'NONE', #519, #948 ) ;
#430 = ADVANCED_BREP_SHAPE_REPRESENTATION ( '20260414_160844_175', ( #304, #921 ), #602 ) ;
#431 = VECTOR ( 'NONE', #2, 1000.000000000000000 ) ;
#432 = EDGE_CURVE ( 'NONE', #649, #168, #403, .T. ) ;
#433 = VERTEX_POINT ( 'NONE', #573 ) ;
#434 = CARTESIAN_POINT ( 'NONE',  ( 0.000000000000000000, 0.000000000000000000, 0.000000000000000000 ) ) ;
#435 = CARTESIAN_POINT ( 'NONE',  ( 23.35712413453900282, 97.88205407677999403, 29.72839108359200111 ) ) ;
#436 = EDGE_CURVE ( 'NONE', #365, #368, #119, .T. ) ;
#437 = ORIENTED_EDGE ( 'NONE', *, *, #938, .F. ) ;
#438 = CARTESIAN_POINT ( 'NONE',  ( 0.000000000000000000, 0.000000000000000000, 0.000000000000000000 ) ) ;
#439 = CARTESIAN_POINT ( 'NONE',  ( 41.67386826407400235, -3.069517965235000087E-16, 45.92314991279500447 ) ) ;
#440 = CARTESIAN_POINT ( 'NONE',  ( 31.22562939609800026, 73.92869672806500603, 22.74935964297799984 ) ) ;
#441 = ORIENTED_EDGE ( 'NONE', *, *, #630, .F. ) ;
#442 = DIRECTION ( 'NONE',  ( 0.000000000000000000, 0.000000000000000000, 1.000000000000000000 ) ) ;
#443 = DIRECTION ( 'NONE',  ( 0.000000000000000000, 0.000000000000000000, -1.000000000000000000 ) ) ;
#444 = VECTOR ( 'NONE', #483, 1000.000000000000000 ) ;
#445 = VECTOR ( 'NONE', #552, 1000.000000000000000 ) ;
#446 = ORIENTED_EDGE ( 'NONE', *, *, #175, .T. ) ;
#447 = EDGE_LOOP ( 'NONE', ( #845, #806, #437, #305 ) ) ;
#448 = DIRECTION ( 'NONE',  ( 0.000000000000000000, 1.000000000000000000, 0.000000000000000000 ) ) ;
#449 = CARTESIAN_POINT ( 'NONE',  ( 0.000000000000000000, 97.88205407677999403, 0.000000000000000000 ) ) ;
#450 = EDGE_LOOP ( 'NONE', ( #749, #356, #542, #546, #295, #876, #872, #234 ) ) ;
#451 = EDGE_LOOP ( 'NONE', ( #230, #864, #461, #695 ) ) ;
#452 = DIRECTION ( 'NONE',  ( 1.000000000000000000, 0.000000000000000000, 0.000000000000000000 ) ) ;
#453 = DIRECTION ( 'NONE',  ( 1.000000000000000000, 0.000000000000000000, 0.000000000000000000 ) ) ;
#454 = CARTESIAN_POINT ( 'NONE',  ( 0.000000000000000000, 97.88205407677999403, 22.65351038836299935 ) ) ;
#455 = ORIENTED_EDGE ( 'NONE', *, *, #863, .F. ) ;
#456 = EDGE_CURVE ( 'NONE', #223, #211, #713, .T. ) ;
#457 = FACE_OUTER_BOUND ( 'NONE', #918, .T. ) ;
#458 = CYLINDRICAL_SURFACE ( 'NONE', #710, 5.012903263707999102 ) ;
#459 = AXIS2_PLACEMENT_3D ( 'NONE', #314, #174, #10 ) ;
#460 = AXIS2_PLACEMENT_3D ( 'NONE', #795, #947, #667 ) ;
#461 = ORIENTED_EDGE ( 'NONE', *, *, #118, .F. ) ;
#462 = CIRCLE ( 'NONE', #890, 1.821373631532001491 ) ;
#463 = ORIENTED_EDGE ( 'NONE', *, *, #842, .T. ) ;
#464 = DIRECTION ( 'NONE',  ( 1.000000000000000000, 0.000000000000000000, 0.000000000000000000 ) ) ;
#465 = CARTESIAN_POINT ( 'NONE',  ( 0.000000000000000000, 97.88205407677999403, 38.80879184189300446 ) ) ;
#466 = ADVANCED_FACE ( 'NONE', ( #422 ), #932, .T. ) ;
#467 = DIRECTION ( 'NONE',  ( 0.000000000000000000, 1.000000000000000000, 0.000000000000000000 ) ) ;
#468 = ORIENTED_EDGE ( 'NONE', *, *, #93, .F. ) ;
#469 = CARTESIAN_POINT ( 'NONE',  ( 33.97854158216100018, 97.88205407677999403, 18.04051074922000097 ) ) ;
#470 = DIRECTION ( 'NONE',  ( 0.000000000000000000, -1.000000000000000000, 0.000000000000000000 ) ) ;
#471 = DIRECTION ( 'NONE',  ( 0.000000000000000000, -1.000000000000000000, 0.000000000000000000 ) ) ;
#472 = ORIENTED_EDGE ( 'NONE', *, *, #203, .T. ) ;
#473 = LINE ( 'NONE', #563, #309 ) ;
#474 = DIRECTION ( 'NONE',  ( -1.000000000000000000, 0.000000000000000000, 0.000000000000000000 ) ) ;
#475 = APPLICATION_CONTEXT ( 'automotive_design' ) ;
#476 = EDGE_CURVE ( 'NONE', #664, #201, #37, .T. ) ;
#477 = CARTESIAN_POINT ( 'NONE',  ( 33.97854158216100018, 97.88205407677999403, 18.04051074922000097 ) ) ;
#478 = VECTOR ( 'NONE', #76, 1000.000000000000000 ) ;
#479 = ORIENTED_EDGE ( 'NONE', *, *, #69, .F. ) ;
#480 = DIRECTION ( 'NONE',  ( -0.7824399757281400580, 0.000000000000000000, 0.6227260106841111531 ) ) ;
#481 = AXIS2_PLACEMENT_3D ( 'NONE', #290, #652, #141 ) ;
#482 = VECTOR ( 'NONE', #670, 1000.000000000000000 ) ;
#483 = DIRECTION ( 'NONE',  ( 0.000000000000000000, 0.000000000000000000, 1.000000000000000000 ) ) ;
#484 = DIRECTION ( 'NONE',  ( 1.000000000000000000, 0.000000000000000000, 0.000000000000000000 ) ) ;
#485 = ORIENTED_EDGE ( 'NONE', *, *, #896, .F. ) ;
#486 = CARTESIAN_POINT ( 'NONE',  ( 33.97854158216100018, 47.44142907063800152, 20.12347232490300186 ) ) ;
#487 = DIRECTION ( 'NONE',  ( -1.000000000000000000, 0.000000000000000000, 0.000000000000000000 ) ) ;
#488 = DIRECTION ( 'NONE',  ( 1.000000000000000000, 0.000000000000000000, 0.000000000000000000 ) ) ;
#489 = VERTEX_POINT ( 'NONE', #336 ) ;
#490 = DIRECTION ( 'NONE',  ( 0.000000000000000000, 0.000000000000000000, 1.000000000000000000 ) ) ;
#491 = EDGE_CURVE ( 'NONE', #211, #383, #927, .T. ) ;
#492 = DIRECTION ( 'NONE',  ( 0.000000000000000000, 0.000000000000000000, 1.000000000000000000 ) ) ;
#493 = FACE_OUTER_BOUND ( 'NONE', #450, .T. ) ;
#494 = ORIENTED_EDGE ( 'NONE', *, *, #359, .F. ) ;
#495 = LINE ( 'NONE', #339, #265 ) ;
#496 = CIRCLE ( 'NONE', #460, 22.65351038836299935 ) ;
#497 = CARTESIAN_POINT ( 'NONE',  ( 0.000000000000000000, 97.88205407677999403, 22.65351038836299935 ) ) ;
#498 = VECTOR ( 'NONE', #399, 1000.000000000000000 ) ;
#499 = ADVANCED_FACE ( 'NONE', ( #702 ), #624, .F. ) ;
#500 = EDGE_CURVE ( 'NONE', #885, #656, #354, .T. ) ;
#501 = ORIENTED_EDGE ( 'NONE', *, *, #306, .F. ) ;
#502 = DIRECTION ( 'NONE',  ( 1.000000000000000000, 0.000000000000000000, 0.000000000000000000 ) ) ;
#503 = ORIENTED_EDGE ( 'NONE', *, *, #369, .F. ) ;
#504 = CARTESIAN_POINT ( 'NONE',  ( 41.67386826407400235, 73.92869672806500603, 40.17303160559299613 ) ) ;
#505 = ORIENTED_EDGE ( 'NONE', *, *, #717, .T. ) ;
#506 =( NAMED_UNIT ( * ) PLANE_ANGLE_UNIT ( ) SI_UNIT ( $, .RADIAN. ) );
#507 = LINE ( 'NONE', #794, #793 ) ;
#508 = AXIS2_PLACEMENT_3D ( 'NONE', #165, #598, #888 ) ;
#509 = VECTOR ( 'NONE', #833, 1000.000000000000000 ) ;
#510 = CARTESIAN_POINT ( 'NONE',  ( 33.97854158216100018, 97.88205407677999403, 18.04051074922000097 ) ) ;
#511 = AXIS2_PLACEMENT_3D ( 'NONE', #629, #502, #130 ) ;
#512 = ORIENTED_EDGE ( 'NONE', *, *, #220, .F. ) ;
#513 = VERTEX_POINT ( 'NONE', #276 ) ;
#514 = CARTESIAN_POINT ( 'NONE',  ( 21.66303740947800449, 97.88205407677999403, 27.59981261843099887 ) ) ;
#515 = CARTESIAN_POINT ( 'NONE',  ( 25.34984345903399827, 0.000000000000000000, 24.66556833819899808 ) ) ;
#516 = ORIENTED_EDGE ( 'NONE', *, *, #203, .F. ) ;
#517 = EDGE_CURVE ( 'NONE', #86, #107, #53, .T. ) ;
#518 = DIRECTION ( 'NONE',  ( 0.000000000000000000, 0.000000000000000000, 1.000000000000000000 ) ) ;
#519 = CARTESIAN_POINT ( 'NONE',  ( 22.65351038836299935, 90.53294278303299336, 0.000000000000000000 ) ) ;
#520 = DIRECTION ( 'NONE',  ( 0.000000000000000000, 0.000000000000000000, -1.000000000000000000 ) ) ;
#521 = ORIENTED_EDGE ( 'NONE', *, *, #288, .F. ) ;
#522 = CARTESIAN_POINT ( 'NONE',  ( 22.65351038836299935, 97.88205407677999403, 6.935637298705999824E-16 ) ) ;
#523 = DIRECTION ( 'NONE',  ( -0.3662498905749479450, 0.000000000000000000, 0.9305165327138678055 ) ) ;
#524 = COLOUR_RGB ( '',0.7921568627450980005, 0.8196078431372548767, 0.9333333333333333481 ) ;
#525 = EDGE_CURVE ( 'NONE', #328, #760, #412, .T. ) ;
#526 = ORIENTED_EDGE ( 'NONE', *, *, #525, .T. ) ;
#527 = EDGE_LOOP ( 'NONE', ( #661, #343, #134, #167 ) ) ;
#528 = DIRECTION ( 'NONE',  ( 0.000000000000000000, 1.000000000000000000, 0.000000000000000000 ) ) ;
#529 = EDGE_CURVE ( 'NONE', #720, #619, #857, .T. ) ;
#530 = VERTEX_POINT ( 'NONE', #497 ) ;
#531 = VERTEX_POINT ( 'NONE', #272 ) ;
#532 = CARTESIAN_POINT ( 'NONE',  ( 31.22562939609800026, 36.21772379756500015, 22.74935964297799984 ) ) ;
#533 = CARTESIAN_POINT ( 'NONE',  ( 25.34984345903399827, 0.000000000000000000, 24.66556833819899808 ) ) ;
#534 = ORIENTED_EDGE ( 'NONE', *, *, #930, .T. ) ;
#535 = ORIENTED_EDGE ( 'NONE', *, *, #476, .T. ) ;
#536 = CARTESIAN_POINT ( 'NONE',  ( 11.04954315534500076, 92.12214807472099665, 38.80879184189300446 ) ) ;
#537 = CARTESIAN_POINT ( 'NONE',  ( 33.97854158216100018, 47.44142907063800152, 18.04051074922000097 ) ) ;
#538 = EDGE_CURVE ( 'NONE', #760, #223, #279, .T. ) ;
#539 = VECTOR ( 'NONE', #222, 1000.000000000000000 ) ;
#540 = CARTESIAN_POINT ( 'NONE',  ( 41.67386826407400235, 73.92869672806500603, 22.74935964297799984 ) ) ;
#541 = VECTOR ( 'NONE', #874, 1000.000000000000000 ) ;
#542 = ORIENTED_EDGE ( 'NONE', *, *, #609, .T. ) ;
#543 = CARTESIAN_POINT ( 'NONE',  ( 11.91565499723099997, 0.000000000000000000, 50.93605317650300179 ) ) ;
#544 = CARTESIAN_POINT ( 'NONE',  ( 0.000000000000000000, 97.88205407677999403, 0.000000000000000000 ) ) ;
#545 = DIRECTION ( 'NONE',  ( 1.000000000000000000, 0.000000000000000000, 0.000000000000000000 ) ) ;
#546 = ORIENTED_EDGE ( 'NONE', *, *, #235, .F. ) ;
#547 = CARTESIAN_POINT ( 'NONE',  ( 26.04757052184599786, 97.88205407677999403, 29.32555817605599913 ) ) ;
#548 = EDGE_CURVE ( 'NONE', #355, #901, #202, .T. ) ;
#549 = CARTESIAN_POINT ( 'NONE',  ( 31.22562939609800026, 36.21772379756500015, 40.17303160559299613 ) ) ;
#550 = CARTESIAN_POINT ( 'NONE',  ( 0.000000000000000000, 97.88205407677999403, 0.000000000000000000 ) ) ;
#551 = ORIENTED_EDGE ( 'NONE', *, *, #697, .F. ) ;
#552 = DIRECTION ( 'NONE',  ( 0.000000000000000000, 1.000000000000000000, 0.000000000000000000 ) ) ;
#553 = DIRECTION ( 'NONE',  ( 0.000000000000000000, 0.000000000000000000, -1.000000000000000000 ) ) ;
#554 = CARTESIAN_POINT ( 'NONE',  ( 41.67386826407400235, 73.92869672806500603, 22.74935964297799984 ) ) ;
#555 = AXIS2_PLACEMENT_3D ( 'NONE', #741, #380, #818 ) ;
#556 = AXIS2_PLACEMENT_3D ( 'NONE', #560, #471, #115 ) ;
#557 = VERTEX_POINT ( 'NONE', #772 ) ;
#558 = DIRECTION ( 'NONE',  ( 0.3662498905749479450, 0.000000000000000000, -0.9305165327138678055 ) ) ;
#559 = DIRECTION ( 'NONE',  ( 1.454547483776000096E-30, 1.000000000000000000, -9.696983225170998473E-31 ) ) ;
#560 = CARTESIAN_POINT ( 'NONE',  ( 0.000000000000000000, 0.000000000000000000, 69.20894973301899711 ) ) ;
#561 = ADVANCED_FACE ( 'NONE', ( #114 ), #408, .T. ) ;
#562 = ORIENTED_EDGE ( 'NONE', *, *, #548, .F. ) ;
#563 = CARTESIAN_POINT ( 'NONE',  ( 41.67386826407400235, 0.000000000000000000, 0.000000000000000000 ) ) ;
#564 = CARTESIAN_POINT ( 'NONE',  ( 0.000000000000000000, 79.99552026207999234, 83.50381240911001157 ) ) ;
#565 = FILL_AREA_STYLE_COLOUR ( '', #524 ) ;
#566 = ORIENTED_EDGE ( 'NONE', *, *, #24, .F. ) ;
#567 = LINE ( 'NONE', #198, #599 ) ;
#568 = DIRECTION ( 'NONE',  ( -1.000000000000000000, 0.000000000000000000, 0.000000000000000000 ) ) ;
#569 = EDGE_CURVE ( 'NONE', #790, #877, #205, .T. ) ;
#570 = EDGE_LOOP ( 'NONE', ( #63 ) ) ;
#571 = AXIS2_PLACEMENT_3D ( 'NONE', #744, #520, #89 ) ;
#572 = VECTOR ( 'NONE', #553, 1000.000000000000000 ) ;
#573 = CARTESIAN_POINT ( 'NONE',  ( 11.91565499723099997, 6.139035945414998621E-16, 56.94895644021099912 ) ) ;
#574 = VERTEX_POINT ( 'NONE', #366 ) ;
#575 = PLANE ( 'NONE',  #677 ) ;
#576 = ADVANCED_FACE ( 'NONE', ( #802, #67, #427 ), #362, .T. ) ;
#577 = VERTEX_POINT ( 'NONE', #283 ) ;
#578 = PRODUCT_RELATED_PRODUCT_CATEGORY ( 'part', '', ( #419 ) ) ;
#579 = DIRECTION ( 'NONE',  ( 0.9889759012590595422, 0.000000000000000000, -0.1480765569860089392 ) ) ;
#580 = ORIENTED_EDGE ( 'NONE', *, *, #320, .F. ) ;
#581 = LINE ( 'NONE', #218, #541 ) ;
#582 = CLOSED_SHELL ( 'NONE', ( #331, #791, #466, #417, #342, #832, #133, #56, #34, #758, #187, #151, #11, #854, #810, #906, #75, #586, #397, #57, #499, #255, #606, #822, #271, #576, #728, #390, #743, #561, #332 ) ) ;
#583 = VECTOR ( 'NONE', #618, 1000.000000000000000 ) ;
#584 = DIRECTION ( 'NONE',  ( 1.000000000000000000, 0.000000000000000000, 0.000000000000000000 ) ) ;
#585 = CIRCLE ( 'NONE', #126, 2.082961575682999111 ) ;
#586 = ADVANCED_FACE ( 'NONE', ( #589 ), #943, .F. ) ;
#587 = EDGE_LOOP ( 'NONE', ( #834, #730, #51, #597 ) ) ;
#588 = ORIENTED_EDGE ( 'NONE', *, *, #645, .F. ) ;
#589 = FACE_OUTER_BOUND ( 'NONE', #447, .T. ) ;
#590 = LINE ( 'NONE', #449, #77 ) ;
#591 = VERTEX_POINT ( 'NONE', #731 ) ;
#592 = ORIENTED_EDGE ( 'NONE', *, *, #212, .F. ) ;
#593 = DIRECTION ( 'NONE',  ( -1.000000000000000000, 0.000000000000000000, 0.000000000000000000 ) ) ;
#594 = CARTESIAN_POINT ( 'NONE',  ( 23.35712413453900282, 0.000000000000000000, 29.72839108359200111 ) ) ;
#595 = EDGE_CURVE ( 'NONE', #201, #885, #648, .T. ) ;
#596 = PLANE ( 'NONE',  #571 ) ;
#597 = ORIENTED_EDGE ( 'NONE', *, *, #436, .T. ) ;
#598 = DIRECTION ( 'NONE',  ( -0.9305165327138678055, 0.000000000000000000, -0.3662498905749479450 ) ) ;
#599 = VECTOR ( 'NONE', #335, 1000.000000000000000 ) ;
#600 = CARTESIAN_POINT ( 'NONE',  ( 0.000000000000000000, 0.000000000000000000, 0.000000000000000000 ) ) ;
#601 = VECTOR ( 'NONE', #836, 1000.000000000000000 ) ;
#602 =( GEOMETRIC_REPRESENTATION_CONTEXT ( 3 ) GLOBAL_UNCERTAINTY_ASSIGNED_CONTEXT ( ( #838 ) ) GLOBAL_UNIT_ASSIGNED_CONTEXT ( ( #662, #506, #64 ) ) REPRESENTATION_CONTEXT ( 'NONE', 'WORKASPACE' ) );
#603 = ORIENTED_EDGE ( 'NONE', *, *, #945, .T. ) ;
#604 = ORIENTED_EDGE ( 'NONE', *, *, #181, .F. ) ;
#605 = DIRECTION ( 'NONE',  ( 0.000000000000000000, 1.000000000000000000, 0.000000000000000000 ) ) ;
#606 = ADVANCED_FACE ( 'NONE', ( #946 ), #575, .F. ) ;
#607 = DIRECTION ( 'NONE',  ( 1.000000000000000000, 0.000000000000000000, 0.000000000000000000 ) ) ;
#608 = EDGE_LOOP ( 'NONE', ( #813, #881, #644, #35 ) ) ;
#609 = EDGE_CURVE ( 'NONE', #116, #90, #74, .T. ) ;
#610 = ORIENTED_EDGE ( 'NONE', *, *, #47, .F. ) ;
#611 = DIRECTION ( 'NONE',  ( 1.000000000000000000, 0.000000000000000000, 0.000000000000000000 ) ) ;
#612 = DIRECTION ( 'NONE',  ( 0.000000000000000000, 1.000000000000000000, 0.000000000000000000 ) ) ;
#613 = ORIENTED_EDGE ( 'NONE', *, *, #65, .T. ) ;
#614 = EDGE_LOOP ( 'NONE', ( #378, #143, #933, #95 ) ) ;
#615 = CARTESIAN_POINT ( 'NONE',  ( 11.91565499723099997, 5.012903263707999990, 50.93605317650300179 ) ) ;
#616 = DIRECTION ( 'NONE',  ( 0.000000000000000000, 1.000000000000000000, 0.000000000000000000 ) ) ;
#617 = VECTOR ( 'NONE', #199, 1000.000000000000000 ) ;
#618 = DIRECTION ( 'NONE',  ( 0.000000000000000000, 0.000000000000000000, 1.000000000000000000 ) ) ;
#619 = VERTEX_POINT ( 'NONE', #941 ) ;
#620 = LINE ( 'NONE', #615, #482 ) ;
#621 = CARTESIAN_POINT ( 'NONE',  ( 1.317558791931000128E-16, 0.000000000000000000, 71.36068653393499517 ) ) ;
#622 = FACE_OUTER_BOUND ( 'NONE', #70, .T. ) ;
#623 = CARTESIAN_POINT ( 'NONE',  ( 33.97854158216100018, 97.88205407677999403, 16.21913711768799971 ) ) ;
#624 = CYLINDRICAL_SURFACE ( 'NONE', #721, 5.012903263707999102 ) ;
#625 = EDGE_CURVE ( 'NONE', #252, #866, #507, .T. ) ;
#626 = DIRECTION ( 'NONE',  ( 0.000000000000000000, 0.000000000000000000, 1.000000000000000000 ) ) ;
#627 = ORIENTED_EDGE ( 'NONE', *, *, #396, .T. ) ;
#628 = LINE ( 'NONE', #264, #445 ) ;
#629 = CARTESIAN_POINT ( 'NONE',  ( 41.67386826407400235, 0.000000000000000000, 51.93605317650299469 ) ) ;
#630 = EDGE_CURVE ( 'NONE', #322, #370, #797, .T. ) ;
#631 = CARTESIAN_POINT ( 'NONE',  ( 31.22562939609800026, 73.92869672806500603, 22.74935964297799984 ) ) ;
#632 = AXIS2_PLACEMENT_3D ( 'NONE', #30, #393, #611 ) ;
#633 =( GEOMETRIC_REPRESENTATION_CONTEXT ( 3 ) GLOBAL_UNCERTAINTY_ASSIGNED_CONTEXT ( ( #121 ) ) GLOBAL_UNIT_ASSIGNED_CONTEXT ( ( #83, #724, #686 ) ) REPRESENTATION_CONTEXT ( 'NONE', 'WORKASPACE' ) );
#634 = ORIENTED_EDGE ( 'NONE', *, *, #717, .F. ) ;
#635 = CARTESIAN_POINT ( 'NONE',  ( 0.000000000000000000, 0.000000000000000000, 67.05721293210200429 ) ) ;
#636 = LINE ( 'NONE', #401, #415 ) ;
#637 = DIRECTION ( 'NONE',  ( 0.000000000000000000, 1.000000000000000000, 0.000000000000000000 ) ) ;
#638 = EDGE_CURVE ( 'NONE', #489, #740, #425, .T. ) ;
#639 = DIRECTION ( 'NONE',  ( 1.000000000000000000, 0.000000000000000000, 0.000000000000000000 ) ) ;
#640 = ORIENTED_EDGE ( 'NONE', *, *, #195, .F. ) ;
#641 = CARTESIAN_POINT ( 'NONE',  ( 22.65939707172600137, 97.88205407677999403, 25.06840124573399819 ) ) ;
#642 = CARTESIAN_POINT ( 'NONE',  ( 41.67386826407400235, 36.21772379756500015, 40.17303160559299613 ) ) ;
#643 = AXIS2_PLACEMENT_3D ( 'NONE', #469, #605, #100 ) ;
#644 = ORIENTED_EDGE ( 'NONE', *, *, #128, .F. ) ;
#645 = EDGE_CURVE ( 'NONE', #313, #531, #581, .T. ) ;
#646 = AXIS2_PLACEMENT_3D ( 'NONE', #540, #413, #484 ) ;
#647 = VECTOR ( 'NONE', #716, 1000.000000000000000 ) ;
#648 = LINE ( 'NONE', #149, #16 ) ;
#649 = VERTEX_POINT ( 'NONE', #719 ) ;
#650 = CARTESIAN_POINT ( 'NONE',  ( 26.04757052184599786, 97.88205407677999403, 29.32555817605599913 ) ) ;
#651 = ORIENTED_EDGE ( 'NONE', *, *, #538, .T. ) ;
#652 = DIRECTION ( 'NONE',  ( -0.000000000000000000, 1.000000000000000000, 0.000000000000000000 ) ) ;
#653 = DIRECTION ( 'NONE',  ( 0.000000000000000000, 1.000000000000000000, 0.000000000000000000 ) ) ;
#654 = EDGE_CURVE ( 'NONE', #168, #433, #214, .T. ) ;
#655 = ORIENTED_EDGE ( 'NONE', *, *, #928, .F. ) ;
#656 = VERTEX_POINT ( 'NONE', #665 ) ;
#657 = CARTESIAN_POINT ( 'NONE',  ( 0.000000000000000000, 0.000000000000000000, 83.50381240911001157 ) ) ;
#658 = VECTOR ( 'NONE', #693, 1000.000000000000000 ) ;
#659 = CARTESIAN_POINT ( 'NONE',  ( 0.000000000000000000, 79.99552026207999234, 38.80879184189300446 ) ) ;
#660 = VECTOR ( 'NONE', #593, 1000.000000000000000 ) ;
#661 = ORIENTED_EDGE ( 'NONE', *, *, #351, .T. ) ;
#662 =( LENGTH_UNIT ( ) NAMED_UNIT ( * ) SI_UNIT ( .MILLI., .METRE. ) );
#663 = EDGE_CURVE ( 'NONE', #513, #370, #82, .T. ) ;
#664 = VERTEX_POINT ( 'NONE', #514 ) ;
#665 = CARTESIAN_POINT ( 'NONE',  ( 27.04393018409399829, 97.88205407677999403, 26.79414680335900201 ) ) ;
#666 = EDGE_CURVE ( 'NONE', #901, #361, #376, .T. ) ;
#667 = DIRECTION ( 'NONE',  ( 0.000000000000000000, 0.000000000000000000, 1.000000000000000000 ) ) ;
#668 = CARTESIAN_POINT ( 'NONE',  ( 0.000000000000000000, 90.53294278303299336, 0.000000000000000000 ) ) ;
#669 = VERTEX_POINT ( 'NONE', #522 ) ;
#670 = DIRECTION ( 'NONE',  ( 0.000000000000000000, 0.000000000000000000, 1.000000000000000000 ) ) ;
#671 = DIRECTION ( 'NONE',  ( 0.6227260106841110421, 0.000000000000000000, 0.7824399757281400580 ) ) ;
#672 = CARTESIAN_POINT ( 'NONE',  ( 0.000000000000000000, 79.99552026207999234, 83.50381240911001157 ) ) ;
#673 = EDGE_LOOP ( 'NONE', ( #317, #188, #684, #92, #423, #562, #870, #20, #240, #534 ) ) ;
#674 = FACE_OUTER_BOUND ( 'NONE', #278, .T. ) ;
#675 = VECTOR ( 'NONE', #637, 1000.000000000000000 ) ;
#676 = FACE_OUTER_BOUND ( 'NONE', #388, .T. ) ;
#677 = AXIS2_PLACEMENT_3D ( 'NONE', #878, #208, #883 ) ;
#678 = EDGE_CURVE ( 'NONE', #817, #90, #132, .T. ) ;
#679 = FACE_OUTER_BOUND ( 'NONE', #236, .T. ) ;
#680 = ORIENTED_EDGE ( 'NONE', *, *, #65, .F. ) ;
#681 = CARTESIAN_POINT ( 'NONE',  ( 41.67386826407400235, 36.21772379756500015, 40.17303160559299613 ) ) ;
#682 = CARTESIAN_POINT ( 'NONE',  ( 0.000000000000000000, 97.88205407677999403, 0.000000000000000000 ) ) ;
#683 = DIRECTION ( 'NONE',  ( 0.000000000000000000, -1.000000000000000000, 0.000000000000000000 ) ) ;
#684 = ORIENTED_EDGE ( 'NONE', *, *, #654, .F. ) ;
#685 = CARTESIAN_POINT ( 'NONE',  ( 41.67386826407400235, -3.069517965235000087E-16, 45.92314991279500447 ) ) ;
#686 =( NAMED_UNIT ( * ) SI_UNIT ( $, .STERADIAN. ) SOLID_ANGLE_UNIT ( ) );
#687 = EDGE_CURVE ( 'NONE', #300, #557, #135, .T. ) ;
#688 = FACE_OUTER_BOUND ( 'NONE', #398, .T. ) ;
#689 = ORIENTED_EDGE ( 'NONE', *, *, #297, .F. ) ;
#690 = CARTESIAN_POINT ( 'NONE',  ( 41.67386826407400235, 0.000000000000000000, 0.000000000000000000 ) ) ;
#691 = DIRECTION ( 'NONE',  ( 0.000000000000000000, -1.000000000000000000, 0.000000000000000000 ) ) ;
#692 = VECTOR ( 'NONE', #273, 1000.000000000000000 ) ;
#693 = DIRECTION ( 'NONE',  ( -1.000000000000000000, 0.000000000000000000, 0.000000000000000000 ) ) ;
#694 = VECTOR ( 'NONE', #448, 1000.000000000000000 ) ;
#695 = ORIENTED_EDGE ( 'NONE', *, *, #687, .F. ) ;
#696 = FACE_OUTER_BOUND ( 'NONE', #303, .T. ) ;
#697 = EDGE_CURVE ( 'NONE', #300, #720, #755, .T. ) ;
#698 = CARTESIAN_POINT ( 'NONE',  ( 31.22562939609800026, 36.21772379756500015, 40.17303160559299613 ) ) ;
#699 = PLANE ( 'NONE',  #125 ) ;
#700 = EDGE_LOOP ( 'NONE', ( #898, #909, #770, #197, #839, #277 ) ) ;
#701 = CARTESIAN_POINT ( 'NONE',  ( 27.04393018409399829, 97.88205407677999403, 26.79414680335900201 ) ) ;
#702 = FACE_OUTER_BOUND ( 'NONE', #893, .T. ) ;
#703 = DIRECTION ( 'NONE',  ( 0.000000000000000000, 0.000000000000000000, 1.000000000000000000 ) ) ;
#704 = ORIENTED_EDGE ( 'NONE', *, *, #456, .F. ) ;
#705 = CARTESIAN_POINT ( 'NONE',  ( 6.587793959654999406E-17, 79.99552026207999234, 71.36068653393499517 ) ) ;
#706 = DIRECTION ( 'NONE',  ( 0.000000000000000000, 1.000000000000000000, 0.000000000000000000 ) ) ;
#707 = DIRECTION ( 'NONE',  ( 0.000000000000000000, 0.000000000000000000, 1.000000000000000000 ) ) ;
#708 = AXIS2_PLACEMENT_3D ( 'NONE', #364, #879, #653 ) ;
#709 = EDGE_CURVE ( 'NONE', #877, #531, #373, .T. ) ;
#710 = AXIS2_PLACEMENT_3D ( 'NONE', #315, #607, #492 ) ;
#711 = ORIENTED_EDGE ( 'NONE', *, *, #24, .T. ) ;
#712 = CARTESIAN_POINT ( 'NONE',  ( 21.66303740947800449, 97.88205407677999403, 27.59981261843099887 ) ) ;
#713 = LINE ( 'NONE', #786, #923 ) ;
#714 = EDGE_LOOP ( 'NONE', ( #892, #263, #54, #463 ) ) ;
#715 = VERTEX_POINT ( 'NONE', #914 ) ;
#716 = DIRECTION ( 'NONE',  ( 0.000000000000000000, 0.000000000000000000, -1.000000000000000000 ) ) ;
#717 = EDGE_CURVE ( 'NONE', #669, #855, #318, .T. ) ;
#718 = ORIENTED_EDGE ( 'NONE', *, *, #788, .F. ) ;
#719 = CARTESIAN_POINT ( 'NONE',  ( 41.67386826407400235, 5.012903263707999990, 51.93605317650299469 ) ) ;
#720 = VERTEX_POINT ( 'NONE', #681 ) ;
#721 = AXIS2_PLACEMENT_3D ( 'NONE', #862, #639, #776 ) ;
#722 = CARTESIAN_POINT ( 'NONE',  ( 0.000000000000000000, 97.88205407677999403, 83.50381240911001157 ) ) ;
#723 = AXIS2_PLACEMENT_3D ( 'NONE', #21, #87, #807 ) ;
#724 =( NAMED_UNIT ( * ) PLANE_ANGLE_UNIT ( ) SI_UNIT ( $, .RADIAN. ) );
#725 = ORIENTED_EDGE ( 'NONE', *, *, #424, .F. ) ;
#726 = APPLICATION_PROTOCOL_DEFINITION ( 'draft international standard', 'automotive_design', 1998, #262 ) ;
#727 = DIRECTION ( 'NONE',  ( -0.6227260106841110421, 0.000000000000000000, -0.7824399757281400580 ) ) ;
#728 = ADVANCED_FACE ( 'NONE', ( #253, #157 ), #169, .F. ) ;
#729 = DIRECTION ( 'NONE',  ( 0.000000000000000000, 0.000000000000000000, 1.000000000000000000 ) ) ;
#730 = ORIENTED_EDGE ( 'NONE', *, *, #267, .T. ) ;
#731 = CARTESIAN_POINT ( 'NONE',  ( 0.000000000000000000, 90.53294278303299336, 0.000000000000000000 ) ) ;
#732 = DIRECTION ( 'NONE',  ( -0.9889759012590595422, 0.000000000000000000, 0.1480765569860089392 ) ) ;
#733 = ORIENTED_EDGE ( 'NONE', *, *, #538, .F. ) ;
#734 = EDGE_CURVE ( 'NONE', #775, #775, #358, .T. ) ;
#735 = CARTESIAN_POINT ( 'NONE',  ( 41.67386826407400235, 6.139035945414998621E-16, 56.94895644021099912 ) ) ;
#736 = AXIS2_PLACEMENT_3D ( 'NONE', #510, #215, #443 ) ;
#737 = CIRCLE ( 'NONE', #293, 5.012903263707999102 ) ;
#738 = SURFACE_STYLE_USAGE ( .BOTH. , #219 ) ;
#739 = EDGE_LOOP ( 'NONE', ( #935, #613, #521, #942 ) ) ;
#740 = VERTEX_POINT ( 'NONE', #690 ) ;
#741 = CARTESIAN_POINT ( 'NONE',  ( 33.97854158216100018, 97.88205407677999403, 18.04051074922000097 ) ) ;
#742 = DIRECTION ( 'NONE',  ( 1.000000000000000000, 0.000000000000000000, 0.000000000000000000 ) ) ;
#743 = ADVANCED_FACE ( 'NONE', ( #761 ), #829, .F. ) ;
#744 = CARTESIAN_POINT ( 'NONE',  ( 41.67386826407400235, 36.21772379756500015, 22.74935964297799984 ) ) ;
#745 = ORIENTED_EDGE ( 'NONE', *, *, #663, .T. ) ;
#746 = DIRECTION ( 'NONE',  ( 0.000000000000000000, 0.000000000000000000, 1.000000000000000000 ) ) ;
#747 = DIRECTION ( 'NONE',  ( 0.000000000000000000, 0.000000000000000000, 1.000000000000000000 ) ) ;
#748 = PLANE ( 'NONE',  #646 ) ;
#749 = ORIENTED_EDGE ( 'NONE', *, *, #930, .F. ) ;
#750 = PLANE ( 'NONE',  #632 ) ;
#751 = DIRECTION ( 'NONE',  ( 0.000000000000000000, -1.000000000000000000, 0.000000000000000000 ) ) ;
#752 = VECTOR ( 'NONE', #924, 1000.000000000000114 ) ;
#753 = ORIENTED_EDGE ( 'NONE', *, *, #937, .T. ) ;
#754 = EDGE_LOOP ( 'NONE', ( #139, #634, #246, #655, #299, #39 ) ) ;
#755 = LINE ( 'NONE', #247, #249 ) ;
#756 = EDGE_CURVE ( 'NONE', #720, #365, #894, .T. ) ;
#757 = DIRECTION ( 'NONE',  ( 0.000000000000000000, 0.000000000000000000, -1.000000000000000000 ) ) ;
#758 = ADVANCED_FACE ( 'NONE', ( #674 ), #750, .F. ) ;
#759 = DIRECTION ( 'NONE',  ( 0.000000000000000000, 0.000000000000000000, -1.000000000000000000 ) ) ;
#760 = VERTEX_POINT ( 'NONE', #237 ) ;
#761 = FACE_OUTER_BOUND ( 'NONE', #206, .T. ) ;
#762 = CARTESIAN_POINT ( 'NONE',  ( 1.317558791931000128E-16, 0.000000000000000000, 71.36068653393499517 ) ) ;
#763 = LINE ( 'NONE', #256, #752 ) ;
#764 = EDGE_CURVE ( 'NONE', #375, #855, #280, .T. ) ;
#765 = EDGE_LOOP ( 'NONE', ( #785 ) ) ;
#766 = DIRECTION ( 'NONE',  ( -0.9889759012590595422, 0.000000000000000000, 0.1480765569860089392 ) ) ;
#767 = PLANE ( 'NONE',  #922 ) ;
#768 = VECTOR ( 'NONE', #568, 1000.000000000000000 ) ;
#769 = CARTESIAN_POINT ( 'NONE',  ( 41.67386826407400235, 97.88205407677999403, 0.000000000000000000 ) ) ;
#770 = ORIENTED_EDGE ( 'NONE', *, *, #93, .T. ) ;
#771 = DIRECTION ( 'NONE',  ( 0.000000000000000000, 0.000000000000000000, 1.000000000000000000 ) ) ;
#772 = CARTESIAN_POINT ( 'NONE',  ( 31.22562939609800026, 73.92869672806500603, 40.17303160559299613 ) ) ;
#773 = CARTESIAN_POINT ( 'NONE',  ( 11.91565499723099997, 0.000000000000000000, 51.93605317650299469 ) ) ;
#774 = ORIENTED_EDGE ( 'NONE', *, *, #863, .T. ) ;
#775 = VERTEX_POINT ( 'NONE', #344 ) ;
#776 = DIRECTION ( 'NONE',  ( 0.000000000000000000, 0.000000000000000000, 1.000000000000000000 ) ) ;
#777 = CARTESIAN_POINT ( 'NONE',  ( 27.04393018409399829, 97.88205407677999403, 26.79414680335900201 ) ) ;
#778 = CARTESIAN_POINT ( 'NONE',  ( 26.04757052184599786, 0.000000000000000000, 29.32555817605599913 ) ) ;
#779 = DIRECTION ( 'NONE',  ( 0.6227260106841110421, 0.000000000000000000, 0.7824399757281400580 ) ) ;
#780 = VECTOR ( 'NONE', #474, 1000.000000000000000 ) ;
#781 = ORIENTED_EDGE ( 'NONE', *, *, #764, .F. ) ;
#782 = DIRECTION ( 'NONE',  ( 0.000000000000000000, -1.000000000000000000, 0.000000000000000000 ) ) ;
#783 = VECTOR ( 'NONE', #301, 1000.000000000000000 ) ;
#784 = CARTESIAN_POINT ( 'NONE',  ( 33.97854158216100018, 47.44142907063800152, 18.04051074922000097 ) ) ;
#785 = ORIENTED_EDGE ( 'NONE', *, *, #406, .T. ) ;
#786 = CARTESIAN_POINT ( 'NONE',  ( 0.000000000000000000, 79.99552026207999234, 38.80879184189300446 ) ) ;
#787 = ORIENTED_EDGE ( 'NONE', *, *, #212, .T. ) ;
#788 = EDGE_CURVE ( 'NONE', #368, #107, #899, .T. ) ;
#789 = CARTESIAN_POINT ( 'NONE',  ( 25.34984345903399827, 97.88205407677999403, 24.66556833819899808 ) ) ;
#790 = VERTEX_POINT ( 'NONE', #685 ) ;
#791 = ADVANCED_FACE ( 'NONE', ( #814, #329 ), #903, .T. ) ;
#792 = VECTOR ( 'NONE', #707, 1000.000000000000000 ) ;
#793 = VECTOR ( 'NONE', #145, 1000.000000000000227 ) ;
#794 = CARTESIAN_POINT ( 'NONE',  ( 23.35712413453900282, 0.000000000000000000, 29.72839108359200111 ) ) ;
#795 = CARTESIAN_POINT ( 'NONE',  ( 0.000000000000000000, 97.88205407677999403, 0.000000000000000000 ) ) ;
#796 = EDGE_LOOP ( 'NONE', ( #753, #745, #441, #689 ) ) ;
#797 = LINE ( 'NONE', #371, #81 ) ;
#798 = LINE ( 'NONE', #803, #478 ) ;
#799 = EDGE_CURVE ( 'NONE', #531, #887, #620, .T. ) ;
#800 = VERTEX_POINT ( 'NONE', #307 ) ;
#801 = DIRECTION ( 'NONE',  ( 0.000000000000000000, 0.000000000000000000, 1.000000000000000000 ) ) ;
#802 = FACE_BOUND ( 'NONE', #570, .T. ) ;
#803 = CARTESIAN_POINT ( 'NONE',  ( 27.04393018409399829, 97.88205407677999403, 26.79414680335900201 ) ) ;
#804 = CARTESIAN_POINT ( 'NONE',  ( 23.35712413453900282, 97.88205407677999403, 29.72839108359200111 ) ) ;
#805 = VECTOR ( 'NONE', #40, 1000.000000000000114 ) ;
#806 = ORIENTED_EDGE ( 'NONE', *, *, #297, .T. ) ;
#807 = DIRECTION ( 'NONE',  ( 0.000000000000000000, 0.000000000000000000, -1.000000000000000000 ) ) ;
#808 = VECTOR ( 'NONE', #729, 1000.000000000000000 ) ;
#809 = LINE ( 'NONE', #88, #859 ) ;
#810 = ADVANCED_FACE ( 'NONE', ( #910 ), #323, .F. ) ;
#811 = AXIS2_PLACEMENT_3D ( 'NONE', #275, #178, #766 ) ;
#812 = ORIENTED_EDGE ( 'NONE', *, *, #377, .T. ) ;
#813 = ORIENTED_EDGE ( 'NONE', *, *, #432, .T. ) ;
#814 = FACE_OUTER_BOUND ( 'NONE', #217, .T. ) ;
#815 = CARTESIAN_POINT ( 'NONE',  ( 21.66303740947800449, 0.000000000000000000, 27.59981261843099887 ) ) ;
#816 = PLANE ( 'NONE',  #15 ) ;
#817 = VERTEX_POINT ( 'NONE', #231 ) ;
#818 = DIRECTION ( 'NONE',  ( 0.000000000000000000, 0.000000000000000000, -1.000000000000000000 ) ) ;
#819 = CARTESIAN_POINT ( 'NONE',  ( 41.67386826407400235, 5.012903263707999990, 50.93605317650300179 ) ) ;
#820 = ORIENTED_EDGE ( 'NONE', *, *, #764, .T. ) ;
#821 = ORIENTED_EDGE ( 'NONE', *, *, #529, .F. ) ;
#822 = ADVANCED_FACE ( 'NONE', ( #457 ), #241, .T. ) ;
#823 = LINE ( 'NONE', #384, #858 ) ;
#824 = CIRCLE ( 'NONE', #736, 1.821373631532001491 ) ;
#825 = CARTESIAN_POINT ( 'NONE',  ( 0.000000000000000000, 0.000000000000000000, 67.05721293210200429 ) ) ;
#826 = VECTOR ( 'NONE', #61, 1000.000000000000000 ) ;
#827 = LINE ( 'NONE', #172, #509 ) ;
#828 = ORIENTED_EDGE ( 'NONE', *, *, #709, .F. ) ;
#829 = PLANE ( 'NONE',  #723 ) ;
#830 = CARTESIAN_POINT ( 'NONE',  ( 0.000000000000000000, 97.88205407677999403, 38.80879184189300446 ) ) ;
#831 = EDGE_CURVE ( 'NONE', #489, #328, #823, .T. ) ;
#832 = ADVANCED_FACE ( 'NONE', ( #117 ), #402, .F. ) ;
#833 = DIRECTION ( 'NONE',  ( 0.000000000000000000, -1.000000000000000000, 0.000000000000000000 ) ) ;
#834 = ORIENTED_EDGE ( 'NONE', *, *, #788, .T. ) ;
#835 = LINE ( 'NONE', #270, #137 ) ;
#836 = DIRECTION ( 'NONE',  ( 0.000000000000000000, 0.000000000000000000, 1.000000000000000000 ) ) ;
#837 = FACE_OUTER_BOUND ( 'NONE', #258, .T. ) ;
#838 = UNCERTAINTY_MEASURE_WITH_UNIT (LENGTH_MEASURE( 1.000000000000000082E-05 ), #662, 'distance_accuracy_value', 'NONE');
#839 = ORIENTED_EDGE ( 'NONE', *, *, #625, .T. ) ;
#840 = FACE_OUTER_BOUND ( 'NONE', #739, .T. ) ;
#841 = DIRECTION ( 'NONE',  ( -5.403035247169000242E-31, 0.000000000000000000, -1.000000000000000000 ) ) ;
#842 = EDGE_CURVE ( 'NONE', #901, #577, #919, .T. ) ;
#843 = VECTOR ( 'NONE', #671, 1000.000000000000227 ) ;
#844 = CYLINDRICAL_SURFACE ( 'NONE', #292, 2.082961575682999111 ) ;
#845 = ORIENTED_EDGE ( 'NONE', *, *, #500, .T. ) ;
#846 = CARTESIAN_POINT ( 'NONE',  ( 0.000000000000000000, 0.000000000000000000, 83.50381240911001157 ) ) ;
#847 = PRODUCT_DEFINITION ( 'ๆ', '', #886, #257 ) ;
#848 = CARTESIAN_POINT ( 'NONE',  ( 21.66303740947800449, 97.88205407677999403, 27.59981261843099887 ) ) ;
#849 = CARTESIAN_POINT ( 'NONE',  ( 31.22562939609800026, 73.92869672806500603, 40.17303160559299613 ) ) ;
#850 = VERTEX_POINT ( 'NONE', #641 ) ;
#851 = LINE ( 'NONE', #193, #805 ) ;
#852 = DIRECTION ( 'NONE',  ( 0.000000000000000000, 1.000000000000000000, 0.000000000000000000 ) ) ;
#853 = SURFACE_STYLE_FILL_AREA ( #298 ) ;
#854 = ADVANCED_FACE ( 'NONE', ( #696 ), #123, .F. ) ;
#855 = VERTEX_POINT ( 'NONE', #52 ) ;
#856 = LINE ( 'NONE', #183, #94 ) ;
#857 = LINE ( 'NONE', #642, #617 ) ;
#858 = VECTOR ( 'NONE', #490, 1000.000000000000000 ) ;
#859 = VECTOR ( 'NONE', #302, 1000.000000000000000 ) ;
#860 = ORIENTED_EDGE ( 'NONE', *, *, #233, .F. ) ;
#861 = SHAPE_DEFINITION_REPRESENTATION ( #41, #430 ) ;
#862 = CARTESIAN_POINT ( 'NONE',  ( 41.67386826407400235, 0.000000000000000000, 50.93605317650300179 ) ) ;
#863 = EDGE_CURVE ( 'NONE', #619, #86, #628, .T. ) ;
#864 = ORIENTED_EDGE ( 'NONE', *, *, #756, .T. ) ;
#865 = DIRECTION ( 'NONE',  ( 1.000000000000000000, 0.000000000000000000, 0.000000000000000000 ) ) ;
#866 = VERTEX_POINT ( 'NONE', #778 ) ;
#867 = DIRECTION ( 'NONE',  ( 0.000000000000000000, -1.000000000000000000, 0.000000000000000000 ) ) ;
#868 = CARTESIAN_POINT ( 'NONE',  ( 22.65939707172600137, 97.88205407677999403, 25.06840124573399819 ) ) ;
#869 = AXIS2_PLACEMENT_3D ( 'NONE', #712, #480, #353 ) ;
#870 = ORIENTED_EDGE ( 'NONE', *, *, #85, .F. ) ;
#871 = CIRCLE ( 'NONE', #360, 5.012903263707999102 ) ;
#872 = ORIENTED_EDGE ( 'NONE', *, *, #175, .F. ) ;
#873 = VECTOR ( 'NONE', #400, 1000.000000000000000 ) ;
#874 = DIRECTION ( 'NONE',  ( -1.000000000000000000, 0.000000000000000000, 0.000000000000000000 ) ) ;
#875 = CARTESIAN_POINT ( 'NONE',  ( 26.04757052184599786, 97.88205407677999403, 29.32555817605599913 ) ) ;
#876 = ORIENTED_EDGE ( 'NONE', *, *, #432, .F. ) ;
#877 = VERTEX_POINT ( 'NONE', #113 ) ;
#878 = CARTESIAN_POINT ( 'NONE',  ( 0.000000000000000000, 0.000000000000000000, 0.000000000000000000 ) ) ;
#879 = DIRECTION ( 'NONE',  ( 1.000000000000000000, 0.000000000000000000, 0.000000000000000000 ) ) ;
#880 = LINE ( 'NONE', #454, #109 ) ;
#881 = ORIENTED_EDGE ( 'NONE', *, *, #654, .T. ) ;
#882 = EDGE_CURVE ( 'NONE', #577, #817, #851, .T. ) ;
#883 = DIRECTION ( 'NONE',  ( 0.000000000000000000, 1.000000000000000000, 0.000000000000000000 ) ) ;
#884 = FACE_OUTER_BOUND ( 'NONE', #754, .T. ) ;
#885 = VERTEX_POINT ( 'NONE', #547 ) ;
#886 = PRODUCT_DEFINITION_FORMATION_WITH_SPECIFIED_SOURCE ( 'ไป', '', #419, .NOT_KNOWN. ) ;
#887 = VERTEX_POINT ( 'NONE', #349 ) ;
#888 = DIRECTION ( 'NONE',  ( -0.3662498905749479450, 0.000000000000000000, 0.9305165327138678055 ) ) ;
#889 = STYLED_ITEM ( 'NONE', ( #196 ), #304 ) ;
#890 = AXIS2_PLACEMENT_3D ( 'NONE', #537, #470, #757 ) ;
#891 = CARTESIAN_POINT ( 'NONE',  ( 0.000000000000000000, 90.53294278303299336, 22.65351038836299935 ) ) ;
#892 = ORIENTED_EDGE ( 'NONE', *, *, #47, .T. ) ;
#893 = EDGE_LOOP ( 'NONE', ( #627, #352, #828, #284 ) ) ;
#894 = LINE ( 'NONE', #96, #226 ) ;
#895 = LINE ( 'NONE', #465, #428 ) ;
#896 = EDGE_CURVE ( 'NONE', #513, #850, #835, .T. ) ;
#897 = EDGE_LOOP ( 'NONE', ( #512, #640, #410, #140, #479, #103, #25 ) ) ;
#898 = ORIENTED_EDGE ( 'NONE', *, *, #630, .T. ) ;
#899 = LINE ( 'NONE', #532, #694 ) ;
#900 = DIRECTION ( 'NONE',  ( 1.000000000000000000, 0.000000000000000000, 0.000000000000000000 ) ) ;
#901 = VERTEX_POINT ( 'NONE', #846 ) ;
#902 = ORIENTED_EDGE ( 'NONE', *, *, #799, .T. ) ;
#903 = CYLINDRICAL_SURFACE ( 'NONE', #555, 1.821373631532001491 ) ;
#904 = AXIS2_PLACEMENT_3D ( 'NONE', #777, #191, #912 ) ;
#905 = CARTESIAN_POINT ( 'NONE',  ( 31.22562939609800026, 36.21772379756500015, 22.74935964297799984 ) ) ;
#906 = ADVANCED_FACE ( 'NONE', ( #840 ), #926, .F. ) ;
#907 = AXIS2_PLACEMENT_3D ( 'NONE', #543, #464, #389 ) ;
#908 = LINE ( 'NONE', #261, #658 ) ;
#909 = ORIENTED_EDGE ( 'NONE', *, *, #288, .T. ) ;
#910 = FACE_OUTER_BOUND ( 'NONE', #387, .T. ) ;
#911 = LINE ( 'NONE', #544, #601 ) ;
#912 = DIRECTION ( 'NONE',  ( 0.000000000000000000, -1.000000000000000000, 0.000000000000000000 ) ) ;
#913 = ORIENTED_EDGE ( 'NONE', *, *, #424, .T. ) ;
#914 = CARTESIAN_POINT ( 'NONE',  ( 33.97854158216100018, 47.44142907063800152, 16.21913711768799971 ) ) ;
#915 = EDGE_CURVE ( 'NONE', #760, #216, #179, .T. ) ;
#916 = CARTESIAN_POINT ( 'NONE',  ( 21.66303740947800449, 97.88205407677999403, 27.59981261843099887 ) ) ;
#917 = DIRECTION ( 'NONE',  ( 0.000000000000000000, 1.000000000000000000, 0.000000000000000000 ) ) ;
#918 = EDGE_LOOP ( 'NONE', ( #60, #213, #228 ) ) ;
#919 = LINE ( 'NONE', #934, #675 ) ;
#920 = CARTESIAN_POINT ( 'NONE',  ( 31.22562939609800026, 55.07321026281500309, 31.46119562428499705 ) ) ;
#921 = AXIS2_PLACEMENT_3D ( 'NONE', #438, #801, #285 ) ;
#922 = AXIS2_PLACEMENT_3D ( 'NONE', #250, #394, #900 ) ;
#923 = VECTOR ( 'NONE', #58, 1000.000000000000114 ) ;
#924 = DIRECTION ( 'NONE',  ( -0.3662498905749479450, 0.000000000000000000, 0.9305165327138678055 ) ) ;
#925 = ORIENTED_EDGE ( 'NONE', *, *, #625, .F. ) ;
#926 = PLANE ( 'NONE',  #811 ) ;
#927 = LINE ( 'NONE', #124, #229 ) ;
#928 = EDGE_CURVE ( 'NONE', #740, #116, #856, .T. ) ;
#929 = DIRECTION ( 'NONE',  ( -1.000000000000000000, 0.000000000000000000, 0.000000000000000000 ) ) ;
#930 = EDGE_CURVE ( 'NONE', #740, #790, #473, .T. ) ;
#931 = DIRECTION ( 'NONE',  ( -0.9889759012590595422, 0.000000000000000000, 0.1480765569860089392 ) ) ;
#932 = PLANE ( 'NONE',  #294 ) ;
#933 = ORIENTED_EDGE ( 'NONE', *, *, #525, .F. ) ;
#934 = CARTESIAN_POINT ( 'NONE',  ( 0.000000000000000000, 0.000000000000000000, 83.50381240911001157 ) ) ;
#935 = ORIENTED_EDGE ( 'NONE', *, *, #896, .T. ) ;
#936 = DIRECTION ( 'NONE',  ( 0.3662498905749479450, 0.000000000000000000, -0.9305165327138678055 ) ) ;
#937 = EDGE_CURVE ( 'NONE', #656, #513, #421, .T. ) ;
#938 = EDGE_CURVE ( 'NONE', #866, #322, #495, .T. ) ;
#939 = VECTOR ( 'NONE', #732, 1000.000000000000227 ) ;
#940 = ORIENTED_EDGE ( 'NONE', *, *, #529, .T. ) ;
#941 = CARTESIAN_POINT ( 'NONE',  ( 41.67386826407400235, 36.21772379756500015, 22.74935964297799984 ) ) ;
#942 = ORIENTED_EDGE ( 'NONE', *, *, #663, .F. ) ;
#943 = PLANE ( 'NONE',  #155 ) ;
#944 = ORIENTED_EDGE ( 'NONE', *, *, #842, .F. ) ;
#945 = EDGE_CURVE ( 'NONE', #433, #877, #567, .T. ) ;
#946 = FACE_OUTER_BOUND ( 'NONE', #192, .T. ) ;
#947 = DIRECTION ( 'NONE',  ( 0.000000000000000000, 1.000000000000000000, 0.000000000000000000 ) ) ;
#948 = VECTOR ( 'NONE', #929, 1000.000000000000000 ) ;
#949 = ORIENTED_EDGE ( 'NONE', *, *, #595, .T. ) ;
ENDSEC;
END-ISO-10303-21;
