ISO-10303-21;
HEADER;
FILE_DESCRIPTION (( 'STEP AP214' ),
    '1' );
FILE_NAME ('20260414_160844_131.STEP',
    '2026-04-16T15:08:12',
    ( '' ),
    ( '' ),
    'SwSTEP 2.0',
    'SolidWorks 2025',
    '' );
FILE_SCHEMA (( 'AUTOMOTIVE_DESIGN' ));
ENDSEC;

DATA;
#1 = VECTOR ( 'NONE', #621, 1000.000000000000000 ) ;
#2 = ORIENTED_EDGE ( 'NONE', *, *, #264, .T. ) ;
#3 = PLANE ( 'NONE',  #97 ) ;
#4 = CARTESIAN_POINT ( 'NONE',  ( 76.25844859691800082, 0.000000000000000000, 11.18832933137299968 ) ) ;
#5 = VECTOR ( 'NONE', #429, 1000.000000000000000 ) ;
#6 = EDGE_LOOP ( 'NONE', ( #737, #2, #129, #156 ) ) ;
#7 = EDGE_CURVE ( 'NONE', #359, #623, #757, .T. ) ;
#8 = EDGE_CURVE ( 'NONE', #366, #571, #395, .T. ) ;
#9 = LINE ( 'NONE', #123, #773 ) ;
#10 = EDGE_CURVE ( 'NONE', #186, #726, #20, .T. ) ;
#11 = EDGE_LOOP ( 'NONE', ( #708, #552, #427, #197 ) ) ;
#12 = DIRECTION ( 'NONE',  ( 1.000000000000000000, 0.000000000000000000, 0.000000000000000000 ) ) ;
#13 = VERTEX_POINT ( 'NONE', #208 ) ;
#14 = VERTEX_POINT ( 'NONE', #767 ) ;
#15 = STYLED_ITEM ( 'NONE', ( #381 ), #260 ) ;
#16 = DIRECTION ( 'NONE',  ( 0.000000000000000000, 0.000000000000000000, 1.000000000000000000 ) ) ;
#17 = DIRECTION ( 'NONE',  ( 0.9879314143763964218, 0.1548919639240619595, 0.000000000000000000 ) ) ;
#18 = PLANE ( 'NONE',  #122 ) ;
#19 = DIRECTION ( 'NONE',  ( 0.9809978351588586332, 0.000000000000000000, 0.1940186780019721169 ) ) ;
#20 = LINE ( 'NONE', #223, #706 ) ;
#21 = APPLICATION_CONTEXT ( 'automotive_design' ) ;
#22 = VERTEX_POINT ( 'NONE', #401 ) ;
#23 = CARTESIAN_POINT ( 'NONE',  ( 0.000000000000000000, 0.000000000000000000, 11.18832933137299968 ) ) ;
#24 = DIRECTION ( 'NONE',  ( 0.000000000000000000, 0.000000000000000000, 1.000000000000000000 ) ) ;
#25 = DIRECTION ( 'NONE',  ( -1.000000000000000000, 0.000000000000000000, 0.000000000000000000 ) ) ;
#26 = DIRECTION ( 'NONE',  ( 0.000000000000000000, -1.000000000000000000, 0.000000000000000000 ) ) ;
#27 = EDGE_CURVE ( 'NONE', #789, #677, #206, .T. ) ;
#28 = ORIENTED_EDGE ( 'NONE', *, *, #765, .T. ) ;
#29 = CARTESIAN_POINT ( 'NONE',  ( 33.51405615670800131, 77.48485209986301925, 1.557960016326000119 ) ) ;
#30 = DIRECTION ( 'NONE',  ( 0.000000000000000000, 0.000000000000000000, -1.000000000000000000 ) ) ;
#31 = VECTOR ( 'NONE', #107, 1000.000000000000000 ) ;
#32 = ORIENTED_EDGE ( 'NONE', *, *, #463, .F. ) ;
#33 = VECTOR ( 'NONE', #490, 1000.000000000000000 ) ;
#34 = EDGE_CURVE ( 'NONE', #631, #705, #273, .T. ) ;
#35 = ADVANCED_FACE ( 'NONE', ( #635 ), #461, .T. ) ;
#36 = DIRECTION ( 'NONE',  ( 0.9879314143763964218, 0.1548919639240619595, 0.000000000000000000 ) ) ;
#37 = ORIENTED_EDGE ( 'NONE', *, *, #436, .T. ) ;
#38 = ORIENTED_EDGE ( 'NONE', *, *, #27, .F. ) ;
#39 = DIRECTION ( 'NONE',  ( -0.1939289757099719180, -0.03040498507512558526, 0.9805442821528574937 ) ) ;
#40 = DIRECTION ( 'NONE',  ( 0.000000000000000000, -1.000000000000000000, 0.000000000000000000 ) ) ;
#41 = LINE ( 'NONE', #567, #718 ) ;
#42 = CARTESIAN_POINT ( 'NONE',  ( 0.000000000000000000, 51.57663662010300243, 11.18832933137299968 ) ) ;
#43 = CARTESIAN_POINT ( 'NONE',  ( 0.000000000000000000, 0.000000000000000000, 11.18832933137299968 ) ) ;
#44 = LINE ( 'NONE', #246, #78 ) ;
#45 = EDGE_LOOP ( 'NONE', ( #741, #55, #183, #565, #688, #317 ) ) ;
#46 = FACE_OUTER_BOUND ( 'NONE', #549, .T. ) ;
#47 = DIRECTION ( 'NONE',  ( 0.000000000000000000, 0.000000000000000000, 1.000000000000000000 ) ) ;
#48 = EDGE_LOOP ( 'NONE', ( #349, #160, #758, #729, #220, #772, #191, #265 ) ) ;
#49 = DIRECTION ( 'NONE',  ( -0.9465783853061014996, 0.000000000000000000, 0.3224738136210346107 ) ) ;
#50 = DIRECTION ( 'NONE',  ( 0.7525597073039763663, 0.000000000000000000, 0.6585240215379795092 ) ) ;
#51 = ORIENTED_EDGE ( 'NONE', *, *, #437, .F. ) ;
#52 = DIRECTION ( 'NONE',  ( 0.000000000000000000, -1.000000000000000000, 0.000000000000000000 ) ) ;
#53 = VECTOR ( 'NONE', #711, 999.9999999999998863 ) ;
#54 = CARTESIAN_POINT ( 'NONE',  ( 31.60075054982999632, 2.534049991867000085, -0.1162695370819999963 ) ) ;
#55 = ORIENTED_EDGE ( 'NONE', *, *, #243, .F. ) ;
#56 = PRODUCT_DEFINITION_CONTEXT ( 'detailed design', #21, 'design' ) ;
#57 = LINE ( 'NONE', #373, #280 ) ;
#58 = CIRCLE ( 'NONE', #59, 1.233937305715999466 ) ;
#59 = AXIS2_PLACEMENT_3D ( 'NONE', #165, #523, #357 ) ;
#60 = LINE ( 'NONE', #64, #5 ) ;
#61 = EDGE_LOOP ( 'NONE', ( #227, #297, #464, #663 ) ) ;
#62 = LINE ( 'NONE', #314, #231 ) ;
#63 = ORIENTED_EDGE ( 'NONE', *, *, #158, .T. ) ;
#64 = CARTESIAN_POINT ( 'NONE',  ( 0.000000000000000000, 0.000000000000000000, 11.18832933137299968 ) ) ;
#65 = VECTOR ( 'NONE', #296, 1000.000000000000000 ) ;
#66 = ORIENTED_EDGE ( 'NONE', *, *, #154, .T. ) ;
#67 = EDGE_CURVE ( 'NONE', #359, #631, #522, .T. ) ;
#68 = ADVANCED_FACE ( 'NONE', ( #629 ), #226, .F. ) ;
#69 = VECTOR ( 'NONE', #456, 1000.000000000000000 ) ;
#70 = LINE ( 'NONE', #4, #128 ) ;
#71 = ORIENTED_EDGE ( 'NONE', *, *, #598, .F. ) ;
#72 = LINE ( 'NONE', #88, #1 ) ;
#73 = PLANE ( 'NONE',  #639 ) ;
#74 = ORIENTED_EDGE ( 'NONE', *, *, #683, .T. ) ;
#75 = LINE ( 'NONE', #266, #667 ) ;
#76 = PLANE ( 'NONE',  #188 ) ;
#77 = ORIENTED_EDGE ( 'NONE', *, *, #740, .T. ) ;
#78 = VECTOR ( 'NONE', #242, 1000.000000000000000 ) ;
#79 = FILL_AREA_STYLE ('',( #153 ) ) ;
#80 = CARTESIAN_POINT ( 'NONE',  ( 24.84113465226399597, 77.48485209986301925, 2.895838022782999843 ) ) ;
#81 = CARTESIAN_POINT ( 'NONE',  ( 20.25389855691900109, 77.48485209986301925, 2.895838022782999843 ) ) ;
#82 = ORIENTED_EDGE ( 'NONE', *, *, #398, .F. ) ;
#83 = AXIS2_PLACEMENT_3D ( 'NONE', #135, #309, #618 ) ;
#84 = DIRECTION ( 'NONE',  ( 1.000000000000000000, 0.000000000000000000, 0.000000000000000000 ) ) ;
#85 = EDGE_CURVE ( 'NONE', #356, #344, #339, .T. ) ;
#86 = DIRECTION ( 'NONE',  ( -0.9809978351588586332, 0.000000000000000000, -0.1940186780019721169 ) ) ;
#87 = ORIENTED_EDGE ( 'NONE', *, *, #8, .F. ) ;
#88 = CARTESIAN_POINT ( 'NONE',  ( 0.000000000000000000, 0.000000000000000000, 0.000000000000000000 ) ) ;
#89 = APPLICATION_CONTEXT ( 'automotive_design' ) ;
#90 = CARTESIAN_POINT ( 'NONE',  ( 76.25844859691800082, 77.48485209986301925, 0.000000000000000000 ) ) ;
#91 = ORIENTED_EDGE ( 'NONE', *, *, #299, .F. ) ;
#92 = EDGE_CURVE ( 'NONE', #402, #585, #450, .T. ) ;
#93 = ORIENTED_EDGE ( 'NONE', *, *, #235, .T. ) ;
#94 = EDGE_CURVE ( 'NONE', #704, #356, #714, .T. ) ;
#95 = VECTOR ( 'NONE', #434, 1000.000000000000000 ) ;
#96 = EDGE_CURVE ( 'NONE', #571, #768, #178, .T. ) ;
#97 = AXIS2_PLACEMENT_3D ( 'NONE', #250, #133, #121 ) ;
#98 = CARTESIAN_POINT ( 'NONE',  ( 76.25844859691800082, 77.48485209986301925, 11.18832933137299968 ) ) ;
#99 = ORIENTED_EDGE ( 'NONE', *, *, #658, .T. ) ;
#100 = ORIENTED_EDGE ( 'NONE', *, *, #739, .F. ) ;
#101 = FACE_OUTER_BOUND ( 'NONE', #511, .T. ) ;
#102 = DIRECTION ( 'NONE',  ( 0.7473753941310379290, 0.1171765983960059987, 0.6539875113760329484 ) ) ;
#103 = CARTESIAN_POINT ( 'NONE',  ( 76.25844859691800082, 9.535668175237001165, 9.372559028521001423 ) ) ;
#104 = CARTESIAN_POINT ( 'NONE',  ( 24.84113465226399597, 77.48485209986301925, 2.895838022782999843 ) ) ;
#105 = EDGE_LOOP ( 'NONE', ( #485 ) ) ;
#106 = CARTESIAN_POINT ( 'NONE',  ( 0.000000000000000000, 14.58131760238699925, 8.552543643290999142 ) ) ;
#107 = DIRECTION ( 'NONE',  ( 0.000000000000000000, -1.000000000000000000, 0.000000000000000000 ) ) ;
#108 = CARTESIAN_POINT ( 'NONE',  ( 76.25844859691800082, 51.57663662010300243, 11.18832933137299968 ) ) ;
#109 = VECTOR ( 'NONE', #16, 1000.000000000000000 ) ;
#110 = ORIENTED_EDGE ( 'NONE', *, *, #439, .F. ) ;
#111 = VECTOR ( 'NONE', #321, 1000.000000000000000 ) ;
#112 = PLANE ( 'NONE',  #488 ) ;
#113 = PRODUCT_RELATED_PRODUCT_CATEGORY ( 'part', '', ( #732 ) ) ;
#114 = EDGE_CURVE ( 'NONE', #344, #585, #229, .T. ) ;
#115 = FACE_OUTER_BOUND ( 'NONE', #6, .T. ) ;
#116 = ORIENTED_EDGE ( 'NONE', *, *, #454, .T. ) ;
#117 = DIRECTION ( 'NONE',  ( 0.000000000000000000, 0.000000000000000000, -1.000000000000000000 ) ) ;
#118 = DIRECTION ( 'NONE',  ( 0.000000000000000000, 1.000000000000000000, 0.000000000000000000 ) ) ;
#119 = VERTEX_POINT ( 'NONE', #169 ) ;
#120 = EDGE_CURVE ( 'NONE', #726, #203, #525, .T. ) ;
#121 = DIRECTION ( 'NONE',  ( -3.177684773148000183E-29, -1.000000000000000000, 0.000000000000000000 ) ) ;
#122 = AXIS2_PLACEMENT_3D ( 'NONE', #141, #270, #501 ) ;
#123 = CARTESIAN_POINT ( 'NONE',  ( 76.25844859691800082, 2.400200065364000324, 9.372559028521001423 ) ) ;
#124 = ORIENTED_EDGE ( 'NONE', *, *, #675, .F. ) ;
#125 = PLANE ( 'NONE',  #315 ) ;
#126 = VECTOR ( 'NONE', #36, 1000.000000000000114 ) ;
#127 = DIRECTION ( 'NONE',  ( 0.000000000000000000, -1.000000000000000000, 0.000000000000000000 ) ) ;
#128 = VECTOR ( 'NONE', #254, 1000.000000000000000 ) ;
#129 = ORIENTED_EDGE ( 'NONE', *, *, #600, .F. ) ;
#130 = CARTESIAN_POINT ( 'NONE',  ( 24.84113465226399597, 75.41789253522999559, 2.895838022782999843 ) ) ;
#131 = EDGE_CURVE ( 'NONE', #585, #330, #589, .T. ) ;
#132 = ORIENTED_EDGE ( 'NONE', *, *, #316, .T. ) ;
#133 = DIRECTION ( 'NONE',  ( 1.000000000000000000, -3.177684773148000183E-29, -1.796082697865999893E-29 ) ) ;
#134 = DIRECTION ( 'NONE',  ( 0.1939289757099719180, 0.03040498507512558526, -0.9805442821528574937 ) ) ;
#135 = CARTESIAN_POINT ( 'NONE',  ( 76.25844859691800082, 12.29630766761099991, 4.303566865527000296 ) ) ;
#136 = ORIENTED_EDGE ( 'NONE', *, *, #761, .F. ) ;
#137 =( LENGTH_UNIT ( ) NAMED_UNIT ( * ) SI_UNIT ( .MILLI., .METRE. ) );
#138 = CARTESIAN_POINT ( 'NONE',  ( 76.25844859691800082, 9.535668175237001165, 0.000000000000000000 ) ) ;
#139 = ORIENTED_EDGE ( 'NONE', *, *, #431, .F. ) ;
#140 = DIRECTION ( 'NONE',  ( 0.7071067811865474617, 0.7071067811865474617, 0.000000000000000000 ) ) ;
#141 = CARTESIAN_POINT ( 'NONE',  ( 33.12601880070399574, 77.48485209986301925, 3.519955686642999737 ) ) ;
#142 = DIRECTION ( 'NONE',  ( 1.000000000000000000, 0.000000000000000000, 0.000000000000000000 ) ) ;
#143 = ORIENTED_EDGE ( 'NONE', *, *, #545, .F. ) ;
#144 = APPLICATION_PROTOCOL_DEFINITION ( 'draft international standard', 'automotive_design', 1998, #89 ) ;
#145 = CARTESIAN_POINT ( 'NONE',  ( 76.25844859691800082, 51.57663662010300243, 8.552543643290999142 ) ) ;
#146 = ORIENTED_EDGE ( 'NONE', *, *, #516, .F. ) ;
#147 = PRESENTATION_LAYER_ASSIGNMENT (  '', '', ( #15 ) ) ;
#148 = ORIENTED_EDGE ( 'NONE', *, *, #241, .T. ) ;
#149 = FACE_BOUND ( 'NONE', #438, .T. ) ;
#150 = LINE ( 'NONE', #222, #566 ) ;
#151 = VERTEX_POINT ( 'NONE', #361 ) ;
#152 = EDGE_LOOP ( 'NONE', ( #645, #164, #238, #425 ) ) ;
#153 = FILL_AREA_STYLE_COLOUR ( '', #626 ) ;
#154 = EDGE_CURVE ( 'NONE', #203, #385, #44, .T. ) ;
#155 = LINE ( 'NONE', #400, #175 ) ;
#156 = ORIENTED_EDGE ( 'NONE', *, *, #765, .F. ) ;
#157 = ADVANCED_FACE ( 'NONE', ( #529 ), #287, .F. ) ;
#158 = EDGE_CURVE ( 'NONE', #677, #430, #602, .T. ) ;
#159 = CARTESIAN_POINT ( 'NONE',  ( 20.25389855691900109, 75.41789253522999559, 2.895838022782999843 ) ) ;
#160 = ORIENTED_EDGE ( 'NONE', *, *, #179, .F. ) ;
#161 = EDGE_LOOP ( 'NONE', ( #213 ) ) ;
#162 = VECTOR ( 'NONE', #50, 999.9999999999998863 ) ;
#163 = CARTESIAN_POINT ( 'NONE',  ( 76.25844859691800082, 51.57663662010300243, 8.552543643290999142 ) ) ;
#164 = ORIENTED_EDGE ( 'NONE', *, *, #380, .F. ) ;
#165 = CARTESIAN_POINT ( 'NONE',  ( 76.25844859691800082, 12.29630766761099991, 4.303566865527000296 ) ) ;
#166 = CARTESIAN_POINT ( 'NONE',  ( 20.25389855691900109, 77.48485209986301925, 2.895838022782999843 ) ) ;
#167 = VERTEX_POINT ( 'NONE', #469 ) ;
#168 = FACE_OUTER_BOUND ( 'NONE', #152, .T. ) ;
#169 = CARTESIAN_POINT ( 'NONE',  ( 24.84113465226399597, 75.41789253522999559, 11.18832933137299968 ) ) ;
#170 = ORIENTED_EDGE ( 'NONE', *, *, #179, .T. ) ;
#171 = VECTOR ( 'NONE', #174, 1000.000000000000000 ) ;
#172 = EDGE_CURVE ( 'NONE', #366, #470, #306, .T. ) ;
#173 = PLANE ( 'NONE',  #378 ) ;
#174 = DIRECTION ( 'NONE',  ( 0.000000000000000000, -1.000000000000000000, 0.000000000000000000 ) ) ;
#175 = VECTOR ( 'NONE', #707, 1000.000000000000000 ) ;
#176 = ORIENTED_EDGE ( 'NONE', *, *, #94, .F. ) ;
#177 = CARTESIAN_POINT ( 'NONE',  ( 76.25844859691800082, 14.58131760238699925, 11.18832933137299968 ) ) ;
#178 = LINE ( 'NONE', #54, #769 ) ;
#179 = EDGE_CURVE ( 'NONE', #307, #638, #302, .T. ) ;
#180 = ORIENTED_EDGE ( 'NONE', *, *, #239, .T. ) ;
#181 = EDGE_CURVE ( 'NONE', #470, #768, #475, .T. ) ;
#182 = CARTESIAN_POINT ( 'NONE',  ( 0.000000000000000000, 0.000000000000000000, 0.000000000000000000 ) ) ;
#183 = ORIENTED_EDGE ( 'NONE', *, *, #216, .F. ) ;
#184 = VECTOR ( 'NONE', #134, 1000.000000000000000 ) ;
#185 = CARTESIAN_POINT ( 'NONE',  ( 24.84113465226399597, 77.48485209986301925, 11.18832933137299968 ) ) ;
#186 = VERTEX_POINT ( 'NONE', #472 ) ;
#187 = DIRECTION ( 'NONE',  ( 1.000000000000000000, 0.000000000000000000, 0.000000000000000000 ) ) ;
#188 = AXIS2_PLACEMENT_3D ( 'NONE', #80, #583, #696 ) ;
#189 = PLANE ( 'NONE',  #190 ) ;
#190 = AXIS2_PLACEMENT_3D ( 'NONE', #275, #568, #84 ) ;
#191 = ORIENTED_EDGE ( 'NONE', *, *, #10, .F. ) ;
#192 = LINE ( 'NONE', #108, #95 ) ;
#193 = LINE ( 'NONE', #245, #670 ) ;
#194 = EDGE_LOOP ( 'NONE', ( #234, #418, #731, #776, #100, #91, #603, #132 ) ) ;
#195 = DIRECTION ( 'NONE',  ( 0.000000000000000000, 0.000000000000000000, 1.000000000000000000 ) ) ;
#196 = VECTOR ( 'NONE', #47, 1000.000000000000000 ) ;
#197 = ORIENTED_EDGE ( 'NONE', *, *, #462, .T. ) ;
#198 = PRODUCT_DEFINITION_SHAPE ( 'NONE', 'NONE',  #256 ) ;
#199 = VECTOR ( 'NONE', #679, 1000.000000000000000 ) ;
#200 = CARTESIAN_POINT ( 'NONE',  ( 32.63676624478600274, 2.696480807723000250, 1.530097238173000029 ) ) ;
#201 = AXIS2_PLACEMENT_3D ( 'NONE', #643, #420, #52 ) ;
#202 = AXIS2_PLACEMENT_3D ( 'NONE', #551, #252, #671 ) ;
#203 = VERTEX_POINT ( 'NONE', #719 ) ;
#204 = SURFACE_STYLE_USAGE ( .BOTH. , #755 ) ;
#205 = PLANE ( 'NONE',  #333 ) ;
#206 = LINE ( 'NONE', #404, #648 ) ;
#207 = CARTESIAN_POINT ( 'NONE',  ( 15.43808123407199950, 0.000000000000000000, 0.000000000000000000 ) ) ;
#208 = CARTESIAN_POINT ( 'NONE',  ( 76.25844859691800082, 12.29630766761099991, 5.537504171242999540 ) ) ;
#209 = LINE ( 'NONE', #394, #698 ) ;
#210 = DIRECTION ( 'NONE',  ( 0.000000000000000000, 0.000000000000000000, -1.000000000000000000 ) ) ;
#211 = AXIS2_PLACEMENT_3D ( 'NONE', #207, #617, #572 ) ;
#212 = CARTESIAN_POINT ( 'NONE',  ( 55.99373641500700671, -17.86451211654000204, 11.18832933137299968 ) ) ;
#213 = ORIENTED_EDGE ( 'NONE', *, *, #592, .T. ) ;
#214 = FACE_OUTER_BOUND ( 'NONE', #734, .T. ) ;
#215 = APPLICATION_PROTOCOL_DEFINITION ( 'draft international standard', 'automotive_design', 1998, #21 ) ;
#216 = EDGE_CURVE ( 'NONE', #151, #557, #482, .T. ) ;
#217 = ADVANCED_FACE ( 'NONE', ( #115 ), #644, .F. ) ;
#218 = DIRECTION ( 'NONE',  ( 0.1940186780019721169, 0.000000000000000000, -0.9809978351588586332 ) ) ;
#219 = VERTEX_POINT ( 'NONE', #656 ) ;
#220 = ORIENTED_EDGE ( 'NONE', *, *, #154, .F. ) ;
#221 = CARTESIAN_POINT ( 'NONE',  ( 76.25844859691800082, 0.000000000000000000, 9.372559028521001423 ) ) ;
#222 = CARTESIAN_POINT ( 'NONE',  ( 32.56747777140200384, 77.48485209986301925, 1.880433829947000257 ) ) ;
#223 = CARTESIAN_POINT ( 'NONE',  ( 24.84113465226399597, 77.48485209986301925, 11.18832933137299968 ) ) ;
#224 = ORIENTED_EDGE ( 'NONE', *, *, #27, .T. ) ;
#225 = CARTESIAN_POINT ( 'NONE',  ( 76.25844859691800082, 2.400200065364000324, 11.18832933137299968 ) ) ;
#226 = PLANE ( 'NONE',  #251 ) ;
#227 = ORIENTED_EDGE ( 'NONE', *, *, #598, .T. ) ;
#228 = FACE_OUTER_BOUND ( 'NONE', #500, .T. ) ;
#229 = LINE ( 'NONE', #779, #428 ) ;
#230 = ORIENTED_EDGE ( 'NONE', *, *, #684, .T. ) ;
#231 = VECTOR ( 'NONE', #676, 1000.000000000000114 ) ;
#232 = DIRECTION ( 'NONE',  ( 0.000000000000000000, 0.000000000000000000, 1.000000000000000000 ) ) ;
#233 = CARTESIAN_POINT ( 'NONE',  ( 76.25844859691800082, 14.58131760238699925, 11.18832933137299968 ) ) ;
#234 = ORIENTED_EDGE ( 'NONE', *, *, #85, .T. ) ;
#235 = EDGE_CURVE ( 'NONE', #597, #330, #192, .T. ) ;
#236 = LINE ( 'NONE', #286, #515 ) ;
#237 = CARTESIAN_POINT ( 'NONE',  ( 34.26661586401199600, 77.48485209986301925, 2.216484037863999834 ) ) ;
#238 = ORIENTED_EDGE ( 'NONE', *, *, #379, .F. ) ;
#239 = EDGE_CURVE ( 'NONE', #430, #571, #673, .T. ) ;
#240 = PLANE ( 'NONE',  #614 ) ;
#241 = EDGE_CURVE ( 'NONE', #203, #560, #587, .T. ) ;
#242 = DIRECTION ( 'NONE',  ( 0.000000000000000000, 0.000000000000000000, 1.000000000000000000 ) ) ;
#243 = EDGE_CURVE ( 'NONE', #557, #433, #783, .T. ) ;
#244 = VERTEX_POINT ( 'NONE', #725 ) ;
#245 = CARTESIAN_POINT ( 'NONE',  ( 33.12601880070399574, 77.48485209986301925, 3.519955686642999737 ) ) ;
#246 = CARTESIAN_POINT ( 'NONE',  ( 20.25389855691900109, 77.48485209986301925, 2.895838022782999843 ) ) ;
#247 = ORIENTED_EDGE ( 'NONE', *, *, #454, .F. ) ;
#248 = CARTESIAN_POINT ( 'NONE',  ( 0.000000000000000000, 77.48485209986301925, 0.000000000000000000 ) ) ;
#249 = ORIENTED_EDGE ( 'NONE', *, *, #599, .T. ) ;
#250 = CARTESIAN_POINT ( 'NONE',  ( 47.17839653803299882, 12.29630766761099991, 4.303566865527000296 ) ) ;
#251 = AXIS2_PLACEMENT_3D ( 'NONE', #81, #335, #503 ) ;
#252 = DIRECTION ( 'NONE',  ( 1.000000000000000000, 0.000000000000000000, 0.000000000000000000 ) ) ;
#253 = ORIENTED_EDGE ( 'NONE', *, *, #181, .F. ) ;
#254 = DIRECTION ( 'NONE',  ( 0.000000000000000000, 1.000000000000000000, 0.000000000000000000 ) ) ;
#255 = EDGE_LOOP ( 'NONE', ( #518, #457, #312, #538, #546, #582 ) ) ;
#256 = PRODUCT_DEFINITION ( 'ๆ', '', #367, #56 ) ;
#257 = EDGE_CURVE ( 'NONE', #330, #22, #41, .T. ) ;
#258 = CARTESIAN_POINT ( 'NONE',  ( 0.000000000000000000, 77.48485209986301925, 11.18832933137299968 ) ) ;
#259 = ORIENTED_EDGE ( 'NONE', *, *, #326, .T. ) ;
#260 = MANIFOLD_SOLID_BREP ( 'Open CASCADE STEP translator 7.5 13[1]', #495 ) ;
#261 = LINE ( 'NONE', #212, #540 ) ;
#262 = PLANE ( 'NONE',  #782 ) ;
#263 = PRODUCT_CONTEXT ( 'NONE', #89, 'mechanical' ) ;
#264 = EDGE_CURVE ( 'NONE', #726, #651, #685, .T. ) ;
#265 = ORIENTED_EDGE ( 'NONE', *, *, #516, .T. ) ;
#266 = CARTESIAN_POINT ( 'NONE',  ( 76.25844859691800082, 0.000000000000000000, 11.18832933137299968 ) ) ;
#267 = CARTESIAN_POINT ( 'NONE',  ( 24.84113465226399597, 75.41789253522999559, 2.895838022782999843 ) ) ;
#268 = CARTESIAN_POINT ( 'NONE',  ( 0.000000000000000000, 0.000000000000000000, 0.000000000000000000 ) ) ;
#269 = FACE_OUTER_BOUND ( 'NONE', #48, .T. ) ;
#270 = DIRECTION ( 'NONE',  ( 0.3224738136210346107, 0.000000000000000000, 0.9465783853061014996 ) ) ;
#271 = ADVANCED_BREP_SHAPE_REPRESENTATION ( '20260414_160844_131', ( #260, #294 ), #709 ) ;
#272 = FACE_OUTER_BOUND ( 'NONE', #611, .T. ) ;
#273 = LINE ( 'NONE', #285, #304 ) ;
#274 = FACE_BOUND ( 'NONE', #105, .T. ) ;
#275 = CARTESIAN_POINT ( 'NONE',  ( 0.000000000000000000, 0.000000000000000000, 11.18832933137299968 ) ) ;
#276 = PLANE ( 'NONE',  #318 ) ;
#277 = CARTESIAN_POINT ( 'NONE',  ( 48.04643631935100245, 2.569662683762999666, 9.372559028521001423 ) ) ;
#278 = VECTOR ( 'NONE', #775, 1000.000000000000000 ) ;
#279 = ORIENTED_EDGE ( 'NONE', *, *, #324, .T. ) ;
#280 = VECTOR ( 'NONE', #547, 1000.000000000000000 ) ;
#281 = FACE_OUTER_BOUND ( 'NONE', #61, .T. ) ;
#282 = CARTESIAN_POINT ( 'NONE',  ( 32.56747777140200384, 77.48485209986301925, 1.880433829947000257 ) ) ;
#283 = DIRECTION ( 'NONE',  ( 1.000000000000000000, 0.000000000000000000, 0.000000000000000000 ) ) ;
#284 = LINE ( 'NONE', #521, #419 ) ;
#285 = CARTESIAN_POINT ( 'NONE',  ( 15.43808123407199950, 0.000000000000000000, 0.000000000000000000 ) ) ;
#286 = CARTESIAN_POINT ( 'NONE',  ( 24.84113465226399597, 75.41789253522999559, 11.18832933137299968 ) ) ;
#287 = PLANE ( 'NONE',  #507 ) ;
#288 = ORIENTED_EDGE ( 'NONE', *, *, #85, .F. ) ;
#289 = AXIS2_PLACEMENT_3D ( 'NONE', #749, #19, #752 ) ;
#290 = CARTESIAN_POINT ( 'NONE',  ( 76.25844859691800082, 9.535668175237001165, 9.372559028521001423 ) ) ;
#291 = ADVANCED_FACE ( 'NONE', ( #332 ), #262, .F. ) ;
#292 = CARTESIAN_POINT ( 'NONE',  ( 33.51405615670800131, 77.48485209986301925, 1.557960016326000119 ) ) ;
#293 = ORIENTED_EDGE ( 'NONE', *, *, #235, .F. ) ;
#294 = AXIS2_PLACEMENT_3D ( 'NONE', #690, #24, #579 ) ;
#295 = CARTESIAN_POINT ( 'NONE',  ( 34.07259718600999321, 77.48485209986301925, 3.197481873021999821 ) ) ;
#296 = DIRECTION ( 'NONE',  ( -1.000000000000000000, 0.000000000000000000, 0.000000000000000000 ) ) ;
#297 = ORIENTED_EDGE ( 'NONE', *, *, #158, .F. ) ;
#298 = ADVANCED_FACE ( 'NONE', ( #281 ), #18, .F. ) ;
#299 = EDGE_CURVE ( 'NONE', #359, #307, #72, .T. ) ;
#300 = ADVANCED_FACE ( 'NONE', ( #149, #214 ), #337, .F. ) ;
#301 = CARTESIAN_POINT ( 'NONE',  ( 76.25844859691800082, 2.400200065364000324, 9.372559028521001423 ) ) ;
#302 = LINE ( 'NONE', #417, #563 ) ;
#303 = EDGE_LOOP ( 'NONE', ( #369, #562, #451, #372 ) ) ;
#304 = VECTOR ( 'NONE', #17, 1000.000000000000114 ) ;
#305 = CARTESIAN_POINT ( 'NONE',  ( 76.25844859691800082, 51.57663662010300243, 11.18832933137299968 ) ) ;
#306 = LINE ( 'NONE', #237, #53 ) ;
#307 = VERTEX_POINT ( 'NONE', #561 ) ;
#308 = VECTOR ( 'NONE', #481, 1000.000000000000000 ) ;
#309 = DIRECTION ( 'NONE',  ( 1.000000000000000000, 0.000000000000000000, 0.000000000000000000 ) ) ;
#310 = ORIENTED_EDGE ( 'NONE', *, *, #241, .F. ) ;
#311 = DIRECTION ( 'NONE',  ( 0.000000000000000000, -1.000000000000000000, 0.000000000000000000 ) ) ;
#312 = ORIENTED_EDGE ( 'NONE', *, *, #7, .F. ) ;
#313 = FACE_OUTER_BOUND ( 'NONE', #255, .T. ) ;
#314 = CARTESIAN_POINT ( 'NONE',  ( 68.64776116578499909, -5.210487365768999624, 9.372559028521001423 ) ) ;
#315 = AXIS2_PLACEMENT_3D ( 'NONE', #607, #319, #539 ) ;
#316 = EDGE_CURVE ( 'NONE', #623, #356, #341, .T. ) ;
#317 = ORIENTED_EDGE ( 'NONE', *, *, #172, .F. ) ;
#318 = AXIS2_PLACEMENT_3D ( 'NONE', #499, #508, #762 ) ;
#319 = DIRECTION ( 'NONE',  ( -0.000000000000000000, 1.000000000000000000, 0.000000000000000000 ) ) ;
#320 = VECTOR ( 'NONE', #733, 1000.000000000000000 ) ;
#321 = DIRECTION ( 'NONE',  ( -0.9363232514814430196, -0.1468006231799126038, 0.3189801651658104586 ) ) ;
#322 = ORIENTED_EDGE ( 'NONE', *, *, #398, .T. ) ;
#323 = ADVANCED_FACE ( 'NONE', ( #274, #506 ), #453, .T. ) ;
#324 = EDGE_CURVE ( 'NONE', #167, #443, #494, .T. ) ;
#325 = CARTESIAN_POINT ( 'NONE',  ( 30.75880970771200040, 2.402047032303999963, 2.496598425638000052 ) ) ;
#326 = EDGE_CURVE ( 'NONE', #697, #789, #744, .T. ) ;
#327 = ORIENTED_EDGE ( 'NONE', *, *, #264, .F. ) ;
#328 = DIRECTION ( 'NONE',  ( 0.000000000000000000, 1.000000000000000000, 0.000000000000000000 ) ) ;
#329 = CARTESIAN_POINT ( 'NONE',  ( 15.43808123407199950, 0.000000000000000000, 0.000000000000000000 ) ) ;
#330 = VERTEX_POINT ( 'NONE', #42 ) ;
#331 = FACE_BOUND ( 'NONE', #45, .T. ) ;
#332 = FACE_OUTER_BOUND ( 'NONE', #496, .T. ) ;
#333 = AXIS2_PLACEMENT_3D ( 'NONE', #282, #86, #637 ) ;
#334 = LINE ( 'NONE', #267, #556 ) ;
#335 = DIRECTION ( 'NONE',  ( -1.000000000000000000, 0.000000000000000000, 0.000000000000000000 ) ) ;
#336 = ORIENTED_EDGE ( 'NONE', *, *, #545, .T. ) ;
#337 = PLANE ( 'NONE',  #211 ) ;
#338 = LINE ( 'NONE', #569, #653 ) ;
#339 = LINE ( 'NONE', #753, #477 ) ;
#340 = ORIENTED_EDGE ( 'NONE', *, *, #674, .F. ) ;
#341 = LINE ( 'NONE', #23, #449 ) ;
#342 = FACE_OUTER_BOUND ( 'NONE', #473, .T. ) ;
#343 = ORIENTED_EDGE ( 'NONE', *, *, #720, .T. ) ;
#344 = VERTEX_POINT ( 'NONE', #106 ) ;
#345 = VECTOR ( 'NONE', #630, 1000.000000000000000 ) ;
#346 = LINE ( 'NONE', #387, #126 ) ;
#347 = ORIENTED_EDGE ( 'NONE', *, *, #463, .T. ) ;
#348 = FACE_OUTER_BOUND ( 'NONE', #376, .T. ) ;
#349 = ORIENTED_EDGE ( 'NONE', *, *, #459, .F. ) ;
#350 = PLANE ( 'NONE',  #722 ) ;
#351 = CARTESIAN_POINT ( 'NONE',  ( 0.000000000000000000, 51.57663662010300243, 4.276271821646000504 ) ) ;
#352 = ORIENTED_EDGE ( 'NONE', *, *, #131, .F. ) ;
#353 = LINE ( 'NONE', #295, #723 ) ;
#354 = CARTESIAN_POINT ( 'NONE',  ( 34.23741388945300201, 2.947436950653999688, 2.364135151248000000 ) ) ;
#355 = ADVANCED_FACE ( 'NONE', ( #313 ), #125, .F. ) ;
#356 = VERTEX_POINT ( 'NONE', #553 ) ;
#357 = DIRECTION ( 'NONE',  ( 0.000000000000000000, 0.000000000000000000, 1.000000000000000000 ) ) ;
#358 = CARTESIAN_POINT ( 'NONE',  ( 0.000000000000000000, 0.000000000000000000, 0.000000000000000000 ) ) ;
#359 = VERTEX_POINT ( 'NONE', #785 ) ;
#360 = DIRECTION ( 'NONE',  ( 0.000000000000000000, 0.000000000000000000, -1.000000000000000000 ) ) ;
#361 = CARTESIAN_POINT ( 'NONE',  ( 32.37345909340000105, 77.48485209986301925, 2.861431665105000466 ) ) ;
#362 = EDGE_LOOP ( 'NONE', ( #336, #702, #279, #533 ) ) ;
#363 = LINE ( 'NONE', #558, #510 ) ;
#364 = VECTOR ( 'NONE', #283, 1000.000000000000000 ) ;
#365 = CARTESIAN_POINT ( 'NONE',  ( 76.25844859691800082, 14.58131760238699925, 8.552543643290999142 ) ) ;
#366 = VERTEX_POINT ( 'NONE', #550 ) ;
#367 = PRODUCT_DEFINITION_FORMATION_WITH_SPECIFIED_SOURCE ( 'ไป', '', #732, .NOT_KNOWN. ) ;
#368 = CARTESIAN_POINT ( 'NONE',  ( 32.56747777140200384, 2.685617474941999649, 1.880433829947000257 ) ) ;
#369 = ORIENTED_EDGE ( 'NONE', *, *, #675, .T. ) ;
#370 = ADVANCED_FACE ( 'NONE', ( #664 ), #3, .T. ) ;
#371 = FACE_OUTER_BOUND ( 'NONE', #487, .T. ) ;
#372 = ORIENTED_EDGE ( 'NONE', *, *, #504, .T. ) ;
#373 = CARTESIAN_POINT ( 'NONE',  ( 73.85824853155399694, 0.000000000000000000, 9.372559028521001423 ) ) ;
#374 = MECHANICAL_DESIGN_GEOMETRIC_PRESENTATION_REPRESENTATION (  '', ( #15 ), #695 ) ;
#375 = DIRECTION ( 'NONE',  ( 0.000000000000000000, 0.000000000000000000, -1.000000000000000000 ) ) ;
#376 = EDGE_LOOP ( 'NONE', ( #669, #466, #87, #483 ) ) ;
#377 = EDGE_CURVE ( 'NONE', #570, #119, #363, .T. ) ;
#378 = AXIS2_PLACEMENT_3D ( 'NONE', #163, #591, #468 ) ;
#379 = EDGE_CURVE ( 'NONE', #167, #14, #57, .T. ) ;
#380 = EDGE_CURVE ( 'NONE', #14, #642, #261, .T. ) ;
#381 = PRESENTATION_STYLE_ASSIGNMENT (( #204 ) ) ;
#382 = VECTOR ( 'NONE', #778, 1000.000000000000000 ) ;
#383 = VECTOR ( 'NONE', #127, 1000.000000000000000 ) ;
#384 = FACE_OUTER_BOUND ( 'NONE', #392, .T. ) ;
#385 = VERTEX_POINT ( 'NONE', #620 ) ;
#386 = CARTESIAN_POINT ( 'NONE',  ( 76.25844859691800082, 14.58131760238699925, 11.18832933137299968 ) ) ;
#387 = CARTESIAN_POINT ( 'NONE',  ( 15.43808123407199950, 0.000000000000000000, 9.372559028521001423 ) ) ;
#388 = ORIENTED_EDGE ( 'NONE', *, *, #94, .T. ) ;
#389 = CARTESIAN_POINT ( 'NONE',  ( 24.84113465226399597, 77.48485209986301925, 2.895838022782999843 ) ) ;
#390 = VECTOR ( 'NONE', #584, 1000.000000000000000 ) ;
#391 = CARTESIAN_POINT ( 'NONE',  ( 15.43808123407199950, 0.000000000000000000, 9.372559028521001423 ) ) ;
#392 = EDGE_LOOP ( 'NONE', ( #509, #407, #784, #476, #170 ) ) ;
#393 = ORIENTED_EDGE ( 'NONE', *, *, #120, .T. ) ;
#394 = CARTESIAN_POINT ( 'NONE',  ( 76.25844859691800082, 51.57663662010300243, 8.552543643290999142 ) ) ;
#395 = LINE ( 'NONE', #581, #636 ) ;
#396 = DIRECTION ( 'NONE',  ( 0.000000000000000000, -1.000000000000000000, 0.000000000000000000 ) ) ;
#397 = VERTEX_POINT ( 'NONE', #444 ) ;
#398 = EDGE_CURVE ( 'NONE', #597, #410, #75, .T. ) ;
#399 = ADVANCED_FACE ( 'NONE', ( #331, #269 ), #693, .T. ) ;
#400 = CARTESIAN_POINT ( 'NONE',  ( 0.000000000000000000, 77.48485209986301925, 11.18832933137299968 ) ) ;
#401 = CARTESIAN_POINT ( 'NONE',  ( 0.000000000000000000, 77.48485209986301925, 11.18832933137299968 ) ) ;
#402 = VERTEX_POINT ( 'NONE', #145 ) ;
#403 = LINE ( 'NONE', #90, #109 ) ;
#404 = CARTESIAN_POINT ( 'NONE',  ( 30.10470089175199604, 2.299493152904999782, 0.8761649010930000481 ) ) ;
#405 = VECTOR ( 'NONE', #593, 1000.000000000000000 ) ;
#406 = ADVANCED_FACE ( 'NONE', ( #342 ), #564, .F. ) ;
#407 = ORIENTED_EDGE ( 'NONE', *, *, #34, .F. ) ;
#408 = ADVANCED_FACE ( 'NONE', ( #460 ), #205, .F. ) ;
#409 = CARTESIAN_POINT ( 'NONE',  ( 20.25389855691900109, 75.41789253522999559, 11.18832933137299968 ) ) ;
#410 = VERTEX_POINT ( 'NONE', #98 ) ;
#411 = ORIENTED_EDGE ( 'NONE', *, *, #114, .F. ) ;
#412 = CARTESIAN_POINT ( 'NONE',  ( 76.25844859691800082, 9.535668175237001165, 0.000000000000000000 ) ) ;
#413 = CARTESIAN_POINT ( 'NONE',  ( 33.12601880070399574, 77.48485209986301925, 3.519955686642999737 ) ) ;
#414 = ORIENTED_EDGE ( 'NONE', *, *, #377, .F. ) ;
#415 = UNCERTAINTY_MEASURE_WITH_UNIT (LENGTH_MEASURE( 1.000000000000000082E-05 ), #498, 'distance_accuracy_value', 'NONE');
#416 = CARTESIAN_POINT ( 'NONE',  ( 33.12601880070399574, 77.48485209986301925, 3.519955686642999737 ) ) ;
#417 = CARTESIAN_POINT ( 'NONE',  ( 0.000000000000000000, 77.48485209986301925, 0.000000000000000000 ) ) ;
#418 = ORIENTED_EDGE ( 'NONE', *, *, #114, .T. ) ;
#419 = VECTOR ( 'NONE', #766, 1000.000000000000114 ) ;
#420 = DIRECTION ( 'NONE',  ( 0.6585240215379795092, 0.000000000000000000, -0.7525597073039764773 ) ) ;
#421 = CARTESIAN_POINT ( 'NONE',  ( 30.84222433122299734, 2.415125121195000002, 4.297983078280999791 ) ) ;
#422 = ORIENTED_EDGE ( 'NONE', *, *, #674, .T. ) ;
#423 = LINE ( 'NONE', #412, #382 ) ;
#424 = DIRECTION ( 'NONE',  ( -0.7473753941310379290, -0.1171765983960059987, -0.6539875113760329484 ) ) ;
#425 = ORIENTED_EDGE ( 'NONE', *, *, #660, .T. ) ;
#426 = DIRECTION ( 'NONE',  ( 0.000000000000000000, -1.000000000000000000, 0.000000000000000000 ) ) ;
#427 = ORIENTED_EDGE ( 'NONE', *, *, #600, .T. ) ;
#428 = VECTOR ( 'NONE', #788, 1000.000000000000000 ) ;
#429 = DIRECTION ( 'NONE',  ( 1.000000000000000000, 0.000000000000000000, 0.000000000000000000 ) ) ;
#430 = VERTEX_POINT ( 'NONE', #703 ) ;
#431 = EDGE_CURVE ( 'NONE', #443, #619, #346, .T. ) ;
#432 = LINE ( 'NONE', #486, #455 ) ;
#433 = VERTEX_POINT ( 'NONE', #517 ) ;
#434 = DIRECTION ( 'NONE',  ( -1.000000000000000000, 0.000000000000000000, 0.000000000000000000 ) ) ;
#435 = PLANE ( 'NONE',  #655 ) ;
#436 = EDGE_CURVE ( 'NONE', #244, #697, #150, .T. ) ;
#437 = EDGE_CURVE ( 'NONE', #219, #402, #445, .T. ) ;
#438 = EDGE_LOOP ( 'NONE', ( #712, #343, #259, #224, #63, #180 ) ) ;
#439 = EDGE_CURVE ( 'NONE', #560, #570, #622, .T. ) ;
#440 = CARTESIAN_POINT ( 'NONE',  ( 32.37345909340000105, 77.48485209986301925, 2.861431665105000466 ) ) ;
#441 = ORIENTED_EDGE ( 'NONE', *, *, #599, .F. ) ;
#442 = LINE ( 'NONE', #329, #69 ) ;
#443 = VERTEX_POINT ( 'NONE', #391 ) ;
#444 = CARTESIAN_POINT ( 'NONE',  ( 47.17839653803299882, 12.29630766761099991, 5.537504171242999540 ) ) ;
#445 = LINE ( 'NONE', #573, #345 ) ;
#446 = DIRECTION ( 'NONE',  ( 0.000000000000000000, -1.000000000000000000, 0.000000000000000000 ) ) ;
#447 = SURFACE_STYLE_FILL_AREA ( #79 ) ;
#448 = CARTESIAN_POINT ( 'NONE',  ( 0.000000000000000000, 77.48485209986301925, 0.000000000000000000 ) ) ;
#449 = VECTOR ( 'NONE', #328, 1000.000000000000000 ) ;
#450 = LINE ( 'NONE', #574, #65 ) ;
#451 = ORIENTED_EDGE ( 'NONE', *, *, #436, .F. ) ;
#452 = ADVANCED_FACE ( 'NONE', ( #628 ), #76, .F. ) ;
#453 = PLANE ( 'NONE',  #650 ) ;
#454 = EDGE_CURVE ( 'NONE', #402, #597, #209, .T. ) ;
#455 = VECTOR ( 'NONE', #610, 1000.000000000000114 ) ;
#456 = DIRECTION ( 'NONE',  ( 0.000000000000000000, 0.000000000000000000, 1.000000000000000000 ) ) ;
#457 = ORIENTED_EDGE ( 'NONE', *, *, #683, .F. ) ;
#458 = EDGE_LOOP ( 'NONE', ( #143, #441, #750, #467, #82, #247, #51, #694, #340, #136 ) ) ;
#459 = EDGE_CURVE ( 'NONE', #638, #410, #403, .T. ) ;
#460 = FACE_OUTER_BOUND ( 'NONE', #303, .T. ) ;
#461 = PLANE ( 'NONE',  #743 ) ;
#462 = EDGE_CURVE ( 'NONE', #651, #560, #334, .T. ) ;
#463 = EDGE_CURVE ( 'NONE', #219, #344, #338, .T. ) ;
#464 = ORIENTED_EDGE ( 'NONE', *, *, #740, .F. ) ;
#465 = DIRECTION ( 'NONE',  ( 0.000000000000000000, -1.000000000000000000, 0.000000000000000000 ) ) ;
#466 = ORIENTED_EDGE ( 'NONE', *, *, #96, .F. ) ;
#467 = ORIENTED_EDGE ( 'NONE', *, *, #459, .T. ) ;
#468 = DIRECTION ( 'NONE',  ( 1.000000000000000000, 0.000000000000000000, 0.000000000000000000 ) ) ;
#469 = CARTESIAN_POINT ( 'NONE',  ( 73.85824853155399694, 1.554312234475000050E-15, 9.372559028521001423 ) ) ;
#470 = VERTEX_POINT ( 'NONE', #29 ) ;
#471 = DIRECTION ( 'NONE',  ( 8.290397463011599015E-17, 0.000000000000000000, 1.000000000000000000 ) ) ;
#472 = CARTESIAN_POINT ( 'NONE',  ( 24.84113465226399597, 77.48485209986301925, 11.18832933137299968 ) ) ;
#473 = EDGE_LOOP ( 'NONE', ( #763, #616, #71, #491 ) ) ;
#474 = LINE ( 'NONE', #177, #787 ) ;
#475 = LINE ( 'NONE', #292, #524 ) ;
#476 = ORIENTED_EDGE ( 'NONE', *, *, #299, .T. ) ;
#477 = VECTOR ( 'NONE', #210, 1000.000000000000000 ) ;
#478 = PLANE ( 'NONE',  #201 ) ;
#479 = DIRECTION ( 'NONE',  ( 0.9465783853061013886, 0.000000000000000000, -0.3224738136210346107 ) ) ;
#480 = ORIENTED_EDGE ( 'NONE', *, *, #380, .T. ) ;
#481 = DIRECTION ( 'NONE',  ( 0.000000000000000000, 1.000000000000000000, 0.000000000000000000 ) ) ;
#482 = LINE ( 'NONE', #596, #162 ) ;
#483 = ORIENTED_EDGE ( 'NONE', *, *, #172, .T. ) ;
#484 = LINE ( 'NONE', #738, #308 ) ;
#485 = ORIENTED_EDGE ( 'NONE', *, *, #592, .F. ) ;
#486 = CARTESIAN_POINT ( 'NONE',  ( 33.51405615670800131, 77.48485209986301925, 1.557960016326000119 ) ) ;
#487 = EDGE_LOOP ( 'NONE', ( #519, #411, #32, #493 ) ) ;
#488 = AXIS2_PLACEMENT_3D ( 'NONE', #536, #781, #770 ) ;
#489 = ADVANCED_FACE ( 'NONE', ( #272 ), #276, .F. ) ;
#490 = DIRECTION ( 'NONE',  ( 1.000000000000000000, 0.000000000000000000, 0.000000000000000000 ) ) ;
#491 = ORIENTED_EDGE ( 'NONE', *, *, #514, .T. ) ;
#492 = LINE ( 'NONE', #325, #111 ) ;
#493 = ORIENTED_EDGE ( 'NONE', *, *, #437, .T. ) ;
#494 = LINE ( 'NONE', #221, #199 ) ;
#495 = CLOSED_SHELL ( 'NONE', ( #370, #615, #68, #452, #217, #298, #489, #408, #535, #578, #406, #717, #541, #777, #657, #399, #646, #300, #35, #157, #355, #291, #575, #323, #534 ) ) ;
#496 = EDGE_LOOP ( 'NONE', ( #347, #288, #176, #715 ) ) ;
#497 = VECTOR ( 'NONE', #426, 1000.000000000000000 ) ;
#498 =( LENGTH_UNIT ( ) NAMED_UNIT ( * ) SI_UNIT ( .MILLI., .METRE. ) );
#499 = CARTESIAN_POINT ( 'NONE',  ( 32.37345909340000105, 77.48485209986301925, 2.861431665105000466 ) ) ;
#500 = EDGE_LOOP ( 'NONE', ( #422, #388, #747, #74, #480 ) ) ;
#501 = DIRECTION ( 'NONE',  ( 0.000000000000000000, -1.000000000000000000, 0.000000000000000000 ) ) ;
#502 = DIRECTION ( 'NONE',  ( 0.000000000000000000, -1.000000000000000000, 0.000000000000000000 ) ) ;
#503 = DIRECTION ( 'NONE',  ( 0.000000000000000000, 0.000000000000000000, 1.000000000000000000 ) ) ;
#504 = EDGE_CURVE ( 'NONE', #244, #151, #284, .T. ) ;
#505 = ORIENTED_EDGE ( 'NONE', *, *, #34, .T. ) ;
#506 = FACE_OUTER_BOUND ( 'NONE', #458, .T. ) ;
#507 = AXIS2_PLACEMENT_3D ( 'NONE', #358, #662, #118 ) ;
#508 = DIRECTION ( 'NONE',  ( -0.6585240215379795092, 0.000000000000000000, 0.7525597073039764773 ) ) ;
#509 = ORIENTED_EDGE ( 'NONE', *, *, #742, .F. ) ;
#510 = VECTOR ( 'NONE', #187, 1000.000000000000000 ) ;
#511 = EDGE_LOOP ( 'NONE', ( #93, #352, #666, #116 ) ) ;
#512 = VECTOR ( 'NONE', #218, 1000.000000000000114 ) ;
#513 = EDGE_CURVE ( 'NONE', #631, #443, #442, .T. ) ;
#514 = EDGE_CURVE ( 'NONE', #433, #366, #756, .T. ) ;
#515 = VECTOR ( 'NONE', #117, 1000.000000000000000 ) ;
#516 = EDGE_CURVE ( 'NONE', #186, #410, #155, .T. ) ;
#517 = CARTESIAN_POINT ( 'NONE',  ( 34.07259718600999321, 77.48485209986301925, 3.197481873021999821 ) ) ;
#518 = ORIENTED_EDGE ( 'NONE', *, *, #379, .T. ) ;
#519 = ORIENTED_EDGE ( 'NONE', *, *, #92, .T. ) ;
#520 = UNCERTAINTY_MEASURE_WITH_UNIT (LENGTH_MEASURE( 1.000000000000000082E-05 ), #137, 'distance_accuracy_value', 'NONE');
#521 = CARTESIAN_POINT ( 'NONE',  ( 32.56747777140200384, 77.48485209986301925, 1.880433829947000257 ) ) ;
#522 = LINE ( 'NONE', #692, #364 ) ;
#523 = DIRECTION ( 'NONE',  ( 1.000000000000000000, 0.000000000000000000, 0.000000000000000000 ) ) ;
#524 = VECTOR ( 'NONE', #544, 1000.000000000000000 ) ;
#525 = LINE ( 'NONE', #104, #405 ) ;
#526 = EDGE_LOOP ( 'NONE', ( #393, #148, #764, #327 ) ) ;
#527 = AXIS2_PLACEMENT_3D ( 'NONE', #448, #634, #142 ) ;
#528 = LINE ( 'NONE', #713, #542 ) ;
#529 = FACE_OUTER_BOUND ( 'NONE', #194, .T. ) ;
#530 = ORIENTED_EDGE ( 'NONE', *, *, #576, .T. ) ;
#531 = DIRECTION ( 'NONE',  ( 1.000000000000000000, 0.000000000000000000, 0.000000000000000000 ) ) ;
#532 = DIRECTION ( 'NONE',  ( 0.9363232514814430196, 0.1468006231799126038, -0.3189801651658104586 ) ) ;
#533 = ORIENTED_EDGE ( 'NONE', *, *, #431, .T. ) ;
#534 = ADVANCED_FACE ( 'NONE', ( #228 ), #240, .T. ) ;
#535 = ADVANCED_FACE ( 'NONE', ( #46 ), #350, .F. ) ;
#536 = CARTESIAN_POINT ( 'NONE',  ( 22.54751660459200124, 75.41789253522999559, 7.042083677077999759 ) ) ;
#537 = DIRECTION ( 'NONE',  ( 1.000000000000000000, 0.000000000000000000, 0.000000000000000000 ) ) ;
#538 = ORIENTED_EDGE ( 'NONE', *, *, #67, .T. ) ;
#539 = DIRECTION ( 'NONE',  ( 1.000000000000000000, 0.000000000000000000, 0.000000000000000000 ) ) ;
#540 = VECTOR ( 'NONE', #140, 1000.000000000000114 ) ;
#541 = ADVANCED_FACE ( 'NONE', ( #101 ), #173, .F. ) ;
#542 = VECTOR ( 'NONE', #465, 1000.000000000000000 ) ;
#543 = CARTESIAN_POINT ( 'NONE',  ( 76.25844859691800082, 77.48485209986301925, 0.000000000000000000 ) ) ;
#544 = DIRECTION ( 'NONE',  ( 0.000000000000000000, -1.000000000000000000, 0.000000000000000000 ) ) ;
#545 = EDGE_CURVE ( 'NONE', #619, #590, #774, .T. ) ;
#546 = ORIENTED_EDGE ( 'NONE', *, *, #513, .T. ) ;
#547 = DIRECTION ( 'NONE',  ( 0.000000000000000000, 0.000000000000000000, 1.000000000000000000 ) ) ;
#548 = DIRECTION ( 'NONE',  ( 1.000000000000000000, 0.000000000000000000, 0.000000000000000000 ) ) ;
#549 = EDGE_LOOP ( 'NONE', ( #37, #672, #253, #99 ) ) ;
#550 = CARTESIAN_POINT ( 'NONE',  ( 34.26661586401199600, 77.48485209986301925, 2.216484037863999834 ) ) ;
#551 = CARTESIAN_POINT ( 'NONE',  ( 47.17839653803299882, 12.29630766761099991, 4.303566865527000296 ) ) ;
#552 = ORIENTED_EDGE ( 'NONE', *, *, #377, .T. ) ;
#553 = CARTESIAN_POINT ( 'NONE',  ( 0.000000000000000000, 14.58131760238699925, 11.18832933137299968 ) ) ;
#554 = AXIS2_PLACEMENT_3D ( 'NONE', #728, #537, #649 ) ;
#555 = FACE_OUTER_BOUND ( 'NONE', #161, .T. ) ;
#556 = VECTOR ( 'NONE', #580, 1000.000000000000000 ) ;
#557 = VERTEX_POINT ( 'NONE', #416 ) ;
#558 = CARTESIAN_POINT ( 'NONE',  ( 20.25389855691900109, 75.41789253522999559, 11.18832933137299968 ) ) ;
#559 = CARTESIAN_POINT ( 'NONE',  ( 24.84113465226399597, 77.48485209986301925, 2.895838022782999843 ) ) ;
#560 = VERTEX_POINT ( 'NONE', #601 ) ;
#561 = CARTESIAN_POINT ( 'NONE',  ( 0.000000000000000000, 77.48485209986301925, 0.000000000000000000 ) ) ;
#562 = ORIENTED_EDGE ( 'NONE', *, *, #326, .F. ) ;
#563 = VECTOR ( 'NONE', #771, 1000.000000000000000 ) ;
#564 = PLANE ( 'NONE',  #289 ) ;
#565 = ORIENTED_EDGE ( 'NONE', *, *, #504, .F. ) ;
#566 = VECTOR ( 'NONE', #502, 1000.000000000000000 ) ;
#567 = CARTESIAN_POINT ( 'NONE',  ( 0.000000000000000000, 0.000000000000000000, 11.18832933137299968 ) ) ;
#568 = DIRECTION ( 'NONE',  ( 0.000000000000000000, 0.000000000000000000, 1.000000000000000000 ) ) ;
#569 = CARTESIAN_POINT ( 'NONE',  ( 76.25844859691800082, 14.58131760238699925, 8.552543643290999142 ) ) ;
#570 = VERTEX_POINT ( 'NONE', #409 ) ;
#571 = VERTEX_POINT ( 'NONE', #647 ) ;
#572 = DIRECTION ( 'NONE',  ( 0.000000000000000000, 0.000000000000000000, 1.000000000000000000 ) ) ;
#573 = CARTESIAN_POINT ( 'NONE',  ( 76.25844859691800082, 14.58131760238699925, 8.552543643290999142 ) ) ;
#574 = CARTESIAN_POINT ( 'NONE',  ( 76.25844859691800082, 51.57663662010300243, 8.552543643290999142 ) ) ;
#575 = ADVANCED_FACE ( 'NONE', ( #168 ), #640, .F. ) ;
#576 = EDGE_CURVE ( 'NONE', #385, #570, #528, .T. ) ;
#577 = CARTESIAN_POINT ( 'NONE',  ( 76.25844859691800082, 0.000000000000000000, 0.000000000000000000 ) ) ;
#578 = ADVANCED_FACE ( 'NONE', ( #348 ), #478, .F. ) ;
#579 = DIRECTION ( 'NONE',  ( 1.000000000000000000, 0.000000000000000000, 0.000000000000000000 ) ) ;
#580 = DIRECTION ( 'NONE',  ( -1.000000000000000000, 0.000000000000000000, 0.000000000000000000 ) ) ;
#581 = CARTESIAN_POINT ( 'NONE',  ( 34.26661586401199600, 77.48485209986301925, 2.216484037863999834 ) ) ;
#582 = ORIENTED_EDGE ( 'NONE', *, *, #324, .F. ) ;
#583 = DIRECTION ( 'NONE',  ( 0.000000000000000000, 0.000000000000000000, -1.000000000000000000 ) ) ;
#584 = DIRECTION ( 'NONE',  ( 0.000000000000000000, 0.000000000000000000, 1.000000000000000000 ) ) ;
#585 = VERTEX_POINT ( 'NONE', #586 ) ;
#586 = CARTESIAN_POINT ( 'NONE',  ( 0.000000000000000000, 51.57663662010300243, 8.552543643290999142 ) ) ;
#587 = LINE ( 'NONE', #166, #171 ) ;
#588 = DIRECTION ( 'NONE',  ( -0.3224738136210346107, 0.000000000000000000, -0.9465783853061014996 ) ) ;
#589 = LINE ( 'NONE', #351, #196 ) ;
#590 = VERTEX_POINT ( 'NONE', #301 ) ;
#591 = DIRECTION ( 'NONE',  ( -0.000000000000000000, 1.000000000000000000, 0.000000000000000000 ) ) ;
#592 = EDGE_CURVE ( 'NONE', #13, #13, #58, .T. ) ;
#593 = DIRECTION ( 'NONE',  ( -1.000000000000000000, 0.000000000000000000, 0.000000000000000000 ) ) ;
#594 = ORIENTED_EDGE ( 'NONE', *, *, #513, .F. ) ;
#595 = CARTESIAN_POINT ( 'NONE',  ( 33.51405615670800131, 77.48485209986301925, 1.557960016326000119 ) ) ;
#596 = CARTESIAN_POINT ( 'NONE',  ( 32.37345909340000105, 77.48485209986301925, 2.861431665105000466 ) ) ;
#597 = VERTEX_POINT ( 'NONE', #305 ) ;
#598 = EDGE_CURVE ( 'NONE', #433, #430, #353, .T. ) ;
#599 = EDGE_CURVE ( 'NONE', #705, #619, #423, .T. ) ;
#600 = EDGE_CURVE ( 'NONE', #119, #651, #236, .T. ) ;
#601 = CARTESIAN_POINT ( 'NONE',  ( 20.25389855691900109, 75.41789253522999559, 2.895838022782999843 ) ) ;
#602 = LINE ( 'NONE', #421, #612 ) ;
#603 = ORIENTED_EDGE ( 'NONE', *, *, #7, .T. ) ;
#604 = VECTOR ( 'NONE', #479, 1000.000000000000114 ) ;
#605 = LINE ( 'NONE', #440, #497 ) ;
#606 = EDGE_LOOP ( 'NONE', ( #754 ) ) ;
#607 = CARTESIAN_POINT ( 'NONE',  ( 0.000000000000000000, 0.000000000000000000, 0.000000000000000000 ) ) ;
#608 = CARTESIAN_POINT ( 'NONE',  ( 33.51405615670800131, 2.834025940321000192, 1.557960016326000119 ) ) ;
#609 = EDGE_LOOP ( 'NONE', ( #230 ) ) ;
#610 = DIRECTION ( 'NONE',  ( -0.9465783853061013886, 0.000000000000000000, 0.3224738136210346107 ) ) ;
#611 = EDGE_LOOP ( 'NONE', ( #77, #38, #124, #791 ) ) ;
#612 = VECTOR ( 'NONE', #532, 1000.000000000000000 ) ;
#613 = CYLINDRICAL_SURFACE ( 'NONE', #83, 1.233937305715999466 ) ;
#614 = AXIS2_PLACEMENT_3D ( 'NONE', #716, #232, #531 ) ;
#615 = ADVANCED_FACE ( 'NONE', ( #654 ), #112, .T. ) ;
#616 = ORIENTED_EDGE ( 'NONE', *, *, #239, .F. ) ;
#617 = DIRECTION ( 'NONE',  ( -0.1548919639240619595, 0.9879314143763964218, 0.000000000000000000 ) ) ;
#618 = DIRECTION ( 'NONE',  ( 0.000000000000000000, 0.000000000000000000, 1.000000000000000000 ) ) ;
#619 = VERTEX_POINT ( 'NONE', #103 ) ;
#620 = CARTESIAN_POINT ( 'NONE',  ( 20.25389855691900109, 77.48485209986301925, 11.18832933137299968 ) ) ;
#621 = DIRECTION ( 'NONE',  ( 0.000000000000000000, 1.000000000000000000, 0.000000000000000000 ) ) ;
#622 = LINE ( 'NONE', #159, #746 ) ;
#623 = VERTEX_POINT ( 'NONE', #43 ) ;
#624 = DIRECTION ( 'NONE',  ( 0.000000000000000000, 1.000000000000000000, 0.000000000000000000 ) ) ;
#625 = DIRECTION ( 'NONE',  ( 0.000000000000000000, -1.000000000000000000, 0.000000000000000000 ) ) ;
#626 = COLOUR_RGB ( '',0.7921568627450980005, 0.8196078431372548767, 0.9333333333333333481 ) ;
#627 = SHAPE_DEFINITION_REPRESENTATION ( #198, #271 ) ;
#628 = FACE_OUTER_BOUND ( 'NONE', #526, .T. ) ;
#629 = FACE_OUTER_BOUND ( 'NONE', #780, .T. ) ;
#630 = DIRECTION ( 'NONE',  ( 0.000000000000000000, 1.000000000000000000, 0.000000000000000000 ) ) ;
#631 = VERTEX_POINT ( 'NONE', #724 ) ;
#632 = EDGE_CURVE ( 'NONE', #704, #219, #474, .T. ) ;
#633 = DIRECTION ( 'NONE',  ( 0.000000000000000000, 0.000000000000000000, -1.000000000000000000 ) ) ;
#634 = DIRECTION ( 'NONE',  ( -0.000000000000000000, 1.000000000000000000, 0.000000000000000000 ) ) ;
#635 = FACE_OUTER_BOUND ( 'NONE', #362, .T. ) ;
#636 = VECTOR ( 'NONE', #26, 1000.000000000000000 ) ;
#637 = DIRECTION ( 'NONE',  ( -0.1940186780019721169, 0.000000000000000000, 0.9809978351588586332 ) ) ;
#638 = VERTEX_POINT ( 'NONE', #543 ) ;
#639 = AXIS2_PLACEMENT_3D ( 'NONE', #182, #195, #548 ) ;
#640 = PLANE ( 'NONE',  #681 ) ;
#641 = DIRECTION ( 'NONE',  ( 0.000000000000000000, 0.000000000000000000, -1.000000000000000000 ) ) ;
#642 = VERTEX_POINT ( 'NONE', #225 ) ;
#643 = CARTESIAN_POINT ( 'NONE',  ( 34.26661586401199600, 77.48485209986301925, 2.216484037863999834 ) ) ;
#644 = PLANE ( 'NONE',  #554 ) ;
#645 = ORIENTED_EDGE ( 'NONE', *, *, #761, .T. ) ;
#646 = ADVANCED_FACE ( 'NONE', ( #384 ), #73, .F. ) ;
#647 = CARTESIAN_POINT ( 'NONE',  ( 34.26661586401199600, 2.952015356729999596, 2.216484037863999834 ) ) ;
#648 = VECTOR ( 'NONE', #102, 1000.000000000000000 ) ;
#649 = DIRECTION ( 'NONE',  ( 0.000000000000000000, 1.000000000000000000, 0.000000000000000000 ) ) ;
#650 = AXIS2_PLACEMENT_3D ( 'NONE', #577, #12, #759 ) ;
#651 = VERTEX_POINT ( 'NONE', #130 ) ;
#652 = VECTOR ( 'NONE', #39, 1000.000000000000000 ) ;
#653 = VECTOR ( 'NONE', #25, 1000.000000000000000 ) ;
#654 = FACE_OUTER_BOUND ( 'NONE', #11, .T. ) ;
#655 = AXIS2_PLACEMENT_3D ( 'NONE', #365, #375, #727 ) ;
#656 = CARTESIAN_POINT ( 'NONE',  ( 76.25844859691800082, 14.58131760238699925, 8.552543643290999142 ) ) ;
#657 = ADVANCED_FACE ( 'NONE', ( #371 ), #435, .F. ) ;
#658 = EDGE_CURVE ( 'NONE', #470, #244, #432, .T. ) ;
#659 = ORIENTED_EDGE ( 'NONE', *, *, #735, .F. ) ;
#660 = EDGE_CURVE ( 'NONE', #167, #590, #62, .T. ) ;
#661 = DIRECTION ( 'NONE',  ( -0.7071067811865475727, 0.7071067811865475727, 5.862196264827251654E-17 ) ) ;
#662 = DIRECTION ( 'NONE',  ( 1.000000000000000000, 0.000000000000000000, 0.000000000000000000 ) ) ;
#663 = ORIENTED_EDGE ( 'NONE', *, *, #243, .T. ) ;
#664 = FACE_OUTER_BOUND ( 'NONE', #609, .T. ) ;
#665 = CARTESIAN_POINT ( 'NONE',  ( 76.25844859691800082, 14.58131760238699925, 11.18832933137299968 ) ) ;
#666 = ORIENTED_EDGE ( 'NONE', *, *, #92, .F. ) ;
#667 = VECTOR ( 'NONE', #624, 1000.000000000000000 ) ;
#668 = CARTESIAN_POINT ( 'NONE',  ( 33.12601880070399574, 2.773187842380000045, 3.519955686642999737 ) ) ;
#669 = ORIENTED_EDGE ( 'NONE', *, *, #181, .T. ) ;
#670 = VECTOR ( 'NONE', #311, 1000.000000000000000 ) ;
#671 = DIRECTION ( 'NONE',  ( 0.000000000000000000, 0.000000000000000000, 1.000000000000000000 ) ) ;
#672 = ORIENTED_EDGE ( 'NONE', *, *, #720, .F. ) ;
#673 = LINE ( 'NONE', #354, #184 ) ;
#674 = EDGE_CURVE ( 'NONE', #642, #704, #70, .T. ) ;
#675 = EDGE_CURVE ( 'NONE', #151, #789, #605, .T. ) ;
#676 = DIRECTION ( 'NONE',  ( 0.7071067811865474617, 0.7071067811865474617, 0.000000000000000000 ) ) ;
#677 = VERTEX_POINT ( 'NONE', #668 ) ;
#678 = VECTOR ( 'NONE', #625, 1000.000000000000000 ) ;
#679 = DIRECTION ( 'NONE',  ( -1.000000000000000000, 0.000000000000000000, 0.000000000000000000 ) ) ;
#680 = DIRECTION ( 'NONE',  ( 0.000000000000000000, 0.000000000000000000, 1.000000000000000000 ) ) ;
#681 = AXIS2_PLACEMENT_3D ( 'NONE', #710, #661, #471 ) ;
#682 = ORIENTED_EDGE ( 'NONE', *, *, #257, .F. ) ;
#683 = EDGE_CURVE ( 'NONE', #623, #14, #60, .T. ) ;
#684 = EDGE_CURVE ( 'NONE', #397, #397, #760, .T. ) ;
#685 = LINE ( 'NONE', #389, #678 ) ;
#686 = CARTESIAN_POINT ( 'NONE',  ( 32.37345909340000105, 2.655198425971000198, 2.861431665105000466 ) ) ;
#687 = DIRECTION ( 'NONE',  ( 0.000000000000000000, 0.000000000000000000, 1.000000000000000000 ) ) ;
#688 = ORIENTED_EDGE ( 'NONE', *, *, #658, .F. ) ;
#689 = DIRECTION ( 'NONE',  ( 0.000000000000000000, 1.000000000000000000, 0.000000000000000000 ) ) ;
#690 = CARTESIAN_POINT ( 'NONE',  ( 0.000000000000000000, 0.000000000000000000, 0.000000000000000000 ) ) ;
#691 = DIRECTION ( 'NONE',  ( 0.000000000000000000, 0.000000000000000000, 1.000000000000000000 ) ) ;
#692 = CARTESIAN_POINT ( 'NONE',  ( 0.000000000000000000, 0.000000000000000000, 0.000000000000000000 ) ) ;
#693 = PLANE ( 'NONE',  #527 ) ;
#694 = ORIENTED_EDGE ( 'NONE', *, *, #632, .F. ) ;
#695 =( GEOMETRIC_REPRESENTATION_CONTEXT ( 3 ) GLOBAL_UNCERTAINTY_ASSIGNED_CONTEXT ( ( #520 ) ) GLOBAL_UNIT_ASSIGNED_CONTEXT ( ( #137, #751, #700 ) ) REPRESENTATION_CONTEXT ( 'NONE', 'WORKASPACE' ) );
#696 = DIRECTION ( 'NONE',  ( 0.000000000000000000, -1.000000000000000000, 0.000000000000000000 ) ) ;
#697 = VERTEX_POINT ( 'NONE', #368 ) ;
#698 = VECTOR ( 'NONE', #687, 1000.000000000000000 ) ;
#699 = EDGE_LOOP ( 'NONE', ( #682, #293, #322, #146, #28, #414, #721, #659 ) ) ;
#700 =( NAMED_UNIT ( * ) SI_UNIT ( $, .STERADIAN. ) SOLID_ANGLE_UNIT ( ) );
#701 = CARTESIAN_POINT ( 'NONE',  ( 34.07259718600999321, 77.48485209986301925, 3.197481873021999821 ) ) ;
#702 = ORIENTED_EDGE ( 'NONE', *, *, #660, .F. ) ;
#703 = CARTESIAN_POINT ( 'NONE',  ( 34.07259718600999321, 2.921596307759000144, 3.197481873021999821 ) ) ;
#704 = VERTEX_POINT ( 'NONE', #665 ) ;
#705 = VERTEX_POINT ( 'NONE', #138 ) ;
#706 = VECTOR ( 'NONE', #641, 1000.000000000000000 ) ;
#707 = DIRECTION ( 'NONE',  ( 1.000000000000000000, 0.000000000000000000, 0.000000000000000000 ) ) ;
#708 = ORIENTED_EDGE ( 'NONE', *, *, #439, .T. ) ;
#709 =( GEOMETRIC_REPRESENTATION_CONTEXT ( 3 ) GLOBAL_UNCERTAINTY_ASSIGNED_CONTEXT ( ( #415 ) ) GLOBAL_UNIT_ASSIGNED_CONTEXT ( ( #498, #748, #745 ) ) REPRESENTATION_CONTEXT ( 'NONE', 'WORKASPACE' ) );
#710 = CARTESIAN_POINT ( 'NONE',  ( 75.05834856423599888, 1.200100032682000162, 9.372559028521001423 ) ) ;
#711 = DIRECTION ( 'NONE',  ( -0.7525597073039763663, 0.000000000000000000, -0.6585240215379795092 ) ) ;
#712 = ORIENTED_EDGE ( 'NONE', *, *, #96, .T. ) ;
#713 = CARTESIAN_POINT ( 'NONE',  ( 20.25389855691900109, 77.48485209986301925, 11.18832933137299968 ) ) ;
#714 = LINE ( 'NONE', #233, #278 ) ;
#715 = ORIENTED_EDGE ( 'NONE', *, *, #632, .T. ) ;
#716 = CARTESIAN_POINT ( 'NONE',  ( 0.000000000000000000, 0.000000000000000000, 11.18832933137299968 ) ) ;
#717 = ADVANCED_FACE ( 'NONE', ( #736, #555 ), #613, .F. ) ;
#718 = VECTOR ( 'NONE', #689, 1000.000000000000000 ) ;
#719 = CARTESIAN_POINT ( 'NONE',  ( 20.25389855691900109, 77.48485209986301925, 2.895838022782999843 ) ) ;
#720 = EDGE_CURVE ( 'NONE', #768, #697, #492, .T. ) ;
#721 = ORIENTED_EDGE ( 'NONE', *, *, #576, .F. ) ;
#722 = AXIS2_PLACEMENT_3D ( 'NONE', #595, #588, #49 ) ;
#723 = VECTOR ( 'NONE', #40, 1000.000000000000000 ) ;
#724 = CARTESIAN_POINT ( 'NONE',  ( 15.43808123407199950, 0.000000000000000000, 0.000000000000000000 ) ) ;
#725 = CARTESIAN_POINT ( 'NONE',  ( 32.56747777140200384, 77.48485209986301925, 1.880433829947000257 ) ) ;
#726 = VERTEX_POINT ( 'NONE', #559 ) ;
#727 = DIRECTION ( 'NONE',  ( 0.000000000000000000, -1.000000000000000000, 0.000000000000000000 ) ) ;
#728 = CARTESIAN_POINT ( 'NONE',  ( 24.84113465226399597, 77.48485209986301925, 11.18832933137299968 ) ) ;
#729 = ORIENTED_EDGE ( 'NONE', *, *, #735, .T. ) ;
#730 = LINE ( 'NONE', #185, #383 ) ;
#731 = ORIENTED_EDGE ( 'NONE', *, *, #131, .T. ) ;
#732 = PRODUCT ( '20260414_160844_131', '20260414_160844_131', '', ( #263 ) ) ;
#733 = DIRECTION ( 'NONE',  ( 0.000000000000000000, 0.000000000000000000, 1.000000000000000000 ) ) ;
#734 = EDGE_LOOP ( 'NONE', ( #505, #249, #139, #594 ) ) ;
#735 = EDGE_CURVE ( 'NONE', #22, #385, #786, .T. ) ;
#736 = FACE_OUTER_BOUND ( 'NONE', #606, .T. ) ;
#737 = ORIENTED_EDGE ( 'NONE', *, *, #10, .T. ) ;
#738 = CARTESIAN_POINT ( 'NONE',  ( 76.25844859691800082, 0.000000000000000000, 0.000000000000000000 ) ) ;
#739 = EDGE_CURVE ( 'NONE', #307, #22, #790, .T. ) ;
#740 = EDGE_CURVE ( 'NONE', #557, #677, #193, .T. ) ;
#741 = ORIENTED_EDGE ( 'NONE', *, *, #514, .F. ) ;
#742 = EDGE_CURVE ( 'NONE', #705, #638, #484, .T. ) ;
#743 = AXIS2_PLACEMENT_3D ( 'NONE', #277, #30, #446 ) ;
#744 = LINE ( 'NONE', #200, #652 ) ;
#745 =( NAMED_UNIT ( * ) SI_UNIT ( $, .STERADIAN. ) SOLID_ANGLE_UNIT ( ) );
#746 = VECTOR ( 'NONE', #691, 1000.000000000000000 ) ;
#747 = ORIENTED_EDGE ( 'NONE', *, *, #316, .F. ) ;
#748 =( NAMED_UNIT ( * ) PLANE_ANGLE_UNIT ( ) SI_UNIT ( $, .RADIAN. ) );
#749 = CARTESIAN_POINT ( 'NONE',  ( 34.07259718600999321, 77.48485209986301925, 3.197481873021999821 ) ) ;
#750 = ORIENTED_EDGE ( 'NONE', *, *, #742, .T. ) ;
#751 =( NAMED_UNIT ( * ) PLANE_ANGLE_UNIT ( ) SI_UNIT ( $, .RADIAN. ) );
#752 = DIRECTION ( 'NONE',  ( 0.000000000000000000, -1.000000000000000000, 0.000000000000000000 ) ) ;
#753 = CARTESIAN_POINT ( 'NONE',  ( 0.000000000000000000, 14.58131760238699925, 5.594164665687000770 ) ) ;
#754 = ORIENTED_EDGE ( 'NONE', *, *, #684, .F. ) ;
#755 = SURFACE_SIDE_STYLE ('',( #447 ) ) ;
#756 = LINE ( 'NONE', #701, #512 ) ;
#757 = LINE ( 'NONE', #268, #390 ) ;
#758 = ORIENTED_EDGE ( 'NONE', *, *, #739, .T. ) ;
#759 = DIRECTION ( 'NONE',  ( 0.000000000000000000, 1.000000000000000000, 0.000000000000000000 ) ) ;
#760 = CIRCLE ( 'NONE', #202, 1.233937305715999466 ) ;
#761 = EDGE_CURVE ( 'NONE', #590, #642, #9, .T. ) ;
#762 = DIRECTION ( 'NONE',  ( 0.000000000000000000, 1.000000000000000000, 0.000000000000000000 ) ) ;
#763 = ORIENTED_EDGE ( 'NONE', *, *, #8, .T. ) ;
#764 = ORIENTED_EDGE ( 'NONE', *, *, #462, .F. ) ;
#765 = EDGE_CURVE ( 'NONE', #186, #119, #730, .T. ) ;
#766 = DIRECTION ( 'NONE',  ( -0.1940186780019721169, 0.000000000000000000, 0.9809978351588586332 ) ) ;
#767 = CARTESIAN_POINT ( 'NONE',  ( 73.85824853155399694, 1.554312234475000050E-15, 11.18832933137299968 ) ) ;
#768 = VERTEX_POINT ( 'NONE', #608 ) ;
#769 = VECTOR ( 'NONE', #424, 1000.000000000000000 ) ;
#770 = DIRECTION ( 'NONE',  ( 1.000000000000000000, 4.730779135245999560E-30, 0.000000000000000000 ) ) ;
#771 = DIRECTION ( 'NONE',  ( 1.000000000000000000, 0.000000000000000000, 0.000000000000000000 ) ) ;
#772 = ORIENTED_EDGE ( 'NONE', *, *, #120, .F. ) ;
#773 = VECTOR ( 'NONE', #680, 1000.000000000000000 ) ;
#774 = LINE ( 'NONE', #290, #31 ) ;
#775 = DIRECTION ( 'NONE',  ( -1.000000000000000000, 0.000000000000000000, 0.000000000000000000 ) ) ;
#776 = ORIENTED_EDGE ( 'NONE', *, *, #257, .T. ) ;
#777 = ADVANCED_FACE ( 'NONE', ( #792 ), #189, .T. ) ;
#778 = DIRECTION ( 'NONE',  ( 0.000000000000000000, 0.000000000000000000, 1.000000000000000000 ) ) ;
#779 = CARTESIAN_POINT ( 'NONE',  ( 0.000000000000000000, 7.290658801193999672, 8.552543643290999142 ) ) ;
#780 = EDGE_LOOP ( 'NONE', ( #66, #530, #110, #310 ) ) ;
#781 = DIRECTION ( 'NONE',  ( -4.730779135245999560E-30, 1.000000000000000000, -8.272309216901001350E-31 ) ) ;
#782 = AXIS2_PLACEMENT_3D ( 'NONE', #386, #396, #633 ) ;
#783 = LINE ( 'NONE', #413, #604 ) ;
#784 = ORIENTED_EDGE ( 'NONE', *, *, #67, .F. ) ;
#785 = CARTESIAN_POINT ( 'NONE',  ( 0.000000000000000000, 0.000000000000000000, 0.000000000000000000 ) ) ;
#786 = LINE ( 'NONE', #258, #33 ) ;
#787 = VECTOR ( 'NONE', #360, 1000.000000000000000 ) ;
#788 = DIRECTION ( 'NONE',  ( 0.000000000000000000, 1.000000000000000000, 0.000000000000000000 ) ) ;
#789 = VERTEX_POINT ( 'NONE', #686 ) ;
#790 = LINE ( 'NONE', #248, #320 ) ;
#791 = ORIENTED_EDGE ( 'NONE', *, *, #216, .T. ) ;
#792 = FACE_OUTER_BOUND ( 'NONE', #699, .T. ) ;
ENDSEC;
END-ISO-10303-21;
