ISO-10303-21;
HEADER;
FILE_DESCRIPTION (( 'STEP AP214' ),
    '1' );
FILE_NAME ('20260414_160844_118.STEP',
    '2026-04-16T14:58:07',
    ( '' ),
    ( '' ),
    'SwSTEP 2.0',
    'SolidWorks 2025',
    '' );
FILE_SCHEMA (( 'AUTOMOTIVE_DESIGN' ));
ENDSEC;

DATA;
#1 = ADVANCED_FACE ( 'NONE', ( #485 ), #336, .T. ) ;
#2 = PLANE ( 'NONE',  #479 ) ;
#3 = ORIENTED_EDGE ( 'NONE', *, *, #176, .T. ) ;
#4 = DIRECTION ( 'NONE',  ( 0.000000000000000000, 0.000000000000000000, 1.000000000000000000 ) ) ;
#5 = ORIENTED_EDGE ( 'NONE', *, *, #365, .F. ) ;
#6 = LINE ( 'NONE', #391, #186 ) ;
#7 = EDGE_LOOP ( 'NONE', ( #274 ) ) ;
#8 = EDGE_CURVE ( 'NONE', #208, #426, #408, .T. ) ;
#9 = DIRECTION ( 'NONE',  ( 1.000000000000000000, 0.000000000000000000, 0.000000000000000000 ) ) ;
#10 = VECTOR ( 'NONE', #241, 1000.000000000000000 ) ;
#11 = VERTEX_POINT ( 'NONE', #143 ) ;
#12 = LINE ( 'NONE', #310, #251 ) ;
#13 = ORIENTED_EDGE ( 'NONE', *, *, #318, .F. ) ;
#14 = VECTOR ( 'NONE', #152, 1000.000000000000000 ) ;
#15 = DIRECTION ( 'NONE',  ( 0.000000000000000000, 0.000000000000000000, 1.000000000000000000 ) ) ;
#16 =( NAMED_UNIT ( * ) SI_UNIT ( $, .STERADIAN. ) SOLID_ANGLE_UNIT ( ) );
#17 = EDGE_LOOP ( 'NONE', ( #463, #435, #133, #414, #116, #285, #163 ) ) ;
#18 = EDGE_CURVE ( 'NONE', #50, #208, #292, .T. ) ;
#19 = DIRECTION ( 'NONE',  ( 0.000000000000000000, 1.000000000000000000, 0.000000000000000000 ) ) ;
#20 = ORIENTED_EDGE ( 'NONE', *, *, #328, .T. ) ;
#21 = AXIS2_PLACEMENT_3D ( 'NONE', #37, #246, #277 ) ;
#22 = DIRECTION ( 'NONE',  ( 1.000000000000000000, 0.000000000000000000, 0.000000000000000000 ) ) ;
#23 = VERTEX_POINT ( 'NONE', #27 ) ;
#24 = DIRECTION ( 'NONE',  ( 0.000000000000000000, 0.000000000000000000, 1.000000000000000000 ) ) ;
#25 = FACE_OUTER_BOUND ( 'NONE', #156, .T. ) ;
#26 = FACE_OUTER_BOUND ( 'NONE', #58, .T. ) ;
#27 = CARTESIAN_POINT ( 'NONE',  ( 11.89187814458599846, 33.58433428592000070, 65.57487878072200260 ) ) ;
#28 = DIRECTION ( 'NONE',  ( -1.000000000000000000, 0.000000000000000000, 0.000000000000000000 ) ) ;
#29 = ORIENTED_EDGE ( 'NONE', *, *, #72, .F. ) ;
#30 = CARTESIAN_POINT ( 'NONE',  ( 0.000000000000000000, 61.39523085859399743, 65.57487878072200260 ) ) ;
#31 = EDGE_CURVE ( 'NONE', #11, #323, #410, .T. ) ;
#32 = VERTEX_POINT ( 'NONE', #335 ) ;
#33 =( NAMED_UNIT ( * ) SI_UNIT ( $, .STERADIAN. ) SOLID_ANGLE_UNIT ( ) );
#34 = VECTOR ( 'NONE', #201, 1000.000000000000000 ) ;
#35 = DIRECTION ( 'NONE',  ( 0.000000000000000000, 0.000000000000000000, -1.000000000000000000 ) ) ;
#36 = VERTEX_POINT ( 'NONE', #61 ) ;
#37 = CARTESIAN_POINT ( 'NONE',  ( 11.89187814458599846, 0.000000000000000000, 0.000000000000000000 ) ) ;
#38 = EDGE_CURVE ( 'NONE', #23, #474, #333, .T. ) ;
#39 = ORIENTED_EDGE ( 'NONE', *, *, #38, .F. ) ;
#40 = CARTESIAN_POINT ( 'NONE',  ( 2.838521975273000209, 61.39523085859399743, 65.57487878072200260 ) ) ;
#41 = DIRECTION ( 'NONE',  ( 0.000000000000000000, 1.000000000000000000, 0.000000000000000000 ) ) ;
#42 = VECTOR ( 'NONE', #319, 1000.000000000000000 ) ;
#43 = LINE ( 'NONE', #473, #299 ) ;
#44 = ORIENTED_EDGE ( 'NONE', *, *, #18, .F. ) ;
#45 = ADVANCED_FACE ( 'NONE', ( #172 ), #174, .F. ) ;
#46 = AXIS2_PLACEMENT_3D ( 'NONE', #466, #125, #120 ) ;
#47 = LINE ( 'NONE', #313, #157 ) ;
#48 = ORIENTED_EDGE ( 'NONE', *, *, #416, .F. ) ;
#49 = CARTESIAN_POINT ( 'NONE',  ( 5.525549828144999509, 4.807232460760999082, 8.053939068205998808 ) ) ;
#50 = VERTEX_POINT ( 'NONE', #453 ) ;
#51 = ADVANCED_FACE ( 'NONE', ( #25, #325 ), #138, .F. ) ;
#52 = DIRECTION ( 'NONE',  ( 0.000000000000000000, 0.000000000000000000, -1.000000000000000000 ) ) ;
#53 = ORIENTED_EDGE ( 'NONE', *, *, #176, .F. ) ;
#54 = DIRECTION ( 'NONE',  ( 0.000000000000000000, -1.000000000000000000, 0.000000000000000000 ) ) ;
#55 = EDGE_LOOP ( 'NONE', ( #481, #478, #476, #39 ) ) ;
#56 = MECHANICAL_DESIGN_GEOMETRIC_PRESENTATION_REPRESENTATION (  '', ( #144 ), #233 ) ;
#57 = CARTESIAN_POINT ( 'NONE',  ( 0.000000000000000000, 7.443091189028999466, 65.57487878072200260 ) ) ;
#58 = EDGE_LOOP ( 'NONE', ( #468, #278, #131 ) ) ;
#59 = CARTESIAN_POINT ( 'NONE',  ( 0.000000000000000000, 0.000000000000000000, 65.57487878072200260 ) ) ;
#60 = AXIS2_PLACEMENT_3D ( 'NONE', #102, #93, #327 ) ;
#61 = CARTESIAN_POINT ( 'NONE',  ( 0.000000000000000000, 0.000000000000000000, 5.967788636764000287 ) ) ;
#62 = CARTESIAN_POINT ( 'NONE',  ( 2.838521975273000209, 61.39523085859399743, 0.000000000000000000 ) ) ;
#63 = CARTESIAN_POINT ( 'NONE',  ( 11.89187814458599846, 33.58433428592000070, 65.57487878072200260 ) ) ;
#64 = DIRECTION ( 'NONE',  ( 1.000000000000000000, 0.000000000000000000, 0.000000000000000000 ) ) ;
#65 = CARTESIAN_POINT ( 'NONE',  ( 9.400706546228001059, 0.000000000000000000, 65.57487878072200260 ) ) ;
#66 = FACE_OUTER_BOUND ( 'NONE', #232, .T. ) ;
#67 = SURFACE_SIDE_STYLE ('',( #369 ) ) ;
#68 = DIRECTION ( 'NONE',  ( 1.000000000000000000, 0.000000000000000000, 0.000000000000000000 ) ) ;
#69 = DIRECTION ( 'NONE',  ( 1.000000000000000000, 0.000000000000000000, 0.000000000000000000 ) ) ;
#70 = LINE ( 'NONE', #77, #322 ) ;
#71 = ORIENTED_EDGE ( 'NONE', *, *, #111, .F. ) ;
#72 = EDGE_CURVE ( 'NONE', #323, #154, #445, .T. ) ;
#73 = LINE ( 'NONE', #379, #454 ) ;
#74 = ORIENTED_EDGE ( 'NONE', *, *, #159, .T. ) ;
#75 = AXIS2_PLACEMENT_3D ( 'NONE', #455, #376, #184 ) ;
#76 = LINE ( 'NONE', #40, #315 ) ;
#77 = CARTESIAN_POINT ( 'NONE',  ( 0.000000000000000000, 0.000000000000000000, 0.000000000000000000 ) ) ;
#78 = MANIFOLD_SOLID_BREP ( 'Open CASCADE STEP translator 7.5 7[1]', #418 ) ;
#79 = CARTESIAN_POINT ( 'NONE',  ( 11.89187814458599846, 0.000000000000000000, 65.57487878072200260 ) ) ;
#80 = SHAPE_DEFINITION_REPRESENTATION ( #465, #449 ) ;
#81 = ADVANCED_FACE ( 'NONE', ( #115 ), #296, .F. ) ;
#82 = AXIS2_PLACEMENT_3D ( 'NONE', #480, #330, #362 ) ;
#83 = DIRECTION ( 'NONE',  ( 0.000000000000000000, -1.000000000000000000, 0.000000000000000000 ) ) ;
#84 = EDGE_LOOP ( 'NONE', ( #282, #3, #349, #472 ) ) ;
#85 = CARTESIAN_POINT ( 'NONE',  ( 0.000000000000000000, 5.633259784879999899, 15.69042748862000280 ) ) ;
#86 = EDGE_LOOP ( 'NONE', ( #424 ) ) ;
#87 = ADVANCED_FACE ( 'NONE', ( #147, #412 ), #498, .T. ) ;
#88 = EDGE_CURVE ( 'NONE', #488, #122, #422, .T. ) ;
#89 = CARTESIAN_POINT ( 'NONE',  ( 8.283660282067000225, 5.633259784879999899, 15.69042748862000280 ) ) ;
#90 = EDGE_LOOP ( 'NONE', ( #5 ) ) ;
#91 = DIRECTION ( 'NONE',  ( 0.7611886434619760111, 0.000000000000000000, -0.6485305305569790679 ) ) ;
#92 = ORIENTED_EDGE ( 'NONE', *, *, #266, .T. ) ;
#93 = DIRECTION ( 'NONE',  ( 0.000000000000000000, 0.000000000000000000, 1.000000000000000000 ) ) ;
#94 = ORIENTED_EDGE ( 'NONE', *, *, #347, .F. ) ;
#95 = DIRECTION ( 'NONE',  ( 0.000000000000000000, 1.000000000000000000, 0.000000000000000000 ) ) ;
#96 = ORIENTED_EDGE ( 'NONE', *, *, #492, .T. ) ;
#97 = VECTOR ( 'NONE', #359, 1000.000000000000000 ) ;
#98 = ADVANCED_FACE ( 'NONE', ( #264 ), #190, .T. ) ;
#99 = LINE ( 'NONE', #105, #279 ) ;
#100 = DIRECTION ( 'NONE',  ( 0.000000000000000000, 1.000000000000000000, 0.000000000000000000 ) ) ;
#101 = AXIS2_PLACEMENT_3D ( 'NONE', #345, #153, #4 ) ;
#102 = CARTESIAN_POINT ( 'NONE',  ( 0.000000000000000000, 0.000000000000000000, 0.000000000000000000 ) ) ;
#103 = CARTESIAN_POINT ( 'NONE',  ( 8.283660282067000225, 5.633259784879999899, 15.69042748862000280 ) ) ;
#104 = PRODUCT_RELATED_PRODUCT_CATEGORY ( 'part', '', ( #195 ) ) ;
#105 = CARTESIAN_POINT ( 'NONE',  ( 2.838521975273000209, 33.58433428592000070, 65.57487878072200260 ) ) ;
#106 = ORIENTED_EDGE ( 'NONE', *, *, #187, .T. ) ;
#107 = AXIS2_PLACEMENT_3D ( 'NONE', #165, #162, #155 ) ;
#108 = DIRECTION ( 'NONE',  ( -1.000000000000000000, 0.000000000000000000, 0.000000000000000000 ) ) ;
#109 = DIRECTION ( 'NONE',  ( 0.000000000000000000, -1.000000000000000000, 0.000000000000000000 ) ) ;
#110 = EDGE_LOOP ( 'NONE', ( #92 ) ) ;
#111 = EDGE_CURVE ( 'NONE', #122, #346, #76, .T. ) ;
#112 = PLANE ( 'NONE',  #21 ) ;
#113 = EDGE_LOOP ( 'NONE', ( #314, #185, #206, #493, #344, #96 ) ) ;
#114 = CARTESIAN_POINT ( 'NONE',  ( 9.400706546228001059, 7.443091189028999466, 65.57487878072200260 ) ) ;
#115 = FACE_OUTER_BOUND ( 'NONE', #177, .T. ) ;
#116 = ORIENTED_EDGE ( 'NONE', *, *, #304, .T. ) ;
#117 = VECTOR ( 'NONE', #402, 1000.000000000000000 ) ;
#118 = EDGE_CURVE ( 'NONE', #214, #23, #343, .T. ) ;
#119 = LINE ( 'NONE', #85, #470 ) ;
#120 = DIRECTION ( 'NONE',  ( 1.000000000000000000, 0.000000000000000000, 0.000000000000000000 ) ) ;
#121 = CARTESIAN_POINT ( 'NONE',  ( 9.400706546228001059, 0.000000000000000000, 65.57487878072200260 ) ) ;
#122 = VERTEX_POINT ( 'NONE', #413 ) ;
#123 = VECTOR ( 'NONE', #28, 1000.000000000000000 ) ;
#124 = DIRECTION ( 'NONE',  ( -1.000000000000000000, 0.000000000000000000, 0.000000000000000000 ) ) ;
#125 = DIRECTION ( 'NONE',  ( 0.000000000000000000, 0.000000000000000000, 1.000000000000000000 ) ) ;
#126 = ORIENTED_EDGE ( 'NONE', *, *, #416, .T. ) ;
#127 =( GEOMETRIC_REPRESENTATION_CONTEXT ( 3 ) GLOBAL_UNCERTAINTY_ASSIGNED_CONTEXT ( ( #188 ) ) GLOBAL_UNIT_ASSIGNED_CONTEXT ( ( #281, #360, #16 ) ) REPRESENTATION_CONTEXT ( 'NONE', 'WORKASPACE' ) );
#128 = DIRECTION ( 'NONE',  ( -1.000000000000000000, 0.000000000000000000, 0.000000000000000000 ) ) ;
#129 = ORIENTED_EDGE ( 'NONE', *, *, #245, .T. ) ;
#130 = FACE_OUTER_BOUND ( 'NONE', #160, .T. ) ;
#131 = ORIENTED_EDGE ( 'NONE', *, *, #318, .T. ) ;
#132 = CARTESIAN_POINT ( 'NONE',  ( 0.000000000000000000, 7.443091189028999466, 15.69042748862000280 ) ) ;
#133 = ORIENTED_EDGE ( 'NONE', *, *, #159, .F. ) ;
#134 = CARTESIAN_POINT ( 'NONE',  ( 11.89187814458599846, 0.000000000000000000, 0.000000000000000000 ) ) ;
#135 = EDGE_CURVE ( 'NONE', #151, #249, #267, .T. ) ;
#136 = ORIENTED_EDGE ( 'NONE', *, *, #275, .F. ) ;
#137 = FACE_OUTER_BOUND ( 'NONE', #84, .T. ) ;
#138 = CYLINDRICAL_SURFACE ( 'NONE', #337, 1.000000000000000000 ) ;
#139 = LINE ( 'NONE', #30, #427 ) ;
#140 = DIRECTION ( 'NONE',  ( 0.000000000000000000, 0.000000000000000000, -1.000000000000000000 ) ) ;
#141 = EDGE_CURVE ( 'NONE', #151, #36, #70, .T. ) ;
#142 = CARTESIAN_POINT ( 'NONE',  ( 5.525549828144999509, 0.000000000000000000, 8.053939068205998808 ) ) ;
#143 = CARTESIAN_POINT ( 'NONE',  ( 9.400706546228001059, 0.000000000000000000, 15.69042748862000280 ) ) ;
#144 = STYLED_ITEM ( 'NONE', ( #451 ), #78 ) ;
#145 = CARTESIAN_POINT ( 'NONE',  ( 5.525549828144999509, 0.000000000000000000, 7.053939068205999696 ) ) ;
#146 = ORIENTED_EDGE ( 'NONE', *, *, #471, .T. ) ;
#147 = FACE_OUTER_BOUND ( 'NONE', #86, .T. ) ;
#148 = VECTOR ( 'NONE', #407, 1000.000000000000000 ) ;
#149 = ORIENTED_EDGE ( 'NONE', *, *, #439, .F. ) ;
#150 = DIRECTION ( 'NONE',  ( 0.000000000000000000, 0.000000000000000000, 1.000000000000000000 ) ) ;
#151 = VERTEX_POINT ( 'NONE', #341 ) ;
#152 = DIRECTION ( 'NONE',  ( 0.000000000000000000, 0.000000000000000000, 1.000000000000000000 ) ) ;
#153 = DIRECTION ( 'NONE',  ( 0.000000000000000000, -1.000000000000000000, 0.000000000000000000 ) ) ;
#154 = VERTEX_POINT ( 'NONE', #114 ) ;
#155 = DIRECTION ( 'NONE',  ( 1.000000000000000000, 0.000000000000000000, 0.000000000000000000 ) ) ;
#156 = EDGE_LOOP ( 'NONE', ( #94 ) ) ;
#157 = VECTOR ( 'NONE', #19, 1000.000000000000000 ) ;
#158 = LINE ( 'NONE', #273, #97 ) ;
#159 = EDGE_CURVE ( 'NONE', #36, #50, #381, .T. ) ;
#160 = EDGE_LOOP ( 'NONE', ( #74, #396, #13, #168 ) ) ;
#161 = VECTOR ( 'NONE', #307, 1000.000000000000000 ) ;
#162 = DIRECTION ( 'NONE',  ( -0.000000000000000000, 1.000000000000000000, 0.000000000000000000 ) ) ;
#163 = ORIENTED_EDGE ( 'NONE', *, *, #406, .F. ) ;
#164 = APPLICATION_CONTEXT ( 'automotive_design' ) ;
#165 = CARTESIAN_POINT ( 'NONE',  ( 0.000000000000000000, 0.000000000000000000, 0.000000000000000000 ) ) ;
#166 = ORIENTED_EDGE ( 'NONE', *, *, #8, .F. ) ;
#167 = PLANE ( 'NONE',  #107 ) ;
#168 = ORIENTED_EDGE ( 'NONE', *, *, #328, .F. ) ;
#169 = VECTOR ( 'NONE', #124, 1000.000000000000000 ) ;
#170 = ADVANCED_FACE ( 'NONE', ( #420 ), #2, .F. ) ;
#171 = DIRECTION ( 'NONE',  ( 0.000000000000000000, 0.000000000000000000, -1.000000000000000000 ) ) ;
#172 = FACE_OUTER_BOUND ( 'NONE', #240, .T. ) ;
#173 = CARTESIAN_POINT ( 'NONE',  ( 9.400706546228001059, 7.443091189028999466, 65.57487878072200260 ) ) ;
#174 = PLANE ( 'NONE',  #467 ) ;
#175 = PLANE ( 'NONE',  #342 ) ;
#176 = EDGE_CURVE ( 'NONE', #437, #361, #73, .T. ) ;
#177 = EDGE_LOOP ( 'NONE', ( #20, #136, #129, #53, #106, #429, #419, #247 ) ) ;
#178 = EDGE_CURVE ( 'NONE', #460, #474, #189, .T. ) ;
#179 = PLANE ( 'NONE',  #82 ) ;
#180 = CARTESIAN_POINT ( 'NONE',  ( 5.525549828144999509, 0.000000000000000000, 8.053939068205998808 ) ) ;
#181 = LINE ( 'NONE', #324, #457 ) ;
#182 = SURFACE_STYLE_USAGE ( .BOTH. , #67 ) ;
#183 = COLOUR_RGB ( '',0.7921568627450980005, 0.8196078431372548767, 0.9333333333333333481 ) ;
#184 = DIRECTION ( 'NONE',  ( 1.000000000000000000, 0.000000000000000000, 0.000000000000000000 ) ) ;
#185 = ORIENTED_EDGE ( 'NONE', *, *, #227, .F. ) ;
#186 = VECTOR ( 'NONE', #9, 1000.000000000000000 ) ;
#187 = EDGE_CURVE ( 'NONE', #437, #394, #462, .T. ) ;
#188 = UNCERTAINTY_MEASURE_WITH_UNIT (LENGTH_MEASURE( 1.000000000000000082E-05 ), #281, 'distance_accuracy_value', 'NONE');
#189 = LINE ( 'NONE', #231, #193 ) ;
#190 = PLANE ( 'NONE',  #75 ) ;
#191 = DIRECTION ( 'NONE',  ( 0.000000000000000000, 1.000000000000000000, 0.000000000000000000 ) ) ;
#192 = EDGE_CURVE ( 'NONE', #440, #154, #495, .T. ) ;
#193 = VECTOR ( 'NONE', #41, 1000.000000000000000 ) ;
#194 = CARTESIAN_POINT ( 'NONE',  ( 9.400706546228001059, 7.443091189028999466, 15.69042748862000280 ) ) ;
#195 = PRODUCT ( '20260414_160844_118', '20260414_160844_118', '', ( #357 ) ) ;
#196 = EDGE_LOOP ( 'NONE', ( #308, #202, #126, #317 ) ) ;
#197 = DIRECTION ( 'NONE',  ( 0.000000000000000000, 0.000000000000000000, 1.000000000000000000 ) ) ;
#198 = ORIENTED_EDGE ( 'NONE', *, *, #72, .T. ) ;
#199 = VECTOR ( 'NONE', #68, 1000.000000000000000 ) ;
#200 = ADVANCED_FACE ( 'NONE', ( #458 ), #112, .T. ) ;
#201 = DIRECTION ( 'NONE',  ( 0.000000000000000000, 1.000000000000000000, 0.000000000000000000 ) ) ;
#202 = ORIENTED_EDGE ( 'NONE', *, *, #309, .T. ) ;
#203 = AXIS2_PLACEMENT_3D ( 'NONE', #252, #491, #363 ) ;
#204 = LINE ( 'NONE', #239, #169 ) ;
#205 = APPLICATION_PROTOCOL_DEFINITION ( 'draft international standard', 'automotive_design', 1998, #415 ) ;
#206 = ORIENTED_EDGE ( 'NONE', *, *, #178, .F. ) ;
#207 = FACE_OUTER_BOUND ( 'NONE', #405, .T. ) ;
#208 = VERTEX_POINT ( 'NONE', #89 ) ;
#209 = FACE_OUTER_BOUND ( 'NONE', #17, .T. ) ;
#210 = VECTOR ( 'NONE', #331, 1000.000000000000000 ) ;
#211 = EDGE_LOOP ( 'NONE', ( #146 ) ) ;
#212 = EDGE_CURVE ( 'NONE', #50, #11, #425, .T. ) ;
#213 = CARTESIAN_POINT ( 'NONE',  ( 2.838521975273000209, 4.149116537885999989, 0.000000000000000000 ) ) ;
#214 = VERTEX_POINT ( 'NONE', #79 ) ;
#215 = AXIS2_PLACEMENT_3D ( 'NONE', #366, #373, #216 ) ;
#216 = DIRECTION ( 'NONE',  ( 1.000000000000000000, 0.000000000000000000, 0.000000000000000000 ) ) ;
#217 = DIRECTION ( 'NONE',  ( 0.000000000000000000, -0.4095143943418169119, -0.9123036560415916929 ) ) ;
#218 = LINE ( 'NONE', #375, #199 ) ;
#219 = ADVANCED_FACE ( 'NONE', ( #475, #209 ), #167, .F. ) ;
#220 = FILL_AREA_STYLE ('',( #254 ) ) ;
#221 = PLANE ( 'NONE',  #215 ) ;
#222 = DIRECTION ( 'NONE',  ( -1.000000000000000000, 0.000000000000000000, 0.000000000000000000 ) ) ;
#223 = DIRECTION ( 'NONE',  ( 0.000000000000000000, -1.000000000000000000, 0.000000000000000000 ) ) ;
#224 =( LENGTH_UNIT ( ) NAMED_UNIT ( * ) SI_UNIT ( .MILLI., .METRE. ) );
#225 = VERTEX_POINT ( 'NONE', #411 ) ;
#226 = UNCERTAINTY_MEASURE_WITH_UNIT (LENGTH_MEASURE( 1.000000000000000082E-05 ), #224, 'distance_accuracy_value', 'NONE');
#227 = EDGE_CURVE ( 'NONE', #474, #442, #204, .T. ) ;
#228 = DIRECTION ( 'NONE',  ( 0.000000000000000000, 0.000000000000000000, 1.000000000000000000 ) ) ;
#229 = AXIS2_PLACEMENT_3D ( 'NONE', #238, #352, #393 ) ;
#230 = PRODUCT_DEFINITION_CONTEXT ( 'detailed design', #164, 'design' ) ;
#231 = CARTESIAN_POINT ( 'NONE',  ( 11.89187814458599846, 0.000000000000000000, 0.000000000000000000 ) ) ;
#232 = EDGE_LOOP ( 'NONE', ( #44, #392, #268, #320, #432, #166 ) ) ;
#233 =( GEOMETRIC_REPRESENTATION_CONTEXT ( 3 ) GLOBAL_UNCERTAINTY_ASSIGNED_CONTEXT ( ( #226 ) ) GLOBAL_UNIT_ASSIGNED_CONTEXT ( ( #224, #235, #33 ) ) REPRESENTATION_CONTEXT ( 'NONE', 'WORKASPACE' ) );
#234 = EDGE_CURVE ( 'NONE', #23, #346, #43, .T. ) ;
#235 =( NAMED_UNIT ( * ) PLANE_ANGLE_UNIT ( ) SI_UNIT ( $, .RADIAN. ) );
#236 = DIRECTION ( 'NONE',  ( 1.000000000000000000, 0.000000000000000000, 0.000000000000000000 ) ) ;
#237 = VECTOR ( 'NONE', #269, 1000.000000000000000 ) ;
#238 = CARTESIAN_POINT ( 'NONE',  ( 5.525549828144999509, 4.807232460760999082, 8.053939068205998808 ) ) ;
#239 = CARTESIAN_POINT ( 'NONE',  ( 11.89187814458599846, 4.149116537885999989, 0.000000000000000000 ) ) ;
#240 = EDGE_LOOP ( 'NONE', ( #351, #496, #149, #355 ) ) ;
#241 = DIRECTION ( 'NONE',  ( 0.000000000000000000, 1.000000000000000000, 0.000000000000000000 ) ) ;
#242 = VERTEX_POINT ( 'NONE', #477 ) ;
#243 = CARTESIAN_POINT ( 'NONE',  ( 0.000000000000000000, 61.39523085859399743, 0.000000000000000000 ) ) ;
#244 = ORIENTED_EDGE ( 'NONE', *, *, #266, .F. ) ;
#245 = EDGE_CURVE ( 'NONE', #426, #361, #47, .T. ) ;
#246 = DIRECTION ( 'NONE',  ( 1.000000000000000000, 0.000000000000000000, 0.000000000000000000 ) ) ;
#247 = ORIENTED_EDGE ( 'NONE', *, *, #141, .T. ) ;
#248 = LINE ( 'NONE', #398, #148 ) ;
#249 = VERTEX_POINT ( 'NONE', #243 ) ;
#250 = DIRECTION ( 'NONE',  ( 0.000000000000000000, -1.000000000000000000, 0.000000000000000000 ) ) ;
#251 = VECTOR ( 'NONE', #15, 1000.000000000000000 ) ;
#252 = CARTESIAN_POINT ( 'NONE',  ( 2.838521975273000209, 38.55511107429300210, 28.45008650190600008 ) ) ;
#253 = CARTESIAN_POINT ( 'NONE',  ( 11.89187814458599846, 4.149116537885999989, 0.000000000000000000 ) ) ;
#254 = FILL_AREA_STYLE_COLOUR ( '', #183 ) ;
#255 = PLANE ( 'NONE',  #338 ) ;
#256 = ORIENTED_EDGE ( 'NONE', *, *, #283, .T. ) ;
#257 = DIRECTION ( 'NONE',  ( 0.000000000000000000, -0.4095143943418169119, -0.9123036560415916929 ) ) ;
#258 = ORIENTED_EDGE ( 'NONE', *, *, #187, .F. ) ;
#259 = VECTOR ( 'NONE', #150, 1000.000000000000000 ) ;
#260 = CARTESIAN_POINT ( 'NONE',  ( 2.838521975273000209, 61.39523085859399743, 0.000000000000000000 ) ) ;
#261 = ADVANCED_FACE ( 'NONE', ( #284, #207 ), #434, .T. ) ;
#262 = DIRECTION ( 'NONE',  ( 0.000000000000000000, 1.000000000000000000, 0.000000000000000000 ) ) ;
#263 = EDGE_LOOP ( 'NONE', ( #48, #258, #389, #29, #483, #301, #383, #71 ) ) ;
#264 = FACE_OUTER_BOUND ( 'NONE', #196, .T. ) ;
#265 = ORIENTED_EDGE ( 'NONE', *, *, #31, .T. ) ;
#266 = EDGE_CURVE ( 'NONE', #225, #225, #443, .T. ) ;
#267 = LINE ( 'NONE', #385, #161 ) ;
#268 = ORIENTED_EDGE ( 'NONE', *, *, #340, .T. ) ;
#269 = DIRECTION ( 'NONE',  ( 0.000000000000000000, 1.000000000000000000, 0.000000000000000000 ) ) ;
#270 = VECTOR ( 'NONE', #222, 1000.000000000000000 ) ;
#271 = DIRECTION ( 'NONE',  ( 0.6485305305569790679, 0.000000000000000000, 0.7611886434619760111 ) ) ;
#272 = ORIENTED_EDGE ( 'NONE', *, *, #88, .T. ) ;
#273 = CARTESIAN_POINT ( 'NONE',  ( 0.000000000000000000, 0.000000000000000000, 5.967788636764000287 ) ) ;
#274 = ORIENTED_EDGE ( 'NONE', *, *, #365, .T. ) ;
#275 = EDGE_CURVE ( 'NONE', #426, #242, #119, .T. ) ;
#276 = CIRCLE ( 'NONE', #364, 1.000000000000000000 ) ;
#277 = DIRECTION ( 'NONE',  ( 0.000000000000000000, 1.000000000000000000, 0.000000000000000000 ) ) ;
#278 = ORIENTED_EDGE ( 'NONE', *, *, #275, .T. ) ;
#279 = VECTOR ( 'NONE', #257, 1000.000000000000000 ) ;
#280 = CARTESIAN_POINT ( 'NONE',  ( 2.838521975273000209, 33.58433428592000070, 65.57487878072200260 ) ) ;
#281 =( LENGTH_UNIT ( ) NAMED_UNIT ( * ) SI_UNIT ( .MILLI., .METRE. ) );
#282 = ORIENTED_EDGE ( 'NONE', *, *, #400, .T. ) ;
#283 = EDGE_CURVE ( 'NONE', #442, #488, #387, .T. ) ;
#284 = FACE_BOUND ( 'NONE', #211, .T. ) ;
#285 = ORIENTED_EDGE ( 'NONE', *, *, #456, .T. ) ;
#286 = FACE_OUTER_BOUND ( 'NONE', #263, .T. ) ;
#287 = ORIENTED_EDGE ( 'NONE', *, *, #111, .T. ) ;
#288 = CARTESIAN_POINT ( 'NONE',  ( 0.000000000000000000, 0.000000000000000000, 15.69042748862000280 ) ) ;
#289 = EDGE_LOOP ( 'NONE', ( #244 ) ) ;
#290 = LINE ( 'NONE', #173, #123 ) ;
#291 = AXIS2_PLACEMENT_3D ( 'NONE', #436, #91, #83 ) ;
#292 = LINE ( 'NONE', #298, #397 ) ;
#293 = DIRECTION ( 'NONE',  ( 0.000000000000000000, 0.000000000000000000, -1.000000000000000000 ) ) ;
#294 = VECTOR ( 'NONE', #262, 1000.000000000000000 ) ;
#295 = CARTESIAN_POINT ( 'NONE',  ( 4.700353273114000530, 7.443091189028999466, 40.63265313467100270 ) ) ;
#296 = PLANE ( 'NONE',  #382 ) ;
#297 = CARTESIAN_POINT ( 'NONE',  ( 5.525549828144999509, 4.807232460760999082, 8.554202814345000405 ) ) ;
#298 = CARTESIAN_POINT ( 'NONE',  ( 8.283660282067000225, 0.000000000000000000, 15.69042748862000280 ) ) ;
#299 = VECTOR ( 'NONE', #128, 1000.000000000000000 ) ;
#300 = AXIS2_PLACEMENT_3D ( 'NONE', #49, #54, #350 ) ;
#301 = ORIENTED_EDGE ( 'NONE', *, *, #118, .T. ) ;
#302 = CARTESIAN_POINT ( 'NONE',  ( 9.400706546228001059, 0.000000000000000000, 15.69042748862000280 ) ) ;
#303 = CIRCLE ( 'NONE', #433, 0.5002637461390003759 ) ;
#304 = EDGE_CURVE ( 'NONE', #151, #460, #6, .T. ) ;
#305 = EDGE_LOOP ( 'NONE', ( #265, #198, #367, #380 ) ) ;
#306 = DIRECTION ( 'NONE',  ( 0.000000000000000000, 1.000000000000000000, 0.000000000000000000 ) ) ;
#307 = DIRECTION ( 'NONE',  ( 0.000000000000000000, 1.000000000000000000, 0.000000000000000000 ) ) ;
#308 = ORIENTED_EDGE ( 'NONE', *, *, #492, .F. ) ;
#309 = EDGE_CURVE ( 'NONE', #249, #394, #12, .T. ) ;
#310 = CARTESIAN_POINT ( 'NONE',  ( 0.000000000000000000, 61.39523085859399743, 0.000000000000000000 ) ) ;
#311 = EDGE_LOOP ( 'NONE', ( #256, #272, #287, #358 ) ) ;
#312 = AXIS2_PLACEMENT_3D ( 'NONE', #431, #356, #197 ) ;
#313 = CARTESIAN_POINT ( 'NONE',  ( 0.000000000000000000, 0.000000000000000000, 15.69042748862000280 ) ) ;
#314 = ORIENTED_EDGE ( 'NONE', *, *, #283, .F. ) ;
#315 = VECTOR ( 'NONE', #109, 1000.000000000000000 ) ;
#316 = CARTESIAN_POINT ( 'NONE',  ( 0.000000000000000000, 5.633259784879999899, 5.967788636764000287 ) ) ;
#317 = ORIENTED_EDGE ( 'NONE', *, *, #88, .F. ) ;
#318 = EDGE_CURVE ( 'NONE', #242, #208, #469, .T. ) ;
#319 = DIRECTION ( 'NONE',  ( 1.000000000000000000, 0.000000000000000000, 0.000000000000000000 ) ) ;
#320 = ORIENTED_EDGE ( 'NONE', *, *, #430, .F. ) ;
#321 = CARTESIAN_POINT ( 'NONE',  ( 0.000000000000000000, 0.000000000000000000, 15.69042748862000280 ) ) ;
#322 = VECTOR ( 'NONE', #228, 1000.000000000000000 ) ;
#323 = VERTEX_POINT ( 'NONE', #121 ) ;
#324 = CARTESIAN_POINT ( 'NONE',  ( 11.89187814458599846, 0.000000000000000000, 0.000000000000000000 ) ) ;
#325 = FACE_OUTER_BOUND ( 'NONE', #7, .T. ) ;
#326 = PRODUCT_DEFINITION_FORMATION_WITH_SPECIFIED_SOURCE ( 'ไป', '', #195, .NOT_KNOWN. ) ;
#327 = DIRECTION ( 'NONE',  ( 1.000000000000000000, 0.000000000000000000, 0.000000000000000000 ) ) ;
#328 = EDGE_CURVE ( 'NONE', #36, #242, #158, .T. ) ;
#329 = DIRECTION ( 'NONE',  ( 0.000000000000000000, -1.000000000000000000, 0.000000000000000000 ) ) ;
#330 = DIRECTION ( 'NONE',  ( 0.000000000000000000, -1.000000000000000000, 0.000000000000000000 ) ) ;
#331 = DIRECTION ( 'NONE',  ( 0.000000000000000000, 1.000000000000000000, 0.000000000000000000 ) ) ;
#332 = LINE ( 'NONE', #487, #497 ) ;
#333 = LINE ( 'NONE', #448, #423 ) ;
#334 = ADVANCED_FACE ( 'NONE', ( #130 ), #428, .F. ) ;
#335 = CARTESIAN_POINT ( 'NONE',  ( 5.525549828144999509, 4.807232460760999082, 7.053939068205999696 ) ) ;
#336 = PLANE ( 'NONE',  #203 ) ;
#337 = AXIS2_PLACEMENT_3D ( 'NONE', #180, #329, #140 ) ;
#338 = AXIS2_PLACEMENT_3D ( 'NONE', #295, #250, #293 ) ;
#339 = CARTESIAN_POINT ( 'NONE',  ( 0.000000000000000000, 0.000000000000000000, 65.57487878072200260 ) ) ;
#340 = EDGE_CURVE ( 'NONE', #11, #440, #388, .T. ) ;
#341 = CARTESIAN_POINT ( 'NONE',  ( 0.000000000000000000, 0.000000000000000000, 0.000000000000000000 ) ) ;
#342 = AXIS2_PLACEMENT_3D ( 'NONE', #288, #171, #223 ) ;
#343 = LINE ( 'NONE', #459, #294 ) ;
#344 = ORIENTED_EDGE ( 'NONE', *, *, #135, .T. ) ;
#345 = CARTESIAN_POINT ( 'NONE',  ( 5.525549828144999509, 0.000000000000000000, 8.053939068205998808 ) ) ;
#346 = VERTEX_POINT ( 'NONE', #280 ) ;
#347 = EDGE_CURVE ( 'NONE', #32, #32, #403, .T. ) ;
#348 = CARTESIAN_POINT ( 'NONE',  ( 2.838521975273000209, 4.149116537885999989, 0.000000000000000000 ) ) ;
#349 = ORIENTED_EDGE ( 'NONE', *, *, #430, .T. ) ;
#350 = DIRECTION ( 'NONE',  ( 0.000000000000000000, 0.000000000000000000, -1.000000000000000000 ) ) ;
#351 = ORIENTED_EDGE ( 'NONE', *, *, #38, .T. ) ;
#352 = DIRECTION ( 'NONE',  ( 0.000000000000000000, -1.000000000000000000, 0.000000000000000000 ) ) ;
#353 = APPLICATION_PROTOCOL_DEFINITION ( 'draft international standard', 'automotive_design', 1998, #164 ) ;
#354 = ADVANCED_FACE ( 'NONE', ( #26 ), #179, .T. ) ;
#355 = ORIENTED_EDGE ( 'NONE', *, *, #234, .F. ) ;
#356 = DIRECTION ( 'NONE',  ( 0.000000000000000000, 1.000000000000000000, 0.000000000000000000 ) ) ;
#357 = PRODUCT_CONTEXT ( 'NONE', #415, 'mechanical' ) ;
#358 = ORIENTED_EDGE ( 'NONE', *, *, #439, .T. ) ;
#359 = DIRECTION ( 'NONE',  ( 0.000000000000000000, 1.000000000000000000, 0.000000000000000000 ) ) ;
#360 =( NAMED_UNIT ( * ) PLANE_ANGLE_UNIT ( ) SI_UNIT ( $, .RADIAN. ) );
#361 = VERTEX_POINT ( 'NONE', #132 ) ;
#362 = DIRECTION ( 'NONE',  ( 0.000000000000000000, 0.000000000000000000, -1.000000000000000000 ) ) ;
#363 = DIRECTION ( 'NONE',  ( -1.159924043452000012E-32, -1.000000000000000000, 0.000000000000000000 ) ) ;
#364 = AXIS2_PLACEMENT_3D ( 'NONE', #142, #486, #368 ) ;
#365 = EDGE_CURVE ( 'NONE', #490, #490, #276, .T. ) ;
#366 = CARTESIAN_POINT ( 'NONE',  ( 0.000000000000000000, 0.000000000000000000, 0.000000000000000000 ) ) ;
#367 = ORIENTED_EDGE ( 'NONE', *, *, #192, .F. ) ;
#368 = DIRECTION ( 'NONE',  ( 0.000000000000000000, 0.000000000000000000, -1.000000000000000000 ) ) ;
#369 = SURFACE_STYLE_FILL_AREA ( #220 ) ;
#370 = PLANE ( 'NONE',  #494 ) ;
#371 = ADVANCED_FACE ( 'NONE', ( #137 ), #255, .T. ) ;
#372 = DIRECTION ( 'NONE',  ( 0.000000000000000000, -0.9123036560415916929, 0.4095143943418169119 ) ) ;
#373 = DIRECTION ( 'NONE',  ( -0.000000000000000000, 1.000000000000000000, 0.000000000000000000 ) ) ;
#374 = CARTESIAN_POINT ( 'NONE',  ( 9.400706546228001059, 0.000000000000000000, 15.69042748862000280 ) ) ;
#375 = CARTESIAN_POINT ( 'NONE',  ( 0.000000000000000000, 61.39523085859399743, 0.000000000000000000 ) ) ;
#376 = DIRECTION ( 'NONE',  ( -0.000000000000000000, 1.000000000000000000, 0.000000000000000000 ) ) ;
#377 = ADVANCED_FACE ( 'NONE', ( #404 ), #221, .F. ) ;
#378 = VECTOR ( 'NONE', #271, 1000.000000000000000 ) ;
#379 = CARTESIAN_POINT ( 'NONE',  ( 0.000000000000000000, 7.443091189028999466, 65.57487878072200260 ) ) ;
#380 = ORIENTED_EDGE ( 'NONE', *, *, #340, .F. ) ;
#381 = LINE ( 'NONE', #384, #386 ) ;
#382 = AXIS2_PLACEMENT_3D ( 'NONE', #417, #69, #191 ) ;
#383 = ORIENTED_EDGE ( 'NONE', *, *, #234, .T. ) ;
#384 = CARTESIAN_POINT ( 'NONE',  ( 0.000000000000000000, 0.000000000000000000, 5.967788636764000287 ) ) ;
#385 = CARTESIAN_POINT ( 'NONE',  ( 0.000000000000000000, 0.000000000000000000, 0.000000000000000000 ) ) ;
#386 = VECTOR ( 'NONE', #464, 1000.000000000000000 ) ;
#387 = LINE ( 'NONE', #348, #10 ) ;
#388 = LINE ( 'NONE', #395, #34 ) ;
#389 = ORIENTED_EDGE ( 'NONE', *, *, #400, .F. ) ;
#390 = ADVANCED_FACE ( 'NONE', ( #286 ), #370, .T. ) ;
#391 = CARTESIAN_POINT ( 'NONE',  ( 0.000000000000000000, 0.000000000000000000, 0.000000000000000000 ) ) ;
#392 = ORIENTED_EDGE ( 'NONE', *, *, #212, .T. ) ;
#393 = DIRECTION ( 'NONE',  ( 0.000000000000000000, 0.000000000000000000, -1.000000000000000000 ) ) ;
#394 = VERTEX_POINT ( 'NONE', #447 ) ;
#395 = CARTESIAN_POINT ( 'NONE',  ( 9.400706546228001059, 0.000000000000000000, 15.69042748862000280 ) ) ;
#396 = ORIENTED_EDGE ( 'NONE', *, *, #18, .T. ) ;
#397 = VECTOR ( 'NONE', #100, 1000.000000000000000 ) ;
#398 = CARTESIAN_POINT ( 'NONE',  ( 0.000000000000000000, 0.000000000000000000, 65.57487878072200260 ) ) ;
#399 = ORIENTED_EDGE ( 'NONE', *, *, #347, .T. ) ;
#400 = EDGE_CURVE ( 'NONE', #154, #437, #290, .T. ) ;
#401 = PLANE ( 'NONE',  #60 ) ;
#402 = DIRECTION ( 'NONE',  ( 0.000000000000000000, 0.000000000000000000, 1.000000000000000000 ) ) ;
#403 = CIRCLE ( 'NONE', #300, 1.000000000000000000 ) ;
#404 = FACE_OUTER_BOUND ( 'NONE', #289, .T. ) ;
#405 = EDGE_LOOP ( 'NONE', ( #399 ) ) ;
#406 = EDGE_CURVE ( 'NONE', #323, #214, #248, .T. ) ;
#407 = DIRECTION ( 'NONE',  ( 1.000000000000000000, 0.000000000000000000, 0.000000000000000000 ) ) ;
#408 = LINE ( 'NONE', #103, #270 ) ;
#409 = CARTESIAN_POINT ( 'NONE',  ( 9.400706546228001059, 7.443091189028999466, 15.69042748862000280 ) ) ;
#410 = LINE ( 'NONE', #374, #117 ) ;
#411 = CARTESIAN_POINT ( 'NONE',  ( 5.525549828144999509, 0.000000000000000000, 8.554202814345000405 ) ) ;
#412 = FACE_OUTER_BOUND ( 'NONE', #110, .T. ) ;
#413 = CARTESIAN_POINT ( 'NONE',  ( 2.838521975273000209, 61.39523085859399743, 65.57487878072200260 ) ) ;
#414 = ORIENTED_EDGE ( 'NONE', *, *, #141, .F. ) ;
#415 = APPLICATION_CONTEXT ( 'automotive_design' ) ;
#416 = EDGE_CURVE ( 'NONE', #394, #122, #139, .T. ) ;
#417 = CARTESIAN_POINT ( 'NONE',  ( 0.000000000000000000, 0.000000000000000000, 0.000000000000000000 ) ) ;
#418 = CLOSED_SHELL ( 'NONE', ( #377, #87, #261, #45, #1, #51, #200, #170, #421, #98, #390, #371, #446, #354, #334, #219, #81 ) ) ;
#419 = ORIENTED_EDGE ( 'NONE', *, *, #135, .F. ) ;
#420 = FACE_OUTER_BOUND ( 'NONE', #305, .T. ) ;
#421 = ADVANCED_FACE ( 'NONE', ( #438 ), #401, .F. ) ;
#422 = LINE ( 'NONE', #260, #14 ) ;
#423 = VECTOR ( 'NONE', #217, 1000.000000000000000 ) ;
#424 = ORIENTED_EDGE ( 'NONE', *, *, #471, .F. ) ;
#425 = LINE ( 'NONE', #321, #42 ) ;
#426 = VERTEX_POINT ( 'NONE', #450 ) ;
#427 = VECTOR ( 'NONE', #22, 1000.000000000000000 ) ;
#428 = PLANE ( 'NONE',  #291 ) ;
#429 = ORIENTED_EDGE ( 'NONE', *, *, #309, .F. ) ;
#430 = EDGE_CURVE ( 'NONE', #361, #440, #332, .T. ) ;
#431 = CARTESIAN_POINT ( 'NONE',  ( 5.525549828144999509, 0.000000000000000000, 8.053939068205998808 ) ) ;
#432 = ORIENTED_EDGE ( 'NONE', *, *, #245, .F. ) ;
#433 = AXIS2_PLACEMENT_3D ( 'NONE', #441, #95, #444 ) ;
#434 = PLANE ( 'NONE',  #229 ) ;
#435 = ORIENTED_EDGE ( 'NONE', *, *, #212, .F. ) ;
#436 = CARTESIAN_POINT ( 'NONE',  ( 0.000000000000000000, 0.000000000000000000, 5.967788636764000287 ) ) ;
#437 = VERTEX_POINT ( 'NONE', #57 ) ;
#438 = FACE_OUTER_BOUND ( 'NONE', #113, .T. ) ;
#439 = EDGE_CURVE ( 'NONE', #346, #442, #99, .T. ) ;
#440 = VERTEX_POINT ( 'NONE', #409 ) ;
#441 = CARTESIAN_POINT ( 'NONE',  ( 5.525549828144999509, 4.807232460760999082, 8.053939068205998808 ) ) ;
#442 = VERTEX_POINT ( 'NONE', #213 ) ;
#443 = CIRCLE ( 'NONE', #312, 0.5002637461390003759 ) ;
#444 = DIRECTION ( 'NONE',  ( 0.000000000000000000, 0.000000000000000000, 1.000000000000000000 ) ) ;
#445 = LINE ( 'NONE', #65, #210 ) ;
#446 = ADVANCED_FACE ( 'NONE', ( #66 ), #175, .F. ) ;
#447 = CARTESIAN_POINT ( 'NONE',  ( 0.000000000000000000, 61.39523085859399743, 65.57487878072200260 ) ) ;
#448 = CARTESIAN_POINT ( 'NONE',  ( 11.89187814458599846, 33.58433428592000070, 65.57487878072200260 ) ) ;
#449 = ADVANCED_BREP_SHAPE_REPRESENTATION ( '20260414_160844_118', ( #78, #46 ), #127 ) ;
#450 = CARTESIAN_POINT ( 'NONE',  ( 0.000000000000000000, 5.633259784879999899, 15.69042748862000280 ) ) ;
#451 = PRESENTATION_STYLE_ASSIGNMENT (( #182 ) ) ;
#452 = VERTEX_POINT ( 'NONE', #297 ) ;
#453 = CARTESIAN_POINT ( 'NONE',  ( 8.283660282067000225, 0.000000000000000000, 15.69042748862000280 ) ) ;
#454 = VECTOR ( 'NONE', #35, 1000.000000000000000 ) ;
#455 = CARTESIAN_POINT ( 'NONE',  ( 0.000000000000000000, 61.39523085859399743, 0.000000000000000000 ) ) ;
#456 = EDGE_CURVE ( 'NONE', #460, #214, #181, .T. ) ;
#457 = VECTOR ( 'NONE', #482, 1000.000000000000000 ) ;
#458 = FACE_OUTER_BOUND ( 'NONE', #55, .T. ) ;
#459 = CARTESIAN_POINT ( 'NONE',  ( 11.89187814458599846, 0.000000000000000000, 65.57487878072200260 ) ) ;
#460 = VERTEX_POINT ( 'NONE', #134 ) ;
#461 = PRODUCT_DEFINITION ( 'ๆ', '', #326, #230 ) ;
#462 = LINE ( 'NONE', #339, #237 ) ;
#463 = ORIENTED_EDGE ( 'NONE', *, *, #31, .F. ) ;
#464 = DIRECTION ( 'NONE',  ( 0.6485305305569790679, 0.000000000000000000, 0.7611886434619760111 ) ) ;
#465 = PRODUCT_DEFINITION_SHAPE ( 'NONE', 'NONE',  #461 ) ;
#466 = CARTESIAN_POINT ( 'NONE',  ( 0.000000000000000000, 0.000000000000000000, 0.000000000000000000 ) ) ;
#467 = AXIS2_PLACEMENT_3D ( 'NONE', #63, #372, #108 ) ;
#468 = ORIENTED_EDGE ( 'NONE', *, *, #8, .T. ) ;
#469 = LINE ( 'NONE', #316, #378 ) ;
#470 = VECTOR ( 'NONE', #52, 1000.000000000000000 ) ;
#471 = EDGE_CURVE ( 'NONE', #452, #452, #303, .T. ) ;
#472 = ORIENTED_EDGE ( 'NONE', *, *, #192, .T. ) ;
#473 = CARTESIAN_POINT ( 'NONE',  ( 11.89187814458599846, 33.58433428592000070, 65.57487878072200260 ) ) ;
#474 = VERTEX_POINT ( 'NONE', #253 ) ;
#475 = FACE_BOUND ( 'NONE', #90, .T. ) ;
#476 = ORIENTED_EDGE ( 'NONE', *, *, #178, .T. ) ;
#477 = CARTESIAN_POINT ( 'NONE',  ( 0.000000000000000000, 5.633259784879999899, 5.967788636764000287 ) ) ;
#478 = ORIENTED_EDGE ( 'NONE', *, *, #456, .F. ) ;
#479 = AXIS2_PLACEMENT_3D ( 'NONE', #302, #236, #306 ) ;
#480 = CARTESIAN_POINT ( 'NONE',  ( 2.833497576601999857, 5.633259784879999899, 12.13744062712400051 ) ) ;
#481 = ORIENTED_EDGE ( 'NONE', *, *, #118, .F. ) ;
#482 = DIRECTION ( 'NONE',  ( 0.000000000000000000, 0.000000000000000000, 1.000000000000000000 ) ) ;
#483 = ORIENTED_EDGE ( 'NONE', *, *, #406, .T. ) ;
#484 = DIRECTION ( 'NONE',  ( 1.000000000000000000, 0.000000000000000000, 0.000000000000000000 ) ) ;
#485 = FACE_OUTER_BOUND ( 'NONE', #311, .T. ) ;
#486 = DIRECTION ( 'NONE',  ( 0.000000000000000000, -1.000000000000000000, 0.000000000000000000 ) ) ;
#487 = CARTESIAN_POINT ( 'NONE',  ( 0.000000000000000000, 7.443091189028999466, 15.69042748862000280 ) ) ;
#488 = VERTEX_POINT ( 'NONE', #62 ) ;
#489 = PRESENTATION_LAYER_ASSIGNMENT (  '', '', ( #144 ) ) ;
#490 = VERTEX_POINT ( 'NONE', #145 ) ;
#491 = DIRECTION ( 'NONE',  ( 1.000000000000000000, -1.159924043452000012E-32, 3.614774504132999865E-33 ) ) ;
#492 = EDGE_CURVE ( 'NONE', #249, #488, #218, .T. ) ;
#493 = ORIENTED_EDGE ( 'NONE', *, *, #304, .F. ) ;
#494 = AXIS2_PLACEMENT_3D ( 'NONE', #59, #24, #484 ) ;
#495 = LINE ( 'NONE', #194, #259 ) ;
#496 = ORIENTED_EDGE ( 'NONE', *, *, #227, .T. ) ;
#497 = VECTOR ( 'NONE', #64, 1000.000000000000000 ) ;
#498 = CYLINDRICAL_SURFACE ( 'NONE', #101, 0.5002637461390003759 ) ;
ENDSEC;
END-ISO-10303-21;
