ISO-10303-21;
HEADER;
FILE_DESCRIPTION (( 'STEP AP214' ),
    '1' );
FILE_NAME ('20260414_160844_72.STEP',
    '2026-04-16T14:27:20',
    ( '' ),
    ( '' ),
    'SwSTEP 2.0',
    'SolidWorks 2025',
    '' );
FILE_SCHEMA (( 'AUTOMOTIVE_DESIGN' ));
ENDSEC;

DATA;
#1 = CARTESIAN_POINT ( 'NONE',  ( 0.000000000000000000, 0.000000000000000000, 22.59367349790599988 ) ) ;
#2 = ORIENTED_EDGE ( 'NONE', *, *, #596, .F. ) ;
#3 = PLANE ( 'NONE',  #487 ) ;
#4 = PLANE ( 'NONE',  #417 ) ;
#5 = AXIS2_PLACEMENT_3D ( 'NONE', #717, #779, #581 ) ;
#6 = VECTOR ( 'NONE', #308, 1000.000000000000000 ) ;
#7 = CARTESIAN_POINT ( 'NONE',  ( 0.000000000000000000, 0.000000000000000000, 0.000000000000000000 ) ) ;
#8 = EDGE_LOOP ( 'NONE', ( #589, #183, #560, #233, #535 ) ) ;
#9 = LINE ( 'NONE', #151, #208 ) ;
#10 = EDGE_CURVE ( 'NONE', #268, #41, #511, .T. ) ;
#11 = CARTESIAN_POINT ( 'NONE',  ( 28.11833035921500112, 11.50544128389800136, 22.59367349790599988 ) ) ;
#12 = ORIENTED_EDGE ( 'NONE', *, *, #752, .T. ) ;
#13 = CARTESIAN_POINT ( 'NONE',  ( 51.10205672986799641, 0.000000000000000000, 0.000000000000000000 ) ) ;
#14 = LINE ( 'NONE', #526, #43 ) ;
#15 = VERTEX_POINT ( 'NONE', #825 ) ;
#16 = DIRECTION ( 'NONE',  ( -0.9970126327198464145, 0.07723865740055811668, 0.000000000000000000 ) ) ;
#17 = PRESENTATION_LAYER_ASSIGNMENT (  '', '', ( #32 ) ) ;
#18 = AXIS2_PLACEMENT_3D ( 'NONE', #239, #787, #831 ) ;
#19 = VECTOR ( 'NONE', #374, 1000.000000000000000 ) ;
#20 = LINE ( 'NONE', #161, #696 ) ;
#21 = EDGE_CURVE ( 'NONE', #68, #64, #828, .T. ) ;
#22 = ORIENTED_EDGE ( 'NONE', *, *, #512, .F. ) ;
#23 = ADVANCED_FACE ( 'NONE', ( #502 ), #317, .T. ) ;
#24 = CARTESIAN_POINT ( 'NONE',  ( 51.10205672986799641, 0.000000000000000000, 0.000000000000000000 ) ) ;
#25 =( NAMED_UNIT ( * ) PLANE_ANGLE_UNIT ( ) SI_UNIT ( $, .RADIAN. ) );
#26 = EDGE_LOOP ( 'NONE', ( #820, #737, #2, #217 ) ) ;
#27 = DIRECTION ( 'NONE',  ( 0.000000000000000000, 0.000000000000000000, 1.000000000000000000 ) ) ;
#28 = EDGE_CURVE ( 'NONE', #323, #678, #307, .T. ) ;
#29 = DIRECTION ( 'NONE',  ( 0.000000000000000000, 1.000000000000000000, 0.000000000000000000 ) ) ;
#30 = ORIENTED_EDGE ( 'NONE', *, *, #726, .T. ) ;
#31 = CARTESIAN_POINT ( 'NONE',  ( 28.20886151831100008, 0.000000000000000000, 13.66963892488599974 ) ) ;
#32 = STYLED_ITEM ( 'NONE', ( #481 ), #266 ) ;
#33 = CARTESIAN_POINT ( 'NONE',  ( 0.000000000000000000, 31.04705767385499726, -1.448162326841999999E-16 ) ) ;
#34 = VECTOR ( 'NONE', #619, 1000.000000000000114 ) ;
#35 = VECTOR ( 'NONE', #378, 1000.000000000000000 ) ;
#36 = ORIENTED_EDGE ( 'NONE', *, *, #670, .F. ) ;
#37 = LINE ( 'NONE', #363, #360 ) ;
#38 = ADVANCED_FACE ( 'NONE', ( #841, #784, #431, #701 ), #789, .T. ) ;
#39 = VERTEX_POINT ( 'NONE', #255 ) ;
#40 = CARTESIAN_POINT ( 'NONE',  ( 39.35291394341800242, 11.15728124236100172, 22.59367349790599988 ) ) ;
#41 = VERTEX_POINT ( 'NONE', #659 ) ;
#42 = LINE ( 'NONE', #755, #114 ) ;
#43 = VECTOR ( 'NONE', #126, 1000.000000000000227 ) ;
#44 = ORIENTED_EDGE ( 'NONE', *, *, #48, .F. ) ;
#45 = AXIS2_PLACEMENT_3D ( 'NONE', #845, #657, #647 ) ;
#46 = VECTOR ( 'NONE', #432, 1000.000000000000000 ) ;
#47 = DIRECTION ( 'NONE',  ( 0.000000000000000000, 0.000000000000000000, -1.000000000000000000 ) ) ;
#48 = EDGE_CURVE ( 'NONE', #654, #482, #274, .T. ) ;
#49 = LINE ( 'NONE', #643, #59 ) ;
#50 = DIRECTION ( 'NONE',  ( -1.000000000000000000, 0.000000000000000000, 0.000000000000000000 ) ) ;
#51 = LINE ( 'NONE', #181, #616 ) ;
#52 = FACE_OUTER_BOUND ( 'NONE', #583, .T. ) ;
#53 = ORIENTED_EDGE ( 'NONE', *, *, #775, .F. ) ;
#54 = ORIENTED_EDGE ( 'NONE', *, *, #293, .T. ) ;
#55 = CARTESIAN_POINT ( 'NONE',  ( 46.04177743419999302, 38.37930655360500509, 0.000000000000000000 ) ) ;
#56 = FACE_OUTER_BOUND ( 'NONE', #108, .T. ) ;
#57 = EDGE_CURVE ( 'NONE', #292, #342, #566, .T. ) ;
#58 = VERTEX_POINT ( 'NONE', #393 ) ;
#59 = VECTOR ( 'NONE', #751, 1000.000000000000000 ) ;
#60 = VERTEX_POINT ( 'NONE', #326 ) ;
#61 = CARTESIAN_POINT ( 'NONE',  ( 47.73258535595599739, 17.85826222096400073, 22.59367349790599988 ) ) ;
#62 = DIRECTION ( 'NONE',  ( 0.000000000000000000, 0.000000000000000000, -1.000000000000000000 ) ) ;
#63 = DIRECTION ( 'NONE',  ( 0.000000000000000000, 1.000000000000000000, 0.000000000000000000 ) ) ;
#64 = VERTEX_POINT ( 'NONE', #531 ) ;
#65 = CARTESIAN_POINT ( 'NONE',  ( 48.64396901912600413, 35.77711496867799923, 22.59367349790599988 ) ) ;
#66 = DIRECTION ( 'NONE',  ( 0.000000000000000000, 0.000000000000000000, -1.000000000000000000 ) ) ;
#67 = FACE_OUTER_BOUND ( 'NONE', #682, .T. ) ;
#68 = VERTEX_POINT ( 'NONE', #70 ) ;
#69 = FACE_OUTER_BOUND ( 'NONE', #567, .T. ) ;
#70 = CARTESIAN_POINT ( 'NONE',  ( 39.35291394341800242, 11.15728124236100172, 10.67745602926599879 ) ) ;
#71 = ORIENTED_EDGE ( 'NONE', *, *, #88, .F. ) ;
#72 =( NAMED_UNIT ( * ) PLANE_ANGLE_UNIT ( ) SI_UNIT ( $, .RADIAN. ) );
#73 = LINE ( 'NONE', #335, #346 ) ;
#74 = EDGE_CURVE ( 'NONE', #15, #415, #732, .T. ) ;
#75 = VECTOR ( 'NONE', #494, 1000.000000000000000 ) ;
#76 = PLANE ( 'NONE',  #496 ) ;
#77 = ORIENTED_EDGE ( 'NONE', *, *, #635, .F. ) ;
#78 = FACE_OUTER_BOUND ( 'NONE', #26, .T. ) ;
#79 = CARTESIAN_POINT ( 'NONE',  ( 28.11833035921500112, 11.50544128389800136, 22.59367349790599988 ) ) ;
#80 = ORIENTED_EDGE ( 'NONE', *, *, #493, .F. ) ;
#81 = CARTESIAN_POINT ( 'NONE',  ( 37.14866457765499774, 16.30877514042400023, 10.67745602926599879 ) ) ;
#82 = EDGE_CURVE ( 'NONE', #513, #68, #14, .T. ) ;
#83 = FACE_OUTER_BOUND ( 'NONE', #639, .T. ) ;
#84 = ADVANCED_FACE ( 'NONE', ( #144 ), #200, .T. ) ;
#85 = EDGE_LOOP ( 'NONE', ( #781, #302, #224, #92 ) ) ;
#86 = LINE ( 'NONE', #265, #429 ) ;
#87 =( LENGTH_UNIT ( ) NAMED_UNIT ( * ) SI_UNIT ( .MILLI., .METRE. ) );
#88 = EDGE_CURVE ( 'NONE', #550, #578, #736, .T. ) ;
#89 = EDGE_LOOP ( 'NONE', ( #159, #495, #473, #843 ) ) ;
#90 = DIRECTION ( 'NONE',  ( 1.000000000000000000, 0.000000000000000000, 0.000000000000000000 ) ) ;
#91 = FILL_AREA_STYLE_COLOUR ( '', #470 ) ;
#92 = ORIENTED_EDGE ( 'NONE', *, *, #207, .F. ) ;
#93 = CARTESIAN_POINT ( 'NONE',  ( 47.73258535595599739, 17.85826222096400073, 22.59367349790599988 ) ) ;
#94 = PLANE ( 'NONE',  #711 ) ;
#95 = ORIENTED_EDGE ( 'NONE', *, *, #450, .T. ) ;
#96 = CARTESIAN_POINT ( 'NONE',  ( 49.73258535595599739, 17.85826222096400073, 16.00339959103200371 ) ) ;
#97 = EDGE_CURVE ( 'NONE', #380, #303, #191, .T. ) ;
#98 = VECTOR ( 'NONE', #558, 1000.000000000000114 ) ;
#99 = AXIS2_PLACEMENT_3D ( 'NONE', #422, #282, #702 ) ;
#100 = AXIS2_PLACEMENT_3D ( 'NONE', #576, #706, #110 ) ;
#101 = ORIENTED_EDGE ( 'NONE', *, *, #82, .F. ) ;
#102 = CARTESIAN_POINT ( 'NONE',  ( 34.94441521189300204, 21.46026903848799705, 10.67745602926599879 ) ) ;
#103 = ORIENTED_EDGE ( 'NONE', *, *, #283, .F. ) ;
#104 = CARTESIAN_POINT ( 'NONE',  ( 34.94441521189300204, 21.46026903848799705, 10.67745602926599879 ) ) ;
#105 = EDGE_CURVE ( 'NONE', #754, #194, #111, .T. ) ;
#106 = ORIENTED_EDGE ( 'NONE', *, *, #512, .T. ) ;
#107 = ADVANCED_FACE ( 'NONE', ( #67 ), #330, .F. ) ;
#108 = EDGE_LOOP ( 'NONE', ( #668, #145, #295, #826 ) ) ;
#109 = UNCERTAINTY_MEASURE_WITH_UNIT (LENGTH_MEASURE( 1.000000000000000082E-05 ), #87, 'distance_accuracy_value', 'NONE');
#110 = DIRECTION ( 'NONE',  ( 1.000000000000000000, 0.000000000000000000, 0.000000000000000000 ) ) ;
#111 = CIRCLE ( 'NONE', #299, 10.44026916740699917 ) ;
#112 = ORIENTED_EDGE ( 'NONE', *, *, #406, .T. ) ;
#113 = AXIS2_PLACEMENT_3D ( 'NONE', #524, #520, #131 ) ;
#114 = VECTOR ( 'NONE', #298, 1000.000000000000000 ) ;
#115 = ORIENTED_EDGE ( 'NONE', *, *, #767, .F. ) ;
#116 = DIRECTION ( 'NONE',  ( -0.9970126327198463034, 0.07723865740055810281, 0.000000000000000000 ) ) ;
#117 = CARTESIAN_POINT ( 'NONE',  ( 28.20886151831100008, 10.44026916740699917, 13.66963892488599974 ) ) ;
#118 = DIRECTION ( 'NONE',  ( 1.000000000000000000, 0.000000000000000000, 0.000000000000000000 ) ) ;
#119 = LINE ( 'NONE', #447, #6 ) ;
#120 = PLANE ( 'NONE',  #387 ) ;
#121 = PRODUCT ( '20260414_160844_72', '20260414_160844_72', '', ( #738 ) ) ;
#122 = ORIENTED_EDGE ( 'NONE', *, *, #147, .T. ) ;
#123 = EDGE_LOOP ( 'NONE', ( #809, #176, #780, #764 ) ) ;
#124 = CARTESIAN_POINT ( 'NONE',  ( 16.76859235090400091, 6.392821110549000264E-16, 22.59367349790599988 ) ) ;
#125 = LINE ( 'NONE', #731, #485 ) ;
#126 = DIRECTION ( 'NONE',  ( 0.8759126426017147526, -0.4824697322428428969, 0.000000000000000000 ) ) ;
#127 = VECTOR ( 'NONE', #341, 1000.000000000000000 ) ;
#128 = EDGE_LOOP ( 'NONE', ( #373, #173, #408, #813 ) ) ;
#129 = CARTESIAN_POINT ( 'NONE',  ( 27.20886151831100008, 10.44026916740699917, 22.59367349790599988 ) ) ;
#130 = AXIS2_PLACEMENT_3D ( 'NONE', #799, #272, #669 ) ;
#131 = DIRECTION ( 'NONE',  ( 0.000000000000000000, 1.000000000000000000, 0.000000000000000000 ) ) ;
#132 = CARTESIAN_POINT ( 'NONE',  ( 30.26683293945599829, 13.34498923453699959, 22.59367349790599988 ) ) ;
#133 = ORIENTED_EDGE ( 'NONE', *, *, #716, .T. ) ;
#134 = CARTESIAN_POINT ( 'NONE',  ( 30.26683293945599829, 13.34498923453699959, 5.477211394121000332 ) ) ;
#135 = DIRECTION ( 'NONE',  ( 1.000000000000000000, 0.000000000000000000, 0.000000000000000000 ) ) ;
#136 = ADVANCED_FACE ( 'NONE', ( #461 ), #797, .F. ) ;
#137 = ORIENTED_EDGE ( 'NONE', *, *, #565, .F. ) ;
#138 = LINE ( 'NONE', #13, #316 ) ;
#139 = DIRECTION ( 'NONE',  ( 0.000000000000000000, 0.000000000000000000, 1.000000000000000000 ) ) ;
#140 = EDGE_LOOP ( 'NONE', ( #452, #226, #427, #600 ) ) ;
#141 = VECTOR ( 'NONE', #694, 1000.000000000000000 ) ;
#142 = DIRECTION ( 'NONE',  ( 1.000000000000000000, 0.000000000000000000, 0.000000000000000000 ) ) ;
#143 = VECTOR ( 'NONE', #850, 1000.000000000000227 ) ;
#144 = FACE_OUTER_BOUND ( 'NONE', #85, .T. ) ;
#145 = ORIENTED_EDGE ( 'NONE', *, *, #548, .T. ) ;
#146 = FACE_OUTER_BOUND ( 'NONE', #445, .T. ) ;
#147 = EDGE_CURVE ( 'NONE', #367, #332, #398, .T. ) ;
#148 = DIRECTION ( 'NONE',  ( -0.000000000000000000, 1.000000000000000000, 0.000000000000000000 ) ) ;
#149 = CARTESIAN_POINT ( 'NONE',  ( 51.10205672986799641, 33.31902725793599984, 0.000000000000000000 ) ) ;
#150 = ORIENTED_EDGE ( 'NONE', *, *, #501, .T. ) ;
#151 = CARTESIAN_POINT ( 'NONE',  ( 0.000000000000000000, 35.77711496867799923, 0.000000000000000000 ) ) ;
#152 = ADVANCED_FACE ( 'NONE', ( #598 ), #76, .F. ) ;
#153 = CARTESIAN_POINT ( 'NONE',  ( 28.11833035921500112, 11.50544128389800136, 5.477211394121000332 ) ) ;
#154 = VERTEX_POINT ( 'NONE', #388 ) ;
#155 = CARTESIAN_POINT ( 'NONE',  ( 28.27280767401600414, 13.49946654933800083, 5.477211394121000332 ) ) ;
#156 = VECTOR ( 'NONE', #666, 1000.000000000000227 ) ;
#157 = VECTOR ( 'NONE', #241, 1000.000000000000000 ) ;
#158 = CYLINDRICAL_SURFACE ( 'NONE', #508, 10.44026916740699917 ) ;
#159 = ORIENTED_EDGE ( 'NONE', *, *, #384, .T. ) ;
#160 = DIRECTION ( 'NONE',  ( 0.000000000000000000, 0.000000000000000000, 1.000000000000000000 ) ) ;
#161 = CARTESIAN_POINT ( 'NONE',  ( 0.000000000000000000, 31.04705767385499726, -1.448162326841999999E-16 ) ) ;
#162 = ORIENTED_EDGE ( 'NONE', *, *, #762, .F. ) ;
#163 = ADVANCED_FACE ( 'NONE', ( #336 ), #846, .F. ) ;
#164 = DIRECTION ( 'NONE',  ( 0.4824697322428428969, 0.8759126426017147526, 0.000000000000000000 ) ) ;
#165 = DIRECTION ( 'NONE',  ( 1.000000000000000000, 0.000000000000000000, 0.000000000000000000 ) ) ;
#166 = ORIENTED_EDGE ( 'NONE', *, *, #726, .F. ) ;
#167 = CARTESIAN_POINT ( 'NONE',  ( 49.73258535595599739, 15.85826222096399896, 16.00339959103200371 ) ) ;
#168 = VECTOR ( 'NONE', #234, 1000.000000000000000 ) ;
#169 = ORIENTED_EDGE ( 'NONE', *, *, #172, .T. ) ;
#170 = CARTESIAN_POINT ( 'NONE',  ( 0.000000000000000000, 0.000000000000000000, 22.59367349790599988 ) ) ;
#171 = EDGE_CURVE ( 'NONE', #281, #550, #742, .T. ) ;
#172 = EDGE_CURVE ( 'NONE', #705, #275, #608, .T. ) ;
#173 = ORIENTED_EDGE ( 'NONE', *, *, #21, .T. ) ;
#174 = ORIENTED_EDGE ( 'NONE', *, *, #569, .T. ) ;
#175 = DIRECTION ( 'NONE',  ( 0.000000000000000000, 0.000000000000000000, 1.000000000000000000 ) ) ;
#176 = ORIENTED_EDGE ( 'NONE', *, *, #283, .T. ) ;
#177 = DIRECTION ( 'NONE',  ( 0.000000000000000000, 0.000000000000000000, 1.000000000000000000 ) ) ;
#178 = DIRECTION ( 'NONE',  ( 0.000000000000000000, 0.000000000000000000, -1.000000000000000000 ) ) ;
#179 = ORIENTED_EDGE ( 'NONE', *, *, #519, .F. ) ;
#180 = VECTOR ( 'NONE', #533, 1000.000000000000000 ) ;
#181 = CARTESIAN_POINT ( 'NONE',  ( 0.000000000000000000, 35.77711496867799923, 0.000000000000000000 ) ) ;
#182 = FACE_OUTER_BOUND ( 'NONE', #718, .T. ) ;
#183 = ORIENTED_EDGE ( 'NONE', *, *, #57, .F. ) ;
#184 = LINE ( 'NONE', #195, #712 ) ;
#185 = EDGE_CURVE ( 'NONE', #214, #550, #759, .T. ) ;
#186 = PLANE ( 'NONE',  #5 ) ;
#187 = DIRECTION ( 'NONE',  ( -0.07723865740055811668, -0.9970126327198464145, 0.000000000000000000 ) ) ;
#188 = ORIENTED_EDGE ( 'NONE', *, *, #21, .F. ) ;
#189 = DIRECTION ( 'NONE',  ( -0.9970126327198463034, 0.07723865740055810281, 0.000000000000000000 ) ) ;
#190 = DIRECTION ( 'NONE',  ( -0.4824697322428429525, -0.8759126426017148637, 0.000000000000000000 ) ) ;
#191 = LINE ( 'NONE', #132, #230 ) ;
#192 = CLOSED_SHELL ( 'NONE', ( #793, #530, #235, #361, #394, #23, #832, #842, #539, #291, #310, #609, #703, #699, #350, #364, #163, #455, #107, #480, #229, #136, #152, #430, #542, #84, #296, #38 ) ) ;
#193 = VECTOR ( 'NONE', #835, 1000.000000000000000 ) ;
#194 = VERTEX_POINT ( 'NONE', #544 ) ;
#195 = CARTESIAN_POINT ( 'NONE',  ( 30.11235562465400406, 11.35096396909699834, 22.59367349790599988 ) ) ;
#196 = CARTESIAN_POINT ( 'NONE',  ( 30.26683293945599829, 13.34498923453699959, 22.59367349790599988 ) ) ;
#197 = DIRECTION ( 'NONE',  ( 0.000000000000000000, 0.000000000000000000, 1.000000000000000000 ) ) ;
#198 = ORIENTED_EDGE ( 'NONE', *, *, #733, .F. ) ;
#199 = FACE_OUTER_BOUND ( 'NONE', #424, .T. ) ;
#200 = PLANE ( 'NONE',  #402 ) ;
#201 = EDGE_CURVE ( 'NONE', #268, #367, #824, .T. ) ;
#202 = ORIENTED_EDGE ( 'NONE', *, *, #788, .F. ) ;
#203 = CARTESIAN_POINT ( 'NONE',  ( 28.20886151831100008, 10.44026916740699917, 22.59367349790599988 ) ) ;
#204 = DIRECTION ( 'NONE',  ( 0.000000000000000000, 0.000000000000000000, -1.000000000000000000 ) ) ;
#205 = ORIENTED_EDGE ( 'NONE', *, *, #227, .T. ) ;
#206 = DIRECTION ( 'NONE',  ( 1.000000000000000000, 0.000000000000000000, 0.000000000000000000 ) ) ;
#207 = EDGE_CURVE ( 'NONE', #708, #621, #279, .T. ) ;
#208 = VECTOR ( 'NONE', #547, 1000.000000000000000 ) ;
#209 = DIRECTION ( 'NONE',  ( 0.000000000000000000, 0.000000000000000000, 1.000000000000000000 ) ) ;
#210 = CARTESIAN_POINT ( 'NONE',  ( 49.73258535595599739, 17.85826222096400073, 22.59367349790599988 ) ) ;
#211 = ORIENTED_EDGE ( 'NONE', *, *, #615, .T. ) ;
#212 = PLANE ( 'NONE',  #370 ) ;
#213 = FACE_OUTER_BOUND ( 'NONE', #729, .T. ) ;
#214 = VERTEX_POINT ( 'NONE', #808 ) ;
#215 = LINE ( 'NONE', #796, #180 ) ;
#216 =( NAMED_UNIT ( * ) SI_UNIT ( $, .STERADIAN. ) SOLID_ANGLE_UNIT ( ) );
#217 = ORIENTED_EDGE ( 'NONE', *, *, #74, .F. ) ;
#218 = UNCERTAINTY_MEASURE_WITH_UNIT (LENGTH_MEASURE( 1.000000000000000082E-05 ), #404, 'distance_accuracy_value', 'NONE');
#219 = CARTESIAN_POINT ( 'NONE',  ( 51.10205672986799641, 0.000000000000000000, 0.000000000000000000 ) ) ;
#220 = CARTESIAN_POINT ( 'NONE',  ( 30.11235562465400406, 11.35096396909699834, 5.477211394121000332 ) ) ;
#221 = ORIENTED_EDGE ( 'NONE', *, *, #320, .T. ) ;
#222 = CARTESIAN_POINT ( 'NONE',  ( 28.11833035921500112, 11.50544128389800136, 22.59367349790599988 ) ) ;
#223 = DIRECTION ( 'NONE',  ( 1.000000000000000000, 0.000000000000000000, 0.000000000000000000 ) ) ;
#224 = ORIENTED_EDGE ( 'NONE', *, *, #519, .T. ) ;
#225 = LINE ( 'NONE', #561, #141 ) ;
#226 = ORIENTED_EDGE ( 'NONE', *, *, #767, .T. ) ;
#227 = EDGE_CURVE ( 'NONE', #482, #275, #49, .T. ) ;
#228 = FACE_OUTER_BOUND ( 'NONE', #89, .T. ) ;
#229 = ADVANCED_FACE ( 'NONE', ( #83 ), #158, .F. ) ;
#230 = VECTOR ( 'NONE', #270, 1000.000000000000000 ) ;
#231 = VECTOR ( 'NONE', #178, 1000.000000000000000 ) ;
#232 =( GEOMETRIC_REPRESENTATION_CONTEXT ( 3 ) GLOBAL_UNCERTAINTY_ASSIGNED_CONTEXT ( ( #218 ) ) GLOBAL_UNIT_ASSIGNED_CONTEXT ( ( #404, #72, #463 ) ) REPRESENTATION_CONTEXT ( 'NONE', 'WORKASPACE' ) );
#233 = ORIENTED_EDGE ( 'NONE', *, *, #700, .T. ) ;
#234 = DIRECTION ( 'NONE',  ( 0.000000000000000000, 1.000000000000000000, 0.000000000000000000 ) ) ;
#235 = ADVANCED_FACE ( 'NONE', ( #213 ), #491, .T. ) ;
#236 = ORIENTED_EDGE ( 'NONE', *, *, #201, .T. ) ;
#237 = ORIENTED_EDGE ( 'NONE', *, *, #97, .F. ) ;
#238 = LINE ( 'NONE', #655, #442 ) ;
#239 = CARTESIAN_POINT ( 'NONE',  ( 0.000000000000000000, 35.77711496867799923, 0.000000000000000000 ) ) ;
#240 = ORIENTED_EDGE ( 'NONE', *, *, #97, .T. ) ;
#241 = DIRECTION ( 'NONE',  ( 0.000000000000000000, -1.000000000000000000, 0.000000000000000000 ) ) ;
#242 = DIRECTION ( 'NONE',  ( 0.000000000000000000, 0.000000000000000000, -1.000000000000000000 ) ) ;
#243 = AXIS2_PLACEMENT_3D ( 'NONE', #667, #139, #135 ) ;
#244 = VECTOR ( 'NONE', #766, 1000.000000000000114 ) ;
#245 = DIRECTION ( 'NONE',  ( 0.8759126426017147526, -0.4824697322428428969, 0.000000000000000000 ) ) ;
#246 = EDGE_CURVE ( 'NONE', #292, #58, #20, .T. ) ;
#247 = AXIS2_PLACEMENT_3D ( 'NONE', #546, #601, #206 ) ;
#248 = ORIENTED_EDGE ( 'NONE', *, *, #466, .T. ) ;
#249 = DIRECTION ( 'NONE',  ( 1.000000000000000000, 0.000000000000000000, 0.000000000000000000 ) ) ;
#250 = LINE ( 'NONE', #587, #331 ) ;
#251 = ORIENTED_EDGE ( 'NONE', *, *, #733, .T. ) ;
#252 = VERTEX_POINT ( 'NONE', #210 ) ;
#253 = LINE ( 'NONE', #514, #278 ) ;
#254 = CYLINDRICAL_SURFACE ( 'NONE', #18, 4.730057294822999303 ) ;
#255 = CARTESIAN_POINT ( 'NONE',  ( 34.94441521189300204, 21.46026903848799705, 22.59367349790599988 ) ) ;
#256 = EDGE_LOOP ( 'NONE', ( #174, #714, #263 ) ) ;
#257 = DIRECTION ( 'NONE',  ( 0.000000000000000000, 0.000000000000000000, -1.000000000000000000 ) ) ;
#258 = EDGE_CURVE ( 'NONE', #41, #621, #613, .T. ) ;
#259 = DIRECTION ( 'NONE',  ( -0.8759126426017147526, 0.4824697322428428969, 0.000000000000000000 ) ) ;
#260 = DIRECTION ( 'NONE',  ( 0.000000000000000000, 0.000000000000000000, -1.000000000000000000 ) ) ;
#261 =( GEOMETRIC_REPRESENTATION_CONTEXT ( 3 ) GLOBAL_UNCERTAINTY_ASSIGNED_CONTEXT ( ( #109 ) ) GLOBAL_UNIT_ASSIGNED_CONTEXT ( ( #87, #25, #216 ) ) REPRESENTATION_CONTEXT ( 'NONE', 'WORKASPACE' ) );
#262 = AXIS2_PLACEMENT_3D ( 'NONE', #543, #536, #464 ) ;
#263 = ORIENTED_EDGE ( 'NONE', *, *, #493, .T. ) ;
#264 = VECTOR ( 'NONE', #791, 1000.000000000000000 ) ;
#265 = CARTESIAN_POINT ( 'NONE',  ( 0.000000000000000000, 0.000000000000000000, 0.000000000000000000 ) ) ;
#266 = MANIFOLD_SOLID_BREP ( 'Open CASCADE STEP translator 7.5 12[1]', #192 ) ;
#267 = DIRECTION ( 'NONE',  ( 1.000000000000000000, 0.000000000000000000, 0.000000000000000000 ) ) ;
#268 = VERTEX_POINT ( 'NONE', #352 ) ;
#269 = CARTESIAN_POINT ( 'NONE',  ( 28.27280767401600414, 13.49946654933800083, 22.59367349790599988 ) ) ;
#270 = DIRECTION ( 'NONE',  ( 0.000000000000000000, 0.000000000000000000, -1.000000000000000000 ) ) ;
#271 = ORIENTED_EDGE ( 'NONE', *, *, #328, .F. ) ;
#272 = DIRECTION ( 'NONE',  ( 0.000000000000000000, -1.000000000000000000, 0.000000000000000000 ) ) ;
#273 = CARTESIAN_POINT ( 'NONE',  ( 46.04177743419999302, 38.37930655360500509, 22.59367349790599988 ) ) ;
#274 = LINE ( 'NONE', #79, #628 ) ;
#275 = VERTEX_POINT ( 'NONE', #220 ) ;
#276 = VECTOR ( 'NONE', #673, 1000.000000000000000 ) ;
#277 = DIRECTION ( 'NONE',  ( 0.000000000000000000, 0.000000000000000000, 1.000000000000000000 ) ) ;
#278 = VECTOR ( 'NONE', #177, 1000.000000000000000 ) ;
#279 = LINE ( 'NONE', #149, #416 ) ;
#280 = ORIENTED_EDGE ( 'NONE', *, *, #762, .T. ) ;
#281 = VERTEX_POINT ( 'NONE', #623 ) ;
#282 = DIRECTION ( 'NONE',  ( 1.000000000000000000, 0.000000000000000000, 0.000000000000000000 ) ) ;
#283 = EDGE_CURVE ( 'NONE', #578, #704, #284, .T. ) ;
#284 = LINE ( 'NONE', #488, #537 ) ;
#285 = EDGE_LOOP ( 'NONE', ( #610, #822, #106, #572 ) ) ;
#286 = DIRECTION ( 'NONE',  ( 0.000000000000000000, -1.000000000000000000, 0.000000000000000000 ) ) ;
#287 = AXIS2_PLACEMENT_3D ( 'NONE', #681, #348, #223 ) ;
#288 = LINE ( 'NONE', #392, #143 ) ;
#289 = ORIENTED_EDGE ( 'NONE', *, *, #676, .T. ) ;
#290 = CARTESIAN_POINT ( 'NONE',  ( 51.10205672986799641, 33.31902725793599984, 22.59367349790599988 ) ) ;
#291 = ADVANCED_FACE ( 'NONE', ( #423 ), #94, .F. ) ;
#292 = VERTEX_POINT ( 'NONE', #33 ) ;
#293 = EDGE_CURVE ( 'NONE', #39, #323, #288, .T. ) ;
#294 = DIRECTION ( 'NONE',  ( 0.4824697322428429525, 0.8759126426017148637, 0.000000000000000000 ) ) ;
#295 = ORIENTED_EDGE ( 'NONE', *, *, #849, .T. ) ;
#296 = ADVANCED_FACE ( 'NONE', ( #52 ), #379, .T. ) ;
#297 = ORIENTED_EDGE ( 'NONE', *, *, #246, .T. ) ;
#298 = DIRECTION ( 'NONE',  ( 0.000000000000000000, -1.000000000000000000, 0.000000000000000000 ) ) ;
#299 = AXIS2_PLACEMENT_3D ( 'NONE', #663, #197, #588 ) ;
#300 = AXIS2_PLACEMENT_3D ( 'NONE', #376, #190, #259 ) ;
#301 = VECTOR ( 'NONE', #116, 1000.000000000000114 ) ;
#302 = ORIENTED_EDGE ( 'NONE', *, *, #810, .T. ) ;
#303 = VERTEX_POINT ( 'NONE', #134 ) ;
#304 = CARTESIAN_POINT ( 'NONE',  ( 28.11833035921500112, 11.50544128389800136, 5.477211394121000332 ) ) ;
#305 = APPLICATION_CONTEXT ( 'automotive_design' ) ;
#306 = CARTESIAN_POINT ( 'NONE',  ( 28.20886151831100008, 0.000000000000000000, 22.59367349790599988 ) ) ;
#307 = LINE ( 'NONE', #648, #750 ) ;
#308 = DIRECTION ( 'NONE',  ( 1.000000000000000000, 0.000000000000000000, 0.000000000000000000 ) ) ;
#309 = CARTESIAN_POINT ( 'NONE',  ( 31.61655607908999599, 15.41861773392300172, 22.59367349790599988 ) ) ;
#310 = ADVANCED_FACE ( 'NONE', ( #182 ), #577, .F. ) ;
#311 = CARTESIAN_POINT ( 'NONE',  ( 0.000000000000000000, 0.000000000000000000, 22.59367349790599988 ) ) ;
#312 = ORIENTED_EDGE ( 'NONE', *, *, #340, .F. ) ;
#313 = DIRECTION ( 'NONE',  ( 0.7071067811865474617, -0.7071067811865474617, 0.000000000000000000 ) ) ;
#314 = PLANE ( 'NONE',  #300 ) ;
#315 = VECTOR ( 'NONE', #29, 1000.000000000000000 ) ;
#316 = VECTOR ( 'NONE', #475, 1000.000000000000000 ) ;
#317 = PLANE ( 'NONE',  #656 ) ;
#318 = FACE_OUTER_BOUND ( 'NONE', #123, .T. ) ;
#319 = CARTESIAN_POINT ( 'NONE',  ( 42.68077307622100136, 17.19893254692600237, 10.67745602926599879 ) ) ;
#320 = EDGE_CURVE ( 'NONE', #367, #754, #449, .T. ) ;
#321 = DIRECTION ( 'NONE',  ( -0.9970126327198463034, 0.07723865740055810281, 0.000000000000000000 ) ) ;
#322 = EDGE_CURVE ( 'NONE', #754, #829, #792, .T. ) ;
#323 = VERTEX_POINT ( 'NONE', #662 ) ;
#324 = CARTESIAN_POINT ( 'NONE',  ( 39.35291394341800242, 11.15728124236100172, 22.59367349790599988 ) ) ;
#325 = CARTESIAN_POINT ( 'NONE',  ( 28.20886151831100008, 10.44026916740699917, 22.59367349790599988 ) ) ;
#326 = CARTESIAN_POINT ( 'NONE',  ( 48.64396901912600413, 35.77711496867799923, 0.000000000000000000 ) ) ;
#327 = EDGE_LOOP ( 'NONE', ( #198, #847, #77, #202 ) ) ;
#328 = EDGE_CURVE ( 'NONE', #154, #281, #515, .T. ) ;
#329 = CARTESIAN_POINT ( 'NONE',  ( 28.27280767401600414, 13.49946654933800083, 22.59367349790599988 ) ) ;
#330 = PLANE ( 'NONE',  #837 ) ;
#331 = VECTOR ( 'NONE', #783, 1000.000000000000000 ) ;
#332 = VERTEX_POINT ( 'NONE', #117 ) ;
#333 = DIRECTION ( 'NONE',  ( -1.000000000000000000, 0.000000000000000000, 0.000000000000000000 ) ) ;
#334 = VECTOR ( 'NONE', #189, 1000.000000000000114 ) ;
#335 = CARTESIAN_POINT ( 'NONE',  ( 34.94441521189300204, 21.46026903848799705, 22.59367349790599988 ) ) ;
#336 = FACE_OUTER_BOUND ( 'NONE', #345, .T. ) ;
#337 = ORIENTED_EDGE ( 'NONE', *, *, #437, .F. ) ;
#338 = DIRECTION ( 'NONE',  ( 1.000000000000000000, 0.000000000000000000, 0.000000000000000000 ) ) ;
#339 = CARTESIAN_POINT ( 'NONE',  ( 30.11235562465400406, 11.35096396909699834, 22.59367349790599988 ) ) ;
#340 = EDGE_CURVE ( 'NONE', #323, #513, #439, .T. ) ;
#341 = DIRECTION ( 'NONE',  ( 1.000000000000000000, 0.000000000000000000, 0.000000000000000000 ) ) ;
#342 = VERTEX_POINT ( 'NONE', #509 ) ;
#343 = LINE ( 'NONE', #688, #816 ) ;
#344 = CARTESIAN_POINT ( 'NONE',  ( 29.19258164933500055, 12.42521525921799963, 5.477211394121000332 ) ) ;
#345 = EDGE_LOOP ( 'NONE', ( #817, #240, #585, #399 ) ) ;
#346 = VECTOR ( 'NONE', #683, 1000.000000000000000 ) ;
#347 = DIRECTION ( 'NONE',  ( 0.07723865740055810281, 0.9970126327198463034, 0.000000000000000000 ) ) ;
#348 = DIRECTION ( 'NONE',  ( 0.000000000000000000, 0.000000000000000000, 1.000000000000000000 ) ) ;
#349 = ORIENTED_EDGE ( 'NONE', *, *, #716, .F. ) ;
#350 = ADVANCED_FACE ( 'NONE', ( #397 ), #314, .F. ) ;
#351 = DIRECTION ( 'NONE',  ( -0.4824697322428428969, -0.8759126426017147526, 0.000000000000000000 ) ) ;
#352 = CARTESIAN_POINT ( 'NONE',  ( 38.64913068571799926, 0.000000000000000000, 22.59367349790599988 ) ) ;
#353 = VERTEX_POINT ( 'NONE', #460 ) ;
#354 = CARTESIAN_POINT ( 'NONE',  ( 42.68077307622100136, 17.19893254692600237, 22.59367349790599988 ) ) ;
#355 = DIRECTION ( 'NONE',  ( -0.000000000000000000, 1.000000000000000000, 0.000000000000000000 ) ) ;
#356 = ORIENTED_EDGE ( 'NONE', *, *, #448, .F. ) ;
#357 = VECTOR ( 'NONE', #377, 1000.000000000000227 ) ;
#358 = LINE ( 'NONE', #102, #359 ) ;
#359 = VECTOR ( 'NONE', #351, 1000.000000000000227 ) ;
#360 = VECTOR ( 'NONE', #563, 1000.000000000000000 ) ;
#361 = ADVANCED_FACE ( 'NONE', ( #56 ), #186, .T. ) ;
#362 = ORIENTED_EDGE ( 'NONE', *, *, #322, .T. ) ;
#363 = CARTESIAN_POINT ( 'NONE',  ( 47.73258535595599739, 17.85826222096400073, 22.59367349790599988 ) ) ;
#364 = ADVANCED_FACE ( 'NONE', ( #840 ), #120, .F. ) ;
#365 = ORIENTED_EDGE ( 'NONE', *, *, #414, .T. ) ;
#366 = PLANE ( 'NONE',  #99 ) ;
#367 = VERTEX_POINT ( 'NONE', #713 ) ;
#368 = ORIENTED_EDGE ( 'NONE', *, *, #57, .T. ) ;
#369 = DIRECTION ( 'NONE',  ( -0.8759126426017148637, 0.4824697322428429525, 0.000000000000000000 ) ) ;
#370 = AXIS2_PLACEMENT_3D ( 'NONE', #93, #633, #27 ) ;
#371 = AXIS2_PLACEMENT_3D ( 'NONE', #770, #175, #435 ) ;
#372 = EDGE_LOOP ( 'NONE', ( #802, #30, #53, #115, #420, #571, #637, #541 ) ) ;
#373 = ORIENTED_EDGE ( 'NONE', *, *, #82, .T. ) ;
#374 = DIRECTION ( 'NONE',  ( 0.000000000000000000, 0.000000000000000000, -1.000000000000000000 ) ) ;
#375 = EDGE_CURVE ( 'NONE', #252, #578, #250, .T. ) ;
#376 = CARTESIAN_POINT ( 'NONE',  ( 31.61655607908999599, 15.41861773392300172, 22.59367349790599988 ) ) ;
#377 = DIRECTION ( 'NONE',  ( 0.4824697322428428969, 0.8759126426017147526, 0.000000000000000000 ) ) ;
#378 = DIRECTION ( 'NONE',  ( 0.000000000000000000, 0.000000000000000000, 1.000000000000000000 ) ) ;
#379 = PLANE ( 'NONE',  #45 ) ;
#380 = VERTEX_POINT ( 'NONE', #721 ) ;
#381 = ORIENTED_EDGE ( 'NONE', *, *, #185, .F. ) ;
#382 = DIRECTION ( 'NONE',  ( 0.000000000000000000, 0.000000000000000000, 1.000000000000000000 ) ) ;
#383 = LINE ( 'NONE', #319, #156 ) ;
#384 = EDGE_CURVE ( 'NONE', #489, #39, #125, .T. ) ;
#385 = AXIS2_PLACEMENT_3D ( 'NONE', #603, #801, #204 ) ;
#386 = EDGE_CURVE ( 'NONE', #64, #632, #383, .T. ) ;
#387 = AXIS2_PLACEMENT_3D ( 'NONE', #196, #591, #62 ) ;
#388 = CARTESIAN_POINT ( 'NONE',  ( 47.73258535595599739, 15.85826222096399896, 22.59367349790599988 ) ) ;
#389 = VECTOR ( 'NONE', #257, 1000.000000000000000 ) ;
#390 = ORIENTED_EDGE ( 'NONE', *, *, #752, .F. ) ;
#391 = FACE_OUTER_BOUND ( 'NONE', #746, .T. ) ;
#392 = CARTESIAN_POINT ( 'NONE',  ( 34.94441521189300204, 21.46026903848799705, 22.59367349790599988 ) ) ;
#393 = CARTESIAN_POINT ( 'NONE',  ( 46.73646927460099931, 31.04705767385499726, -1.448162326841999999E-16 ) ) ;
#394 = ADVANCED_FACE ( 'NONE', ( #69 ), #254, .F. ) ;
#395 = ORIENTED_EDGE ( 'NONE', *, *, #375, .T. ) ;
#396 = PLANE ( 'NONE',  #130 ) ;
#397 = FACE_OUTER_BOUND ( 'NONE', #446, .T. ) ;
#398 = LINE ( 'NONE', #401, #276 ) ;
#399 = ORIENTED_EDGE ( 'NONE', *, *, #227, .F. ) ;
#400 = DIRECTION ( 'NONE',  ( -0.07723865740055810281, -0.9970126327198463034, 0.000000000000000000 ) ) ;
#401 = CARTESIAN_POINT ( 'NONE',  ( 28.20886151831100008, 10.44026916740699917, 22.59367349790599988 ) ) ;
#402 = AXIS2_PLACEMENT_3D ( 'NONE', #592, #538, #728 ) ;
#403 = ORIENTED_EDGE ( 'NONE', *, *, #584, .T. ) ;
#404 =( LENGTH_UNIT ( ) NAMED_UNIT ( * ) SI_UNIT ( .MILLI., .METRE. ) );
#405 = DIRECTION ( 'NONE',  ( 0.000000000000000000, 1.000000000000000000, 0.000000000000000000 ) ) ;
#406 = EDGE_CURVE ( 'NONE', #489, #64, #505, .T. ) ;
#407 = CARTESIAN_POINT ( 'NONE',  ( 0.000000000000000000, 35.77711496867799923, 0.000000000000000000 ) ) ;
#408 = ORIENTED_EDGE ( 'NONE', *, *, #386, .T. ) ;
#409 = CARTESIAN_POINT ( 'NONE',  ( 0.000000000000000000, 35.77711496867799923, 22.59367349790599988 ) ) ;
#410 = DIRECTION ( 'NONE',  ( 0.000000000000000000, 0.000000000000000000, 1.000000000000000000 ) ) ;
#411 = ORIENTED_EDGE ( 'NONE', *, *, #258, .T. ) ;
#412 = DIRECTION ( 'NONE',  ( 0.000000000000000000, 0.000000000000000000, 1.000000000000000000 ) ) ;
#413 = EDGE_CURVE ( 'NONE', #39, #632, #73, .T. ) ;
#414 = EDGE_CURVE ( 'NONE', #154, #214, #215, .T. ) ;
#415 = VERTEX_POINT ( 'NONE', #155 ) ;
#416 = VECTOR ( 'NONE', #410, 1000.000000000000000 ) ;
#417 = AXIS2_PLACEMENT_3D ( 'NONE', #269, #16, #277 ) ;
#418 = LINE ( 'NONE', #747, #614 ) ;
#419 = FILL_AREA_STYLE ('',( #91 ) ) ;
#420 = ORIENTED_EDGE ( 'NONE', *, *, #626, .F. ) ;
#421 = PRODUCT_DEFINITION_CONTEXT ( 'detailed design', #305, 'design' ) ;
#422 = CARTESIAN_POINT ( 'NONE',  ( 0.000000000000000000, 0.000000000000000000, 0.000000000000000000 ) ) ;
#423 = FACE_OUTER_BOUND ( 'NONE', #757, .T. ) ;
#424 = EDGE_LOOP ( 'NONE', ( #221, #362, #748, #459 ) ) ;
#425 = LINE ( 'NONE', #622, #244 ) ;
#426 = CARTESIAN_POINT ( 'NONE',  ( 51.10205672986799641, 0.000000000000000000, 22.59367349790599988 ) ) ;
#427 = ORIENTED_EDGE ( 'NONE', *, *, #690, .F. ) ;
#428 = LINE ( 'NONE', #691, #75 ) ;
#429 = VECTOR ( 'NONE', #800, 1000.000000000000000 ) ;
#430 = ADVANCED_FACE ( 'NONE', ( #483 ), #602, .T. ) ;
#431 = FACE_BOUND ( 'NONE', #436, .T. ) ;
#432 = DIRECTION ( 'NONE',  ( 1.000000000000000000, 0.000000000000000000, 0.000000000000000000 ) ) ;
#433 = EDGE_LOOP ( 'NONE', ( #617, #434, #484, #498 ) ) ;
#434 = ORIENTED_EDGE ( 'NONE', *, *, #293, .F. ) ;
#435 = DIRECTION ( 'NONE',  ( 1.000000000000000000, 0.000000000000000000, 0.000000000000000000 ) ) ;
#436 = EDGE_LOOP ( 'NONE', ( #44, #356, #349, #645 ) ) ;
#437 = EDGE_CURVE ( 'NONE', #443, #517, #418, .T. ) ;
#438 = CARTESIAN_POINT ( 'NONE',  ( 38.64913068571799926, 0.000000000000000000, 22.59367349790599988 ) ) ;
#439 = LINE ( 'NONE', #309, #570 ) ;
#440 = AXIS2_PLACEMENT_3D ( 'NONE', #407, #458, #260 ) ;
#441 = AXIS2_PLACEMENT_3D ( 'NONE', #31, #160, #90 ) ;
#442 = VECTOR ( 'NONE', #507, 1000.000000000000000 ) ;
#443 = VERTEX_POINT ( 'NONE', #611 ) ;
#444 = CARTESIAN_POINT ( 'NONE',  ( 47.73258535595599739, 17.85826222096400073, 16.00339959103200371 ) ) ;
#445 = EDGE_LOOP ( 'NONE', ( #365, #492, #499, #271 ) ) ;
#446 = EDGE_LOOP ( 'NONE', ( #564, #12, #101, #312 ) ) ;
#447 = CARTESIAN_POINT ( 'NONE',  ( 16.76859235090400091, 0.000000000000000000, 13.66963892488599974 ) ) ;
#448 = EDGE_CURVE ( 'NONE', #15, #654, #479, .T. ) ;
#449 = LINE ( 'NONE', #325, #193 ) ;
#450 = EDGE_CURVE ( 'NONE', #517, #771, #343, .T. ) ;
#451 = CARTESIAN_POINT ( 'NONE',  ( 28.27280767401600414, 13.49946654933800083, 22.59367349790599988 ) ) ;
#452 = ORIENTED_EDGE ( 'NONE', *, *, #105, .T. ) ;
#453 = CARTESIAN_POINT ( 'NONE',  ( 30.26683293945599829, 13.34498923453699959, 22.59367349790599988 ) ) ;
#454 = CARTESIAN_POINT ( 'NONE',  ( 47.73258535595599739, 15.85826222096399896, 22.59367349790599988 ) ) ;
#455 = ADVANCED_FACE ( 'NONE', ( #78 ), #4, .F. ) ;
#456 = VECTOR ( 'NONE', #66, 1000.000000000000000 ) ;
#457 = APPLICATION_CONTEXT ( 'automotive_design' ) ;
#458 = DIRECTION ( 'NONE',  ( -1.000000000000000000, 0.000000000000000000, 0.000000000000000000 ) ) ;
#459 = ORIENTED_EDGE ( 'NONE', *, *, #147, .F. ) ;
#460 = CARTESIAN_POINT ( 'NONE',  ( 46.73646927460099931, 35.77711496867799923, 0.000000000000000000 ) ) ;
#461 = FACE_OUTER_BOUND ( 'NONE', #140, .T. ) ;
#462 = ORIENTED_EDGE ( 'NONE', *, *, #812, .T. ) ;
#463 =( NAMED_UNIT ( * ) SI_UNIT ( $, .STERADIAN. ) SOLID_ANGLE_UNIT ( ) );
#464 = DIRECTION ( 'NONE',  ( 0.000000000000000000, 0.000000000000000000, -1.000000000000000000 ) ) ;
#465 = DIRECTION ( 'NONE',  ( 0.000000000000000000, 0.000000000000000000, 1.000000000000000000 ) ) ;
#466 = EDGE_CURVE ( 'NONE', #342, #517, #9, .T. ) ;
#467 = EDGE_LOOP ( 'NONE', ( #575, #337, #634, #774, #798, #833, #522, #411, #179 ) ) ;
#468 = APPLICATION_PROTOCOL_DEFINITION ( 'draft international standard', 'automotive_design', 1998, #305 ) ;
#469 = CARTESIAN_POINT ( 'NONE',  ( 42.68077307622100136, 17.19893254692600237, 22.59367349790599988 ) ) ;
#470 = COLOUR_RGB ( '',0.7921568627450980005, 0.8196078431372548767, 0.9333333333333333481 ) ;
#471 = DIRECTION ( 'NONE',  ( 0.9970126327198463034, -0.07723865740055810281, 0.000000000000000000 ) ) ;
#472 = AXIS2_PLACEMENT_3D ( 'NONE', #324, #640, #47 ) ;
#473 = ORIENTED_EDGE ( 'NONE', *, *, #386, .F. ) ;
#474 = CARTESIAN_POINT ( 'NONE',  ( 27.20886151831100008, 10.44026916740699917, 13.66963892488599974 ) ) ;
#475 = DIRECTION ( 'NONE',  ( 0.000000000000000000, 1.000000000000000000, 0.000000000000000000 ) ) ;
#476 = CARTESIAN_POINT ( 'NONE',  ( 49.73258535595599739, 17.85826222096400073, 22.59367349790599988 ) ) ;
#477 = ORIENTED_EDGE ( 'NONE', *, *, #635, .T. ) ;
#478 = EDGE_CURVE ( 'NONE', #545, #527, #86, .T. ) ;
#479 = LINE ( 'NONE', #329, #555 ) ;
#480 = ADVANCED_FACE ( 'NONE', ( #199 ), #529, .F. ) ;
#481 = PRESENTATION_STYLE_ASSIGNMENT (( #549 ) ) ;
#482 = VERTEX_POINT ( 'NONE', #339 ) ;
#483 = FACE_OUTER_BOUND ( 'NONE', #285, .T. ) ;
#484 = ORIENTED_EDGE ( 'NONE', *, *, #384, .F. ) ;
#485 = VECTOR ( 'NONE', #574, 1000.000000000000227 ) ;
#486 = DIRECTION ( 'NONE',  ( 0.000000000000000000, 0.000000000000000000, 1.000000000000000000 ) ) ;
#487 = AXIS2_PLACEMENT_3D ( 'NONE', #618, #412, #338 ) ;
#488 = CARTESIAN_POINT ( 'NONE',  ( 49.73258535595599739, 17.85826222096400073, 16.00339959103200371 ) ) ;
#489 = VERTEX_POINT ( 'NONE', #469 ) ;
#490 = LINE ( 'NONE', #40, #630 ) ;
#491 = PLANE ( 'NONE',  #612 ) ;
#492 = ORIENTED_EDGE ( 'NONE', *, *, #185, .T. ) ;
#493 = EDGE_CURVE ( 'NONE', #58, #734, #725, .T. ) ;
#494 = DIRECTION ( 'NONE',  ( 0.000000000000000000, 0.000000000000000000, -1.000000000000000000 ) ) ;
#495 = ORIENTED_EDGE ( 'NONE', *, *, #413, .T. ) ;
#496 = AXIS2_PLACEMENT_3D ( 'NONE', #7, #534, #722 ) ;
#497 = LINE ( 'NONE', #170, #46 ) ;
#498 = ORIENTED_EDGE ( 'NONE', *, *, #584, .F. ) ;
#499 = ORIENTED_EDGE ( 'NONE', *, *, #171, .F. ) ;
#500 = CARTESIAN_POINT ( 'NONE',  ( 39.35291394341800242, 11.15728124236100172, 22.59367349790599988 ) ) ;
#501 = EDGE_CURVE ( 'NONE', #275, #303, #735, .T. ) ;
#502 = FACE_OUTER_BOUND ( 'NONE', #256, .T. ) ;
#503 = ORIENTED_EDGE ( 'NONE', *, *, #788, .T. ) ;
#504 = LINE ( 'NONE', #777, #35 ) ;
#505 = LINE ( 'NONE', #773, #231 ) ;
#506 = ORIENTED_EDGE ( 'NONE', *, *, #607, .F. ) ;
#507 = DIRECTION ( 'NONE',  ( -1.000000000000000000, 0.000000000000000000, 0.000000000000000000 ) ) ;
#508 = AXIS2_PLACEMENT_3D ( 'NONE', #306, #552, #620 ) ;
#509 = CARTESIAN_POINT ( 'NONE',  ( 0.000000000000000000, 35.77711496867799923, 4.730057294822999303 ) ) ;
#510 = VECTOR ( 'NONE', #761, 1000.000000000000000 ) ;
#511 = LINE ( 'NONE', #311, #554 ) ;
#512 = EDGE_CURVE ( 'NONE', #527, #708, #138, .T. ) ;
#513 = VERTEX_POINT ( 'NONE', #811 ) ;
#514 = CARTESIAN_POINT ( 'NONE',  ( 0.000000000000000000, 0.000000000000000000, 0.000000000000000000 ) ) ;
#515 = LINE ( 'NONE', #454, #685 ) ;
#516 = DIRECTION ( 'NONE',  ( 0.000000000000000000, 0.000000000000000000, 1.000000000000000000 ) ) ;
#517 = VERTEX_POINT ( 'NONE', #409 ) ;
#518 = LINE ( 'NONE', #55, #686 ) ;
#519 = EDGE_CURVE ( 'NONE', #771, #621, #807, .T. ) ;
#520 = DIRECTION ( 'NONE',  ( 1.000000000000000000, 0.000000000000000000, 0.000000000000000000 ) ) ;
#521 = DIRECTION ( 'NONE',  ( 0.000000000000000000, 0.000000000000000000, -1.000000000000000000 ) ) ;
#522 = ORIENTED_EDGE ( 'NONE', *, *, #10, .T. ) ;
#523 = DIRECTION ( 'NONE',  ( 0.000000000000000000, 1.000000000000000000, 0.000000000000000000 ) ) ;
#524 = CARTESIAN_POINT ( 'NONE',  ( 49.73258535595599739, 15.85826222096399896, 22.59367349790599988 ) ) ;
#525 = MECHANICAL_DESIGN_GEOMETRIC_PRESENTATION_REPRESENTATION (  '', ( #32 ), #261 ) ;
#526 = CARTESIAN_POINT ( 'NONE',  ( 31.61655607908999599, 15.41861773392300172, 10.67745602926599879 ) ) ;
#527 = VERTEX_POINT ( 'NONE', #24 ) ;
#528 = LINE ( 'NONE', #605, #599 ) ;
#529 = PLANE ( 'NONE',  #778 ) ;
#530 = ADVANCED_FACE ( 'NONE', ( #749 ), #803, .T. ) ;
#531 = CARTESIAN_POINT ( 'NONE',  ( 42.68077307622100136, 17.19893254692600237, 10.67745602926599879 ) ) ;
#532 = ORIENTED_EDGE ( 'NONE', *, *, #478, .F. ) ;
#533 = DIRECTION ( 'NONE',  ( 1.000000000000000000, 0.000000000000000000, 0.000000000000000000 ) ) ;
#534 = DIRECTION ( 'NONE',  ( -0.000000000000000000, 1.000000000000000000, 0.000000000000000000 ) ) ;
#535 = ORIENTED_EDGE ( 'NONE', *, *, #437, .T. ) ;
#536 = DIRECTION ( 'NONE',  ( -1.000000000000000000, 0.000000000000000000, 0.000000000000000000 ) ) ;
#537 = VECTOR ( 'NONE', #756, 1000.000000000000000 ) ;
#538 = DIRECTION ( 'NONE',  ( 0.7071067811865475727, 0.7071067811865475727, 0.000000000000000000 ) ) ;
#539 = ADVANCED_FACE ( 'NONE', ( #680 ), #212, .F. ) ;
#540 = CIRCLE ( 'NONE', #371, 10.44026916740699917 ) ;
#541 = ORIENTED_EDGE ( 'NONE', *, *, #664, .T. ) ;
#542 = ADVANCED_FACE ( 'NONE', ( #823 ), #366, .F. ) ;
#543 = CARTESIAN_POINT ( 'NONE',  ( 46.73646927460099931, 35.77711496867799923, 0.000000000000000000 ) ) ;
#544 = CARTESIAN_POINT ( 'NONE',  ( 16.76859235090400091, 6.392821110549000264E-16, 22.59367349790599988 ) ) ;
#545 = VERTEX_POINT ( 'NONE', #818 ) ;
#546 = CARTESIAN_POINT ( 'NONE',  ( 0.000000000000000000, 0.000000000000000000, 0.000000000000000000 ) ) ;
#547 = DIRECTION ( 'NONE',  ( 0.000000000000000000, 0.000000000000000000, 1.000000000000000000 ) ) ;
#548 = EDGE_CURVE ( 'NONE', #649, #332, #597, .T. ) ;
#549 = SURFACE_STYLE_USAGE ( .BOTH. , #684 ) ;
#550 = VERTEX_POINT ( 'NONE', #167 ) ;
#551 = LINE ( 'NONE', #758, #510 ) ;
#552 = DIRECTION ( 'NONE',  ( 0.000000000000000000, 0.000000000000000000, 1.000000000000000000 ) ) ;
#553 = ORIENTED_EDGE ( 'NONE', *, *, #615, .F. ) ;
#554 = VECTOR ( 'NONE', #118, 1000.000000000000000 ) ;
#555 = VECTOR ( 'NONE', #400, 1000.000000000000114 ) ;
#556 = CARTESIAN_POINT ( 'NONE',  ( 38.64913068571799926, 0.000000000000000000, 13.66963892488599974 ) ) ;
#557 = VECTOR ( 'NONE', #523, 1000.000000000000000 ) ;
#558 = DIRECTION ( 'NONE',  ( 0.9970126327198463034, -0.07723865740055810281, 0.000000000000000000 ) ) ;
#559 = EDGE_CURVE ( 'NONE', #654, #705, #428, .T. ) ;
#560 = ORIENTED_EDGE ( 'NONE', *, *, #676, .F. ) ;
#561 = CARTESIAN_POINT ( 'NONE',  ( 46.73646927460099931, 35.77711496867799923, 4.730057294822999303 ) ) ;
#562 = ORIENTED_EDGE ( 'NONE', *, *, #246, .F. ) ;
#563 = DIRECTION ( 'NONE',  ( 0.000000000000000000, 0.000000000000000000, -1.000000000000000000 ) ) ;
#564 = ORIENTED_EDGE ( 'NONE', *, *, #28, .T. ) ;
#565 = EDGE_CURVE ( 'NONE', #342, #734, #551, .T. ) ;
#566 = CIRCLE ( 'NONE', #440, 4.730057294822999303 ) ;
#567 = EDGE_LOOP ( 'NONE', ( #368, #768, #80, #562 ) ) ;
#568 = LINE ( 'NONE', #827, #168 ) ;
#569 = EDGE_CURVE ( 'NONE', #734, #353, #225, .T. ) ;
#570 = VECTOR ( 'NONE', #724, 1000.000000000000000 ) ;
#571 = ORIENTED_EDGE ( 'NONE', *, *, #700, .F. ) ;
#572 = ORIENTED_EDGE ( 'NONE', *, *, #207, .T. ) ;
#573 = CARTESIAN_POINT ( 'NONE',  ( 51.10205672986799641, 33.31902725793599984, 0.000000000000000000 ) ) ;
#574 = DIRECTION ( 'NONE',  ( -0.8759126426017147526, 0.4824697322428428969, 0.000000000000000000 ) ) ;
#575 = ORIENTED_EDGE ( 'NONE', *, *, #450, .F. ) ;
#576 = CARTESIAN_POINT ( 'NONE',  ( 48.73258535595599739, 16.85826222096400073, 16.00339959103200371 ) ) ;
#577 = PLANE ( 'NONE',  #113 ) ;
#578 = VERTEX_POINT ( 'NONE', #96 ) ;
#579 = EDGE_LOOP ( 'NONE', ( #403, #112, #188, #390 ) ) ;
#580 = LINE ( 'NONE', #453, #301 ) ;
#581 = DIRECTION ( 'NONE',  ( 1.000000000000000000, 0.000000000000000000, 3.298473053670000071E-31 ) ) ;
#582 = AXIS2_PLACEMENT_3D ( 'NONE', #354, #294, #625 ) ;
#583 = EDGE_LOOP ( 'NONE', ( #162, #660, #137, #248, #95, #769 ) ) ;
#584 = EDGE_CURVE ( 'NONE', #678, #489, #490, .T. ) ;
#585 = ORIENTED_EDGE ( 'NONE', *, *, #501, .F. ) ;
#586 = PLANE ( 'NONE',  #100 ) ;
#587 = CARTESIAN_POINT ( 'NONE',  ( 49.73258535595599739, 17.85826222096400073, 22.59367349790599988 ) ) ;
#588 = DIRECTION ( 'NONE',  ( 1.000000000000000000, 0.000000000000000000, 0.000000000000000000 ) ) ;
#589 = ORIENTED_EDGE ( 'NONE', *, *, #466, .F. ) ;
#590 = LINE ( 'NONE', #723, #557 ) ;
#591 = DIRECTION ( 'NONE',  ( 0.07723865740055811668, 0.9970126327198464145, 0.000000000000000000 ) ) ;
#592 = CARTESIAN_POINT ( 'NONE',  ( 49.87301287449700027, 34.54807111330700309, 0.000000000000000000 ) ) ;
#593 = VERTEX_POINT ( 'NONE', #698 ) ;
#594 = FACE_OUTER_BOUND ( 'NONE', #629, .T. ) ;
#595 = DIRECTION ( 'NONE',  ( 1.000000000000000000, 0.000000000000000000, 0.000000000000000000 ) ) ;
#596 = EDGE_CURVE ( 'NONE', #415, #705, #425, .T. ) ;
#597 = CIRCLE ( 'NONE', #441, 10.44026916740699917 ) ;
#598 = FACE_OUTER_BOUND ( 'NONE', #372, .T. ) ;
#599 = VECTOR ( 'NONE', #333, 1000.000000000000000 ) ;
#600 = ORIENTED_EDGE ( 'NONE', *, *, #322, .F. ) ;
#601 = DIRECTION ( 'NONE',  ( 0.000000000000000000, 0.000000000000000000, 1.000000000000000000 ) ) ;
#602 = PLANE ( 'NONE',  #641 ) ;
#603 = CARTESIAN_POINT ( 'NONE',  ( 30.11235562465400406, 11.35096396909699834, 22.59367349790599988 ) ) ;
#604 = ORIENTED_EDGE ( 'NONE', *, *, #172, .F. ) ;
#605 = CARTESIAN_POINT ( 'NONE',  ( 28.20886151831100008, 10.44026916740699917, 13.66963892488599974 ) ) ;
#606 = CARTESIAN_POINT ( 'NONE',  ( 51.10205672986799641, 0.000000000000000000, 0.000000000000000000 ) ) ;
#607 = EDGE_CURVE ( 'NONE', #632, #513, #358, .T. ) ;
#608 = LINE ( 'NONE', #153, #98 ) ;
#609 = ADVANCED_FACE ( 'NONE', ( #228 ), #631, .F. ) ;
#610 = ORIENTED_EDGE ( 'NONE', *, *, #258, .F. ) ;
#611 = CARTESIAN_POINT ( 'NONE',  ( 0.000000000000000000, 0.000000000000000000, 22.59367349790599988 ) ) ;
#612 = AXIS2_PLACEMENT_3D ( 'NONE', #344, #805, #695 ) ;
#613 = LINE ( 'NONE', #426, #315 ) ;
#614 = VECTOR ( 'NONE', #405, 1000.000000000000000 ) ;
#615 = EDGE_CURVE ( 'NONE', #697, #704, #37, .T. ) ;
#616 = VECTOR ( 'NONE', #249, 1000.000000000000000 ) ;
#617 = ORIENTED_EDGE ( 'NONE', *, *, #28, .F. ) ;
#618 = CARTESIAN_POINT ( 'NONE',  ( 0.000000000000000000, 0.000000000000000000, 0.000000000000000000 ) ) ;
#619 = DIRECTION ( 'NONE',  ( 0.7071067811865474617, -0.7071067811865474617, 0.000000000000000000 ) ) ;
#620 = DIRECTION ( 'NONE',  ( 1.000000000000000000, 0.000000000000000000, 0.000000000000000000 ) ) ;
#621 = VERTEX_POINT ( 'NONE', #290 ) ;
#622 = CARTESIAN_POINT ( 'NONE',  ( 28.27280767401600414, 13.49946654933800083, 5.477211394121000332 ) ) ;
#623 = CARTESIAN_POINT ( 'NONE',  ( 47.73258535595599739, 15.85826222096399896, 16.00339959103200371 ) ) ;
#624 = ORIENTED_EDGE ( 'NONE', *, *, #727, .F. ) ;
#625 = DIRECTION ( 'NONE',  ( 0.000000000000000000, 0.000000000000000000, -1.000000000000000000 ) ) ;
#626 = EDGE_CURVE ( 'NONE', #443, #194, #497, .T. ) ;
#627 = DIRECTION ( 'NONE',  ( 1.000000000000000000, 0.000000000000000000, 0.000000000000000000 ) ) ;
#628 = VECTOR ( 'NONE', #471, 1000.000000000000114 ) ;
#629 = EDGE_LOOP ( 'NONE', ( #462, #22, #532, #289, #297, #36, #280 ) ) ;
#630 = VECTOR ( 'NONE', #164, 1000.000000000000227 ) ;
#631 = PLANE ( 'NONE',  #582 ) ;
#632 = VERTEX_POINT ( 'NONE', #104 ) ;
#633 = DIRECTION ( 'NONE',  ( -1.000000000000000000, 0.000000000000000000, 0.000000000000000000 ) ) ;
#634 = ORIENTED_EDGE ( 'NONE', *, *, #626, .T. ) ;
#635 = EDGE_CURVE ( 'NONE', #697, #154, #821, .T. ) ;
#636 = LINE ( 'NONE', #219, #642 ) ;
#637 = ORIENTED_EDGE ( 'NONE', *, *, #478, .T. ) ;
#638 = PRODUCT_RELATED_PRODUCT_CATEGORY ( 'part', '', ( #121 ) ) ;
#639 = EDGE_LOOP ( 'NONE', ( #236, #122, #760, #166 ) ) ;
#640 = DIRECTION ( 'NONE',  ( 0.8759126426017148637, -0.4824697322428429525, 0.000000000000000000 ) ) ;
#641 = AXIS2_PLACEMENT_3D ( 'NONE', #606, #671, #675 ) ;
#642 = VECTOR ( 'NONE', #486, 1000.000000000000000 ) ;
#643 = CARTESIAN_POINT ( 'NONE',  ( 30.11235562465400406, 11.35096396909699834, 22.59367349790599988 ) ) ;
#644 = CARTESIAN_POINT ( 'NONE',  ( 46.73646927460099931, 33.82550211788200301, 1.951612850795999998 ) ) ;
#645 = ORIENTED_EDGE ( 'NONE', *, *, #786, .F. ) ;
#646 = CARTESIAN_POINT ( 'NONE',  ( 47.73258535595599739, 17.85826222096400073, 16.00339959103200371 ) ) ;
#647 = DIRECTION ( 'NONE',  ( 1.000000000000000000, 0.000000000000000000, 0.000000000000000000 ) ) ;
#648 = CARTESIAN_POINT ( 'NONE',  ( 31.61655607908999599, 15.41861773392300172, 22.59367349790599988 ) ) ;
#649 = VERTEX_POINT ( 'NONE', #556 ) ;
#650 = LINE ( 'NONE', #124, #264 ) ;
#651 = CARTESIAN_POINT ( 'NONE',  ( 27.20886151831100008, 10.44026916740699917, 22.59367349790599988 ) ) ;
#652 = PRODUCT_DEFINITION ( 'ๆ', '', #765, #421 ) ;
#653 = EDGE_LOOP ( 'NONE', ( #477, #838, #624, #553 ) ) ;
#654 = VERTEX_POINT ( 'NONE', #222 ) ;
#655 = CARTESIAN_POINT ( 'NONE',  ( 49.73258535595599739, 17.85826222096400073, 22.59367349790599988 ) ) ;
#656 = AXIS2_PLACEMENT_3D ( 'NONE', #644, #50, #516 ) ;
#657 = DIRECTION ( 'NONE',  ( -0.000000000000000000, 1.000000000000000000, 0.000000000000000000 ) ) ;
#658 = AXIS2_PLACEMENT_3D ( 'NONE', #715, #369, #382 ) ;
#659 = CARTESIAN_POINT ( 'NONE',  ( 51.10205672986799641, 0.000000000000000000, 22.59367349790599988 ) ) ;
#660 = ORIENTED_EDGE ( 'NONE', *, *, #569, .F. ) ;
#661 = LINE ( 'NONE', #782, #19 ) ;
#662 = CARTESIAN_POINT ( 'NONE',  ( 31.61655607908999599, 15.41861773392300172, 22.59367349790599988 ) ) ;
#663 = CARTESIAN_POINT ( 'NONE',  ( 27.20886151831100008, 0.000000000000000000, 22.59367349790599988 ) ) ;
#664 = EDGE_CURVE ( 'NONE', #527, #41, #636, .T. ) ;
#665 = ORIENTED_EDGE ( 'NONE', *, *, #48, .T. ) ;
#666 = DIRECTION ( 'NONE',  ( -0.8759126426017147526, 0.4824697322428428969, 0.000000000000000000 ) ) ;
#667 = CARTESIAN_POINT ( 'NONE',  ( 27.20886151831100008, 0.000000000000000000, 22.59367349790599988 ) ) ;
#668 = ORIENTED_EDGE ( 'NONE', *, *, #775, .T. ) ;
#669 = DIRECTION ( 'NONE',  ( 0.000000000000000000, 0.000000000000000000, -1.000000000000000000 ) ) ;
#670 = EDGE_CURVE ( 'NONE', #353, #58, #42, .T. ) ;
#671 = DIRECTION ( 'NONE',  ( 1.000000000000000000, 0.000000000000000000, 0.000000000000000000 ) ) ;
#672 = VECTOR ( 'NONE', #521, 1000.000000000000000 ) ;
#673 = DIRECTION ( 'NONE',  ( 0.000000000000000000, 0.000000000000000000, -1.000000000000000000 ) ) ;
#674 = ORIENTED_EDGE ( 'NONE', *, *, #596, .T. ) ;
#675 = DIRECTION ( 'NONE',  ( 0.000000000000000000, 1.000000000000000000, 0.000000000000000000 ) ) ;
#676 = EDGE_CURVE ( 'NONE', #545, #292, #568, .T. ) ;
#677 = CARTESIAN_POINT ( 'NONE',  ( 47.73258535595599739, 15.85826222096399896, 16.00339959103200371 ) ) ;
#678 = VERTEX_POINT ( 'NONE', #500 ) ;
#679 = APPLICATION_PROTOCOL_DEFINITION ( 'draft international standard', 'automotive_design', 1998, #457 ) ;
#680 = FACE_OUTER_BOUND ( 'NONE', #653, .T. ) ;
#681 = CARTESIAN_POINT ( 'NONE',  ( 28.20886151831100008, 0.000000000000000000, 22.59367349790599988 ) ) ;
#682 = EDGE_LOOP ( 'NONE', ( #665, #205, #604, #743 ) ) ;
#683 = DIRECTION ( 'NONE',  ( 0.000000000000000000, 0.000000000000000000, -1.000000000000000000 ) ) ;
#684 = SURFACE_SIDE_STYLE ('',( #692 ) ) ;
#685 = VECTOR ( 'NONE', #242, 1000.000000000000000 ) ;
#686 = VECTOR ( 'NONE', #313, 1000.000000000000114 ) ;
#687 = ORIENTED_EDGE ( 'NONE', *, *, #375, .F. ) ;
#688 = CARTESIAN_POINT ( 'NONE',  ( 0.000000000000000000, 35.77711496867799923, 22.59367349790599988 ) ) ;
#689 = ORIENTED_EDGE ( 'NONE', *, *, #815, .T. ) ;
#690 = EDGE_CURVE ( 'NONE', #829, #593, #540, .T. ) ;
#691 = CARTESIAN_POINT ( 'NONE',  ( 28.11833035921500112, 11.50544128389800136, 22.59367349790599988 ) ) ;
#692 = SURFACE_STYLE_FILL_AREA ( #419 ) ;
#693 = ORIENTED_EDGE ( 'NONE', *, *, #413, .F. ) ;
#694 = DIRECTION ( 'NONE',  ( 0.000000000000000000, 0.000000000000000000, -1.000000000000000000 ) ) ;
#695 = DIRECTION ( 'NONE',  ( 1.000000000000000000, 0.000000000000000000, 0.000000000000000000 ) ) ;
#696 = VECTOR ( 'NONE', #165, 1000.000000000000000 ) ;
#697 = VERTEX_POINT ( 'NONE', #61 ) ;
#698 = CARTESIAN_POINT ( 'NONE',  ( 16.76859235090400091, 6.392821110549000264E-16, 13.66963892488599974 ) ) ;
#699 = ADVANCED_FACE ( 'NONE', ( #391 ), #839, .F. ) ;
#700 = EDGE_CURVE ( 'NONE', #545, #443, #253, .T. ) ;
#701 = FACE_OUTER_BOUND ( 'NONE', #467, .T. ) ;
#702 = DIRECTION ( 'NONE',  ( 0.000000000000000000, 1.000000000000000000, 0.000000000000000000 ) ) ;
#703 = ADVANCED_FACE ( 'NONE', ( #830 ), #772, .F. ) ;
#704 = VERTEX_POINT ( 'NONE', #444 ) ;
#705 = VERTEX_POINT ( 'NONE', #304 ) ;
#706 = DIRECTION ( 'NONE',  ( 0.000000000000000000, 0.000000000000000000, 1.000000000000000000 ) ) ;
#707 = ADVANCED_BREP_SHAPE_REPRESENTATION ( '20260414_160844_72', ( #266, #247 ), #232 ) ;
#708 = VERTEX_POINT ( 'NONE', #573 ) ;
#709 = ORIENTED_EDGE ( 'NONE', *, *, #815, .F. ) ;
#710 = LINE ( 'NONE', #646, #157 ) ;
#711 = AXIS2_PLACEMENT_3D ( 'NONE', #476, #355, #627 ) ;
#712 = VECTOR ( 'NONE', #719, 1000.000000000000114 ) ;
#713 = CARTESIAN_POINT ( 'NONE',  ( 28.20886151831100008, 10.44026916740699917, 22.59367349790599988 ) ) ;
#714 = ORIENTED_EDGE ( 'NONE', *, *, #670, .T. ) ;
#715 = CARTESIAN_POINT ( 'NONE',  ( 34.94441521189300204, 21.46026903848799705, 22.59367349790599988 ) ) ;
#716 = EDGE_CURVE ( 'NONE', #380, #15, #580, .T. ) ;
#717 = CARTESIAN_POINT ( 'NONE',  ( 27.70886151831100008, 3.996125134834000558, 13.66963892488599974 ) ) ;
#718 = EDGE_LOOP ( 'NONE', ( #251, #395, #71, #381 ) ) ;
#719 = DIRECTION ( 'NONE',  ( 0.07723865740055810281, 0.9970126327198463034, 0.000000000000000000 ) ) ;
#720 = PRODUCT_DEFINITION_SHAPE ( 'NONE', 'NONE',  #652 ) ;
#721 = CARTESIAN_POINT ( 'NONE',  ( 30.26683293945599829, 13.34498923453699959, 22.59367349790599988 ) ) ;
#722 = DIRECTION ( 'NONE',  ( 1.000000000000000000, 0.000000000000000000, 0.000000000000000000 ) ) ;
#723 = CARTESIAN_POINT ( 'NONE',  ( 49.73258535595599739, 15.85826222096399896, 22.59367349790599988 ) ) ;
#724 = DIRECTION ( 'NONE',  ( 0.000000000000000000, 0.000000000000000000, -1.000000000000000000 ) ) ;
#725 = CIRCLE ( 'NONE', #262, 4.730057294822999303 ) ;
#726 = EDGE_CURVE ( 'NONE', #268, #649, #834, .T. ) ;
#727 = EDGE_CURVE ( 'NONE', #704, #281, #710, .T. ) ;
#728 = DIRECTION ( 'NONE',  ( 0.000000000000000000, 0.000000000000000000, -1.000000000000000000 ) ) ;
#729 = EDGE_LOOP ( 'NONE', ( #169, #150, #689, #674 ) ) ;
#730 = SHAPE_DEFINITION_REPRESENTATION ( #720, #707 ) ;
#731 = CARTESIAN_POINT ( 'NONE',  ( 42.68077307622100136, 17.19893254692600237, 22.59367349790599988 ) ) ;
#732 = LINE ( 'NONE', #451, #672 ) ;
#733 = EDGE_CURVE ( 'NONE', #214, #252, #590, .T. ) ;
#734 = VERTEX_POINT ( 'NONE', #848 ) ;
#735 = LINE ( 'NONE', #739, #804 ) ;
#736 = LINE ( 'NONE', #794, #763 ) ;
#737 = ORIENTED_EDGE ( 'NONE', *, *, #559, .T. ) ;
#738 = PRODUCT_CONTEXT ( 'NONE', #457, 'mechanical' ) ;
#739 = CARTESIAN_POINT ( 'NONE',  ( 30.11235562465400406, 11.35096396909699834, 5.477211394121000332 ) ) ;
#740 = VECTOR ( 'NONE', #819, 1000.000000000000000 ) ;
#741 = AXIS2_PLACEMENT_3D ( 'NONE', #81, #209, #744 ) ;
#742 = LINE ( 'NONE', #677, #127 ) ;
#743 = ORIENTED_EDGE ( 'NONE', *, *, #559, .F. ) ;
#744 = DIRECTION ( 'NONE',  ( 1.000000000000000000, 0.000000000000000000, 0.000000000000000000 ) ) ;
#745 = CARTESIAN_POINT ( 'NONE',  ( 49.73258535595599739, 15.85826222096399896, 22.59367349790599988 ) ) ;
#746 = EDGE_LOOP ( 'NONE', ( #54, #790, #506, #693 ) ) ;
#747 = CARTESIAN_POINT ( 'NONE',  ( 0.000000000000000000, 0.000000000000000000, 22.59367349790599988 ) ) ;
#748 = ORIENTED_EDGE ( 'NONE', *, *, #849, .F. ) ;
#749 = FACE_OUTER_BOUND ( 'NONE', #128, .T. ) ;
#750 = VECTOR ( 'NONE', #245, 1000.000000000000227 ) ;
#751 = DIRECTION ( 'NONE',  ( 0.000000000000000000, 0.000000000000000000, -1.000000000000000000 ) ) ;
#752 = EDGE_CURVE ( 'NONE', #678, #68, #661, .T. ) ;
#753 = VECTOR ( 'NONE', #286, 1000.000000000000000 ) ;
#754 = VERTEX_POINT ( 'NONE', #129 ) ;
#755 = CARTESIAN_POINT ( 'NONE',  ( 46.73646927460099931, 35.77711496867799923, 0.000000000000000000 ) ) ;
#756 = DIRECTION ( 'NONE',  ( -1.000000000000000000, 0.000000000000000000, 0.000000000000000000 ) ) ;
#757 = EDGE_LOOP ( 'NONE', ( #503, #211, #103, #687 ) ) ;
#758 = CARTESIAN_POINT ( 'NONE',  ( 0.000000000000000000, 35.77711496867799923, 4.730057294822999303 ) ) ;
#759 = LINE ( 'NONE', #745, #740 ) ;
#760 = ORIENTED_EDGE ( 'NONE', *, *, #548, .F. ) ;
#761 = DIRECTION ( 'NONE',  ( 1.000000000000000000, 0.000000000000000000, 0.000000000000000000 ) ) ;
#762 = EDGE_CURVE ( 'NONE', #353, #60, #51, .T. ) ;
#763 = VECTOR ( 'NONE', #63, 1000.000000000000000 ) ;
#764 = ORIENTED_EDGE ( 'NONE', *, *, #171, .T. ) ;
#765 = PRODUCT_DEFINITION_FORMATION_WITH_SPECIFIED_SOURCE ( 'ไป', '', #121, .NOT_KNOWN. ) ;
#766 = DIRECTION ( 'NONE',  ( -0.07723865740055810281, -0.9970126327198463034, 0.000000000000000000 ) ) ;
#767 = EDGE_CURVE ( 'NONE', #194, #593, #650, .T. ) ;
#768 = ORIENTED_EDGE ( 'NONE', *, *, #565, .T. ) ;
#769 = ORIENTED_EDGE ( 'NONE', *, *, #810, .F. ) ;
#770 = CARTESIAN_POINT ( 'NONE',  ( 27.20886151831100008, 0.000000000000000000, 13.66963892488599974 ) ) ;
#771 = VERTEX_POINT ( 'NONE', #65 ) ;
#772 = PLANE ( 'NONE',  #472 ) ;
#773 = CARTESIAN_POINT ( 'NONE',  ( 42.68077307622100136, 17.19893254692600237, 22.59367349790599988 ) ) ;
#774 = ORIENTED_EDGE ( 'NONE', *, *, #105, .F. ) ;
#775 = EDGE_CURVE ( 'NONE', #593, #649, #119, .T. ) ;
#776 = AXIS2_PLACEMENT_3D ( 'NONE', #1, #465, #267 ) ;
#777 = CARTESIAN_POINT ( 'NONE',  ( 48.64396901912600413, 35.77711496867799923, 0.000000000000000000 ) ) ;
#778 = AXIS2_PLACEMENT_3D ( 'NONE', #203, #148, #142 ) ;
#779 = DIRECTION ( 'NONE',  ( -3.298473053670000071E-31, -1.781692879685999823E-31, 1.000000000000000000 ) ) ;
#780 = ORIENTED_EDGE ( 'NONE', *, *, #727, .T. ) ;
#781 = ORIENTED_EDGE ( 'NONE', *, *, #812, .F. ) ;
#782 = CARTESIAN_POINT ( 'NONE',  ( 39.35291394341800242, 11.15728124236100172, 22.59367349790599988 ) ) ;
#783 = DIRECTION ( 'NONE',  ( 0.000000000000000000, 0.000000000000000000, -1.000000000000000000 ) ) ;
#784 = FACE_BOUND ( 'NONE', #433, .T. ) ;
#785 = CARTESIAN_POINT ( 'NONE',  ( 30.26683293945599829, 13.34498923453699959, 5.477211394121000332 ) ) ;
#786 = EDGE_CURVE ( 'NONE', #482, #380, #184, .T. ) ;
#787 = DIRECTION ( 'NONE',  ( -1.000000000000000000, 0.000000000000000000, 0.000000000000000000 ) ) ;
#788 = EDGE_CURVE ( 'NONE', #252, #697, #238, .T. ) ;
#789 = PLANE ( 'NONE',  #776 ) ;
#790 = ORIENTED_EDGE ( 'NONE', *, *, #340, .T. ) ;
#791 = DIRECTION ( 'NONE',  ( 0.000000000000000000, 0.000000000000000000, -1.000000000000000000 ) ) ;
#792 = LINE ( 'NONE', #651, #456 ) ;
#793 = ADVANCED_FACE ( 'NONE', ( #318 ), #586, .T. ) ;
#794 = CARTESIAN_POINT ( 'NONE',  ( 49.73258535595599739, 15.85826222096399896, 16.00339959103200371 ) ) ;
#795 = EDGE_LOOP ( 'NONE', ( #133, #806, #709, #237 ) ) ;
#796 = CARTESIAN_POINT ( 'NONE',  ( 47.73258535595599739, 15.85826222096399896, 22.59367349790599988 ) ) ;
#797 = CYLINDRICAL_SURFACE ( 'NONE', #243, 10.44026916740699917 ) ;
#798 = ORIENTED_EDGE ( 'NONE', *, *, #320, .F. ) ;
#799 = CARTESIAN_POINT ( 'NONE',  ( 47.73258535595599739, 15.85826222096399896, 22.59367349790599988 ) ) ;
#800 = DIRECTION ( 'NONE',  ( 1.000000000000000000, 0.000000000000000000, 0.000000000000000000 ) ) ;
#801 = DIRECTION ( 'NONE',  ( 0.9970126327198464145, -0.07723865740055811668, 0.000000000000000000 ) ) ;
#802 = ORIENTED_EDGE ( 'NONE', *, *, #10, .F. ) ;
#803 = PLANE ( 'NONE',  #741 ) ;
#804 = VECTOR ( 'NONE', #347, 1000.000000000000114 ) ;
#805 = DIRECTION ( 'NONE',  ( 0.000000000000000000, 0.000000000000000000, 1.000000000000000000 ) ) ;
#806 = ORIENTED_EDGE ( 'NONE', *, *, #74, .T. ) ;
#807 = LINE ( 'NONE', #273, #34 ) ;
#808 = CARTESIAN_POINT ( 'NONE',  ( 49.73258535595599739, 15.85826222096399896, 22.59367349790599988 ) ) ;
#809 = ORIENTED_EDGE ( 'NONE', *, *, #88, .T. ) ;
#810 = EDGE_CURVE ( 'NONE', #60, #771, #504, .T. ) ;
#811 = CARTESIAN_POINT ( 'NONE',  ( 31.61655607908999599, 15.41861773392300172, 10.67745602926599879 ) ) ;
#812 = EDGE_CURVE ( 'NONE', #60, #708, #518, .T. ) ;
#813 = ORIENTED_EDGE ( 'NONE', *, *, #607, .T. ) ;
#814 = CARTESIAN_POINT ( 'NONE',  ( 47.73258535595599739, 17.85826222096400073, 22.59367349790599988 ) ) ;
#815 = EDGE_CURVE ( 'NONE', #303, #415, #844, .T. ) ;
#816 = VECTOR ( 'NONE', #595, 1000.000000000000000 ) ;
#817 = ORIENTED_EDGE ( 'NONE', *, *, #786, .T. ) ;
#818 = CARTESIAN_POINT ( 'NONE',  ( 0.000000000000000000, 0.000000000000000000, 0.000000000000000000 ) ) ;
#819 = DIRECTION ( 'NONE',  ( 0.000000000000000000, 0.000000000000000000, -1.000000000000000000 ) ) ;
#820 = ORIENTED_EDGE ( 'NONE', *, *, #448, .T. ) ;
#821 = LINE ( 'NONE', #814, #753 ) ;
#822 = ORIENTED_EDGE ( 'NONE', *, *, #664, .F. ) ;
#823 = FACE_OUTER_BOUND ( 'NONE', #8, .T. ) ;
#824 = CIRCLE ( 'NONE', #287, 10.44026916740699917 ) ;
#825 = CARTESIAN_POINT ( 'NONE',  ( 28.27280767401600414, 13.49946654933800083, 22.59367349790599988 ) ) ;
#826 = ORIENTED_EDGE ( 'NONE', *, *, #690, .T. ) ;
#827 = CARTESIAN_POINT ( 'NONE',  ( 0.000000000000000000, 0.000000000000000000, 0.000000000000000000 ) ) ;
#828 = LINE ( 'NONE', #836, #357 ) ;
#829 = VERTEX_POINT ( 'NONE', #474 ) ;
#830 = FACE_OUTER_BOUND ( 'NONE', #579, .T. ) ;
#831 = DIRECTION ( 'NONE',  ( 0.000000000000000000, 0.000000000000000000, -1.000000000000000000 ) ) ;
#832 = ADVANCED_FACE ( 'NONE', ( #594 ), #3, .F. ) ;
#833 = ORIENTED_EDGE ( 'NONE', *, *, #201, .F. ) ;
#834 = LINE ( 'NONE', #438, #389 ) ;
#835 = DIRECTION ( 'NONE',  ( -1.000000000000000000, 0.000000000000000000, 0.000000000000000000 ) ) ;
#836 = CARTESIAN_POINT ( 'NONE',  ( 39.35291394341800242, 11.15728124236100172, 10.67745602926599879 ) ) ;
#837 = AXIS2_PLACEMENT_3D ( 'NONE', #11, #187, #321 ) ;
#838 = ORIENTED_EDGE ( 'NONE', *, *, #328, .T. ) ;
#839 = PLANE ( 'NONE',  #658 ) ;
#840 = FACE_OUTER_BOUND ( 'NONE', #795, .T. ) ;
#841 = FACE_BOUND ( 'NONE', #327, .T. ) ;
#842 = ADVANCED_FACE ( 'NONE', ( #146 ), #396, .F. ) ;
#843 = ORIENTED_EDGE ( 'NONE', *, *, #406, .F. ) ;
#844 = LINE ( 'NONE', #785, #334 ) ;
#845 = CARTESIAN_POINT ( 'NONE',  ( 0.000000000000000000, 35.77711496867799923, 0.000000000000000000 ) ) ;
#846 = PLANE ( 'NONE',  #385 ) ;
#847 = ORIENTED_EDGE ( 'NONE', *, *, #414, .F. ) ;
#848 = CARTESIAN_POINT ( 'NONE',  ( 46.73646927460099931, 35.77711496867799923, 4.730057294822999303 ) ) ;
#849 = EDGE_CURVE ( 'NONE', #332, #829, #528, .T. ) ;
#850 = DIRECTION ( 'NONE',  ( -0.4824697322428428969, -0.8759126426017147526, 0.000000000000000000 ) ) ;
ENDSEC;
END-ISO-10303-21;
