ISO-10303-21;
HEADER;
FILE_DESCRIPTION (( 'STEP AP214' ),
    '1' );
FILE_NAME ('20260414_160844_34.STEP',
    '2026-04-16T13:40:25',
    ( '' ),
    ( '' ),
    'SwSTEP 2.0',
    'SolidWorks 2025',
    '' );
FILE_SCHEMA (( 'AUTOMOTIVE_DESIGN' ));
ENDSEC;

DATA;
#1 = CARTESIAN_POINT ( 'NONE',  ( 79.94153530012999909, 54.17039231823600431, 6.921713334705000165 ) ) ;
#2 = VERTEX_POINT ( 'NONE', #342 ) ;
#3 = EDGE_CURVE ( 'NONE', #300, #155, #222, .T. ) ;
#4 = CARTESIAN_POINT ( 'NONE',  ( 0.000000000000000000, 9.741915729460998818, 3.867192889952999924 ) ) ;
#5 = ORIENTED_EDGE ( 'NONE', *, *, #3, .F. ) ;
#6 = DIRECTION ( 'NONE',  ( -1.000000000000000000, 0.000000000000000000, 0.000000000000000000 ) ) ;
#7 = CARTESIAN_POINT ( 'NONE',  ( 0.000000000000000000, 0.000000000000000000, 0.000000000000000000 ) ) ;
#8 = EDGE_LOOP ( 'NONE', ( #200, #524, #402, #414 ) ) ;
#9 = AXIS2_PLACEMENT_3D ( 'NONE', #726, #423, #656 ) ;
#10 = VECTOR ( 'NONE', #366, 1000.000000000000000 ) ;
#11 = VERTEX_POINT ( 'NONE', #578 ) ;
#12 = FACE_OUTER_BOUND ( 'NONE', #544, .T. ) ;
#13 = DIRECTION ( 'NONE',  ( 0.000000000000000000, 1.000000000000000000, 0.000000000000000000 ) ) ;
#14 = ORIENTED_EDGE ( 'NONE', *, *, #709, .T. ) ;
#15 = ORIENTED_EDGE ( 'NONE', *, *, #34, .F. ) ;
#16 = DIRECTION ( 'NONE',  ( 0.000000000000000000, 0.000000000000000000, -1.000000000000000000 ) ) ;
#17 = CARTESIAN_POINT ( 'NONE',  ( 0.000000000000000000, 8.741915729460998818, 3.867192889952999924 ) ) ;
#18 = EDGE_LOOP ( 'NONE', ( #224, #730, #719, #744 ) ) ;
#19 = CARTESIAN_POINT ( 'NONE',  ( 85.12304812808800136, 0.000000000000000000, 16.51739021408300090 ) ) ;
#20 = CARTESIAN_POINT ( 'NONE',  ( 74.55918542933399351, 54.17039231823600431, 13.62301713122900004 ) ) ;
#21 = EDGE_LOOP ( 'NONE', ( #436, #522, #766, #105 ) ) ;
#22 = CARTESIAN_POINT ( 'NONE',  ( 0.000000000000000000, 8.741915729460998818, 3.867192889952999924 ) ) ;
#23 = ADVANCED_FACE ( 'NONE', ( #338 ), #394, .T. ) ;
#24 = CLOSED_SHELL ( 'NONE', ( #375, #731, #428, #700, #629, #301, #204, #556, #574, #418, #466, #771, #238, #661, #188, #138, #74, #605, #520, #348, #325, #23, #393, #123 ) ) ;
#25 = AXIS2_PLACEMENT_3D ( 'NONE', #276, #580, #373 ) ;
#26 = DIRECTION ( 'NONE',  ( 0.000000000000000000, 1.000000000000000000, 0.000000000000000000 ) ) ;
#27 = CARTESIAN_POINT ( 'NONE',  ( 74.55918542933399351, 54.17039231823600431, 13.62301713122900004 ) ) ;
#28 = ORIENTED_EDGE ( 'NONE', *, *, #266, .F. ) ;
#29 = VERTEX_POINT ( 'NONE', #646 ) ;
#30 = CARTESIAN_POINT ( 'NONE',  ( 0.9272789789830000462, 43.43392827235499709, 16.51739021408300090 ) ) ;
#31 = ORIENTED_EDGE ( 'NONE', *, *, #247, .F. ) ;
#32 = FACE_OUTER_BOUND ( 'NONE', #331, .T. ) ;
#33 = FACE_OUTER_BOUND ( 'NONE', #684, .T. ) ;
#34 = EDGE_CURVE ( 'NONE', #110, #688, #755, .T. ) ;
#35 = SURFACE_SIDE_STYLE ('',( #673 ) ) ;
#36 = ORIENTED_EDGE ( 'NONE', *, *, #635, .F. ) ;
#37 = AXIS2_PLACEMENT_3D ( 'NONE', #630, #733, #87 ) ;
#38 = EDGE_CURVE ( 'NONE', #488, #530, #50, .T. ) ;
#39 = DIRECTION ( 'NONE',  ( -1.000000000000000000, 0.000000000000000000, 0.000000000000000000 ) ) ;
#40 = CARTESIAN_POINT ( 'NONE',  ( 0.000000000000000000, 54.17039231823600431, 0.000000000000000000 ) ) ;
#41 = CARTESIAN_POINT ( 'NONE',  ( 81.09128426010501300, 54.17039231823600431, 5.756294114852999577 ) ) ;
#42 = DIRECTION ( 'NONE',  ( 0.000000000000000000, 0.000000000000000000, -1.000000000000000000 ) ) ;
#43 = LINE ( 'NONE', #41, #49 ) ;
#44 = CARTESIAN_POINT ( 'NONE',  ( 0.000000000000000000, 8.741915729460998818, 2.867192889952999924 ) ) ;
#45 = EDGE_CURVE ( 'NONE', #228, #411, #43, .T. ) ;
#46 = ORIENTED_EDGE ( 'NONE', *, *, #635, .T. ) ;
#47 = CARTESIAN_POINT ( 'NONE',  ( 43.05167328038400143, 0.000000000000000000, -5.609111557260000325 ) ) ;
#48 = EDGE_CURVE ( 'NONE', #11, #303, #351, .T. ) ;
#49 = VECTOR ( 'NONE', #767, 1000.000000000000000 ) ;
#50 = LINE ( 'NONE', #216, #309 ) ;
#51 = CARTESIAN_POINT ( 'NONE',  ( 24.99890718732999773, 43.43392827235499709, 16.51739021408300090 ) ) ;
#52 = ORIENTED_EDGE ( 'NONE', *, *, #725, .T. ) ;
#53 = LINE ( 'NONE', #292, #664 ) ;
#54 = DIRECTION ( 'NONE',  ( 0.000000000000000000, 0.000000000000000000, -1.000000000000000000 ) ) ;
#55 = EDGE_CURVE ( 'NONE', #567, #272, #53, .T. ) ;
#56 = DIRECTION ( 'NONE',  ( 1.000000000000000000, 0.000000000000000000, 0.000000000000000000 ) ) ;
#57 = LINE ( 'NONE', #602, #107 ) ;
#58 = EDGE_CURVE ( 'NONE', #561, #618, #162, .T. ) ;
#59 = ORIENTED_EDGE ( 'NONE', *, *, #113, .T. ) ;
#60 = DIRECTION ( 'NONE',  ( -1.000000000000000000, 0.000000000000000000, 0.000000000000000000 ) ) ;
#61 = ORIENTED_EDGE ( 'NONE', *, *, #478, .T. ) ;
#62 = LINE ( 'NONE', #166, #565 ) ;
#63 = CARTESIAN_POINT ( 'NONE',  ( 62.80685971640899368, 52.51544457344699879, 16.51739021408300090 ) ) ;
#64 = ORIENTED_EDGE ( 'NONE', *, *, #274, .T. ) ;
#65 = EDGE_CURVE ( 'NONE', #347, #491, #278, .T. ) ;
#66 = CARTESIAN_POINT ( 'NONE',  ( 0.000000000000000000, 9.241915729461000595, 3.867192889952999924 ) ) ;
#67 = DIRECTION ( 'NONE',  ( 1.000000000000000000, 0.000000000000000000, 0.000000000000000000 ) ) ;
#68 = EDGE_LOOP ( 'NONE', ( #15, #637, #396, #198, #361, #46, #568, #773 ) ) ;
#69 = AXIS2_PLACEMENT_3D ( 'NONE', #284, #458, #406 ) ;
#70 = DIRECTION ( 'NONE',  ( -1.000000000000000000, 0.000000000000000000, 0.000000000000000000 ) ) ;
#71 = LINE ( 'NONE', #560, #676 ) ;
#72 = EDGE_LOOP ( 'NONE', ( #446, #715, #482, #697 ) ) ;
#73 = CARTESIAN_POINT ( 'NONE',  ( 65.34965139980300819, 48.67967379138399764, 0.000000000000000000 ) ) ;
#74 = ADVANCED_FACE ( 'NONE', ( #518 ), #594, .F. ) ;
#75 = PLANE ( 'NONE',  #759 ) ;
#76 = EDGE_LOOP ( 'NONE', ( #651, #237, #431, #622 ) ) ;
#77 = DIRECTION ( 'NONE',  ( 0.000000000000000000, 0.000000000000000000, -1.000000000000000000 ) ) ;
#78 = DIRECTION ( 'NONE',  ( 0.000000000000000000, 0.000000000000000000, -1.000000000000000000 ) ) ;
#79 =( NAMED_UNIT ( * ) PLANE_ANGLE_UNIT ( ) SI_UNIT ( $, .RADIAN. ) );
#80 = ORIENTED_EDGE ( 'NONE', *, *, #102, .F. ) ;
#81 = CYLINDRICAL_SURFACE ( 'NONE', #600, 2.894373082853999968 ) ;
#82 = VECTOR ( 'NONE', #147, 1000.000000000000000 ) ;
#83 = VECTOR ( 'NONE', #227, 1000.000000000000000 ) ;
#84 =( NAMED_UNIT ( * ) SI_UNIT ( $, .STERADIAN. ) SOLID_ANGLE_UNIT ( ) );
#85 = ORIENTED_EDGE ( 'NONE', *, *, #536, .T. ) ;
#86 = DIRECTION ( 'NONE',  ( -0.000000000000000000, 1.000000000000000000, 0.000000000000000000 ) ) ;
#87 = DIRECTION ( 'NONE',  ( 1.000000000000000000, 0.000000000000000000, 0.000000000000000000 ) ) ;
#88 = ORIENTED_EDGE ( 'NONE', *, *, #99, .F. ) ;
#89 = DIRECTION ( 'NONE',  ( -0.2806325558021185440, 0.000000000000000000, -0.9598152783864043469 ) ) ;
#90 = EDGE_CURVE ( 'NONE', #693, #151, #515, .T. ) ;
#91 = CARTESIAN_POINT ( 'NONE',  ( 79.94153530012999909, 54.17039231823600431, 6.921713334705000165 ) ) ;
#92 = DIRECTION ( 'NONE',  ( 1.000000000000000000, 0.000000000000000000, 0.000000000000000000 ) ) ;
#93 = CARTESIAN_POINT ( 'NONE',  ( 77.37543368356699602, 0.000000000000000000, -6.952602560957999778 ) ) ;
#94 = VECTOR ( 'NONE', #379, 1000.000000000000000 ) ;
#95 = AXIS2_PLACEMENT_3D ( 'NONE', #444, #550, #124 ) ;
#96 = EDGE_LOOP ( 'NONE', ( #256, #80, #285, #663, #289 ) ) ;
#97 = CARTESIAN_POINT ( 'NONE',  ( 62.80685971640899368, 52.51544457344699879, 16.51739021408300090 ) ) ;
#98 = CARTESIAN_POINT ( 'NONE',  ( 81.59638629503700713, 54.17039231823600431, 7.483836555127000523 ) ) ;
#99 = EDGE_CURVE ( 'NONE', #537, #548, #641, .T. ) ;
#100 = DIRECTION ( 'NONE',  ( 0.000000000000000000, 0.000000000000000000, -1.000000000000000000 ) ) ;
#101 = LINE ( 'NONE', #97, #232 ) ;
#102 = EDGE_CURVE ( 'NONE', #643, #29, #160, .T. ) ;
#103 = CARTESIAN_POINT ( 'NONE',  ( 31.40342985820500488, 48.67967379138399764, 0.000000000000000000 ) ) ;
#104 = CARTESIAN_POINT ( 'NONE',  ( 62.80685971640899368, 48.67967379138399764, 0.000000000000000000 ) ) ;
#105 = ORIENTED_EDGE ( 'NONE', *, *, #38, .F. ) ;
#106 = APPLICATION_CONTEXT ( 'automotive_design' ) ;
#107 = VECTOR ( 'NONE', #60, 1000.000000000000000 ) ;
#108 = DIRECTION ( 'NONE',  ( 0.000000000000000000, 1.000000000000000000, 0.000000000000000000 ) ) ;
#109 = DIRECTION ( 'NONE',  ( -1.000000000000000000, 0.000000000000000000, 0.000000000000000000 ) ) ;
#110 = VERTEX_POINT ( 'NONE', #305 ) ;
#111 = DIRECTION ( 'NONE',  ( 0.000000000000000000, -1.000000000000000000, 0.000000000000000000 ) ) ;
#112 = ORIENTED_EDGE ( 'NONE', *, *, #229, .F. ) ;
#113 = EDGE_CURVE ( 'NONE', #427, #252, #538, .T. ) ;
#114 = DIRECTION ( 'NONE',  ( 0.000000000000000000, -1.000000000000000000, 0.000000000000000000 ) ) ;
#115 = ORIENTED_EDGE ( 'NONE', *, *, #407, .T. ) ;
#116 = LINE ( 'NONE', #714, #722 ) ;
#117 = AXIS2_PLACEMENT_3D ( 'NONE', #547, #598, #542 ) ;
#118 = EDGE_LOOP ( 'NONE', ( #165, #760, #494, #249 ) ) ;
#119 = PLANE ( 'NONE',  #69 ) ;
#120 = CARTESIAN_POINT ( 'NONE',  ( 0.000000000000000000, 8.741915729460998818, 2.867192889952999924 ) ) ;
#121 = EDGE_CURVE ( 'NONE', #443, #693, #116, .T. ) ;
#122 = ORIENTED_EDGE ( 'NONE', *, *, #38, .T. ) ;
#123 = ADVANCED_FACE ( 'NONE', ( #426, #308 ), #302, .F. ) ;
#124 = DIRECTION ( 'NONE',  ( 1.000000000000000000, 0.000000000000000000, 0.000000000000000000 ) ) ;
#125 = DIRECTION ( 'NONE',  ( 0.000000000000000000, 0.000000000000000000, -1.000000000000000000 ) ) ;
#126 = ORIENTED_EDGE ( 'NONE', *, *, #102, .T. ) ;
#127 = DIRECTION ( 'NONE',  ( -1.000000000000000000, 0.000000000000000000, 0.000000000000000000 ) ) ;
#128 = CARTESIAN_POINT ( 'NONE',  ( 62.80685971640899368, 52.51544457344699879, 0.000000000000000000 ) ) ;
#129 = ORIENTED_EDGE ( 'NONE', *, *, #281, .T. ) ;
#130 = AXIS2_PLACEMENT_3D ( 'NONE', #481, #183, #597 ) ;
#131 = VECTOR ( 'NONE', #457, 1000.000000000000000 ) ;
#132 = EDGE_CURVE ( 'NONE', #300, #263, #242, .T. ) ;
#133 = VECTOR ( 'NONE', #468, 1000.000000000000000 ) ;
#134 = CARTESIAN_POINT ( 'NONE',  ( 52.93924214636700043, 9.241915729461000595, 3.867192889952999924 ) ) ;
#135 = LINE ( 'NONE', #262, #167 ) ;
#136 = ORIENTED_EDGE ( 'NONE', *, *, #640, .T. ) ;
#137 = DIRECTION ( 'NONE',  ( 1.000000000000000000, 0.000000000000000000, 0.000000000000000000 ) ) ;
#138 = ADVANCED_FACE ( 'NONE', ( #236 ), #419, .F. ) ;
#139 = ORIENTED_EDGE ( 'NONE', *, *, #501, .F. ) ;
#140 = ORIENTED_EDGE ( 'NONE', *, *, #478, .F. ) ;
#141 = DIRECTION ( 'NONE',  ( -0.7023046283791660738, 0.000000000000000000, 0.7118765405301690219 ) ) ;
#142 = PRESENTATION_STYLE_ASSIGNMENT (( #320 ) ) ;
#143 = ORIENTED_EDGE ( 'NONE', *, *, #415, .T. ) ;
#144 = CARTESIAN_POINT ( 'NONE',  ( 74.55918542933399351, 51.27601923538200168, 16.51739021408300090 ) ) ;
#145 = AXIS2_PLACEMENT_3D ( 'NONE', #7, #607, #13 ) ;
#146 = VECTOR ( 'NONE', #78, 1000.000000000000000 ) ;
#147 = DIRECTION ( 'NONE',  ( -1.000000000000000000, 0.000000000000000000, 0.000000000000000000 ) ) ;
#148 = ORIENTED_EDGE ( 'NONE', *, *, #531, .T. ) ;
#149 = LINE ( 'NONE', #335, #701 ) ;
#150 = EDGE_CURVE ( 'NONE', #537, #753, #669, .T. ) ;
#151 = VERTEX_POINT ( 'NONE', #63 ) ;
#152 = DIRECTION ( 'NONE',  ( 1.000000000000000000, 0.000000000000000000, 0.000000000000000000 ) ) ;
#153 = ORIENTED_EDGE ( 'NONE', *, *, #195, .F. ) ;
#154 = CARTESIAN_POINT ( 'NONE',  ( -1.110223024624999878E-16, 54.17039231823600431, 15.59011123510000019 ) ) ;
#155 = VERTEX_POINT ( 'NONE', #610 ) ;
#156 = DIRECTION ( 'NONE',  ( 1.000000000000000000, 0.000000000000000000, 0.000000000000000000 ) ) ;
#157 = AXIS2_PLACEMENT_3D ( 'NONE', #269, #258, #211 ) ;
#158 = AXIS2_PLACEMENT_3D ( 'NONE', #732, #127, #546 ) ;
#159 = EDGE_CURVE ( 'NONE', #693, #567, #479, .T. ) ;
#160 = LINE ( 'NONE', #400, #433 ) ;
#161 = CARTESIAN_POINT ( 'NONE',  ( 0.000000000000000000, 9.741915729460998818, 3.867192889952999924 ) ) ;
#162 = LINE ( 'NONE', #103, #349 ) ;
#163 = LINE ( 'NONE', #768, #273 ) ;
#164 = EDGE_LOOP ( 'NONE', ( #532, #378, #469, #112 ) ) ;
#165 = ORIENTED_EDGE ( 'NONE', *, *, #675, .T. ) ;
#166 = CARTESIAN_POINT ( 'NONE',  ( 81.09128426010501300, 54.17039231823600431, 5.756294114852999577 ) ) ;
#167 = VECTOR ( 'NONE', #566, 1000.000000000000000 ) ;
#168 = DIRECTION ( 'NONE',  ( 0.000000000000000000, 0.000000000000000000, -1.000000000000000000 ) ) ;
#169 = CARTESIAN_POINT ( 'NONE',  ( 85.12304812808800136, 0.000000000000000000, 16.51739021408300090 ) ) ;
#170 = ORIENTED_EDGE ( 'NONE', *, *, #159, .F. ) ;
#171 = EDGE_CURVE ( 'NONE', #658, #462, #662, .T. ) ;
#172 = CARTESIAN_POINT ( 'NONE',  ( 0.000000000000000000, 0.000000000000000000, 0.000000000000000000 ) ) ;
#173 = CARTESIAN_POINT ( 'NONE',  ( 62.80685971640899368, 26.25772228672299846, 0.000000000000000000 ) ) ;
#174 = ORIENTED_EDGE ( 'NONE', *, *, #55, .T. ) ;
#175 = CARTESIAN_POINT ( 'NONE',  ( 0.000000000000000000, 9.241915729461000595, 2.867192889952999924 ) ) ;
#176 = VERTEX_POINT ( 'NONE', #363 ) ;
#177 = EDGE_CURVE ( 'NONE', #272, #561, #487, .T. ) ;
#178 = PLANE ( 'NONE',  #9 ) ;
#179 = VECTOR ( 'NONE', #109, 1000.000000000000000 ) ;
#180 = ORIENTED_EDGE ( 'NONE', *, *, #253, .T. ) ;
#181 = AXIS2_PLACEMENT_3D ( 'NONE', #389, #341, #763 ) ;
#182 = CARTESIAN_POINT ( 'NONE',  ( 0.000000000000000000, 0.000000000000000000, 6.147842012770999176 ) ) ;
#183 = DIRECTION ( 'NONE',  ( 0.9598152783864043469, 0.000000000000000000, -0.2806325558021185440 ) ) ;
#184 = EDGE_LOOP ( 'NONE', ( #260, #364, #170, #649 ) ) ;
#185 = FACE_OUTER_BOUND ( 'NONE', #387, .T. ) ;
#186 = DIRECTION ( 'NONE',  ( 0.000000000000000000, 0.000000000000000000, 1.000000000000000000 ) ) ;
#187 = ORIENTED_EDGE ( 'NONE', *, *, #716, .F. ) ;
#188 = ADVANCED_FACE ( 'NONE', ( #358 ), #178, .F. ) ;
#189 = CARTESIAN_POINT ( 'NONE',  ( 81.09128426010501300, 54.17039231823600431, 5.756294114852999577 ) ) ;
#190 = DIRECTION ( 'NONE',  ( 0.000000000000000000, 0.000000000000000000, -1.000000000000000000 ) ) ;
#191 = VECTOR ( 'NONE', #334, 1000.000000000000114 ) ;
#192 = ORIENTED_EDGE ( 'NONE', *, *, #741, .T. ) ;
#193 = CIRCLE ( 'NONE', #713, 0.5000000000000000000 ) ;
#194 = LINE ( 'NONE', #328, #736 ) ;
#195 = EDGE_CURVE ( 'NONE', #528, #427, #57, .T. ) ;
#196 = DIRECTION ( 'NONE',  ( -0.7023046283791660738, 0.000000000000000000, 0.7118765405301690219 ) ) ;
#197 = FILL_AREA_STYLE ('',( #506 ) ) ;
#198 = ORIENTED_EDGE ( 'NONE', *, *, #415, .F. ) ;
#199 = PLANE ( 'NONE',  #525 ) ;
#200 = ORIENTED_EDGE ( 'NONE', *, *, #521, .T. ) ;
#201 = DIRECTION ( 'NONE',  ( 0.000000000000000000, 1.000000000000000000, 0.000000000000000000 ) ) ;
#202 = ORIENTED_EDGE ( 'NONE', *, *, #159, .T. ) ;
#203 = DIRECTION ( 'NONE',  ( 0.000000000000000000, 0.000000000000000000, 1.000000000000000000 ) ) ;
#204 = ADVANCED_FACE ( 'NONE', ( #239 ), #299, .F. ) ;
#205 = ORIENTED_EDGE ( 'NONE', *, *, #647, .T. ) ;
#206 = DIRECTION ( 'NONE',  ( 0.000000000000000000, 0.000000000000000000, 1.000000000000000000 ) ) ;
#207 = PRESENTATION_LAYER_ASSIGNMENT (  '', '', ( #231 ) ) ;
#208 = DIRECTION ( 'NONE',  ( 0.000000000000000000, 1.000000000000000000, 0.000000000000000000 ) ) ;
#209 = AXIS2_PLACEMENT_3D ( 'NONE', #576, #517, #696 ) ;
#210 = ORIENTED_EDGE ( 'NONE', *, *, #742, .T. ) ;
#211 = DIRECTION ( 'NONE',  ( 0.000000000000000000, 1.000000000000000000, 0.000000000000000000 ) ) ;
#212 =( LENGTH_UNIT ( ) NAMED_UNIT ( * ) SI_UNIT ( .MILLI., .METRE. ) );
#213 = PRODUCT ( '20260414_160844_34', '20260414_160844_34', '', ( #277 ) ) ;
#214 = DIRECTION ( 'NONE',  ( -1.000000000000000000, 0.000000000000000000, 0.000000000000000000 ) ) ;
#215 = EDGE_CURVE ( 'NONE', #151, #306, #552, .T. ) ;
#216 = CARTESIAN_POINT ( 'NONE',  ( -1.110223024624999878E-16, 43.43392827235499709, 15.59011123510000019 ) ) ;
#217 = LINE ( 'NONE', #704, #133 ) ;
#218 = ORIENTED_EDGE ( 'NONE', *, *, #438, .F. ) ;
#219 = DIRECTION ( 'NONE',  ( 1.000000000000000000, 0.000000000000000000, 0.000000000000000000 ) ) ;
#220 = VECTOR ( 'NONE', #152, 1000.000000000000000 ) ;
#221 = CIRCLE ( 'NONE', #526, 0.5000000000000000000 ) ;
#222 = LINE ( 'NONE', #91, #191 ) ;
#223 = DIRECTION ( 'NONE',  ( 1.000000000000000000, -1.594668301847000104E-28, -1.236817463954000109E-28 ) ) ;
#224 = ORIENTED_EDGE ( 'NONE', *, *, #132, .T. ) ;
#225 = ADVANCED_BREP_SHAPE_REPRESENTATION ( '20260414_160844_34', ( #250, #209 ), #691 ) ;
#226 = DIRECTION ( 'NONE',  ( 1.000000000000000000, 0.000000000000000000, 0.000000000000000000 ) ) ;
#227 = DIRECTION ( 'NONE',  ( 0.000000000000000000, 0.000000000000000000, -1.000000000000000000 ) ) ;
#228 = VERTEX_POINT ( 'NONE', #540 ) ;
#229 = EDGE_CURVE ( 'NONE', #511, #712, #666, .T. ) ;
#230 = ORIENTED_EDGE ( 'NONE', *, *, #215, .T. ) ;
#231 = STYLED_ITEM ( 'NONE', ( #142 ), #250 ) ;
#232 = VECTOR ( 'NONE', #42, 1000.000000000000000 ) ;
#233 = CARTESIAN_POINT ( 'NONE',  ( 0.000000000000000000, 0.000000000000000000, 16.51739021408300090 ) ) ;
#234 = AXIS2_PLACEMENT_3D ( 'NONE', #678, #137, #241 ) ;
#235 = VERTEX_POINT ( 'NONE', #295 ) ;
#236 = FACE_OUTER_BOUND ( 'NONE', #588, .T. ) ;
#237 = ORIENTED_EDGE ( 'NONE', *, *, #742, .F. ) ;
#238 = ADVANCED_FACE ( 'NONE', ( #535, #360 ), #770, .T. ) ;
#239 = FACE_OUTER_BOUND ( 'NONE', #76, .T. ) ;
#240 = ORIENTED_EDGE ( 'NONE', *, *, #121, .T. ) ;
#241 = DIRECTION ( 'NONE',  ( 0.000000000000000000, 0.000000000000000000, 1.000000000000000000 ) ) ;
#242 = LINE ( 'NONE', #1, #421 ) ;
#243 = AXIS2_PLACEMENT_3D ( 'NONE', #40, #388, #505 ) ;
#244 = EDGE_LOOP ( 'NONE', ( #420, #750, #192, #148 ) ) ;
#245 = CIRCLE ( 'NONE', #452, 0.9272789789830007123 ) ;
#246 = LINE ( 'NONE', #304, #601 ) ;
#247 = EDGE_CURVE ( 'NONE', #294, #530, #355, .T. ) ;
#248 = DIRECTION ( 'NONE',  ( 0.000000000000000000, 0.000000000000000000, -1.000000000000000000 ) ) ;
#249 = ORIENTED_EDGE ( 'NONE', *, *, #291, .T. ) ;
#250 = MANIFOLD_SOLID_BREP ( 'Open CASCADE STEP translator 7.5 5[1]', #24 ) ;
#251 = FACE_OUTER_BOUND ( 'NONE', #18, .T. ) ;
#252 = VERTEX_POINT ( 'NONE', #20 ) ;
#253 = EDGE_CURVE ( 'NONE', #303, #592, #367, .T. ) ;
#254 = CARTESIAN_POINT ( 'NONE',  ( 74.55918542933399351, 54.17039231823600431, 16.51739021408300090 ) ) ;
#255 = DIRECTION ( 'NONE',  ( 1.000000000000000000, 0.000000000000000000, 0.000000000000000000 ) ) ;
#256 = ORIENTED_EDGE ( 'NONE', *, *, #291, .F. ) ;
#257 = VECTOR ( 'NONE', #214, 1000.000000000000000 ) ;
#258 = DIRECTION ( 'NONE',  ( 1.000000000000000000, 0.000000000000000000, 0.000000000000000000 ) ) ;
#259 = VECTOR ( 'NONE', #682, 1000.000000000000000 ) ;
#260 = ORIENTED_EDGE ( 'NONE', *, *, #501, .T. ) ;
#261 = CARTESIAN_POINT ( 'NONE',  ( 85.12304812808800136, 54.17039231823600431, 13.62301713122900004 ) ) ;
#262 = CARTESIAN_POINT ( 'NONE',  ( 0.000000000000000000, 8.741915729460998818, 2.867192889952999924 ) ) ;
#263 = VERTEX_POINT ( 'NONE', #739 ) ;
#264 = CARTESIAN_POINT ( 'NONE',  ( 0.9272789789830000462, 43.43392827235499709, 16.51739021408300090 ) ) ;
#265 = EDGE_CURVE ( 'NONE', #548, #2, #569, .T. ) ;
#266 = EDGE_CURVE ( 'NONE', #511, #382, #135, .T. ) ;
#267 =( LENGTH_UNIT ( ) NAMED_UNIT ( * ) SI_UNIT ( .MILLI., .METRE. ) );
#268 = ORIENTED_EDGE ( 'NONE', *, *, #687, .T. ) ;
#269 = CARTESIAN_POINT ( 'NONE',  ( 65.34965139980300819, 48.67967379138399764, 16.51739021408300090 ) ) ;
#270 = APPLICATION_PROTOCOL_DEFINITION ( 'draft international standard', 'automotive_design', 1998, #106 ) ;
#271 = CARTESIAN_POINT ( 'NONE',  ( 0.000000000000000000, 54.17039231823600431, 0.000000000000000000 ) ) ;
#272 = VERTEX_POINT ( 'NONE', #128 ) ;
#273 = VECTOR ( 'NONE', #473, 1000.000000000000000 ) ;
#274 = EDGE_CURVE ( 'NONE', #753, #511, #193, .T. ) ;
#275 = DIRECTION ( 'NONE',  ( -1.000000000000000000, 0.000000000000000000, 0.000000000000000000 ) ) ;
#276 = CARTESIAN_POINT ( 'NONE',  ( 0.9272789789830000462, 54.17039231823600431, 15.59011123510000019 ) ) ;
#277 = PRODUCT_CONTEXT ( 'NONE', #499, 'mechanical' ) ;
#278 = LINE ( 'NONE', #345, #654 ) ;
#279 = CARTESIAN_POINT ( 'NONE',  ( 24.99890718732999773, 0.000000000000000000, 16.51739021408300090 ) ) ;
#280 = ORIENTED_EDGE ( 'NONE', *, *, #695, .T. ) ;
#281 = EDGE_CURVE ( 'NONE', #252, #688, #617, .T. ) ;
#282 = PLANE ( 'NONE',  #324 ) ;
#283 = VERTEX_POINT ( 'NONE', #30 ) ;
#284 = CARTESIAN_POINT ( 'NONE',  ( 0.000000000000000000, 0.000000000000000000, 0.000000000000000000 ) ) ;
#285 = ORIENTED_EDGE ( 'NONE', *, *, #562, .T. ) ;
#286 = DIRECTION ( 'NONE',  ( 1.000000000000000000, 0.000000000000000000, 0.000000000000000000 ) ) ;
#287 = AXIS2_PLACEMENT_3D ( 'NONE', #583, #223, #652 ) ;
#288 = VECTOR ( 'NONE', #89, 1000.000000000000114 ) ;
#289 = ORIENTED_EDGE ( 'NONE', *, *, #312, .T. ) ;
#290 = CARTESIAN_POINT ( 'NONE',  ( 65.34965139980300819, 48.67967379138399764, 16.51739021408300090 ) ) ;
#291 = EDGE_CURVE ( 'NONE', #29, #614, #503, .T. ) ;
#292 = CARTESIAN_POINT ( 'NONE',  ( 32.67482569990200147, 52.51544457344699879, 0.000000000000000000 ) ) ;
#293 = CARTESIAN_POINT ( 'NONE',  ( 0.000000000000000000, 0.000000000000000000, 0.000000000000000000 ) ) ;
#294 = VERTEX_POINT ( 'NONE', #271 ) ;
#295 = CARTESIAN_POINT ( 'NONE',  ( 81.59638629503700713, 0.000000000000000000, 7.483836555127000523 ) ) ;
#296 = ORIENTED_EDGE ( 'NONE', *, *, #312, .F. ) ;
#297 = DIRECTION ( 'NONE',  ( 0.000000000000000000, 1.000000000000000000, 0.000000000000000000 ) ) ;
#298 = CIRCLE ( 'NONE', #25, 0.9272789789830007123 ) ;
#299 = PLANE ( 'NONE',  #130 ) ;
#300 = VERTEX_POINT ( 'NONE', #686 ) ;
#301 = ADVANCED_FACE ( 'NONE', ( #440 ), #386, .F. ) ;
#302 = PLANE ( 'NONE',  #145 ) ;
#303 = VERTEX_POINT ( 'NONE', #510 ) ;
#304 = CARTESIAN_POINT ( 'NONE',  ( 65.34965139980300819, 24.33983689569199882, 0.000000000000000000 ) ) ;
#305 = CARTESIAN_POINT ( 'NONE',  ( 0.9272789789830000462, 54.17039231823600431, 16.51739021408300090 ) ) ;
#306 = VERTEX_POINT ( 'NONE', #679 ) ;
#307 = LINE ( 'NONE', #425, #259 ) ;
#308 = FACE_OUTER_BOUND ( 'NONE', #480, .T. ) ;
#309 = VECTOR ( 'NONE', #765, 1000.000000000000000 ) ;
#310 = ORIENTED_EDGE ( 'NONE', *, *, #150, .F. ) ;
#311 = DIRECTION ( 'NONE',  ( 0.000000000000000000, -1.000000000000000000, 0.000000000000000000 ) ) ;
#312 = EDGE_CURVE ( 'NONE', #488, #614, #71, .T. ) ;
#313 = DIRECTION ( 'NONE',  ( 0.000000000000000000, 0.000000000000000000, -1.000000000000000000 ) ) ;
#314 = ORIENTED_EDGE ( 'NONE', *, *, #596, .F. ) ;
#315 = DIRECTION ( 'NONE',  ( 0.000000000000000000, 0.000000000000000000, 1.000000000000000000 ) ) ;
#316 = CARTESIAN_POINT ( 'NONE',  ( 0.000000000000000000, 0.000000000000000000, 0.000000000000000000 ) ) ;
#317 = EDGE_LOOP ( 'NONE', ( #369, #745, #558, #153 ) ) ;
#318 = ORIENTED_EDGE ( 'NONE', *, *, #754, .T. ) ;
#319 = FACE_OUTER_BOUND ( 'NONE', #611, .T. ) ;
#320 = SURFACE_STYLE_USAGE ( .BOTH. , #35 ) ;
#321 = ORIENTED_EDGE ( 'NONE', *, *, #472, .T. ) ;
#322 = EDGE_CURVE ( 'NONE', #382, #176, #557, .T. ) ;
#323 = VECTOR ( 'NONE', #330, 1000.000000000000000 ) ;
#324 = AXIS2_PLACEMENT_3D ( 'NONE', #589, #286, #639 ) ;
#325 = ADVANCED_FACE ( 'NONE', ( #683, #493 ), #75, .F. ) ;
#326 = DIRECTION ( 'NONE',  ( 0.000000000000000000, 0.000000000000000000, 1.000000000000000000 ) ) ;
#327 = ORIENTED_EDGE ( 'NONE', *, *, #365, .F. ) ;
#328 = CARTESIAN_POINT ( 'NONE',  ( 24.99890718732999773, 0.000000000000000000, 16.51739021408300090 ) ) ;
#329 = CARTESIAN_POINT ( 'NONE',  ( 0.000000000000000000, 0.000000000000000000, 0.000000000000000000 ) ) ;
#330 = DIRECTION ( 'NONE',  ( 0.000000000000000000, 0.000000000000000000, -1.000000000000000000 ) ) ;
#331 = EDGE_LOOP ( 'NONE', ( #202, #721, #359, #240 ) ) ;
#332 = PLANE ( 'NONE',  #157 ) ;
#333 = LINE ( 'NONE', #392, #626 ) ;
#334 = DIRECTION ( 'NONE',  ( 0.9468644513575137367, 0.000000000000000000, 0.3216328819561743435 ) ) ;
#335 = CARTESIAN_POINT ( 'NONE',  ( 62.80685971640899368, 48.67967379138399764, 16.51739021408300090 ) ) ;
#336 = VECTOR ( 'NONE', #114, 1000.000000000000000 ) ;
#337 = EDGE_CURVE ( 'NONE', #306, #443, #621, .T. ) ;
#338 = FACE_OUTER_BOUND ( 'NONE', #21, .T. ) ;
#339 = DIRECTION ( 'NONE',  ( 0.000000000000000000, 0.000000000000000000, 1.000000000000000000 ) ) ;
#340 = ORIENTED_EDGE ( 'NONE', *, *, #177, .T. ) ;
#341 = DIRECTION ( 'NONE',  ( -1.000000000000000000, 0.000000000000000000, 0.000000000000000000 ) ) ;
#342 = CARTESIAN_POINT ( 'NONE',  ( 52.93924214636700043, 9.741915729460998818, 2.867192889952999924 ) ) ;
#343 = CARTESIAN_POINT ( 'NONE',  ( 79.94153530012999909, 54.17039231823600431, 6.921713334705000165 ) ) ;
#344 = DIRECTION ( 'NONE',  ( 0.9468644513575137367, 0.000000000000000000, 0.3216328819561743435 ) ) ;
#345 = CARTESIAN_POINT ( 'NONE',  ( 0.000000000000000000, 0.000000000000000000, 16.51739021408300090 ) ) ;
#346 = CARTESIAN_POINT ( 'NONE',  ( 85.12304812808800136, 51.27601923538200168, 16.51739021408300090 ) ) ;
#347 = VERTEX_POINT ( 'NONE', #384 ) ;
#348 = ADVANCED_FACE ( 'NONE', ( #455 ), #199, .F. ) ;
#349 = VECTOR ( 'NONE', #471, 1000.000000000000000 ) ;
#350 = VECTOR ( 'NONE', #339, 1000.000000000000000 ) ;
#351 = LINE ( 'NONE', #708, #625 ) ;
#352 = CARTESIAN_POINT ( 'NONE',  ( 24.99890718732999773, 0.000000000000000000, 6.147842012770999176 ) ) ;
#353 = ORIENTED_EDGE ( 'NONE', *, *, #472, .F. ) ;
#354 = DIRECTION ( 'NONE',  ( 0.000000000000000000, -1.000000000000000000, 0.000000000000000000 ) ) ;
#355 = LINE ( 'NONE', #371, #397 ) ;
#356 = ORIENTED_EDGE ( 'NONE', *, *, #99, .T. ) ;
#357 = AXIS2_PLACEMENT_3D ( 'NONE', #66, #615, #672 ) ;
#358 = FACE_OUTER_BOUND ( 'NONE', #653, .T. ) ;
#359 = ORIENTED_EDGE ( 'NONE', *, *, #695, .F. ) ;
#360 = FACE_OUTER_BOUND ( 'NONE', #68, .T. ) ;
#361 = ORIENTED_EDGE ( 'NONE', *, *, #65, .T. ) ;
#362 = DIRECTION ( 'NONE',  ( 0.000000000000000000, 1.000000000000000000, 0.000000000000000000 ) ) ;
#363 = CARTESIAN_POINT ( 'NONE',  ( 52.93924214636700043, 8.741915729460998818, 3.867192889952999924 ) ) ;
#364 = ORIENTED_EDGE ( 'NONE', *, *, #55, .F. ) ;
#365 = EDGE_CURVE ( 'NONE', #306, #561, #149, .T. ) ;
#366 = DIRECTION ( 'NONE',  ( 0.000000000000000000, 1.000000000000000000, 0.000000000000000000 ) ) ;
#367 = LINE ( 'NONE', #434, #496 ) ;
#368 = VECTOR ( 'NONE', #186, 1000.000000000000000 ) ;
#369 = ORIENTED_EDGE ( 'NONE', *, *, #596, .T. ) ;
#370 = CARTESIAN_POINT ( 'NONE',  ( 24.99890718732999773, 43.43392827235499709, 16.51739021408300090 ) ) ;
#371 = CARTESIAN_POINT ( 'NONE',  ( 0.000000000000000000, 54.17039231823600431, 0.000000000000000000 ) ) ;
#372 = ORIENTED_EDGE ( 'NONE', *, *, #603, .F. ) ;
#373 = DIRECTION ( 'NONE',  ( 0.000000000000000000, 0.000000000000000000, 1.000000000000000000 ) ) ;
#374 = CARTESIAN_POINT ( 'NONE',  ( 0.9272789789830000462, 43.43392827235499709, 15.59011123510000019 ) ) ;
#375 = ADVANCED_FACE ( 'NONE', ( #572 ), #442, .T. ) ;
#376 = DIRECTION ( 'NONE',  ( 1.000000000000000000, 0.000000000000000000, 0.000000000000000000 ) ) ;
#377 = EDGE_CURVE ( 'NONE', #283, #110, #633, .T. ) ;
#378 = ORIENTED_EDGE ( 'NONE', *, *, #322, .T. ) ;
#379 = DIRECTION ( 'NONE',  ( 0.000000000000000000, 1.000000000000000000, 0.000000000000000000 ) ) ;
#380 = ORIENTED_EDGE ( 'NONE', *, *, #253, .F. ) ;
#381 = CARTESIAN_POINT ( 'NONE',  ( 65.34965139980300819, 52.51544457344699879, 0.000000000000000000 ) ) ;
#382 = VERTEX_POINT ( 'NONE', #22 ) ;
#383 = VECTOR ( 'NONE', #255, 1000.000000000000000 ) ;
#384 = CARTESIAN_POINT ( 'NONE',  ( 24.99890718732999773, 0.000000000000000000, 16.51739021408300090 ) ) ;
#385 = AXIS2_PLACEMENT_3D ( 'NONE', #453, #465, #208 ) ;
#386 = PLANE ( 'NONE',  #37 ) ;
#387 = EDGE_LOOP ( 'NONE', ( #205, #356, #692, #734 ) ) ;
#388 = DIRECTION ( 'NONE',  ( -0.000000000000000000, 1.000000000000000000, 0.000000000000000000 ) ) ;
#389 = CARTESIAN_POINT ( 'NONE',  ( 52.93924214636700043, 9.241915729461000595, 2.867192889952999924 ) ) ;
#390 = ORIENTED_EDGE ( 'NONE', *, *, #171, .F. ) ;
#391 = CARTESIAN_POINT ( 'NONE',  ( 52.93924214636700043, 8.741915729460998818, 2.867192889952999924 ) ) ;
#392 = CARTESIAN_POINT ( 'NONE',  ( 0.000000000000000000, 0.000000000000000000, 0.000000000000000000 ) ) ;
#393 = ADVANCED_FACE ( 'NONE', ( #451, #681 ), #748, .T. ) ;
#394 = CYLINDRICAL_SURFACE ( 'NONE', #475, 0.9272789789830000462 ) ;
#395 = CARTESIAN_POINT ( 'NONE',  ( 52.93924214636700043, 8.741915729460998818, 2.867192889952999924 ) ) ;
#396 = ORIENTED_EDGE ( 'NONE', *, *, #562, .F. ) ;
#397 = VECTOR ( 'NONE', #203, 1000.000000000000000 ) ;
#398 = VECTOR ( 'NONE', #6, 1000.000000000000000 ) ;
#399 = LINE ( 'NONE', #98, #665 ) ;
#400 = CARTESIAN_POINT ( 'NONE',  ( 24.99890718732999773, 43.43392827235499709, 16.51739021408300090 ) ) ;
#401 = CARTESIAN_POINT ( 'NONE',  ( 52.93924214636700043, 9.741915729460998818, 3.867192889952999924 ) ) ;
#402 = ORIENTED_EDGE ( 'NONE', *, *, #132, .F. ) ;
#403 = CARTESIAN_POINT ( 'NONE',  ( 0.000000000000000000, 9.741915729460998818, 2.867192889952999924 ) ) ;
#404 = CARTESIAN_POINT ( 'NONE',  ( 62.80685971640899368, 48.67967379138399764, 16.51739021408300090 ) ) ;
#405 = EDGE_LOOP ( 'NONE', ( #660, #310, #599, #28 ) ) ;
#406 = DIRECTION ( 'NONE',  ( 1.000000000000000000, 0.000000000000000000, 0.000000000000000000 ) ) ;
#407 = EDGE_CURVE ( 'NONE', #530, #110, #298, .T. ) ;
#408 = ORIENTED_EDGE ( 'NONE', *, *, #456, .F. ) ;
#409 = LINE ( 'NONE', #47, #514 ) ;
#410 = ORIENTED_EDGE ( 'NONE', *, *, #281, .F. ) ;
#411 = VERTEX_POINT ( 'NONE', #694 ) ;
#412 = DIRECTION ( 'NONE',  ( 0.000000000000000000, 0.000000000000000000, -1.000000000000000000 ) ) ;
#413 = FACE_BOUND ( 'NONE', #575, .T. ) ;
#414 = ORIENTED_EDGE ( 'NONE', *, *, #3, .T. ) ;
#415 = EDGE_CURVE ( 'NONE', #347, #643, #194, .T. ) ;
#416 = DIRECTION ( 'NONE',  ( 1.000000000000000000, 0.000000000000000000, 0.000000000000000000 ) ) ;
#417 = EDGE_LOOP ( 'NONE', ( #340, #424, #136, #174 ) ) ;
#418 = ADVANCED_FACE ( 'NONE', ( #437 ), #81, .F. ) ;
#419 = CYLINDRICAL_SURFACE ( 'NONE', #549, 0.5000000000000000000 ) ;
#420 = ORIENTED_EDGE ( 'NONE', *, *, #616, .T. ) ;
#421 = VECTOR ( 'NONE', #354, 1000.000000000000000 ) ;
#422 = AXIS2_PLACEMENT_3D ( 'NONE', #429, #502, #738 ) ;
#423 = DIRECTION ( 'NONE',  ( -0.000000000000000000, 1.000000000000000000, 0.000000000000000000 ) ) ;
#424 = ORIENTED_EDGE ( 'NONE', *, *, #58, .T. ) ;
#425 = CARTESIAN_POINT ( 'NONE',  ( 85.12304812808800136, 0.000000000000000000, 0.000000000000000000 ) ) ;
#426 = FACE_BOUND ( 'NONE', #405, .T. ) ;
#427 = VERTEX_POINT ( 'NONE', #144 ) ;
#428 = ADVANCED_FACE ( 'NONE', ( #32 ), #332, .F. ) ;
#429 = CARTESIAN_POINT ( 'NONE',  ( 0.000000000000000000, 9.241915729461000595, 3.867192889952999924 ) ) ;
#430 = CARTESIAN_POINT ( 'NONE',  ( 52.93924214636700043, 9.741915729460998818, 3.867192889952999924 ) ) ;
#431 = ORIENTED_EDGE ( 'NONE', *, *, #521, .F. ) ;
#432 = DIRECTION ( 'NONE',  ( -0.7118765405301690219, 0.000000000000000000, -0.7023046283791660738 ) ) ;
#433 = VECTOR ( 'NONE', #100, 1000.000000000000000 ) ;
#434 = CARTESIAN_POINT ( 'NONE',  ( 85.12304812808800136, 54.17039231823600431, 0.000000000000000000 ) ) ;
#435 = AXIS2_PLACEMENT_3D ( 'NONE', #343, #762, #648 ) ;
#436 = ORIENTED_EDGE ( 'NONE', *, *, #671, .T. ) ;
#437 = FACE_OUTER_BOUND ( 'NONE', #317, .T. ) ;
#438 = EDGE_CURVE ( 'NONE', #592, #252, #508, .T. ) ;
#439 = CARTESIAN_POINT ( 'NONE',  ( 65.34965139980300819, 48.67967379138399764, 16.51739021408300090 ) ) ;
#440 = FACE_OUTER_BOUND ( 'NONE', #184, .T. ) ;
#441 = ORIENTED_EDGE ( 'NONE', *, *, #741, .F. ) ;
#442 = PLANE ( 'NONE',  #772 ) ;
#443 = VERTEX_POINT ( 'NONE', #290 ) ;
#444 = CARTESIAN_POINT ( 'NONE',  ( 12.49945359366499886, 21.71696413617799948, 6.147842012770999176 ) ) ;
#445 = CARTESIAN_POINT ( 'NONE',  ( 24.99890718732999773, 43.43392827235499709, 6.147842012770999176 ) ) ;
#446 = ORIENTED_EDGE ( 'NONE', *, *, #90, .F. ) ;
#447 = DIRECTION ( 'NONE',  ( 0.000000000000000000, 0.000000000000000000, 1.000000000000000000 ) ) ;
#448 = CARTESIAN_POINT ( 'NONE',  ( 0.000000000000000000, 9.241915729461000595, 2.867192889952999924 ) ) ;
#449 = ORIENTED_EDGE ( 'NONE', *, *, #675, .F. ) ;
#450 = VECTOR ( 'NONE', #412, 1000.000000000000000 ) ;
#451 = FACE_BOUND ( 'NONE', #702, .T. ) ;
#452 = AXIS2_PLACEMENT_3D ( 'NONE', #374, #201, #315 ) ;
#453 = CARTESIAN_POINT ( 'NONE',  ( 85.12304812808800136, 0.000000000000000000, 0.000000000000000000 ) ) ;
#454 = ORIENTED_EDGE ( 'NONE', *, *, #717, .F. ) ;
#455 = FACE_OUTER_BOUND ( 'NONE', #96, .T. ) ;
#456 = EDGE_CURVE ( 'NONE', #228, #300, #62, .T. ) ;
#457 = DIRECTION ( 'NONE',  ( 1.000000000000000000, 0.000000000000000000, 0.000000000000000000 ) ) ;
#458 = DIRECTION ( 'NONE',  ( -0.000000000000000000, 1.000000000000000000, 0.000000000000000000 ) ) ;
#459 =( NAMED_UNIT ( * ) PLANE_ANGLE_UNIT ( ) SI_UNIT ( $, .RADIAN. ) );
#460 = CARTESIAN_POINT ( 'NONE',  ( 0.000000000000000000, 9.741915729460998818, 3.867192889952999924 ) ) ;
#461 = DIRECTION ( 'NONE',  ( 0.000000000000000000, -1.000000000000000000, 0.000000000000000000 ) ) ;
#462 = VERTEX_POINT ( 'NONE', #352 ) ;
#463 = AXIS2_PLACEMENT_3D ( 'NONE', #233, #476, #416 ) ;
#464 = AXIS2_PLACEMENT_3D ( 'NONE', #404, #645, #54 ) ;
#465 = DIRECTION ( 'NONE',  ( 1.000000000000000000, 0.000000000000000000, 0.000000000000000000 ) ) ;
#466 = ADVANCED_FACE ( 'NONE', ( #595 ), #752, .T. ) ;
#467 = CARTESIAN_POINT ( 'NONE',  ( 0.000000000000000000, 54.17039231823600431, 16.51739021408300090 ) ) ;
#468 = DIRECTION ( 'NONE',  ( 0.000000000000000000, -1.000000000000000000, 0.000000000000000000 ) ) ;
#469 = ORIENTED_EDGE ( 'NONE', *, *, #531, .F. ) ;
#470 = CARTESIAN_POINT ( 'NONE',  ( 0.000000000000000000, 8.741915729460998818, 2.867192889952999924 ) ) ;
#471 = DIRECTION ( 'NONE',  ( 1.000000000000000000, 0.000000000000000000, 0.000000000000000000 ) ) ;
#472 = EDGE_CURVE ( 'NONE', #740, #658, #587, .T. ) ;
#473 = DIRECTION ( 'NONE',  ( 1.000000000000000000, 0.000000000000000000, 0.000000000000000000 ) ) ;
#474 = ORIENTED_EDGE ( 'NONE', *, *, #754, .F. ) ;
#475 = AXIS2_PLACEMENT_3D ( 'NONE', #590, #108, #39 ) ;
#476 = DIRECTION ( 'NONE',  ( 0.000000000000000000, 0.000000000000000000, 1.000000000000000000 ) ) ;
#477 = ORIENTED_EDGE ( 'NONE', *, *, #584, .T. ) ;
#478 = EDGE_CURVE ( 'NONE', #294, #303, #163, .T. ) ;
#479 = LINE ( 'NONE', #729, #450 ) ;
#480 = EDGE_LOOP ( 'NONE', ( #670, #321, #449, #296, #122, #31 ) ) ;
#481 = CARTESIAN_POINT ( 'NONE',  ( 81.59638629503700713, 54.17039231823600431, 7.483836555127000523 ) ) ;
#482 = ORIENTED_EDGE ( 'NONE', *, *, #337, .F. ) ;
#483 = VECTOR ( 'NONE', #582, 1000.000000000000000 ) ;
#484 = VECTOR ( 'NONE', #533, 1000.000000000000000 ) ;
#485 = PLANE ( 'NONE',  #95 ) ;
#486 = EDGE_CURVE ( 'NONE', #347, #462, #756, .T. ) ;
#487 = LINE ( 'NONE', #173, #336 ) ;
#488 = VERTEX_POINT ( 'NONE', #711 ) ;
#489 = CARTESIAN_POINT ( 'NONE',  ( 0.000000000000000000, 43.43392827235499709, 6.147842012770999176 ) ) ;
#490 = CARTESIAN_POINT ( 'NONE',  ( 62.80685971640899368, 52.51544457344699879, 16.51739021408300090 ) ) ;
#491 = VERTEX_POINT ( 'NONE', #169 ) ;
#492 = LINE ( 'NONE', #685, #498 ) ;
#493 = FACE_OUTER_BOUND ( 'NONE', #747, .T. ) ;
#494 = ORIENTED_EDGE ( 'NONE', *, *, #603, .T. ) ;
#495 = LINE ( 'NONE', #439, #146 ) ;
#496 = VECTOR ( 'NONE', #326, 1000.000000000000000 ) ;
#497 = DIRECTION ( 'NONE',  ( 0.000000000000000000, 0.000000000000000000, 1.000000000000000000 ) ) ;
#498 = VECTOR ( 'NONE', #26, 1000.000000000000000 ) ;
#499 = APPLICATION_CONTEXT ( 'automotive_design' ) ;
#500 = ORIENTED_EDGE ( 'NONE', *, *, #486, .F. ) ;
#501 = EDGE_CURVE ( 'NONE', #151, #272, #101, .T. ) ;
#502 = DIRECTION ( 'NONE',  ( -1.000000000000000000, 0.000000000000000000, 0.000000000000000000 ) ) ;
#503 = LINE ( 'NONE', #445, #82 ) ;
#504 = ORIENTED_EDGE ( 'NONE', *, *, #365, .T. ) ;
#505 = DIRECTION ( 'NONE',  ( 1.000000000000000000, 0.000000000000000000, 0.000000000000000000 ) ) ;
#506 = FILL_AREA_STYLE_COLOUR ( '', #612 ) ;
#507 = ORIENTED_EDGE ( 'NONE', *, *, #337, .T. ) ;
#508 = LINE ( 'NONE', #606, #179 ) ;
#509 = SHAPE_DEFINITION_REPRESENTATION ( #543, #225 ) ;
#510 = CARTESIAN_POINT ( 'NONE',  ( 85.12304812808800136, 54.17039231823600431, 0.000000000000000000 ) ) ;
#511 = VERTEX_POINT ( 'NONE', #44 ) ;
#512 =( GEOMETRIC_REPRESENTATION_CONTEXT ( 3 ) GLOBAL_UNCERTAINTY_ASSIGNED_CONTEXT ( ( #554 ) ) GLOBAL_UNIT_ASSIGNED_CONTEXT ( ( #267, #79, #84 ) ) REPRESENTATION_CONTEXT ( 'NONE', 'WORKASPACE' ) );
#513 = CARTESIAN_POINT ( 'NONE',  ( 24.99890718732999773, 43.43392827235499709, 16.51739021408300090 ) ) ;
#514 = VECTOR ( 'NONE', #344, 1000.000000000000114 ) ;
#515 = LINE ( 'NONE', #751, #257 ) ;
#516 = ORIENTED_EDGE ( 'NONE', *, *, #58, .F. ) ;
#517 = DIRECTION ( 'NONE',  ( 0.000000000000000000, 0.000000000000000000, 1.000000000000000000 ) ) ;
#518 = FACE_OUTER_BOUND ( 'NONE', #164, .T. ) ;
#519 = CARTESIAN_POINT ( 'NONE',  ( 81.59638629503700713, 54.17039231823600431, 7.483836555127000523 ) ) ;
#520 = ADVANCED_FACE ( 'NONE', ( #413, #657 ), #119, .F. ) ;
#521 = EDGE_CURVE ( 'NONE', #155, #235, #698, .T. ) ;
#522 = ORIENTED_EDGE ( 'NONE', *, *, #377, .T. ) ;
#523 = PLANE ( 'NONE',  #435 ) ;
#524 = ORIENTED_EDGE ( 'NONE', *, *, #725, .F. ) ;
#525 = AXIS2_PLACEMENT_3D ( 'NONE', #513, #86, #92 ) ;
#526 = AXIS2_PLACEMENT_3D ( 'NONE', #134, #70, #16 ) ;
#527 =( NAMED_UNIT ( * ) SI_UNIT ( $, .STERADIAN. ) SOLID_ANGLE_UNIT ( ) );
#528 = VERTEX_POINT ( 'NONE', #346 ) ;
#529 = LINE ( 'NONE', #395, #350 ) ;
#530 = VERTEX_POINT ( 'NONE', #154 ) ;
#531 = EDGE_CURVE ( 'NONE', #712, #176, #529, .T. ) ;
#532 = ORIENTED_EDGE ( 'NONE', *, *, #266, .T. ) ;
#533 = DIRECTION ( 'NONE',  ( 0.000000000000000000, 0.000000000000000000, 1.000000000000000000 ) ) ;
#534 = ORIENTED_EDGE ( 'NONE', *, *, #229, .T. ) ;
#535 = FACE_BOUND ( 'NONE', #72, .T. ) ;
#536 = EDGE_CURVE ( 'NONE', #688, #427, #217, .T. ) ;
#537 = VERTEX_POINT ( 'NONE', #161 ) ;
#538 = CIRCLE ( 'NONE', #117, 2.894373082853999968 ) ;
#539 = VECTOR ( 'NONE', #141, 999.9999999999998863 ) ;
#540 = CARTESIAN_POINT ( 'NONE',  ( 81.09128426010501300, 54.17039231823600431, 5.756294114852999577 ) ) ;
#541 = ORIENTED_EDGE ( 'NONE', *, *, #150, .T. ) ;
#542 = DIRECTION ( 'NONE',  ( 0.000000000000000000, 0.000000000000000000, 1.000000000000000000 ) ) ;
#543 = PRODUCT_DEFINITION_SHAPE ( 'NONE', 'NONE',  #545 ) ;
#544 = EDGE_LOOP ( 'NONE', ( #504, #634, #139, #230 ) ) ;
#545 = PRODUCT_DEFINITION ( 'ๆ', '', #655, #571 ) ;
#546 = DIRECTION ( 'NONE',  ( 0.000000000000000000, 0.000000000000000000, 1.000000000000000000 ) ) ;
#547 = CARTESIAN_POINT ( 'NONE',  ( 74.55918542933399351, 54.17039231823600431, 16.51739021408300090 ) ) ;
#548 = VERTEX_POINT ( 'NONE', #401 ) ;
#549 = AXIS2_PLACEMENT_3D ( 'NONE', #175, #659, #248 ) ;
#550 = DIRECTION ( 'NONE',  ( 0.000000000000000000, 0.000000000000000000, 1.000000000000000000 ) ) ;
#551 = VECTOR ( 'NONE', #297, 1000.000000000000000 ) ;
#552 = LINE ( 'NONE', #490, #636 ) ;
#553 = ORIENTED_EDGE ( 'NONE', *, *, #48, .F. ) ;
#554 = UNCERTAINTY_MEASURE_WITH_UNIT (LENGTH_MEASURE( 1.000000000000000082E-05 ), #267, 'distance_accuracy_value', 'NONE');
#555 = CARTESIAN_POINT ( 'NONE',  ( 62.53182625193799993, 0.000000000000000000, 24.56870432415299987 ) ) ;
#556 = ADVANCED_FACE ( 'NONE', ( #642 ), #523, .F. ) ;
#557 = LINE ( 'NONE', #17, #383 ) ;
#558 = ORIENTED_EDGE ( 'NONE', *, *, #113, .F. ) ;
#559 = LINE ( 'NONE', #613, #677 ) ;
#560 = CARTESIAN_POINT ( 'NONE',  ( 0.000000000000000000, 43.43392827235499709, 16.51739021408300090 ) ) ;
#561 = VERTEX_POINT ( 'NONE', #104 ) ;
#562 = EDGE_CURVE ( 'NONE', #643, #283, #591, .T. ) ;
#563 = CARTESIAN_POINT ( 'NONE',  ( 85.12304812808800136, 54.17039231823600431, 16.51739021408300090 ) ) ;
#564 = PLANE ( 'NONE',  #464 ) ;
#565 = VECTOR ( 'NONE', #638, 999.9999999999998863 ) ;
#566 = DIRECTION ( 'NONE',  ( 0.000000000000000000, 0.000000000000000000, 1.000000000000000000 ) ) ;
#567 = VERTEX_POINT ( 'NONE', #381 ) ;
#568 = ORIENTED_EDGE ( 'NONE', *, *, #195, .T. ) ;
#569 = LINE ( 'NONE', #430, #323 ) ;
#570 = ORIENTED_EDGE ( 'NONE', *, *, #34, .T. ) ;
#571 = PRODUCT_DEFINITION_CONTEXT ( 'detailed design', #106, 'design' ) ;
#572 = FACE_OUTER_BOUND ( 'NONE', #244, .T. ) ;
#573 = CARTESIAN_POINT ( 'NONE',  ( 0.000000000000000000, 9.741915729460998818, 2.867192889952999924 ) ) ;
#574 = ADVANCED_FACE ( 'NONE', ( #251 ), #724, .F. ) ;
#575 = EDGE_LOOP ( 'NONE', ( #52, #210, #268 ) ) ;
#576 = CARTESIAN_POINT ( 'NONE',  ( 0.000000000000000000, 0.000000000000000000, 0.000000000000000000 ) ) ;
#577 = VECTOR ( 'NONE', #67, 1000.000000000000000 ) ;
#578 = CARTESIAN_POINT ( 'NONE',  ( 85.12304812808800136, 0.000000000000000000, 0.000000000000000000 ) ) ;
#579 = VECTOR ( 'NONE', #125, 1000.000000000000000 ) ;
#580 = DIRECTION ( 'NONE',  ( 0.000000000000000000, 1.000000000000000000, 0.000000000000000000 ) ) ;
#581 = CIRCLE ( 'NONE', #181, 0.5000000000000000000 ) ;
#582 = DIRECTION ( 'NONE',  ( 1.000000000000000000, 0.000000000000000000, 0.000000000000000000 ) ) ;
#583 = CARTESIAN_POINT ( 'NONE',  ( 74.55918542933299875, 52.97617936236400737, 15.32317725821100041 ) ) ;
#584 = EDGE_CURVE ( 'NONE', #11, #491, #307, .T. ) ;
#585 = LINE ( 'NONE', #573, #723 ) ;
#586 = ORIENTED_EDGE ( 'NONE', *, *, #247, .T. ) ;
#587 = LINE ( 'NONE', #293, #484 ) ;
#588 = EDGE_LOOP ( 'NONE', ( #64, #534, #441, #474 ) ) ;
#589 = CARTESIAN_POINT ( 'NONE',  ( 24.99890718732999773, 0.000000000000000000, 16.51739021408300090 ) ) ;
#590 = CARTESIAN_POINT ( 'NONE',  ( 0.9272789789830000462, 43.43392827235499709, 15.59011123510000019 ) ) ;
#591 = LINE ( 'NONE', #51, #398 ) ;
#592 = VERTEX_POINT ( 'NONE', #261 ) ;
#593 = AXIS2_PLACEMENT_3D ( 'NONE', #470, #710, #168 ) ;
#594 = PLANE ( 'NONE',  #593 ) ;
#595 = FACE_OUTER_BOUND ( 'NONE', #631, .T. ) ;
#596 = EDGE_CURVE ( 'NONE', #528, #592, #703, .T. ) ;
#597 = DIRECTION ( 'NONE',  ( 0.000000000000000000, -1.000000000000000000, 0.000000000000000000 ) ) ;
#598 = DIRECTION ( 'NONE',  ( 1.000000000000000000, 0.000000000000000000, 0.000000000000000000 ) ) ;
#599 = ORIENTED_EDGE ( 'NONE', *, *, #647, .F. ) ;
#600 = AXIS2_PLACEMENT_3D ( 'NONE', #563, #619, #447 ) ;
#601 = VECTOR ( 'NONE', #362, 1000.000000000000000 ) ;
#602 = CARTESIAN_POINT ( 'NONE',  ( 85.12304812808800136, 51.27601923538200168, 16.51739021408300090 ) ) ;
#603 = EDGE_CURVE ( 'NONE', #462, #29, #492, .T. ) ;
#604 = ORIENTED_EDGE ( 'NONE', *, *, #584, .F. ) ;
#605 = ADVANCED_FACE ( 'NONE', ( #668 ), #485, .T. ) ;
#606 = CARTESIAN_POINT ( 'NONE',  ( 85.12304812808800136, 54.17039231823600431, 13.62301713122900004 ) ) ;
#607 = DIRECTION ( 'NONE',  ( 1.000000000000000000, 0.000000000000000000, 0.000000000000000000 ) ) ;
#608 = EDGE_LOOP ( 'NONE', ( #143, #126, #372, #500 ) ) ;
#609 = CYLINDRICAL_SURFACE ( 'NONE', #422, 0.5000000000000000000 ) ;
#610 = CARTESIAN_POINT ( 'NONE',  ( 81.59638629503700713, 54.17039231823600431, 7.483836555127000523 ) ) ;
#611 = EDGE_LOOP ( 'NONE', ( #280, #516, #327, #507 ) ) ;
#612 = COLOUR_RGB ( '',0.7921568627450980005, 0.8196078431372548767, 0.9333333333333333481 ) ;
#613 = CARTESIAN_POINT ( 'NONE',  ( 0.000000000000000000, 43.43392827235499709, 6.147842012770999176 ) ) ;
#614 = VERTEX_POINT ( 'NONE', #489 ) ;
#615 = DIRECTION ( 'NONE',  ( -1.000000000000000000, 0.000000000000000000, 0.000000000000000000 ) ) ;
#616 = EDGE_CURVE ( 'NONE', #176, #548, #221, .T. ) ;
#617 = LINE ( 'NONE', #27, #368 ) ;
#618 = VERTEX_POINT ( 'NONE', #73 ) ;
#619 = DIRECTION ( 'NONE',  ( 1.000000000000000000, 0.000000000000000000, 0.000000000000000000 ) ) ;
#620 = LINE ( 'NONE', #555, #539 ) ;
#621 = LINE ( 'NONE', #628, #220 ) ;
#622 = ORIENTED_EDGE ( 'NONE', *, *, #716, .T. ) ;
#623 = DIRECTION ( 'NONE',  ( 0.000000000000000000, 1.000000000000000000, 0.000000000000000000 ) ) ;
#624 = LINE ( 'NONE', #19, #10 ) ;
#625 = VECTOR ( 'NONE', #706, 1000.000000000000000 ) ;
#626 = VECTOR ( 'NONE', #156, 1000.000000000000000 ) ;
#627 = ORIENTED_EDGE ( 'NONE', *, *, #65, .F. ) ;
#628 = CARTESIAN_POINT ( 'NONE',  ( 62.80685971640899368, 48.67967379138399764, 16.51739021408300090 ) ) ;
#629 = ADVANCED_FACE ( 'NONE', ( #12 ), #728, .F. ) ;
#630 = CARTESIAN_POINT ( 'NONE',  ( 65.34965139980300819, 52.51544457344699879, 16.51739021408300090 ) ) ;
#631 = EDGE_LOOP ( 'NONE', ( #129, #85, #59 ) ) ;
#632 = UNCERTAINTY_MEASURE_WITH_UNIT (LENGTH_MEASURE( 1.000000000000000082E-05 ), #212, 'distance_accuracy_value', 'NONE');
#633 = LINE ( 'NONE', #264, #94 ) ;
#634 = ORIENTED_EDGE ( 'NONE', *, *, #177, .F. ) ;
#635 = EDGE_CURVE ( 'NONE', #491, #528, #624, .T. ) ;
#636 = VECTOR ( 'NONE', #111, 1000.000000000000000 ) ;
#637 = ORIENTED_EDGE ( 'NONE', *, *, #377, .F. ) ;
#638 = DIRECTION ( 'NONE',  ( -0.7023046283791660738, 0.000000000000000000, 0.7118765405301690219 ) ) ;
#639 = DIRECTION ( 'NONE',  ( 0.000000000000000000, 1.000000000000000000, 0.000000000000000000 ) ) ;
#640 = EDGE_CURVE ( 'NONE', #618, #567, #246, .T. ) ;
#641 = LINE ( 'NONE', #460, #131 ) ;
#642 = FACE_OUTER_BOUND ( 'NONE', #8, .T. ) ;
#643 = VERTEX_POINT ( 'NONE', #370 ) ;
#644 = DIRECTION ( 'NONE',  ( -0.2806325558021185440, 0.000000000000000000, -0.9598152783864043469 ) ) ;
#645 = DIRECTION ( 'NONE',  ( 0.000000000000000000, -1.000000000000000000, 0.000000000000000000 ) ) ;
#646 = CARTESIAN_POINT ( 'NONE',  ( 24.99890718732999773, 43.43392827235499709, 6.147842012770999176 ) ) ;
#647 = EDGE_CURVE ( 'NONE', #382, #537, #774, .T. ) ;
#648 = DIRECTION ( 'NONE',  ( 0.000000000000000000, 1.000000000000000000, 0.000000000000000000 ) ) ;
#649 = ORIENTED_EDGE ( 'NONE', *, *, #90, .T. ) ;
#650 = APPLICATION_PROTOCOL_DEFINITION ( 'draft international standard', 'automotive_design', 1998, #499 ) ;
#651 = ORIENTED_EDGE ( 'NONE', *, *, #45, .T. ) ;
#652 = DIRECTION ( 'NONE',  ( -1.594668301847000104E-28, -1.000000000000000000, 0.000000000000000000 ) ) ;
#653 = EDGE_LOOP ( 'NONE', ( #541, #318, #727, #88 ) ) ;
#654 = VECTOR ( 'NONE', #226, 1000.000000000000000 ) ;
#655 = PRODUCT_DEFINITION_FORMATION_WITH_SPECIFIED_SOURCE ( 'ไป', '', #213, .NOT_KNOWN. ) ;
#656 = DIRECTION ( 'NONE',  ( 1.000000000000000000, 0.000000000000000000, 0.000000000000000000 ) ) ;
#657 = FACE_OUTER_BOUND ( 'NONE', #667, .T. ) ;
#658 = VERTEX_POINT ( 'NONE', #182 ) ;
#659 = DIRECTION ( 'NONE',  ( -1.000000000000000000, 0.000000000000000000, 0.000000000000000000 ) ) ;
#660 = ORIENTED_EDGE ( 'NONE', *, *, #274, .F. ) ;
#661 = ADVANCED_FACE ( 'NONE', ( #185 ), #609, .F. ) ;
#662 = LINE ( 'NONE', #718, #577 ) ;
#663 = ORIENTED_EDGE ( 'NONE', *, *, #671, .F. ) ;
#664 = VECTOR ( 'NONE', #275, 1000.000000000000000 ) ;
#665 = VECTOR ( 'NONE', #644, 1000.000000000000114 ) ;
#666 = LINE ( 'NONE', #120, #690 ) ;
#667 = EDGE_LOOP ( 'NONE', ( #627, #757, #390, #353, #680, #477 ) ) ;
#668 = FACE_OUTER_BOUND ( 'NONE', #118, .T. ) ;
#669 = LINE ( 'NONE', #4, #579 ) ;
#670 = ORIENTED_EDGE ( 'NONE', *, *, #709, .F. ) ;
#671 = EDGE_CURVE ( 'NONE', #488, #283, #245, .T. ) ;
#672 = DIRECTION ( 'NONE',  ( 0.000000000000000000, 0.000000000000000000, -1.000000000000000000 ) ) ;
#673 = SURFACE_STYLE_FILL_AREA ( #197 ) ;
#674 = EDGE_LOOP ( 'NONE', ( #586, #115, #570, #410, #218, #380, #140 ) ) ;
#675 = EDGE_CURVE ( 'NONE', #614, #658, #559, .T. ) ;
#676 = VECTOR ( 'NONE', #313, 1000.000000000000000 ) ;
#677 = VECTOR ( 'NONE', #311, 1000.000000000000000 ) ;
#678 = CARTESIAN_POINT ( 'NONE',  ( 85.12304812808800136, 54.17039231823600431, 16.51739021408300090 ) ) ;
#679 = CARTESIAN_POINT ( 'NONE',  ( 62.80685971640899368, 48.67967379138399764, 16.51739021408300090 ) ) ;
#680 = ORIENTED_EDGE ( 'NONE', *, *, #717, .T. ) ;
#681 = FACE_OUTER_BOUND ( 'NONE', #674, .T. ) ;
#682 = DIRECTION ( 'NONE',  ( 0.000000000000000000, 0.000000000000000000, 1.000000000000000000 ) ) ;
#683 = FACE_BOUND ( 'NONE', #417, .T. ) ;
#684 = EDGE_LOOP ( 'NONE', ( #36, #604, #769, #180, #314 ) ) ;
#685 = CARTESIAN_POINT ( 'NONE',  ( 24.99890718732999773, 0.000000000000000000, 6.147842012770999176 ) ) ;
#686 = CARTESIAN_POINT ( 'NONE',  ( 79.94153530012999909, 54.17039231823600431, 6.921713334705000165 ) ) ;
#687 = EDGE_CURVE ( 'NONE', #411, #263, #620, .T. ) ;
#688 = VERTEX_POINT ( 'NONE', #254 ) ;
#689 = DIRECTION ( 'NONE',  ( -1.000000000000000000, 0.000000000000000000, 0.000000000000000000 ) ) ;
#690 = VECTOR ( 'NONE', #56, 1000.000000000000000 ) ;
#691 =( GEOMETRIC_REPRESENTATION_CONTEXT ( 3 ) GLOBAL_UNCERTAINTY_ASSIGNED_CONTEXT ( ( #632 ) ) GLOBAL_UNIT_ASSIGNED_CONTEXT ( ( #212, #459, #527 ) ) REPRESENTATION_CONTEXT ( 'NONE', 'WORKASPACE' ) );
#692 = ORIENTED_EDGE ( 'NONE', *, *, #616, .F. ) ;
#693 = VERTEX_POINT ( 'NONE', #743 ) ;
#694 = CARTESIAN_POINT ( 'NONE',  ( 81.09128426010501300, 0.000000000000000000, 5.756294114852999577 ) ) ;
#695 = EDGE_CURVE ( 'NONE', #443, #618, #495, .T. ) ;
#696 = DIRECTION ( 'NONE',  ( 1.000000000000000000, 0.000000000000000000, 0.000000000000000000 ) ) ;
#697 = ORIENTED_EDGE ( 'NONE', *, *, #215, .F. ) ;
#698 = LINE ( 'NONE', #519, #761 ) ;
#699 = PLANE ( 'NONE',  #385 ) ;
#700 = ADVANCED_FACE ( 'NONE', ( #319 ), #564, .F. ) ;
#701 = VECTOR ( 'NONE', #77, 1000.000000000000000 ) ;
#702 = EDGE_LOOP ( 'NONE', ( #408, #187, #5 ) ) ;
#703 = CIRCLE ( 'NONE', #234, 2.894373082853999968 ) ;
#704 = CARTESIAN_POINT ( 'NONE',  ( 74.55918542933399351, 54.17039231823600431, 16.51739021408300090 ) ) ;
#705 = LINE ( 'NONE', #93, #288 ) ;
#706 = DIRECTION ( 'NONE',  ( 0.000000000000000000, 1.000000000000000000, 0.000000000000000000 ) ) ;
#707 = LINE ( 'NONE', #172, #551 ) ;
#708 = CARTESIAN_POINT ( 'NONE',  ( 85.12304812808800136, 0.000000000000000000, 0.000000000000000000 ) ) ;
#709 = EDGE_CURVE ( 'NONE', #740, #294, #707, .T. ) ;
#710 = DIRECTION ( 'NONE',  ( 0.000000000000000000, -1.000000000000000000, 0.000000000000000000 ) ) ;
#711 = CARTESIAN_POINT ( 'NONE',  ( -1.110223024624999878E-16, 43.43392827235499709, 15.59011123510000019 ) ) ;
#712 = VERTEX_POINT ( 'NONE', #391 ) ;
#713 = AXIS2_PLACEMENT_3D ( 'NONE', #448, #746, #190 ) ;
#714 = CARTESIAN_POINT ( 'NONE',  ( 65.34965139980300819, 48.67967379138399764, 16.51739021408300090 ) ) ;
#715 = ORIENTED_EDGE ( 'NONE', *, *, #121, .F. ) ;
#716 = EDGE_CURVE ( 'NONE', #155, #228, #399, .T. ) ;
#717 = EDGE_CURVE ( 'NONE', #740, #11, #333, .T. ) ;
#718 = CARTESIAN_POINT ( 'NONE',  ( 0.000000000000000000, 0.000000000000000000, 6.147842012770999176 ) ) ;
#719 = ORIENTED_EDGE ( 'NONE', *, *, #45, .F. ) ;
#720 = DIRECTION ( 'NONE',  ( 0.000000000000000000, 1.000000000000000000, 0.000000000000000000 ) ) ;
#721 = ORIENTED_EDGE ( 'NONE', *, *, #640, .F. ) ;
#722 = VECTOR ( 'NONE', #720, 1000.000000000000000 ) ;
#723 = VECTOR ( 'NONE', #219, 1000.000000000000000 ) ;
#724 = PLANE ( 'NONE',  #737 ) ;
#725 = EDGE_CURVE ( 'NONE', #263, #235, #409, .T. ) ;
#726 = CARTESIAN_POINT ( 'NONE',  ( 0.000000000000000000, 9.741915729460998818, 3.867192889952999924 ) ) ;
#727 = ORIENTED_EDGE ( 'NONE', *, *, #265, .F. ) ;
#728 = PLANE ( 'NONE',  #158 ) ;
#729 = CARTESIAN_POINT ( 'NONE',  ( 65.34965139980300819, 52.51544457344699879, 16.51739021408300090 ) ) ;
#730 = ORIENTED_EDGE ( 'NONE', *, *, #687, .F. ) ;
#731 = ADVANCED_FACE ( 'NONE', ( #758 ), #282, .F. ) ;
#732 = CARTESIAN_POINT ( 'NONE',  ( 62.80685971640899368, 52.51544457344699879, 16.51739021408300090 ) ) ;
#733 = DIRECTION ( 'NONE',  ( -0.000000000000000000, 1.000000000000000000, 0.000000000000000000 ) ) ;
#734 = ORIENTED_EDGE ( 'NONE', *, *, #322, .F. ) ;
#735 = CARTESIAN_POINT ( 'NONE',  ( 52.93924214636700043, 9.241915729461000595, 3.367192889952999924 ) ) ;
#736 = VECTOR ( 'NONE', #623, 1000.000000000000000 ) ;
#737 = AXIS2_PLACEMENT_3D ( 'NONE', #189, #432, #196 ) ;
#738 = DIRECTION ( 'NONE',  ( 0.000000000000000000, 0.000000000000000000, -1.000000000000000000 ) ) ;
#739 = CARTESIAN_POINT ( 'NONE',  ( 79.94153530012999909, 0.000000000000000000, 6.921713334705000165 ) ) ;
#740 = VERTEX_POINT ( 'NONE', #329 ) ;
#741 = EDGE_CURVE ( 'NONE', #2, #712, #581, .T. ) ;
#742 = EDGE_CURVE ( 'NONE', #235, #411, #705, .T. ) ;
#743 = CARTESIAN_POINT ( 'NONE',  ( 65.34965139980300819, 52.51544457344699879, 16.51739021408300090 ) ) ;
#744 = ORIENTED_EDGE ( 'NONE', *, *, #456, .T. ) ;
#745 = ORIENTED_EDGE ( 'NONE', *, *, #438, .T. ) ;
#746 = DIRECTION ( 'NONE',  ( -1.000000000000000000, 0.000000000000000000, 0.000000000000000000 ) ) ;
#747 = EDGE_LOOP ( 'NONE', ( #61, #553, #454, #14 ) ) ;
#748 = PLANE ( 'NONE',  #243 ) ;
#749 = MECHANICAL_DESIGN_GEOMETRIC_PRESENTATION_REPRESENTATION (  '', ( #231 ), #512 ) ;
#750 = ORIENTED_EDGE ( 'NONE', *, *, #265, .T. ) ;
#751 = CARTESIAN_POINT ( 'NONE',  ( 65.34965139980300819, 52.51544457344699879, 16.51739021408300090 ) ) ;
#752 = PLANE ( 'NONE',  #287 ) ;
#753 = VERTEX_POINT ( 'NONE', #403 ) ;
#754 = EDGE_CURVE ( 'NONE', #753, #2, #585, .T. ) ;
#755 = LINE ( 'NONE', #467, #483 ) ;
#756 = LINE ( 'NONE', #279, #83 ) ;
#757 = ORIENTED_EDGE ( 'NONE', *, *, #486, .T. ) ;
#758 = FACE_OUTER_BOUND ( 'NONE', #608, .T. ) ;
#759 = AXIS2_PLACEMENT_3D ( 'NONE', #316, #497, #376 ) ;
#760 = ORIENTED_EDGE ( 'NONE', *, *, #171, .T. ) ;
#761 = VECTOR ( 'NONE', #461, 1000.000000000000000 ) ;
#762 = DIRECTION ( 'NONE',  ( -0.3216328819561743990, 0.000000000000000000, 0.9468644513575138477 ) ) ;
#763 = DIRECTION ( 'NONE',  ( 0.000000000000000000, 0.000000000000000000, -1.000000000000000000 ) ) ;
#764 = PRODUCT_RELATED_PRODUCT_CATEGORY ( 'part', '', ( #213 ) ) ;
#765 = DIRECTION ( 'NONE',  ( 0.000000000000000000, 1.000000000000000000, 0.000000000000000000 ) ) ;
#766 = ORIENTED_EDGE ( 'NONE', *, *, #407, .F. ) ;
#767 = DIRECTION ( 'NONE',  ( 0.000000000000000000, -1.000000000000000000, 0.000000000000000000 ) ) ;
#768 = CARTESIAN_POINT ( 'NONE',  ( 0.000000000000000000, 54.17039231823600431, 0.000000000000000000 ) ) ;
#769 = ORIENTED_EDGE ( 'NONE', *, *, #48, .T. ) ;
#770 = PLANE ( 'NONE',  #463 ) ;
#771 = ADVANCED_FACE ( 'NONE', ( #33 ), #699, .T. ) ;
#772 = AXIS2_PLACEMENT_3D ( 'NONE', #735, #689, #206 ) ;
#773 = ORIENTED_EDGE ( 'NONE', *, *, #536, .F. ) ;
#774 = CIRCLE ( 'NONE', #357, 0.5000000000000000000 ) ;
ENDSEC;
END-ISO-10303-21;
