ISO-10303-21;
HEADER;
FILE_DESCRIPTION (( 'STEP AP214' ),
    '1' );
FILE_NAME ('20260414_160844_171.STEP',
    '2026-04-16T15:29:31',
    ( '' ),
    ( '' ),
    'SwSTEP 2.0',
    'SolidWorks 2025',
    '' );
FILE_SCHEMA (( 'AUTOMOTIVE_DESIGN' ));
ENDSEC;

DATA;
#1 = DIRECTION ( 'NONE',  ( 0.000000000000000000, 0.000000000000000000, 1.000000000000000000 ) ) ;
#2 = PRODUCT_DEFINITION_FORMATION_WITH_SPECIFIED_SOURCE ( 'ไป', '', #238, .NOT_KNOWN. ) ;
#3 = AXIS2_PLACEMENT_3D ( 'NONE', #166, #94, #382 ) ;
#4 = VERTEX_POINT ( 'NONE', #198 ) ;
#5 = DIRECTION ( 'NONE',  ( 0.9125569911924674704, 0.4089495541332096584, 0.000000000000000000 ) ) ;
#6 = PLANE ( 'NONE',  #299 ) ;
#7 = DIRECTION ( 'NONE',  ( 0.000000000000000000, 0.000000000000000000, 1.000000000000000000 ) ) ;
#8 = ORIENTED_EDGE ( 'NONE', *, *, #631, .T. ) ;
#9 = PLANE ( 'NONE',  #272 ) ;
#10 = LINE ( 'NONE', #14, #684 ) ;
#11 = ADVANCED_FACE ( 'NONE', ( #534 ), #633, .F. ) ;
#12 = ORIENTED_EDGE ( 'NONE', *, *, #28, .T. ) ;
#13 = DIRECTION ( 'NONE',  ( -9.144829050902999557E-32, -1.745066343067000023E-31, 1.000000000000000000 ) ) ;
#14 = CARTESIAN_POINT ( 'NONE',  ( 77.64829313552399981, 0.000000000000000000, 37.15511855076000103 ) ) ;
#15 = ORIENTED_EDGE ( 'NONE', *, *, #396, .F. ) ;
#16 = CIRCLE ( 'NONE', #3, 3.672465776698000006 ) ;
#17 = FACE_OUTER_BOUND ( 'NONE', #509, .T. ) ;
#18 = DIRECTION ( 'NONE',  ( 0.000000000000000000, 1.000000000000000000, 0.000000000000000000 ) ) ;
#19 = ORIENTED_EDGE ( 'NONE', *, *, #420, .T. ) ;
#20 = VERTEX_POINT ( 'NONE', #52 ) ;
#21 = SURFACE_SIDE_STYLE ('',( #616 ) ) ;
#22 = ORIENTED_EDGE ( 'NONE', *, *, #401, .T. ) ;
#23 = VECTOR ( 'NONE', #462, 1000.000000000000000 ) ;
#24 = CIRCLE ( 'NONE', #599, 2.037126391580999396 ) ;
#25 = DIRECTION ( 'NONE',  ( 0.9125569911924674704, 0.4089495541332096584, 0.000000000000000000 ) ) ;
#26 = ORIENTED_EDGE ( 'NONE', *, *, #164, .F. ) ;
#27 = PLANE ( 'NONE',  #70 ) ;
#28 = EDGE_CURVE ( 'NONE', #468, #4, #642, .T. ) ;
#29 = VECTOR ( 'NONE', #254, 1000.000000000000000 ) ;
#30 = ORIENTED_EDGE ( 'NONE', *, *, #453, .T. ) ;
#31 = EDGE_CURVE ( 'NONE', #246, #264, #587, .T. ) ;
#32 = VERTEX_POINT ( 'NONE', #153 ) ;
#33 = LINE ( 'NONE', #377, #227 ) ;
#34 = CARTESIAN_POINT ( 'NONE',  ( 14.02758022282399963, 43.03155656373899518, 0.000000000000000000 ) ) ;
#35 = ORIENTED_EDGE ( 'NONE', *, *, #396, .T. ) ;
#36 = DIRECTION ( 'NONE',  ( 0.000000000000000000, 0.000000000000000000, 1.000000000000000000 ) ) ;
#37 = CARTESIAN_POINT ( 'NONE',  ( 82.73871682489999557, 39.63237300315499567, 37.15511855076000103 ) ) ;
#38 = DIRECTION ( 'NONE',  ( 0.000000000000000000, 0.000000000000000000, 1.000000000000000000 ) ) ;
#39 = ORIENTED_EDGE ( 'NONE', *, *, #103, .T. ) ;
#40 = LINE ( 'NONE', #590, #438 ) ;
#41 = UNCERTAINTY_MEASURE_WITH_UNIT (LENGTH_MEASURE( 1.000000000000000082E-05 ), #206, 'distance_accuracy_value', 'NONE');
#42 = CARTESIAN_POINT ( 'NONE',  ( 37.32561834520799948, 0.000000000000000000, 37.15511855076000103 ) ) ;
#43 = LINE ( 'NONE', #34, #212 ) ;
#44 = EDGE_CURVE ( 'NONE', #190, #607, #182, .T. ) ;
#45 = AXIS2_PLACEMENT_3D ( 'NONE', #384, #379, #179 ) ;
#46 = ORIENTED_EDGE ( 'NONE', *, *, #75, .T. ) ;
#47 = LINE ( 'NONE', #201, #244 ) ;
#48 = DIRECTION ( 'NONE',  ( 1.000000000000000000, 0.000000000000000000, 5.884703543504000734E-15 ) ) ;
#49 = CARTESIAN_POINT ( 'NONE',  ( 37.32561834520799948, 0.000000000000000000, 37.15511855076000103 ) ) ;
#50 = ORIENTED_EDGE ( 'NONE', *, *, #317, .T. ) ;
#51 = FACE_OUTER_BOUND ( 'NONE', #514, .T. ) ;
#52 = CARTESIAN_POINT ( 'NONE',  ( 25.66764983548300094, 31.84893964470900229, 0.000000000000000000 ) ) ;
#53 = ORIENTED_EDGE ( 'NONE', *, *, #566, .T. ) ;
#54 = CARTESIAN_POINT ( 'NONE',  ( 80.31258244090099652, 59.41423313813500329, 37.15511855076000103 ) ) ;
#55 = CARTESIAN_POINT ( 'NONE',  ( 0.000000000000000000, 3.672465776698000006, -8.881784197000999888E-16 ) ) ;
#56 = LINE ( 'NONE', #602, #329 ) ;
#57 = AXIS2_PLACEMENT_3D ( 'NONE', #122, #653, #339 ) ;
#58 = VERTEX_POINT ( 'NONE', #267 ) ;
#59 = DIRECTION ( 'NONE',  ( 0.000000000000000000, -1.000000000000000000, 0.000000000000000000 ) ) ;
#60 = PLANE ( 'NONE',  #617 ) ;
#61 = EDGE_CURVE ( 'NONE', #150, #385, #148, .T. ) ;
#62 = CARTESIAN_POINT ( 'NONE',  ( 81.72279397956198466, 58.45003588485100465, 37.15511855076000103 ) ) ;
#63 = ORIENTED_EDGE ( 'NONE', *, *, #568, .F. ) ;
#64 = LINE ( 'NONE', #439, #351 ) ;
#65 = CARTESIAN_POINT ( 'NONE',  ( 0.000000000000000000, -8.881784197000999888E-16, 3.672465776698000006 ) ) ;
#66 = ORIENTED_EDGE ( 'NONE', *, *, #537, .F. ) ;
#67 = DIRECTION ( 'NONE',  ( 0.000000000000000000, 0.000000000000000000, -1.000000000000000000 ) ) ;
#68 = CARTESIAN_POINT ( 'NONE',  ( 37.32561834520799948, 0.000000000000000000, 37.15511855076000103 ) ) ;
#69 = ORIENTED_EDGE ( 'NONE', *, *, #348, .F. ) ;
#70 = AXIS2_PLACEMENT_3D ( 'NONE', #454, #669, #187 ) ;
#71 = ADVANCED_FACE ( 'NONE', ( #461 ), #315, .T. ) ;
#72 = DIRECTION ( 'NONE',  ( -0.7211350228686973507, 0.6927945429867093941, 0.000000000000000000 ) ) ;
#73 = ORIENTED_EDGE ( 'NONE', *, *, #296, .F. ) ;
#74 = ORIENTED_EDGE ( 'NONE', *, *, #75, .F. ) ;
#75 = EDGE_CURVE ( 'NONE', #240, #603, #162, .T. ) ;
#76 = VERTEX_POINT ( 'NONE', #580 ) ;
#77 = VECTOR ( 'NONE', #38, 1000.000000000000000 ) ;
#78 = AXIS2_PLACEMENT_3D ( 'NONE', #325, #145, #518 ) ;
#79 = FACE_BOUND ( 'NONE', #344, .T. ) ;
#80 = VECTOR ( 'NONE', #59, 1000.000000000000000 ) ;
#81 = DIRECTION ( 'NONE',  ( -0.1252262832120552283, -0.9921282064294382197, 0.000000000000000000 ) ) ;
#82 = VERTEX_POINT ( 'NONE', #694 ) ;
#83 = PRODUCT_DEFINITION_CONTEXT ( 'detailed design', #575, 'design' ) ;
#84 = ORIENTED_EDGE ( 'NONE', *, *, #300, .F. ) ;
#85 = EDGE_CURVE ( 'NONE', #20, #570, #33, .T. ) ;
#86 = VECTOR ( 'NONE', #699, 1000.000000000000000 ) ;
#87 = APPLICATION_PROTOCOL_DEFINITION ( 'draft international standard', 'automotive_design', 1998, #575 ) ;
#88 = ORIENTED_EDGE ( 'NONE', *, *, #507, .F. ) ;
#89 = LINE ( 'NONE', #409, #512 ) ;
#90 = ORIENTED_EDGE ( 'NONE', *, *, #619, .F. ) ;
#91 = DIRECTION ( 'NONE',  ( -0.7211350228686972397, 0.6927945429867092830, 0.000000000000000000 ) ) ;
#92 = CARTESIAN_POINT ( 'NONE',  ( 77.64829313552399981, 39.63237300315499567, 8.719835787891001999 ) ) ;
#93 = ORIENTED_EDGE ( 'NONE', *, *, #559, .T. ) ;
#94 = DIRECTION ( 'NONE',  ( -1.000000000000000000, 0.000000000000000000, 0.000000000000000000 ) ) ;
#95 = DIRECTION ( 'NONE',  ( 1.000000000000000000, 0.000000000000000000, 0.000000000000000000 ) ) ;
#96 = CARTESIAN_POINT ( 'NONE',  ( 75.99203881997398469, 25.18393352786899797, 0.000000000000000000 ) ) ;
#97 = DIRECTION ( 'NONE',  ( 0.000000000000000000, -1.000000000000000000, 0.000000000000000000 ) ) ;
#98 = ORIENTED_EDGE ( 'NONE', *, *, #524, .T. ) ;
#99 = CARTESIAN_POINT ( 'NONE',  ( 82.73871682489999557, 8.265857650479000895, 5.212762062234999938 ) ) ;
#100 = LINE ( 'NONE', #417, #359 ) ;
#101 = VECTOR ( 'NONE', #372, 1000.000000000000000 ) ;
#102 = CARTESIAN_POINT ( 'NONE',  ( 9.153030907565000263, 41.54536933553200129, 25.82172323237499967 ) ) ;
#103 = EDGE_CURVE ( 'NONE', #58, #447, #464, .T. ) ;
#104 = VERTEX_POINT ( 'NONE', #591 ) ;
#105 = LINE ( 'NONE', #319, #255 ) ;
#106 = DIRECTION ( 'NONE',  ( 0.000000000000000000, 0.000000000000000000, 1.000000000000000000 ) ) ;
#107 = CARTESIAN_POINT ( 'NONE',  ( 77.64829313552399981, 39.63237300315499567, 37.15511855076000103 ) ) ;
#108 = ORIENTED_EDGE ( 'NONE', *, *, #381, .F. ) ;
#109 = PLANE ( 'NONE',  #258 ) ;
#110 = FACE_OUTER_BOUND ( 'NONE', #452, .T. ) ;
#111 = DIRECTION ( 'NONE',  ( -1.000000000000000000, 0.000000000000000000, 0.000000000000000000 ) ) ;
#112 = VERTEX_POINT ( 'NONE', #582 ) ;
#113 = DIRECTION ( 'NONE',  ( 0.000000000000000000, 0.000000000000000000, -1.000000000000000000 ) ) ;
#114 = EDGE_CURVE ( 'NONE', #112, #380, #100, .T. ) ;
#115 = DIRECTION ( 'NONE',  ( -0.9921282064294383307, 0.1252262832120552283, 0.000000000000000000 ) ) ;
#116 = FACE_OUTER_BOUND ( 'NONE', #663, .T. ) ;
#117 = VECTOR ( 'NONE', #660, 1000.000000000000000 ) ;
#118 = ORIENTED_EDGE ( 'NONE', *, *, #348, .T. ) ;
#119 = DIRECTION ( 'NONE',  ( -5.884703543504002311E-15, 0.000000000000000000, 1.000000000000000000 ) ) ;
#120 = CARTESIAN_POINT ( 'NONE',  ( 0.000000000000000000, 86.75855768305399351, 0.000000000000000000 ) ) ;
#121 = ORIENTED_EDGE ( 'NONE', *, *, #103, .F. ) ;
#122 = CARTESIAN_POINT ( 'NONE',  ( 81.72279397956198466, 58.45003588485100465, 37.15511855076000103 ) ) ;
#123 = CARTESIAN_POINT ( 'NONE',  ( 77.64829313552399981, 0.000000000000000000, 8.719835787891001999 ) ) ;
#124 = ADVANCED_FACE ( 'NONE', ( #472 ), #679, .F. ) ;
#125 = ORIENTED_EDGE ( 'NONE', *, *, #61, .T. ) ;
#126 = DIRECTION ( 'NONE',  ( 0.08346581348380049947, 0.7799384774875379733, 0.6202656119066319862 ) ) ;
#127 = ADVANCED_FACE ( 'NONE', ( #110 ), #247, .T. ) ;
#128 = ORIENTED_EDGE ( 'NONE', *, *, #475, .F. ) ;
#129 = CIRCLE ( 'NONE', #137, 2.037126391580999396 ) ;
#130 = LINE ( 'NONE', #506, #284 ) ;
#131 = ORIENTED_EDGE ( 'NONE', *, *, #510, .F. ) ;
#132 = ORIENTED_EDGE ( 'NONE', *, *, #510, .T. ) ;
#133 = ADVANCED_FACE ( 'NONE', ( #638, #154 ), #369, .F. ) ;
#134 = LINE ( 'NONE', #672, #373 ) ;
#135 = VECTOR ( 'NONE', #321, 1000.000000000000000 ) ;
#136 = AXIS2_PLACEMENT_3D ( 'NONE', #193, #690, #202 ) ;
#137 = AXIS2_PLACEMENT_3D ( 'NONE', #99, #594, #470 ) ;
#138 = EDGE_CURVE ( 'NONE', #607, #269, #478, .T. ) ;
#139 = ORIENTED_EDGE ( 'NONE', *, *, #664, .T. ) ;
#140 = VERTEX_POINT ( 'NONE', #320 ) ;
#141 = PLANE ( 'NONE',  #293 ) ;
#142 = ADVANCED_FACE ( 'NONE', ( #383 ), #167, .F. ) ;
#143 = ORIENTED_EDGE ( 'NONE', *, *, #398, .T. ) ;
#144 = VECTOR ( 'NONE', #435, 1000.000000000000000 ) ;
#145 = DIRECTION ( 'NONE',  ( -0.2916336866210385015, 0.9565300794161268882, 0.000000000000000000 ) ) ;
#146 = LINE ( 'NONE', #515, #610 ) ;
#147 = CARTESIAN_POINT ( 'NONE',  ( 0.000000000000000000, 0.000000000000000000, 0.000000000000000000 ) ) ;
#148 = LINE ( 'NONE', #646, #686 ) ;
#149 = CARTESIAN_POINT ( 'NONE',  ( 14.02758022282399963, 43.03155656373899518, 30.27052605830599674 ) ) ;
#150 = VERTEX_POINT ( 'NONE', #551 ) ;
#151 = FACE_BOUND ( 'NONE', #322, .T. ) ;
#152 = EDGE_CURVE ( 'NONE', #560, #150, #64, .T. ) ;
#153 = CARTESIAN_POINT ( 'NONE',  ( 82.73871682489998136, 8.265857650479000895, 7.249888453816000222 ) ) ;
#154 = FACE_OUTER_BOUND ( 'NONE', #399, .T. ) ;
#155 = LINE ( 'NONE', #571, #226 ) ;
#156 = ORIENTED_EDGE ( 'NONE', *, *, #458, .F. ) ;
#157 = CARTESIAN_POINT ( 'NONE',  ( 77.64829313552399981, 0.000000000000000000, 37.15511855076000103 ) ) ;
#158 = DIRECTION ( 'NONE',  ( 0.000000000000000000, 1.000000000000000000, 0.000000000000000000 ) ) ;
#159 = VECTOR ( 'NONE', #81, 1000.000000000000227 ) ;
#160 = ORIENTED_EDGE ( 'NONE', *, *, #433, .F. ) ;
#161 = DIRECTION ( 'NONE',  ( 0.000000000000000000, 1.000000000000000000, 0.000000000000000000 ) ) ;
#162 = LINE ( 'NONE', #37, #450 ) ;
#163 = CARTESIAN_POINT ( 'NONE',  ( 77.64829313552399981, 0.000000000000000000, 37.15511855076000103 ) ) ;
#164 = EDGE_CURVE ( 'NONE', #357, #447, #498, .T. ) ;
#165 = EDGE_LOOP ( 'NONE', ( #402, #404, #26, #394 ) ) ;
#166 = CARTESIAN_POINT ( 'NONE',  ( 82.73871682489999557, 3.672465776698000006, 3.672465776698000006 ) ) ;
#167 = PLANE ( 'NONE',  #57 ) ;
#168 = CARTESIAN_POINT ( 'NONE',  ( 37.32561834520799948, 14.44291360577899930, 37.15511855076000103 ) ) ;
#169 = ORIENTED_EDGE ( 'NONE', *, *, #537, .T. ) ;
#170 = DIRECTION ( 'NONE',  ( 0.000000000000000000, 0.000000000000000000, 1.000000000000000000 ) ) ;
#171 = DIRECTION ( 'NONE',  ( 1.000000000000000000, 0.000000000000000000, 0.000000000000000000 ) ) ;
#172 = MECHANICAL_DESIGN_GEOMETRIC_PRESENTATION_REPRESENTATION (  '', ( #561 ), #584 ) ;
#173 = VECTOR ( 'NONE', #310, 1000.000000000000227 ) ;
#174 = EDGE_LOOP ( 'NONE', ( #139, #46, #585, #529 ) ) ;
#175 = VECTOR ( 'NONE', #592, 1000.000000000000000 ) ;
#176 = CARTESIAN_POINT ( 'NONE',  ( 81.72279397956198466, 58.45003588485100465, 0.000000000000000000 ) ) ;
#177 = FACE_OUTER_BOUND ( 'NONE', #186, .T. ) ;
#178 = ORIENTED_EDGE ( 'NONE', *, *, #354, .T. ) ;
#179 = DIRECTION ( 'NONE',  ( 1.000000000000000000, 0.000000000000000000, 0.000000000000000000 ) ) ;
#180 = ORIENTED_EDGE ( 'NONE', *, *, #355, .T. ) ;
#181 = ORIENTED_EDGE ( 'NONE', *, *, #386, .F. ) ;
#182 = CIRCLE ( 'NONE', #666, 3.672465776698000006 ) ;
#183 = ORIENTED_EDGE ( 'NONE', *, *, #138, .T. ) ;
#184 = ADVANCED_FACE ( 'NONE', ( #271 ), #278, .T. ) ;
#185 = CARTESIAN_POINT ( 'NONE',  ( 80.31258244090099652, 59.41423313813500329, 37.15511855076000103 ) ) ;
#186 = EDGE_LOOP ( 'NONE', ( #312, #648, #327, #630 ) ) ;
#187 = DIRECTION ( 'NONE',  ( 0.000000000000000000, 1.000000000000000000, 0.000000000000000000 ) ) ;
#188 = ADVANCED_FACE ( 'NONE', ( #217 ), #60, .F. ) ;
#189 = CARTESIAN_POINT ( 'NONE',  ( 27.29732987098200070, 47.07733211612800517, 30.95010456415799638 ) ) ;
#190 = VERTEX_POINT ( 'NONE', #55 ) ;
#191 = APPLICATION_PROTOCOL_DEFINITION ( 'draft international standard', 'automotive_design', 1998, #523 ) ;
#192 = FACE_BOUND ( 'NONE', #222, .T. ) ;
#193 = CARTESIAN_POINT ( 'NONE',  ( 22.33869928625300005, 40.45399309631100238, 30.95010456415799638 ) ) ;
#194 = DIRECTION ( 'NONE',  ( -0.8254939029437537990, 0.5644110347988319232, 0.000000000000000000 ) ) ;
#195 = ADVANCED_FACE ( 'NONE', ( #282 ), #275, .F. ) ;
#196 = PLANE ( 'NONE',  #456 ) ;
#197 = VECTOR ( 'NONE', #416, 1000.000000000000000 ) ;
#198 = CARTESIAN_POINT ( 'NONE',  ( 14.77219378965899921, 43.25857963836800479, 30.95010456415799638 ) ) ;
#199 = DIRECTION ( 'NONE',  ( 0.000000000000000000, 0.000000000000000000, -1.000000000000000000 ) ) ;
#200 = PRODUCT_RELATED_PRODUCT_CATEGORY ( 'part', '', ( #238 ) ) ;
#201 = CARTESIAN_POINT ( 'NONE',  ( 0.000000000000000000, 86.75855768305399351, 0.000000000000000000 ) ) ;
#202 = DIRECTION ( 'NONE',  ( 0.000000000000000000, -1.000000000000000000, 0.000000000000000000 ) ) ;
#203 = CARTESIAN_POINT ( 'NONE',  ( 0.000000000000000000, 0.000000000000000000, 0.000000000000000000 ) ) ;
#204 = EDGE_LOOP ( 'NONE', ( #346, #480, #554, #391, #253, #437, #640 ) ) ;
#205 = LINE ( 'NONE', #157, #541 ) ;
#206 =( LENGTH_UNIT ( ) NAMED_UNIT ( * ) SI_UNIT ( .MILLI., .METRE. ) );
#207 = CARTESIAN_POINT ( 'NONE',  ( 0.000000000000000000, 14.44291360577899930, 37.15511855076000103 ) ) ;
#208 = CARTESIAN_POINT ( 'NONE',  ( 25.75909706668300103, 32.70345973257499850, 30.95010456415799638 ) ) ;
#209 = VERTEX_POINT ( 'NONE', #658 ) ;
#210 = CARTESIAN_POINT ( 'NONE',  ( 27.29732987098200070, 47.07733211612800517, 0.000000000000000000 ) ) ;
#211 = DIRECTION ( 'NONE',  ( 0.000000000000000000, 1.000000000000000000, 0.000000000000000000 ) ) ;
#212 = VECTOR ( 'NONE', #248, 1000.000000000000227 ) ;
#213 = ADVANCED_FACE ( 'NONE', ( #17 ), #9, .F. ) ;
#214 = CARTESIAN_POINT ( 'NONE',  ( 81.72279397956198466, 58.45003588485100465, 37.15511855076000103 ) ) ;
#215 = EDGE_LOOP ( 'NONE', ( #424, #508, #156, #93 ) ) ;
#216 = DIRECTION ( 'NONE',  ( 0.000000000000000000, 1.000000000000000000, 0.000000000000000000 ) ) ;
#217 = FACE_OUTER_BOUND ( 'NONE', #165, .T. ) ;
#218 = CARTESIAN_POINT ( 'NONE',  ( 0.000000000000000000, 86.75855768305399351, 37.15511855076000103 ) ) ;
#219 = VERTEX_POINT ( 'NONE', #176 ) ;
#220 = LINE ( 'NONE', #488, #543 ) ;
#221 = LINE ( 'NONE', #123, #497 ) ;
#222 = EDGE_LOOP ( 'NONE', ( #50, #22, #39 ) ) ;
#223 = EDGE_CURVE ( 'NONE', #4, #676, #220, .T. ) ;
#224 = CARTESIAN_POINT ( 'NONE',  ( 80.31258244090099652, 59.41423313813500329, 37.15511855076000103 ) ) ;
#225 = DIRECTION ( 'NONE',  ( 0.000000000000000000, 0.000000000000000000, -1.000000000000000000 ) ) ;
#226 = VECTOR ( 'NONE', #303, 1000.000000000000000 ) ;
#227 = VECTOR ( 'NONE', #250, 1000.000000000000114 ) ;
#228 = ORIENTED_EDGE ( 'NONE', *, *, #553, .F. ) ;
#229 = EDGE_CURVE ( 'NONE', #364, #364, #24, .T. ) ;
#230 = DIRECTION ( 'NONE',  ( 1.000000000000000000, 0.000000000000000000, 5.884703543504000734E-15 ) ) ;
#231 = DIRECTION ( 'NONE',  ( -0.6927945429867093941, -0.7211350228686973507, 0.000000000000000000 ) ) ;
#232 = EDGE_LOOP ( 'NONE', ( #281, #341, #298, #143 ) ) ;
#233 = SURFACE_STYLE_USAGE ( .BOTH. , #21 ) ;
#234 = ORIENTED_EDGE ( 'NONE', *, *, #420, .F. ) ;
#235 = ADVANCED_FACE ( 'NONE', ( #334, #547 ), #6, .T. ) ;
#236 = VECTOR ( 'NONE', #311, 1000.000000000000000 ) ;
#237 = VERTEX_POINT ( 'NONE', #649 ) ;
#238 = PRODUCT ( '20260414_160844_171', '20260414_160844_171', '', ( #407 ) ) ;
#239 = CARTESIAN_POINT ( 'NONE',  ( 37.32561834520799948, 14.44291360577899930, 37.15511855076000103 ) ) ;
#240 = VERTEX_POINT ( 'NONE', #481 ) ;
#241 = ADVANCED_FACE ( 'NONE', ( #51 ), #533, .T. ) ;
#242 =( LENGTH_UNIT ( ) NAMED_UNIT ( * ) SI_UNIT ( .MILLI., .METRE. ) );
#243 = ORIENTED_EDGE ( 'NONE', *, *, #524, .F. ) ;
#244 = VECTOR ( 'NONE', #632, 1000.000000000000000 ) ;
#245 = EDGE_CURVE ( 'NONE', #493, #82, #47, .T. ) ;
#246 = VERTEX_POINT ( 'NONE', #265 ) ;
#247 = PLANE ( 'NONE',  #136 ) ;
#248 = DIRECTION ( 'NONE',  ( 0.9565300794161267772, 0.2916336866210384460, 0.000000000000000000 ) ) ;
#249 = ORIENTED_EDGE ( 'NONE', *, *, #28, .F. ) ;
#250 = DIRECTION ( 'NONE',  ( -0.7211350228686972397, 0.6927945429867092830, 0.000000000000000000 ) ) ;
#251 = DIRECTION ( 'NONE',  ( 1.000000000000000000, 0.000000000000000000, 0.000000000000000000 ) ) ;
#252 = ADVANCED_FACE ( 'NONE', ( #413 ), #109, .T. ) ;
#253 = ORIENTED_EDGE ( 'NONE', *, *, #360, .F. ) ;
#254 = DIRECTION ( 'NONE',  ( 0.000000000000000000, 0.000000000000000000, -1.000000000000000000 ) ) ;
#255 = VECTOR ( 'NONE', #268, 1000.000000000000000 ) ;
#256 = VECTOR ( 'NONE', #91, 1000.000000000000114 ) ;
#257 = DIRECTION ( 'NONE',  ( 1.000000000000000000, 0.000000000000000000, 0.000000000000000000 ) ) ;
#258 = AXIS2_PLACEMENT_3D ( 'NONE', #645, #486, #113 ) ;
#259 = DIRECTION ( 'NONE',  ( -1.000000000000000000, 0.000000000000000000, 0.000000000000000000 ) ) ;
#260 = LINE ( 'NONE', #54, #29 ) ;
#261 = DIRECTION ( 'NONE',  ( 1.000000000000000000, 0.000000000000000000, 0.000000000000000000 ) ) ;
#262 = DIRECTION ( 'NONE',  ( -6.812433369460204893E-15, 0.000000000000000000, 1.000000000000000000 ) ) ;
#263 = CARTESIAN_POINT ( 'NONE',  ( 82.73871682489999557, 86.75855768305399351, 0.000000000000000000 ) ) ;
#264 = VERTEX_POINT ( 'NONE', #328 ) ;
#265 = CARTESIAN_POINT ( 'NONE',  ( 0.000000000000000000, 14.44291360577899930, 37.15511855076000103 ) ) ;
#266 = EDGE_CURVE ( 'NONE', #429, #104, #536, .T. ) ;
#267 = CARTESIAN_POINT ( 'NONE',  ( 80.31258244090099652, 59.41423313813500329, 0.000000000000000000 ) ) ;
#268 = DIRECTION ( 'NONE',  ( 0.000000000000000000, 1.000000000000000000, 0.000000000000000000 ) ) ;
#269 = VERTEX_POINT ( 'NONE', #636 ) ;
#270 = DIRECTION ( 'NONE',  ( 1.000000000000000000, 0.000000000000000000, 0.000000000000000000 ) ) ;
#271 = FACE_OUTER_BOUND ( 'NONE', #232, .T. ) ;
#272 = AXIS2_PLACEMENT_3D ( 'NONE', #331, #544, #491 ) ;
#273 = LINE ( 'NONE', #218, #505 ) ;
#274 = ORIENTED_EDGE ( 'NONE', *, *, #360, .T. ) ;
#275 = PLANE ( 'NONE',  #487 ) ;
#276 = CARTESIAN_POINT ( 'NONE',  ( 14.02758022282399963, 43.03155656373899518, 0.000000000000000000 ) ) ;
#277 = ORIENTED_EDGE ( 'NONE', *, *, #114, .F. ) ;
#278 = PLANE ( 'NONE',  #629 ) ;
#279 = LINE ( 'NONE', #62, #350 ) ;
#280 = EDGE_CURVE ( 'NONE', #556, #20, #376, .T. ) ;
#281 = ORIENTED_EDGE ( 'NONE', *, *, #296, .T. ) ;
#282 = FACE_OUTER_BOUND ( 'NONE', #304, .T. ) ;
#283 = LINE ( 'NONE', #489, #525 ) ;
#284 = VECTOR ( 'NONE', #25, 1000.000000000000000 ) ;
#285 = ORIENTED_EDGE ( 'NONE', *, *, #566, .F. ) ;
#286 = ORIENTED_EDGE ( 'NONE', *, *, #381, .T. ) ;
#287 = PRESENTATION_STYLE_ASSIGNMENT (( #233 ) ) ;
#288 = EDGE_LOOP ( 'NONE', ( #35, #180, #569, #128, #485 ) ) ;
#289 = FILL_AREA_STYLE ('',( #557 ) ) ;
#290 = AXIS2_PLACEMENT_3D ( 'NONE', #682, #430, #520 ) ;
#291 = EDGE_LOOP ( 'NONE', ( #504 ) ) ;
#292 = AXIS2_PLACEMENT_3D ( 'NONE', #408, #48, #262 ) ;
#293 = AXIS2_PLACEMENT_3D ( 'NONE', #588, #465, #479 ) ;
#294 = FACE_OUTER_BOUND ( 'NONE', #204, .T. ) ;
#295 = EDGE_CURVE ( 'NONE', #209, #400, #40, .T. ) ;
#296 = EDGE_CURVE ( 'NONE', #264, #269, #309, .T. ) ;
#297 = ORIENTED_EDGE ( 'NONE', *, *, #295, .T. ) ;
#298 = ORIENTED_EDGE ( 'NONE', *, *, #386, .T. ) ;
#299 = AXIS2_PLACEMENT_3D ( 'NONE', #431, #650, #270 ) ;
#300 = EDGE_CURVE ( 'NONE', #624, #58, #260, .T. ) ;
#301 =( NAMED_UNIT ( * ) PLANE_ANGLE_UNIT ( ) SI_UNIT ( $, .RADIAN. ) );
#302 = ORIENTED_EDGE ( 'NONE', *, *, #330, .F. ) ;
#303 = DIRECTION ( 'NONE',  ( 0.000000000000000000, 0.000000000000000000, -1.000000000000000000 ) ) ;
#304 = EDGE_LOOP ( 'NONE', ( #655, #121, #84, #8 ) ) ;
#305 = EDGE_CURVE ( 'NONE', #246, #82, #368, .T. ) ;
#306 = DIRECTION ( 'NONE',  ( 0.000000000000000000, 1.000000000000000000, 0.000000000000000000 ) ) ;
#307 = LINE ( 'NONE', #680, #671 ) ;
#308 = EDGE_LOOP ( 'NONE', ( #572, #66, #243, #19, #567, #74, #274, #88 ) ) ;
#309 = LINE ( 'NONE', #527, #80 ) ;
#310 = DIRECTION ( 'NONE',  ( -0.1252262832120552283, -0.9921282064294382197, 0.000000000000000000 ) ) ;
#311 = DIRECTION ( 'NONE',  ( 1.000000000000000000, 0.000000000000000000, 0.000000000000000000 ) ) ;
#312 = ORIENTED_EDGE ( 'NONE', *, *, #85, .T. ) ;
#313 = CARTESIAN_POINT ( 'NONE',  ( 25.66764983548300094, 31.84893964470900229, 0.000000000000000000 ) ) ;
#314 = AXIS2_PLACEMENT_3D ( 'NONE', #163, #539, #7 ) ;
#315 = PLANE ( 'NONE',  #469 ) ;
#316 = DIRECTION ( 'NONE',  ( 0.7205809497231728811, 0.2196958395750524262, 0.6576449140451577913 ) ) ;
#317 = EDGE_CURVE ( 'NONE', #447, #219, #476, .T. ) ;
#318 = EDGE_LOOP ( 'NONE', ( #597, #131, #234, #502, #371, #550, #30, #451 ) ) ;
#319 = CARTESIAN_POINT ( 'NONE',  ( 82.73871682489999557, 0.000000000000000000, 37.15511855076000103 ) ) ;
#320 = CARTESIAN_POINT ( 'NONE',  ( 37.32561834520799948, 14.44291360577899930, 33.07541819615499890 ) ) ;
#321 = DIRECTION ( 'NONE',  ( 0.000000000000000000, 0.000000000000000000, -1.000000000000000000 ) ) ;
#322 = EDGE_LOOP ( 'NONE', ( #434 ) ) ;
#323 = ADVANCED_FACE ( 'NONE', ( #151, #581 ), #196, .F. ) ;
#324 = DIRECTION ( 'NONE',  ( 0.000000000000000000, 1.000000000000000000, 0.000000000000000000 ) ) ;
#325 = CARTESIAN_POINT ( 'NONE',  ( 14.02758022282399963, 43.03155656373899518, 0.000000000000000000 ) ) ;
#326 = CARTESIAN_POINT ( 'NONE',  ( 0.000000000000000000, 3.672465776698000006, -8.881784197000999888E-16 ) ) ;
#327 = ORIENTED_EDGE ( 'NONE', *, *, #578, .F. ) ;
#328 = CARTESIAN_POINT ( 'NONE',  ( 0.000000000000000000, 14.44291360577899930, 33.07541819615499890 ) ) ;
#329 = VECTOR ( 'NONE', #126, 1000.000000000000000 ) ;
#330 = EDGE_CURVE ( 'NONE', #611, #603, #205, .T. ) ;
#331 = CARTESIAN_POINT ( 'NONE',  ( 37.32561834520799948, 14.44291360577899930, 37.15511855076000103 ) ) ;
#332 = DIRECTION ( 'NONE',  ( -0.8254939029437537990, 0.5644110347988319232, 0.000000000000000000 ) ) ;
#333 = ORIENTED_EDGE ( 'NONE', *, *, #568, .T. ) ;
#334 = FACE_BOUND ( 'NONE', #540, .T. ) ;
#335 = PRODUCT_DEFINITION ( 'ๆ', '', #2, #83 ) ;
#336 = DIRECTION ( 'NONE',  ( 1.000000000000000000, 0.000000000000000000, 0.000000000000000000 ) ) ;
#337 =( GEOMETRIC_REPRESENTATION_CONTEXT ( 3 ) GLOBAL_UNCERTAINTY_ASSIGNED_CONTEXT ( ( #41 ) ) GLOBAL_UNIT_ASSIGNED_CONTEXT ( ( #206, #301, #678 ) ) REPRESENTATION_CONTEXT ( 'NONE', 'WORKASPACE' ) );
#338 = ORIENTED_EDGE ( 'NONE', *, *, #503, .T. ) ;
#339 = DIRECTION ( 'NONE',  ( 0.000000000000000000, 0.000000000000000000, -1.000000000000000000 ) ) ;
#340 = CARTESIAN_POINT ( 'NONE',  ( 25.66764983548300094, 31.84893964470900229, 30.27052605830599674 ) ) ;
#341 = ORIENTED_EDGE ( 'NONE', *, *, #532, .T. ) ;
#342 = CARTESIAN_POINT ( 'NONE',  ( 77.64829313552399981, 39.63237300315499567, 8.719835787891001999 ) ) ;
#343 = VECTOR ( 'NONE', #693, 1000.000000000000000 ) ;
#344 = EDGE_LOOP ( 'NONE', ( #69 ) ) ;
#345 = EDGE_CURVE ( 'NONE', #112, #560, #16, .T. ) ;
#346 = ORIENTED_EDGE ( 'NONE', *, *, #152, .F. ) ;
#347 = ORIENTED_EDGE ( 'NONE', *, *, #31, .T. ) ;
#348 = EDGE_CURVE ( 'NONE', #32, #32, #129, .T. ) ;
#349 =( NAMED_UNIT ( * ) SI_UNIT ( $, .STERADIAN. ) SOLID_ANGLE_UNIT ( ) );
#350 = VECTOR ( 'NONE', #332, 1000.000000000000114 ) ;
#351 = VECTOR ( 'NONE', #388, 1000.000000000000000 ) ;
#352 = VECTOR ( 'NONE', #651, 1000.000000000000000 ) ;
#353 = LINE ( 'NONE', #189, #675 ) ;
#354 = EDGE_CURVE ( 'NONE', #20, #237, #688, .T. ) ;
#355 = EDGE_CURVE ( 'NONE', #556, #676, #419, .T. ) ;
#356 = ORIENTED_EDGE ( 'NONE', *, *, #266, .F. ) ;
#357 = VERTEX_POINT ( 'NONE', #586 ) ;
#358 = FACE_OUTER_BOUND ( 'NONE', #526, .T. ) ;
#359 = VECTOR ( 'NONE', #158, 1000.000000000000000 ) ;
#360 = EDGE_CURVE ( 'NONE', #240, #76, #105, .T. ) ;
#361 = CARTESIAN_POINT ( 'NONE',  ( 26.13845811586900325, 32.33900750606700569, 30.95010456415799638 ) ) ;
#362 = LINE ( 'NONE', #415, #614 ) ;
#363 = DIRECTION ( 'NONE',  ( 1.000000000000000000, 0.000000000000000000, 0.000000000000000000 ) ) ;
#364 = VERTEX_POINT ( 'NONE', #511 ) ;
#365 = DIRECTION ( 'NONE',  ( -1.000000000000000000, 0.000000000000000000, 0.000000000000000000 ) ) ;
#366 = CARTESIAN_POINT ( 'NONE',  ( 0.000000000000000000, -8.881784197000999888E-16, 3.672465776698000006 ) ) ;
#367 = VERTEX_POINT ( 'NONE', #149 ) ;
#368 = LINE ( 'NONE', #425, #643 ) ;
#369 = CYLINDRICAL_SURFACE ( 'NONE', #292, 2.037126391580999396 ) ;
#370 = DIRECTION ( 'NONE',  ( -0.000000000000000000, 1.000000000000000000, 0.000000000000000000 ) ) ;
#371 = ORIENTED_EDGE ( 'NONE', *, *, #532, .F. ) ;
#372 = DIRECTION ( 'NONE',  ( 0.000000000000000000, 0.000000000000000000, 1.000000000000000000 ) ) ;
#373 = VECTOR ( 'NONE', #565, 1000.000000000000000 ) ;
#374 = CARTESIAN_POINT ( 'NONE',  ( 0.000000000000000000, 0.000000000000000000, 0.000000000000000000 ) ) ;
#375 = ORIENTED_EDGE ( 'NONE', *, *, #631, .F. ) ;
#376 = LINE ( 'NONE', #210, #656 ) ;
#377 = CARTESIAN_POINT ( 'NONE',  ( 25.66764983548300094, 31.84893964470900229, 0.000000000000000000 ) ) ;
#378 = AXIS2_PLACEMENT_3D ( 'NONE', #579, #36, #95 ) ;
#379 = DIRECTION ( 'NONE',  ( -0.000000000000000000, 1.000000000000000000, 0.000000000000000000 ) ) ;
#380 = VERTEX_POINT ( 'NONE', #519 ) ;
#381 = EDGE_CURVE ( 'NONE', #661, #140, #405, .T. ) ;
#382 = DIRECTION ( 'NONE',  ( 0.000000000000000000, 0.000000000000000000, 1.000000000000000000 ) ) ;
#383 = FACE_OUTER_BOUND ( 'NONE', #215, .T. ) ;
#384 = CARTESIAN_POINT ( 'NONE',  ( 0.000000000000000000, 86.75855768305399351, 0.000000000000000000 ) ) ;
#385 = VERTEX_POINT ( 'NONE', #628 ) ;
#386 = EDGE_CURVE ( 'NONE', #104, #140, #89, .T. ) ;
#387 = VECTOR ( 'NONE', #613, 1000.000000000000000 ) ;
#388 = DIRECTION ( 'NONE',  ( 0.000000000000000000, 0.000000000000000000, 1.000000000000000000 ) ) ;
#389 = LINE ( 'NONE', #168, #390 ) ;
#390 = VECTOR ( 'NONE', #111, 1000.000000000000000 ) ;
#391 = ORIENTED_EDGE ( 'NONE', *, *, #433, .T. ) ;
#392 = DIRECTION ( 'NONE',  ( 0.9565300794161267772, 0.2916336866210384460, 0.000000000000000000 ) ) ;
#393 = LINE ( 'NONE', #342, #387 ) ;
#394 = ORIENTED_EDGE ( 'NONE', *, *, #657, .T. ) ;
#395 = PLANE ( 'NONE',  #314 ) ;
#396 = EDGE_CURVE ( 'NONE', #570, #556, #43, .T. ) ;
#397 = ORIENTED_EDGE ( 'NONE', *, *, #559, .F. ) ;
#398 = EDGE_CURVE ( 'NONE', #140, #264, #146, .T. ) ;
#399 = EDGE_LOOP ( 'NONE', ( #118 ) ) ;
#400 = VERTEX_POINT ( 'NONE', #92 ) ;
#401 = EDGE_CURVE ( 'NONE', #219, #58, #307, .T. ) ;
#402 = ORIENTED_EDGE ( 'NONE', *, *, #458, .T. ) ;
#403 = CARTESIAN_POINT ( 'NONE',  ( 27.29732987098200070, 47.07733211612800517, 30.95010456415799638 ) ) ;
#404 = ORIENTED_EDGE ( 'NONE', *, *, #317, .F. ) ;
#405 = LINE ( 'NONE', #423, #23 ) ;
#406 = ORIENTED_EDGE ( 'NONE', *, *, #31, .F. ) ;
#407 = PRODUCT_CONTEXT ( 'NONE', #523, 'mechanical' ) ;
#408 = CARTESIAN_POINT ( 'NONE',  ( 82.73871682489999557, 8.265857650479000895, 5.212762062234999938 ) ) ;
#409 = CARTESIAN_POINT ( 'NONE',  ( 37.32561834520799948, 0.000000000000000000, 33.07541819615499890 ) ) ;
#410 = AXIS2_PLACEMENT_3D ( 'NONE', #548, #231, #72 ) ;
#411 = ORIENTED_EDGE ( 'NONE', *, *, #223, .T. ) ;
#412 = AXIS2_PLACEMENT_3D ( 'NONE', #42, #257, #211 ) ;
#413 = FACE_OUTER_BOUND ( 'NONE', #174, .T. ) ;
#414 = CARTESIAN_POINT ( 'NONE',  ( 25.90305397567600210, 32.09397357538799866, 30.61031531123200011 ) ) ;
#415 = CARTESIAN_POINT ( 'NONE',  ( 0.000000000000000000, 0.000000000000000000, 37.15511855076000103 ) ) ;
#416 = DIRECTION ( 'NONE',  ( 0.000000000000000000, 0.000000000000000000, -1.000000000000000000 ) ) ;
#417 = CARTESIAN_POINT ( 'NONE',  ( 82.73871682489999557, 0.000000000000000000, 0.000000000000000000 ) ) ;
#418 = ORIENTED_EDGE ( 'NONE', *, *, #280, .F. ) ;
#419 = LINE ( 'NONE', #641, #101 ) ;
#420 = EDGE_CURVE ( 'NONE', #429, #611, #362, .T. ) ;
#421 = SHAPE_DEFINITION_REPRESENTATION ( #618, #677 ) ;
#422 = DIRECTION ( 'NONE',  ( -0.8220048565213488034, 0.000000000000000000, -0.5694804789062719586 ) ) ;
#423 = CARTESIAN_POINT ( 'NONE',  ( 37.32561834520799948, 14.44291360577899930, 37.15511855076000103 ) ) ;
#424 = ORIENTED_EDGE ( 'NONE', *, *, #300, .T. ) ;
#425 = CARTESIAN_POINT ( 'NONE',  ( 0.000000000000000000, 0.000000000000000000, 37.15511855076000103 ) ) ;
#426 = VECTOR ( 'NONE', #5, 1000.000000000000000 ) ;
#427 = DIRECTION ( 'NONE',  ( 0.000000000000000000, 0.000000000000000000, 1.000000000000000000 ) ) ;
#428 = PLANE ( 'NONE',  #45 ) ;
#429 = VERTEX_POINT ( 'NONE', #49 ) ;
#430 = DIRECTION ( 'NONE',  ( 1.000000000000000000, 0.000000000000000000, 0.000000000000000000 ) ) ;
#431 = CARTESIAN_POINT ( 'NONE',  ( 0.000000000000000000, 0.000000000000000000, 37.15511855076000103 ) ) ;
#432 = LINE ( 'NONE', #552, #598 ) ;
#433 = EDGE_CURVE ( 'NONE', #380, #76, #623, .T. ) ;
#434 = ORIENTED_EDGE ( 'NONE', *, *, #229, .T. ) ;
#435 = DIRECTION ( 'NONE',  ( 0.000000000000000000, 0.000000000000000000, -1.000000000000000000 ) ) ;
#436 = PLANE ( 'NONE',  #410 ) ;
#437 = ORIENTED_EDGE ( 'NONE', *, *, #664, .F. ) ;
#438 = VECTOR ( 'NONE', #324, 1000.000000000000000 ) ;
#439 = CARTESIAN_POINT ( 'NONE',  ( 82.73871682489999557, 0.000000000000000000, 0.000000000000000000 ) ) ;
#440 = CLOSED_SHELL ( 'NONE', ( #124, #615, #127, #71, #252, #448, #133, #235, #213, #184, #467, #188, #142, #195, #11, #444, #600, #670, #549, #241, #323, #698 ) ) ;
#441 = CARTESIAN_POINT ( 'NONE',  ( 0.000000000000000000, 86.75855768305399351, 0.000000000000000000 ) ) ;
#442 = COLOUR_RGB ( '',0.7921568627450980005, 0.8196078431372548767, 0.9333333333333333481 ) ;
#443 = ORIENTED_EDGE ( 'NONE', *, *, #245, .T. ) ;
#444 = ADVANCED_FACE ( 'NONE', ( #574 ), #141, .F. ) ;
#445 = CARTESIAN_POINT ( 'NONE',  ( 80.09903591367401532, 57.72237159267599793, 37.15511855076000103 ) ) ;
#446 = LINE ( 'NONE', #68, #352 ) ;
#447 = VERTEX_POINT ( 'NONE', #639 ) ;
#448 = ADVANCED_FACE ( 'NONE', ( #358 ), #685, .F. ) ;
#449 = EDGE_LOOP ( 'NONE', ( #516, #696, #644, #535, #178 ) ) ;
#450 = VECTOR ( 'NONE', #365, 1000.000000000000000 ) ;
#451 = ORIENTED_EDGE ( 'NONE', *, *, #152, .T. ) ;
#452 = EDGE_LOOP ( 'NONE', ( #411, #667, #12 ) ) ;
#453 = EDGE_CURVE ( 'NONE', #607, #560, #634, .T. ) ;
#454 = CARTESIAN_POINT ( 'NONE',  ( 82.73871682489999557, 0.000000000000000000, 0.000000000000000000 ) ) ;
#455 =( NAMED_UNIT ( * ) PLANE_ANGLE_UNIT ( ) SI_UNIT ( $, .RADIAN. ) );
#456 = AXIS2_PLACEMENT_3D ( 'NONE', #147, #363, #161 ) ;
#457 = EDGE_LOOP ( 'NONE', ( #573, #277, #63, #53 ) ) ;
#458 = EDGE_CURVE ( 'NONE', #531, #219, #155, .T. ) ;
#459 = DIRECTION ( 'NONE',  ( 0.000000000000000000, 0.000000000000000000, 1.000000000000000000 ) ) ;
#460 = ORIENTED_EDGE ( 'NONE', *, *, #245, .F. ) ;
#461 = FACE_OUTER_BOUND ( 'NONE', #474, .T. ) ;
#462 = DIRECTION ( 'NONE',  ( 0.000000000000000000, 0.000000000000000000, -1.000000000000000000 ) ) ;
#463 = CARTESIAN_POINT ( 'NONE',  ( 35.97668941596199943, 37.94956386482699884, 0.000000000000000000 ) ) ;
#464 = LINE ( 'NONE', #96, #173 ) ;
#465 = DIRECTION ( 'NONE',  ( 0.9943225185314489289, -0.1064083133090479860, 0.000000000000000000 ) ) ;
#466 = PRESENTATION_LAYER_ASSIGNMENT (  '', '', ( #561 ) ) ;
#467 = ADVANCED_FACE ( 'NONE', ( #522 ), #691, .F. ) ;
#468 = VERTEX_POINT ( 'NONE', #208 ) ;
#469 = AXIS2_PLACEMENT_3D ( 'NONE', #414, #521, #422 ) ;
#470 = DIRECTION ( 'NONE',  ( -6.812433369460204893E-15, 0.000000000000000000, 1.000000000000000000 ) ) ;
#471 = VECTOR ( 'NONE', #18, 1000.000000000000000 ) ;
#472 = FACE_OUTER_BOUND ( 'NONE', #673, .T. ) ;
#473 = CARTESIAN_POINT ( 'NONE',  ( 77.64829313552399981, 0.000000000000000000, 8.719835787891001999 ) ) ;
#474 = EDGE_LOOP ( 'NONE', ( #652, #490, #500, #249 ) ) ;
#475 = EDGE_CURVE ( 'NONE', #367, #4, #695, .T. ) ;
#476 = LINE ( 'NONE', #463, #426 ) ;
#477 = PLANE ( 'NONE',  #378 ) ;
#478 = LINE ( 'NONE', #374, #563 ) ;
#479 = DIRECTION ( 'NONE',  ( 0.000000000000000000, 0.000000000000000000, -1.000000000000000000 ) ) ;
#480 = ORIENTED_EDGE ( 'NONE', *, *, #345, .F. ) ;
#481 = CARTESIAN_POINT ( 'NONE',  ( 82.73871682489999557, 39.63237300315499567, 37.15511855076000103 ) ) ;
#482 = EDGE_CURVE ( 'NONE', #603, #400, #530, .T. ) ;
#483 = ORIENTED_EDGE ( 'NONE', *, *, #305, .T. ) ;
#484 = DIRECTION ( 'NONE',  ( 1.000000000000000000, 0.000000000000000000, 0.000000000000000000 ) ) ;
#485 = ORIENTED_EDGE ( 'NONE', *, *, #513, .F. ) ;
#486 = DIRECTION ( 'NONE',  ( 0.000000000000000000, -1.000000000000000000, 0.000000000000000000 ) ) ;
#487 = AXIS2_PLACEMENT_3D ( 'NONE', #224, #115, #170 ) ;
#488 = CARTESIAN_POINT ( 'NONE',  ( 14.02758022282399963, 43.03155656373899518, 30.95010456415799638 ) ) ;
#489 = CARTESIAN_POINT ( 'NONE',  ( 0.000000000000000000, 0.000000000000000000, 33.07541819615499890 ) ) ;
#490 = ORIENTED_EDGE ( 'NONE', *, *, #578, .T. ) ;
#491 = DIRECTION ( 'NONE',  ( 1.000000000000000000, 0.000000000000000000, 0.000000000000000000 ) ) ;
#492 = DIRECTION ( 'NONE',  ( -0.7211350228686972397, 0.6927945429867092830, 0.000000000000000000 ) ) ;
#493 = VERTEX_POINT ( 'NONE', #120 ) ;
#494 = CARTESIAN_POINT ( 'NONE',  ( 18.66280917260399974, 7.221456802889999693, 33.07541819615499890 ) ) ;
#495 = CARTESIAN_POINT ( 'NONE',  ( 77.64829313552399981, 0.000000000000000000, 37.15511855076000103 ) ) ;
#496 = EDGE_LOOP ( 'NONE', ( #73, #406, #483, #460, #285, #612, #183 ) ) ;
#497 = VECTOR ( 'NONE', #484, 1000.000000000000000 ) ;
#498 = LINE ( 'NONE', #445, #144 ) ;
#499 = LINE ( 'NONE', #608, #471 ) ;
#500 = ORIENTED_EDGE ( 'NONE', *, *, #475, .T. ) ;
#501 = LINE ( 'NONE', #562, #159 ) ;
#502 = ORIENTED_EDGE ( 'NONE', *, *, #266, .T. ) ;
#503 = EDGE_CURVE ( 'NONE', #209, #150, #221, .T. ) ;
#504 = ORIENTED_EDGE ( 'NONE', *, *, #229, .F. ) ;
#505 = VECTOR ( 'NONE', #336, 1000.000000000000000 ) ;
#506 = CARTESIAN_POINT ( 'NONE',  ( 80.09903591367401532, 57.72237159267599793, 37.15511855076000103 ) ) ;
#507 = EDGE_CURVE ( 'NONE', #82, #76, #273, .T. ) ;
#508 = ORIENTED_EDGE ( 'NONE', *, *, #401, .F. ) ;
#509 = EDGE_LOOP ( 'NONE', ( #169, #347, #620, #108 ) ) ;
#510 = EDGE_CURVE ( 'NONE', #611, #209, #10, .T. ) ;
#511 = CARTESIAN_POINT ( 'NONE',  ( -1.198788489510222944E-14, 8.265857650479000895, 7.249888453816000222 ) ) ;
#512 = VECTOR ( 'NONE', #674, 1000.000000000000000 ) ;
#513 = EDGE_CURVE ( 'NONE', #570, #367, #432, .T. ) ;
#514 = EDGE_LOOP ( 'NONE', ( #333, #593, #665, #692 ) ) ;
#515 = CARTESIAN_POINT ( 'NONE',  ( 37.32561834520799948, 14.44291360577899930, 33.07541819615499890 ) ) ;
#516 = ORIENTED_EDGE ( 'NONE', *, *, #605, .T. ) ;
#517 = FACE_OUTER_BOUND ( 'NONE', #457, .T. ) ;
#518 = DIRECTION ( 'NONE',  ( 0.000000000000000000, 0.000000000000000000, 1.000000000000000000 ) ) ;
#519 = CARTESIAN_POINT ( 'NONE',  ( 82.73871682489999557, 86.75855768305399351, 0.000000000000000000 ) ) ;
#520 = DIRECTION ( 'NONE',  ( 0.000000000000000000, 0.000000000000000000, -1.000000000000000000 ) ) ;
#521 = DIRECTION ( 'NONE',  ( 0.4898797193147212958, 0.5099194648217099113, -0.7071067811865977548 ) ) ;
#522 = FACE_OUTER_BOUND ( 'NONE', #318, .T. ) ;
#523 = APPLICATION_CONTEXT ( 'automotive_design' ) ;
#524 = EDGE_CURVE ( 'NONE', #429, #661, #446, .T. ) ;
#525 = VECTOR ( 'NONE', #171, 1000.000000000000000 ) ;
#526 = EDGE_LOOP ( 'NONE', ( #338, #125, #90, #589 ) ) ;
#527 = CARTESIAN_POINT ( 'NONE',  ( 0.000000000000000000, 14.44291360577899930, 33.07541819615499890 ) ) ;
#528 = FACE_BOUND ( 'NONE', #668, .T. ) ;
#529 = ORIENTED_EDGE ( 'NONE', *, *, #619, .T. ) ;
#530 = LINE ( 'NONE', #107, #135 ) ;
#531 = VERTEX_POINT ( 'NONE', #214 ) ;
#532 = EDGE_CURVE ( 'NONE', #269, #104, #283, .T. ) ;
#533 = CYLINDRICAL_SURFACE ( 'NONE', #290, 3.672465776698000006 ) ;
#534 = FACE_OUTER_BOUND ( 'NONE', #288, .T. ) ;
#535 = ORIENTED_EDGE ( 'NONE', *, *, #280, .T. ) ;
#536 = LINE ( 'NONE', #697, #197 ) ;
#537 = EDGE_CURVE ( 'NONE', #661, #246, #389, .T. ) ;
#538 = CARTESIAN_POINT ( 'NONE',  ( 80.09903591367401532, 57.72237159267599793, 37.15511855076000103 ) ) ;
#539 = DIRECTION ( 'NONE',  ( -1.000000000000000000, 0.000000000000000000, 0.000000000000000000 ) ) ;
#540 = EDGE_LOOP ( 'NONE', ( #375, #397, #635 ) ) ;
#541 = VECTOR ( 'NONE', #216, 1000.000000000000000 ) ;
#542 = DIRECTION ( 'NONE',  ( -0.1064083133090479721, -0.9943225185314488179, 0.000000000000000000 ) ) ;
#543 = VECTOR ( 'NONE', #392, 1000.000000000000227 ) ;
#544 = DIRECTION ( 'NONE',  ( -0.000000000000000000, 1.000000000000000000, 0.000000000000000000 ) ) ;
#545 = LINE ( 'NONE', #340, #564 ) ;
#546 = ORIENTED_EDGE ( 'NONE', *, *, #85, .F. ) ;
#547 = FACE_OUTER_BOUND ( 'NONE', #308, .T. ) ;
#548 = CARTESIAN_POINT ( 'NONE',  ( 25.66764983548300094, 31.84893964470900229, 0.000000000000000000 ) ) ;
#549 = ADVANCED_FACE ( 'NONE', ( #116 ), #428, .T. ) ;
#550 = ORIENTED_EDGE ( 'NONE', *, *, #138, .F. ) ;
#551 = CARTESIAN_POINT ( 'NONE',  ( 82.73871682489999557, 0.000000000000000000, 8.719835787891001999 ) ) ;
#552 = CARTESIAN_POINT ( 'NONE',  ( 14.02758022282399963, 43.03155656373899518, 0.000000000000000000 ) ) ;
#553 = EDGE_CURVE ( 'NONE', #493, #380, #662, .T. ) ;
#554 = ORIENTED_EDGE ( 'NONE', *, *, #114, .T. ) ;
#555 = CARTESIAN_POINT ( 'NONE',  ( 82.73871682489999557, -8.881784197000999888E-16, 3.672465776698000006 ) ) ;
#556 = VERTEX_POINT ( 'NONE', #596 ) ;
#557 = FILL_AREA_STYLE_COLOUR ( '', #442 ) ;
#558 = EDGE_LOOP ( 'NONE', ( #132, #297, #609, #302 ) ) ;
#559 = EDGE_CURVE ( 'NONE', #531, #624, #279, .T. ) ;
#560 = VERTEX_POINT ( 'NONE', #555 ) ;
#561 = STYLED_ITEM ( 'NONE', ( #287 ), #637 ) ;
#562 = CARTESIAN_POINT ( 'NONE',  ( 80.31258244090099652, 59.41423313813500329, 37.15511855076000103 ) ) ;
#563 = VECTOR ( 'NONE', #106, 1000.000000000000000 ) ;
#564 = VECTOR ( 'NONE', #492, 1000.000000000000114 ) ;
#565 = DIRECTION ( 'NONE',  ( 0.000000000000000000, 0.000000000000000000, 1.000000000000000000 ) ) ;
#566 = EDGE_CURVE ( 'NONE', #190, #493, #499, .T. ) ;
#567 = ORIENTED_EDGE ( 'NONE', *, *, #330, .T. ) ;
#568 = EDGE_CURVE ( 'NONE', #190, #112, #647, .T. ) ;
#569 = ORIENTED_EDGE ( 'NONE', *, *, #223, .F. ) ;
#570 = VERTEX_POINT ( 'NONE', #276 ) ;
#571 = CARTESIAN_POINT ( 'NONE',  ( 81.72279397956198466, 58.45003588485100465, 37.15511855076000103 ) ) ;
#572 = ORIENTED_EDGE ( 'NONE', *, *, #305, .F. ) ;
#573 = ORIENTED_EDGE ( 'NONE', *, *, #553, .T. ) ;
#574 = FACE_OUTER_BOUND ( 'NONE', #449, .T. ) ;
#575 = APPLICATION_CONTEXT ( 'automotive_design' ) ;
#576 = DIRECTION ( 'NONE',  ( 0.000000000000000000, 1.000000000000000000, 0.000000000000000000 ) ) ;
#577 = UNCERTAINTY_MEASURE_WITH_UNIT (LENGTH_MEASURE( 1.000000000000000082E-05 ), #242, 'distance_accuracy_value', 'NONE');
#578 = EDGE_CURVE ( 'NONE', #237, #367, #545, .T. ) ;
#579 = CARTESIAN_POINT ( 'NONE',  ( 0.000000000000000000, 0.000000000000000000, 0.000000000000000000 ) ) ;
#580 = CARTESIAN_POINT ( 'NONE',  ( 82.73871682489999557, 86.75855768305399351, 37.15511855076000103 ) ) ;
#581 = FACE_OUTER_BOUND ( 'NONE', #496, .T. ) ;
#582 = CARTESIAN_POINT ( 'NONE',  ( 82.73871682489999557, 3.672465776698000006, -8.881784197000999888E-16 ) ) ;
#583 = DIRECTION ( 'NONE',  ( 1.000000000000000000, 0.000000000000000000, 0.000000000000000000 ) ) ;
#584 =( GEOMETRIC_REPRESENTATION_CONTEXT ( 3 ) GLOBAL_UNCERTAINTY_ASSIGNED_CONTEXT ( ( #577 ) ) GLOBAL_UNIT_ASSIGNED_CONTEXT ( ( #242, #455, #349 ) ) REPRESENTATION_CONTEXT ( 'NONE', 'WORKASPACE' ) );
#585 = ORIENTED_EDGE ( 'NONE', *, *, #482, .T. ) ;
#586 = CARTESIAN_POINT ( 'NONE',  ( 80.09903591367401532, 57.72237159267599793, 37.15511855076000103 ) ) ;
#587 = LINE ( 'NONE', #207, #86 ) ;
#588 = CARTESIAN_POINT ( 'NONE',  ( 27.29732987098200070, 47.07733211612800517, 0.000000000000000000 ) ) ;
#589 = ORIENTED_EDGE ( 'NONE', *, *, #295, .F. ) ;
#590 = CARTESIAN_POINT ( 'NONE',  ( 77.64829313552399981, 0.000000000000000000, 8.719835787891001999 ) ) ;
#591 = CARTESIAN_POINT ( 'NONE',  ( 37.32561834520799948, 0.000000000000000000, 33.07541819615499890 ) ) ;
#592 = DIRECTION ( 'NONE',  ( 1.000000000000000000, 0.000000000000000000, 0.000000000000000000 ) ) ;
#593 = ORIENTED_EDGE ( 'NONE', *, *, #345, .T. ) ;
#594 = DIRECTION ( 'NONE',  ( 1.000000000000000000, 0.000000000000000000, 5.884703543504000734E-15 ) ) ;
#595 = DIRECTION ( 'NONE',  ( 0.4089495541332097139, -0.9125569911924674704, 0.000000000000000000 ) ) ;
#596 = CARTESIAN_POINT ( 'NONE',  ( 27.29732987098200070, 47.07733211612800517, 0.000000000000000000 ) ) ;
#597 = ORIENTED_EDGE ( 'NONE', *, *, #503, .F. ) ;
#598 = VECTOR ( 'NONE', #1, 1000.000000000000000 ) ;
#599 = AXIS2_PLACEMENT_3D ( 'NONE', #604, #230, #119 ) ;
#600 = ADVANCED_FACE ( 'NONE', ( #177 ), #436, .F. ) ;
#601 = DIRECTION ( 'NONE',  ( 0.000000000000000000, -1.000000000000000000, -1.745066343067000023E-31 ) ) ;
#602 = CARTESIAN_POINT ( 'NONE',  ( 25.40302083190099935, 29.37613870336700117, 28.30396916532399842 ) ) ;
#603 = VERTEX_POINT ( 'NONE', #654 ) ;
#604 = CARTESIAN_POINT ( 'NONE',  ( 0.000000000000000000, 8.265857650479000895, 5.212762062234999938 ) ) ;
#605 = EDGE_CURVE ( 'NONE', #237, #468, #56, .T. ) ;
#606 = FACE_OUTER_BOUND ( 'NONE', #558, .T. ) ;
#607 = VERTEX_POINT ( 'NONE', #65 ) ;
#608 = CARTESIAN_POINT ( 'NONE',  ( 0.000000000000000000, 0.000000000000000000, 0.000000000000000000 ) ) ;
#609 = ORIENTED_EDGE ( 'NONE', *, *, #482, .F. ) ;
#610 = VECTOR ( 'NONE', #259, 1000.000000000000000 ) ;
#611 = VERTEX_POINT ( 'NONE', #495 ) ;
#612 = ORIENTED_EDGE ( 'NONE', *, *, #44, .T. ) ;
#613 = DIRECTION ( 'NONE',  ( 1.000000000000000000, 0.000000000000000000, 0.000000000000000000 ) ) ;
#614 = VECTOR ( 'NONE', #251, 1000.000000000000000 ) ;
#615 = ADVANCED_FACE ( 'NONE', ( #606 ), #395, .F. ) ;
#616 = SURFACE_STYLE_FILL_AREA ( #289 ) ;
#617 = AXIS2_PLACEMENT_3D ( 'NONE', #538, #595, #67 ) ;
#618 = PRODUCT_DEFINITION_SHAPE ( 'NONE', 'NONE',  #335 ) ;
#619 = EDGE_CURVE ( 'NONE', #400, #385, #393, .T. ) ;
#620 = ORIENTED_EDGE ( 'NONE', *, *, #398, .F. ) ;
#621 = DIRECTION ( 'NONE',  ( -0.1064083133090479721, -0.9943225185314488179, 0.000000000000000000 ) ) ;
#622 = ORIENTED_EDGE ( 'NONE', *, *, #507, .T. ) ;
#623 = LINE ( 'NONE', #263, #77 ) ;
#624 = VERTEX_POINT ( 'NONE', #185 ) ;
#625 = AXIS2_PLACEMENT_3D ( 'NONE', #689, #459, #261 ) ;
#626 = DIRECTION ( 'NONE',  ( -1.000000000000000000, 0.000000000000000000, 0.000000000000000000 ) ) ;
#627 = VECTOR ( 'NONE', #316, 1000.000000000000114 ) ;
#628 = CARTESIAN_POINT ( 'NONE',  ( 82.73871682489999557, 39.63237300315499567, 8.719835787891001999 ) ) ;
#629 = AXIS2_PLACEMENT_3D ( 'NONE', #494, #13, #601 ) ;
#630 = ORIENTED_EDGE ( 'NONE', *, *, #354, .F. ) ;
#631 = EDGE_CURVE ( 'NONE', #624, #357, #501, .T. ) ;
#632 = DIRECTION ( 'NONE',  ( 0.000000000000000000, 0.000000000000000000, 1.000000000000000000 ) ) ;
#633 = PLANE ( 'NONE',  #78 ) ;
#634 = LINE ( 'NONE', #366, #236 ) ;
#635 = ORIENTED_EDGE ( 'NONE', *, *, #657, .F. ) ;
#636 = CARTESIAN_POINT ( 'NONE',  ( 0.000000000000000000, 0.000000000000000000, 33.07541819615499890 ) ) ;
#637 = MANIFOLD_SOLID_BREP ( 'Open CASCADE STEP translator 7.5 18[1]', #440 ) ;
#638 = FACE_OUTER_BOUND ( 'NONE', #291, .T. ) ;
#639 = CARTESIAN_POINT ( 'NONE',  ( 80.09903591367401532, 57.72237159267599793, 0.000000000000000000 ) ) ;
#640 = ORIENTED_EDGE ( 'NONE', *, *, #61, .F. ) ;
#641 = CARTESIAN_POINT ( 'NONE',  ( 27.29732987098200070, 47.07733211612800517, 0.000000000000000000 ) ) ;
#642 = LINE ( 'NONE', #361, #256 ) ;
#643 = VECTOR ( 'NONE', #576, 1000.000000000000000 ) ;
#644 = ORIENTED_EDGE ( 'NONE', *, *, #355, .F. ) ;
#645 = CARTESIAN_POINT ( 'NONE',  ( 80.19350498021201190, 39.63237300315499567, 22.93747716932599801 ) ) ;
#646 = CARTESIAN_POINT ( 'NONE',  ( 82.73871682489999557, 0.000000000000000000, 8.719835787891001999 ) ) ;
#647 = LINE ( 'NONE', #326, #175 ) ;
#648 = ORIENTED_EDGE ( 'NONE', *, *, #513, .T. ) ;
#649 = CARTESIAN_POINT ( 'NONE',  ( 25.66764983548300094, 31.84893964470900229, 30.27052605830599674 ) ) ;
#650 = DIRECTION ( 'NONE',  ( 0.000000000000000000, 0.000000000000000000, 1.000000000000000000 ) ) ;
#651 = DIRECTION ( 'NONE',  ( 0.000000000000000000, 1.000000000000000000, 0.000000000000000000 ) ) ;
#652 = ORIENTED_EDGE ( 'NONE', *, *, #605, .F. ) ;
#653 = DIRECTION ( 'NONE',  ( 0.5644110347988320342, 0.8254939029437539100, 0.000000000000000000 ) ) ;
#654 = CARTESIAN_POINT ( 'NONE',  ( 77.64829313552399981, 39.63237300315499567, 37.15511855076000103 ) ) ;
#655 = ORIENTED_EDGE ( 'NONE', *, *, #164, .T. ) ;
#656 = VECTOR ( 'NONE', #542, 1000.000000000000000 ) ;
#657 = EDGE_CURVE ( 'NONE', #357, #531, #130, .T. ) ;
#658 = CARTESIAN_POINT ( 'NONE',  ( 77.64829313552399981, 0.000000000000000000, 8.719835787891001999 ) ) ;
#659 = AXIS2_PLACEMENT_3D ( 'NONE', #473, #199, #97 ) ;
#660 = DIRECTION ( 'NONE',  ( 1.000000000000000000, 0.000000000000000000, 0.000000000000000000 ) ) ;
#661 = VERTEX_POINT ( 'NONE', #239 ) ;
#662 = LINE ( 'NONE', #441, #117 ) ;
#663 = EDGE_LOOP ( 'NONE', ( #228, #443, #622, #160 ) ) ;
#664 = EDGE_CURVE ( 'NONE', #385, #240, #134, .T. ) ;
#665 = ORIENTED_EDGE ( 'NONE', *, *, #453, .F. ) ;
#666 = AXIS2_PLACEMENT_3D ( 'NONE', #683, #626, #427 ) ;
#667 = ORIENTED_EDGE ( 'NONE', *, *, #681, .T. ) ;
#668 = EDGE_LOOP ( 'NONE', ( #418, #15, #546 ) ) ;
#669 = DIRECTION ( 'NONE',  ( 1.000000000000000000, 0.000000000000000000, 0.000000000000000000 ) ) ;
#670 = ADVANCED_FACE ( 'NONE', ( #79, #294 ), #27, .T. ) ;
#671 = VECTOR ( 'NONE', #194, 1000.000000000000114 ) ;
#672 = CARTESIAN_POINT ( 'NONE',  ( 82.73871682489999557, 39.63237300315499567, 8.719835787891001999 ) ) ;
#673 = EDGE_LOOP ( 'NONE', ( #98, #286, #181, #356 ) ) ;
#674 = DIRECTION ( 'NONE',  ( 0.000000000000000000, 1.000000000000000000, 0.000000000000000000 ) ) ;
#675 = VECTOR ( 'NONE', #621, 1000.000000000000000 ) ;
#676 = VERTEX_POINT ( 'NONE', #403 ) ;
#677 = ADVANCED_BREP_SHAPE_REPRESENTATION ( '20260414_160844_171', ( #637, #625 ), #337 ) ;
#678 =( NAMED_UNIT ( * ) SI_UNIT ( $, .STERADIAN. ) SOLID_ANGLE_UNIT ( ) );
#679 = PLANE ( 'NONE',  #412 ) ;
#680 = CARTESIAN_POINT ( 'NONE',  ( 67.49465415605598650, 68.17817450878099805, 0.000000000000000000 ) ) ;
#681 = EDGE_CURVE ( 'NONE', #676, #468, #353, .T. ) ;
#682 = CARTESIAN_POINT ( 'NONE',  ( 0.000000000000000000, 3.672465776698000006, 3.672465776698000006 ) ) ;
#683 = CARTESIAN_POINT ( 'NONE',  ( 0.000000000000000000, 3.672465776698000006, 3.672465776698000006 ) ) ;
#684 = VECTOR ( 'NONE', #225, 1000.000000000000000 ) ;
#685 = PLANE ( 'NONE',  #659 ) ;
#686 = VECTOR ( 'NONE', #306, 1000.000000000000000 ) ;
#687 = AXIS2_PLACEMENT_3D ( 'NONE', #203, #370, #583 ) ;
#688 = LINE ( 'NONE', #313, #343 ) ;
#689 = CARTESIAN_POINT ( 'NONE',  ( 0.000000000000000000, 0.000000000000000000, 0.000000000000000000 ) ) ;
#690 = DIRECTION ( 'NONE',  ( 0.000000000000000000, 0.000000000000000000, -1.000000000000000000 ) ) ;
#691 = PLANE ( 'NONE',  #687 ) ;
#692 = ORIENTED_EDGE ( 'NONE', *, *, #44, .F. ) ;
#693 = DIRECTION ( 'NONE',  ( 0.000000000000000000, 0.000000000000000000, 1.000000000000000000 ) ) ;
#694 = CARTESIAN_POINT ( 'NONE',  ( 0.000000000000000000, 86.75855768305399351, 37.15511855076000103 ) ) ;
#695 = LINE ( 'NONE', #102, #627 ) ;
#696 = ORIENTED_EDGE ( 'NONE', *, *, #681, .F. ) ;
#697 = CARTESIAN_POINT ( 'NONE',  ( 37.32561834520799948, 0.000000000000000000, 37.15511855076000103 ) ) ;
#698 = ADVANCED_FACE ( 'NONE', ( #192, #528, #517 ), #477, .F. ) ;
#699 = DIRECTION ( 'NONE',  ( 0.000000000000000000, 0.000000000000000000, -1.000000000000000000 ) ) ;
ENDSEC;
END-ISO-10303-21;
