ISO-10303-21;
HEADER;
FILE_DESCRIPTION (( 'STEP AP214' ),
    '1' );
FILE_NAME ('20260414_160844_162.STEP',
    '2026-04-16T15:26:21',
    ( '' ),
    ( '' ),
    'SwSTEP 2.0',
    'SolidWorks 2025',
    '' );
FILE_SCHEMA (( 'AUTOMOTIVE_DESIGN' ));
ENDSEC;

DATA;
#1 = VERTEX_POINT ( 'NONE', #140 ) ;
#2 = CIRCLE ( 'NONE', #383, 1.000000000000000888 ) ;
#3 = CARTESIAN_POINT ( 'NONE',  ( 2.884592269357999950, 57.93397554487199841, 37.98163670091400235 ) ) ;
#4 = CARTESIAN_POINT ( 'NONE',  ( 24.10391955517500051, 63.57332890628100586, 5.946922990843000356 ) ) ;
#5 = AXIS2_PLACEMENT_3D ( 'NONE', #755, #252, #177 ) ;
#6 = LINE ( 'NONE', #338, #222 ) ;
#7 = ORIENTED_EDGE ( 'NONE', *, *, #703, .F. ) ;
#8 = ADVANCED_FACE ( 'NONE', ( #550 ), #640, .F. ) ;
#9 = PLANE ( 'NONE',  #194 ) ;
#10 = DIRECTION ( 'NONE',  ( 1.000000000000000000, 0.000000000000000000, 0.000000000000000000 ) ) ;
#11 = FACE_OUTER_BOUND ( 'NONE', #310, .T. ) ;
#12 = DIRECTION ( 'NONE',  ( 0.000000000000000000, -0.9449001572316783060, 0.3273586608958886091 ) ) ;
#13 = VERTEX_POINT ( 'NONE', #1028 ) ;
#14 = EDGE_LOOP ( 'NONE', ( #534, #249, #869, #123 ) ) ;
#15 = DIRECTION ( 'NONE',  ( -1.000000000000000000, 0.000000000000000000, 0.000000000000000000 ) ) ;
#16 = VECTOR ( 'NONE', #437, 1000.000000000000000 ) ;
#17 = EDGE_CURVE ( 'NONE', #778, #757, #390, .T. ) ;
#18 = DIRECTION ( 'NONE',  ( -1.000000000000000000, 0.000000000000000000, 0.000000000000000000 ) ) ;
#19 = CARTESIAN_POINT ( 'NONE',  ( 0.000000000000000000, 69.36396529418701107, 6.372537263414000286 ) ) ;
#20 = VERTEX_POINT ( 'NONE', #219 ) ;
#21 = ORIENTED_EDGE ( 'NONE', *, *, #373, .F. ) ;
#22 = DIRECTION ( 'NONE',  ( 0.000000000000000000, 0.9935697063756805392, 0.1132220763479635517 ) ) ;
#23 = CARTESIAN_POINT ( 'NONE',  ( 0.000000000000000000, 71.08065895453199801, 63.47824258301699984 ) ) ;
#24 = EDGE_CURVE ( 'NONE', #729, #677, #854, .T. ) ;
#25 = CARTESIAN_POINT ( 'NONE',  ( 0.000000000000000000, 59.79116339994700269, 37.17415036253800054 ) ) ;
#26 = ORIENTED_EDGE ( 'NONE', *, *, #151, .F. ) ;
#27 = FACE_OUTER_BOUND ( 'NONE', #205, .T. ) ;
#28 = CIRCLE ( 'NONE', #644, 62.31541963821899799 ) ;
#29 = CARTESIAN_POINT ( 'NONE',  ( 0.000000000000000000, 63.57332890628100586, 5.946922990843000356 ) ) ;
#30 = AXIS2_PLACEMENT_3D ( 'NONE', #68, #654, #71 ) ;
#31 = EDGE_CURVE ( 'NONE', #921, #1030, #375, .T. ) ;
#32 = AXIS2_PLACEMENT_3D ( 'NONE', #675, #178, #602 ) ;
#33 = CARTESIAN_POINT ( 'NONE',  ( 24.10391955517500051, 66.62737828013699470, 4.000134912687999922 ) ) ;
#34 = ORIENTED_EDGE ( 'NONE', *, *, #331, .T. ) ;
#35 = ORIENTED_EDGE ( 'NONE', *, *, #797, .T. ) ;
#36 = PLANE ( 'NONE',  #146 ) ;
#37 = EDGE_LOOP ( 'NONE', ( #174, #943, #963, #733 ) ) ;
#38 = PLANE ( 'NONE',  #432 ) ;
#39 = LINE ( 'NONE', #706, #369 ) ;
#40 = ORIENTED_EDGE ( 'NONE', *, *, #50, .F. ) ;
#41 = ORIENTED_EDGE ( 'NONE', *, *, #348, .F. ) ;
#42 = LINE ( 'NONE', #49, #337 ) ;
#43 = EDGE_LOOP ( 'NONE', ( #747, #785, #510, #381 ) ) ;
#44 = CARTESIAN_POINT ( 'NONE',  ( 0.000000000000000000, 63.57332890628100586, 5.946922990843000356 ) ) ;
#45 = CARTESIAN_POINT ( 'NONE',  ( 0.000000000000000000, 55.31058850672199867, 38.86416501536400148 ) ) ;
#46 = LINE ( 'NONE', #798, #659 ) ;
#47 = ORIENTED_EDGE ( 'NONE', *, *, #364, .F. ) ;
#48 = EDGE_LOOP ( 'NONE', ( #627, #591, #866, #987 ) ) ;
#49 = CARTESIAN_POINT ( 'NONE',  ( 2.884592269357999950, 60.25736585477499574, 38.24639827060099151 ) ) ;
#50 = EDGE_CURVE ( 'NONE', #406, #20, #948, .T. ) ;
#51 = CIRCLE ( 'NONE', #569, 0.4647463779990021471 ) ;
#52 = CIRCLE ( 'NONE', #414, 1.000000000000000888 ) ;
#53 = CARTESIAN_POINT ( 'NONE',  ( 32.84336640273799190, 64.46999498908100179, 36.45819792215699806 ) ) ;
#54 = ORIENTED_EDGE ( 'NONE', *, *, #1051, .T. ) ;
#55 = DIRECTION ( 'NONE',  ( -1.000000000000000000, 0.000000000000000000, 0.000000000000000000 ) ) ;
#56 = CARTESIAN_POINT ( 'NONE',  ( 27.68203535678100025, 58.11894700674699266, 28.47597396012499971 ) ) ;
#57 = VERTEX_POINT ( 'NONE', #1050 ) ;
#58 = ADVANCED_FACE ( 'NONE', ( #643 ), #815, .F. ) ;
#59 = DIRECTION ( 'NONE',  ( 0.000000000000000000, 0.5948380475741421591, -0.8038455679781923990 ) ) ;
#60 = AXIS2_PLACEMENT_3D ( 'NONE', #125, #295, #788 ) ;
#61 = ORIENTED_EDGE ( 'NONE', *, *, #397, .F. ) ;
#62 = EDGE_LOOP ( 'NONE', ( #690 ) ) ;
#63 = AXIS2_PLACEMENT_3D ( 'NONE', #724, #773, #944 ) ;
#64 = EDGE_CURVE ( 'NONE', #294, #794, #495, .T. ) ;
#65 = LINE ( 'NONE', #138, #223 ) ;
#66 = CARTESIAN_POINT ( 'NONE',  ( 0.000000000000000000, 0.000000000000000000, 0.000000000000000000 ) ) ;
#67 = ORIENTED_EDGE ( 'NONE', *, *, #407, .F. ) ;
#68 = CARTESIAN_POINT ( 'NONE',  ( 5.597153133267999792, 55.31058850672199867, 38.20505130128100291 ) ) ;
#69 = CARTESIAN_POINT ( 'NONE',  ( 32.84336640273799190, 64.66458537706199650, 35.70959478310500401 ) ) ;
#70 = ORIENTED_EDGE ( 'NONE', *, *, #1060, .F. ) ;
#71 = DIRECTION ( 'NONE',  ( 0.000000000000000000, 0.000000000000000000, 1.000000000000000000 ) ) ;
#72 = FACE_BOUND ( 'NONE', #493, .T. ) ;
#73 = ORIENTED_EDGE ( 'NONE', *, *, #566, .F. ) ;
#74 = PLANE ( 'NONE',  #30 ) ;
#75 = LINE ( 'NONE', #819, #416 ) ;
#76 = ORIENTED_EDGE ( 'NONE', *, *, #127, .T. ) ;
#77 = EDGE_CURVE ( 'NONE', #778, #298, #970, .T. ) ;
#78 = VECTOR ( 'NONE', #590, 1000.000000000000000 ) ;
#79 = CARTESIAN_POINT ( 'NONE',  ( 0.000000000000000000, 63.89079126608699966, 1.627732561960999913 ) ) ;
#80 = ORIENTED_EDGE ( 'NONE', *, *, #250, .F. ) ;
#81 = AXIS2_PLACEMENT_3D ( 'NONE', #245, #600, #1067 ) ;
#82 = VECTOR ( 'NONE', #563, 1000.000000000000000 ) ;
#83 = CARTESIAN_POINT ( 'NONE',  ( 0.000000000000000000, 59.79116339994700269, 37.17415036253800054 ) ) ;
#84 = DIRECTION ( 'NONE',  ( 0.000000000000000000, 0.7460609836967598829, -0.6658776228447860213 ) ) ;
#85 = EDGE_CURVE ( 'NONE', #910, #20, #473, .T. ) ;
#86 = CARTESIAN_POINT ( 'NONE',  ( 0.000000000000000000, 41.65755335287899896, 44.36152007598000324 ) ) ;
#87 = ORIENTED_EDGE ( 'NONE', *, *, #968, .F. ) ;
#88 = EDGE_LOOP ( 'NONE', ( #61, #828, #997, #927, #598, #145 ) ) ;
#89 = DIRECTION ( 'NONE',  ( 0.000000000000000000, -0.7081289338109575393, -0.7060831488569575543 ) ) ;
#90 = CARTESIAN_POINT ( 'NONE',  ( 32.84336640273799190, 64.10830326910598842, 35.08632653915699962 ) ) ;
#91 = ADVANCED_FACE ( 'NONE', ( #802 ), #234, .F. ) ;
#92 = FACE_OUTER_BOUND ( 'NONE', #395, .T. ) ;
#93 = VERTEX_POINT ( 'NONE', #1046 ) ;
#94 = AXIS2_PLACEMENT_3D ( 'NONE', #861, #1024, #112 ) ;
#95 = DIRECTION ( 'NONE',  ( 1.000000000000000000, 0.000000000000000000, 0.000000000000000000 ) ) ;
#96 = DIRECTION ( 'NONE',  ( 0.000000000000000000, 0.3560729581749885742, -0.9344581576809701806 ) ) ;
#97 = CIRCLE ( 'NONE', #975, 1.000000000000000888 ) ;
#98 = LINE ( 'NONE', #25, #856 ) ;
#99 = UNCERTAINTY_MEASURE_WITH_UNIT (LENGTH_MEASURE( 1.000000000000000082E-05 ), #818, 'distance_accuracy_value', 'NONE');
#100 = ORIENTED_EDGE ( 'NONE', *, *, #968, .T. ) ;
#101 = ADVANCED_FACE ( 'NONE', ( #568, #1055, #960 ), #317, .T. ) ;
#102 = CARTESIAN_POINT ( 'NONE',  ( 0.000000000000000000, 0.000000000000000000, 0.000000000000000000 ) ) ;
#103 = LINE ( 'NONE', #264, #484 ) ;
#104 = LINE ( 'NONE', #86, #904 ) ;
#105 = EDGE_LOOP ( 'NONE', ( #843, #758, #141, #41 ) ) ;
#106 = ORIENTED_EDGE ( 'NONE', *, *, #863, .F. ) ;
#107 = DIRECTION ( 'NONE',  ( 0.000000000000000000, 0.3987316588010331175, 0.9170676443260751265 ) ) ;
#108 = EDGE_CURVE ( 'NONE', #794, #429, #483, .T. ) ;
#109 = VECTOR ( 'NONE', #268, 1000.000000000000000 ) ;
#110 = DIRECTION ( 'NONE',  ( 0.000000000000000000, -1.000000000000000000, 0.000000000000000000 ) ) ;
#111 = PLANE ( 'NONE',  #253 ) ;
#112 = DIRECTION ( 'NONE',  ( 0.000000000000000000, 0.07330269602480159186, -0.9973097386246138063 ) ) ;
#113 = DIRECTION ( 'NONE',  ( 0.000000000000000000, 0.000000000000000000, -1.000000000000000000 ) ) ;
#114 = VERTEX_POINT ( 'NONE', #296 ) ;
#115 = CARTESIAN_POINT ( 'NONE',  ( 0.000000000000000000, 55.31058850672199867, 38.20505130128100291 ) ) ;
#116 = CARTESIAN_POINT ( 'NONE',  ( 0.000000000000000000, 71.08065895453199801, 0.000000000000000000 ) ) ;
#117 = CARTESIAN_POINT ( 'NONE',  ( 0.000000000000000000, 31.66381737636800153, 63.47824258301699984 ) ) ;
#118 = VECTOR ( 'NONE', #197, 1000.000000000000114 ) ;
#119 = ORIENTED_EDGE ( 'NONE', *, *, #710, .T. ) ;
#120 = LINE ( 'NONE', #445, #714 ) ;
#121 = EDGE_CURVE ( 'NONE', #1041, #804, #401, .T. ) ;
#122 = CARTESIAN_POINT ( 'NONE',  ( 32.84336640273799190, 64.66458537706199650, 35.70959478310500401 ) ) ;
#123 = ORIENTED_EDGE ( 'NONE', *, *, #587, .F. ) ;
#124 = CARTESIAN_POINT ( 'NONE',  ( 0.000000000000000000, 58.40017799969999857, 39.05388460897799519 ) ) ;
#125 = CARTESIAN_POINT ( 'NONE',  ( 0.000000000000000000, 56.97135969715299808, 55.18654589876800287 ) ) ;
#126 = CARTESIAN_POINT ( 'NONE',  ( 0.000000000000000000, 31.66381737636800153, 63.47824258301699984 ) ) ;
#127 = EDGE_CURVE ( 'NONE', #1064, #677, #890, .T. ) ;
#128 = ORIENTED_EDGE ( 'NONE', *, *, #811, .T. ) ;
#129 = ORIENTED_EDGE ( 'NONE', *, *, #797, .F. ) ;
#130 = DIRECTION ( 'NONE',  ( 0.000000000000000000, 0.000000000000000000, -1.000000000000000000 ) ) ;
#131 = EDGE_LOOP ( 'NONE', ( #542, #1005, #671, #711 ) ) ;
#132 = CARTESIAN_POINT ( 'NONE',  ( 23.28786189817000007, 0.000000000000000000, 0.000000000000000000 ) ) ;
#133 = EDGE_LOOP ( 'NONE', ( #1044, #1047, #198, #657 ) ) ;
#134 = ORIENTED_EDGE ( 'NONE', *, *, #672, .T. ) ;
#135 = CARTESIAN_POINT ( 'NONE',  ( 24.10391955517500051, 69.36396529418701107, 6.372537263414000286 ) ) ;
#136 = ADVANCED_FACE ( 'NONE', ( #72, #898, #652, #492, #487, #239, #810 ), #1063, .F. ) ;
#137 = VECTOR ( 'NONE', #648, 1000.000000000000000 ) ;
#138 = CARTESIAN_POINT ( 'NONE',  ( 0.000000000000000000, 0.000000000000000000, 0.000000000000000000 ) ) ;
#139 = CIRCLE ( 'NONE', #878, 62.31541963821899799 ) ;
#140 = CARTESIAN_POINT ( 'NONE',  ( 2.884592269357999950, 59.79116339994700269, 37.17415036253800054 ) ) ;
#141 = ORIENTED_EDGE ( 'NONE', *, *, #631, .F. ) ;
#142 = EDGE_CURVE ( 'NONE', #633, #447, #139, .T. ) ;
#143 = CARTESIAN_POINT ( 'NONE',  ( 0.000000000000000000, 69.36396529418701107, 6.372537263414000286 ) ) ;
#144 = DIRECTION ( 'NONE',  ( 1.000000000000000000, 0.000000000000000000, 0.000000000000000000 ) ) ;
#145 = ORIENTED_EDGE ( 'NONE', *, *, #309, .F. ) ;
#146 = AXIS2_PLACEMENT_3D ( 'NONE', #468, #300, #455 ) ;
#147 = DIRECTION ( 'NONE',  ( 0.000000000000000000, 0.3560729581749885186, -0.9344581576809700696 ) ) ;
#148 = PLANE ( 'NONE',  #32 ) ;
#149 = ORIENTED_EDGE ( 'NONE', *, *, #882, .F. ) ;
#150 = FACE_OUTER_BOUND ( 'NONE', #585, .T. ) ;
#151 = EDGE_CURVE ( 'NONE', #1042, #228, #662, .T. ) ;
#152 = DIRECTION ( 'NONE',  ( -1.000000000000000000, 0.000000000000000000, 0.000000000000000000 ) ) ;
#153 = ORIENTED_EDGE ( 'NONE', *, *, #507, .F. ) ;
#154 = DIRECTION ( 'NONE',  ( 0.000000000000000000, -0.8038455679781923990, -0.5948380475741421591 ) ) ;
#155 = PRODUCT_RELATED_PRODUCT_CATEGORY ( 'part', '', ( #581 ) ) ;
#156 = CARTESIAN_POINT ( 'NONE',  ( 32.84336640273799190, 0.000000000000000000, 0.000000000000000000 ) ) ;
#157 = EDGE_CURVE ( 'NONE', #739, #954, #75, .T. ) ;
#158 = VECTOR ( 'NONE', #107, 1000.000000000000000 ) ;
#159 = ORIENTED_EDGE ( 'NONE', *, *, #77, .F. ) ;
#160 = DIRECTION ( 'NONE',  ( 0.000000000000000000, 0.000000000000000000, -1.000000000000000000 ) ) ;
#161 = ORIENTED_EDGE ( 'NONE', *, *, #837, .F. ) ;
#162 = CARTESIAN_POINT ( 'NONE',  ( 2.884592269357999950, 59.56187315465199816, 39.18626539382100304 ) ) ;
#163 = EDGE_CURVE ( 'NONE', #1041, #485, #323, .T. ) ;
#164 = CARTESIAN_POINT ( 'NONE',  ( 2.884592269357999950, 58.62946824499500309, 37.04176957769500689 ) ) ;
#165 = AXIS2_PLACEMENT_3D ( 'NONE', #847, #920, #270 ) ;
#166 = CARTESIAN_POINT ( 'NONE',  ( 24.10391955517500051, 63.57332890628100586, 5.946922990843000356 ) ) ;
#167 = ORIENTED_EDGE ( 'NONE', *, *, #402, .F. ) ;
#168 = VECTOR ( 'NONE', #182, 1000.000000000000000 ) ;
#169 = PRODUCT_DEFINITION ( 'ๆ', '', #973, #379 ) ;
#170 = DIRECTION ( 'NONE',  ( 1.000000000000000000, 0.000000000000000000, 0.000000000000000000 ) ) ;
#171 = ADVANCED_FACE ( 'NONE', ( #884 ), #148, .F. ) ;
#172 = DIRECTION ( 'NONE',  ( -1.000000000000000000, 0.000000000000000000, 0.000000000000000000 ) ) ;
#173 = DIRECTION ( 'NONE',  ( 0.000000000000000000, 0.000000000000000000, 1.000000000000000000 ) ) ;
#174 = ORIENTED_EDGE ( 'NONE', *, *, #900, .F. ) ;
#175 = ORIENTED_EDGE ( 'NONE', *, *, #64, .F. ) ;
#176 = DIRECTION ( 'NONE',  ( 1.000000000000000000, 0.000000000000000000, 0.000000000000000000 ) ) ;
#177 = DIRECTION ( 'NONE',  ( 1.000000000000000000, 0.000000000000000000, 0.000000000000000000 ) ) ;
#178 = DIRECTION ( 'NONE',  ( 0.000000000000000000, -0.9529833375371810078, -0.3030227027410574703 ) ) ;
#179 = ORIENTED_EDGE ( 'NONE', *, *, #645, .F. ) ;
#180 = LINE ( 'NONE', #822, #301 ) ;
#181 = CIRCLE ( 'NONE', #1062, 1.000000000000000888 ) ;
#182 = DIRECTION ( 'NONE',  ( 0.000000000000000000, 0.07330269602480159186, -0.9973097386246138063 ) ) ;
#183 = EDGE_CURVE ( 'NONE', #540, #93, #688, .T. ) ;
#184 = ORIENTED_EDGE ( 'NONE', *, *, #450, .F. ) ;
#185 = DIRECTION ( 'NONE',  ( 0.000000000000000000, 0.000000000000000000, 1.000000000000000000 ) ) ;
#186 = AXIS2_PLACEMENT_3D ( 'NONE', #567, #888, #400 ) ;
#187 = FACE_OUTER_BOUND ( 'NONE', #689, .T. ) ;
#188 = CARTESIAN_POINT ( 'NONE',  ( 0.000000000000000000, 71.08065895453199801, 0.000000000000000000 ) ) ;
#189 = EDGE_CURVE ( 'NONE', #936, #936, #777, .T. ) ;
#190 = ORIENTED_EDGE ( 'NONE', *, *, #566, .T. ) ;
#191 = EDGE_LOOP ( 'NONE', ( #1053, #768, #175, #876, #790, #462 ) ) ;
#192 = LINE ( 'NONE', #622, #232 ) ;
#193 = EDGE_CURVE ( 'NONE', #910, #13, #104, .T. ) ;
#194 = AXIS2_PLACEMENT_3D ( 'NONE', #102, #170, #923 ) ;
#195 = LINE ( 'NONE', #851, #664 ) ;
#196 = VERTEX_POINT ( 'NONE', #45 ) ;
#197 = DIRECTION ( 'NONE',  ( 0.000000000000000000, -0.9959536837955412780, 0.08986801285268862516 ) ) ;
#198 = ORIENTED_EDGE ( 'NONE', *, *, #998, .F. ) ;
#199 = FACE_OUTER_BOUND ( 'NONE', #909, .T. ) ;
#200 = VECTOR ( 'NONE', #699, 1000.000000000000000 ) ;
#201 = ADVANCED_FACE ( 'NONE', ( #682 ), #913, .T. ) ;
#202 = LINE ( 'NONE', #1033, #766 ) ;
#203 = PLANE ( 'NONE',  #453 ) ;
#204 = VERTEX_POINT ( 'NONE', #832 ) ;
#205 = EDGE_LOOP ( 'NONE', ( #723 ) ) ;
#206 = LINE ( 'NONE', #616, #200 ) ;
#207 = ORIENTED_EDGE ( 'NONE', *, *, #64, .T. ) ;
#208 = CARTESIAN_POINT ( 'NONE',  ( 2.884592269357999950, 59.09567069982299614, 38.11401748575799786 ) ) ;
#209 = EDGE_CURVE ( 'NONE', #1064, #881, #606, .T. ) ;
#210 = DIRECTION ( 'NONE',  ( 1.000000000000000000, 0.000000000000000000, 0.000000000000000000 ) ) ;
#211 = ORIENTED_EDGE ( 'NONE', *, *, #561, .F. ) ;
#212 = FACE_OUTER_BOUND ( 'NONE', #280, .T. ) ;
#213 = EDGE_LOOP ( 'NONE', ( #394, #441, #221, #891 ) ) ;
#214 = FACE_OUTER_BOUND ( 'NONE', #460, .T. ) ;
#215 = ADVANCED_FACE ( 'NONE', ( #926, #908 ), #519, .T. ) ;
#216 = ORIENTED_EDGE ( 'NONE', *, *, #327, .F. ) ;
#217 = CARTESIAN_POINT ( 'NONE',  ( 32.84336640273799190, 71.08065895453199801, 63.47824258301699984 ) ) ;
#218 = CARTESIAN_POINT ( 'NONE',  ( 32.84336640273799190, 53.69750174282099664, 55.48195633150699990 ) ) ;
#219 = CARTESIAN_POINT ( 'NONE',  ( 0.000000000000000000, 64.66458537706199650, 35.70959478310500401 ) ) ;
#220 = ADVANCED_FACE ( 'NONE', ( #1003 ), #762, .T. ) ;
#221 = ORIENTED_EDGE ( 'NONE', *, *, #740, .T. ) ;
#222 = VECTOR ( 'NONE', #990, 1000.000000000000000 ) ;
#223 = VECTOR ( 'NONE', #474, 1000.000000000000000 ) ;
#224 = CARTESIAN_POINT ( 'NONE',  ( 0.000000000000000000, 56.97135969715299808, 55.18654589876800287 ) ) ;
#225 = VECTOR ( 'NONE', #292, 1000.000000000000000 ) ;
#226 = DIRECTION ( 'NONE',  ( 1.000000000000000000, 0.000000000000000000, 0.000000000000000000 ) ) ;
#227 = EDGE_CURVE ( 'NONE', #633, #1019, #902, .T. ) ;
#228 = VERTEX_POINT ( 'NONE', #265 ) ;
#229 = CARTESIAN_POINT ( 'NONE',  ( 32.84336640273799190, 71.08065895453199801, 0.000000000000000000 ) ) ;
#230 = DIRECTION ( 'NONE',  ( 1.000000000000000000, 0.000000000000000000, 0.000000000000000000 ) ) ;
#231 = ORIENTED_EDGE ( 'NONE', *, *, #981, .T. ) ;
#232 = VECTOR ( 'NONE', #1020, 1000.000000000000000 ) ;
#233 = CARTESIAN_POINT ( 'NONE',  ( 0.000000000000000000, 59.56187315465199816, 39.18626539382100304 ) ) ;
#234 = PLANE ( 'NONE',  #370 ) ;
#235 = ORIENTED_EDGE ( 'NONE', *, *, #189, .T. ) ;
#236 = PRESENTATION_LAYER_ASSIGNMENT (  '', '', ( #792 ) ) ;
#237 = EDGE_CURVE ( 'NONE', #360, #228, #525, .T. ) ;
#238 = CARTESIAN_POINT ( 'NONE',  ( 0.000000000000000000, 64.10830326910598842, 35.08632653915699962 ) ) ;
#239 = FACE_OUTER_BOUND ( 'NONE', #698, .T. ) ;
#240 = ORIENTED_EDGE ( 'NONE', *, *, #209, .T. ) ;
#241 = CARTESIAN_POINT ( 'NONE',  ( 0.000000000000000000, 58.62946824499500309, 37.04176957769500689 ) ) ;
#242 = CARTESIAN_POINT ( 'NONE',  ( 32.84336640273799190, 71.08065895453199801, 63.47824258301699984 ) ) ;
#243 = VECTOR ( 'NONE', #1006, 1000.000000000000000 ) ;
#244 = VERTEX_POINT ( 'NONE', #596 ) ;
#245 = CARTESIAN_POINT ( 'NONE',  ( 16.42168320136899595, 31.66381737636800153, 74.48424037431000500 ) ) ;
#246 = DIRECTION ( 'NONE',  ( -0.000000000000000000, 1.000000000000000000, 0.000000000000000000 ) ) ;
#247 = ADVANCED_FACE ( 'NONE', ( #352 ), #513, .F. ) ;
#248 = ORIENTED_EDGE ( 'NONE', *, *, #467, .T. ) ;
#249 = ORIENTED_EDGE ( 'NONE', *, *, #355, .T. ) ;
#250 = EDGE_CURVE ( 'NONE', #633, #634, #665, .T. ) ;
#251 = LINE ( 'NONE', #586, #885 ) ;
#252 = DIRECTION ( 'NONE',  ( -0.000000000000000000, 0.9973097386246139173, 0.07330269602480160573 ) ) ;
#253 = AXIS2_PLACEMENT_3D ( 'NONE', #950, #531, #303 ) ;
#254 = LINE ( 'NONE', #344, #78 ) ;
#255 = EDGE_LOOP ( 'NONE', ( #526, #34, #87, #848 ) ) ;
#256 = CARTESIAN_POINT ( 'NONE',  ( 0.000000000000000000, 60.25736585477499574, 38.24639827060099151 ) ) ;
#257 =( NAMED_UNIT ( * ) SI_UNIT ( $, .STERADIAN. ) SOLID_ANGLE_UNIT ( ) );
#258 = SURFACE_STYLE_FILL_AREA ( #426 ) ;
#259 = DIRECTION ( 'NONE',  ( 1.000000000000000000, 0.000000000000000000, 0.000000000000000000 ) ) ;
#260 = ORIENTED_EDGE ( 'NONE', *, *, #24, .F. ) ;
#261 = ORIENTED_EDGE ( 'NONE', *, *, #373, .T. ) ;
#262 = DIRECTION ( 'NONE',  ( 0.000000000000000000, -1.000000000000000000, 0.000000000000000000 ) ) ;
#263 = APPLICATION_PROTOCOL_DEFINITION ( 'draft international standard', 'automotive_design', 1998, #351 ) ;
#264 = CARTESIAN_POINT ( 'NONE',  ( 0.000000000000000000, 69.36396529418701107, 6.372537263414000286 ) ) ;
#265 = CARTESIAN_POINT ( 'NONE',  ( 32.84336640273799190, 54.55693685214299649, 52.77909832294200498 ) ) ;
#266 = VERTEX_POINT ( 'NONE', #583 ) ;
#267 = EDGE_LOOP ( 'NONE', ( #216 ) ) ;
#268 = DIRECTION ( 'NONE',  ( 0.000000000000000000, 0.5948380475741421591, -0.8038455679781922880 ) ) ;
#269 = LINE ( 'NONE', #946, #333 ) ;
#270 = DIRECTION ( 'NONE',  ( 0.000000000000000000, 0.000000000000000000, 1.000000000000000000 ) ) ;
#271 = VECTOR ( 'NONE', #415, 1000.000000000000000 ) ;
#272 = VERTEX_POINT ( 'NONE', #166 ) ;
#273 = ORIENTED_EDGE ( 'NONE', *, *, #237, .T. ) ;
#274 = DIRECTION ( 'NONE',  ( 0.000000000000000000, 0.000000000000000000, -1.000000000000000000 ) ) ;
#275 = VECTOR ( 'NONE', #393, 1000.000000000000000 ) ;
#276 = VECTOR ( 'NONE', #477, 999.9999999999998863 ) ;
#277 = DIRECTION ( 'NONE',  ( 0.000000000000000000, 0.000000000000000000, 1.000000000000000000 ) ) ;
#278 = CARTESIAN_POINT ( 'NONE',  ( 27.68203535678100025, 58.11894700674699266, 26.90871231812699804 ) ) ;
#279 = CARTESIAN_POINT ( 'NONE',  ( 0.000000000000000000, 60.25736585477499574, 38.24639827060099151 ) ) ;
#280 = EDGE_LOOP ( 'NONE', ( #361, #339, #1010, #159 ) ) ;
#281 = ORIENTED_EDGE ( 'NONE', *, *, #444, .F. ) ;
#282 = CARTESIAN_POINT ( 'NONE',  ( 23.28786189817000007, 62.31541963821899799, 5.723578436895000183E-15 ) ) ;
#283 = CARTESIAN_POINT ( 'NONE',  ( 0.000000000000000000, 63.89079126608699966, 1.627732561960999913 ) ) ;
#284 = DIRECTION ( 'NONE',  ( -1.000000000000000000, 0.000000000000000000, 0.000000000000000000 ) ) ;
#285 = DIRECTION ( 'NONE',  ( 0.000000000000000000, -0.07330269602480159186, 0.9973097386246138063 ) ) ;
#286 = CARTESIAN_POINT ( 'NONE',  ( 0.000000000000000000, 62.31541963821899799, 5.723578436895000183E-15 ) ) ;
#287 = VECTOR ( 'NONE', #176, 1000.000000000000000 ) ;
#288 = ADVANCED_FACE ( 'NONE', ( #92 ), #502, .F. ) ;
#289 = DIRECTION ( 'NONE',  ( 0.000000000000000000, 0.000000000000000000, 1.000000000000000000 ) ) ;
#290 = PLANE ( 'NONE',  #1015 ) ;
#291 = AXIS2_PLACEMENT_3D ( 'NONE', #44, #924, #384 ) ;
#292 = DIRECTION ( 'NONE',  ( 0.000000000000000000, -0.5948380475741421591, 0.8038455679781922880 ) ) ;
#293 = CARTESIAN_POINT ( 'NONE',  ( 24.10391955517500051, 69.36396529418701107, 6.372537263414000286 ) ) ;
#294 = VERTEX_POINT ( 'NONE', #751 ) ;
#295 = DIRECTION ( 'NONE',  ( 0.000000000000000000, 0.7060831488569576653, -0.7081289338109575393 ) ) ;
#296 = CARTESIAN_POINT ( 'NONE',  ( 0.000000000000000000, 58.11894700674699266, 28.47597396012499971 ) ) ;
#297 = CARTESIAN_POINT ( 'NONE',  ( 27.68203535678100025, 58.11894700674699266, 27.90871231812699804 ) ) ;
#298 = VERTEX_POINT ( 'NONE', #1072 ) ;
#299 = ORIENTED_EDGE ( 'NONE', *, *, #919, .F. ) ;
#300 = DIRECTION ( 'NONE',  ( -0.000000000000000000, 1.000000000000000000, 0.000000000000000000 ) ) ;
#301 = VECTOR ( 'NONE', #22, 999.9999999999998863 ) ;
#302 = EDGE_CURVE ( 'NONE', #555, #954, #6, .T. ) ;
#303 = DIRECTION ( 'NONE',  ( -1.000000000000000000, 0.000000000000000000, 0.000000000000000000 ) ) ;
#304 = ORIENTED_EDGE ( 'NONE', *, *, #189, .F. ) ;
#305 = DIRECTION ( 'NONE',  ( 1.000000000000000000, 0.000000000000000000, 0.000000000000000000 ) ) ;
#306 = EDGE_CURVE ( 'NONE', #514, #636, #254, .T. ) ;
#307 = DIRECTION ( 'NONE',  ( 1.000000000000000000, 0.000000000000000000, 0.000000000000000000 ) ) ;
#308 = DIRECTION ( 'NONE',  ( -1.000000000000000000, 0.000000000000000000, 0.000000000000000000 ) ) ;
#309 = EDGE_CURVE ( 'NONE', #380, #921, #98, .T. ) ;
#310 = EDGE_LOOP ( 'NONE', ( #812, #211, #626, #834 ) ) ;
#311 = AXIS2_PLACEMENT_3D ( 'NONE', #1068, #173, #259 ) ;
#312 = CARTESIAN_POINT ( 'NONE',  ( 0.000000000000000000, 54.55693685214299649, 52.77909832294200498 ) ) ;
#313 = AXIS2_PLACEMENT_3D ( 'NONE', #746, #995, #359 ) ;
#314 = DIRECTION ( 'NONE',  ( 0.000000000000000000, 0.000000000000000000, -1.000000000000000000 ) ) ;
#315 = ORIENTED_EDGE ( 'NONE', *, *, #672, .F. ) ;
#316 = LINE ( 'NONE', #229, #961 ) ;
#317 = PLANE ( 'NONE',  #745 ) ;
#318 = ADVANCED_FACE ( 'NONE', ( #389 ), #782, .F. ) ;
#319 = ORIENTED_EDGE ( 'NONE', *, *, #327, .T. ) ;
#320 = PRODUCT_DEFINITION_SHAPE ( 'NONE', 'NONE',  #169 ) ;
#321 = ADVANCED_FACE ( 'NONE', ( #378 ), #203, .F. ) ;
#322 = DIRECTION ( 'NONE',  ( 0.000000000000000000, 0.000000000000000000, 1.000000000000000000 ) ) ;
#323 = LINE ( 'NONE', #328, #82 ) ;
#324 = ORIENTED_EDGE ( 'NONE', *, *, #227, .T. ) ;
#325 = MECHANICAL_DESIGN_GEOMETRIC_PRESENTATION_REPRESENTATION (  '', ( #792 ), #759 ) ;
#326 = CARTESIAN_POINT ( 'NONE',  ( 0.000000000000000000, 65.55282057521799288, 31.29541529578300185 ) ) ;
#327 = EDGE_CURVE ( 'NONE', #872, #872, #1048, .T. ) ;
#328 = CARTESIAN_POINT ( 'NONE',  ( 0.000000000000000000, 58.40017799969999857, 39.05388460897799519 ) ) ;
#329 = ORIENTED_EDGE ( 'NONE', *, *, #355, .F. ) ;
#330 =( NAMED_UNIT ( * ) PLANE_ANGLE_UNIT ( ) SI_UNIT ( $, .RADIAN. ) );
#331 = EDGE_CURVE ( 'NONE', #636, #360, #1035, .T. ) ;
#332 = DIRECTION ( 'NONE',  ( 1.000000000000000000, 0.000000000000000000, 0.000000000000000000 ) ) ;
#333 = VECTOR ( 'NONE', #705, 1000.000000000000000 ) ;
#334 = ORIENTED_EDGE ( 'NONE', *, *, #499, .F. ) ;
#335 = DIRECTION ( 'NONE',  ( 0.000000000000000000, 0.9959536837955412780, -0.08986801285268862516 ) ) ;
#336 = DIRECTION ( 'NONE',  ( -1.000000000000000000, 0.000000000000000000, 0.000000000000000000 ) ) ;
#337 = VECTOR ( 'NONE', #547, 1000.000000000000000 ) ;
#338 = CARTESIAN_POINT ( 'NONE',  ( 32.84336640273799190, 0.000000000000000000, 85.49023816560300304 ) ) ;
#339 = ORIENTED_EDGE ( 'NONE', *, *, #348, .T. ) ;
#340 = ORIENTED_EDGE ( 'NONE', *, *, #24, .T. ) ;
#341 = DIRECTION ( 'NONE',  ( 0.000000000000000000, 0.6658776228447859102, 0.7460609836967597719 ) ) ;
#342 = DIRECTION ( 'NONE',  ( -1.000000000000000000, 0.000000000000000000, 0.000000000000000000 ) ) ;
#343 = CLOSED_SHELL ( 'NONE', ( #321, #806, #529, #661, #494, #687, #215, #419, #870, #101, #171, #1032, #726, #976, #288, #357, #318, #488, #512, #91, #720, #670, #1038, #601, #58, #549, #201, #572, #481, #220, #858, #1008, #580, #594, #8, #247, #136 ) ) ;
#344 = CARTESIAN_POINT ( 'NONE',  ( 0.000000000000000000, 56.97135969715299808, 55.18654589876800287 ) ) ;
#345 = ORIENTED_EDGE ( 'NONE', *, *, #703, .T. ) ;
#346 = ORIENTED_EDGE ( 'NONE', *, *, #227, .F. ) ;
#347 = FACE_OUTER_BOUND ( 'NONE', #838, .T. ) ;
#348 = EDGE_CURVE ( 'NONE', #757, #272, #632, .T. ) ;
#349 = DIRECTION ( 'NONE',  ( 0.000000000000000000, 0.000000000000000000, 1.000000000000000000 ) ) ;
#350 = FACE_OUTER_BOUND ( 'NONE', #14, .T. ) ;
#351 = APPLICATION_CONTEXT ( 'automotive_design' ) ;
#352 = FACE_OUTER_BOUND ( 'NONE', #48, .T. ) ;
#353 = ORIENTED_EDGE ( 'NONE', *, *, #127, .F. ) ;
#354 = ORIENTED_EDGE ( 'NONE', *, *, #696, .F. ) ;
#355 = EDGE_CURVE ( 'NONE', #93, #204, #868, .T. ) ;
#356 = CARTESIAN_POINT ( 'NONE',  ( 0.000000000000000000, 58.11894700674699266, 27.90871231812699804 ) ) ;
#357 = ADVANCED_FACE ( 'NONE', ( #214 ), #111, .F. ) ;
#358 = LINE ( 'NONE', #4, #839 ) ;
#359 = DIRECTION ( 'NONE',  ( 0.000000000000000000, 0.000000000000000000, 1.000000000000000000 ) ) ;
#360 = VERTEX_POINT ( 'NONE', #218 ) ;
#361 = ORIENTED_EDGE ( 'NONE', *, *, #17, .T. ) ;
#362 = CYLINDRICAL_SURFACE ( 'NONE', #951, 62.31541963821899799 ) ;
#363 = DIRECTION ( 'NONE',  ( 1.000000000000000000, 0.000000000000000000, 0.000000000000000000 ) ) ;
#364 = EDGE_CURVE ( 'NONE', #757, #540, #552, .T. ) ;
#365 = CARTESIAN_POINT ( 'NONE',  ( 0.000000000000000000, 59.56187315465199816, 39.18626539382100304 ) ) ;
#366 = VECTOR ( 'NONE', #772, 1000.000000000000000 ) ;
#367 = ORIENTED_EDGE ( 'NONE', *, *, #783, .T. ) ;
#368 = CARTESIAN_POINT ( 'NONE',  ( 24.10391955517500051, 63.89079126608699966, 1.627732561960999913 ) ) ;
#369 = VECTOR ( 'NONE', #545, 1000.000000000000000 ) ;
#370 = AXIS2_PLACEMENT_3D ( 'NONE', #728, #982, #735 ) ;
#371 = DIRECTION ( 'NONE',  ( 0.000000000000000000, 0.000000000000000000, -1.000000000000000000 ) ) ;
#372 = DIRECTION ( 'NONE',  ( 0.000000000000000000, 0.000000000000000000, -1.000000000000000000 ) ) ;
#373 = EDGE_CURVE ( 'NONE', #634, #1025, #28, .T. ) ;
#374 = EDGE_LOOP ( 'NONE', ( #799, #650, #496, #678 ) ) ;
#375 = LINE ( 'NONE', #702, #225 ) ;
#376 = LINE ( 'NONE', #135, #620 ) ;
#377 = LINE ( 'NONE', #618, #490 ) ;
#378 = FACE_OUTER_BOUND ( 'NONE', #935, .T. ) ;
#379 = PRODUCT_DEFINITION_CONTEXT ( 'detailed design', #351, 'design' ) ;
#380 = VERTEX_POINT ( 'NONE', #942 ) ;
#381 = ORIENTED_EDGE ( 'NONE', *, *, #157, .F. ) ;
#382 = DIRECTION ( 'NONE',  ( 0.000000000000000000, -0.9935697063756805392, -0.1132220763479635517 ) ) ;
#383 = AXIS2_PLACEMENT_3D ( 'NONE', #953, #528, #130 ) ;
#384 = DIRECTION ( 'NONE',  ( -1.000000000000000000, 0.000000000000000000, 0.000000000000000000 ) ) ;
#385 = CARTESIAN_POINT ( 'NONE',  ( 32.84336640273799190, 29.54852736547299585, 57.66099374562900692 ) ) ;
#386 = COLOUR_RGB ( '',0.7921568627450980005, 0.8196078431372548767, 0.9333333333333333481 ) ;
#387 = ORIENTED_EDGE ( 'NONE', *, *, #849, .F. ) ;
#388 = PLANE ( 'NONE',  #94 ) ;
#389 = FACE_OUTER_BOUND ( 'NONE', #553, .T. ) ;
#390 = LINE ( 'NONE', #956, #697 ) ;
#391 = CARTESIAN_POINT ( 'NONE',  ( 32.84336640273799190, 63.45103962716599710, 36.81121285207999705 ) ) ;
#392 = VECTOR ( 'NONE', #700, 1000.000000000000227 ) ;
#393 = DIRECTION ( 'NONE',  ( 1.000000000000000000, 0.000000000000000000, 0.000000000000000000 ) ) ;
#394 = ORIENTED_EDGE ( 'NONE', *, *, #444, .T. ) ;
#395 = EDGE_LOOP ( 'NONE', ( #570, #922, #387, #683 ) ) ;
#396 = FACE_OUTER_BOUND ( 'NONE', #763, .T. ) ;
#397 = EDGE_CURVE ( 'NONE', #853, #380, #469, .T. ) ;
#398 = CARTESIAN_POINT ( 'NONE',  ( 0.000000000000000000, 0.000000000000000000, 0.000000000000000000 ) ) ;
#399 = ORIENTED_EDGE ( 'NONE', *, *, #614, .F. ) ;
#400 = DIRECTION ( 'NONE',  ( -1.000000000000000000, 0.000000000000000000, 0.000000000000000000 ) ) ;
#401 = LINE ( 'NONE', #559, #276 ) ;
#402 = EDGE_CURVE ( 'NONE', #228, #636, #548, .T. ) ;
#403 = EDGE_LOOP ( 'NONE', ( #609 ) ) ;
#404 = CYLINDRICAL_SURFACE ( 'NONE', #556, 0.6591137140829970154 ) ;
#405 = DIRECTION ( 'NONE',  ( -1.000000000000000000, 0.000000000000000000, 0.000000000000000000 ) ) ;
#406 = VERTEX_POINT ( 'NONE', #122 ) ;
#407 = EDGE_CURVE ( 'NONE', #814, #814, #52, .T. ) ;
#408 = CARTESIAN_POINT ( 'NONE',  ( 2.884592269357999950, 57.93397554487199841, 37.98163670091400235 ) ) ;
#409 = CARTESIAN_POINT ( 'NONE',  ( 0.000000000000000000, 69.68142765399299776, 2.053346834532999932 ) ) ;
#410 = ORIENTED_EDGE ( 'NONE', *, *, #631, .T. ) ;
#411 = VECTOR ( 'NONE', #986, 1000.000000000000000 ) ;
#412 = EDGE_CURVE ( 'NONE', #769, #910, #452, .T. ) ;
#413 = DIRECTION ( 'NONE',  ( 0.000000000000000000, 0.9973097386246138063, 0.07330269602480159186 ) ) ;
#414 = AXIS2_PLACEMENT_3D ( 'NONE', #115, #1039, #372 ) ;
#415 = DIRECTION ( 'NONE',  ( 0.000000000000000000, 0.000000000000000000, 1.000000000000000000 ) ) ;
#416 = VECTOR ( 'NONE', #230, 1000.000000000000000 ) ;
#417 = ORIENTED_EDGE ( 'NONE', *, *, #77, .T. ) ;
#418 = LINE ( 'NONE', #667, #803 ) ;
#419 = ADVANCED_FACE ( 'NONE', ( #701 ), #290, .T. ) ;
#420 =( LENGTH_UNIT ( ) NAMED_UNIT ( * ) SI_UNIT ( .MILLI., .METRE. ) );
#421 = CARTESIAN_POINT ( 'NONE',  ( 0.000000000000000000, -3.815718962342000031E-15, 62.31541963821899799 ) ) ;
#422 = DIRECTION ( 'NONE',  ( -1.000000000000000000, 0.000000000000000000, 0.000000000000000000 ) ) ;
#423 = ORIENTED_EDGE ( 'NONE', *, *, #1000, .T. ) ;
#424 = ORIENTED_EDGE ( 'NONE', *, *, #750, .T. ) ;
#425 = CARTESIAN_POINT ( 'NONE',  ( 0.000000000000000000, 64.46999498908100179, 36.45819792215699806 ) ) ;
#426 = FILL_AREA_STYLE ('',( #589 ) ) ;
#427 = VECTOR ( 'NONE', #89, 1000.000000000000000 ) ;
#428 = DIRECTION ( 'NONE',  ( 1.000000000000000000, 0.000000000000000000, 0.000000000000000000 ) ) ;
#429 = VERTEX_POINT ( 'NONE', #458 ) ;
#430 = ORIENTED_EDGE ( 'NONE', *, *, #331, .F. ) ;
#431 = DIRECTION ( 'NONE',  ( 1.000000000000000000, 0.000000000000000000, 0.000000000000000000 ) ) ;
#432 = AXIS2_PLACEMENT_3D ( 'NONE', #208, #612, #277 ) ;
#433 = FACE_OUTER_BOUND ( 'NONE', #131, .T. ) ;
#434 = CARTESIAN_POINT ( 'NONE',  ( 0.000000000000000000, 0.000000000000000000, 0.000000000000000000 ) ) ;
#435 = ORIENTED_EDGE ( 'NONE', *, *, #964, .T. ) ;
#436 = EDGE_CURVE ( 'NONE', #1019, #555, #39, .T. ) ;
#437 = DIRECTION ( 'NONE',  ( 0.000000000000000000, 0.5948380475741421591, -0.8038455679781922880 ) ) ;
#438 =( NAMED_UNIT ( * ) PLANE_ANGLE_UNIT ( ) SI_UNIT ( $, .RADIAN. ) );
#439 = DIRECTION ( 'NONE',  ( 0.000000000000000000, 0.3560729581749885186, -0.9344581576809700696 ) ) ;
#440 = CARTESIAN_POINT ( 'NONE',  ( 32.84336640273799190, 71.08065895453199801, 63.47824258301699984 ) ) ;
#441 = ORIENTED_EDGE ( 'NONE', *, *, #157, .T. ) ;
#442 = VECTOR ( 'NONE', #95, 1000.000000000000000 ) ;
#443 = CARTESIAN_POINT ( 'NONE',  ( 23.28786189817000007, 62.31541963821899799, 0.000000000000000000 ) ) ;
#444 = EDGE_CURVE ( 'NONE', #983, #739, #864, .T. ) ;
#445 = CARTESIAN_POINT ( 'NONE',  ( 0.000000000000000000, 58.62946824499500309, 37.04176957769500689 ) ) ;
#446 = CARTESIAN_POINT ( 'NONE',  ( 0.000000000000000000, 63.57332890628100586, 5.946922990843000356 ) ) ;
#447 = VERTEX_POINT ( 'NONE', #789 ) ;
#448 = DIRECTION ( 'NONE',  ( 1.000000000000000000, 0.000000000000000000, 0.000000000000000000 ) ) ;
#449 = LINE ( 'NONE', #775, #392 ) ;
#450 = EDGE_CURVE ( 'NONE', #881, #983, #46, .T. ) ;
#451 = VERTEX_POINT ( 'NONE', #781 ) ;
#452 = LINE ( 'NONE', #53, #824 ) ;
#453 = AXIS2_PLACEMENT_3D ( 'NONE', #852, #210, #539 ) ;
#454 = DIRECTION ( 'NONE',  ( 0.000000000000000000, 0.000000000000000000, 1.000000000000000000 ) ) ;
#455 = DIRECTION ( 'NONE',  ( 1.000000000000000000, 0.000000000000000000, 0.000000000000000000 ) ) ;
#456 = VECTOR ( 'NONE', #308, 1000.000000000000000 ) ;
#457 = DIRECTION ( 'NONE',  ( 1.000000000000000000, 0.000000000000000000, 0.000000000000000000 ) ) ;
#458 = CARTESIAN_POINT ( 'NONE',  ( 32.84336640273799190, 71.08065895453199801, 0.000000000000000000 ) ) ;
#459 = ORIENTED_EDGE ( 'NONE', *, *, #407, .T. ) ;
#460 = EDGE_LOOP ( 'NONE', ( #574, #743, #129, #509 ) ) ;
#461 = CARTESIAN_POINT ( 'NONE',  ( 0.000000000000000000, 54.55693685214299649, 52.77909832294200498 ) ) ;
#462 = ORIENTED_EDGE ( 'NONE', *, *, #499, .T. ) ;
#463 = DIRECTION ( 'NONE',  ( 0.000000000000000000, 0.000000000000000000, 1.000000000000000000 ) ) ;
#464 = DIRECTION ( 'NONE',  ( 0.000000000000000000, 0.000000000000000000, 1.000000000000000000 ) ) ;
#465 = ORIENTED_EDGE ( 'NONE', *, *, #31, .T. ) ;
#466 = ORIENTED_EDGE ( 'NONE', *, *, #85, .F. ) ;
#467 = EDGE_CURVE ( 'NONE', #204, #298, #1054, .T. ) ;
#468 = CARTESIAN_POINT ( 'NONE',  ( 0.000000000000000000, 0.000000000000000000, 0.000000000000000000 ) ) ;
#469 = LINE ( 'NONE', #279, #774 ) ;
#470 = ORIENTED_EDGE ( 'NONE', *, *, #823, .T. ) ;
#471 = FACE_OUTER_BOUND ( 'NONE', #895, .T. ) ;
#472 = VECTOR ( 'NONE', #464, 1000.000000000000000 ) ;
#473 = CIRCLE ( 'NONE', #1066, 0.4647463779990021471 ) ;
#474 = DIRECTION ( 'NONE',  ( 0.000000000000000000, 1.000000000000000000, 0.000000000000000000 ) ) ;
#475 = VERTEX_POINT ( 'NONE', #408 ) ;
#476 = LINE ( 'NONE', #233, #275 ) ;
#477 = DIRECTION ( 'NONE',  ( 0.000000000000000000, 0.9935697063756805392, 0.1132220763479635517 ) ) ;
#478 = EDGE_LOOP ( 'NONE', ( #914, #70, #340, #353 ) ) ;
#479 = VECTOR ( 'NONE', #929, 1000.000000000000000 ) ;
#480 = EDGE_CURVE ( 'NONE', #429, #1064, #316, .T. ) ;
#481 = ADVANCED_FACE ( 'NONE', ( #879 ), #809, .F. ) ;
#482 = PLANE ( 'NONE',  #81 ) ;
#483 = LINE ( 'NONE', #880, #610 ) ;
#484 = VECTOR ( 'NONE', #668, 1000.000000000000000 ) ;
#485 = VERTEX_POINT ( 'NONE', #980 ) ;
#486 = DIRECTION ( 'NONE',  ( 0.000000000000000000, -0.9973097386246138063, -0.07330269602480159186 ) ) ;
#487 = FACE_BOUND ( 'NONE', #521, .T. ) ;
#488 = ADVANCED_FACE ( 'NONE', ( #805 ), #642, .F. ) ;
#489 = VERTEX_POINT ( 'NONE', #734 ) ;
#490 = VECTOR ( 'NONE', #543, 1000.000000000000114 ) ;
#491 = CARTESIAN_POINT ( 'NONE',  ( 23.28786189817000007, 0.000000000000000000, 0.000000000000000000 ) ) ;
#492 = FACE_BOUND ( 'NONE', #592, .T. ) ;
#493 = EDGE_LOOP ( 'NONE', ( #161, #73, #299 ) ) ;
#494 = ADVANCED_FACE ( 'NONE', ( #969, #875 ), #74, .T. ) ;
#495 = LINE ( 'NONE', #649, #825 ) ;
#496 = ORIENTED_EDGE ( 'NONE', *, *, #306, .F. ) ;
#497 = CARTESIAN_POINT ( 'NONE',  ( 32.84336640273799190, 31.66381737636800153, 63.47824258301699984 ) ) ;
#498 = VECTOR ( 'NONE', #955, 1000.000000000000000 ) ;
#499 = EDGE_CURVE ( 'NONE', #447, #729, #65, .T. ) ;
#500 = FACE_OUTER_BOUND ( 'NONE', #267, .T. ) ;
#501 = AXIS2_PLACEMENT_3D ( 'NONE', #1045, #322, #307 ) ;
#502 = PLANE ( 'NONE',  #588 ) ;
#503 = AXIS2_PLACEMENT_3D ( 'NONE', #66, #578, #738 ) ;
#504 = ORIENTED_EDGE ( 'NONE', *, *, #436, .F. ) ;
#505 = CARTESIAN_POINT ( 'NONE',  ( 0.000000000000000000, 60.25736585477499574, 38.24639827060099151 ) ) ;
#506 = SURFACE_STYLE_USAGE ( .BOTH. , #1007 ) ;
#507 = EDGE_CURVE ( 'NONE', #804, #244, #476, .T. ) ;
#508 = DIRECTION ( 'NONE',  ( 1.000000000000000000, 0.000000000000000000, 0.000000000000000000 ) ) ;
#509 = ORIENTED_EDGE ( 'NONE', *, *, #1000, .F. ) ;
#510 = ORIENTED_EDGE ( 'NONE', *, *, #302, .T. ) ;
#511 = LINE ( 'NONE', #748, #932 ) ;
#512 = ADVANCED_FACE ( 'NONE', ( #974 ), #959, .F. ) ;
#513 = PLANE ( 'NONE',  #1013 ) ;
#514 = VERTEX_POINT ( 'NONE', #224 ) ;
#515 = VERTEX_POINT ( 'NONE', #238 ) ;
#516 = LINE ( 'NONE', #162, #16 ) ;
#517 = VECTOR ( 'NONE', #439, 1000.000000000000114 ) ;
#518 = DIRECTION ( 'NONE',  ( -1.000000000000000000, 0.000000000000000000, 0.000000000000000000 ) ) ;
#519 = PLANE ( 'NONE',  #165 ) ;
#520 = AXIS2_PLACEMENT_3D ( 'NONE', #241, #154, #59 ) ;
#521 = EDGE_LOOP ( 'NONE', ( #666, #47, #1059, #522 ) ) ;
#522 = ORIENTED_EDGE ( 'NONE', *, *, #823, .F. ) ;
#523 = CARTESIAN_POINT ( 'NONE',  ( 0.000000000000000000, 59.56187315465199816, 39.18626539382100304 ) ) ;
#524 = CARTESIAN_POINT ( 'NONE',  ( 0.000000000000000000, 58.11894700674699266, 27.90871231812699804 ) ) ;
#525 = LINE ( 'NONE', #767, #411 ) ;
#526 = ORIENTED_EDGE ( 'NONE', *, *, #306, .T. ) ;
#527 = AXIS2_PLACEMENT_3D ( 'NONE', #857, #457, #941 ) ;
#528 = DIRECTION ( 'NONE',  ( -1.000000000000000000, 0.000000000000000000, 0.000000000000000000 ) ) ;
#529 = ADVANCED_FACE ( 'NONE', ( #150, #651 ), #404, .T. ) ;
#530 = DIRECTION ( 'NONE',  ( -1.000000000000000000, 0.000000000000000000, 0.000000000000000000 ) ) ;
#531 = DIRECTION ( 'NONE',  ( 0.000000000000000000, -0.9170676443260751265, 0.3987316588010331730 ) ) ;
#532 =( GEOMETRIC_REPRESENTATION_CONTEXT ( 3 ) GLOBAL_UNCERTAINTY_ASSIGNED_CONTEXT ( ( #784 ) ) GLOBAL_UNIT_ASSIGNED_CONTEXT ( ( #420, #438, #257 ) ) REPRESENTATION_CONTEXT ( 'NONE', 'WORKASPACE' ) );
#533 = APPLICATION_CONTEXT ( 'automotive_design' ) ;
#534 = ORIENTED_EDGE ( 'NONE', *, *, #183, .T. ) ;
#535 = CARTESIAN_POINT ( 'NONE',  ( 32.84336640273799190, 64.31785623712299582, 36.01905899651299592 ) ) ;
#536 = CARTESIAN_POINT ( 'NONE',  ( 0.000000000000000000, 53.69750174282099664, 55.48195633150699990 ) ) ;
#537 = ORIENTED_EDGE ( 'NONE', *, *, #544, .F. ) ;
#538 = DIRECTION ( 'NONE',  ( -1.000000000000000000, 0.000000000000000000, 0.000000000000000000 ) ) ;
#539 = DIRECTION ( 'NONE',  ( 0.000000000000000000, 1.000000000000000000, 0.000000000000000000 ) ) ;
#540 = VERTEX_POINT ( 'NONE', #143 ) ;
#541 = DIRECTION ( 'NONE',  ( -1.000000000000000000, 0.000000000000000000, 0.000000000000000000 ) ) ;
#542 = ORIENTED_EDGE ( 'NONE', *, *, #50, .T. ) ;
#543 = DIRECTION ( 'NONE',  ( 0.000000000000000000, -0.9449001572316783060, 0.3273586608958886091 ) ) ;
#544 = EDGE_CURVE ( 'NONE', #294, #634, #892, .T. ) ;
#545 = DIRECTION ( 'NONE',  ( 1.000000000000000000, 0.000000000000000000, 0.000000000000000000 ) ) ;
#546 = EDGE_LOOP ( 'NONE', ( #945, #410, #786, #248 ) ) ;
#547 = DIRECTION ( 'NONE',  ( 0.000000000000000000, -0.3987316588010331175, -0.9170676443260751265 ) ) ;
#548 = LINE ( 'NONE', #859, #877 ) ;
#549 = ADVANCED_FACE ( 'NONE', ( #396 ), #813, .F. ) ;
#550 = FACE_OUTER_BOUND ( 'NONE', #873, .T. ) ;
#551 = CARTESIAN_POINT ( 'NONE',  ( 5.597153133267999792, 55.31058850672199867, 38.86416501536400148 ) ) ;
#552 = LINE ( 'NONE', #446, #366 ) ;
#553 = EDGE_LOOP ( 'NONE', ( #367, #865, #106, #153 ) ) ;
#554 = AXIS2_PLACEMENT_3D ( 'NONE', #297, #1022, #722 ) ;
#555 = VERTEX_POINT ( 'NONE', #1049 ) ;
#556 = AXIS2_PLACEMENT_3D ( 'NONE', #737, #558, #571 ) ;
#557 = AXIS2_PLACEMENT_3D ( 'NONE', #535, #55, #708 ) ;
#558 = DIRECTION ( 'NONE',  ( -1.000000000000000000, 0.000000000000000000, 0.000000000000000000 ) ) ;
#559 = CARTESIAN_POINT ( 'NONE',  ( 0.000000000000000000, 58.40017799969999857, 39.05388460897799519 ) ) ;
#560 = EDGE_LOOP ( 'NONE', ( #860, #424, #466, #903 ) ) ;
#561 = EDGE_CURVE ( 'NONE', #13, #515, #1061, .T. ) ;
#562 = DIRECTION ( 'NONE',  ( 0.000000000000000000, 0.000000000000000000, 1.000000000000000000 ) ) ;
#563 = DIRECTION ( 'NONE',  ( 1.000000000000000000, 0.000000000000000000, 0.000000000000000000 ) ) ;
#564 = ORIENTED_EDGE ( 'NONE', *, *, #887, .T. ) ;
#565 = VECTOR ( 'NONE', #541, 1000.000000000000000 ) ;
#566 = EDGE_CURVE ( 'NONE', #1042, #1023, #660, .T. ) ;
#567 = CARTESIAN_POINT ( 'NONE',  ( 0.000000000000000000, 60.25736585477499574, 38.24639827060099151 ) ) ;
#568 = FACE_BOUND ( 'NONE', #844, .T. ) ;
#569 = AXIS2_PLACEMENT_3D ( 'NONE', #912, #336, #831 ) ;
#570 = ORIENTED_EDGE ( 'NONE', *, *, #121, .T. ) ;
#571 = DIRECTION ( 'NONE',  ( 0.000000000000000000, 0.000000000000000000, 1.000000000000000000 ) ) ;
#572 = ADVANCED_FACE ( 'NONE', ( #965 ), #482, .T. ) ;
#573 = CARTESIAN_POINT ( 'NONE',  ( 0.000000000000000000, 64.31785623712299582, 36.01905899651299592 ) ) ;
#574 = ORIENTED_EDGE ( 'NONE', *, *, #817, .T. ) ;
#575 = AXIS2_PLACEMENT_3D ( 'NONE', #356, #431, #185 ) ;
#576 = PRESENTATION_STYLE_ASSIGNMENT (( #506 ) ) ;
#577 = EDGE_CURVE ( 'NONE', #266, #515, #826, .T. ) ;
#578 = DIRECTION ( 'NONE',  ( 1.000000000000000000, 0.000000000000000000, 0.000000000000000000 ) ) ;
#579 = EDGE_LOOP ( 'NONE', ( #179 ) ) ;
#580 = ADVANCED_FACE ( 'NONE', ( #433 ), #841, .F. ) ;
#581 = PRODUCT ( '20260414_160844_162', '20260414_160844_162', '', ( #979 ) ) ;
#582 = CARTESIAN_POINT ( 'NONE',  ( 32.84336640273799190, 63.45103962716599710, 36.81121285207999705 ) ) ;
#583 = CARTESIAN_POINT ( 'NONE',  ( 32.84336640273799190, 64.10830326910598842, 35.08632653915699962 ) ) ;
#584 = EDGE_LOOP ( 'NONE', ( #465, #423, #641, #354 ) ) ;
#585 = EDGE_LOOP ( 'NONE', ( #304 ) ) ;
#586 = CARTESIAN_POINT ( 'NONE',  ( 32.84336640273799190, 64.10830326910598842, 35.08632653915699962 ) ) ;
#587 = EDGE_CURVE ( 'NONE', #540, #1011, #103, .T. ) ;
#588 = AXIS2_PLACEMENT_3D ( 'NONE', #756, #827, #422 ) ;
#589 = FILL_AREA_STYLE_COLOUR ( '', #386 ) ;
#590 = DIRECTION ( 'NONE',  ( 1.000000000000000000, 0.000000000000000000, 0.000000000000000000 ) ) ;
#591 = ORIENTED_EDGE ( 'NONE', *, *, #193, .F. ) ;
#592 = EDGE_LOOP ( 'NONE', ( #617 ) ) ;
#593 = LINE ( 'NONE', #599, #158 ) ;
#594 = ADVANCED_FACE ( 'NONE', ( #11 ), #897, .F. ) ;
#595 = DIRECTION ( 'NONE',  ( 0.000000000000000000, -0.9344581576809701806, -0.3560729581749885742 ) ) ;
#596 = CARTESIAN_POINT ( 'NONE',  ( 2.884592269357999950, 59.56187315465199816, 39.18626539382100304 ) ) ;
#597 = ORIENTED_EDGE ( 'NONE', *, *, #142, .F. ) ;
#598 = ORIENTED_EDGE ( 'NONE', *, *, #31, .F. ) ;
#599 = CARTESIAN_POINT ( 'NONE',  ( 0.000000000000000000, 57.93397554487199841, 37.98163670091400235 ) ) ;
#600 = DIRECTION ( 'NONE',  ( -0.000000000000000000, 1.000000000000000000, 0.000000000000000000 ) ) ;
#601 = ADVANCED_FACE ( 'NONE', ( #350 ), #1071, .F. ) ;
#602 = DIRECTION ( 'NONE',  ( 0.000000000000000000, 0.3030227027410574703, -0.9529833375371810078 ) ) ;
#603 = ORIENTED_EDGE ( 'NONE', *, *, #142, .T. ) ;
#604 = LINE ( 'NONE', #673, #427 ) ;
#605 = FACE_OUTER_BOUND ( 'NONE', #105, .T. ) ;
#606 = LINE ( 'NONE', #440, #692 ) ;
#607 = EDGE_CURVE ( 'NONE', #489, #266, #994, .T. ) ;
#608 = VECTOR ( 'NONE', #147, 1000.000000000000114 ) ;
#609 = ORIENTED_EDGE ( 'NONE', *, *, #623, .T. ) ;
#610 = VECTOR ( 'NONE', #655, 1000.000000000000000 ) ;
#611 = CARTESIAN_POINT ( 'NONE',  ( 23.28786189817000007, 25.71122635275100166, 25.71122635275100166 ) ) ;
#612 = DIRECTION ( 'NONE',  ( -1.000000000000000000, 0.000000000000000000, 0.000000000000000000 ) ) ;
#613 = DIRECTION ( 'NONE',  ( 0.000000000000000000, -0.3987316588010331175, -0.9170676443260751265 ) ) ;
#614 = EDGE_CURVE ( 'NONE', #769, #406, #51, .T. ) ;
#615 = ORIENTED_EDGE ( 'NONE', *, *, #480, .T. ) ;
#616 = CARTESIAN_POINT ( 'NONE',  ( 0.000000000000000000, 53.69750174282099664, 55.48195633150699990 ) ) ;
#617 = ORIENTED_EDGE ( 'NONE', *, *, #623, .F. ) ;
#618 = CARTESIAN_POINT ( 'NONE',  ( 32.84336640273799190, 65.12896860425200884, 36.22989790698800050 ) ) ;
#619 = DIRECTION ( 'NONE',  ( 0.000000000000000000, 0.000000000000000000, 1.000000000000000000 ) ) ;
#620 = VECTOR ( 'NONE', #787, 1000.000000000000000 ) ;
#621 = ORIENTED_EDGE ( 'NONE', *, *, #712, .T. ) ;
#622 = CARTESIAN_POINT ( 'NONE',  ( 0.000000000000000000, 71.08065895453199801, 0.000000000000000000 ) ) ;
#623 = EDGE_CURVE ( 'NONE', #931, #931, #181, .T. ) ;
#624 = FACE_OUTER_BOUND ( 'NONE', #403, .T. ) ;
#625 = DIRECTION ( 'NONE',  ( -1.000000000000000000, 0.000000000000000000, 0.000000000000000000 ) ) ;
#626 = ORIENTED_EDGE ( 'NONE', *, *, #993, .F. ) ;
#627 = ORIENTED_EDGE ( 'NONE', *, *, #993, .T. ) ;
#628 = LINE ( 'NONE', #368, #971 ) ;
#629 = ORIENTED_EDGE ( 'NONE', *, *, #887, .F. ) ;
#630 = CARTESIAN_POINT ( 'NONE',  ( 0.000000000000000000, 71.08065895453199801, 0.000000000000000000 ) ) ;
#631 = EDGE_CURVE ( 'NONE', #272, #1011, #358, .T. ) ;
#632 = LINE ( 'NONE', #715, #732 ) ;
#633 = VERTEX_POINT ( 'NONE', #421 ) ;
#634 = VERTEX_POINT ( 'NONE', #918 ) ;
#635 = DIRECTION ( 'NONE',  ( 0.000000000000000000, -0.07330269602480159186, 0.9973097386246138063 ) ) ;
#636 = VERTEX_POINT ( 'NONE', #907 ) ;
#637 = VECTOR ( 'NONE', #1012, 1000.000000000000000 ) ;
#638 = DIRECTION ( 'NONE',  ( 1.000000000000000000, 0.000000000000000000, 0.000000000000000000 ) ) ;
#639 = ORIENTED_EDGE ( 'NONE', *, *, #108, .T. ) ;
#640 = CYLINDRICAL_SURFACE ( 'NONE', #557, 0.4647463779989994825 ) ;
#641 = ORIENTED_EDGE ( 'NONE', *, *, #710, .F. ) ;
#642 = PLANE ( 'NONE',  #520 ) ;
#643 = FACE_OUTER_BOUND ( 'NONE', #808, .T. ) ;
#644 = AXIS2_PLACEMENT_3D ( 'NONE', #132, #625, #1017 ) ;
#645 = EDGE_CURVE ( 'NONE', #721, #721, #97, .T. ) ;
#646 = ORIENTED_EDGE ( 'NONE', *, *, #894, .T. ) ;
#647 = VECTOR ( 'NONE', #731, 1000.000000000000000 ) ;
#648 = DIRECTION ( 'NONE',  ( 0.000000000000000000, -0.3030227027410574703, 0.9529833375371810078 ) ) ;
#649 = CARTESIAN_POINT ( 'NONE',  ( 0.000000000000000000, 0.000000000000000000, 0.000000000000000000 ) ) ;
#650 = ORIENTED_EDGE ( 'NONE', *, *, #402, .T. ) ;
#651 = FACE_OUTER_BOUND ( 'NONE', #991, .T. ) ;
#652 = FACE_BOUND ( 'NONE', #88, .T. ) ;
#653 = VERTEX_POINT ( 'NONE', #164 ) ;
#654 = DIRECTION ( 'NONE',  ( -1.000000000000000000, 0.000000000000000000, 0.000000000000000000 ) ) ;
#655 = DIRECTION ( 'NONE',  ( 0.000000000000000000, 1.000000000000000000, 0.000000000000000000 ) ) ;
#656 = AXIS2_PLACEMENT_3D ( 'NONE', #761, #595, #96 ) ;
#657 = ORIENTED_EDGE ( 'NONE', *, *, #937, .F. ) ;
#658 = MANIFOLD_SOLID_BREP ( 'Open CASCADE STEP translator 7.5 14[1]', #343 ) ;
#659 = VECTOR ( 'NONE', #727, 1000.000000000000000 ) ;
#660 = LINE ( 'NONE', #312, #137 ) ;
#661 = ADVANCED_FACE ( 'NONE', ( #500, #749 ), #674, .T. ) ;
#662 = LINE ( 'NONE', #807, #647 ) ;
#663 = EDGE_LOOP ( 'NONE', ( #564 ) ) ;
#664 = VECTOR ( 'NONE', #113, 1000.000000000000000 ) ;
#665 = LINE ( 'NONE', #836, #958 ) ;
#666 = ORIENTED_EDGE ( 'NONE', *, *, #183, .F. ) ;
#667 = CARTESIAN_POINT ( 'NONE',  ( 0.000000000000000000, 0.000000000000000000, 85.49023816560300304 ) ) ;
#668 = DIRECTION ( 'NONE',  ( 1.000000000000000000, 0.000000000000000000, 0.000000000000000000 ) ) ;
#669 = CARTESIAN_POINT ( 'NONE',  ( 32.84336640273799190, 65.12896860425200884, 36.22989790698800050 ) ) ;
#670 = ADVANCED_FACE ( 'NONE', ( #605 ), #846, .F. ) ;
#671 = ORIENTED_EDGE ( 'NONE', *, *, #577, .F. ) ;
#672 = EDGE_CURVE ( 'NONE', #677, #983, #771, .T. ) ;
#673 = CARTESIAN_POINT ( 'NONE',  ( 0.000000000000000000, 56.97135969715299808, 55.18654589876800287 ) ) ;
#674 = CYLINDRICAL_SURFACE ( 'NONE', #1031, 0.5672616419979993330 ) ;
#675 = CARTESIAN_POINT ( 'NONE',  ( 0.000000000000000000, 54.55693685214299649, 52.77909832294200498 ) ) ;
#676 = ADVANCED_BREP_SHAPE_REPRESENTATION ( '20260414_160844_162', ( #658, #871 ), #532 ) ;
#677 = VERTEX_POINT ( 'NONE', #23 ) ;
#678 = ORIENTED_EDGE ( 'NONE', *, *, #919, .T. ) ;
#679 = PLANE ( 'NONE',  #800 ) ;
#680 = CARTESIAN_POINT ( 'NONE',  ( 0.000000000000000000, 0.000000000000000000, 0.000000000000000000 ) ) ;
#681 = CARTESIAN_POINT ( 'NONE',  ( 0.000000000000000000, 58.11894700674699266, 27.90871231812699804 ) ) ;
#682 = FACE_OUTER_BOUND ( 'NONE', #478, .T. ) ;
#683 = ORIENTED_EDGE ( 'NONE', *, *, #163, .F. ) ;
#684 = EDGE_LOOP ( 'NONE', ( #231 ) ) ;
#685 = DIRECTION ( 'NONE',  ( 0.000000000000000000, 1.000000000000000000, 0.000000000000000000 ) ) ;
#686 = DIRECTION ( 'NONE',  ( 0.000000000000000000, 0.000000000000000000, -1.000000000000000000 ) ) ;
#687 = ADVANCED_FACE ( 'NONE', ( #187 ), #38, .T. ) ;
#688 = LINE ( 'NONE', #19, #168 ) ;
#689 = EDGE_LOOP ( 'NONE', ( #119, #35, #972, #915, #928, #435 ) ) ;
#690 = ORIENTED_EDGE ( 'NONE', *, *, #645, .T. ) ;
#691 = LINE ( 'NONE', #523, #109 ) ;
#692 = VECTOR ( 'NONE', #1009, 1000.000000000000000 ) ;
#693 = PLANE ( 'NONE',  #60 ) ;
#694 = CARTESIAN_POINT ( 'NONE',  ( 0.000000000000000000, 69.68142765399299776, 2.053346834532999932 ) ) ;
#695 = AXIS2_PLACEMENT_3D ( 'NONE', #90, #84, #518 ) ;
#696 = EDGE_CURVE ( 'NONE', #921, #653, #120, .T. ) ;
#697 = VECTOR ( 'NONE', #285, 1000.000000000000000 ) ;
#698 = EDGE_LOOP ( 'NONE', ( #646, #281, #315, #260, #334, #597, #324 ) ) ;
#699 = DIRECTION ( 'NONE',  ( 1.000000000000000000, 0.000000000000000000, 0.000000000000000000 ) ) ;
#700 = DIRECTION ( 'NONE',  ( 0.000000000000000000, 0.6658776228447859102, 0.7460609836967597719 ) ) ;
#701 = FACE_OUTER_BOUND ( 'NONE', #546, .T. ) ;
#702 = CARTESIAN_POINT ( 'NONE',  ( 0.000000000000000000, 58.62946824499500309, 37.04176957769500689 ) ) ;
#703 = EDGE_CURVE ( 'NONE', #196, #196, #896, .T. ) ;
#704 = CARTESIAN_POINT ( 'NONE',  ( 0.000000000000000000, 53.69750174282099664, 55.48195633150699990 ) ) ;
#705 = DIRECTION ( 'NONE',  ( 0.000000000000000000, -0.5948380475741421591, 0.8038455679781922880 ) ) ;
#706 = CARTESIAN_POINT ( 'NONE',  ( 0.000000000000000000, 0.000000000000000000, 85.49023816560300304 ) ) ;
#707 = VECTOR ( 'NONE', #448, 1000.000000000000000 ) ;
#708 = DIRECTION ( 'NONE',  ( 0.000000000000000000, 0.3273586608958827804, 0.9449001572316804154 ) ) ;
#709 = CYLINDRICAL_SURFACE ( 'NONE', #63, 1.000000000000000888 ) ;
#710 = EDGE_CURVE ( 'NONE', #653, #475, #269, .T. ) ;
#711 = ORIENTED_EDGE ( 'NONE', *, *, #900, .T. ) ;
#712 = EDGE_CURVE ( 'NONE', #794, #555, #202, .T. ) ;
#713 = CARTESIAN_POINT ( 'NONE',  ( 0.000000000000000000, 58.11894700674699266, 27.90871231812699804 ) ) ;
#714 = VECTOR ( 'NONE', #363, 1000.000000000000000 ) ;
#715 = CARTESIAN_POINT ( 'NONE',  ( 0.000000000000000000, 63.57332890628100586, 5.946922990843000356 ) ) ;
#716 = ORIENTED_EDGE ( 'NONE', *, *, #696, .T. ) ;
#717 = FACE_OUTER_BOUND ( 'NONE', #255, .T. ) ;
#718 = ORIENTED_EDGE ( 'NONE', *, *, #237, .F. ) ;
#719 = EDGE_CURVE ( 'NONE', #769, #489, #377, .T. ) ;
#720 = ADVANCED_FACE ( 'NONE', ( #1026, #624 ), #1014, .F. ) ;
#721 = VERTEX_POINT ( 'NONE', #278 ) ;
#722 = DIRECTION ( 'NONE',  ( 0.000000000000000000, 0.000000000000000000, 1.000000000000000000 ) ) ;
#723 = ORIENTED_EDGE ( 'NONE', *, *, #981, .F. ) ;
#724 = CARTESIAN_POINT ( 'NONE',  ( 0.000000000000000000, 55.31058850672199867, 38.20505130128100291 ) ) ;
#725 = VECTOR ( 'NONE', #262, 1000.000000000000000 ) ;
#726 = ADVANCED_FACE ( 'NONE', ( #862 ), #693, .F. ) ;
#727 = DIRECTION ( 'NONE',  ( -1.000000000000000000, 0.000000000000000000, 0.000000000000000000 ) ) ;
#728 = CARTESIAN_POINT ( 'NONE',  ( 0.000000000000000000, 59.79116339994700269, 37.17415036253800054 ) ) ;
#729 = VERTEX_POINT ( 'NONE', #630 ) ;
#730 = DIRECTION ( 'NONE',  ( 0.000000000000000000, -1.000000000000000000, 0.000000000000000000 ) ) ;
#731 = DIRECTION ( 'NONE',  ( 1.000000000000000000, 0.000000000000000000, 0.000000000000000000 ) ) ;
#732 = VECTOR ( 'NONE', #947, 1000.000000000000000 ) ;
#733 = ORIENTED_EDGE ( 'NONE', *, *, #614, .T. ) ;
#734 = CARTESIAN_POINT ( 'NONE',  ( 32.84336640273799190, 63.45103962716599710, 36.81121285207999705 ) ) ;
#735 = DIRECTION ( 'NONE',  ( -1.000000000000000000, 0.000000000000000000, 0.000000000000000000 ) ) ;
#736 = EDGE_LOOP ( 'NONE', ( #319 ) ) ;
#737 = CARTESIAN_POINT ( 'NONE',  ( 0.000000000000000000, 55.31058850672199867, 38.20505130128100291 ) ) ;
#738 = DIRECTION ( 'NONE',  ( 0.000000000000000000, 1.000000000000000000, 0.000000000000000000 ) ) ;
#739 = VERTEX_POINT ( 'NONE', #930 ) ;
#740 = EDGE_CURVE ( 'NONE', #954, #881, #195, .T. ) ;
#741 = DIRECTION ( 'NONE',  ( 0.000000000000000000, 0.000000000000000000, -1.000000000000000000 ) ) ;
#742 = DIRECTION ( 'NONE',  ( -1.000000000000000000, 0.000000000000000000, 0.000000000000000000 ) ) ;
#743 = ORIENTED_EDGE ( 'NONE', *, *, #163, .T. ) ;
#744 = VECTOR ( 'NONE', #18, 1000.000000000000000 ) ;
#745 = AXIS2_PLACEMENT_3D ( 'NONE', #156, #226, #977 ) ;
#746 = CARTESIAN_POINT ( 'NONE',  ( 5.597153133267999792, 55.31058850672199867, 38.20505130128100291 ) ) ;
#747 = ORIENTED_EDGE ( 'NONE', *, *, #894, .F. ) ;
#748 = CARTESIAN_POINT ( 'NONE',  ( 0.000000000000000000, 53.69750174282099664, 55.48195633150699990 ) ) ;
#749 = FACE_OUTER_BOUND ( 'NONE', #663, .T. ) ;
#750 = EDGE_CURVE ( 'NONE', #515, #20, #449, .T. ) ;
#751 = CARTESIAN_POINT ( 'NONE',  ( 23.28786189817000007, 0.000000000000000000, 0.000000000000000000 ) ) ;
#752 = ORIENTED_EDGE ( 'NONE', *, *, #712, .F. ) ;
#753 = DIRECTION ( 'NONE',  ( -1.000000000000000000, 0.000000000000000000, 0.000000000000000000 ) ) ;
#754 = VECTOR ( 'NONE', #382, 999.9999999999998863 ) ;
#755 = CARTESIAN_POINT ( 'NONE',  ( 0.000000000000000000, 69.36396529418701107, 6.372537263414000286 ) ) ;
#756 = CARTESIAN_POINT ( 'NONE',  ( 0.000000000000000000, 58.40017799969999857, 39.05388460897799519 ) ) ;
#757 = VERTEX_POINT ( 'NONE', #29 ) ;
#758 = ORIENTED_EDGE ( 'NONE', *, *, #587, .T. ) ;
#759 =( GEOMETRIC_REPRESENTATION_CONTEXT ( 3 ) GLOBAL_UNCERTAINTY_ASSIGNED_CONTEXT ( ( #99 ) ) GLOBAL_UNIT_ASSIGNED_CONTEXT ( ( #818, #330, #1002 ) ) REPRESENTATION_CONTEXT ( 'NONE', 'WORKASPACE' ) );
#760 = CARTESIAN_POINT ( 'NONE',  ( 0.000000000000000000, 0.000000000000000000, 0.000000000000000000 ) ) ;
#761 = CARTESIAN_POINT ( 'NONE',  ( 32.84336640273799190, 63.45103962716599710, 36.81121285207999705 ) ) ;
#762 = PLANE ( 'NONE',  #311 ) ;
#763 = EDGE_LOOP ( 'NONE', ( #76, #134, #184, #820 ) ) ;
#764 = LINE ( 'NONE', #83, #442 ) ;
#765 = CARTESIAN_POINT ( 'NONE',  ( 32.84336640273799190, 64.10830326910598842, 35.08632653915699962 ) ) ;
#766 = VECTOR ( 'NONE', #463, 1000.000000000000000 ) ;
#767 = CARTESIAN_POINT ( 'NONE',  ( 32.84336640273799190, 59.67281017638899954, 36.69006607926700525 ) ) ;
#768 = ORIENTED_EDGE ( 'NONE', *, *, #108, .F. ) ;
#769 = VERTEX_POINT ( 'NONE', #1021 ) ;
#770 = LINE ( 'NONE', #845, #243 ) ;
#771 = LINE ( 'NONE', #780, #889 ) ;
#772 = DIRECTION ( 'NONE',  ( 0.000000000000000000, 0.9973097386246138063, 0.07330269602480159186 ) ) ;
#773 = DIRECTION ( 'NONE',  ( -1.000000000000000000, 0.000000000000000000, 0.000000000000000000 ) ) ;
#774 = VECTOR ( 'NONE', #613, 1000.000000000000000 ) ;
#775 = CARTESIAN_POINT ( 'NONE',  ( 0.000000000000000000, 41.18053065850200056, 9.397647417059999952 ) ) ;
#776 = DIRECTION ( 'NONE',  ( -1.000000000000000000, 0.000000000000000000, 0.000000000000000000 ) ) ;
#777 = CIRCLE ( 'NONE', #313, 0.6591137140829970154 ) ;
#778 = VERTEX_POINT ( 'NONE', #283 ) ;
#779 = LINE ( 'NONE', #391, #565 ) ;
#780 = CARTESIAN_POINT ( 'NONE',  ( 0.000000000000000000, 71.08065895453199801, 63.47824258301699984 ) ) ;
#781 = CARTESIAN_POINT ( 'NONE',  ( 5.597153133267999792, 55.31058850672199867, 37.20505130128100291 ) ) ;
#782 = PLANE ( 'NONE',  #821 ) ;
#783 = EDGE_CURVE ( 'NONE', #804, #853, #691, .T. ) ;
#784 = UNCERTAINTY_MEASURE_WITH_UNIT (LENGTH_MEASURE( 1.000000000000000082E-05 ), #420, 'distance_accuracy_value', 'NONE');
#785 = ORIENTED_EDGE ( 'NONE', *, *, #436, .T. ) ;
#786 = ORIENTED_EDGE ( 'NONE', *, *, #985, .T. ) ;
#787 = DIRECTION ( 'NONE',  ( 0.000000000000000000, 0.07330269602480159186, -0.9973097386246138063 ) ) ;
#788 = DIRECTION ( 'NONE',  ( -1.000000000000000000, 0.000000000000000000, 0.000000000000000000 ) ) ;
#789 = CARTESIAN_POINT ( 'NONE',  ( 0.000000000000000000, 62.31541963821899799, 5.723578436895000183E-15 ) ) ;
#790 = ORIENTED_EDGE ( 'NONE', *, *, #1051, .F. ) ;
#791 = CARTESIAN_POINT ( 'NONE',  ( 0.000000000000000000, 0.000000000000000000, 85.49023816560300304 ) ) ;
#792 = STYLED_ITEM ( 'NONE', ( #576 ), #658 ) ;
#793 = DIRECTION ( 'NONE',  ( 0.000000000000000000, 0.7081289338109575393, 0.7060831488569575543 ) ) ;
#794 = VERTEX_POINT ( 'NONE', #840 ) ;
#795 = VECTOR ( 'NONE', #486, 1000.000000000000000 ) ;
#796 = DIRECTION ( 'NONE',  ( -0.000000000000000000, 0.08986801285268862516, 0.9959536837955413890 ) ) ;
#797 = EDGE_CURVE ( 'NONE', #475, #485, #905, .T. ) ;
#798 = CARTESIAN_POINT ( 'NONE',  ( 32.84336640273799190, 31.66381737636800153, 63.47824258301699984 ) ) ;
#799 = ORIENTED_EDGE ( 'NONE', *, *, #151, .T. ) ;
#800 = AXIS2_PLACEMENT_3D ( 'NONE', #611, #15, #1070 ) ;
#801 = DIRECTION ( 'NONE',  ( 0.000000000000000000, 0.000000000000000000, 1.000000000000000000 ) ) ;
#802 = FACE_OUTER_BOUND ( 'NONE', #833, .T. ) ;
#803 = VECTOR ( 'NONE', #685, 1000.000000000000000 ) ;
#804 = VERTEX_POINT ( 'NONE', #999 ) ;
#805 = FACE_OUTER_BOUND ( 'NONE', #584, .T. ) ;
#806 = ADVANCED_FACE ( 'NONE', ( #830 ), #9, .F. ) ;
#807 = CARTESIAN_POINT ( 'NONE',  ( 0.000000000000000000, 54.55693685214299649, 52.77909832294200498 ) ) ;
#808 = EDGE_LOOP ( 'NONE', ( #470, #417, #829, #329 ) ) ;
#809 = PLANE ( 'NONE',  #501 ) ;
#810 = FACE_BOUND ( 'NONE', #560, .T. ) ;
#811 = EDGE_CURVE ( 'NONE', #1025, #294, #988, .T. ) ;
#812 = ORIENTED_EDGE ( 'NONE', *, *, #577, .T. ) ;
#813 = PLANE ( 'NONE',  #1065 ) ;
#814 = VERTEX_POINT ( 'NONE', #939 ) ;
#815 = PLANE ( 'NONE',  #1052 ) ;
#816 = EDGE_LOOP ( 'NONE', ( #235 ) ) ;
#817 = EDGE_CURVE ( 'NONE', #1030, #1041, #593, .T. ) ;
#818 =( LENGTH_UNIT ( ) NAMED_UNIT ( * ) SI_UNIT ( .MILLI., .METRE. ) );
#819 = CARTESIAN_POINT ( 'NONE',  ( 0.000000000000000000, 31.66381737636800153, 85.49023816560300304 ) ) ;
#820 = ORIENTED_EDGE ( 'NONE', *, *, #209, .F. ) ;
#821 = AXIS2_PLACEMENT_3D ( 'NONE', #365, #1027, #638 ) ;
#822 = CARTESIAN_POINT ( 'NONE',  ( 2.884592269357999950, 58.40017799969999857, 39.05388460897799519 ) ) ;
#823 = EDGE_CURVE ( 'NONE', #93, #778, #770, .T. ) ;
#824 = VECTOR ( 'NONE', #776, 1000.000000000000000 ) ;
#825 = VECTOR ( 'NONE', #144, 1000.000000000000000 ) ;
#826 = LINE ( 'NONE', #765, #744 ) ;
#827 = DIRECTION ( 'NONE',  ( 0.000000000000000000, -0.1132220763479635378, 0.9935697063756805392 ) ) ;
#828 = ORIENTED_EDGE ( 'NONE', *, *, #783, .F. ) ;
#829 = ORIENTED_EDGE ( 'NONE', *, *, #467, .F. ) ;
#830 = FACE_OUTER_BOUND ( 'NONE', #886, .T. ) ;
#831 = DIRECTION ( 'NONE',  ( 0.000000000000000000, 0.000000000000000000, -1.000000000000000000 ) ) ;
#832 = CARTESIAN_POINT ( 'NONE',  ( 24.10391955517500051, 69.68142765399299776, 2.053346834532999932 ) ) ;
#833 = EDGE_LOOP ( 'NONE', ( #957, #716, #1036, #149 ) ) ;
#834 = ORIENTED_EDGE ( 'NONE', *, *, #607, .T. ) ;
#835 = CARTESIAN_POINT ( 'NONE',  ( 32.84336640273799190, 31.66381737636800153, 85.49023816560300304 ) ) ;
#836 = CARTESIAN_POINT ( 'NONE',  ( 0.000000000000000000, -3.815718962342000031E-15, 62.31541963821899799 ) ) ;
#837 = EDGE_CURVE ( 'NONE', #1023, #514, #511, .T. ) ;
#838 = EDGE_LOOP ( 'NONE', ( #128, #934, #261 ) ) ;
#839 = VECTOR ( 'NONE', #413, 1000.000000000000000 ) ;
#840 = CARTESIAN_POINT ( 'NONE',  ( 32.84336640273799190, 0.000000000000000000, 0.000000000000000000 ) ) ;
#841 = PLANE ( 'NONE',  #695 ) ;
#842 = DIRECTION ( 'NONE',  ( -0.000000000000000000, 0.3273586608958886091, 0.9449001572316784170 ) ) ;
#843 = ORIENTED_EDGE ( 'NONE', *, *, #364, .T. ) ;
#844 = EDGE_LOOP ( 'NONE', ( #718, #430, #167 ) ) ;
#845 = CARTESIAN_POINT ( 'NONE',  ( 0.000000000000000000, 69.68142765399299776, 2.053346834532999932 ) ) ;
#846 = PLANE ( 'NONE',  #291 ) ;
#847 = CARTESIAN_POINT ( 'NONE',  ( 27.68203535678100025, 58.11894700674699266, 27.90871231812699804 ) ) ;
#848 = ORIENTED_EDGE ( 'NONE', *, *, #837, .T. ) ;
#849 = EDGE_CURVE ( 'NONE', #485, #244, #180, .T. ) ;
#850 = CARTESIAN_POINT ( 'NONE',  ( 2.884592269357999950, 59.79116339994700269, 37.17415036253800054 ) ) ;
#851 = CARTESIAN_POINT ( 'NONE',  ( 32.84336640273799190, 31.66381737636800153, 85.49023816560300304 ) ) ;
#852 = CARTESIAN_POINT ( 'NONE',  ( 0.000000000000000000, 0.000000000000000000, 0.000000000000000000 ) ) ;
#853 = VERTEX_POINT ( 'NONE', #505 ) ;
#854 = LINE ( 'NONE', #116, #1016 ) ;
#855 = LINE ( 'NONE', #850, #754 ) ;
#856 = VECTOR ( 'NONE', #933, 999.9999999999998863 ) ;
#857 = CARTESIAN_POINT ( 'NONE',  ( 0.000000000000000000, 55.31058850672199867, 38.20505130128100291 ) ) ;
#858 = ADVANCED_FACE ( 'NONE', ( #916 ), #362, .F. ) ;
#859 = CARTESIAN_POINT ( 'NONE',  ( 32.84336640273799190, 28.89073402902900156, 27.18704517662899889 ) ) ;
#860 = ORIENTED_EDGE ( 'NONE', *, *, #561, .T. ) ;
#861 = CARTESIAN_POINT ( 'NONE',  ( 0.000000000000000000, 63.89079126608699966, 1.627732561960999913 ) ) ;
#862 = FACE_OUTER_BOUND ( 'NONE', #374, .T. ) ;
#863 = EDGE_CURVE ( 'NONE', #244, #57, #516, .T. ) ;
#864 = LINE ( 'NONE', #126, #472 ) ;
#865 = ORIENTED_EDGE ( 'NONE', *, *, #937, .T. ) ;
#866 = ORIENTED_EDGE ( 'NONE', *, *, #412, .F. ) ;
#867 = CARTESIAN_POINT ( 'NONE',  ( 0.000000000000000000, 57.93397554487199841, 37.98163670091400235 ) ) ;
#868 = LINE ( 'NONE', #694, #498 ) ;
#869 = ORIENTED_EDGE ( 'NONE', *, *, #985, .F. ) ;
#870 = ADVANCED_FACE ( 'NONE', ( #347 ), #679, .T. ) ;
#871 = AXIS2_PLACEMENT_3D ( 'NONE', #680, #349, #10 ) ;
#872 = VERTEX_POINT ( 'NONE', #56 ) ;
#873 = EDGE_LOOP ( 'NONE', ( #1056, #899, #40, #399 ) ) ;
#874 = AXIS2_PLACEMENT_3D ( 'NONE', #188, #246, #428 ) ;
#875 = FACE_OUTER_BOUND ( 'NONE', #684, .T. ) ;
#876 = ORIENTED_EDGE ( 'NONE', *, *, #811, .F. ) ;
#877 = VECTOR ( 'NONE', #793, 1000.000000000000000 ) ;
#878 = AXIS2_PLACEMENT_3D ( 'NONE', #398, #1058, #314 ) ;
#879 = FACE_OUTER_BOUND ( 'NONE', #191, .T. ) ;
#880 = CARTESIAN_POINT ( 'NONE',  ( 32.84336640273799190, 0.000000000000000000, 0.000000000000000000 ) ) ;
#881 = VERTEX_POINT ( 'NONE', #497 ) ;
#882 = EDGE_CURVE ( 'NONE', #380, #1, #764, .T. ) ;
#883 = CARTESIAN_POINT ( 'NONE',  ( 32.84336640273799190, 71.08065895453199801, 63.47824258301699984 ) ) ;
#884 = FACE_OUTER_BOUND ( 'NONE', #1069, .T. ) ;
#885 = VECTOR ( 'NONE', #341, 1000.000000000000227 ) ;
#886 = EDGE_LOOP ( 'NONE', ( #629 ) ) ;
#887 = EDGE_CURVE ( 'NONE', #114, #114, #1040, .T. ) ;
#888 = DIRECTION ( 'NONE',  ( 0.000000000000000000, 0.9170676443260751265, -0.3987316588010331730 ) ) ;
#889 = VECTOR ( 'NONE', #110, 1000.000000000000000 ) ;
#890 = LINE ( 'NONE', #242, #962 ) ;
#891 = ORIENTED_EDGE ( 'NONE', *, *, #450, .T. ) ;
#892 = LINE ( 'NONE', #491, #925 ) ;
#893 = DIRECTION ( 'NONE',  ( 1.000000000000000000, 0.000000000000000000, 0.000000000000000000 ) ) ;
#894 = EDGE_CURVE ( 'NONE', #1019, #739, #418, .T. ) ;
#895 = EDGE_LOOP ( 'NONE', ( #621, #504, #346, #1004, #537, #207 ) ) ;
#896 = CIRCLE ( 'NONE', #527, 0.6591137140829970154 ) ;
#897 = PLANE ( 'NONE',  #656 ) ;
#898 = FACE_BOUND ( 'NONE', #996, .T. ) ;
#899 = ORIENTED_EDGE ( 'NONE', *, *, #85, .T. ) ;
#900 = EDGE_CURVE ( 'NONE', #266, #406, #251, .T. ) ;
#901 = CARTESIAN_POINT ( 'NONE',  ( 27.68203535678100025, 58.11894700674699266, 27.90871231812699804 ) ) ;
#902 = LINE ( 'NONE', #434, #271 ) ;
#903 = ORIENTED_EDGE ( 'NONE', *, *, #193, .T. ) ;
#904 = VECTOR ( 'NONE', #12, 1000.000000000000114 ) ;
#905 = LINE ( 'NONE', #3, #637 ) ;
#906 = VECTOR ( 'NONE', #893, 1000.000000000000000 ) ;
#907 = CARTESIAN_POINT ( 'NONE',  ( 32.84336640273799190, 56.97135969715299808, 55.18654589876800287 ) ) ;
#908 = FACE_OUTER_BOUND ( 'NONE', #62, .T. ) ;
#909 = EDGE_LOOP ( 'NONE', ( #459 ) ) ;
#910 = VERTEX_POINT ( 'NONE', #425 ) ;
#911 = CARTESIAN_POINT ( 'NONE',  ( 0.000000000000000000, 58.62946824499500309, 37.04176957769500689 ) ) ;
#912 = CARTESIAN_POINT ( 'NONE',  ( 32.84336640273799190, 64.31785623712299582, 36.01905899651299592 ) ) ;
#913 = PLANE ( 'NONE',  #874 ) ;
#914 = ORIENTED_EDGE ( 'NONE', *, *, #480, .F. ) ;
#915 = ORIENTED_EDGE ( 'NONE', *, *, #863, .T. ) ;
#916 = FACE_OUTER_BOUND ( 'NONE', #952, .T. ) ;
#917 = SHAPE_DEFINITION_REPRESENTATION ( #320, #676 ) ;
#918 = CARTESIAN_POINT ( 'NONE',  ( 23.28786189817000007, -3.815718962342000031E-15, 62.31541963821899799 ) ) ;
#919 = EDGE_CURVE ( 'NONE', #514, #1042, #604, .T. ) ;
#920 = DIRECTION ( 'NONE',  ( -1.000000000000000000, 0.000000000000000000, 0.000000000000000000 ) ) ;
#921 = VERTEX_POINT ( 'NONE', #911 ) ;
#922 = ORIENTED_EDGE ( 'NONE', *, *, #507, .T. ) ;
#923 = DIRECTION ( 'NONE',  ( 0.000000000000000000, 1.000000000000000000, 0.000000000000000000 ) ) ;
#924 = DIRECTION ( 'NONE',  ( 0.000000000000000000, -0.07330269602480160573, 0.9973097386246139173 ) ) ;
#925 = VECTOR ( 'NONE', #801, 1000.000000000000000 ) ;
#926 = FACE_BOUND ( 'NONE', #736, .T. ) ;
#927 = ORIENTED_EDGE ( 'NONE', *, *, #817, .F. ) ;
#928 = ORIENTED_EDGE ( 'NONE', *, *, #998, .T. ) ;
#929 = DIRECTION ( 'NONE',  ( 1.000000000000000000, 0.000000000000000000, 0.000000000000000000 ) ) ;
#930 = CARTESIAN_POINT ( 'NONE',  ( 0.000000000000000000, 31.66381737636800153, 85.49023816560300304 ) ) ;
#931 = VERTEX_POINT ( 'NONE', #1034 ) ;
#932 = VECTOR ( 'NONE', #335, 1000.000000000000114 ) ;
#933 = DIRECTION ( 'NONE',  ( 0.000000000000000000, -0.9935697063756805392, -0.1132220763479635517 ) ) ;
#934 = ORIENTED_EDGE ( 'NONE', *, *, #544, .T. ) ;
#935 = EDGE_LOOP ( 'NONE', ( #7 ) ) ;
#936 = VERTEX_POINT ( 'NONE', #551 ) ;
#937 = EDGE_CURVE ( 'NONE', #853, #57, #992, .T. ) ;
#938 = ORIENTED_EDGE ( 'NONE', *, *, #302, .F. ) ;
#939 = CARTESIAN_POINT ( 'NONE',  ( 0.000000000000000000, 55.31058850672199867, 37.20505130128100291 ) ) ;
#940 = AXIS2_PLACEMENT_3D ( 'NONE', #704, #796, #305 ) ;
#941 = DIRECTION ( 'NONE',  ( 0.000000000000000000, 0.000000000000000000, 1.000000000000000000 ) ) ;
#942 = CARTESIAN_POINT ( 'NONE',  ( 0.000000000000000000, 59.79116339994700269, 37.17415036253800054 ) ) ;
#943 = ORIENTED_EDGE ( 'NONE', *, *, #607, .F. ) ;
#944 = DIRECTION ( 'NONE',  ( 0.000000000000000000, 0.000000000000000000, -1.000000000000000000 ) ) ;
#945 = ORIENTED_EDGE ( 'NONE', *, *, #1018, .T. ) ;
#946 = CARTESIAN_POINT ( 'NONE',  ( 2.884592269357999950, 58.62946824499500309, 37.04176957769500689 ) ) ;
#947 = DIRECTION ( 'NONE',  ( 1.000000000000000000, 0.000000000000000000, 0.000000000000000000 ) ) ;
#948 = LINE ( 'NONE', #69, #456 ) ;
#949 = PLANE ( 'NONE',  #940 ) ;
#950 = CARTESIAN_POINT ( 'NONE',  ( 0.000000000000000000, 57.93397554487199841, 37.98163670091400235 ) ) ;
#951 = AXIS2_PLACEMENT_3D ( 'NONE', #760, #753, #274 ) ;
#952 = EDGE_LOOP ( 'NONE', ( #603, #54, #21, #80 ) ) ;
#953 = CARTESIAN_POINT ( 'NONE',  ( 5.597153133267999792, 55.31058850672199867, 38.20505130128100291 ) ) ;
#954 = VERTEX_POINT ( 'NONE', #835 ) ;
#955 = DIRECTION ( 'NONE',  ( 1.000000000000000000, 0.000000000000000000, 0.000000000000000000 ) ) ;
#956 = CARTESIAN_POINT ( 'NONE',  ( 0.000000000000000000, 63.89079126608699966, 1.627732561960999913 ) ) ;
#957 = ORIENTED_EDGE ( 'NONE', *, *, #309, .T. ) ;
#958 = VECTOR ( 'NONE', #508, 1000.000000000000000 ) ;
#959 = PLANE ( 'NONE',  #186 ) ;
#960 = FACE_BOUND ( 'NONE', #37, .T. ) ;
#961 = VECTOR ( 'NONE', #562, 1000.000000000000000 ) ;
#962 = VECTOR ( 'NONE', #152, 1000.000000000000000 ) ;
#963 = ORIENTED_EDGE ( 'NONE', *, *, #719, .F. ) ;
#964 = EDGE_CURVE ( 'NONE', #1, #653, #855, .T. ) ;
#965 = FACE_OUTER_BOUND ( 'NONE', #213, .T. ) ;
#966 = DIRECTION ( 'NONE',  ( 0.000000000000000000, 0.07330269602480160573, -0.9973097386246139173 ) ) ;
#967 = ORIENTED_EDGE ( 'NONE', *, *, #740, .F. ) ;
#968 = EDGE_CURVE ( 'NONE', #1023, #360, #206, .T. ) ;
#969 = FACE_BOUND ( 'NONE', #816, .T. ) ;
#970 = LINE ( 'NONE', #79, #906 ) ;
#971 = VECTOR ( 'NONE', #635, 1000.000000000000000 ) ;
#972 = ORIENTED_EDGE ( 'NONE', *, *, #849, .T. ) ;
#973 = PRODUCT_DEFINITION_FORMATION_WITH_SPECIFIED_SOURCE ( 'ไป', '', #581, .NOT_KNOWN. ) ;
#974 = FACE_OUTER_BOUND ( 'NONE', #133, .T. ) ;
#975 = AXIS2_PLACEMENT_3D ( 'NONE', #901, #342, #686 ) ;
#976 = ADVANCED_FACE ( 'NONE', ( #27, #199 ), #709, .F. ) ;
#977 = DIRECTION ( 'NONE',  ( 0.000000000000000000, 1.000000000000000000, 0.000000000000000000 ) ) ;
#978 = EDGE_LOOP ( 'NONE', ( #938, #752, #639, #615, #240, #967 ) ) ;
#979 = PRODUCT_CONTEXT ( 'NONE', #533, 'mechanical' ) ;
#980 = CARTESIAN_POINT ( 'NONE',  ( 2.884592269357999950, 58.40017799969999857, 39.05388460897799519 ) ) ;
#981 = EDGE_CURVE ( 'NONE', #451, #451, #2, .T. ) ;
#982 = DIRECTION ( 'NONE',  ( 0.000000000000000000, 0.1132220763479635378, -0.9935697063756805392 ) ) ;
#983 = VERTEX_POINT ( 'NONE', #117 ) ;
#984 = AXIS2_PLACEMENT_3D ( 'NONE', #524, #530, #371 ) ;
#985 = EDGE_CURVE ( 'NONE', #1011, #204, #376, .T. ) ;
#986 = DIRECTION ( 'NONE',  ( 0.000000000000000000, 0.3030227027410574703, -0.9529833375371810078 ) ) ;
#987 = ORIENTED_EDGE ( 'NONE', *, *, #719, .T. ) ;
#988 = LINE ( 'NONE', #443, #725 ) ;
#989 = DIRECTION ( 'NONE',  ( 0.000000000000000000, 0.000000000000000000, -1.000000000000000000 ) ) ;
#990 = DIRECTION ( 'NONE',  ( 0.000000000000000000, 1.000000000000000000, 0.000000000000000000 ) ) ;
#991 = EDGE_LOOP ( 'NONE', ( #345 ) ) ;
#992 = LINE ( 'NONE', #256, #287 ) ;
#993 = EDGE_CURVE ( 'NONE', #489, #13, #779, .T. ) ;
#994 = LINE ( 'NONE', #582, #517 ) ;
#995 = DIRECTION ( 'NONE',  ( 1.000000000000000000, 0.000000000000000000, 0.000000000000000000 ) ) ;
#996 = EDGE_LOOP ( 'NONE', ( #67 ) ) ;
#997 = ORIENTED_EDGE ( 'NONE', *, *, #121, .F. ) ;
#998 = EDGE_CURVE ( 'NONE', #57, #1, #42, .T. ) ;
#999 = CARTESIAN_POINT ( 'NONE',  ( 0.000000000000000000, 59.56187315465199816, 39.18626539382100304 ) ) ;
#1000 = EDGE_CURVE ( 'NONE', #1030, #475, #1029, .T. ) ;
#1001 = APPLICATION_PROTOCOL_DEFINITION ( 'draft international standard', 'automotive_design', 1998, #533 ) ;
#1002 =( NAMED_UNIT ( * ) SI_UNIT ( $, .STERADIAN. ) SOLID_ANGLE_UNIT ( ) );
#1003 = FACE_OUTER_BOUND ( 'NONE', #43, .T. ) ;
#1004 = ORIENTED_EDGE ( 'NONE', *, *, #250, .T. ) ;
#1005 = ORIENTED_EDGE ( 'NONE', *, *, #750, .F. ) ;
#1006 = DIRECTION ( 'NONE',  ( 0.000000000000000000, -0.9973097386246138063, -0.07330269602480159186 ) ) ;
#1007 = SURFACE_SIDE_STYLE ('',( #258 ) ) ;
#1008 = ADVANCED_FACE ( 'NONE', ( #471 ), #36, .F. ) ;
#1009 = DIRECTION ( 'NONE',  ( 0.000000000000000000, -1.000000000000000000, 0.000000000000000000 ) ) ;
#1010 = ORIENTED_EDGE ( 'NONE', *, *, #1018, .F. ) ;
#1011 = VERTEX_POINT ( 'NONE', #293 ) ;
#1012 = DIRECTION ( 'NONE',  ( 0.000000000000000000, 0.3987316588010331175, 0.9170676443260751265 ) ) ;
#1013 = AXIS2_PLACEMENT_3D ( 'NONE', #669, #842, #332 ) ;
#1014 = CYLINDRICAL_SURFACE ( 'NONE', #984, 1.000000000000000888 ) ;
#1015 = AXIS2_PLACEMENT_3D ( 'NONE', #33, #284, #619 ) ;
#1016 = VECTOR ( 'NONE', #454, 1000.000000000000000 ) ;
#1017 = DIRECTION ( 'NONE',  ( 0.000000000000000000, 0.000000000000000000, -1.000000000000000000 ) ) ;
#1018 = EDGE_CURVE ( 'NONE', #298, #272, #628, .T. ) ;
#1019 = VERTEX_POINT ( 'NONE', #791 ) ;
#1020 = DIRECTION ( 'NONE',  ( 1.000000000000000000, 0.000000000000000000, 0.000000000000000000 ) ) ;
#1021 = CARTESIAN_POINT ( 'NONE',  ( 32.84336640273799190, 64.46999498908100179, 36.45819792215699806 ) ) ;
#1022 = DIRECTION ( 'NONE',  ( 1.000000000000000000, 0.000000000000000000, 0.000000000000000000 ) ) ;
#1023 = VERTEX_POINT ( 'NONE', #536 ) ;
#1024 = DIRECTION ( 'NONE',  ( 0.000000000000000000, -0.9973097386246139173, -0.07330269602480160573 ) ) ;
#1025 = VERTEX_POINT ( 'NONE', #282 ) ;
#1026 = FACE_OUTER_BOUND ( 'NONE', #579, .T. ) ;
#1027 = DIRECTION ( 'NONE',  ( -0.000000000000000000, 0.8038455679781923990, 0.5948380475741421591 ) ) ;
#1028 = CARTESIAN_POINT ( 'NONE',  ( 0.000000000000000000, 63.45103962716599710, 36.81121285207999705 ) ) ;
#1029 = LINE ( 'NONE', #867, #479 ) ;
#1030 = VERTEX_POINT ( 'NONE', #1043 ) ;
#1031 = AXIS2_PLACEMENT_3D ( 'NONE', #713, #538, #289 ) ;
#1032 = ADVANCED_FACE ( 'NONE', ( #717 ), #949, .F. ) ;
#1033 = CARTESIAN_POINT ( 'NONE',  ( 32.84336640273799190, 0.000000000000000000, 0.000000000000000000 ) ) ;
#1034 = CARTESIAN_POINT ( 'NONE',  ( 0.000000000000000000, 58.11894700674699266, 26.90871231812699804 ) ) ;
#1035 = LINE ( 'NONE', #385, #118 ) ;
#1036 = ORIENTED_EDGE ( 'NONE', *, *, #964, .F. ) ;
#1037 = LINE ( 'NONE', #286, #707 ) ;
#1038 = ADVANCED_FACE ( 'NONE', ( #212 ), #388, .F. ) ;
#1039 = DIRECTION ( 'NONE',  ( -1.000000000000000000, 0.000000000000000000, 0.000000000000000000 ) ) ;
#1040 = CIRCLE ( 'NONE', #575, 0.5672616419979993330 ) ;
#1041 = VERTEX_POINT ( 'NONE', #124 ) ;
#1042 = VERTEX_POINT ( 'NONE', #461 ) ;
#1043 = CARTESIAN_POINT ( 'NONE',  ( 0.000000000000000000, 57.93397554487199841, 37.98163670091400235 ) ) ;
#1044 = ORIENTED_EDGE ( 'NONE', *, *, #397, .T. ) ;
#1045 = CARTESIAN_POINT ( 'NONE',  ( 0.000000000000000000, 0.000000000000000000, 0.000000000000000000 ) ) ;
#1046 = CARTESIAN_POINT ( 'NONE',  ( 0.000000000000000000, 69.68142765399299776, 2.053346834532999932 ) ) ;
#1047 = ORIENTED_EDGE ( 'NONE', *, *, #882, .T. ) ;
#1048 = CIRCLE ( 'NONE', #554, 0.5672616419979993330 ) ;
#1049 = CARTESIAN_POINT ( 'NONE',  ( 32.84336640273799190, 0.000000000000000000, 85.49023816560300304 ) ) ;
#1050 = CARTESIAN_POINT ( 'NONE',  ( 2.884592269357999950, 60.25736585477499574, 38.24639827060099151 ) ) ;
#1051 = EDGE_CURVE ( 'NONE', #447, #1025, #1037, .T. ) ;
#1052 = AXIS2_PLACEMENT_3D ( 'NONE', #409, #966, #405 ) ;
#1053 = ORIENTED_EDGE ( 'NONE', *, *, #1060, .T. ) ;
#1054 = LINE ( 'NONE', #1057, #795 ) ;
#1055 = FACE_OUTER_BOUND ( 'NONE', #978, .T. ) ;
#1056 = ORIENTED_EDGE ( 'NONE', *, *, #412, .T. ) ;
#1057 = CARTESIAN_POINT ( 'NONE',  ( 24.10391955517500051, 69.68142765399299776, 2.053346834532999932 ) ) ;
#1058 = DIRECTION ( 'NONE',  ( -1.000000000000000000, 0.000000000000000000, 0.000000000000000000 ) ) ;
#1059 = ORIENTED_EDGE ( 'NONE', *, *, #17, .F. ) ;
#1060 = EDGE_CURVE ( 'NONE', #729, #429, #192, .T. ) ;
#1061 = LINE ( 'NONE', #326, #608 ) ;
#1062 = AXIS2_PLACEMENT_3D ( 'NONE', #681, #172, #989 ) ;
#1063 = PLANE ( 'NONE',  #503 ) ;
#1064 = VERTEX_POINT ( 'NONE', #217 ) ;
#1065 = AXIS2_PLACEMENT_3D ( 'NONE', #883, #741, #730 ) ;
#1066 = AXIS2_PLACEMENT_3D ( 'NONE', #573, #742, #160 ) ;
#1067 = DIRECTION ( 'NONE',  ( 1.000000000000000000, 0.000000000000000000, 0.000000000000000000 ) ) ;
#1068 = CARTESIAN_POINT ( 'NONE',  ( 0.000000000000000000, 0.000000000000000000, 85.49023816560300304 ) ) ;
#1069 = EDGE_LOOP ( 'NONE', ( #100, #273, #26, #190 ) ) ;
#1070 = DIRECTION ( 'NONE',  ( 0.000000000000000000, 0.000000000000000000, 1.000000000000000000 ) ) ;
#1071 = PLANE ( 'NONE',  #5 ) ;
#1072 = CARTESIAN_POINT ( 'NONE',  ( 24.10391955517500051, 63.89079126608699966, 1.627732561960999913 ) ) ;
ENDSEC;
END-ISO-10303-21;
