ISO-10303-21;
HEADER;
FILE_DESCRIPTION (( 'STEP AP214' ),
    '1' );
FILE_NAME ('20260414_160844_76.STEP',
    '2026-04-16T14:28:18',
    ( '' ),
    ( '' ),
    'SwSTEP 2.0',
    'SolidWorks 2025',
    '' );
FILE_SCHEMA (( 'AUTOMOTIVE_DESIGN' ));
ENDSEC;

DATA;
#1 = PLANE ( 'NONE',  #163 ) ;
#2 = ORIENTED_EDGE ( 'NONE', *, *, #701, .T. ) ;
#3 = ADVANCED_FACE ( 'NONE', ( #802 ), #626, .T. ) ;
#4 = APPLICATION_CONTEXT ( 'automotive_design' ) ;
#5 = DIRECTION ( 'NONE',  ( 0.000000000000000000, 0.000000000000000000, -1.000000000000000000 ) ) ;
#6 = CARTESIAN_POINT ( 'NONE',  ( 22.16600689014999759, 0.000000000000000000, 14.38163401789399920 ) ) ;
#7 = ORIENTED_EDGE ( 'NONE', *, *, #899, .F. ) ;
#8 = EDGE_CURVE ( 'NONE', #62, #364, #55, .T. ) ;
#9 = CARTESIAN_POINT ( 'NONE',  ( 25.35076175489299999, 0.000000000000000000, 11.23613563874099874 ) ) ;
#10 = VECTOR ( 'NONE', #1049, 1000.000000000000114 ) ;
#11 = CARTESIAN_POINT ( 'NONE',  ( 22.03520493256300128, 32.05272974956899645, -7.105427357600998703E-15 ) ) ;
#12 = VERTEX_POINT ( 'NONE', #731 ) ;
#13 = EDGE_CURVE ( 'NONE', #464, #572, #46, .T. ) ;
#14 = EDGE_CURVE ( 'NONE', #542, #619, #1046, .T. ) ;
#15 = LINE ( 'NONE', #560, #683 ) ;
#16 = DIRECTION ( 'NONE',  ( 0.000000000000000000, 1.000000000000000000, 0.000000000000000000 ) ) ;
#17 = ORIENTED_EDGE ( 'NONE', *, *, #220, .F. ) ;
#18 = EDGE_CURVE ( 'NONE', #238, #501, #716, .T. ) ;
#19 = ORIENTED_EDGE ( 'NONE', *, *, #667, .T. ) ;
#20 = AXIS2_PLACEMENT_3D ( 'NONE', #900, #906, #661 ) ;
#21 = LINE ( 'NONE', #191, #111 ) ;
#22 = AXIS2_PLACEMENT_3D ( 'NONE', #874, #122, #1047 ) ;
#23 = DIRECTION ( 'NONE',  ( 0.000000000000000000, 0.000000000000000000, -1.000000000000000000 ) ) ;
#24 = ORIENTED_EDGE ( 'NONE', *, *, #601, .T. ) ;
#25 = EDGE_CURVE ( 'NONE', #364, #928, #215, .T. ) ;
#26 = ORIENTED_EDGE ( 'NONE', *, *, #592, .T. ) ;
#27 = AXIS2_PLACEMENT_3D ( 'NONE', #1089, #244, #5 ) ;
#28 = CARTESIAN_POINT ( 'NONE',  ( 12.05343597316399951, 0.000000000000000000, 87.05581423465299906 ) ) ;
#29 = VECTOR ( 'NONE', #1050, 1000.000000000000114 ) ;
#30 = VERTEX_POINT ( 'NONE', #383 ) ;
#31 = ORIENTED_EDGE ( 'NONE', *, *, #1066, .T. ) ;
#32 = CARTESIAN_POINT ( 'NONE',  ( 54.15950897690999710, 36.57646444495800608, 25.24341662187899615 ) ) ;
#33 = ORIENTED_EDGE ( 'NONE', *, *, #911, .F. ) ;
#34 = CARTESIAN_POINT ( 'NONE',  ( 0.000000000000000000, 36.57646444495800608, 0.000000000000000000 ) ) ;
#35 = EDGE_LOOP ( 'NONE', ( #242 ) ) ;
#36 = FACE_OUTER_BOUND ( 'NONE', #726, .T. ) ;
#37 = PRESENTATION_STYLE_ASSIGNMENT (( #1045 ) ) ;
#38 = VECTOR ( 'NONE', #934, 1000.000000000000114 ) ;
#39 = VERTEX_POINT ( 'NONE', #1051 ) ;
#40 = FACE_OUTER_BOUND ( 'NONE', #757, .T. ) ;
#41 = VERTEX_POINT ( 'NONE', #559 ) ;
#42 = AXIS2_PLACEMENT_3D ( 'NONE', #1000, #1072, #897 ) ;
#43 = ADVANCED_FACE ( 'NONE', ( #796 ), #290, .F. ) ;
#44 = UNCERTAINTY_MEASURE_WITH_UNIT (LENGTH_MEASURE( 1.000000000000000082E-05 ), #832, 'distance_accuracy_value', 'NONE');
#45 = CARTESIAN_POINT ( 'NONE',  ( 7.328125174019000099, 2.419202088156000574, 46.42701989730599621 ) ) ;
#46 = LINE ( 'NONE', #208, #1055 ) ;
#47 = DIRECTION ( 'NONE',  ( 0.000000000000000000, 1.000000000000000000, 0.000000000000000000 ) ) ;
#48 = VERTEX_POINT ( 'NONE', #553 ) ;
#49 = CARTESIAN_POINT ( 'NONE',  ( 8.089145956243999791, 24.15876562595000010, 9.801553345498000169 ) ) ;
#50 = CARTESIAN_POINT ( 'NONE',  ( 20.34995255421000238, 22.55259108765200082, 12.54291493943200031 ) ) ;
#51 = LINE ( 'NONE', #384, #741 ) ;
#52 = EDGE_LOOP ( 'NONE', ( #234 ) ) ;
#53 = DIRECTION ( 'NONE',  ( 0.000000000000000000, -1.000000000000000000, 0.000000000000000000 ) ) ;
#54 = CARTESIAN_POINT ( 'NONE',  ( 7.328125174019000099, 2.419202088156000574, 44.01485415199199736 ) ) ;
#55 = LINE ( 'NONE', #312, #633 ) ;
#56 = DIRECTION ( 'NONE',  ( 0.000000000000000000, -1.000000000000000000, 0.000000000000000000 ) ) ;
#57 = ORIENTED_EDGE ( 'NONE', *, *, #828, .F. ) ;
#58 = CARTESIAN_POINT ( 'NONE',  ( 54.15950897690999710, 0.000000000000000000, 0.000000000000000000 ) ) ;
#59 = CARTESIAN_POINT ( 'NONE',  ( 11.39482598701100002, 0.000000000000000000, 19.87396636458099763 ) ) ;
#60 = DIRECTION ( 'NONE',  ( 0.000000000000000000, 0.000000000000000000, 1.000000000000000000 ) ) ;
#61 = FACE_OUTER_BOUND ( 'NONE', #922, .T. ) ;
#62 = VERTEX_POINT ( 'NONE', #545 ) ;
#63 = VECTOR ( 'NONE', #631, 1000.000000000000114 ) ;
#64 = CARTESIAN_POINT ( 'NONE',  ( 21.44413630097600176, 36.57646444495800608, 0.000000000000000000 ) ) ;
#65 = VECTOR ( 'NONE', #338, 1000.000000000000000 ) ;
#66 = CARTESIAN_POINT ( 'NONE',  ( 8.089145956243999791, 24.15876562595000010, 7.648643738387999491 ) ) ;
#67 = ADVANCED_FACE ( 'NONE', ( #139, #127 ), #983, .F. ) ;
#68 = CARTESIAN_POINT ( 'NONE',  ( 0.000000000000000000, 0.000000000000000000, 87.05581423465299906 ) ) ;
#69 = ORIENTED_EDGE ( 'NONE', *, *, #321, .T. ) ;
#70 = LINE ( 'NONE', #9, #1028 ) ;
#71 = CARTESIAN_POINT ( 'NONE',  ( 21.03430281861199802, 0.000000000000000000, 10.05080621062400148 ) ) ;
#72 = EDGE_CURVE ( 'NONE', #95, #1010, #564, .T. ) ;
#73 = CARTESIAN_POINT ( 'NONE',  ( 54.15950897690999710, 0.000000000000000000, 0.000000000000000000 ) ) ;
#74 = ORIENTED_EDGE ( 'NONE', *, *, #18, .T. ) ;
#75 = VECTOR ( 'NONE', #245, 1000.000000000000000 ) ;
#76 = VECTOR ( 'NONE', #47, 1000.000000000000000 ) ;
#77 = PLANE ( 'NONE',  #1087 ) ;
#78 =( NAMED_UNIT ( * ) PLANE_ANGLE_UNIT ( ) SI_UNIT ( $, .RADIAN. ) );
#79 = CARTESIAN_POINT ( 'NONE',  ( 54.15950897690999710, 9.195327154023999583, 25.24341662187899615 ) ) ;
#80 = ORIENTED_EDGE ( 'NONE', *, *, #576, .F. ) ;
#81 = AXIS2_PLACEMENT_3D ( 'NONE', #1004, #830, #239 ) ;
#82 = CARTESIAN_POINT ( 'NONE',  ( 16.32364466422500016, 27.55178918431199975, 21.58292523448599809 ) ) ;
#83 = EDGE_CURVE ( 'NONE', #1092, #707, #969, .T. ) ;
#84 = ORIENTED_EDGE ( 'NONE', *, *, #987, .F. ) ;
#85 = ORIENTED_EDGE ( 'NONE', *, *, #199, .F. ) ;
#86 = DIRECTION ( 'NONE',  ( -1.000000000000000000, 0.000000000000000000, 0.000000000000000000 ) ) ;
#87 = EDGE_CURVE ( 'NONE', #297, #875, #724, .T. ) ;
#88 = EDGE_CURVE ( 'NONE', #48, #834, #898, .T. ) ;
#89 = FACE_OUTER_BOUND ( 'NONE', #357, .T. ) ;
#90 = ORIENTED_EDGE ( 'NONE', *, *, #128, .T. ) ;
#91 = CARTESIAN_POINT ( 'NONE',  ( 16.32364466422500016, 27.55178918431199975, 21.58292523448599809 ) ) ;
#92 = AXIS2_PLACEMENT_3D ( 'NONE', #294, #134, #856 ) ;
#93 = ADVANCED_FACE ( 'NONE', ( #397 ), #779, .T. ) ;
#94 = DIRECTION ( 'NONE',  ( 0.000000000000000000, 1.000000000000000000, 0.000000000000000000 ) ) ;
#95 = VERTEX_POINT ( 'NONE', #941 ) ;
#96 = ADVANCED_FACE ( 'NONE', ( #877, #442 ), #459, .F. ) ;
#97 = FACE_BOUND ( 'NONE', #609, .T. ) ;
#98 = CARTESIAN_POINT ( 'NONE',  ( 16.32364466422500016, 36.57646444495800608, 21.58292523448599809 ) ) ;
#99 = EDGE_LOOP ( 'NONE', ( #1042 ) ) ;
#100 = ORIENTED_EDGE ( 'NONE', *, *, #102, .T. ) ;
#101 = PLANE ( 'NONE',  #622 ) ;
#102 = EDGE_CURVE ( 'NONE', #39, #302, #794, .T. ) ;
#103 = DIRECTION ( 'NONE',  ( 0.000000000000000000, -1.000000000000000000, 0.000000000000000000 ) ) ;
#104 = EDGE_LOOP ( 'NONE', ( #385 ) ) ;
#105 = VERTEX_POINT ( 'NONE', #623 ) ;
#106 = DIRECTION ( 'NONE',  ( 0.000000000000000000, 0.000000000000000000, 1.000000000000000000 ) ) ;
#107 = LINE ( 'NONE', #692, #795 ) ;
#108 = ORIENTED_EDGE ( 'NONE', *, *, #25, .T. ) ;
#109 = ORIENTED_EDGE ( 'NONE', *, *, #347, .F. ) ;
#110 = CARTESIAN_POINT ( 'NONE',  ( 12.05343597316399951, 0.000000000000000000, 87.05581423465299906 ) ) ;
#111 = VECTOR ( 'NONE', #521, 999.9999999999998863 ) ;
#112 = VECTOR ( 'NONE', #677, 1000.000000000000000 ) ;
#113 = DIRECTION ( 'NONE',  ( 0.000000000000000000, -1.000000000000000000, 0.000000000000000000 ) ) ;
#114 = ORIENTED_EDGE ( 'NONE', *, *, #576, .T. ) ;
#115 = ADVANCED_FACE ( 'NONE', ( #538 ), #101, .F. ) ;
#116 = CARTESIAN_POINT ( 'NONE',  ( 54.15950897690999710, 3.949217663616999552, 13.06325099840799986 ) ) ;
#117 = EDGE_LOOP ( 'NONE', ( #815, #1068, #713, #493 ) ) ;
#118 = DIRECTION ( 'NONE',  ( 0.000000000000000000, 1.000000000000000000, 0.000000000000000000 ) ) ;
#119 = LINE ( 'NONE', #193, #29 ) ;
#120 = EDGE_LOOP ( 'NONE', ( #284 ) ) ;
#121 = EDGE_CURVE ( 'NONE', #470, #875, #268, .T. ) ;
#122 = DIRECTION ( 'NONE',  ( 0.000000000000000000, 0.000000000000000000, 1.000000000000000000 ) ) ;
#123 = ORIENTED_EDGE ( 'NONE', *, *, #936, .T. ) ;
#124 = DIRECTION ( 'NONE',  ( 1.000000000000000000, -3.699089301975999521E-30, -6.484658435575000427E-31 ) ) ;
#125 = CARTESIAN_POINT ( 'NONE',  ( 21.03430281861199802, 22.55259108765200082, 10.05080621062400148 ) ) ;
#126 = VECTOR ( 'NONE', #313, 1000.000000000000000 ) ;
#127 = FACE_OUTER_BOUND ( 'NONE', #604, .T. ) ;
#128 = EDGE_CURVE ( 'NONE', #41, #613, #287, .T. ) ;
#129 = DIRECTION ( 'NONE',  ( 0.000000000000000000, -1.000000000000000000, 0.000000000000000000 ) ) ;
#130 = ORIENTED_EDGE ( 'NONE', *, *, #277, .T. ) ;
#131 = AXIS2_PLACEMENT_3D ( 'NONE', #359, #289, #552 ) ;
#132 = LINE ( 'NONE', #629, #219 ) ;
#133 = VECTOR ( 'NONE', #811, 1000.000000000000000 ) ;
#134 = DIRECTION ( 'NONE',  ( -0.000000000000000000, 1.000000000000000000, 0.000000000000000000 ) ) ;
#135 = DIRECTION ( 'NONE',  ( 0.000000000000000000, 1.000000000000000000, 0.000000000000000000 ) ) ;
#136 = CARTESIAN_POINT ( 'NONE',  ( 12.05343597316399951, 0.000000000000000000, 84.94229447748301709 ) ) ;
#137 = ORIENTED_EDGE ( 'NONE', *, *, #378, .T. ) ;
#138 = DIRECTION ( 'NONE',  ( -2.498059533200000291E-29, 0.000000000000000000, -1.000000000000000000 ) ) ;
#139 = FACE_OUTER_BOUND ( 'NONE', #275, .T. ) ;
#140 = CARTESIAN_POINT ( 'NONE',  ( 0.000000000000000000, 0.000000000000000000, 0.000000000000000000 ) ) ;
#141 = EDGE_LOOP ( 'NONE', ( #953, #137, #972, #7 ) ) ;
#142 = PLANE ( 'NONE',  #977 ) ;
#143 = DIRECTION ( 'NONE',  ( -0.000000000000000000, 1.000000000000000000, 0.000000000000000000 ) ) ;
#144 = DIRECTION ( 'NONE',  ( 0.000000000000000000, 0.000000000000000000, 1.000000000000000000 ) ) ;
#145 = DIRECTION ( 'NONE',  ( 0.000000000000000000, 0.000000000000000000, 1.000000000000000000 ) ) ;
#146 = ORIENTED_EDGE ( 'NONE', *, *, #407, .T. ) ;
#147 = AXIS2_PLACEMENT_3D ( 'NONE', #221, #143, #491 ) ;
#148 = CARTESIAN_POINT ( 'NONE',  ( 0.000000000000000000, 36.57646444495800608, 36.90785687973399831 ) ) ;
#149 = EDGE_CURVE ( 'NONE', #451, #979, #21, .T. ) ;
#150 = CARTESIAN_POINT ( 'NONE',  ( 24.66641149049100079, 22.55259108765200082, 13.72824436754900113 ) ) ;
#151 = CARTESIAN_POINT ( 'NONE',  ( 23.53470741895400309, 0.000000000000000000, 9.397416560277999764 ) ) ;
#152 = ORIENTED_EDGE ( 'NONE', *, *, #855, .T. ) ;
#153 = VECTOR ( 'NONE', #691, 1000.000000000000114 ) ;
#154 = LINE ( 'NONE', #645, #266 ) ;
#155 = DIRECTION ( 'NONE',  ( 0.000000000000000000, 0.000000000000000000, 1.000000000000000000 ) ) ;
#156 = FACE_OUTER_BOUND ( 'NONE', #648, .T. ) ;
#157 = ORIENTED_EDGE ( 'NONE', *, *, #803, .F. ) ;
#158 = CARTESIAN_POINT ( 'NONE',  ( 20.95563763046300210, 1.848721243081000054, 87.05581423465299906 ) ) ;
#159 = VERTEX_POINT ( 'NONE', #472 ) ;
#160 = VECTOR ( 'NONE', #637, 1000.000000000000114 ) ;
#161 = CARTESIAN_POINT ( 'NONE',  ( 0.000000000000000000, 0.000000000000000000, 0.000000000000000000 ) ) ;
#162 = EDGE_LOOP ( 'NONE', ( #580, #308, #350, #523 ) ) ;
#163 = AXIS2_PLACEMENT_3D ( 'NONE', #257, #680, #588 ) ;
#164 = DIRECTION ( 'NONE',  ( -0.7114781584211971044, 0.000000000000000000, 0.7027082112011940884 ) ) ;
#165 = PRODUCT_CONTEXT ( 'NONE', #4, 'mechanical' ) ;
#166 = FACE_OUTER_BOUND ( 'NONE', #35, .T. ) ;
#167 = VERTEX_POINT ( 'NONE', #1029 ) ;
#168 = CIRCLE ( 'NONE', #214, 0.3844220722269992563 ) ;
#169 = DIRECTION ( 'NONE',  ( -0.4145378763799454913, 0.000000000000000000, -0.9100320593508808287 ) ) ;
#170 = FACE_OUTER_BOUND ( 'NONE', #845, .T. ) ;
#171 = ORIENTED_EDGE ( 'NONE', *, *, #1013, .T. ) ;
#172 = LINE ( 'NONE', #333, #550 ) ;
#173 = ADVANCED_FACE ( 'NONE', ( #960 ), #1037, .T. ) ;
#174 = DIRECTION ( 'NONE',  ( 0.000000000000000000, 1.000000000000000000, 0.000000000000000000 ) ) ;
#175 = ORIENTED_EDGE ( 'NONE', *, *, #419, .T. ) ;
#176 = PRODUCT_RELATED_PRODUCT_CATEGORY ( 'part', '', ( #745 ) ) ;
#177 = FACE_BOUND ( 'NONE', #104, .T. ) ;
#178 = VECTOR ( 'NONE', #577, 1000.000000000000000 ) ;
#179 = FACE_OUTER_BOUND ( 'NONE', #162, .T. ) ;
#180 = ORIENTED_EDGE ( 'NONE', *, *, #929, .T. ) ;
#181 = AXIS2_PLACEMENT_3D ( 'NONE', #466, #562, #551 ) ;
#182 = EDGE_CURVE ( 'NONE', #440, #859, #437, .T. ) ;
#183 = DIRECTION ( 'NONE',  ( 0.000000000000000000, 1.000000000000000000, 0.000000000000000000 ) ) ;
#184 = LINE ( 'NONE', #513, #771 ) ;
#185 = ORIENTED_EDGE ( 'NONE', *, *, #803, .T. ) ;
#186 = ORIENTED_EDGE ( 'NONE', *, *, #419, .F. ) ;
#187 = DIRECTION ( 'NONE',  ( 0.4683515093490820402, 0.000000000000000000, 0.8835422251881551725 ) ) ;
#188 = LINE ( 'NONE', #382, #571 ) ;
#189 = ORIENTED_EDGE ( 'NONE', *, *, #592, .F. ) ;
#190 = ORIENTED_EDGE ( 'NONE', *, *, #485, .T. ) ;
#191 = CARTESIAN_POINT ( 'NONE',  ( 17.65017719818199993, 36.57646444495800608, 24.08542065393000087 ) ) ;
#192 = EDGE_CURVE ( 'NONE', #326, #451, #204, .T. ) ;
#193 = CARTESIAN_POINT ( 'NONE',  ( 20.95563763046300210, 1.848721243081000054, 84.94229447748301709 ) ) ;
#194 = ORIENTED_EDGE ( 'NONE', *, *, #1013, .F. ) ;
#195 = DIRECTION ( 'NONE',  ( 1.000000000000000000, 0.000000000000000000, 0.000000000000000000 ) ) ;
#196 = ORIENTED_EDGE ( 'NONE', *, *, #149, .F. ) ;
#197 = EDGE_CURVE ( 'NONE', #907, #644, #375, .T. ) ;
#198 = CARTESIAN_POINT ( 'NONE',  ( 7.328125174019000099, 0.000000000000000000, 46.42701989730599621 ) ) ;
#199 = EDGE_CURVE ( 'NONE', #297, #314, #452, .T. ) ;
#200 = ORIENTED_EDGE ( 'NONE', *, *, #966, .F. ) ;
#201 = PLANE ( 'NONE',  #22 ) ;
#202 = ORIENTED_EDGE ( 'NONE', *, *, #783, .F. ) ;
#203 = AXIS2_PLACEMENT_3D ( 'NONE', #756, #94, #23 ) ;
#204 = LINE ( 'NONE', #525, #728 ) ;
#205 = EDGE_CURVE ( 'NONE', #314, #913, #854, .T. ) ;
#206 = EDGE_CURVE ( 'NONE', #572, #1036, #279, .T. ) ;
#207 = CARTESIAN_POINT ( 'NONE',  ( 22.03520493256300128, 25.39444305060099794, 25.24341662187899615 ) ) ;
#208 = CARTESIAN_POINT ( 'NONE',  ( 23.53470741895400309, 0.000000000000000000, 9.397416560277999764 ) ) ;
#209 = DIRECTION ( 'NONE',  ( 0.000000000000000000, -0.9669303125634832741, -0.2550407235048640642 ) ) ;
#210 = ORIENTED_EDGE ( 'NONE', *, *, #197, .F. ) ;
#211 = DIRECTION ( 'NONE',  ( 0.000000000000000000, -1.000000000000000000, 0.000000000000000000 ) ) ;
#212 = VECTOR ( 'NONE', #103, 1000.000000000000000 ) ;
#213 = LINE ( 'NONE', #467, #256 ) ;
#214 = AXIS2_PLACEMENT_3D ( 'NONE', #433, #86, #255 ) ;
#215 = LINE ( 'NONE', #50, #769 ) ;
#216 = PLANE ( 'NONE',  #1024 ) ;
#217 = EDGE_LOOP ( 'NONE', ( #171, #605, #705, #529 ) ) ;
#218 = LINE ( 'NONE', #1062, #465 ) ;
#219 = VECTOR ( 'NONE', #483, 1000.000000000000000 ) ;
#220 = EDGE_CURVE ( 'NONE', #1010, #859, #786, .T. ) ;
#221 = CARTESIAN_POINT ( 'NONE',  ( 6.950287063434999801, 3.697442486162000108, 66.45324926412499167 ) ) ;
#222 = DIRECTION ( 'NONE',  ( 0.2648040538299321067, 0.000000000000000000, -0.9643022415587523266 ) ) ;
#223 = DIRECTION ( 'NONE',  ( 0.000000000000000000, 0.000000000000000000, -1.000000000000000000 ) ) ;
#224 = ORIENTED_EDGE ( 'NONE', *, *, #1066, .F. ) ;
#225 = DIRECTION ( 'NONE',  ( 0.000000000000000000, -1.000000000000000000, -3.016086700992999953E-30 ) ) ;
#226 = PLANE ( 'NONE',  #995 ) ;
#227 = DIRECTION ( 'NONE',  ( 0.000000000000000000, 0.000000000000000000, -1.000000000000000000 ) ) ;
#228 = CARTESIAN_POINT ( 'NONE',  ( 54.15950897690999710, 36.57646444495800608, 25.24341662187899615 ) ) ;
#229 = ORIENTED_EDGE ( 'NONE', *, *, #597, .F. ) ;
#230 = DIRECTION ( 'NONE',  ( -6.912784144928000155E-31, -3.016086700992999953E-30, 1.000000000000000000 ) ) ;
#231 = VERTEX_POINT ( 'NONE', #479 ) ;
#232 = EDGE_CURVE ( 'NONE', #1031, #302, #774, .T. ) ;
#233 = DIRECTION ( 'NONE',  ( -0.9791098785232121848, 0.2033318611980440560, 0.000000000000000000 ) ) ;
#234 = ORIENTED_EDGE ( 'NONE', *, *, #453, .T. ) ;
#235 = FACE_OUTER_BOUND ( 'NONE', #881, .T. ) ;
#236 = ADVANCED_FACE ( 'NONE', ( #36 ), #293, .F. ) ;
#237 = DIRECTION ( 'NONE',  ( 0.000000000000000000, 0.000000000000000000, 1.000000000000000000 ) ) ;
#238 = VERTEX_POINT ( 'NONE', #477 ) ;
#239 = DIRECTION ( 'NONE',  ( -0.9675122650312513173, 0.000000000000000000, 0.2528240831370656139 ) ) ;
#240 = CARTESIAN_POINT ( 'NONE',  ( 44.73532679033600346, 3.949217663616999552, 14.06325099840800164 ) ) ;
#241 = LINE ( 'NONE', #228, #75 ) ;
#242 = ORIENTED_EDGE ( 'NONE', *, *, #673, .T. ) ;
#243 = PRODUCT_DEFINITION_SHAPE ( 'NONE', 'NONE',  #1079 ) ;
#244 = DIRECTION ( 'NONE',  ( 0.000000000000000000, -1.000000000000000000, 0.000000000000000000 ) ) ;
#245 = DIRECTION ( 'NONE',  ( 0.000000000000000000, -1.000000000000000000, 0.000000000000000000 ) ) ;
#246 = ORIENTED_EDGE ( 'NONE', *, *, #701, .F. ) ;
#247 = AXIS2_PLACEMENT_3D ( 'NONE', #151, #737, #56 ) ;
#248 = AXIS2_PLACEMENT_3D ( 'NONE', #893, #642, #468 ) ;
#249 = DIRECTION ( 'NONE',  ( 0.000000000000000000, 1.000000000000000000, 0.000000000000000000 ) ) ;
#250 = DIRECTION ( 'NONE',  ( 1.000000000000000000, 0.000000000000000000, 0.000000000000000000 ) ) ;
#251 = DIRECTION ( 'NONE',  ( 0.000000000000000000, 1.000000000000000000, 0.000000000000000000 ) ) ;
#252 = ORIENTED_EDGE ( 'NONE', *, *, #816, .T. ) ;
#253 = VECTOR ( 'NONE', #768, 1000.000000000000000 ) ;
#254 = CIRCLE ( 'NONE', #821, 2.936163869889998779 ) ;
#255 = DIRECTION ( 'NONE',  ( 0.000000000000000000, 0.000000000000000000, -1.000000000000000000 ) ) ;
#256 = VECTOR ( 'NONE', #612, 1000.000000000000000 ) ;
#257 = CARTESIAN_POINT ( 'NONE',  ( 18.91105434092300186, 36.57646444495800608, 22.00987306486899797 ) ) ;
#258 = ORIENTED_EDGE ( 'NONE', *, *, #102, .F. ) ;
#259 = EDGE_CURVE ( 'NONE', #451, #575, #394, .T. ) ;
#260 = CARTESIAN_POINT ( 'NONE',  ( 23.53470741895400309, 0.000000000000000000, 9.397416560277999764 ) ) ;
#261 = DIRECTION ( 'NONE',  ( 0.000000000000000000, 0.000000000000000000, 1.000000000000000000 ) ) ;
#262 = ORIENTED_EDGE ( 'NONE', *, *, #121, .T. ) ;
#263 = AXIS2_PLACEMENT_3D ( 'NONE', #743, #405, #488 ) ;
#264 = CARTESIAN_POINT ( 'NONE',  ( 21.44413630097600176, 32.66401333837300314, -7.105427357600998703E-15 ) ) ;
#265 = ORIENTED_EDGE ( 'NONE', *, *, #192, .F. ) ;
#266 = VECTOR ( 'NONE', #409, 1000.000000000000341 ) ;
#267 = EDGE_LOOP ( 'NONE', ( #74, #822, #252 ) ) ;
#268 = LINE ( 'NONE', #850, #818 ) ;
#269 = DIRECTION ( 'NONE',  ( 0.000000000000000000, 0.000000000000000000, 1.000000000000000000 ) ) ;
#270 = ORIENTED_EDGE ( 'NONE', *, *, #617, .T. ) ;
#271 = ORIENTED_EDGE ( 'NONE', *, *, #128, .F. ) ;
#272 = EDGE_CURVE ( 'NONE', #707, #619, #218, .T. ) ;
#273 = DIRECTION ( 'NONE',  ( 0.2033318611980440560, -0.9791098785232122959, 0.000000000000000000 ) ) ;
#274 = CARTESIAN_POINT ( 'NONE',  ( 21.44413630097599821, 25.64764500353971854, 25.24341662187899615 ) ) ;
#275 = EDGE_LOOP ( 'NONE', ( #157 ) ) ;
#276 = PLANE ( 'NONE',  #1082 ) ;
#277 = EDGE_CURVE ( 'NONE', #875, #105, #1071, .T. ) ;
#278 = ORIENTED_EDGE ( 'NONE', *, *, #431, .T. ) ;
#279 = LINE ( 'NONE', #616, #153 ) ;
#280 = DIRECTION ( 'NONE',  ( -0.9929049348096734562, 0.000000000000000000, -0.1189108507689610461 ) ) ;
#281 = ORIENTED_EDGE ( 'NONE', *, *, #408, .T. ) ;
#282 = AXIS2_PLACEMENT_3D ( 'NONE', #630, #280, #454 ) ;
#283 = FACE_OUTER_BOUND ( 'NONE', #991, .T. ) ;
#284 = ORIENTED_EDGE ( 'NONE', *, *, #674, .F. ) ;
#285 = ADVANCED_FACE ( 'NONE', ( #568 ), #1054, .F. ) ;
#286 = EDGE_CURVE ( 'NONE', #1092, #542, #154, .T. ) ;
#287 = LINE ( 'NONE', #362, #341 ) ;
#288 = VECTOR ( 'NONE', #390, 1000.000000000000000 ) ;
#289 = DIRECTION ( 'NONE',  ( -0.8835422251881551725, 0.000000000000000000, 0.4683515093490820402 ) ) ;
#290 = PLANE ( 'NONE',  #248 ) ;
#291 = CARTESIAN_POINT ( 'NONE',  ( 23.53470741895400309, 22.55259108765200082, 9.397416560277999764 ) ) ;
#292 = ORIENTED_EDGE ( 'NONE', *, *, #780, .F. ) ;
#293 = PLANE ( 'NONE',  #924 ) ;
#294 = CARTESIAN_POINT ( 'NONE',  ( 0.000000000000000000, 36.57646444495800608, 0.000000000000000000 ) ) ;
#295 = CARTESIAN_POINT ( 'NONE',  ( 25.35076175489299999, 22.55259108765200082, 11.23613563874099874 ) ) ;
#296 = CARTESIAN_POINT ( 'NONE',  ( 17.59516788630599748, 27.55178918431199975, 22.55471621459700060 ) ) ;
#297 = VERTEX_POINT ( 'NONE', #988 ) ;
#298 = EDGE_CURVE ( 'NONE', #1015, #542, #740, .T. ) ;
#299 = CARTESIAN_POINT ( 'NONE',  ( 17.65017719818199993, 36.57646444495800608, 24.08542065393000087 ) ) ;
#300 = AXIS2_PLACEMENT_3D ( 'NONE', #325, #565, #145 ) ;
#301 = CARTESIAN_POINT ( 'NONE',  ( 21.44413630097600176, 36.57646444495800608, 25.24341662187899615 ) ) ;
#302 = VERTEX_POINT ( 'NONE', #387 ) ;
#303 = LINE ( 'NONE', #136, #935 ) ;
#304 = ORIENTED_EDGE ( 'NONE', *, *, #929, .F. ) ;
#305 = CARTESIAN_POINT ( 'NONE',  ( 54.15950897690999710, 9.195327154023999583, 87.05581423465299906 ) ) ;
#306 = CARTESIAN_POINT ( 'NONE',  ( 21.44413630097600176, 25.96596522728800238, 25.39416319332000072 ) ) ;
#307 = FACE_OUTER_BOUND ( 'NONE', #863, .T. ) ;
#308 = ORIENTED_EDGE ( 'NONE', *, *, #870, .T. ) ;
#309 = PLANE ( 'NONE',  #356 ) ;
#310 = ADVANCED_FACE ( 'NONE', ( #557, #980 ), #883, .T. ) ;
#311 = CARTESIAN_POINT ( 'NONE',  ( 54.15950897690999710, 25.39444305060099794, 25.24341662187899615 ) ) ;
#312 = CARTESIAN_POINT ( 'NONE',  ( 20.34995255421000238, 0.000000000000000000, 12.54291493943200031 ) ) ;
#313 = DIRECTION ( 'NONE',  ( 0.000000000000000000, 0.000000000000000000, 1.000000000000000000 ) ) ;
#314 = VERTEX_POINT ( 'NONE', #64 ) ;
#315 = ADVANCED_FACE ( 'NONE', ( #1077, #235 ), #891, .T. ) ;
#316 = DIRECTION ( 'NONE',  ( 1.000000000000000000, 3.904168633595000114E-30, 0.000000000000000000 ) ) ;
#317 = VERTEX_POINT ( 'NONE', #328 ) ;
#318 = CIRCLE ( 'NONE', #515, 0.3844220722269992563 ) ;
#319 = DIRECTION ( 'NONE',  ( 1.000000000000000000, 0.000000000000000000, 0.000000000000000000 ) ) ;
#320 = ORIENTED_EDGE ( 'NONE', *, *, #601, .F. ) ;
#321 = EDGE_CURVE ( 'NONE', #1015, #1031, #132, .T. ) ;
#322 = FACE_OUTER_BOUND ( 'NONE', #621, .T. ) ;
#323 = VECTOR ( 'NONE', #211, 1000.000000000000000 ) ;
#324 = VERTEX_POINT ( 'NONE', #54 ) ;
#325 = CARTESIAN_POINT ( 'NONE',  ( 54.15950897690999710, 3.949217663616999552, 13.06325099840799986 ) ) ;
#326 = VERTEX_POINT ( 'NONE', #817 ) ;
#327 = CARTESIAN_POINT ( 'NONE',  ( 18.91105434092300186, 36.57646444495800608, 22.00987306486899797 ) ) ;
#328 = CARTESIAN_POINT ( 'NONE',  ( 44.73532679033600346, 3.949217663616999552, 12.67882892618100144 ) ) ;
#329 = CARTESIAN_POINT ( 'NONE',  ( 0.000000000000000000, 3.697442486162000108, 36.90785687973399831 ) ) ;
#330 = ORIENTED_EDGE ( 'NONE', *, *, #407, .F. ) ;
#331 = ORIENTED_EDGE ( 'NONE', *, *, #936, .F. ) ;
#332 = ADVANCED_FACE ( 'NONE', ( #403 ), #471, .F. ) ;
#333 = CARTESIAN_POINT ( 'NONE',  ( 0.000000000000000000, 3.697442486162000108, 87.05581423465299906 ) ) ;
#334 = DIRECTION ( 'NONE',  ( 0.000000000000000000, 0.000000000000000000, -1.000000000000000000 ) ) ;
#335 = ORIENTED_EDGE ( 'NONE', *, *, #286, .T. ) ;
#336 = DIRECTION ( 'NONE',  ( 0.000000000000000000, -1.000000000000000000, 0.000000000000000000 ) ) ;
#337 = APPLICATION_PROTOCOL_DEFINITION ( 'draft international standard', 'automotive_design', 1998, #4 ) ;
#338 = DIRECTION ( 'NONE',  ( -0.7027082112011940884, 0.000000000000000000, -0.7114781584211971044 ) ) ;
#339 = ORIENTED_EDGE ( 'NONE', *, *, #695, .F. ) ;
#340 = EDGE_CURVE ( 'NONE', #1084, #1084, #416, .T. ) ;
#341 = VECTOR ( 'NONE', #945, 1000.000000000000000 ) ;
#342 = FACE_OUTER_BOUND ( 'NONE', #838, .T. ) ;
#343 = CIRCLE ( 'NONE', #869, 2.152909607110000234 ) ;
#344 = DIRECTION ( 'NONE',  ( 1.152792204286698634E-42, 0.2550407235048636201, -0.9669303125634834961 ) ) ;
#345 = EDGE_LOOP ( 'NONE', ( #959 ) ) ;
#346 = PLANE ( 'NONE',  #458 ) ;
#347 = EDGE_CURVE ( 'NONE', #302, #371, #735, .T. ) ;
#348 = CARTESIAN_POINT ( 'NONE',  ( 8.089145956243999791, 36.57646444495800608, 9.801553345498000169 ) ) ;
#349 = EDGE_LOOP ( 'NONE', ( #1086, #634, #693, #853 ) ) ;
#350 = ORIENTED_EDGE ( 'NONE', *, *, #18, .F. ) ;
#351 = VECTOR ( 'NONE', #599, 1000.000000000000000 ) ;
#352 = VECTOR ( 'NONE', #1094, 1000.000000000000000 ) ;
#353 = DIRECTION ( 'NONE',  ( 0.000000000000000000, 0.000000000000000000, -1.000000000000000000 ) ) ;
#354 = CARTESIAN_POINT ( 'NONE',  ( 54.15950897690999710, 36.57646444495800608, 25.24341662187899615 ) ) ;
#355 = ORIENTED_EDGE ( 'NONE', *, *, #649, .F. ) ;
#356 = AXIS2_PLACEMENT_3D ( 'NONE', #573, #230, #225 ) ;
#357 = EDGE_LOOP ( 'NONE', ( #694 ) ) ;
#358 = DIRECTION ( 'NONE',  ( 0.000000000000000000, -1.000000000000000000, 0.000000000000000000 ) ) ;
#359 = CARTESIAN_POINT ( 'NONE',  ( 16.32364466422500016, 36.57646444495800608, 21.58292523448599809 ) ) ;
#360 = ORIENTED_EDGE ( 'NONE', *, *, #347, .T. ) ;
#361 = ORIENTED_EDGE ( 'NONE', *, *, #182, .F. ) ;
#362 = CARTESIAN_POINT ( 'NONE',  ( 54.15950897690999710, 36.57646444495800608, 25.24341662187899615 ) ) ;
#363 = FACE_OUTER_BOUND ( 'NONE', #1081, .T. ) ;
#364 = VERTEX_POINT ( 'NONE', #650 ) ;
#365 = ADVANCED_FACE ( 'NONE', ( #641 ), #309, .T. ) ;
#366 = DIRECTION ( 'NONE',  ( -1.000000000000000000, 0.000000000000000000, 0.000000000000000000 ) ) ;
#367 = ORIENTED_EDGE ( 'NONE', *, *, #272, .T. ) ;
#368 = CARTESIAN_POINT ( 'NONE',  ( 54.15950897690999710, 0.000000000000000000, 87.05581423465299906 ) ) ;
#369 = ADVANCED_FACE ( 'NONE', ( #896 ), #142, .T. ) ;
#370 = DIRECTION ( 'NONE',  ( 0.9675122650312512063, 0.000000000000000000, -0.2528240831370655584 ) ) ;
#371 = VERTEX_POINT ( 'NONE', #993 ) ;
#372 = VECTOR ( 'NONE', #578, 1000.000000000000227 ) ;
#373 = DIRECTION ( 'NONE',  ( 1.000000000000000000, 0.000000000000000000, 0.000000000000000000 ) ) ;
#374 = EDGE_LOOP ( 'NONE', ( #1027, #175, #190, #548, #956 ) ) ;
#375 = LINE ( 'NONE', #110, #10 ) ;
#376 = SURFACE_SIDE_STYLE ('',( #955 ) ) ;
#377 = DIRECTION ( 'NONE',  ( -1.000000000000000000, 0.000000000000000000, 0.000000000000000000 ) ) ;
#378 = EDGE_CURVE ( 'NONE', #572, #95, #70, .T. ) ;
#379 = DIRECTION ( 'NONE',  ( 0.000000000000000000, 0.000000000000000000, -1.000000000000000000 ) ) ;
#380 = ORIENTED_EDGE ( 'NONE', *, *, #920, .F. ) ;
#381 = DIRECTION ( 'NONE',  ( 0.000000000000000000, 1.000000000000000000, 0.000000000000000000 ) ) ;
#382 = CARTESIAN_POINT ( 'NONE',  ( 21.03430281861199802, 22.55259108765200082, 10.05080621062400148 ) ) ;
#383 = CARTESIAN_POINT ( 'NONE',  ( 12.05343597316399951, 3.697442486162000108, 84.94229447748301709 ) ) ;
#384 = CARTESIAN_POINT ( 'NONE',  ( 0.000000000000000000, 36.57646444495800608, 87.05581423465299906 ) ) ;
#385 = ORIENTED_EDGE ( 'NONE', *, *, #408, .F. ) ;
#386 =( BOUNDED_CURVE ( )  B_SPLINE_CURVE ( 3, ( #603, #509, #594, #11 ),
 .UNSPECIFIED., .F., .T. ) 
 B_SPLINE_CURVE_WITH_KNOTS ( ( 4, 4 ),
 ( 1.570796326794896558, 3.141592653589793116 ),
 .UNSPECIFIED. ) 
 CURVE ( )  GEOMETRIC_REPRESENTATION_ITEM ( )  RATIONAL_B_SPLINE_CURVE ( ( 1.000000000000000000, 0.8047378541243649375, 0.8047378541243649375, 1.000000000000000000 ) ) 
 REPRESENTATION_ITEM ( '' )  );
#387 = CARTESIAN_POINT ( 'NONE',  ( 54.15950897690999710, 9.195327154023999583, 87.05581423465299906 ) ) ;
#388 = AXIS2_PLACEMENT_3D ( 'NONE', #73, #990, #570 ) ;
#389 = FACE_OUTER_BOUND ( 'NONE', #1021, .T. ) ;
#390 = DIRECTION ( 'NONE',  ( -1.000000000000000000, 0.000000000000000000, 0.000000000000000000 ) ) ;
#391 = CARTESIAN_POINT ( 'NONE',  ( 22.03520493256300128, 25.39444305060099794, 25.24341662187899615 ) ) ;
#392 = ORIENTED_EDGE ( 'NONE', *, *, #199, .T. ) ;
#393 = EDGE_CURVE ( 'NONE', #167, #105, #508, .T. ) ;
#394 = LINE ( 'NONE', #299, #1012 ) ;
#395 = PLANE ( 'NONE',  #147 ) ;
#396 = VECTOR ( 'NONE', #118, 1000.000000000000000 ) ;
#397 = FACE_OUTER_BOUND ( 'NONE', #117, .T. ) ;
#398 = ADVANCED_FACE ( 'NONE', ( #342 ), #77, .F. ) ;
#399 = DIRECTION ( 'NONE',  ( 0.000000000000000000, 0.000000000000000000, 1.000000000000000000 ) ) ;
#400 = ORIENTED_EDGE ( 'NONE', *, *, #783, .T. ) ;
#401 = EDGE_CURVE ( 'NONE', #979, #238, #923, .T. ) ;
#402 = VECTOR ( 'NONE', #251, 1000.000000000000000 ) ;
#403 = FACE_OUTER_BOUND ( 'NONE', #682, .T. ) ;
#404 = CARTESIAN_POINT ( 'NONE',  ( 24.66641149049100079, 0.000000000000000000, 13.72824436754900113 ) ) ;
#405 = DIRECTION ( 'NONE',  ( 1.000000000000000000, 0.000000000000000000, 0.000000000000000000 ) ) ;
#406 = ORIENTED_EDGE ( 'NONE', *, *, #816, .F. ) ;
#407 = EDGE_CURVE ( 'NONE', #907, #1031, #754, .T. ) ;
#408 = EDGE_CURVE ( 'NONE', #723, #723, #746, .T. ) ;
#409 = DIRECTION ( 'NONE',  ( 0.000000000000000000, 0.2550407235048640642, -0.9669303125634831630 ) ) ;
#410 = DIRECTION ( 'NONE',  ( 0.2648040538299321067, 0.000000000000000000, -0.9643022415587523266 ) ) ;
#411 = VECTOR ( 'NONE', #1091, 1000.000000000000000 ) ;
#412 = VECTOR ( 'NONE', #586, 1000.000000000000000 ) ;
#413 = DIRECTION ( 'NONE',  ( 0.000000000000000000, -1.000000000000000000, 0.000000000000000000 ) ) ;
#414 = ORIENTED_EDGE ( 'NONE', *, *, #1018, .F. ) ;
#415 = DIRECTION ( 'NONE',  ( 0.000000000000000000, -1.000000000000000000, 0.000000000000000000 ) ) ;
#416 = CIRCLE ( 'NONE', #797, 3.203576843338999058 ) ;
#417 = DIRECTION ( 'NONE',  ( 0.9100320593508808287, 0.000000000000000000, -0.4145378763799454913 ) ) ;
#418 = ORIENTED_EDGE ( 'NONE', *, *, #485, .F. ) ;
#419 = EDGE_CURVE ( 'NONE', #506, #659, #512, .T. ) ;
#420 = FACE_OUTER_BOUND ( 'NONE', #584, .T. ) ;
#421 = CARTESIAN_POINT ( 'NONE',  ( 12.05343597316399951, 3.697442486162000108, 87.05581423465299906 ) ) ;
#422 = ORIENTED_EDGE ( 'NONE', *, *, #205, .F. ) ;
#423 = CARTESIAN_POINT ( 'NONE',  ( 0.000000000000000000, 3.697442486162000108, 84.94229447748301709 ) ) ;
#424 = LINE ( 'NONE', #6, #65 ) ;
#425 = EDGE_LOOP ( 'NONE', ( #100, #360, #668 ) ) ;
#426 = ADVANCED_FACE ( 'NONE', ( #660 ), #675, .F. ) ;
#427 = FACE_BOUND ( 'NONE', #457, .T. ) ;
#428 = VECTOR ( 'NONE', #730, 1000.000000000000114 ) ;
#429 = CYLINDRICAL_SURFACE ( 'NONE', #729, 0.5910686315870016250 ) ;
#430 = EDGE_LOOP ( 'NONE', ( #152, #948, #654, #444, #114, #392, #84 ) ) ;
#431 = EDGE_CURVE ( 'NONE', #644, #12, #1017, .T. ) ;
#432 = AXIS2_PLACEMENT_3D ( 'NONE', #702, #124, #543 ) ;
#433 = CARTESIAN_POINT ( 'NONE',  ( 44.73532679033600346, 3.949217663616999552, 13.06325099840799986 ) ) ;
#434 = DIRECTION ( 'NONE',  ( 0.000000000000000000, 1.000000000000000000, 0.000000000000000000 ) ) ;
#435 = EDGE_LOOP ( 'NONE', ( #262, #130, #799, #561 ) ) ;
#436 = ORIENTED_EDGE ( 'NONE', *, *, #72, .T. ) ;
#437 = LINE ( 'NONE', #530, #486 ) ;
#438 = DIRECTION ( 'NONE',  ( 0.000000000000000000, 1.000000000000000000, 0.000000000000000000 ) ) ;
#439 = ORIENTED_EDGE ( 'NONE', *, *, #920, .T. ) ;
#440 = VERTEX_POINT ( 'NONE', #919 ) ;
#441 = VECTOR ( 'NONE', #319, 1000.000000000000000 ) ;
#442 = FACE_OUTER_BOUND ( 'NONE', #1026, .T. ) ;
#443 = ORIENTED_EDGE ( 'NONE', *, *, #667, .F. ) ;
#444 = ORIENTED_EDGE ( 'NONE', *, *, #764, .F. ) ;
#445 = VECTOR ( 'NONE', #813, 1000.000000000000341 ) ;
#446 = VECTOR ( 'NONE', #539, 1000.000000000000000 ) ;
#447 = DIRECTION ( 'NONE',  ( -0.9675122650312512063, 0.000000000000000000, 0.2528240831370655584 ) ) ;
#448 = FILL_AREA_STYLE ('',( #781 ) ) ;
#449 = ORIENTED_EDGE ( 'NONE', *, *, #259, .T. ) ;
#450 = LINE ( 'NONE', #620, #499 ) ;
#451 = VERTEX_POINT ( 'NONE', #747 ) ;
#452 = LINE ( 'NONE', #1044, #253 ) ;
#453 = EDGE_CURVE ( 'NONE', #317, #317, #168, .T. ) ;
#454 = DIRECTION ( 'NONE',  ( -0.1189108507689610461, 0.000000000000000000, 0.9929049348096734562 ) ) ;
#455 = ORIENTED_EDGE ( 'NONE', *, *, #401, .T. ) ;
#456 = DIRECTION ( 'NONE',  ( 1.000000000000000000, 0.000000000000000000, 0.000000000000000000 ) ) ;
#457 = EDGE_LOOP ( 'NONE', ( #414, #998, #229, #773, #762, #194 ) ) ;
#458 = AXIS2_PLACEMENT_3D ( 'NONE', #34, #1052, #706 ) ;
#459 = CYLINDRICAL_SURFACE ( 'NONE', #864, 2.412165745313998855 ) ;
#460 =( NAMED_UNIT ( * ) PLANE_ANGLE_UNIT ( ) SI_UNIT ( $, .RADIAN. ) );
#461 = DIRECTION ( 'NONE',  ( 0.000000000000000000, -1.000000000000000000, 0.000000000000000000 ) ) ;
#462 = PRODUCT_DEFINITION_FORMATION_WITH_SPECIFIED_SOURCE ( 'ไป', '', #745, .NOT_KNOWN. ) ;
#463 = FACE_OUTER_BOUND ( 'NONE', #753, .T. ) ;
#464 = VERTEX_POINT ( 'NONE', #260 ) ;
#465 = VECTOR ( 'NONE', #636, 1000.000000000000341 ) ;
#466 = CARTESIAN_POINT ( 'NONE',  ( 17.65017719818199993, 36.57646444495800608, 24.08542065393000087 ) ) ;
#467 = CARTESIAN_POINT ( 'NONE',  ( 22.16600689014999759, 22.55259108765200082, 14.38163401789399920 ) ) ;
#468 = DIRECTION ( 'NONE',  ( -0.2648040538299321067, 0.000000000000000000, 0.9643022415587523266 ) ) ;
#469 = DIRECTION ( 'NONE',  ( 0.2033318611980440560, 0.9791098785232122959, 0.000000000000000000 ) ) ;
#470 = VERTEX_POINT ( 'NONE', #596 ) ;
#471 = PLANE ( 'NONE',  #503 ) ;
#472 = CARTESIAN_POINT ( 'NONE',  ( 8.089145956243999791, 36.57646444495800608, 12.73771721538799895 ) ) ;
#473 = CARTESIAN_POINT ( 'NONE',  ( 54.15950897690999710, 25.39444305060099794, 25.24341662187899615 ) ) ;
#474 = EDGE_CURVE ( 'NONE', #501, #575, #502, .T. ) ;
#475 = FACE_BOUND ( 'NONE', #767, .T. ) ;
#476 = ORIENTED_EDGE ( 'NONE', *, *, #259, .F. ) ;
#477 = CARTESIAN_POINT ( 'NONE',  ( 18.91105434092300186, 27.55178918431199975, 22.00987306486899797 ) ) ;
#478 = EDGE_CURVE ( 'NONE', #976, #167, #172, .T. ) ;
#479 = CARTESIAN_POINT ( 'NONE',  ( 8.089145956243999791, 36.57646444495800608, 7.648643738387999491 ) ) ;
#480 = CARTESIAN_POINT ( 'NONE',  ( 18.91105434092300186, 27.55178918431199975, 22.00987306486899797 ) ) ;
#481 = DIRECTION ( 'NONE',  ( 0.000000000000000000, 0.000000000000000000, -1.000000000000000000 ) ) ;
#482 = ORIENTED_EDGE ( 'NONE', *, *, #674, .T. ) ;
#483 = DIRECTION ( 'NONE',  ( 0.000000000000000000, 0.000000000000000000, 1.000000000000000000 ) ) ;
#484 = VERTEX_POINT ( 'NONE', #59 ) ;
#485 = EDGE_CURVE ( 'NONE', #659, #965, #836, .T. ) ;
#486 = VECTOR ( 'NONE', #183, 1000.000000000000000 ) ;
#487 = ADVANCED_FACE ( 'NONE', ( #420 ), #914, .F. ) ;
#488 = DIRECTION ( 'NONE',  ( 0.000000000000000000, 1.000000000000000000, 0.000000000000000000 ) ) ;
#489 = ORIENTED_EDGE ( 'NONE', *, *, #981, .T. ) ;
#490 = DIRECTION ( 'NONE',  ( -0.000000000000000000, 1.000000000000000000, 0.000000000000000000 ) ) ;
#491 = DIRECTION ( 'NONE',  ( 1.000000000000000000, 0.000000000000000000, 0.000000000000000000 ) ) ;
#492 = CARTESIAN_POINT ( 'NONE',  ( 22.84340154073199969, 36.57646444495800608, 87.05581423465299906 ) ) ;
#493 = ORIENTED_EDGE ( 'NONE', *, *, #88, .T. ) ;
#494 = DIRECTION ( 'NONE',  ( 0.000000000000000000, 1.000000000000000000, 0.000000000000000000 ) ) ;
#495 = VECTOR ( 'NONE', #377, 1000.000000000000000 ) ;
#496 = VERTEX_POINT ( 'NONE', #996 ) ;
#497 = EDGE_CURVE ( 'NONE', #858, #928, #593, .T. ) ;
#498 = AXIS2_PLACEMENT_3D ( 'NONE', #937, #174, #261 ) ;
#499 = VECTOR ( 'NONE', #541, 1000.000000000000000 ) ;
#500 = PLANE ( 'NONE',  #388 ) ;
#501 = VERTEX_POINT ( 'NONE', #91 ) ;
#502 = LINE ( 'NONE', #82, #38 ) ;
#503 = AXIS2_PLACEMENT_3D ( 'NONE', #806, #722, #824 ) ;
#504 =( BOUNDED_CURVE ( )  B_SPLINE_CURVE ( 3, ( #862, #274, #531, #207 ),
 .UNSPECIFIED., .F., .T. ) 
 B_SPLINE_CURVE_WITH_KNOTS ( ( 4, 4 ),
 ( 1.570796326794896558, 3.141592653589793116 ),
 .UNSPECIFIED. ) 
 CURVE ( )  GEOMETRIC_REPRESENTATION_ITEM ( )  RATIONAL_B_SPLINE_CURVE ( ( 1.000000000000000000, 0.8047378541243649375, 0.8047378541243649375, 1.000000000000000000 ) ) 
 REPRESENTATION_ITEM ( '' )  );
#505 = CARTESIAN_POINT ( 'NONE',  ( 21.03430281861199802, 0.000000000000000000, 10.05080621062400148 ) ) ;
#506 = VERTEX_POINT ( 'NONE', #665 ) ;
#507 = MECHANICAL_DESIGN_GEOMETRIC_PRESENTATION_REPRESENTATION (  '', ( #1016 ), #925 ) ;
#508 = LINE ( 'NONE', #1008, #640 ) ;
#509 = CARTESIAN_POINT ( 'NONE',  ( 21.44413630097599821, 32.30593170250771351, 0.000000000000000000 ) ) ;
#510 = EDGE_CURVE ( 'NONE', #470, #167, #759, .T. ) ;
#511 = ORIENTED_EDGE ( 'NONE', *, *, #474, .F. ) ;
#512 = LINE ( 'NONE', #423, #556 ) ;
#513 = CARTESIAN_POINT ( 'NONE',  ( 24.66641149049100079, 0.000000000000000000, 13.72824436754900113 ) ) ;
#514 = ORIENTED_EDGE ( 'NONE', *, *, #478, .T. ) ;
#515 = AXIS2_PLACEMENT_3D ( 'NONE', #116, #366, #379 ) ;
#516 = CARTESIAN_POINT ( 'NONE',  ( 0.000000000000000000, 0.000000000000000000, 84.94229447748301709 ) ) ;
#517 = VECTOR ( 'NONE', #410, 1000.000000000000114 ) ;
#518 = ADVANCED_FACE ( 'NONE', ( #427, #177, #97, #322 ), #656, .F. ) ;
#519 = LINE ( 'NONE', #946, #549 ) ;
#520 = ORIENTED_EDGE ( 'NONE', *, *, #1076, .T. ) ;
#521 = DIRECTION ( 'NONE',  ( 0.5191957193558500716, 0.000000000000000000, -0.8546553720667539045 ) ) ;
#522 = FACE_OUTER_BOUND ( 'NONE', #917, .T. ) ;
#523 = ORIENTED_EDGE ( 'NONE', *, *, #401, .F. ) ;
#524 = ORIENTED_EDGE ( 'NONE', *, *, #149, .T. ) ;
#525 = CARTESIAN_POINT ( 'NONE',  ( 16.32364466422500016, 36.57646444495800608, 21.58292523448599809 ) ) ;
#526 = ADVANCED_FACE ( 'NONE', ( #475, #717, #888, #463 ), #346, .T. ) ;
#527 = LINE ( 'NONE', #618, #903 ) ;
#528 = ORIENTED_EDGE ( 'NONE', *, *, #220, .T. ) ;
#529 = ORIENTED_EDGE ( 'NONE', *, *, #497, .F. ) ;
#530 = CARTESIAN_POINT ( 'NONE',  ( 22.16600689014999759, 0.000000000000000000, 14.38163401789399920 ) ) ;
#531 = CARTESIAN_POINT ( 'NONE',  ( 21.68896494447264445, 25.39444305060100149, 25.24341662187899615 ) ) ;
#532 = ORIENTED_EDGE ( 'NONE', *, *, #298, .T. ) ;
#533 = DIRECTION ( 'NONE',  ( 0.000000000000000000, 0.000000000000000000, -1.000000000000000000 ) ) ;
#534 = ORIENTED_EDGE ( 'NONE', *, *, #83, .T. ) ;
#535 = VECTOR ( 'NONE', #709, 1000.000000000000000 ) ;
#536 = UNCERTAINTY_MEASURE_WITH_UNIT (LENGTH_MEASURE( 1.000000000000000082E-05 ), #775, 'distance_accuracy_value', 'NONE');
#537 = ADVANCED_FACE ( 'NONE', ( #1022 ), #1059, .F. ) ;
#538 = FACE_OUTER_BOUND ( 'NONE', #849, .T. ) ;
#539 = DIRECTION ( 'NONE',  ( 0.000000000000000000, 0.000000000000000000, -1.000000000000000000 ) ) ;
#540 = ORIENTED_EDGE ( 'NONE', *, *, #870, .F. ) ;
#541 = DIRECTION ( 'NONE',  ( -1.000000000000000000, 0.000000000000000000, 0.000000000000000000 ) ) ;
#542 = VERTEX_POINT ( 'NONE', #978 ) ;
#543 = DIRECTION ( 'NONE',  ( -3.699089301975999521E-30, -1.000000000000000000, 0.000000000000000000 ) ) ;
#544 = DIRECTION ( 'NONE',  ( 0.000000000000000000, 0.000000000000000000, -1.000000000000000000 ) ) ;
#545 = CARTESIAN_POINT ( 'NONE',  ( 20.34995255421000238, 0.000000000000000000, 12.54291493943200031 ) ) ;
#546 = ADVANCED_FACE ( 'NONE', ( #40 ), #216, .F. ) ;
#547 = DIRECTION ( 'NONE',  ( 0.000000000000000000, 0.2550407235048640642, -0.9669303125634832741 ) ) ;
#548 = ORIENTED_EDGE ( 'NONE', *, *, #567, .T. ) ;
#549 = VECTOR ( 'NONE', #926, 999.9999999999998863 ) ;
#550 = VECTOR ( 'NONE', #763, 1000.000000000000000 ) ;
#551 = DIRECTION ( 'NONE',  ( 0.000000000000000000, -1.000000000000000000, 0.000000000000000000 ) ) ;
#552 = DIRECTION ( 'NONE',  ( 0.000000000000000000, 1.000000000000000000, 0.000000000000000000 ) ) ;
#553 = CARTESIAN_POINT ( 'NONE',  ( 21.44413630097600176, 26.00572663940500107, 25.24341662187899615 ) ) ;
#554 = CARTESIAN_POINT ( 'NONE',  ( 20.95563763046300210, 1.848721243081000054, 87.05581423465299906 ) ) ;
#555 = EDGE_LOOP ( 'NONE', ( #19 ) ) ;
#556 = VECTOR ( 'NONE', #415, 1000.000000000000000 ) ;
#557 = FACE_BOUND ( 'NONE', #1053, .T. ) ;
#558 = CARTESIAN_POINT ( 'NONE',  ( 44.73532679033600346, 3.949217663616999552, 13.06325099840799986 ) ) ;
#559 = CARTESIAN_POINT ( 'NONE',  ( 54.15950897690999710, 36.57646444495800608, 25.24341662187899615 ) ) ;
#560 = CARTESIAN_POINT ( 'NONE',  ( 46.75682163943399416, 36.57646444495800608, 87.05581423465299906 ) ) ;
#561 = ORIENTED_EDGE ( 'NONE', *, *, #510, .F. ) ;
#562 = DIRECTION ( 'NONE',  ( 0.8546553720667539045, 0.000000000000000000, 0.5191957193558500716 ) ) ;
#563 = DIRECTION ( 'NONE',  ( 1.000000000000000000, 0.000000000000000000, 0.000000000000000000 ) ) ;
#564 = LINE ( 'NONE', #295, #63 ) ;
#565 = DIRECTION ( 'NONE',  ( 1.000000000000000000, 0.000000000000000000, 0.000000000000000000 ) ) ;
#566 = EDGE_LOOP ( 'NONE', ( #439, #367, #719, #685 ) ) ;
#567 = EDGE_CURVE ( 'NONE', #965, #12, #303, .T. ) ;
#568 = FACE_OUTER_BOUND ( 'NONE', #678, .T. ) ;
#569 = CARTESIAN_POINT ( 'NONE',  ( 11.39482598701100002, 36.57646444495800608, 19.87396636458099763 ) ) ;
#570 = DIRECTION ( 'NONE',  ( 0.000000000000000000, 1.000000000000000000, 0.000000000000000000 ) ) ;
#571 = VECTOR ( 'NONE', #370, 1000.000000000000227 ) ;
#572 = VERTEX_POINT ( 'NONE', #880 ) ;
#573 = CARTESIAN_POINT ( 'NONE',  ( 9.685192792485999291, 1.848721243081000054, 84.94229447748301709 ) ) ;
#574 = PLANE ( 'NONE',  #1007 ) ;
#575 = VERTEX_POINT ( 'NONE', #798 ) ;
#576 = EDGE_CURVE ( 'NONE', #778, #297, #679, .T. ) ;
#577 = DIRECTION ( 'NONE',  ( 1.000000000000000000, 0.000000000000000000, 0.000000000000000000 ) ) ;
#578 = DIRECTION ( 'NONE',  ( 0.9675122650312512063, 0.000000000000000000, -0.2528240831370655584 ) ) ;
#579 = FACE_OUTER_BOUND ( 'NONE', #435, .T. ) ;
#580 = ORIENTED_EDGE ( 'NONE', *, *, #1061, .T. ) ;
#581 = DIRECTION ( 'NONE',  ( 0.000000000000000000, 0.000000000000000000, -1.000000000000000000 ) ) ;
#582 = CIRCLE ( 'NONE', #300, 1.000000000000000888 ) ;
#583 = FACE_OUTER_BOUND ( 'NONE', #782, .T. ) ;
#584 = EDGE_LOOP ( 'NONE', ( #355, #889, #943, #80, #2, #186 ) ) ;
#585 = ORIENTED_EDGE ( 'NONE', *, *, #182, .T. ) ;
#586 = DIRECTION ( 'NONE',  ( 0.000000000000000000, -1.000000000000000000, 0.000000000000000000 ) ) ;
#587 = EDGE_CURVE ( 'NONE', #1090, #1090, #318, .T. ) ;
#588 = DIRECTION ( 'NONE',  ( 0.000000000000000000, -1.000000000000000000, 0.000000000000000000 ) ) ;
#589 = ORIENTED_EDGE ( 'NONE', *, *, #828, .T. ) ;
#590 = VECTOR ( 'NONE', #334, 1000.000000000000000 ) ;
#591 = ORIENTED_EDGE ( 'NONE', *, *, #321, .F. ) ;
#592 = EDGE_CURVE ( 'NONE', #613, #39, #15, .T. ) ;
#593 = LINE ( 'NONE', #847, #352 ) ;
#594 = CARTESIAN_POINT ( 'NONE',  ( 21.68896494447264445, 32.05272974956899645, 0.000000000000000000 ) ) ;
#595 = EDGE_LOOP ( 'NONE', ( #963 ) ) ;
#596 = CARTESIAN_POINT ( 'NONE',  ( 22.84340154073199969, 36.57646444495800608, 87.05581423465299906 ) ) ;
#597 = EDGE_CURVE ( 'NONE', #1036, #440, #699, .T. ) ;
#598 = ADVANCED_FACE ( 'NONE', ( #712 ), #276, .T. ) ;
#599 = DIRECTION ( 'NONE',  ( 0.000000000000000000, -1.000000000000000000, 0.000000000000000000 ) ) ;
#600 = ORIENTED_EDGE ( 'NONE', *, *, #708, .T. ) ;
#601 = EDGE_CURVE ( 'NONE', #470, #613, #51, .T. ) ;
#602 = VECTOR ( 'NONE', #581, 1000.000000000000000 ) ;
#603 = CARTESIAN_POINT ( 'NONE',  ( 21.44413630097600176, 32.66401333837300314, -7.105427357600998703E-15 ) ) ;
#604 = EDGE_LOOP ( 'NONE', ( #792 ) ) ;
#605 = ORIENTED_EDGE ( 'NONE', *, *, #899, .T. ) ;
#606 = ADVANCED_FACE ( 'NONE', ( #894, #283 ), #952, .T. ) ;
#607 = DIRECTION ( 'NONE',  ( 0.000000000000000000, 0.000000000000000000, -1.000000000000000000 ) ) ;
#608 = LINE ( 'NONE', #844, #351 ) ;
#609 = EDGE_LOOP ( 'NONE', ( #185 ) ) ;
#610 = ORIENTED_EDGE ( 'NONE', *, *, #617, .F. ) ;
#611 = DIRECTION ( 'NONE',  ( 0.000000000000000000, 0.000000000000000000, -1.000000000000000000 ) ) ;
#612 = DIRECTION ( 'NONE',  ( -0.7027082112011940884, 0.000000000000000000, -0.7114781584211971044 ) ) ;
#613 = VERTEX_POINT ( 'NONE', #865 ) ;
#614 = CARTESIAN_POINT ( 'NONE',  ( 54.15950897690999710, 3.949217663616999552, 13.06325099840799986 ) ) ;
#615 = EDGE_LOOP ( 'NONE', ( #443 ) ) ;
#616 = CARTESIAN_POINT ( 'NONE',  ( 25.35076175489299999, 0.000000000000000000, 11.23613563874099874 ) ) ;
#617 = EDGE_CURVE ( 'NONE', #41, #913, #450, .T. ) ;
#618 = CARTESIAN_POINT ( 'NONE',  ( 21.44413630097600176, 32.05272974956899645, 0.000000000000000000 ) ) ;
#619 = VERTEX_POINT ( 'NONE', #627 ) ;
#620 = CARTESIAN_POINT ( 'NONE',  ( 54.15950897690999710, 36.57646444495800608, 25.24341662187899615 ) ) ;
#621 = EDGE_LOOP ( 'NONE', ( #330, #180, #418, #246, #662, #69 ) ) ;
#622 = AXIS2_PLACEMENT_3D ( 'NONE', #32, #696, #686 ) ;
#623 = CARTESIAN_POINT ( 'NONE',  ( 0.000000000000000000, 3.697442486162000108, 36.90785687973399831 ) ) ;
#624 = ADVANCED_FACE ( 'NONE', ( #958 ), #201, .F. ) ;
#625 = DIRECTION ( 'NONE',  ( 0.000000000000000000, 1.000000000000000000, 0.000000000000000000 ) ) ;
#626 = PLANE ( 'NONE',  #968 ) ;
#627 = CARTESIAN_POINT ( 'NONE',  ( 22.03520493256300128, 32.05272974956899645, -7.105427357600998703E-15 ) ) ;
#628 = VERTEX_POINT ( 'NONE', #291 ) ;
#629 = CARTESIAN_POINT ( 'NONE',  ( 54.15950897690999710, 0.000000000000000000, 0.000000000000000000 ) ) ;
#630 = CARTESIAN_POINT ( 'NONE',  ( 54.15950897690999710, 36.57646444495800608, 25.24341662187899615 ) ) ;
#631 = DIRECTION ( 'NONE',  ( -0.2648040538299321067, 0.000000000000000000, 0.9643022415587523266 ) ) ;
#632 = DIRECTION ( 'NONE',  ( -0.000000000000000000, 1.000000000000000000, 0.000000000000000000 ) ) ;
#633 = VECTOR ( 'NONE', #135, 1000.000000000000000 ) ;
#634 = ORIENTED_EDGE ( 'NONE', *, *, #497, .T. ) ;
#635 = AXIS2_PLACEMENT_3D ( 'NONE', #68, #399, #733 ) ;
#636 = DIRECTION ( 'NONE',  ( 0.000000000000000000, 0.2550407235048640642, -0.9669303125634831630 ) ) ;
#637 = DIRECTION ( 'NONE',  ( -0.9866577452091637168, 0.000000000000000000, -0.1628081503450269918 ) ) ;
#638 = DIRECTION ( 'NONE',  ( -0.000000000000000000, 1.000000000000000000, 0.000000000000000000 ) ) ;
#639 = ORIENTED_EDGE ( 'NONE', *, *, #431, .F. ) ;
#640 = VECTOR ( 'NONE', #169, 1000.000000000000114 ) ;
#641 = FACE_OUTER_BOUND ( 'NONE', #374, .T. ) ;
#642 = DIRECTION ( 'NONE',  ( -0.9643022415587524376, 0.000000000000000000, -0.2648040538299321622 ) ) ;
#643 = CARTESIAN_POINT ( 'NONE',  ( 20.95563763046300210, 1.848721243081000054, 87.05581423465299906 ) ) ;
#644 = VERTEX_POINT ( 'NONE', #643 ) ;
#645 = CARTESIAN_POINT ( 'NONE',  ( 54.15950897690999710, 25.39444305060099794, 25.24341662187899615 ) ) ;
#646 = LINE ( 'NONE', #71, #372 ) ;
#647 = CYLINDRICAL_SURFACE ( 'NONE', #918, 1.000000000000000888 ) ;
#648 = EDGE_LOOP ( 'NONE', ( #224 ) ) ;
#649 = EDGE_CURVE ( 'NONE', #105, #506, #916, .T. ) ;
#650 = CARTESIAN_POINT ( 'NONE',  ( 20.34995255421000238, 22.55259108765200082, 12.54291493943200031 ) ) ;
#651 = AXIS2_PLACEMENT_3D ( 'NONE', #554, #469, #223 ) ;
#652 = CARTESIAN_POINT ( 'NONE',  ( 54.15950897690999710, 3.949217663616999552, 12.67882892618100144 ) ) ;
#653 = DIRECTION ( 'NONE',  ( 0.000000000000000000, 0.000000000000000000, 1.000000000000000000 ) ) ;
#654 = ORIENTED_EDGE ( 'NONE', *, *, #298, .F. ) ;
#655 = AXIS2_PLACEMENT_3D ( 'NONE', #727, #1083, #138 ) ;
#656 = PLANE ( 'NONE',  #793 ) ;
#657 = DIRECTION ( 'NONE',  ( 0.000000000000000000, -1.000000000000000000, 0.000000000000000000 ) ) ;
#658 = CARTESIAN_POINT ( 'NONE',  ( 0.000000000000000000, 0.000000000000000000, 0.000000000000000000 ) ) ;
#659 = VERTEX_POINT ( 'NONE', #912 ) ;
#660 = FACE_OUTER_BOUND ( 'NONE', #217, .T. ) ;
#661 = DIRECTION ( 'NONE',  ( 0.000000000000000000, 0.000000000000000000, -1.000000000000000000 ) ) ;
#662 = ORIENTED_EDGE ( 'NONE', *, *, #764, .T. ) ;
#663 = ORIENTED_EDGE ( 'NONE', *, *, #72, .F. ) ;
#664 = ADVANCED_FACE ( 'NONE', ( #583 ), #814, .T. ) ;
#665 = CARTESIAN_POINT ( 'NONE',  ( 0.000000000000000000, 3.697442486162000108, 84.94229447748301709 ) ) ;
#666 = DIRECTION ( 'NONE',  ( -1.000000000000000000, 0.000000000000000000, 0.000000000000000000 ) ) ;
#667 = EDGE_CURVE ( 'NONE', #231, #231, #1058, .T. ) ;
#668 = ORIENTED_EDGE ( 'NONE', *, *, #780, .T. ) ;
#669 = DIRECTION ( 'NONE',  ( 1.000000000000000000, 0.000000000000000000, 0.000000000000000000 ) ) ;
#670 = CARTESIAN_POINT ( 'NONE',  ( 12.05343597316399951, 0.000000000000000000, 87.05581423465299906 ) ) ;
#671 = AXIS2_PLACEMENT_3D ( 'NONE', #45, #358, #353 ) ;
#672 = ORIENTED_EDGE ( 'NONE', *, *, #14, .T. ) ;
#673 = EDGE_CURVE ( 'NONE', #812, #812, #582, .T. ) ;
#674 = EDGE_CURVE ( 'NONE', #324, #324, #829, .T. ) ;
#675 = PLANE ( 'NONE',  #81 ) ;
#676 = CARTESIAN_POINT ( 'NONE',  ( 0.000000000000000000, 0.000000000000000000, 0.000000000000000000 ) ) ;
#677 = DIRECTION ( 'NONE',  ( 0.000000000000000000, -1.000000000000000000, 0.000000000000000000 ) ) ;
#678 = EDGE_LOOP ( 'NONE', ( #524, #455, #406, #476 ) ) ;
#679 = LINE ( 'NONE', #140, #76 ) ;
#680 = DIRECTION ( 'NONE',  ( 0.1628081503450269918, 0.000000000000000000, -0.9866577452091638278 ) ) ;
#681 = VECTOR ( 'NONE', #233, 1000.000000000000114 ) ;
#682 = EDGE_LOOP ( 'NONE', ( #1002, #585, #17, #57 ) ) ;
#683 = VECTOR ( 'NONE', #129, 1000.000000000000000 ) ;
#684 = ADVANCED_FACE ( 'NONE', ( #156, #166 ), #647, .F. ) ;
#685 = ORIENTED_EDGE ( 'NONE', *, *, #88, .F. ) ;
#686 = DIRECTION ( 'NONE',  ( 1.000000000000000000, 0.000000000000000000, 0.000000000000000000 ) ) ;
#687 = VECTOR ( 'NONE', #975, 1000.000000000000000 ) ;
#688 = CARTESIAN_POINT ( 'NONE',  ( 22.03520493256300128, 25.96596522728800238, 25.39416319332000072 ) ) ;
#689 = ORIENTED_EDGE ( 'NONE', *, *, #649, .T. ) ;
#690 = ORIENTED_EDGE ( 'NONE', *, *, #121, .F. ) ;
#691 = DIRECTION ( 'NONE',  ( -0.2648040538299321067, 0.000000000000000000, 0.9643022415587523266 ) ) ;
#692 = CARTESIAN_POINT ( 'NONE',  ( 12.05343597316399951, 3.697442486162000108, 84.94229447748301709 ) ) ;
#693 = ORIENTED_EDGE ( 'NONE', *, *, #25, .F. ) ;
#694 = ORIENTED_EDGE ( 'NONE', *, *, #1076, .F. ) ;
#695 = EDGE_CURVE ( 'NONE', #41, #1092, #241, .T. ) ;
#696 = DIRECTION ( 'NONE',  ( 0.000000000000000000, 0.000000000000000000, 1.000000000000000000 ) ) ;
#697 = PLANE ( 'NONE',  #282 ) ;
#698 = ORIENTED_EDGE ( 'NONE', *, *, #232, .T. ) ;
#699 = LINE ( 'NONE', #804, #973 ) ;
#700 = ORIENTED_EDGE ( 'NONE', *, *, #673, .F. ) ;
#701 = EDGE_CURVE ( 'NONE', #778, #659, #826, .T. ) ;
#702 = CARTESIAN_POINT ( 'NONE',  ( 21.44413630097600176, 32.43418983264800204, 13.87497480717900089 ) ) ;
#703 = CIRCLE ( 'NONE', #42, 2.936163869889998779 ) ;
#704 = LINE ( 'NONE', #1038, #446 ) ;
#705 = ORIENTED_EDGE ( 'NONE', *, *, #981, .F. ) ;
#706 = DIRECTION ( 'NONE',  ( 1.000000000000000000, 0.000000000000000000, 0.000000000000000000 ) ) ;
#707 = VERTEX_POINT ( 'NONE', #391 ) ;
#708 = EDGE_CURVE ( 'NONE', #644, #976, #1001, .T. ) ;
#709 = DIRECTION ( 'NONE',  ( 1.000000000000000000, 0.000000000000000000, 0.000000000000000000 ) ) ;
#710 = CARTESIAN_POINT ( 'NONE',  ( 12.05343597316399951, 3.697442486162000108, 87.05581423465299906 ) ) ;
#711 = CARTESIAN_POINT ( 'NONE',  ( 11.39482598701100002, 36.57646444495800608, 16.67038952124199724 ) ) ;
#712 = FACE_OUTER_BOUND ( 'NONE', #267, .T. ) ;
#713 = ORIENTED_EDGE ( 'NONE', *, *, #789, .T. ) ;
#714 = DIRECTION ( 'NONE',  ( -3.904168633595000114E-30, 1.000000000000000000, -1.952084316797000144E-30 ) ) ;
#715 = PLANE ( 'NONE',  #131 ) ;
#716 = LINE ( 'NONE', #480, #160 ) ;
#717 = FACE_BOUND ( 'NONE', #595, .T. ) ;
#718 = CLOSED_SHELL ( 'NONE', ( #664, #994, #606, #843, #3, #173, #315, #598, #310, #537, #739, #1041, #332, #398, #43, #426, #96, #236, #684, #369, #1088, #365, #992, #285, #823, #67, #876, #777, #720, #986, #115, #518, #732, #487, #546, #526, #871, #93, #624 ) ) ;
#719 = ORIENTED_EDGE ( 'NONE', *, *, #855, .F. ) ;
#720 = ADVANCED_FACE ( 'NONE', ( #61 ), #1085, .T. ) ;
#721 = VECTOR ( 'NONE', #237, 1000.000000000000000 ) ;
#722 = DIRECTION ( 'NONE',  ( 0.2528240831370656139, 0.000000000000000000, 0.9675122650312513173 ) ) ;
#723 = VERTEX_POINT ( 'NONE', #989 ) ;
#724 = LINE ( 'NONE', #1065, #909 ) ;
#725 = CARTESIAN_POINT ( 'NONE',  ( 0.000000000000000000, 0.000000000000000000, 0.000000000000000000 ) ) ;
#726 = EDGE_LOOP ( 'NONE', ( #886, #278, #944, #304 ) ) ;
#727 = CARTESIAN_POINT ( 'NONE',  ( 44.73532679033600346, 3.949217663616999552, 13.06325099840799986 ) ) ;
#728 = VECTOR ( 'NONE', #187, 1000.000000000000114 ) ;
#729 = AXIS2_PLACEMENT_3D ( 'NONE', #688, #344, #666 ) ;
#730 = DIRECTION ( 'NONE',  ( -0.9866577452091637168, 0.000000000000000000, -0.1628081503450269918 ) ) ;
#731 = CARTESIAN_POINT ( 'NONE',  ( 20.95563763046300210, 1.848721243081000054, 84.94229447748301709 ) ) ;
#732 = ADVANCED_FACE ( 'NONE', ( #1074, #307 ), #500, .T. ) ;
#733 = DIRECTION ( 'NONE',  ( 1.000000000000000000, 0.000000000000000000, 0.000000000000000000 ) ) ;
#734 = ORIENTED_EDGE ( 'NONE', *, *, #510, .T. ) ;
#735 = LINE ( 'NONE', #305, #133 ) ;
#736 = LINE ( 'NONE', #915, #428 ) ;
#737 = DIRECTION ( 'NONE',  ( 0.7114781584211971044, 0.000000000000000000, -0.7027082112011940884 ) ) ;
#738 = ORIENTED_EDGE ( 'NONE', *, *, #884, .T. ) ;
#739 = ADVANCED_FACE ( 'NONE', ( #921 ), #809, .F. ) ;
#740 = LINE ( 'NONE', #58, #687 ) ;
#741 = VECTOR ( 'NONE', #971, 1000.000000000000000 ) ;
#742 = DIRECTION ( 'NONE',  ( 0.9643022415587524376, 0.000000000000000000, 0.2648040538299321622 ) ) ;
#743 = CARTESIAN_POINT ( 'NONE',  ( 54.15950897690999710, 0.000000000000000000, 0.000000000000000000 ) ) ;
#744 = ORIENTED_EDGE ( 'NONE', *, *, #378, .F. ) ;
#745 = PRODUCT ( '20260414_160844_76', '20260414_160844_76', '', ( #165 ) ) ;
#746 = CIRCLE ( 'NONE', #27, 2.412165745313998855 ) ;
#747 = CARTESIAN_POINT ( 'NONE',  ( 17.65017719818199993, 36.57646444495800608, 24.08542065393000087 ) ) ;
#748 = CARTESIAN_POINT ( 'NONE',  ( 54.15950897690999710, 0.000000000000000000, 0.000000000000000000 ) ) ;
#749 = LINE ( 'NONE', #354, #212 ) ;
#750 = EDGE_LOOP ( 'NONE', ( #933, #436, #528, #810, #108, #489 ) ) ;
#751 = CARTESIAN_POINT ( 'NONE',  ( 0.000000000000000000, 0.000000000000000000, 0.000000000000000000 ) ) ;
#752 = LINE ( 'NONE', #1025, #970 ) ;
#753 = EDGE_LOOP ( 'NONE', ( #271, #270, #422, #85, #772, #690, #24 ) ) ;
#754 = LINE ( 'NONE', #930, #887 ) ;
#755 = APPLICATION_PROTOCOL_DEFINITION ( 'draft international standard', 'automotive_design', 1998, #1057 ) ;
#756 = CARTESIAN_POINT ( 'NONE',  ( 8.089145956243999791, 36.57646444495800608, 9.801553345498000169 ) ) ;
#757 = EDGE_LOOP ( 'NONE', ( #335, #672, #947, #1060 ) ) ;
#758 = AXIS2_PLACEMENT_3D ( 'NONE', #558, #563, #155 ) ;
#759 = LINE ( 'NONE', #1011, #412 ) ;
#760 = FACE_OUTER_BOUND ( 'NONE', #555, .T. ) ;
#761 = VECTOR ( 'NONE', #447, 1000.000000000000227 ) ;
#762 = ORIENTED_EDGE ( 'NONE', *, *, #13, .F. ) ;
#763 = DIRECTION ( 'NONE',  ( 1.000000000000000000, 0.000000000000000000, 0.000000000000000000 ) ) ;
#764 = EDGE_CURVE ( 'NONE', #778, #1015, #1080, .T. ) ;
#765 = CARTESIAN_POINT ( 'NONE',  ( 0.000000000000000000, 36.57646444495800608, 36.90785687973399831 ) ) ;
#766 = ORIENTED_EDGE ( 'NONE', *, *, #695, .T. ) ;
#767 = EDGE_LOOP ( 'NONE', ( #985, #196, #265 ) ) ;
#768 = DIRECTION ( 'NONE',  ( 1.000000000000000000, 0.000000000000000000, 0.000000000000000000 ) ) ;
#769 = VECTOR ( 'NONE', #222, 1000.000000000000114 ) ;
#770 = LINE ( 'NONE', #1030, #402 ) ;
#771 = VECTOR ( 'NONE', #434, 1000.000000000000000 ) ;
#772 = ORIENTED_EDGE ( 'NONE', *, *, #87, .T. ) ;
#773 = ORIENTED_EDGE ( 'NONE', *, *, #206, .F. ) ;
#774 = LINE ( 'NONE', #368, #396 ) ;
#775 =( LENGTH_UNIT ( ) NAMED_UNIT ( * ) SI_UNIT ( .MILLI., .METRE. ) );
#776 = ORIENTED_EDGE ( 'NONE', *, *, #860, .T. ) ;
#777 = ADVANCED_FACE ( 'NONE', ( #579 ), #574, .F. ) ;
#778 = VERTEX_POINT ( 'NONE', #658 ) ;
#779 = PLANE ( 'NONE',  #432 ) ;
#780 = EDGE_CURVE ( 'NONE', #371, #39, #833, .T. ) ;
#781 = FILL_AREA_STYLE_COLOUR ( '', #1070 ) ;
#782 = EDGE_LOOP ( 'NONE', ( #895 ) ) ;
#783 = EDGE_CURVE ( 'NONE', #1092, #371, #749, .T. ) ;
#784 = DIRECTION ( 'NONE',  ( 0.9791098785232121848, 0.2033318611980440560, 0.000000000000000000 ) ) ;
#785 = ORIENTED_EDGE ( 'NONE', *, *, #8, .T. ) ;
#786 = LINE ( 'NONE', #868, #761 ) ;
#787 = FACE_OUTER_BOUND ( 'NONE', #788, .T. ) ;
#788 = EDGE_LOOP ( 'NONE', ( #951, #449, #511, #540 ) ) ;
#789 = EDGE_CURVE ( 'NONE', #913, #48, #608, .T. ) ;
#790 = CARTESIAN_POINT ( 'NONE',  ( 0.000000000000000000, 0.000000000000000000, 0.000000000000000000 ) ) ;
#791 = EDGE_CURVE ( 'NONE', #628, #95, #752, .T. ) ;
#792 = ORIENTED_EDGE ( 'NONE', *, *, #340, .T. ) ;
#793 = AXIS2_PLACEMENT_3D ( 'NONE', #790, #638, #456 ) ;
#794 = LINE ( 'NONE', #954, #535 ) ;
#795 = VECTOR ( 'NONE', #1034, 1000.000000000000000 ) ;
#796 = FACE_OUTER_BOUND ( 'NONE', #349, .T. ) ;
#797 = AXIS2_PLACEMENT_3D ( 'NONE', #800, #381, #967 ) ;
#798 = CARTESIAN_POINT ( 'NONE',  ( 17.65017719818199993, 27.55178918431199975, 24.08542065393000087 ) ) ;
#799 = ORIENTED_EDGE ( 'NONE', *, *, #393, .F. ) ;
#800 = CARTESIAN_POINT ( 'NONE',  ( 11.39482598701100002, 36.57646444495800608, 16.67038952124199724 ) ) ;
#801 = CARTESIAN_POINT ( 'NONE',  ( 18.91105434092300186, 36.57646444495800608, 22.00987306486899797 ) ) ;
#802 = FACE_OUTER_BOUND ( 'NONE', #750, .T. ) ;
#803 = EDGE_CURVE ( 'NONE', #484, #484, #1023, .T. ) ;
#804 = CARTESIAN_POINT ( 'NONE',  ( 24.66641149049100079, 0.000000000000000000, 13.72824436754900113 ) ) ;
#805 = ORIENTED_EDGE ( 'NONE', *, *, #478, .F. ) ;
#806 = CARTESIAN_POINT ( 'NONE',  ( 24.66641149049100079, 0.000000000000000000, 13.72824436754900113 ) ) ;
#807 = LINE ( 'NONE', #982, #517 ) ;
#808 = DIRECTION ( 'NONE',  ( 0.000000000000000000, 1.000000000000000000, 0.000000000000000000 ) ) ;
#809 = PLANE ( 'NONE',  #247 ) ;
#810 = ORIENTED_EDGE ( 'NONE', *, *, #911, .T. ) ;
#811 = DIRECTION ( 'NONE',  ( 0.000000000000000000, 0.000000000000000000, -1.000000000000000000 ) ) ;
#812 = VERTEX_POINT ( 'NONE', #904 ) ;
#813 = DIRECTION ( 'NONE',  ( 0.000000000000000000, 0.2550407235048640642, -0.9669303125634831630 ) ) ;
#814 = PLANE ( 'NONE',  #263 ) ;
#815 = ORIENTED_EDGE ( 'NONE', *, *, #987, .T. ) ;
#816 = EDGE_CURVE ( 'NONE', #575, #238, #519, .T. ) ;
#817 = CARTESIAN_POINT ( 'NONE',  ( 16.32364466422500016, 36.57646444495800608, 21.58292523448599809 ) ) ;
#818 = VECTOR ( 'NONE', #861, 1000.000000000000114 ) ;
#819 = VERTEX_POINT ( 'NONE', #66 ) ;
#820 = CARTESIAN_POINT ( 'NONE',  ( 20.95563763046300210, 1.848721243081000054, 87.05581423465299906 ) ) ;
#821 = AXIS2_PLACEMENT_3D ( 'NONE', #851, #438, #1020 ) ;
#822 = ORIENTED_EDGE ( 'NONE', *, *, #474, .T. ) ;
#823 = ADVANCED_FACE ( 'NONE', ( #179 ), #1, .F. ) ;
#824 = DIRECTION ( 'NONE',  ( 0.000000000000000000, -1.000000000000000000, 0.000000000000000000 ) ) ;
#825 = CARTESIAN_POINT ( 'NONE',  ( 54.15950897690999710, 0.000000000000000000, 87.05581423465299906 ) ) ;
#826 = LINE ( 'NONE', #161, #721 ) ;
#827 = ORIENTED_EDGE ( 'NONE', *, *, #905, .T. ) ;
#828 = EDGE_CURVE ( 'NONE', #1036, #1010, #184, .T. ) ;
#829 = CIRCLE ( 'NONE', #857, 2.412165745313998855 ) ;
#830 = DIRECTION ( 'NONE',  ( -0.2528240831370656139, 0.000000000000000000, -0.9675122650312513173 ) ) ;
#831 = AXIS2_PLACEMENT_3D ( 'NONE', #614, #195, #533 ) ;
#832 =( LENGTH_UNIT ( ) NAMED_UNIT ( * ) SI_UNIT ( .MILLI., .METRE. ) );
#833 = LINE ( 'NONE', #79, #411 ) ;
#834 = VERTEX_POINT ( 'NONE', #264 ) ;
#835 = AXIS2_PLACEMENT_3D ( 'NONE', #49, #714, #316 ) ;
#836 = LINE ( 'NONE', #516, #178 ) ;
#837 = CARTESIAN_POINT ( 'NONE',  ( 22.16600689014999759, 22.55259108765200082, 14.38163401789399920 ) ) ;
#838 = EDGE_LOOP ( 'NONE', ( #827, #785, #33, #361 ) ) ;
#839 = DIRECTION ( 'NONE',  ( 0.000000000000000000, 1.000000000000000000, 0.000000000000000000 ) ) ;
#840 = FACE_OUTER_BOUND ( 'NONE', #566, .T. ) ;
#841 = ORIENTED_EDGE ( 'NONE', *, *, #1003, .F. ) ;
#842 = CARTESIAN_POINT ( 'NONE',  ( 22.16600689014999759, 0.000000000000000000, 14.38163401789399920 ) ) ;
#843 = ADVANCED_FACE ( 'NONE', ( #170, #760 ), #932, .T. ) ;
#844 = CARTESIAN_POINT ( 'NONE',  ( 21.44413630097600176, 36.57646444495800608, 25.24341662187899615 ) ) ;
#845 = EDGE_LOOP ( 'NONE', ( #331 ) ) ;
#846 = AXIS2_PLACEMENT_3D ( 'NONE', #676, #931, #250 ) ;
#847 = CARTESIAN_POINT ( 'NONE',  ( 21.03430281861199802, 0.000000000000000000, 10.05080621062400148 ) ) ;
#848 = DIRECTION ( 'NONE',  ( 0.7027082112011940884, 0.000000000000000000, 0.7114781584211971044 ) ) ;
#849 = EDGE_LOOP ( 'NONE', ( #380, #938, #610, #766, #534 ) ) ;
#850 = CARTESIAN_POINT ( 'NONE',  ( 22.84340154073199969, 36.57646444495800608, 87.05581423465299906 ) ) ;
#851 = CARTESIAN_POINT ( 'NONE',  ( 8.089145956243999791, 36.57646444495800608, 9.801553345498000169 ) ) ;
#852 = EDGE_LOOP ( 'NONE', ( #482 ) ) ;
#853 = ORIENTED_EDGE ( 'NONE', *, *, #8, .F. ) ;
#854 = LINE ( 'NONE', #1033, #1069 ) ;
#855 = EDGE_CURVE ( 'NONE', #834, #619, #386, .T. ) ;
#856 = DIRECTION ( 'NONE',  ( 1.000000000000000000, 0.000000000000000000, 0.000000000000000000 ) ) ;
#857 = AXIS2_PLACEMENT_3D ( 'NONE', #1005, #984, #481 ) ;
#858 = VERTEX_POINT ( 'NONE', #505 ) ;
#859 = VERTEX_POINT ( 'NONE', #837 ) ;
#860 = EDGE_CURVE ( 'NONE', #976, #30, #1014, .T. ) ;
#861 = DIRECTION ( 'NONE',  ( -0.4145378763799454913, 0.000000000000000000, -0.9100320593508808287 ) ) ;
#862 = CARTESIAN_POINT ( 'NONE',  ( 21.44413630097600176, 26.00572663940500107, 25.24341662187899615 ) ) ;
#863 = EDGE_LOOP ( 'NONE', ( #1032, #591, #532, #1093, #400, #109 ) ) ;
#864 = AXIS2_PLACEMENT_3D ( 'NONE', #198, #949, #607 ) ;
#865 = CARTESIAN_POINT ( 'NONE',  ( 46.75682163943399416, 36.57646444495800608, 87.05581423465299906 ) ) ;
#866 = AXIS2_PLACEMENT_3D ( 'NONE', #348, #16, #269 ) ;
#867 = EDGE_LOOP ( 'NONE', ( #700 ) ) ;
#868 = CARTESIAN_POINT ( 'NONE',  ( 24.66641149049100079, 22.55259108765200082, 13.72824436754900113 ) ) ;
#869 = AXIS2_PLACEMENT_3D ( 'NONE', #950, #113, #544 ) ;
#870 = EDGE_CURVE ( 'NONE', #326, #501, #942, .T. ) ;
#871 = ADVANCED_FACE ( 'NONE', ( #840 ), #429, .F. ) ;
#872 =( NAMED_UNIT ( * ) SI_UNIT ( $, .STERADIAN. ) SOLID_ANGLE_UNIT ( ) );
#873 = ORIENTED_EDGE ( 'NONE', *, *, #860, .F. ) ;
#874 = CARTESIAN_POINT ( 'NONE',  ( 0.000000000000000000, 0.000000000000000000, 0.000000000000000000 ) ) ;
#875 = VERTEX_POINT ( 'NONE', #765 ) ;
#876 = ADVANCED_FACE ( 'NONE', ( #89, #522 ), #1009, .F. ) ;
#877 = FACE_OUTER_BOUND ( 'NONE', #120, .T. ) ;
#878 = CARTESIAN_POINT ( 'NONE',  ( 12.05343597316399951, 0.000000000000000000, 84.94229447748301709 ) ) ;
#879 = CARTESIAN_POINT ( 'NONE',  ( 22.85035715455199679, 22.55259108765200082, 11.88952528908600037 ) ) ;
#880 = CARTESIAN_POINT ( 'NONE',  ( 25.35076175489299999, 0.000000000000000000, 11.23613563874099874 ) ) ;
#881 = EDGE_LOOP ( 'NONE', ( #31 ) ) ;
#882 = AXIS2_PLACEMENT_3D ( 'NONE', #751, #669, #249 ) ;
#883 = PLANE ( 'NONE',  #835 ) ;
#884 = EDGE_CURVE ( 'NONE', #159, #159, #254, .T. ) ;
#885 = FACE_OUTER_BOUND ( 'NONE', #615, .T. ) ;
#886 = ORIENTED_EDGE ( 'NONE', *, *, #197, .T. ) ;
#887 = VECTOR ( 'NONE', #999, 1000.000000000000000 ) ;
#888 = FACE_BOUND ( 'NONE', #99, .T. ) ;
#889 = ORIENTED_EDGE ( 'NONE', *, *, #277, .F. ) ;
#890 = PRODUCT_DEFINITION_CONTEXT ( 'detailed design', #1057, 'design' ) ;
#891 = PLANE ( 'NONE',  #655 ) ;
#892 =( NAMED_UNIT ( * ) SI_UNIT ( $, .STERADIAN. ) SOLID_ANGLE_UNIT ( ) );
#893 = CARTESIAN_POINT ( 'NONE',  ( 20.34995255421000238, 0.000000000000000000, 12.54291493943200031 ) ) ;
#894 = FACE_OUTER_BOUND ( 'NONE', #345, .T. ) ;
#895 = ORIENTED_EDGE ( 'NONE', *, *, #587, .F. ) ;
#896 = FACE_OUTER_BOUND ( 'NONE', #425, .T. ) ;
#897 = DIRECTION ( 'NONE',  ( 0.000000000000000000, 0.000000000000000000, 1.000000000000000000 ) ) ;
#898 = LINE ( 'NONE', #306, #445 ) ;
#899 = EDGE_CURVE ( 'NONE', #464, #628, #770, .T. ) ;
#900 = CARTESIAN_POINT ( 'NONE',  ( 8.089145956243999791, 36.57646444495800608, 9.801553345498000169 ) ) ;
#901 = ORIENTED_EDGE ( 'NONE', *, *, #393, .T. ) ;
#902 = CARTESIAN_POINT ( 'NONE',  ( 52.19841292788100162, 9.195327154023999583, 57.88986304797399640 ) ) ;
#903 = VECTOR ( 'NONE', #625, 1000.000000000000000 ) ;
#904 = CARTESIAN_POINT ( 'NONE',  ( 54.15950897690999710, 3.949217663616999552, 14.06325099840800164 ) ) ;
#905 = EDGE_CURVE ( 'NONE', #440, #62, #424, .T. ) ;
#906 = DIRECTION ( 'NONE',  ( 0.000000000000000000, -1.000000000000000000, 0.000000000000000000 ) ) ;
#907 = VERTEX_POINT ( 'NONE', #670 ) ;
#908 = DIRECTION ( 'NONE',  ( 1.000000000000000000, 0.000000000000000000, 0.000000000000000000 ) ) ;
#909 = VECTOR ( 'NONE', #60, 1000.000000000000000 ) ;
#910 = CARTESIAN_POINT ( 'NONE',  ( 25.35076175489299999, 0.000000000000000000, 11.23613563874099874 ) ) ;
#911 = EDGE_CURVE ( 'NONE', #859, #364, #213, .T. ) ;
#912 = CARTESIAN_POINT ( 'NONE',  ( 0.000000000000000000, 0.000000000000000000, 84.94229447748301709 ) ) ;
#913 = VERTEX_POINT ( 'NONE', #301 ) ;
#914 = PLANE ( 'NONE',  #882 ) ;
#915 = CARTESIAN_POINT ( 'NONE',  ( 18.91105434092300186, 36.57646444495800608, 22.00987306486899797 ) ) ;
#916 = LINE ( 'NONE', #329, #126 ) ;
#917 = EDGE_LOOP ( 'NONE', ( #738 ) ) ;
#918 = AXIS2_PLACEMENT_3D ( 'NONE', #997, #1067, #653 ) ;
#919 = CARTESIAN_POINT ( 'NONE',  ( 22.16600689014999759, 0.000000000000000000, 14.38163401789399920 ) ) ;
#920 = EDGE_CURVE ( 'NONE', #48, #707, #504, .T. ) ;
#921 = FACE_OUTER_BOUND ( 'NONE', #141, .T. ) ;
#922 = EDGE_LOOP ( 'NONE', ( #210, #146, #698, #258, #189, #320, #734, #805, #1035 ) ) ;
#923 = LINE ( 'NONE', #327, #940 ) ;
#924 = AXIS2_PLACEMENT_3D ( 'NONE', #28, #273, #611 ) ;
#925 =( GEOMETRIC_REPRESENTATION_CONTEXT ( 3 ) GLOBAL_UNCERTAINTY_ASSIGNED_CONTEXT ( ( #536 ) ) GLOBAL_UNIT_ASSIGNED_CONTEXT ( ( #775, #460, #872 ) ) REPRESENTATION_CONTEXT ( 'NONE', 'WORKASPACE' ) );
#926 = DIRECTION ( 'NONE',  ( 0.5191957193558500716, 0.000000000000000000, -0.8546553720667539045 ) ) ;
#927 = ORIENTED_EDGE ( 'NONE', *, *, #206, .T. ) ;
#928 = VERTEX_POINT ( 'NONE', #125 ) ;
#929 = EDGE_CURVE ( 'NONE', #907, #965, #704, .T. ) ;
#930 = CARTESIAN_POINT ( 'NONE',  ( 0.000000000000000000, 0.000000000000000000, 87.05581423465299906 ) ) ;
#931 = DIRECTION ( 'NONE',  ( 0.000000000000000000, 0.000000000000000000, 1.000000000000000000 ) ) ;
#932 = CYLINDRICAL_SURFACE ( 'NONE', #203, 2.152909607110000234 ) ;
#933 = ORIENTED_EDGE ( 'NONE', *, *, #791, .T. ) ;
#934 = DIRECTION ( 'NONE',  ( 0.4683515093490820402, 0.000000000000000000, 0.8835422251881551725 ) ) ;
#935 = VECTOR ( 'NONE', #784, 1000.000000000000114 ) ;
#936 = EDGE_CURVE ( 'NONE', #819, #819, #343, .T. ) ;
#937 = CARTESIAN_POINT ( 'NONE',  ( 11.39482598701100002, 0.000000000000000000, 16.67038952124199724 ) ) ;
#938 = ORIENTED_EDGE ( 'NONE', *, *, #789, .F. ) ;
#939 =( GEOMETRIC_REPRESENTATION_CONTEXT ( 3 ) GLOBAL_UNCERTAINTY_ASSIGNED_CONTEXT ( ( #44 ) ) GLOBAL_UNIT_ASSIGNED_CONTEXT ( ( #832, #78, #892 ) ) REPRESENTATION_CONTEXT ( 'NONE', 'WORKASPACE' ) );
#940 = VECTOR ( 'NONE', #336, 1000.000000000000000 ) ;
#941 = CARTESIAN_POINT ( 'NONE',  ( 25.35076175489299999, 22.55259108765200082, 11.23613563874099874 ) ) ;
#942 = LINE ( 'NONE', #98, #112 ) ;
#943 = ORIENTED_EDGE ( 'NONE', *, *, #87, .F. ) ;
#944 = ORIENTED_EDGE ( 'NONE', *, *, #567, .F. ) ;
#945 = DIRECTION ( 'NONE',  ( -0.1189108507689610600, 0.000000000000000000, 0.9929049348096734562 ) ) ;
#946 = CARTESIAN_POINT ( 'NONE',  ( 17.65017719818199993, 27.55178918431199975, 24.08542065393000087 ) ) ;
#947 = ORIENTED_EDGE ( 'NONE', *, *, #272, .F. ) ;
#948 = ORIENTED_EDGE ( 'NONE', *, *, #14, .F. ) ;
#949 = DIRECTION ( 'NONE',  ( 0.000000000000000000, -1.000000000000000000, 0.000000000000000000 ) ) ;
#950 = CARTESIAN_POINT ( 'NONE',  ( 8.089145956243999791, 24.15876562595000010, 9.801553345498000169 ) ) ;
#951 = ORIENTED_EDGE ( 'NONE', *, *, #192, .T. ) ;
#952 = CYLINDRICAL_SURFACE ( 'NONE', #831, 0.3844220722269992563 ) ;
#953 = ORIENTED_EDGE ( 'NONE', *, *, #13, .T. ) ;
#954 = CARTESIAN_POINT ( 'NONE',  ( 46.75682163943399416, 9.195327154023999583, 87.05581423465299906 ) ) ;
#955 = SURFACE_STYLE_FILL_AREA ( #448 ) ;
#956 = ORIENTED_EDGE ( 'NONE', *, *, #966, .T. ) ;
#957 = AXIS2_PLACEMENT_3D ( 'NONE', #711, #808, #144 ) ;
#958 = FACE_OUTER_BOUND ( 'NONE', #430, .T. ) ;
#959 = ORIENTED_EDGE ( 'NONE', *, *, #453, .F. ) ;
#960 = FACE_OUTER_BOUND ( 'NONE', #852, .T. ) ;
#961 = PRESENTATION_LAYER_ASSIGNMENT (  '', '', ( #1016 ) ) ;
#962 = PLANE ( 'NONE',  #92 ) ;
#963 = ORIENTED_EDGE ( 'NONE', *, *, #340, .F. ) ;
#964 = CARTESIAN_POINT ( 'NONE',  ( 54.15950897690999710, 25.39444305060099794, 25.24341662187899615 ) ) ;
#965 = VERTEX_POINT ( 'NONE', #878 ) ;
#966 = EDGE_CURVE ( 'NONE', #12, #30, #119, .T. ) ;
#967 = DIRECTION ( 'NONE',  ( 0.000000000000000000, 0.000000000000000000, 1.000000000000000000 ) ) ;
#968 = AXIS2_PLACEMENT_3D ( 'NONE', #879, #461, #227 ) ;
#969 = LINE ( 'NONE', #473, #288 ) ;
#970 = VECTOR ( 'NONE', #848, 1000.000000000000000 ) ;
#971 = DIRECTION ( 'NONE',  ( 1.000000000000000000, 0.000000000000000000, 0.000000000000000000 ) ) ;
#972 = ORIENTED_EDGE ( 'NONE', *, *, #791, .F. ) ;
#973 = VECTOR ( 'NONE', #1040, 1000.000000000000227 ) ;
#974 = MANIFOLD_SOLID_BREP ( 'Open CASCADE STEP translator 7.5 13[1]', #718 ) ;
#975 = DIRECTION ( 'NONE',  ( 0.000000000000000000, 1.000000000000000000, 0.000000000000000000 ) ) ;
#976 = VERTEX_POINT ( 'NONE', #710 ) ;
#977 = AXIS2_PLACEMENT_3D ( 'NONE', #902, #490, #908 ) ;
#978 = CARTESIAN_POINT ( 'NONE',  ( 54.15950897690999710, 32.05272974956899645, 0.000000000000000000 ) ) ;
#979 = VERTEX_POINT ( 'NONE', #801 ) ;
#980 = FACE_OUTER_BOUND ( 'NONE', #1006, .T. ) ;
#981 = EDGE_CURVE ( 'NONE', #928, #628, #188, .T. ) ;
#982 = CARTESIAN_POINT ( 'NONE',  ( 20.34995255421000238, 0.000000000000000000, 12.54291493943200031 ) ) ;
#983 = CYLINDRICAL_SURFACE ( 'NONE', #957, 3.203576843338999058 ) ;
#984 = DIRECTION ( 'NONE',  ( 0.000000000000000000, -1.000000000000000000, 0.000000000000000000 ) ) ;
#985 = ORIENTED_EDGE ( 'NONE', *, *, #1061, .F. ) ;
#986 = ADVANCED_FACE ( 'NONE', ( #363 ), #697, .F. ) ;
#987 = EDGE_CURVE ( 'NONE', #834, #314, #527, .T. ) ;
#988 = CARTESIAN_POINT ( 'NONE',  ( 0.000000000000000000, 36.57646444495800608, 0.000000000000000000 ) ) ;
#989 = CARTESIAN_POINT ( 'NONE',  ( 7.328125174019000099, 0.000000000000000000, 44.01485415199199736 ) ) ;
#990 = DIRECTION ( 'NONE',  ( 1.000000000000000000, 0.000000000000000000, 0.000000000000000000 ) ) ;
#991 = EDGE_LOOP ( 'NONE', ( #1048 ) ) ;
#992 = ADVANCED_FACE ( 'NONE', ( #787 ), #715, .F. ) ;
#993 = CARTESIAN_POINT ( 'NONE',  ( 54.15950897690999710, 9.195327154023999583, 25.24341662187899615 ) ) ;
#994 = ADVANCED_FACE ( 'NONE', ( #885 ), #962, .T. ) ;
#995 = AXIS2_PLACEMENT_3D ( 'NONE', #910, #742, #657 ) ;
#996 = CARTESIAN_POINT ( 'NONE',  ( 8.089145956243999791, 24.15876562595000010, 12.73771721538799895 ) ) ;
#997 = CARTESIAN_POINT ( 'NONE',  ( 54.15950897690999710, 3.949217663616999552, 13.06325099840799986 ) ) ;
#998 = ORIENTED_EDGE ( 'NONE', *, *, #905, .F. ) ;
#999 = DIRECTION ( 'NONE',  ( 1.000000000000000000, 0.000000000000000000, 0.000000000000000000 ) ) ;
#1000 = CARTESIAN_POINT ( 'NONE',  ( 8.089145956243999791, 24.15876562595000010, 9.801553345498000169 ) ) ;
#1001 = LINE ( 'NONE', #820, #681 ) ;
#1002 = ORIENTED_EDGE ( 'NONE', *, *, #597, .T. ) ;
#1003 = EDGE_CURVE ( 'NONE', #30, #506, #107, .T. ) ;
#1004 = CARTESIAN_POINT ( 'NONE',  ( 21.03430281861199802, 0.000000000000000000, 10.05080621062400148 ) ) ;
#1005 = CARTESIAN_POINT ( 'NONE',  ( 7.328125174019000099, 2.419202088156000574, 46.42701989730599621 ) ) ;
#1006 = EDGE_LOOP ( 'NONE', ( #520 ) ) ;
#1007 = AXIS2_PLACEMENT_3D ( 'NONE', #492, #417, #413 ) ;
#1008 = CARTESIAN_POINT ( 'NONE',  ( 22.84340154073199969, 3.697442486162000108, 87.05581423465299906 ) ) ;
#1009 = CYLINDRICAL_SURFACE ( 'NONE', #866, 2.936163869889998779 ) ;
#1010 = VERTEX_POINT ( 'NONE', #150 ) ;
#1011 = CARTESIAN_POINT ( 'NONE',  ( 22.84340154073199969, 36.57646444495800608, 87.05581423465299906 ) ) ;
#1012 = VECTOR ( 'NONE', #53, 1000.000000000000000 ) ;
#1013 = EDGE_CURVE ( 'NONE', #858, #464, #646, .T. ) ;
#1014 = LINE ( 'NONE', #421, #590 ) ;
#1015 = VERTEX_POINT ( 'NONE', #748 ) ;
#1016 = STYLED_ITEM ( 'NONE', ( #37 ), #974 ) ;
#1017 = LINE ( 'NONE', #158, #602 ) ;
#1018 = EDGE_CURVE ( 'NONE', #62, #858, #807, .T. ) ;
#1019 = SHAPE_DEFINITION_REPRESENTATION ( #243, #1063 ) ;
#1020 = DIRECTION ( 'NONE',  ( 0.000000000000000000, 0.000000000000000000, 1.000000000000000000 ) ) ;
#1021 = EDGE_LOOP ( 'NONE', ( #927, #589, #663, #744 ) ) ;
#1022 = FACE_OUTER_BOUND ( 'NONE', #1075, .T. ) ;
#1023 = CIRCLE ( 'NONE', #498, 3.203576843338999058 ) ;
#1024 = AXIS2_PLACEMENT_3D ( 'NONE', #964, #209, #547 ) ;
#1025 = CARTESIAN_POINT ( 'NONE',  ( 23.53470741895400309, 22.55259108765200082, 9.397416560277999764 ) ) ;
#1026 = EDGE_LOOP ( 'NONE', ( #281 ) ) ;
#1027 = ORIENTED_EDGE ( 'NONE', *, *, #1003, .T. ) ;
#1028 = VECTOR ( 'NONE', #839, 1000.000000000000000 ) ;
#1029 = CARTESIAN_POINT ( 'NONE',  ( 22.84340154073199969, 3.697442486162000108, 87.05581423465299906 ) ) ;
#1030 = CARTESIAN_POINT ( 'NONE',  ( 23.53470741895400309, 0.000000000000000000, 9.397416560277999764 ) ) ;
#1031 = VERTEX_POINT ( 'NONE', #825 ) ;
#1032 = ORIENTED_EDGE ( 'NONE', *, *, #232, .F. ) ;
#1033 = CARTESIAN_POINT ( 'NONE',  ( 21.44413630097600176, 36.57646444495800608, 0.000000000000000000 ) ) ;
#1034 = DIRECTION ( 'NONE',  ( -1.000000000000000000, 0.000000000000000000, 0.000000000000000000 ) ) ;
#1035 = ORIENTED_EDGE ( 'NONE', *, *, #708, .F. ) ;
#1036 = VERTEX_POINT ( 'NONE', #404 ) ;
#1037 = PLANE ( 'NONE',  #671 ) ;
#1038 = CARTESIAN_POINT ( 'NONE',  ( 12.05343597316399951, 0.000000000000000000, 87.05581423465299906 ) ) ;
#1039 = EDGE_LOOP ( 'NONE', ( #901, #689, #841, #873, #514 ) ) ;
#1040 = DIRECTION ( 'NONE',  ( -0.9675122650312512063, 0.000000000000000000, 0.2528240831370655584 ) ) ;
#1041 = ADVANCED_FACE ( 'NONE', ( #389 ), #226, .F. ) ;
#1042 = ORIENTED_EDGE ( 'NONE', *, *, #884, .F. ) ;
#1043 = CIRCLE ( 'NONE', #758, 1.000000000000000888 ) ;
#1044 = CARTESIAN_POINT ( 'NONE',  ( 0.000000000000000000, 36.57646444495800608, 0.000000000000000000 ) ) ;
#1045 = SURFACE_STYLE_USAGE ( .BOTH. , #376 ) ;
#1046 = LINE ( 'NONE', #1073, #495 ) ;
#1047 = DIRECTION ( 'NONE',  ( 1.000000000000000000, 0.000000000000000000, 0.000000000000000000 ) ) ;
#1048 = ORIENTED_EDGE ( 'NONE', *, *, #587, .T. ) ;
#1049 = DIRECTION ( 'NONE',  ( 0.9791098785232121848, 0.2033318611980440560, 0.000000000000000000 ) ) ;
#1050 = DIRECTION ( 'NONE',  ( -0.9791098785232121848, 0.2033318611980440560, 0.000000000000000000 ) ) ;
#1051 = CARTESIAN_POINT ( 'NONE',  ( 46.75682163943399416, 9.195327154023999583, 87.05581423465299906 ) ) ;
#1052 = DIRECTION ( 'NONE',  ( -0.000000000000000000, 1.000000000000000000, 0.000000000000000000 ) ) ;
#1053 = EDGE_LOOP ( 'NONE', ( #123 ) ) ;
#1054 = PLANE ( 'NONE',  #181 ) ;
#1055 = VECTOR ( 'NONE', #1056, 1000.000000000000000 ) ;
#1056 = DIRECTION ( 'NONE',  ( 0.7027082112011940884, 0.000000000000000000, 0.7114781584211971044 ) ) ;
#1057 = APPLICATION_CONTEXT ( 'automotive_design' ) ;
#1058 = CIRCLE ( 'NONE', #20, 2.152909607110000234 ) ;
#1059 = PLANE ( 'NONE',  #651 ) ;
#1060 = ORIENTED_EDGE ( 'NONE', *, *, #83, .F. ) ;
#1061 = EDGE_CURVE ( 'NONE', #979, #326, #736, .T. ) ;
#1062 = CARTESIAN_POINT ( 'NONE',  ( 22.03520493256300128, 25.39444305060099794, 25.24341662187899615 ) ) ;
#1063 = ADVANCED_BREP_SHAPE_REPRESENTATION ( '20260414_160844_76', ( #974, #846 ), #939 ) ;
#1064 = VERTEX_POINT ( 'NONE', #240 ) ;
#1065 = CARTESIAN_POINT ( 'NONE',  ( 0.000000000000000000, 36.57646444495800608, 0.000000000000000000 ) ) ;
#1066 = EDGE_CURVE ( 'NONE', #1064, #1064, #1043, .T. ) ;
#1067 = DIRECTION ( 'NONE',  ( 1.000000000000000000, 0.000000000000000000, 0.000000000000000000 ) ) ;
#1068 = ORIENTED_EDGE ( 'NONE', *, *, #205, .T. ) ;
#1069 = VECTOR ( 'NONE', #106, 1000.000000000000000 ) ;
#1070 = COLOUR_RGB ( '',0.7921568627450980005, 0.8196078431372548767, 0.9333333333333333481 ) ;
#1071 = LINE ( 'NONE', #148, #323 ) ;
#1072 = DIRECTION ( 'NONE',  ( 0.000000000000000000, 1.000000000000000000, 0.000000000000000000 ) ) ;
#1073 = CARTESIAN_POINT ( 'NONE',  ( 54.15950897690999710, 32.05272974956899645, 0.000000000000000000 ) ) ;
#1074 = FACE_BOUND ( 'NONE', #867, .T. ) ;
#1075 = EDGE_LOOP ( 'NONE', ( #600, #776, #200, #639 ) ) ;
#1076 = EDGE_CURVE ( 'NONE', #496, #496, #703, .T. ) ;
#1077 = FACE_BOUND ( 'NONE', #52, .T. ) ;
#1078 = FACE_OUTER_BOUND ( 'NONE', #1039, .T. ) ;
#1079 = PRODUCT_DEFINITION ( 'ๆ', '', #462, #890 ) ;
#1080 = LINE ( 'NONE', #725, #441 ) ;
#1081 = EDGE_LOOP ( 'NONE', ( #90, #26, #292, #202, #339 ) ) ;
#1082 = AXIS2_PLACEMENT_3D ( 'NONE', #296, #632, #373 ) ;
#1083 = DIRECTION ( 'NONE',  ( 1.000000000000000000, -1.051814540294999918E-30, -2.498059533200000291E-29 ) ) ;
#1084 = VERTEX_POINT ( 'NONE', #569 ) ;
#1085 = PLANE ( 'NONE',  #635 ) ;
#1086 = ORIENTED_EDGE ( 'NONE', *, *, #1018, .T. ) ;
#1087 = AXIS2_PLACEMENT_3D ( 'NONE', #842, #164, #494 ) ;
#1088 = ADVANCED_FACE ( 'NONE', ( #1078 ), #395, .T. ) ;
#1089 = CARTESIAN_POINT ( 'NONE',  ( 7.328125174019000099, 0.000000000000000000, 46.42701989730599621 ) ) ;
#1090 = VERTEX_POINT ( 'NONE', #652 ) ;
#1091 = DIRECTION ( 'NONE',  ( -0.1189108507689610600, 0.000000000000000000, 0.9929049348096734562 ) ) ;
#1092 = VERTEX_POINT ( 'NONE', #311 ) ;
#1093 = ORIENTED_EDGE ( 'NONE', *, *, #286, .F. ) ;
#1094 = DIRECTION ( 'NONE',  ( 0.000000000000000000, 1.000000000000000000, 0.000000000000000000 ) ) ;
ENDSEC;
END-ISO-10303-21;
