ISO-10303-21;
HEADER;
FILE_DESCRIPTION (( 'STEP AP214' ),
    '1' );
FILE_NAME ('20260414_160844_176.STEP',
    '2026-04-16T15:30:19',
    ( '' ),
    ( '' ),
    'SwSTEP 2.0',
    'SolidWorks 2025',
    '' );
FILE_SCHEMA (( 'AUTOMOTIVE_DESIGN' ));
ENDSEC;

DATA;
#1 = VERTEX_POINT ( 'NONE', #118 ) ;
#2 = CIRCLE ( 'NONE', #150, 14.92851566438600130 ) ;
#3 = CARTESIAN_POINT ( 'NONE',  ( 0.000000000000000000, 11.91556122124000083, 85.84662577940798656 ) ) ;
#4 = DIRECTION ( 'NONE',  ( 0.8146524281849837346, 0.5799494988809886786, 0.000000000000000000 ) ) ;
#5 = ORIENTED_EDGE ( 'NONE', *, *, #422, .T. ) ;
#6 = FACE_OUTER_BOUND ( 'NONE', #806, .T. ) ;
#7 = PRODUCT_DEFINITION_FORMATION_WITH_SPECIFIED_SOURCE ( 'ไป', '', #642, .NOT_KNOWN. ) ;
#8 = DIRECTION ( 'NONE',  ( 1.000000000000000000, 0.000000000000000000, 0.000000000000000000 ) ) ;
#9 = ORIENTED_EDGE ( 'NONE', *, *, #438, .T. ) ;
#10 = PLANE ( 'NONE',  #626 ) ;
#11 = ORIENTED_EDGE ( 'NONE', *, *, #864, .T. ) ;
#12 = EDGE_CURVE ( 'NONE', #743, #520, #577, .T. ) ;
#13 = ORIENTED_EDGE ( 'NONE', *, *, #84, .F. ) ;
#14 = AXIS2_PLACEMENT_3D ( 'NONE', #797, #724, #404 ) ;
#15 = PLANE ( 'NONE',  #793 ) ;
#16 = ORIENTED_EDGE ( 'NONE', *, *, #30, .F. ) ;
#17 = EDGE_CURVE ( 'NONE', #125, #829, #53, .T. ) ;
#18 = ADVANCED_BREP_SHAPE_REPRESENTATION ( '20260414_160844_176', ( #228, #413 ), #814 ) ;
#19 = DIRECTION ( 'NONE',  ( 1.000000000000000000, 0.000000000000000000, 0.000000000000000000 ) ) ;
#20 = DIRECTION ( 'NONE',  ( -1.000000000000000000, 0.000000000000000000, 0.000000000000000000 ) ) ;
#21 = EDGE_CURVE ( 'NONE', #440, #312, #849, .T. ) ;
#22 = DIRECTION ( 'NONE',  ( -1.000000000000000000, 0.000000000000000000, 0.000000000000000000 ) ) ;
#23 = VERTEX_POINT ( 'NONE', #703 ) ;
#24 = VECTOR ( 'NONE', #143, 1000.000000000000000 ) ;
#25 = DIRECTION ( 'NONE',  ( 0.000000000000000000, 0.000000000000000000, 1.000000000000000000 ) ) ;
#26 = ORIENTED_EDGE ( 'NONE', *, *, #851, .F. ) ;
#27 = LINE ( 'NONE', #370, #767 ) ;
#28 = EDGE_CURVE ( 'NONE', #379, #109, #854, .T. ) ;
#29 = ORIENTED_EDGE ( 'NONE', *, *, #105, .T. ) ;
#30 = EDGE_CURVE ( 'NONE', #390, #23, #513, .T. ) ;
#31 = CARTESIAN_POINT ( 'NONE',  ( 43.39315584424499406, 70.27847541625199312, 89.28966889591400502 ) ) ;
#32 = CARTESIAN_POINT ( 'NONE',  ( 18.13285069732300059, 13.54611627250800154, 89.28966889591400502 ) ) ;
#33 = ORIENTED_EDGE ( 'NONE', *, *, #373, .T. ) ;
#34 = LINE ( 'NONE', #568, #750 ) ;
#35 = VERTEX_POINT ( 'NONE', #698 ) ;
#36 = DIRECTION ( 'NONE',  ( -0.9954844475033723938, -0.09492478485045542647, 0.000000000000000000 ) ) ;
#37 = DIRECTION ( 'NONE',  ( 0.000000000000000000, 0.000000000000000000, 1.000000000000000000 ) ) ;
#38 = ADVANCED_FACE ( 'NONE', ( #860 ), #235, .F. ) ;
#39 = DIRECTION ( 'NONE',  ( 0.09492478485045544034, -0.9954844475033725049, 0.000000000000000000 ) ) ;
#40 = DIRECTION ( 'NONE',  ( 0.000000000000000000, 0.000000000000000000, 1.000000000000000000 ) ) ;
#41 = CARTESIAN_POINT ( 'NONE',  ( 17.78893838435800134, 17.15275451141399898, 0.000000000000000000 ) ) ;
#42 = PRESENTATION_LAYER_ASSIGNMENT (  '', '', ( #463 ) ) ;
#43 = CARTESIAN_POINT ( 'NONE',  ( 43.39315584424499406, 81.45425636641499523, 89.28966889591400502 ) ) ;
#44 = ORIENTED_EDGE ( 'NONE', *, *, #113, .T. ) ;
#45 = CARTESIAN_POINT ( 'NONE',  ( 3.515953574901999890, 23.83112244248000167, 89.28966889591400502 ) ) ;
#46 = VERTEX_POINT ( 'NONE', #503 ) ;
#47 = AXIS2_PLACEMENT_3D ( 'NONE', #167, #231, #441 ) ;
#48 = VERTEX_POINT ( 'NONE', #771 ) ;
#49 = CARTESIAN_POINT ( 'NONE',  ( 0.000000000000000000, 59.17091713986300050, 55.14664180074500166 ) ) ;
#50 = PLANE ( 'NONE',  #784 ) ;
#51 = CYLINDRICAL_SURFACE ( 'NONE', #641, 14.92851566438600130 ) ;
#52 = FACE_BOUND ( 'NONE', #536, .T. ) ;
#53 = LINE ( 'NONE', #177, #446 ) ;
#54 = EDGE_LOOP ( 'NONE', ( #652, #350, #685, #89 ) ) ;
#55 = LINE ( 'NONE', #49, #669 ) ;
#56 = DIRECTION ( 'NONE',  ( 0.000000000000000000, 0.000000000000000000, 1.000000000000000000 ) ) ;
#57 = FACE_OUTER_BOUND ( 'NONE', #636, .T. ) ;
#58 = UNCERTAINTY_MEASURE_WITH_UNIT (LENGTH_MEASURE( 1.000000000000000082E-05 ), #216, 'distance_accuracy_value', 'NONE');
#59 = CARTESIAN_POINT ( 'NONE',  ( 0.000000000000000000, 23.83112244248000167, 87.12632577002500511 ) ) ;
#60 = AXIS2_PLACEMENT_3D ( 'NONE', #734, #817, #363 ) ;
#61 = ORIENTED_EDGE ( 'NONE', *, *, #422, .F. ) ;
#62 = EDGE_CURVE ( 'NONE', #834, #1, #638, .T. ) ;
#63 = VECTOR ( 'NONE', #532, 1000.000000000000000 ) ;
#64 = EDGE_CURVE ( 'NONE', #485, #493, #188, .T. ) ;
#65 = CARTESIAN_POINT ( 'NONE',  ( 23.09737687486599711, 0.000000000000000000, 0.000000000000000000 ) ) ;
#66 = DIRECTION ( 'NONE',  ( 0.000000000000000000, 0.000000000000000000, -1.000000000000000000 ) ) ;
#67 = ORIENTED_EDGE ( 'NONE', *, *, #813, .T. ) ;
#68 = VECTOR ( 'NONE', #823, 1000.000000000000000 ) ;
#69 = DIRECTION ( 'NONE',  ( 1.000000000000000000, 0.000000000000000000, 0.000000000000000000 ) ) ;
#70 = EDGE_CURVE ( 'NONE', #376, #485, #712, .T. ) ;
#71 = SURFACE_SIDE_STYLE ('',( #664 ) ) ;
#72 = ORIENTED_EDGE ( 'NONE', *, *, #371, .F. ) ;
#73 = ORIENTED_EDGE ( 'NONE', *, *, #736, .F. ) ;
#74 = VECTOR ( 'NONE', #839, 1000.000000000000000 ) ;
#75 = CARTESIAN_POINT ( 'NONE',  ( 16.91974776178899731, 15.25015645872699999, 0.000000000000000000 ) ) ;
#76 = FACE_OUTER_BOUND ( 'NONE', #214, .T. ) ;
#77 = EDGE_LOOP ( 'NONE', ( #364, #707, #230, #9, #93 ) ) ;
#78 = DIRECTION ( 'NONE',  ( 0.9954844475033723938, 0.09492478485045542647, 0.000000000000000000 ) ) ;
#79 = LINE ( 'NONE', #809, #96 ) ;
#80 = DIRECTION ( 'NONE',  ( 0.000000000000000000, 0.000000000000000000, -1.000000000000000000 ) ) ;
#81 = VERTEX_POINT ( 'NONE', #765 ) ;
#82 = DIRECTION ( 'NONE',  ( 0.000000000000000000, -2.597991572295000288E-31, -1.000000000000000000 ) ) ;
#83 = CARTESIAN_POINT ( 'NONE',  ( 0.000000000000000000, 0.000000000000000000, 0.000000000000000000 ) ) ;
#84 = EDGE_CURVE ( 'NONE', #625, #1, #775, .T. ) ;
#85 = ORIENTED_EDGE ( 'NONE', *, *, #256, .F. ) ;
#86 = PLANE ( 'NONE',  #473 ) ;
#87 = VECTOR ( 'NONE', #36, 1000.000000000000227 ) ;
#88 = CARTESIAN_POINT ( 'NONE',  ( 0.000000000000000000, 0.000000000000000000, 0.000000000000000000 ) ) ;
#89 = ORIENTED_EDGE ( 'NONE', *, *, #339, .T. ) ;
#90 = FACE_OUTER_BOUND ( 'NONE', #489, .T. ) ;
#91 = DIRECTION ( 'NONE',  ( 0.000000000000000000, -1.000000000000000000, 0.000000000000000000 ) ) ;
#92 = CARTESIAN_POINT ( 'NONE',  ( 10.54847357736199953, 81.45425636641499523, 89.28966889591400502 ) ) ;
#93 = ORIENTED_EDGE ( 'NONE', *, *, #147, .T. ) ;
#94 = PLANE ( 'NONE',  #515 ) ;
#95 = ORIENTED_EDGE ( 'NONE', *, *, #645, .F. ) ;
#96 = VECTOR ( 'NONE', #8, 1000.000000000000000 ) ;
#97 = CARTESIAN_POINT ( 'NONE',  ( 0.000000000000000000, 0.000000000000000000, 0.000000000000000000 ) ) ;
#98 = DIRECTION ( 'NONE',  ( -0.4155349486222479904, -0.9095772130355430640, 0.000000000000000000 ) ) ;
#99 = LINE ( 'NONE', #299, #608 ) ;
#100 = ORIENTED_EDGE ( 'NONE', *, *, #17, .T. ) ;
#101 = CIRCLE ( 'NONE', #590, 14.92851566438600130 ) ;
#102 = CARTESIAN_POINT ( 'NONE',  ( 0.000000000000000000, 59.17091713986300050, 25.28961047197399736 ) ) ;
#103 = CARTESIAN_POINT ( 'NONE',  ( 10.54847357736199953, 70.27847541625199312, 89.28966889591400502 ) ) ;
#104 = VECTOR ( 'NONE', #176, 1000.000000000000000 ) ;
#105 = EDGE_CURVE ( 'NONE', #472, #850, #389, .T. ) ;
#106 = ORIENTED_EDGE ( 'NONE', *, *, #588, .F. ) ;
#107 = FACE_OUTER_BOUND ( 'NONE', #528, .T. ) ;
#108 = CARTESIAN_POINT ( 'NONE',  ( 10.54847357736199953, 81.45425636641499523, 78.11388794575100292 ) ) ;
#109 = VERTEX_POINT ( 'NONE', #124 ) ;
#110 = DIRECTION ( 'NONE',  ( 0.000000000000000000, 0.000000000000000000, -1.000000000000000000 ) ) ;
#111 = DIRECTION ( 'NONE',  ( -1.000000000000000000, 0.000000000000000000, 0.000000000000000000 ) ) ;
#112 = ORIENTED_EDGE ( 'NONE', *, *, #677, .F. ) ;
#113 = EDGE_CURVE ( 'NONE', #567, #343, #171, .T. ) ;
#114 = ORIENTED_EDGE ( 'NONE', *, *, #415, .T. ) ;
#115 = CARTESIAN_POINT ( 'NONE',  ( 43.39315584424499406, 81.45425636641499523, 89.28966889591400502 ) ) ;
#116 = PRODUCT_DEFINITION_CONTEXT ( 'detailed design', #604, 'design' ) ;
#117 = LINE ( 'NONE', #388, #737 ) ;
#118 = CARTESIAN_POINT ( 'NONE',  ( 43.39315584424499406, 81.45425636641499523, 78.11388794575100292 ) ) ;
#119 = CARTESIAN_POINT ( 'NONE',  ( 91.70475011642299989, 0.000000000000000000, 32.09542273765800502 ) ) ;
#120 = ORIENTED_EDGE ( 'NONE', *, *, #564, .T. ) ;
#121 = CARTESIAN_POINT ( 'NONE',  ( 0.000000000000000000, 61.92035634112200171, 55.14664180074500166 ) ) ;
#122 = CARTESIAN_POINT ( 'NONE',  ( 0.000000000000000000, 61.92035634112200171, 25.28961047197399736 ) ) ;
#123 = EDGE_CURVE ( 'NONE', #379, #202, #412, .T. ) ;
#124 = CARTESIAN_POINT ( 'NONE',  ( 23.09737687486599711, 0.000000000000000000, 0.000000000000000000 ) ) ;
#125 = VERTEX_POINT ( 'NONE', #674 ) ;
#126 = EDGE_CURVE ( 'NONE', #168, #844, #79, .T. ) ;
#127 = DIRECTION ( 'NONE',  ( 1.000000000000000000, 0.000000000000000000, 0.000000000000000000 ) ) ;
#128 = DIRECTION ( 'NONE',  ( 0.9954844475033723938, 0.09492478485045542647, 0.000000000000000000 ) ) ;
#129 = VECTOR ( 'NONE', #298, 1000.000000000000000 ) ;
#130 = ORIENTED_EDGE ( 'NONE', *, *, #169, .F. ) ;
#131 = FILL_AREA_STYLE ('',( #805 ) ) ;
#132 = EDGE_CURVE ( 'NONE', #469, #340, #611, .T. ) ;
#133 = EDGE_LOOP ( 'NONE', ( #120, #44, #112, #789 ) ) ;
#134 = DIRECTION ( 'NONE',  ( 0.000000000000000000, 1.000000000000000000, 0.000000000000000000 ) ) ;
#135 = CARTESIAN_POINT ( 'NONE',  ( 0.000000000000000000, 0.000000000000000000, 0.000000000000000000 ) ) ;
#136 = ORIENTED_EDGE ( 'NONE', *, *, #399, .T. ) ;
#137 = CARTESIAN_POINT ( 'NONE',  ( 20.21514425542500248, 13.74467413897600032, 89.28966889591400502 ) ) ;
#138 = DIRECTION ( 'NONE',  ( 1.000000000000000000, 0.000000000000000000, 0.000000000000000000 ) ) ;
#139 = EDGE_CURVE ( 'NONE', #440, #205, #729, .T. ) ;
#140 = ORIENTED_EDGE ( 'NONE', *, *, #147, .F. ) ;
#141 = VECTOR ( 'NONE', #165, 1000.000000000000000 ) ;
#142 = VECTOR ( 'NONE', #37, 1000.000000000000000 ) ;
#143 = DIRECTION ( 'NONE',  ( -1.000000000000000000, 0.000000000000000000, 0.000000000000000000 ) ) ;
#144 = ORIENTED_EDGE ( 'NONE', *, *, #126, .T. ) ;
#145 = CARTESIAN_POINT ( 'NONE',  ( 43.39315584424499406, 70.27847541625199312, 89.28966889591400502 ) ) ;
#146 = EDGE_LOOP ( 'NONE', ( #317, #459, #140, #398 ) ) ;
#147 = EDGE_CURVE ( 'NONE', #856, #376, #600, .T. ) ;
#148 = CARTESIAN_POINT ( 'NONE',  ( 16.30699600900100066, 5.190008395704999167, 89.28966889591400502 ) ) ;
#149 = ORIENTED_EDGE ( 'NONE', *, *, #126, .F. ) ;
#150 = AXIS2_PLACEMENT_3D ( 'NONE', #203, #265, #862 ) ;
#151 = CARTESIAN_POINT ( 'NONE',  ( 0.000000000000000000, 0.000000000000000000, 87.12632577002500511 ) ) ;
#152 = ORIENTED_EDGE ( 'NONE', *, *, #310, .T. ) ;
#153 = FACE_OUTER_BOUND ( 'NONE', #668, .T. ) ;
#154 = DIRECTION ( 'NONE',  ( 0.000000000000000000, -1.000000000000000000, 0.000000000000000000 ) ) ;
#155 = ORIENTED_EDGE ( 'NONE', *, *, #766, .T. ) ;
#156 = DIRECTION ( 'NONE',  ( 0.000000000000000000, 1.000000000000000000, 0.000000000000000000 ) ) ;
#157 = EDGE_LOOP ( 'NONE', ( #199, #186, #768, #73 ) ) ;
#158 = EDGE_CURVE ( 'NONE', #844, #277, #863, .T. ) ;
#159 = AXIS2_PLACEMENT_3D ( 'NONE', #504, #252, #521 ) ;
#160 = AXIS2_PLACEMENT_3D ( 'NONE', #239, #782, #254 ) ;
#161 = LINE ( 'NONE', #375, #662 ) ;
#162 = ORIENTED_EDGE ( 'NONE', *, *, #123, .F. ) ;
#163 = VECTOR ( 'NONE', #368, 1000.000000000000000 ) ;
#164 = PLANE ( 'NONE',  #159 ) ;
#165 = DIRECTION ( 'NONE',  ( 1.000000000000000000, 0.000000000000000000, 0.000000000000000000 ) ) ;
#166 = CARTESIAN_POINT ( 'NONE',  ( 0.000000000000000000, 0.000000000000000000, 89.28966889591400502 ) ) ;
#167 = CARTESIAN_POINT ( 'NONE',  ( 0.000000000000000000, 81.45425636641499523, 0.000000000000000000 ) ) ;
#168 = VERTEX_POINT ( 'NONE', #270 ) ;
#169 = EDGE_CURVE ( 'NONE', #844, #709, #204, .T. ) ;
#170 = CARTESIAN_POINT ( 'NONE',  ( 3.515953574901999890, 0.000000000000000000, 87.12632577002500511 ) ) ;
#171 = LINE ( 'NONE', #184, #587 ) ;
#172 = ORIENTED_EDGE ( 'NONE', *, *, #345, .F. ) ;
#173 = EDGE_CURVE ( 'NONE', #327, #519, #262, .T. ) ;
#174 = DIRECTION ( 'NONE',  ( 1.000000000000000000, 0.000000000000000000, 0.000000000000000000 ) ) ;
#175 = VECTOR ( 'NONE', #526, 1000.000000000000000 ) ;
#176 = DIRECTION ( 'NONE',  ( 0.000000000000000000, 0.000000000000000000, -1.000000000000000000 ) ) ;
#177 = CARTESIAN_POINT ( 'NONE',  ( 12.57700420407999964, 5.744191689113000265, 89.28966889591400502 ) ) ;
#178 = DIRECTION ( 'NONE',  ( 0.000000000000000000, 0.000000000000000000, 1.000000000000000000 ) ) ;
#179 = ORIENTED_EDGE ( 'NONE', *, *, #785, .T. ) ;
#180 = DIRECTION ( 'NONE',  ( 0.000000000000000000, 1.000000000000000000, 0.000000000000000000 ) ) ;
#181 = ADVANCED_FACE ( 'NONE', ( #659 ), #10, .F. ) ;
#182 = CARTESIAN_POINT ( 'NONE',  ( 17.78893838435800134, 17.15275451141399898, 0.000000000000000000 ) ) ;
#183 = CARTESIAN_POINT ( 'NONE',  ( 21.08433487799399941, 15.64727219166299754, 0.000000000000000000 ) ) ;
#184 = CARTESIAN_POINT ( 'NONE',  ( 0.000000000000000000, 61.92035634112200171, 55.14664180074500166 ) ) ;
#185 = EDGE_CURVE ( 'NONE', #23, #202, #333, .T. ) ;
#186 = ORIENTED_EDGE ( 'NONE', *, *, #200, .T. ) ;
#187 = CARTESIAN_POINT ( 'NONE',  ( 15.56288278521300050, 59.17091713986300050, 55.14664180074500166 ) ) ;
#188 = LINE ( 'NONE', #166, #293 ) ;
#189 = ORIENTED_EDGE ( 'NONE', *, *, #30, .T. ) ;
#190 = ADVANCED_FACE ( 'NONE', ( #76 ), #276, .F. ) ;
#191 = DIRECTION ( 'NONE',  ( 0.000000000000000000, 0.000000000000000000, 1.000000000000000000 ) ) ;
#192 = LINE ( 'NONE', #591, #673 ) ;
#193 = DIRECTION ( 'NONE',  ( 0.000000000000000000, -0.9942823163708507384, 0.1067833102699839720 ) ) ;
#194 = VECTOR ( 'NONE', #127, 1000.000000000000000 ) ;
#195 = VERTEX_POINT ( 'NONE', #409 ) ;
#196 = CARTESIAN_POINT ( 'NONE',  ( 18.13285069732300059, 13.54611627250800154, 0.000000000000000000 ) ) ;
#197 = CARTESIAN_POINT ( 'NONE',  ( 15.56288278521300050, 59.17091713986300050, 25.28961047197399736 ) ) ;
#198 = CARTESIAN_POINT ( 'NONE',  ( 0.000000000000000000, 81.45425636641499523, 0.000000000000000000 ) ) ;
#199 = ORIENTED_EDGE ( 'NONE', *, *, #714, .T. ) ;
#200 = EDGE_CURVE ( 'NONE', #519, #168, #670, .T. ) ;
#201 = DIRECTION ( 'NONE',  ( 0.000000000000000000, -0.9942823163708507384, 0.1067833102699839720 ) ) ;
#202 = VERTEX_POINT ( 'NONE', #738 ) ;
#203 = CARTESIAN_POINT ( 'NONE',  ( 0.000000000000000000, 61.92035634112200171, 40.21812613635900391 ) ) ;
#204 = LINE ( 'NONE', #801, #248 ) ;
#205 = VERTEX_POINT ( 'NONE', #145 ) ;
#206 = COLOUR_RGB ( '',0.7921568627450980005, 0.8196078431372548767, 0.9333333333333333481 ) ;
#207 = VECTOR ( 'NONE', #210, 1000.000000000000000 ) ;
#208 = VECTOR ( 'NONE', #174, 1000.000000000000000 ) ;
#209 = EDGE_CURVE ( 'NONE', #35, #168, #535, .T. ) ;
#210 = DIRECTION ( 'NONE',  ( 1.000000000000000000, 0.000000000000000000, 0.000000000000000000 ) ) ;
#211 = ORIENTED_EDGE ( 'NONE', *, *, #728, .T. ) ;
#212 = ADVANCED_FACE ( 'NONE', ( #539 ), #530, .F. ) ;
#213 = VECTOR ( 'NONE', #720, 1000.000000000000000 ) ;
#214 = EDGE_LOOP ( 'NONE', ( #179, #152, #393, #26 ) ) ;
#215 = CARTESIAN_POINT ( 'NONE',  ( 0.000000000000000000, 23.83112244248000167, 60.01242030289900242 ) ) ;
#216 =( LENGTH_UNIT ( ) NAMED_UNIT ( * ) SI_UNIT ( .MILLI., .METRE. ) );
#217 = PRODUCT_RELATED_PRODUCT_CATEGORY ( 'part', '', ( #642 ) ) ;
#218 = EDGE_LOOP ( 'NONE', ( #655, #730, #359, #232, #95, #605, #353, #672 ) ) ;
#219 = CARTESIAN_POINT ( 'NONE',  ( 43.39315584424499406, 81.45425636641499523, 89.28966889591400502 ) ) ;
#220 = FACE_BOUND ( 'NONE', #223, .T. ) ;
#221 = CARTESIAN_POINT ( 'NONE',  ( 0.000000000000000000, 59.17091713986300050, 40.21812613635900391 ) ) ;
#222 = EDGE_LOOP ( 'NONE', ( #189, #458, #361, #678 ) ) ;
#223 = EDGE_LOOP ( 'NONE', ( #291, #172, #584, #572, #571, #612 ) ) ;
#224 = PLANE ( 'NONE',  #278 ) ;
#225 = CARTESIAN_POINT ( 'NONE',  ( 0.000000000000000000, 81.45425636641499523, 0.000000000000000000 ) ) ;
#226 = ORIENTED_EDGE ( 'NONE', *, *, #233, .T. ) ;
#227 = CARTESIAN_POINT ( 'NONE',  ( 3.515953574901999890, 0.000000000000000000, 89.28966889591400502 ) ) ;
#228 = MANIFOLD_SOLID_BREP ( 'Open CASCADE STEP translator 7.5 19[1]', #820 ) ;
#229 = DIRECTION ( 'NONE',  ( 0.000000000000000000, 1.000000000000000000, 0.000000000000000000 ) ) ;
#230 = ORIENTED_EDGE ( 'NONE', *, *, #478, .T. ) ;
#231 = DIRECTION ( 'NONE',  ( -0.000000000000000000, 1.000000000000000000, 0.000000000000000000 ) ) ;
#232 = ORIENTED_EDGE ( 'NONE', *, *, #460, .F. ) ;
#233 = EDGE_CURVE ( 'NONE', #834, #440, #837, .T. ) ;
#234 = PLANE ( 'NONE',  #355 ) ;
#235 = PLANE ( 'NONE',  #160 ) ;
#236 = FACE_OUTER_BOUND ( 'NONE', #419, .T. ) ;
#237 = PLANE ( 'NONE',  #586 ) ;
#238 = DIRECTION ( 'NONE',  ( 0.000000000000000000, -1.000000000000000000, 0.000000000000000000 ) ) ;
#239 = CARTESIAN_POINT ( 'NONE',  ( 17.78893838435800134, 17.15275451141399898, 0.000000000000000000 ) ) ;
#240 = ORIENTED_EDGE ( 'NONE', *, *, #266, .T. ) ;
#241 = DIRECTION ( 'NONE',  ( 0.000000000000000000, 0.000000000000000000, 1.000000000000000000 ) ) ;
#242 = LINE ( 'NONE', #182, #648 ) ;
#243 = DIRECTION ( 'NONE',  ( 0.5799494988809886786, -0.8146524281849837346, 0.000000000000000000 ) ) ;
#244 = DIRECTION ( 'NONE',  ( -0.4155349486222479904, -0.9095772130355430640, 0.000000000000000000 ) ) ;
#245 = VERTEX_POINT ( 'NONE', #32 ) ;
#246 = PLANE ( 'NONE',  #546 ) ;
#247 = LINE ( 'NONE', #773, #693 ) ;
#248 = VECTOR ( 'NONE', #798, 1000.000000000000000 ) ;
#249 = DIRECTION ( 'NONE',  ( 0.000000000000000000, 0.000000000000000000, 1.000000000000000000 ) ) ;
#250 = CARTESIAN_POINT ( 'NONE',  ( 0.000000000000000000, 0.000000000000000000, 0.000000000000000000 ) ) ;
#251 = ORIENTED_EDGE ( 'NONE', *, *, #578, .F. ) ;
#252 = DIRECTION ( 'NONE',  ( 0.000000000000000000, 0.1067833102699839720, -0.9942823163708507384 ) ) ;
#253 = CARTESIAN_POINT ( 'NONE',  ( 3.515953574901999890, 23.83112244248000167, 87.12632577002500511 ) ) ;
#254 = DIRECTION ( 'NONE',  ( 0.000000000000000000, 0.000000000000000000, 1.000000000000000000 ) ) ;
#255 = EDGE_LOOP ( 'NONE', ( #411, #130, #713, #488 ) ) ;
#256 = EDGE_CURVE ( 'NONE', #202, #376, #351, .T. ) ;
#257 = LINE ( 'NONE', #461, #408 ) ;
#258 = LINE ( 'NONE', #65, #283 ) ;
#259 = DIRECTION ( 'NONE',  ( 0.000000000000000000, 1.000000000000000000, 0.000000000000000000 ) ) ;
#260 = ORIENTED_EDGE ( 'NONE', *, *, #373, .F. ) ;
#261 = DIRECTION ( 'NONE',  ( 0.000000000000000000, -1.000000000000000000, 0.000000000000000000 ) ) ;
#262 = LINE ( 'NONE', #198, #207 ) ;
#263 = VECTOR ( 'NONE', #25, 1000.000000000000000 ) ;
#264 = ORIENTED_EDGE ( 'NONE', *, *, #329, .T. ) ;
#265 = DIRECTION ( 'NONE',  ( -1.000000000000000000, 0.000000000000000000, 0.000000000000000000 ) ) ;
#266 = EDGE_CURVE ( 'NONE', #403, #620, #548, .T. ) ;
#267 = CARTESIAN_POINT ( 'NONE',  ( 10.54847357736199953, 81.45425636641499523, 89.28966889591400502 ) ) ;
#268 =( LENGTH_UNIT ( ) NAMED_UNIT ( * ) SI_UNIT ( .MILLI., .METRE. ) );
#269 = ORIENTED_EDGE ( 'NONE', *, *, #450, .T. ) ;
#270 = CARTESIAN_POINT ( 'NONE',  ( 23.09737687486599711, 81.45425636641499523, 32.09542273765800502 ) ) ;
#271 = CARTESIAN_POINT ( 'NONE',  ( 19.87123194246000324, 17.35131237788199954, 0.000000000000000000 ) ) ;
#272 = ORIENTED_EDGE ( 'NONE', *, *, #371, .T. ) ;
#273 = EDGE_CURVE ( 'NONE', #485, #445, #559, .T. ) ;
#274 = CARTESIAN_POINT ( 'NONE',  ( 91.70475011642299989, 0.000000000000000000, 89.28966889591400502 ) ) ;
#275 = ADVANCED_FACE ( 'NONE', ( #356 ), #15, .T. ) ;
#276 = PLANE ( 'NONE',  #733 ) ;
#277 = VERTEX_POINT ( 'NONE', #821 ) ;
#278 = AXIS2_PLACEMENT_3D ( 'NONE', #97, #748, #686 ) ;
#279 = LINE ( 'NONE', #545, #855 ) ;
#280 = VECTOR ( 'NONE', #449, 1000.000000000000000 ) ;
#281 = CARTESIAN_POINT ( 'NONE',  ( 10.54847357736199953, 23.83112244248000167, 89.28966889591400502 ) ) ;
#282 = ORIENTED_EDGE ( 'NONE', *, *, #173, .F. ) ;
#283 = VECTOR ( 'NONE', #663, 1000.000000000000000 ) ;
#284 = EDGE_CURVE ( 'NONE', #520, #620, #287, .T. ) ;
#285 = CARTESIAN_POINT ( 'NONE',  ( 5.274236788681000654, 23.83112244248000167, 74.65104459940700110 ) ) ;
#286 = ORIENTED_EDGE ( 'NONE', *, *, #833, .T. ) ;
#287 = LINE ( 'NONE', #148, #807 ) ;
#288 = DIRECTION ( 'NONE',  ( 1.000000000000000000, 0.000000000000000000, 0.000000000000000000 ) ) ;
#289 = ORIENTED_EDGE ( 'NONE', *, *, #310, .F. ) ;
#290 = CARTESIAN_POINT ( 'NONE',  ( 20.21514425542500248, 13.74467413897600032, 0.000000000000000000 ) ) ;
#291 = ORIENTED_EDGE ( 'NONE', *, *, #450, .F. ) ;
#292 = AXIS2_PLACEMENT_3D ( 'NONE', #804, #701, #763 ) ;
#293 = VECTOR ( 'NONE', #715, 1000.000000000000000 ) ;
#294 = ADVANCED_FACE ( 'NONE', ( #220, #481 ), #683, .T. ) ;
#295 = FACE_OUTER_BOUND ( 'NONE', #442, .T. ) ;
#296 = ORIENTED_EDGE ( 'NONE', *, *, #527, .T. ) ;
#297 = ORIENTED_EDGE ( 'NONE', *, *, #483, .T. ) ;
#298 = DIRECTION ( 'NONE',  ( 1.000000000000000000, 0.000000000000000000, 0.000000000000000000 ) ) ;
#299 = CARTESIAN_POINT ( 'NONE',  ( 23.09737687486599711, 0.000000000000000000, 0.000000000000000000 ) ) ;
#300 = ORIENTED_EDGE ( 'NONE', *, *, #415, .F. ) ;
#301 = CARTESIAN_POINT ( 'NONE',  ( 16.91974776178899731, 15.25015645872699999, 89.28966889591400502 ) ) ;
#302 = ORIENTED_EDGE ( 'NONE', *, *, #649, .T. ) ;
#303 = DIRECTION ( 'NONE',  ( -1.000000000000000000, 0.000000000000000000, 0.000000000000000000 ) ) ;
#304 = DIRECTION ( 'NONE',  ( 0.000000000000000000, 0.000000000000000000, 1.000000000000000000 ) ) ;
#305 = PRODUCT_DEFINITION ( 'ๆ', '', #7, #116 ) ;
#306 = CARTESIAN_POINT ( 'NONE',  ( 20.21514425542500248, 13.74467413897600032, 0.000000000000000000 ) ) ;
#307 = MECHANICAL_DESIGN_GEOMETRIC_PRESENTATION_REPRESENTATION (  '', ( #463 ), #325 ) ;
#308 = CARTESIAN_POINT ( 'NONE',  ( 21.08433487799399941, 15.64727219166299754, 89.28966889591400502 ) ) ;
#309 = LINE ( 'NONE', #841, #569 ) ;
#310 = EDGE_CURVE ( 'NONE', #81, #340, #623, .T. ) ;
#311 = CARTESIAN_POINT ( 'NONE',  ( 17.78893838435800134, 17.15275451141399898, 0.000000000000000000 ) ) ;
#312 = VERTEX_POINT ( 'NONE', #281 ) ;
#313 = FACE_OUTER_BOUND ( 'NONE', #705, .T. ) ;
#314 = AXIS2_PLACEMENT_3D ( 'NONE', #92, #22, #566 ) ;
#315 = LINE ( 'NONE', #187, #523 ) ;
#316 = LINE ( 'NONE', #500, #141 ) ;
#317 = ORIENTED_EDGE ( 'NONE', *, *, #185, .T. ) ;
#318 = ORIENTED_EDGE ( 'NONE', *, *, #62, .T. ) ;
#319 = DIRECTION ( 'NONE',  ( 1.000000000000000000, 0.000000000000000000, 0.000000000000000000 ) ) ;
#320 = FACE_OUTER_BOUND ( 'NONE', #735, .T. ) ;
#321 = ORIENTED_EDGE ( 'NONE', *, *, #573, .T. ) ;
#322 = ORIENTED_EDGE ( 'NONE', *, *, #607, .T. ) ;
#323 = DIRECTION ( 'NONE',  ( 0.000000000000000000, 1.000000000000000000, 0.000000000000000000 ) ) ;
#324 = CARTESIAN_POINT ( 'NONE',  ( 16.91974776178899731, 15.25015645872699999, 0.000000000000000000 ) ) ;
#325 =( GEOMETRIC_REPRESENTATION_CONTEXT ( 3 ) GLOBAL_UNCERTAINTY_ASSIGNED_CONTEXT ( ( #447 ) ) GLOBAL_UNIT_ASSIGNED_CONTEXT ( ( #268, #562, #832 ) ) REPRESENTATION_CONTEXT ( 'NONE', 'WORKASPACE' ) );
#326 = VECTOR ( 'NONE', #201, 999.9999999999998863 ) ;
#327 = VERTEX_POINT ( 'NONE', #225 ) ;
#328 = LINE ( 'NONE', #788, #213 ) ;
#329 = EDGE_CURVE ( 'NONE', #850, #403, #826, .T. ) ;
#330 = VECTOR ( 'NONE', #621, 1000.000000000000000 ) ;
#331 = ORIENTED_EDGE ( 'NONE', *, *, #714, .F. ) ;
#332 = DIRECTION ( 'NONE',  ( 0.000000000000000000, 0.000000000000000000, -1.000000000000000000 ) ) ;
#333 = LINE ( 'NONE', #344, #692 ) ;
#334 = CARTESIAN_POINT ( 'NONE',  ( 10.54847357736199953, 81.45425636641499523, 78.11388794575100292 ) ) ;
#335 = VECTOR ( 'NONE', #831, 1000.000000000000000 ) ;
#336 = ORIENTED_EDGE ( 'NONE', *, *, #105, .F. ) ;
#337 = DIRECTION ( 'NONE',  ( 0.000000000000000000, -0.1067833102699839720, -0.9942823163708507384 ) ) ;
#338 = SURFACE_STYLE_USAGE ( .BOTH. , #71 ) ;
#339 = EDGE_CURVE ( 'NONE', #403, #743, #628, .T. ) ;
#340 = VERTEX_POINT ( 'NONE', #215 ) ;
#341 = ADVANCED_FACE ( 'NONE', ( #758 ), #426, .F. ) ;
#342 = CARTESIAN_POINT ( 'NONE',  ( 10.54847357736199953, 70.27847541625199312, 89.28966889591400502 ) ) ;
#343 = VERTEX_POINT ( 'NONE', #418 ) ;
#344 = CARTESIAN_POINT ( 'NONE',  ( 0.000000000000000000, 11.91556122124000083, 85.84662577940798656 ) ) ;
#345 = EDGE_CURVE ( 'NONE', #620, #482, #619, .T. ) ;
#346 = ORIENTED_EDGE ( 'NONE', *, *, #84, .T. ) ;
#347 = ADVANCED_FACE ( 'NONE', ( #416, #90 ), #680, .F. ) ;
#348 = CARTESIAN_POINT ( 'NONE',  ( 3.515953574901999890, 11.91556122124000083, 85.84662577940798656 ) ) ;
#349 = LINE ( 'NONE', #746, #372 ) ;
#350 = ORIENTED_EDGE ( 'NONE', *, *, #284, .T. ) ;
#351 = LINE ( 'NONE', #151, #129 ) ;
#352 = APPLICATION_PROTOCOL_DEFINITION ( 'draft international standard', 'automotive_design', 1998, #796 ) ;
#353 = ORIENTED_EDGE ( 'NONE', *, *, #21, .T. ) ;
#354 = ADVANCED_FACE ( 'NONE', ( #687 ), #94, .T. ) ;
#355 = AXIS2_PLACEMENT_3D ( 'NONE', #324, #565, #387 ) ;
#356 = FACE_OUTER_BOUND ( 'NONE', #435, .T. ) ;
#357 =( NAMED_UNIT ( * ) SI_UNIT ( $, .STERADIAN. ) SOLID_ANGLE_UNIT ( ) );
#358 = LINE ( 'NONE', #848, #63 ) ;
#359 = ORIENTED_EDGE ( 'NONE', *, *, #741, .T. ) ;
#360 = CARTESIAN_POINT ( 'NONE',  ( 21.08433487799399941, 15.64727219166299754, 0.000000000000000000 ) ) ;
#361 = ORIENTED_EDGE ( 'NONE', *, *, #438, .F. ) ;
#362 = ADVANCED_FACE ( 'NONE', ( #107 ), #51, .F. ) ;
#363 = DIRECTION ( 'NONE',  ( 0.000000000000000000, 0.000000000000000000, -1.000000000000000000 ) ) ;
#364 = ORIENTED_EDGE ( 'NONE', *, *, #70, .T. ) ;
#365 = VECTOR ( 'NONE', #632, 1000.000000000000227 ) ;
#366 = VECTOR ( 'NONE', #479, 1000.000000000000000 ) ;
#367 = VECTOR ( 'NONE', #491, 1000.000000000000000 ) ;
#368 = DIRECTION ( 'NONE',  ( -0.5799494988809886786, 0.8146524281849837346, 0.000000000000000000 ) ) ;
#369 = EDGE_LOOP ( 'NONE', ( #514, #424, #579, #688 ) ) ;
#370 = CARTESIAN_POINT ( 'NONE',  ( 18.13285069732300059, 13.54611627250800154, 0.000000000000000000 ) ) ;
#371 = EDGE_CURVE ( 'NONE', #540, #829, #377, .T. ) ;
#372 = VECTOR ( 'NONE', #91, 1000.000000000000000 ) ;
#373 = EDGE_CURVE ( 'NONE', #312, #469, #859, .T. ) ;
#374 = LINE ( 'NONE', #634, #87 ) ;
#375 = CARTESIAN_POINT ( 'NONE',  ( 16.91974776178899731, 15.25015645872699999, 0.000000000000000000 ) ) ;
#376 = VERTEX_POINT ( 'NONE', #170 ) ;
#377 = LINE ( 'NONE', #836, #744 ) ;
#378 = CARTESIAN_POINT ( 'NONE',  ( 3.515953574901999890, 0.000000000000000000, 87.12632577002500511 ) ) ;
#379 = VERTEX_POINT ( 'NONE', #443 ) ;
#380 = CARTESIAN_POINT ( 'NONE',  ( 0.000000000000000000, 23.83112244248000167, 87.12632577002500511 ) ) ;
#381 = VECTOR ( 'NONE', #304, 1000.000000000000000 ) ;
#382 = CARTESIAN_POINT ( 'NONE',  ( 23.09737687486599711, 0.000000000000000000, 0.000000000000000000 ) ) ;
#383 = DIRECTION ( 'NONE',  ( -1.000000000000000000, 0.000000000000000000, 0.000000000000000000 ) ) ;
#384 = EDGE_LOOP ( 'NONE', ( #842, #346, #5 ) ) ;
#385 = ORIENTED_EDGE ( 'NONE', *, *, #233, .F. ) ;
#386 = DIRECTION ( 'NONE',  ( 0.000000000000000000, 0.000000000000000000, -1.000000000000000000 ) ) ;
#387 = DIRECTION ( 'NONE',  ( 0.000000000000000000, 0.000000000000000000, 1.000000000000000000 ) ) ;
#388 = CARTESIAN_POINT ( 'NONE',  ( 10.54847357736199953, 81.45425636641499523, 60.01242030289900242 ) ) ;
#389 = LINE ( 'NONE', #311, #857 ) ;
#390 = VERTEX_POINT ( 'NONE', #706 ) ;
#391 = CARTESIAN_POINT ( 'NONE',  ( 0.000000000000000000, 61.92035634112200171, 25.28961047197399736 ) ) ;
#392 = DIRECTION ( 'NONE',  ( 0.000000000000000000, 0.000000000000000000, -1.000000000000000000 ) ) ;
#393 = ORIENTED_EDGE ( 'NONE', *, *, #132, .F. ) ;
#394 = ORIENTED_EDGE ( 'NONE', *, *, #851, .T. ) ;
#395 = CARTESIAN_POINT ( 'NONE',  ( 0.000000000000000000, 0.000000000000000000, 0.000000000000000000 ) ) ;
#396 = AXIS2_PLACEMENT_3D ( 'NONE', #88, #19, #156 ) ;
#397 = CARTESIAN_POINT ( 'NONE',  ( 20.21514425542500248, 13.74467413897600032, 0.000000000000000000 ) ) ;
#398 = ORIENTED_EDGE ( 'NONE', *, *, #498, .F. ) ;
#399 = EDGE_CURVE ( 'NONE', #340, #390, #637, .T. ) ;
#400 = ORIENTED_EDGE ( 'NONE', *, *, #833, .F. ) ;
#401 = DIRECTION ( 'NONE',  ( -1.000000000000000000, 0.000000000000000000, 0.000000000000000000 ) ) ;
#402 = CARTESIAN_POINT ( 'NONE',  ( 19.87123194246000324, 17.35131237788199954, 0.000000000000000000 ) ) ;
#403 = VERTEX_POINT ( 'NONE', #183 ) ;
#404 = DIRECTION ( 'NONE',  ( 0.000000000000000000, 0.000000000000000000, 1.000000000000000000 ) ) ;
#405 = PRESENTATION_STYLE_ASSIGNMENT (( #338 ) ) ;
#406 = ORIENTED_EDGE ( 'NONE', *, *, #660, .F. ) ;
#407 = DIRECTION ( 'NONE',  ( 0.9095772130355430640, -0.4155349486222479904, 0.000000000000000000 ) ) ;
#408 = VECTOR ( 'NONE', #78, 1000.000000000000227 ) ;
#409 = CARTESIAN_POINT ( 'NONE',  ( 0.000000000000000000, 59.17091713986300050, 55.14664180074500166 ) ) ;
#410 = VECTOR ( 'NONE', #468, 1000.000000000000000 ) ;
#411 = ORIENTED_EDGE ( 'NONE', *, *, #728, .F. ) ;
#412 = LINE ( 'NONE', #135, #410 ) ;
#413 = AXIS2_PLACEMENT_3D ( 'NONE', #83, #475, #288 ) ;
#414 = ORIENTED_EDGE ( 'NONE', *, *, #866, .T. ) ;
#415 = EDGE_CURVE ( 'NONE', #726, #747, #247, .T. ) ;
#416 = FACE_BOUND ( 'NONE', #369, .T. ) ;
#417 = VERTEX_POINT ( 'NONE', #847 ) ;
#418 = CARTESIAN_POINT ( 'NONE',  ( 15.56288278521300050, 61.92035634112200171, 55.14664180074500166 ) ) ;
#419 = EDGE_LOOP ( 'NONE', ( #616, #149, #631, #282, #67, #506, #682, #318, #13, #557 ) ) ;
#420 = AXIS2_PLACEMENT_3D ( 'NONE', #727, #407, #332 ) ;
#421 = DIRECTION ( 'NONE',  ( 0.000000000000000000, 1.000000000000000000, -2.597991572295000288E-31 ) ) ;
#422 = EDGE_CURVE ( 'NONE', #1, #205, #717, .T. ) ;
#423 = CYLINDRICAL_SURFACE ( 'NONE', #314, 11.17578095016399864 ) ;
#424 = ORIENTED_EDGE ( 'NONE', *, *, #864, .F. ) ;
#425 = AXIS2_PLACEMENT_3D ( 'NONE', #853, #249, #689 ) ;
#426 = PLANE ( 'NONE',  #776 ) ;
#427 = EDGE_LOOP ( 'NONE', ( #240, #495, #106, #264 ) ) ;
#428 = ADVANCED_FACE ( 'NONE', ( #57 ), #234, .F. ) ;
#429 = DIRECTION ( 'NONE',  ( 0.000000000000000000, 0.000000000000000000, 1.000000000000000000 ) ) ;
#430 = DIRECTION ( 'NONE',  ( 1.000000000000000000, 0.000000000000000000, 0.000000000000000000 ) ) ;
#431 = VERTEX_POINT ( 'NONE', #780 ) ;
#432 = EDGE_CURVE ( 'NONE', #829, #245, #644, .T. ) ;
#433 = VECTOR ( 'NONE', #259, 1000.000000000000000 ) ;
#434 = VECTOR ( 'NONE', #524, 999.9999999999998863 ) ;
#435 = EDGE_LOOP ( 'NONE', ( #695, #136, #610, #861, #297, #33 ) ) ;
#436 = DIRECTION ( 'NONE',  ( -1.000000000000000000, 0.000000000000000000, 0.000000000000000000 ) ) ;
#437 = DIRECTION ( 'NONE',  ( 0.000000000000000000, 0.000000000000000000, -1.000000000000000000 ) ) ;
#438 = EDGE_CURVE ( 'NONE', #783, #856, #454, .T. ) ;
#439 = DIRECTION ( 'NONE',  ( 0.000000000000000000, 1.000000000000000000, 0.000000000000000000 ) ) ;
#440 = VERTEX_POINT ( 'NONE', #103 ) ;
#441 = DIRECTION ( 'NONE',  ( 1.000000000000000000, 0.000000000000000000, 0.000000000000000000 ) ) ;
#442 = EDGE_LOOP ( 'NONE', ( #691, #563, #85, #162, #865, #799, #400, #211 ) ) ;
#443 = CARTESIAN_POINT ( 'NONE',  ( 0.000000000000000000, 0.000000000000000000, 0.000000000000000000 ) ) ;
#444 = ORIENTED_EDGE ( 'NONE', *, *, #660, .T. ) ;
#445 = VERTEX_POINT ( 'NONE', #45 ) ;
#446 = VECTOR ( 'NONE', #244, 1000.000000000000000 ) ;
#447 = UNCERTAINTY_MEASURE_WITH_UNIT (LENGTH_MEASURE( 1.000000000000000082E-05 ), #268, 'distance_accuracy_value', 'NONE');
#448 = CARTESIAN_POINT ( 'NONE',  ( 3.515953574901999890, 23.83112244248000167, 87.12632577002500511 ) ) ;
#449 = DIRECTION ( 'NONE',  ( 0.000000000000000000, 0.000000000000000000, -1.000000000000000000 ) ) ;
#450 = EDGE_CURVE ( 'NONE', #482, #125, #374, .T. ) ;
#451 = EDGE_LOOP ( 'NONE', ( #716, #269, #406, #29 ) ) ;
#452 = VECTOR ( 'NONE', #56, 1000.000000000000000 ) ;
#453 = FACE_OUTER_BOUND ( 'NONE', #496, .T. ) ;
#454 = LINE ( 'NONE', #253, #434 ) ;
#455 = CARTESIAN_POINT ( 'NONE',  ( 10.54847357736199953, 81.45425636641499523, 89.28966889591400502 ) ) ;
#456 = ORIENTED_EDGE ( 'NONE', *, *, #173, .T. ) ;
#457 = LINE ( 'NONE', #3, #624 ) ;
#458 = ORIENTED_EDGE ( 'NONE', *, *, #498, .T. ) ;
#459 = ORIENTED_EDGE ( 'NONE', *, *, #256, .T. ) ;
#460 = EDGE_CURVE ( 'NONE', #625, #277, #316, .T. ) ;
#461 = CARTESIAN_POINT ( 'NONE',  ( 9.549239203303001133, 12.72762284817300049, 89.28966889591400502 ) ) ;
#462 = PLANE ( 'NONE',  #466 ) ;
#463 = STYLED_ITEM ( 'NONE', ( #405 ), #228 ) ;
#464 = DIRECTION ( 'NONE',  ( -0.8146524281849837346, -0.5799494988809886786, 0.000000000000000000 ) ) ;
#465 = ORIENTED_EDGE ( 'NONE', *, *, #486, .F. ) ;
#466 = AXIS2_PLACEMENT_3D ( 'NONE', #122, #386, #261 ) ;
#467 = DIRECTION ( 'NONE',  ( 0.000000000000000000, -0.9942823163708506273, 0.1067833102699839581 ) ) ;
#468 = DIRECTION ( 'NONE',  ( 0.000000000000000000, 0.000000000000000000, 1.000000000000000000 ) ) ;
#469 = VERTEX_POINT ( 'NONE', #511 ) ;
#470 = CARTESIAN_POINT ( 'NONE',  ( 0.000000000000000000, 59.17091713986300050, 25.28961047197399736 ) ) ;
#471 = CARTESIAN_POINT ( 'NONE',  ( 23.09737687486599711, 0.000000000000000000, 32.09542273765800502 ) ) ;
#472 = VERTEX_POINT ( 'NONE', #41 ) ;
#473 = AXIS2_PLACEMENT_3D ( 'NONE', #617, #553, #697 ) ;
#474 = CARTESIAN_POINT ( 'NONE',  ( 10.54847357736199953, 23.83112244248000167, 60.01242030289900242 ) ) ;
#475 = DIRECTION ( 'NONE',  ( 0.000000000000000000, 0.000000000000000000, 1.000000000000000000 ) ) ;
#476 = ORIENTED_EDGE ( 'NONE', *, *, #490, .T. ) ;
#477 = AXIS2_PLACEMENT_3D ( 'NONE', #602, #401, #538 ) ;
#478 = EDGE_CURVE ( 'NONE', #445, #783, #309, .T. ) ;
#479 = DIRECTION ( 'NONE',  ( 0.000000000000000000, 0.000000000000000000, 1.000000000000000000 ) ) ;
#480 = EDGE_LOOP ( 'NONE', ( #226, #646, #61, #721 ) ) ;
#481 = FACE_OUTER_BOUND ( 'NONE', #218, .T. ) ;
#482 = VERTEX_POINT ( 'NONE', #596 ) ;
#483 = EDGE_CURVE ( 'NONE', #445, #312, #358, .T. ) ;
#484 = CARTESIAN_POINT ( 'NONE',  ( 19.87123194246000324, 17.35131237788199954, 0.000000000000000000 ) ) ;
#485 = VERTEX_POINT ( 'NONE', #718 ) ;
#486 = EDGE_CURVE ( 'NONE', #561, #747, #606, .T. ) ;
#487 = CARTESIAN_POINT ( 'NONE',  ( 0.000000000000000000, 81.45425636641499523, 60.01242030289900242 ) ) ;
#488 = ORIENTED_EDGE ( 'NONE', *, *, #741, .F. ) ;
#489 = EDGE_LOOP ( 'NONE', ( #16, #792, #289, #819, #598, #549, #811 ) ) ;
#490 = EDGE_CURVE ( 'NONE', #245, #520, #257, .T. ) ;
#491 = DIRECTION ( 'NONE',  ( 0.5799494988809886786, -0.8146524281849837346, 0.000000000000000000 ) ) ;
#492 = CARTESIAN_POINT ( 'NONE',  ( 91.70475011642299989, 0.000000000000000000, 32.09542273765800502 ) ) ;
#493 = VERTEX_POINT ( 'NONE', #274 ) ;
#494 = CARTESIAN_POINT ( 'NONE',  ( 21.08433487799399941, 15.64727219166299754, 0.000000000000000000 ) ) ;
#495 = ORIENTED_EDGE ( 'NONE', *, *, #345, .T. ) ;
#496 = EDGE_LOOP ( 'NONE', ( #11, #531, #300, #593 ) ) ;
#497 = AXIS2_PLACEMENT_3D ( 'NONE', #790, #464, #719 ) ;
#498 = EDGE_CURVE ( 'NONE', #23, #856, #457, .T. ) ;
#499 = FACE_OUTER_BOUND ( 'NONE', #157, .T. ) ;
#500 = CARTESIAN_POINT ( 'NONE',  ( 0.000000000000000000, 81.45425636641499523, 89.28966889591400502 ) ) ;
#501 = CARTESIAN_POINT ( 'NONE',  ( 15.56288278521300050, 61.92035634112200171, 25.28961047197399736 ) ) ;
#502 = DIRECTION ( 'NONE',  ( 1.000000000000000000, 0.000000000000000000, 0.000000000000000000 ) ) ;
#503 = CARTESIAN_POINT ( 'NONE',  ( 15.56288278521300050, 59.17091713986300050, 55.14664180074500166 ) ) ;
#504 = CARTESIAN_POINT ( 'NONE',  ( 0.000000000000000000, 23.83112244248000167, 87.12632577002500511 ) ) ;
#505 = DIRECTION ( 'NONE',  ( 0.000000000000000000, 0.000000000000000000, -1.000000000000000000 ) ) ;
#506 = ORIENTED_EDGE ( 'NONE', *, *, #785, .F. ) ;
#507 = PRODUCT_DEFINITION_SHAPE ( 'NONE', 'NONE',  #305 ) ;
#508 = ORIENTED_EDGE ( 'NONE', *, *, #12, .F. ) ;
#509 = LINE ( 'NONE', #290, #365 ) ;
#510 = ADVANCED_FACE ( 'NONE', ( #658 ), #794, .F. ) ;
#511 = CARTESIAN_POINT ( 'NONE',  ( 10.54847357736199953, 23.83112244248000167, 60.01242030289900242 ) ) ;
#512 = CARTESIAN_POINT ( 'NONE',  ( 10.54847357736199953, 81.45425636641499523, 89.28966889591400502 ) ) ;
#513 = LINE ( 'NONE', #59, #543 ) ;
#514 = ORIENTED_EDGE ( 'NONE', *, *, #866, .F. ) ;
#515 = AXIS2_PLACEMENT_3D ( 'NONE', #576, #111, #702 ) ;
#516 = CARTESIAN_POINT ( 'NONE',  ( 20.21514425542500248, 13.74467413897600032, 0.000000000000000000 ) ) ;
#517 = VECTOR ( 'NONE', #138, 1000.000000000000000 ) ;
#518 = CARTESIAN_POINT ( 'NONE',  ( 18.28341684946899903, 13.33461668213799989, 89.28966889591400502 ) ) ;
#519 = VERTEX_POINT ( 'NONE', #594 ) ;
#520 = VERTEX_POINT ( 'NONE', #137 ) ;
#521 = DIRECTION ( 'NONE',  ( -1.000000000000000000, 0.000000000000000000, 0.000000000000000000 ) ) ;
#522 = EDGE_CURVE ( 'NONE', #747, #46, #533, .T. ) ;
#523 = VECTOR ( 'NONE', #323, 1000.000000000000000 ) ;
#524 = DIRECTION ( 'NONE',  ( 0.000000000000000000, -0.9942823163708507384, -0.1067833102699839720 ) ) ;
#525 = CARTESIAN_POINT ( 'NONE',  ( 0.000000000000000000, 11.91556122124000083, 85.84662577940798656 ) ) ;
#526 = DIRECTION ( 'NONE',  ( 1.000000000000000000, 0.000000000000000000, 0.000000000000000000 ) ) ;
#527 = EDGE_CURVE ( 'NONE', #567, #431, #2, .T. ) ;
#528 = EDGE_LOOP ( 'NONE', ( #414, #322, #699, #465 ) ) ;
#529 = CYLINDRICAL_SURFACE ( 'NONE', #292, 14.92851566438600130 ) ;
#530 = PLANE ( 'NONE',  #497 ) ;
#531 = ORIENTED_EDGE ( 'NONE', *, *, #486, .T. ) ;
#532 = DIRECTION ( 'NONE',  ( 1.000000000000000000, 0.000000000000000000, 0.000000000000000000 ) ) ;
#533 = CIRCLE ( 'NONE', #477, 14.92851566438600130 ) ;
#534 = PLANE ( 'NONE',  #14 ) ;
#535 = LINE ( 'NONE', #471, #433 ) ;
#536 = EDGE_LOOP ( 'NONE', ( #777, #739, #676, #537, #336, #544 ) ) ;
#537 = ORIENTED_EDGE ( 'NONE', *, *, #329, .F. ) ;
#538 = DIRECTION ( 'NONE',  ( 0.000000000000000000, 0.000000000000000000, -1.000000000000000000 ) ) ;
#539 = FACE_OUTER_BOUND ( 'NONE', #772, .T. ) ;
#540 = VERTEX_POINT ( 'NONE', #75 ) ;
#541 = AXIS2_PLACEMENT_3D ( 'NONE', #115, #383, #437 ) ;
#542 = DIRECTION ( 'NONE',  ( 0.000000000000000000, -1.000000000000000000, 0.000000000000000000 ) ) ;
#543 = VECTOR ( 'NONE', #787, 999.9999999999998863 ) ;
#544 = ORIENTED_EDGE ( 'NONE', *, *, #723, .F. ) ;
#545 = CARTESIAN_POINT ( 'NONE',  ( 0.000000000000000000, 59.17091713986300050, 55.14664180074500166 ) ) ;
#546 = AXIS2_PLACEMENT_3D ( 'NONE', #516, #39, #779 ) ;
#547 = ADVANCED_FACE ( 'NONE', ( #6 ), #529, .F. ) ;
#548 = LINE ( 'NONE', #360, #263 ) ;
#549 = ORIENTED_EDGE ( 'NONE', *, *, #123, .T. ) ;
#550 = ADVANCED_FACE ( 'NONE', ( #574 ), #164, .F. ) ;
#551 = ADVANCED_FACE ( 'NONE', ( #313 ), #246, .F. ) ;
#552 = ORIENTED_EDGE ( 'NONE', *, *, #209, .T. ) ;
#553 = DIRECTION ( 'NONE',  ( 0.000000000000000000, 0.000000000000000000, -1.000000000000000000 ) ) ;
#554 = DIRECTION ( 'NONE',  ( 0.4155349486222479904, 0.9095772130355430640, 0.000000000000000000 ) ) ;
#555 = PRODUCT_CONTEXT ( 'NONE', #796, 'mechanical' ) ;
#556 = CARTESIAN_POINT ( 'NONE',  ( 91.70475011642299989, 0.000000000000000000, 0.000000000000000000 ) ) ;
#557 = ORIENTED_EDGE ( 'NONE', *, *, #460, .T. ) ;
#558 = DIRECTION ( 'NONE',  ( 0.000000000000000000, 0.000000000000000000, 1.000000000000000000 ) ) ;
#559 = LINE ( 'NONE', #227, #330 ) ;
#560 = ORIENTED_EDGE ( 'NONE', *, *, #803, .T. ) ;
#561 = VERTEX_POINT ( 'NONE', #102 ) ;
#562 =( NAMED_UNIT ( * ) PLANE_ANGLE_UNIT ( ) SI_UNIT ( $, .RADIAN. ) );
#563 = ORIENTED_EDGE ( 'NONE', *, *, #70, .F. ) ;
#564 = EDGE_CURVE ( 'NONE', #195, #567, #55, .T. ) ;
#565 = DIRECTION ( 'NONE',  ( -0.9095772130355430640, 0.4155349486222479904, 0.000000000000000000 ) ) ;
#566 = DIRECTION ( 'NONE',  ( 0.000000000000000000, 0.000000000000000000, -1.000000000000000000 ) ) ;
#567 = VERTEX_POINT ( 'NONE', #121 ) ;
#568 = CARTESIAN_POINT ( 'NONE',  ( 0.000000000000000000, 81.45425636641499523, 0.000000000000000000 ) ) ;
#569 = VECTOR ( 'NONE', #505, 1000.000000000000000 ) ;
#570 = DIRECTION ( 'NONE',  ( -1.000000000000000000, 0.000000000000000000, 0.000000000000000000 ) ) ;
#571 = ORIENTED_EDGE ( 'NONE', *, *, #432, .F. ) ;
#572 = ORIENTED_EDGE ( 'NONE', *, *, #490, .F. ) ;
#573 = EDGE_CURVE ( 'NONE', #431, #726, #786, .T. ) ;
#574 = FACE_OUTER_BOUND ( 'NONE', #222, .T. ) ;
#575 = FACE_OUTER_BOUND ( 'NONE', #255, .T. ) ;
#576 = CARTESIAN_POINT ( 'NONE',  ( 3.515953574901999890, 11.91556122124000083, 87.91094264113199586 ) ) ;
#577 = LINE ( 'NONE', #306, #142 ) ;
#578 = EDGE_CURVE ( 'NONE', #343, #726, #101, .T. ) ;
#579 = ORIENTED_EDGE ( 'NONE', *, *, #527, .F. ) ;
#580 = LINE ( 'NONE', #380, #208 ) ;
#581 = CARTESIAN_POINT ( 'NONE',  ( 91.70475011642299989, 0.000000000000000000, 0.000000000000000000 ) ) ;
#582 = PLANE ( 'NONE',  #425 ) ;
#583 = DIRECTION ( 'NONE',  ( 0.000000000000000000, 0.000000000000000000, 1.000000000000000000 ) ) ;
#584 = ORIENTED_EDGE ( 'NONE', *, *, #284, .F. ) ;
#585 = EDGE_CURVE ( 'NONE', #390, #783, #580, .T. ) ;
#586 = AXIS2_PLACEMENT_3D ( 'NONE', #382, #303, #40 ) ;
#587 = VECTOR ( 'NONE', #651, 1000.000000000000000 ) ;
#588 = EDGE_CURVE ( 'NONE', #850, #482, #643, .T. ) ;
#589 = CARTESIAN_POINT ( 'NONE',  ( 0.000000000000000000, 23.83112244248000167, 60.01242030289900242 ) ) ;
#590 = AXIS2_PLACEMENT_3D ( 'NONE', #769, #436, #110 ) ;
#591 = CARTESIAN_POINT ( 'NONE',  ( 91.70475011642299989, 0.000000000000000000, 89.28966889591400502 ) ) ;
#592 = DIRECTION ( 'NONE',  ( 1.000000000000000000, 0.000000000000000000, 0.000000000000000000 ) ) ;
#593 = ORIENTED_EDGE ( 'NONE', *, *, #573, .F. ) ;
#594 = CARTESIAN_POINT ( 'NONE',  ( 23.09737687486599711, 81.45425636641499523, 0.000000000000000000 ) ) ;
#595 = AXIS2_PLACEMENT_3D ( 'NONE', #512, #502, #439 ) ;
#596 = CARTESIAN_POINT ( 'NONE',  ( 19.87123194246000324, 17.35131237788199954, 89.28966889591400502 ) ) ;
#597 = DIRECTION ( 'NONE',  ( 0.000000000000000000, 0.000000000000000000, -1.000000000000000000 ) ) ;
#598 = ORIENTED_EDGE ( 'NONE', *, *, #649, .F. ) ;
#599 = EDGE_CURVE ( 'NONE', #743, #417, #509, .T. ) ;
#600 = LINE ( 'NONE', #348, #326 ) ;
#601 = ORIENTED_EDGE ( 'NONE', *, *, #677, .T. ) ;
#602 = CARTESIAN_POINT ( 'NONE',  ( 15.56288278521300050, 59.17091713986300050, 40.21812613635900391 ) ) ;
#603 = FACE_OUTER_BOUND ( 'NONE', #384, .T. ) ;
#604 = APPLICATION_CONTEXT ( 'automotive_design' ) ;
#605 = ORIENTED_EDGE ( 'NONE', *, *, #139, .F. ) ;
#606 = LINE ( 'NONE', #470, #194 ) ;
#607 = EDGE_CURVE ( 'NONE', #195, #46, #279, .T. ) ;
#608 = VECTOR ( 'NONE', #229, 1000.000000000000000 ) ;
#609 = DIRECTION ( 'NONE',  ( 0.000000000000000000, 0.000000000000000000, 1.000000000000000000 ) ) ;
#610 = ORIENTED_EDGE ( 'NONE', *, *, #585, .T. ) ;
#611 = LINE ( 'NONE', #474, #24 ) ;
#612 = ORIENTED_EDGE ( 'NONE', *, *, #17, .F. ) ;
#613 = ADVANCED_FACE ( 'NONE', ( #740 ), #86, .T. ) ;
#614 = VECTOR ( 'NONE', #154, 1000.000000000000000 ) ;
#615 = CARTESIAN_POINT ( 'NONE',  ( 0.000000000000000000, 0.000000000000000000, 89.28966889591400502 ) ) ;
#616 = ORIENTED_EDGE ( 'NONE', *, *, #158, .F. ) ;
#617 = CARTESIAN_POINT ( 'NONE',  ( 57.40106349564499766, 40.72712818320800920, 32.09542273765800502 ) ) ;
#618 = ADVANCED_FACE ( 'NONE', ( #499 ), #237, .F. ) ;
#619 = LINE ( 'NONE', #754, #163 ) ;
#620 = VERTEX_POINT ( 'NONE', #308 ) ;
#621 = DIRECTION ( 'NONE',  ( 0.000000000000000000, 1.000000000000000000, 0.000000000000000000 ) ) ;
#622 = EDGE_LOOP ( 'NONE', ( #144, #760, #286, #552 ) ) ;
#623 = LINE ( 'NONE', #487, #614 ) ;
#624 = VECTOR ( 'NONE', #69, 1000.000000000000000 ) ;
#625 = VERTEX_POINT ( 'NONE', #219 ) ;
#626 = AXIS2_PLACEMENT_3D ( 'NONE', #402, #4, #66 ) ;
#627 = PLANE ( 'NONE',  #759 ) ;
#628 = LINE ( 'NONE', #494, #858 ) ;
#629 = ADVANCED_FACE ( 'NONE', ( #295 ), #224, .F. ) ;
#630 = FACE_OUTER_BOUND ( 'NONE', #480, .T. ) ;
#631 = ORIENTED_EDGE ( 'NONE', *, *, #200, .F. ) ;
#632 = DIRECTION ( 'NONE',  ( -0.9954844475033723938, -0.09492478485045542647, 0.000000000000000000 ) ) ;
#633 = AXIS2_PLACEMENT_3D ( 'NONE', #525, #337, #467 ) ;
#634 = CARTESIAN_POINT ( 'NONE',  ( 8.164180111286000852, 16.23498215384500298, 89.28966889591400502 ) ) ;
#635 = DIRECTION ( 'NONE',  ( 0.4155349486222479904, 0.9095772130355430640, 0.000000000000000000 ) ) ;
#636 = EDGE_LOOP ( 'NONE', ( #444, #100, #72, #661 ) ) ;
#637 = LINE ( 'NONE', #589, #381 ) ;
#638 = LINE ( 'NONE', #108, #175 ) ;
#639 = ADVANCED_FACE ( 'NONE', ( #153 ), #627, .T. ) ;
#640 = ORIENTED_EDGE ( 'NONE', *, *, #28, .F. ) ;
#641 = AXIS2_PLACEMENT_3D ( 'NONE', #852, #770, #392 ) ;
#642 = PRODUCT ( '20260414_160844_176', '20260414_160844_176', '', ( #555 ) ) ;
#643 = LINE ( 'NONE', #845, #731 ) ;
#644 = LINE ( 'NONE', #518, #657 ) ;
#645 = EDGE_CURVE ( 'NONE', #205, #625, #753, .T. ) ;
#646 = ORIENTED_EDGE ( 'NONE', *, *, #139, .T. ) ;
#647 = ORIENTED_EDGE ( 'NONE', *, *, #599, .T. ) ;
#648 = VECTOR ( 'NONE', #191, 1000.000000000000000 ) ;
#649 = EDGE_CURVE ( 'NONE', #379, #327, #757, .T. ) ;
#650 = DIRECTION ( 'NONE',  ( -1.000000000000000000, 0.000000000000000000, 0.000000000000000000 ) ) ;
#651 = DIRECTION ( 'NONE',  ( 1.000000000000000000, 0.000000000000000000, 0.000000000000000000 ) ) ;
#652 = ORIENTED_EDGE ( 'NONE', *, *, #12, .T. ) ;
#653 = CARTESIAN_POINT ( 'NONE',  ( 10.54847357736199953, 23.83112244248000167, 89.28966889591400502 ) ) ;
#654 = PLANE ( 'NONE',  #633 ) ;
#655 = ORIENTED_EDGE ( 'NONE', *, *, #273, .F. ) ;
#656 = ORIENTED_EDGE ( 'NONE', *, *, #578, .T. ) ;
#657 = VECTOR ( 'NONE', #243, 1000.000000000000000 ) ;
#658 = FACE_OUTER_BOUND ( 'NONE', #54, .T. ) ;
#659 = FACE_OUTER_BOUND ( 'NONE', #427, .T. ) ;
#660 = EDGE_CURVE ( 'NONE', #472, #125, #242, .T. ) ;
#661 = ORIENTED_EDGE ( 'NONE', *, *, #723, .T. ) ;
#662 = VECTOR ( 'NONE', #635, 1000.000000000000000 ) ;
#663 = DIRECTION ( 'NONE',  ( 0.000000000000000000, 0.000000000000000000, 1.000000000000000000 ) ) ;
#664 = SURFACE_STYLE_FILL_AREA ( #131 ) ;
#665 = ORIENTED_EDGE ( 'NONE', *, *, #522, .T. ) ;
#666 = CARTESIAN_POINT ( 'NONE',  ( 10.54847357736199953, 81.45425636641499523, 60.01242030289900242 ) ) ;
#667 = ADVANCED_FACE ( 'NONE', ( #453 ), #462, .F. ) ;
#668 = EDGE_LOOP ( 'NONE', ( #656, #114, #665, #601 ) ) ;
#669 = VECTOR ( 'NONE', #180, 1000.000000000000000 ) ;
#670 = LINE ( 'NONE', #725, #366 ) ;
#671 = DIRECTION ( 'NONE',  ( -1.000000000000000000, 0.000000000000000000, 0.000000000000000000 ) ) ;
#672 = ORIENTED_EDGE ( 'NONE', *, *, #483, .F. ) ;
#673 = VECTOR ( 'NONE', #134, 1000.000000000000000 ) ;
#674 = CARTESIAN_POINT ( 'NONE',  ( 17.78893838435800134, 17.15275451141399898, 89.28966889591400502 ) ) ;
#675 = EDGE_CURVE ( 'NONE', #417, #245, #795, .T. ) ;
#676 = ORIENTED_EDGE ( 'NONE', *, *, #339, .F. ) ;
#677 = EDGE_CURVE ( 'NONE', #46, #343, #315, .T. ) ;
#678 = ORIENTED_EDGE ( 'NONE', *, *, #585, .F. ) ;
#679 = AXIS2_PLACEMENT_3D ( 'NONE', #615, #429, #749 ) ;
#680 = PLANE ( 'NONE',  #396 ) ;
#681 = SHAPE_DEFINITION_REPRESENTATION ( #507, #18 ) ;
#682 = ORIENTED_EDGE ( 'NONE', *, *, #766, .F. ) ;
#683 = PLANE ( 'NONE',  #679 ) ;
#684 = APPLICATION_PROTOCOL_DEFINITION ( 'draft international standard', 'automotive_design', 1998, #604 ) ;
#685 = ORIENTED_EDGE ( 'NONE', *, *, #266, .F. ) ;
#686 = DIRECTION ( 'NONE',  ( 1.000000000000000000, 0.000000000000000000, 0.000000000000000000 ) ) ;
#687 = FACE_OUTER_BOUND ( 'NONE', #77, .T. ) ;
#688 = ORIENTED_EDGE ( 'NONE', *, *, #564, .F. ) ;
#689 = DIRECTION ( 'NONE',  ( 1.000000000000000000, 0.000000000000000000, 0.000000000000000000 ) ) ;
#690 = VECTOR ( 'NONE', #319, 1000.000000000000000 ) ;
#691 = ORIENTED_EDGE ( 'NONE', *, *, #64, .F. ) ;
#692 = VECTOR ( 'NONE', #193, 999.9999999999998863 ) ;
#693 = VECTOR ( 'NONE', #238, 1000.000000000000000 ) ;
#694 = DIRECTION ( 'NONE',  ( 0.000000000000000000, 0.000000000000000000, -1.000000000000000000 ) ) ;
#695 = ORIENTED_EDGE ( 'NONE', *, *, #132, .T. ) ;
#696 = ADVANCED_FACE ( 'NONE', ( #575 ), #50, .T. ) ;
#697 = DIRECTION ( 'NONE',  ( 0.000000000000000000, -1.000000000000000000, 0.000000000000000000 ) ) ;
#698 = CARTESIAN_POINT ( 'NONE',  ( 23.09737687486599711, 0.000000000000000000, 32.09542273765800502 ) ) ;
#699 = ORIENTED_EDGE ( 'NONE', *, *, #522, .F. ) ;
#700 = ADVANCED_FACE ( 'NONE', ( #630 ), #423, .F. ) ;
#701 = DIRECTION ( 'NONE',  ( -1.000000000000000000, 0.000000000000000000, 0.000000000000000000 ) ) ;
#702 = DIRECTION ( 'NONE',  ( 0.000000000000000000, 0.000000000000000000, 1.000000000000000000 ) ) ;
#703 = CARTESIAN_POINT ( 'NONE',  ( 0.000000000000000000, 11.91556122124000083, 85.84662577940798656 ) ) ;
#704 = LINE ( 'NONE', #119, #722 ) ;
#705 = EDGE_LOOP ( 'NONE', ( #755, #476, #508, #647 ) ) ;
#706 = CARTESIAN_POINT ( 'NONE',  ( 0.000000000000000000, 23.83112244248000167, 87.12632577002500511 ) ) ;
#707 = ORIENTED_EDGE ( 'NONE', *, *, #273, .T. ) ;
#708 = PLANE ( 'NONE',  #47 ) ;
#709 = VERTEX_POINT ( 'NONE', #492 ) ;
#710 = VECTOR ( 'NONE', #846, 1000.000000000000000 ) ;
#711 = DIRECTION ( 'NONE',  ( 0.000000000000000000, 0.000000000000000000, 1.000000000000000000 ) ) ;
#712 = LINE ( 'NONE', #378, #778 ) ;
#713 = ORIENTED_EDGE ( 'NONE', *, *, #158, .T. ) ;
#714 = EDGE_CURVE ( 'NONE', #109, #519, #99, .T. ) ;
#715 = DIRECTION ( 'NONE',  ( 1.000000000000000000, 0.000000000000000000, 0.000000000000000000 ) ) ;
#716 = ORIENTED_EDGE ( 'NONE', *, *, #588, .T. ) ;
#717 = CIRCLE ( 'NONE', #541, 11.17578095016399864 ) ;
#718 = CARTESIAN_POINT ( 'NONE',  ( 3.515953574901999890, 0.000000000000000000, 89.28966889591400502 ) ) ;
#719 = DIRECTION ( 'NONE',  ( -0.5799494988809886786, 0.8146524281849837346, 0.000000000000000000 ) ) ;
#720 = DIRECTION ( 'NONE',  ( 0.000000000000000000, -1.000000000000000000, 0.000000000000000000 ) ) ;
#721 = ORIENTED_EDGE ( 'NONE', *, *, #62, .F. ) ;
#722 = VECTOR ( 'NONE', #671, 1000.000000000000000 ) ;
#723 = EDGE_CURVE ( 'NONE', #540, #472, #161, .T. ) ;
#724 = DIRECTION ( 'NONE',  ( -1.000000000000000000, 0.000000000000000000, 0.000000000000000000 ) ) ;
#725 = CARTESIAN_POINT ( 'NONE',  ( 23.09737687486599711, 81.45425636641499523, 0.000000000000000000 ) ) ;
#726 = VERTEX_POINT ( 'NONE', #501 ) ;
#727 = CARTESIAN_POINT ( 'NONE',  ( 21.08433487799399941, 15.64727219166299754, 0.000000000000000000 ) ) ;
#728 = EDGE_CURVE ( 'NONE', #709, #493, #764, .T. ) ;
#729 = LINE ( 'NONE', #342, #517 ) ;
#730 = ORIENTED_EDGE ( 'NONE', *, *, #64, .T. ) ;
#731 = VECTOR ( 'NONE', #241, 1000.000000000000000 ) ;
#732 = ADVANCED_FACE ( 'NONE', ( #751 ), #838, .F. ) ;
#733 = AXIS2_PLACEMENT_3D ( 'NONE', #666, #597, #542 ) ;
#734 = CARTESIAN_POINT ( 'NONE',  ( 10.54847357736199953, 81.45425636641499523, 89.28966889591400502 ) ) ;
#735 = EDGE_LOOP ( 'NONE', ( #331, #640, #302, #456 ) ) ;
#736 = EDGE_CURVE ( 'NONE', #109, #35, #258, .T. ) ;
#737 = VECTOR ( 'NONE', #650, 1000.000000000000000 ) ;
#738 = CARTESIAN_POINT ( 'NONE',  ( 0.000000000000000000, 0.000000000000000000, 87.12632577002500511 ) ) ;
#739 = ORIENTED_EDGE ( 'NONE', *, *, #599, .F. ) ;
#740 = FACE_OUTER_BOUND ( 'NONE', #622, .T. ) ;
#741 = EDGE_CURVE ( 'NONE', #493, #277, #192, .T. ) ;
#742 = DIRECTION ( 'NONE',  ( 0.000000000000000000, 0.000000000000000000, 1.000000000000000000 ) ) ;
#743 = VERTEX_POINT ( 'NONE', #397 ) ;
#744 = VECTOR ( 'NONE', #711, 1000.000000000000000 ) ;
#745 = DIRECTION ( 'NONE',  ( 1.000000000000000000, 0.000000000000000000, 0.000000000000000000 ) ) ;
#746 = CARTESIAN_POINT ( 'NONE',  ( 0.000000000000000000, 61.92035634112200171, 25.28961047197399736 ) ) ;
#747 = VERTEX_POINT ( 'NONE', #197 ) ;
#748 = DIRECTION ( 'NONE',  ( -0.000000000000000000, 1.000000000000000000, 0.000000000000000000 ) ) ;
#749 = DIRECTION ( 'NONE',  ( 1.000000000000000000, 0.000000000000000000, 0.000000000000000000 ) ) ;
#750 = VECTOR ( 'NONE', #178, 1000.000000000000000 ) ;
#751 = FACE_OUTER_BOUND ( 'NONE', #752, .T. ) ;
#752 = EDGE_LOOP ( 'NONE', ( #155, #394, #260, #816, #385 ) ) ;
#753 = LINE ( 'NONE', #31, #335 ) ;
#754 = CARTESIAN_POINT ( 'NONE',  ( 20.62834956237299977, 16.28779269440299871, 89.28966889591400502 ) ) ;
#755 = ORIENTED_EDGE ( 'NONE', *, *, #675, .T. ) ;
#756 = ADVANCED_FACE ( 'NONE', ( #781 ), #654, .F. ) ;
#757 = LINE ( 'NONE', #395, #710 ) ;
#758 = FACE_OUTER_BOUND ( 'NONE', #133, .T. ) ;
#759 = AXIS2_PLACEMENT_3D ( 'NONE', #835, #570, #558 ) ;
#760 = ORIENTED_EDGE ( 'NONE', *, *, #169, .T. ) ;
#761 = VECTOR ( 'NONE', #592, 1000.000000000000000 ) ;
#762 = ADVANCED_FACE ( 'NONE', ( #603 ), #534, .T. ) ;
#763 = DIRECTION ( 'NONE',  ( 0.000000000000000000, 0.000000000000000000, -1.000000000000000000 ) ) ;
#764 = LINE ( 'NONE', #556, #68 ) ;
#765 = CARTESIAN_POINT ( 'NONE',  ( 0.000000000000000000, 81.45425636641499523, 60.01242030289900242 ) ) ;
#766 = EDGE_CURVE ( 'NONE', #834, #48, #774, .T. ) ;
#767 = VECTOR ( 'NONE', #840, 1000.000000000000000 ) ;
#768 = ORIENTED_EDGE ( 'NONE', *, *, #209, .F. ) ;
#769 = CARTESIAN_POINT ( 'NONE',  ( 15.56288278521300050, 61.92035634112200171, 40.21812613635900391 ) ) ;
#770 = DIRECTION ( 'NONE',  ( -1.000000000000000000, 0.000000000000000000, 0.000000000000000000 ) ) ;
#771 = CARTESIAN_POINT ( 'NONE',  ( 10.54847357736199953, 81.45425636641499523, 60.01242030289900242 ) ) ;
#772 = EDGE_LOOP ( 'NONE', ( #272, #802, #824, #560 ) ) ;
#773 = CARTESIAN_POINT ( 'NONE',  ( 15.56288278521300050, 61.92035634112200171, 25.28961047197399736 ) ) ;
#774 = LINE ( 'NONE', #267, #104 ) ;
#775 = LINE ( 'NONE', #43, #280 ) ;
#776 = AXIS2_PLACEMENT_3D ( 'NONE', #815, #742, #745 ) ;
#777 = ORIENTED_EDGE ( 'NONE', *, *, #803, .F. ) ;
#778 = VECTOR ( 'NONE', #583, 1000.000000000000000 ) ;
#779 = DIRECTION ( 'NONE',  ( 0.000000000000000000, 0.000000000000000000, -1.000000000000000000 ) ) ;
#780 = CARTESIAN_POINT ( 'NONE',  ( 0.000000000000000000, 61.92035634112200171, 25.28961047197399736 ) ) ;
#781 = FACE_OUTER_BOUND ( 'NONE', #146, .T. ) ;
#782 = DIRECTION ( 'NONE',  ( -0.09492478485045544034, 0.9954844475033725049, 0.000000000000000000 ) ) ;
#783 = VERTEX_POINT ( 'NONE', #448 ) ;
#784 = AXIS2_PLACEMENT_3D ( 'NONE', #581, #430, #828 ) ;
#785 = EDGE_CURVE ( 'NONE', #48, #81, #117, .T. ) ;
#786 = LINE ( 'NONE', #391, #690 ) ;
#787 = DIRECTION ( 'NONE',  ( 0.000000000000000000, -0.9942823163708507384, -0.1067833102699839720 ) ) ;
#788 = CARTESIAN_POINT ( 'NONE',  ( 10.54847357736199953, 81.45425636641499523, 60.01242030289900242 ) ) ;
#789 = ORIENTED_EDGE ( 'NONE', *, *, #607, .F. ) ;
#790 = CARTESIAN_POINT ( 'NONE',  ( 18.13285069732300059, 13.54611627250800154, 0.000000000000000000 ) ) ;
#791 = CARTESIAN_POINT ( 'NONE',  ( 91.70475011642299989, 81.45425636641499523, 32.09542273765800502 ) ) ;
#792 = ORIENTED_EDGE ( 'NONE', *, *, #399, .F. ) ;
#793 = AXIS2_PLACEMENT_3D ( 'NONE', #285, #421, #82 ) ;
#794 = PLANE ( 'NONE',  #420 ) ;
#795 = LINE ( 'NONE', #196, #452 ) ;
#796 = APPLICATION_CONTEXT ( 'automotive_design' ) ;
#797 = CARTESIAN_POINT ( 'NONE',  ( 43.39315584424499406, 76.84314991240000836, 84.67856244189999870 ) ) ;
#798 = DIRECTION ( 'NONE',  ( 0.000000000000000000, -1.000000000000000000, 0.000000000000000000 ) ) ;
#799 = ORIENTED_EDGE ( 'NONE', *, *, #736, .T. ) ;
#800 = ADVANCED_FACE ( 'NONE', ( #52, #320 ), #582, .F. ) ;
#801 = CARTESIAN_POINT ( 'NONE',  ( 91.70475011642299989, 81.45425636641499523, 32.09542273765800502 ) ) ;
#802 = ORIENTED_EDGE ( 'NONE', *, *, #432, .T. ) ;
#803 = EDGE_CURVE ( 'NONE', #417, #540, #27, .T. ) ;
#804 = CARTESIAN_POINT ( 'NONE',  ( 0.000000000000000000, 61.92035634112200171, 40.21812613635900391 ) ) ;
#805 = FILL_AREA_STYLE_COLOUR ( '', #206 ) ;
#806 = EDGE_LOOP ( 'NONE', ( #296, #321, #251, #825 ) ) ;
#807 = VECTOR ( 'NONE', #554, 1000.000000000000000 ) ;
#808 = VECTOR ( 'NONE', #609, 1000.000000000000000 ) ;
#809 = CARTESIAN_POINT ( 'NONE',  ( 23.09737687486599711, 81.45425636641499523, 32.09542273765800502 ) ) ;
#810 = VECTOR ( 'NONE', #694, 1000.000000000000000 ) ;
#811 = ORIENTED_EDGE ( 'NONE', *, *, #185, .F. ) ;
#812 = DIRECTION ( 'NONE',  ( 1.000000000000000000, 0.000000000000000000, 0.000000000000000000 ) ) ;
#813 = EDGE_CURVE ( 'NONE', #327, #81, #34, .T. ) ;
#814 =( GEOMETRIC_REPRESENTATION_CONTEXT ( 3 ) GLOBAL_UNCERTAINTY_ASSIGNED_CONTEXT ( ( #58 ) ) GLOBAL_UNIT_ASSIGNED_CONTEXT ( ( #216, #822, #357 ) ) REPRESENTATION_CONTEXT ( 'NONE', 'WORKASPACE' ) );
#815 = CARTESIAN_POINT ( 'NONE',  ( 0.000000000000000000, 59.17091713986300050, 55.14664180074500166 ) ) ;
#816 = ORIENTED_EDGE ( 'NONE', *, *, #21, .F. ) ;
#817 = DIRECTION ( 'NONE',  ( -1.000000000000000000, 0.000000000000000000, 0.000000000000000000 ) ) ;
#818 = CARTESIAN_POINT ( 'NONE',  ( 3.515953574901999890, 11.91556122124000083, 85.84662577940798656 ) ) ;
#819 = ORIENTED_EDGE ( 'NONE', *, *, #813, .F. ) ;
#820 = CLOSED_SHELL ( 'NONE', ( #639, #700, #762, #38, #181, #510, #551, #212, #428, #732, #613, #618, #294, #696, #354, #547, #667, #362, #341, #830, #190, #800, #275, #629, #550, #756, #347 ) ) ;
#821 = CARTESIAN_POINT ( 'NONE',  ( 91.70475011642299989, 81.45425636641499523, 89.28966889591400502 ) ) ;
#822 =( NAMED_UNIT ( * ) PLANE_ANGLE_UNIT ( ) SI_UNIT ( $, .RADIAN. ) );
#823 = DIRECTION ( 'NONE',  ( 0.000000000000000000, 0.000000000000000000, 1.000000000000000000 ) ) ;
#824 = ORIENTED_EDGE ( 'NONE', *, *, #675, .F. ) ;
#825 = ORIENTED_EDGE ( 'NONE', *, *, #113, .F. ) ;
#826 = LINE ( 'NONE', #484, #367 ) ;
#827 = CIRCLE ( 'NONE', #843, 14.92851566438600130 ) ;
#828 = DIRECTION ( 'NONE',  ( 0.000000000000000000, 1.000000000000000000, 0.000000000000000000 ) ) ;
#829 = VERTEX_POINT ( 'NONE', #301 ) ;
#830 = ADVANCED_FACE ( 'NONE', ( #236 ), #708, .T. ) ;
#831 = DIRECTION ( 'NONE',  ( 0.000000000000000000, 1.000000000000000000, 0.000000000000000000 ) ) ;
#832 =( NAMED_UNIT ( * ) SI_UNIT ( $, .STERADIAN. ) SOLID_ANGLE_UNIT ( ) );
#833 = EDGE_CURVE ( 'NONE', #709, #35, #704, .T. ) ;
#834 = VERTEX_POINT ( 'NONE', #334 ) ;
#835 = CARTESIAN_POINT ( 'NONE',  ( 15.56288278521300050, 60.54563674049300204, 40.21812613635900391 ) ) ;
#836 = CARTESIAN_POINT ( 'NONE',  ( 16.91974776178899731, 15.25015645872699999, 0.000000000000000000 ) ) ;
#837 = CIRCLE ( 'NONE', #60, 11.17578095016399864 ) ;
#838 = PLANE ( 'NONE',  #595 ) ;
#839 = DIRECTION ( 'NONE',  ( 0.000000000000000000, -1.000000000000000000, 0.000000000000000000 ) ) ;
#840 = DIRECTION ( 'NONE',  ( -0.5799494988809886786, 0.8146524281849837346, 0.000000000000000000 ) ) ;
#841 = CARTESIAN_POINT ( 'NONE',  ( 3.515953574901999890, 23.83112244248000167, 89.28966889591400502 ) ) ;
#842 = ORIENTED_EDGE ( 'NONE', *, *, #645, .T. ) ;
#843 = AXIS2_PLACEMENT_3D ( 'NONE', #221, #20, #80 ) ;
#844 = VERTEX_POINT ( 'NONE', #791 ) ;
#845 = CARTESIAN_POINT ( 'NONE',  ( 19.87123194246000324, 17.35131237788199954, 0.000000000000000000 ) ) ;
#846 = DIRECTION ( 'NONE',  ( 0.000000000000000000, 1.000000000000000000, 0.000000000000000000 ) ) ;
#847 = CARTESIAN_POINT ( 'NONE',  ( 18.13285069732300059, 13.54611627250800154, 0.000000000000000000 ) ) ;
#848 = CARTESIAN_POINT ( 'NONE',  ( 0.000000000000000000, 23.83112244248000167, 89.28966889591400502 ) ) ;
#849 = LINE ( 'NONE', #455, #74 ) ;
#850 = VERTEX_POINT ( 'NONE', #271 ) ;
#851 = EDGE_CURVE ( 'NONE', #48, #469, #328, .T. ) ;
#852 = CARTESIAN_POINT ( 'NONE',  ( 0.000000000000000000, 59.17091713986300050, 40.21812613635900391 ) ) ;
#853 = CARTESIAN_POINT ( 'NONE',  ( 0.000000000000000000, 0.000000000000000000, 0.000000000000000000 ) ) ;
#854 = LINE ( 'NONE', #250, #761 ) ;
#855 = VECTOR ( 'NONE', #812, 1000.000000000000000 ) ;
#856 = VERTEX_POINT ( 'NONE', #818 ) ;
#857 = VECTOR ( 'NONE', #128, 1000.000000000000227 ) ;
#858 = VECTOR ( 'NONE', #98, 1000.000000000000000 ) ;
#859 = LINE ( 'NONE', #653, #810 ) ;
#860 = FACE_OUTER_BOUND ( 'NONE', #451, .T. ) ;
#861 = ORIENTED_EDGE ( 'NONE', *, *, #478, .F. ) ;
#862 = DIRECTION ( 'NONE',  ( 0.000000000000000000, 0.000000000000000000, -1.000000000000000000 ) ) ;
#863 = LINE ( 'NONE', #867, #808 ) ;
#864 = EDGE_CURVE ( 'NONE', #431, #561, #349, .T. ) ;
#865 = ORIENTED_EDGE ( 'NONE', *, *, #28, .T. ) ;
#866 = EDGE_CURVE ( 'NONE', #561, #195, #827, .T. ) ;
#867 = CARTESIAN_POINT ( 'NONE',  ( 91.70475011642299989, 81.45425636641499523, 0.000000000000000000 ) ) ;
ENDSEC;
END-ISO-10303-21;
