ISO-10303-21;
HEADER;
FILE_DESCRIPTION (( 'STEP AP214' ),
    '1' );
FILE_NAME ('20260414_160844_120.STEP',
    '2026-04-16T15:02:11',
    ( '' ),
    ( '' ),
    'SwSTEP 2.0',
    'SolidWorks 2025',
    '' );
FILE_SCHEMA (( 'AUTOMOTIVE_DESIGN' ));
ENDSEC;

DATA;
#1 = EDGE_CURVE ( 'NONE', #991, #820, #267, .T. ) ;
#2 = ORIENTED_EDGE ( 'NONE', *, *, #605, .F. ) ;
#3 = ORIENTED_EDGE ( 'NONE', *, *, #1020, .T. ) ;
#4 = LINE ( 'NONE', #250, #88 ) ;
#5 = DIRECTION ( 'NONE',  ( -0.9597052361316267266, -0.2810086470938903958, 0.000000000000000000 ) ) ;
#6 = DIRECTION ( 'NONE',  ( 1.000000000000000000, 0.000000000000000000, 0.000000000000000000 ) ) ;
#7 = EDGE_LOOP ( 'NONE', ( #728, #1032, #91, #867, #825, #144 ) ) ;
#8 = CARTESIAN_POINT ( 'NONE',  ( 2.631031265587000068, 9.492120001274999552, 26.03331470109900181 ) ) ;
#9 = CARTESIAN_POINT ( 'NONE',  ( 89.48666387701000247, 0.000000000000000000, 0.000000000000000000 ) ) ;
#10 = DIRECTION ( 'NONE',  ( -1.000000000000000000, 0.000000000000000000, 0.000000000000000000 ) ) ;
#11 = ORIENTED_EDGE ( 'NONE', *, *, #909, .T. ) ;
#12 =( LENGTH_UNIT ( ) NAMED_UNIT ( * ) SI_UNIT ( .MILLI., .METRE. ) );
#13 = EDGE_CURVE ( 'NONE', #996, #898, #424, .T. ) ;
#14 = VECTOR ( 'NONE', #454, 1000.000000000000000 ) ;
#15 = AXIS2_PLACEMENT_3D ( 'NONE', #336, #20, #665 ) ;
#16 = AXIS2_PLACEMENT_3D ( 'NONE', #499, #834, #822 ) ;
#17 = DIRECTION ( 'NONE',  ( 1.000000000000000000, 0.000000000000000000, 0.000000000000000000 ) ) ;
#18 = VECTOR ( 'NONE', #1049, 1000.000000000000000 ) ;
#19 = DIRECTION ( 'NONE',  ( 1.000000000000000000, 0.000000000000000000, 0.000000000000000000 ) ) ;
#20 = DIRECTION ( 'NONE',  ( 0.000000000000000000, 0.000000000000000000, 1.000000000000000000 ) ) ;
#21 = ORIENTED_EDGE ( 'NONE', *, *, #1053, .F. ) ;
#22 = CARTESIAN_POINT ( 'NONE',  ( 0.000000000000000000, 32.66201643535800514, 2.285296733156000570 ) ) ;
#23 = ADVANCED_FACE ( 'NONE', ( #756 ), #263, .F. ) ;
#24 = DIRECTION ( 'NONE',  ( 0.000000000000000000, -1.000000000000000000, 0.000000000000000000 ) ) ;
#25 = DIRECTION ( 'NONE',  ( -0.2810086470938903958, 0.9597052361316267266, 0.000000000000000000 ) ) ;
#26 = ORIENTED_EDGE ( 'NONE', *, *, #805, .T. ) ;
#27 = CARTESIAN_POINT ( 'NONE',  ( 6.294352401341999581, 0.000000000000000000, 0.000000000000000000 ) ) ;
#28 = ADVANCED_FACE ( 'NONE', ( #678 ), #341, .T. ) ;
#29 = CARTESIAN_POINT ( 'NONE',  ( 89.48666387701000247, 18.06092798281100187, 6.443264998540000121 ) ) ;
#30 = LINE ( 'NONE', #352, #411 ) ;
#31 = EDGE_LOOP ( 'NONE', ( #85, #773, #797, #643, #405, #821, #366, #66, #966 ) ) ;
#32 = ORIENTED_EDGE ( 'NONE', *, *, #618, .F. ) ;
#33 = CARTESIAN_POINT ( 'NONE',  ( 89.48666387701000247, 0.000000000000000000, 27.21653698530500165 ) ) ;
#34 = FACE_OUTER_BOUND ( 'NONE', #417, .T. ) ;
#35 = VECTOR ( 'NONE', #41, 999.9999999999998863 ) ;
#36 = DIRECTION ( 'NONE',  ( -0.9716334381817480770, 0.2364919909999390335, 0.000000000000000000 ) ) ;
#37 = AXIS2_PLACEMENT_3D ( 'NONE', #709, #714, #49 ) ;
#38 = EDGE_CURVE ( 'NONE', #328, #980, #416, .T. ) ;
#39 = ORIENTED_EDGE ( 'NONE', *, *, #115, .T. ) ;
#40 = CARTESIAN_POINT ( 'NONE',  ( 89.48666387701000247, 0.000000000000000000, 24.36832248840200066 ) ) ;
#41 = DIRECTION ( 'NONE',  ( 0.2810086470938903958, -0.9597052361316267266, 0.000000000000000000 ) ) ;
#42 =( NAMED_UNIT ( * ) SI_UNIT ( $, .STERADIAN. ) SOLID_ANGLE_UNIT ( ) );
#43 = CARTESIAN_POINT ( 'NONE',  ( 70.28647335028399823, 0.000000000000000000, 29.21653698530499810 ) ) ;
#44 = EDGE_LOOP ( 'NONE', ( #498, #556, #789, #342 ) ) ;
#45 = CARTESIAN_POINT ( 'NONE',  ( 3.814826344476999864, 18.33471379983699734, 0.000000000000000000 ) ) ;
#46 = DIRECTION ( 'NONE',  ( 0.000000000000000000, -1.000000000000000000, 0.000000000000000000 ) ) ;
#47 = DIRECTION ( 'NONE',  ( 0.9402831700331507614, -0.3403932434000544460, 0.000000000000000000 ) ) ;
#48 = ORIENTED_EDGE ( 'NONE', *, *, #558, .T. ) ;
#49 = DIRECTION ( 'NONE',  ( 0.000000000000000000, 0.000000000000000000, 1.000000000000000000 ) ) ;
#50 = ADVANCED_FACE ( 'NONE', ( #592, #930 ), #438, .T. ) ;
#51 = ADVANCED_FACE ( 'NONE', ( #186 ), #513, .F. ) ;
#52 = LINE ( 'NONE', #521, #886 ) ;
#53 = LINE ( 'NONE', #302, #631 ) ;
#54 = VECTOR ( 'NONE', #237, 1000.000000000000000 ) ;
#55 = ORIENTED_EDGE ( 'NONE', *, *, #253, .F. ) ;
#56 = DIRECTION ( 'NONE',  ( -0.000000000000000000, 1.000000000000000000, 0.000000000000000000 ) ) ;
#57 = LINE ( 'NONE', #383, #243 ) ;
#58 = EDGE_CURVE ( 'NONE', #733, #685, #353, .T. ) ;
#59 = CARTESIAN_POINT ( 'NONE',  ( 0.000000000000000000, 25.45999248556299932, 13.32504156186099920 ) ) ;
#60 = UNCERTAINTY_MEASURE_WITH_UNIT (LENGTH_MEASURE( 1.000000000000000082E-05 ), #12, 'distance_accuracy_value', 'NONE');
#61 = ORIENTED_EDGE ( 'NONE', *, *, #547, .T. ) ;
#62 = CARTESIAN_POINT ( 'NONE',  ( 0.000000000000000000, 0.000000000000000000, 0.000000000000000000 ) ) ;
#63 = EDGE_CURVE ( 'NONE', #347, #979, #168, .T. ) ;
#64 = DIRECTION ( 'NONE',  ( 0.000000000000000000, 0.000000000000000000, -1.000000000000000000 ) ) ;
#65 = ORIENTED_EDGE ( 'NONE', *, *, #430, .F. ) ;
#66 = ORIENTED_EDGE ( 'NONE', *, *, #620, .F. ) ;
#67 = LINE ( 'NONE', #163, #582 ) ;
#68 = ORIENTED_EDGE ( 'NONE', *, *, #660, .F. ) ;
#69 = EDGE_CURVE ( 'NONE', #672, #194, #272, .T. ) ;
#70 = VECTOR ( 'NONE', #458, 1000.000000000000000 ) ;
#71 = VECTOR ( 'NONE', #482, 1000.000000000000000 ) ;
#72 = ORIENTED_EDGE ( 'NONE', *, *, #480, .T. ) ;
#73 = PLANE ( 'NONE',  #343 ) ;
#74 = ORIENTED_EDGE ( 'NONE', *, *, #82, .T. ) ;
#75 = ORIENTED_EDGE ( 'NONE', *, *, #261, .F. ) ;
#76 = DIRECTION ( 'NONE',  ( 0.000000000000000000, -0.6728917613040608092, 0.7397409530160667934 ) ) ;
#77 = CARTESIAN_POINT ( 'NONE',  ( 2.112956358327000128, 8.680797021892001197, 26.03331470109900181 ) ) ;
#78 = ORIENTED_EDGE ( 'NONE', *, *, #395, .T. ) ;
#79 = EDGE_LOOP ( 'NONE', ( #813, #1007, #128, #910, #445, #1021, #235, #986 ) ) ;
#80 = CARTESIAN_POINT ( 'NONE',  ( 0.000000000000000000, 0.000000000000000000, 0.000000000000000000 ) ) ;
#81 = EDGE_CURVE ( 'NONE', #874, #792, #257, .T. ) ;
#82 = EDGE_CURVE ( 'NONE', #228, #459, #583, .T. ) ;
#83 = CARTESIAN_POINT ( 'NONE',  ( 2.843192906295000100, 18.57120579083700207, 6.443264998540000121 ) ) ;
#84 = ORIENTED_EDGE ( 'NONE', *, *, #637, .F. ) ;
#85 = ORIENTED_EDGE ( 'NONE', *, *, #827, .F. ) ;
#86 = VECTOR ( 'NONE', #364, 1000.000000000000000 ) ;
#87 = LINE ( 'NONE', #1068, #326 ) ;
#88 = VECTOR ( 'NONE', #653, 1000.000000000000000 ) ;
#89 = CARTESIAN_POINT ( 'NONE',  ( 70.28647335028399823, 13.60218245802899872, 27.21653698530500165 ) ) ;
#90 = DIRECTION ( 'NONE',  ( 1.000000000000000000, 0.000000000000000000, 0.000000000000000000 ) ) ;
#91 = ORIENTED_EDGE ( 'NONE', *, *, #539, .F. ) ;
#92 = CARTESIAN_POINT ( 'NONE',  ( -2.818038591137000282, 12.64283823795699924, 29.21653698530499810 ) ) ;
#93 = FACE_OUTER_BOUND ( 'NONE', #79, .T. ) ;
#94 = LINE ( 'NONE', #625, #475 ) ;
#95 = ORIENTED_EDGE ( 'NONE', *, *, #63, .T. ) ;
#96 = SURFACE_SIDE_STYLE ('',( #1022 ) ) ;
#97 = DIRECTION ( 'NONE',  ( 0.000000000000000000, 0.000000000000000000, 1.000000000000000000 ) ) ;
#98 = DIRECTION ( 'NONE',  ( 0.000000000000000000, 1.000000000000000000, 0.000000000000000000 ) ) ;
#99 = ORIENTED_EDGE ( 'NONE', *, *, #630, .T. ) ;
#100 = VERTEX_POINT ( 'NONE', #501 ) ;
#101 = EDGE_CURVE ( 'NONE', #655, #719, #94, .T. ) ;
#102 = VECTOR ( 'NONE', #176, 999.9999999999998863 ) ;
#103 = VECTOR ( 'NONE', #768, 1000.000000000000000 ) ;
#104 = VECTOR ( 'NONE', #1011, 1000.000000000000000 ) ;
#105 = PLANE ( 'NONE',  #465 ) ;
#106 = CARTESIAN_POINT ( 'NONE',  ( 89.48666387701000247, 22.16619665624000035, 0.000000000000000000 ) ) ;
#107 = DIRECTION ( 'NONE',  ( 0.000000000000000000, 0.000000000000000000, -1.000000000000000000 ) ) ;
#108 = EDGE_LOOP ( 'NONE', ( #1063, #468, #409, #667 ) ) ;
#109 = PLANE ( 'NONE',  #935 ) ;
#110 = DIRECTION ( 'NONE',  ( -0.3403932434000545015, -0.9402831700331508724, 0.000000000000000000 ) ) ;
#111 = CARTESIAN_POINT ( 'NONE',  ( 0.000000000000000000, 32.66201643535800514, 0.000000000000000000 ) ) ;
#112 = ORIENTED_EDGE ( 'NONE', *, *, #744, .F. ) ;
#113 = DIRECTION ( 'NONE',  ( 0.9716334381817480770, -0.2364919909999390335, 0.000000000000000000 ) ) ;
#114 = LINE ( 'NONE', #624, #103 ) ;
#115 = EDGE_CURVE ( 'NONE', #236, #672, #132, .T. ) ;
#116 = DIRECTION ( 'NONE',  ( 0.000000000000000000, 0.000000000000000000, 1.000000000000000000 ) ) ;
#117 = FACE_OUTER_BOUND ( 'NONE', #311, .T. ) ;
#118 = ORIENTED_EDGE ( 'NONE', *, *, #461, .T. ) ;
#119 = CARTESIAN_POINT ( 'NONE',  ( 89.48666387701000247, 13.60218245802899872, 27.21653698530500165 ) ) ;
#120 = CARTESIAN_POINT ( 'NONE',  ( 1.050589020674999929, 8.584856366142000539, 29.21653698530499810 ) ) ;
#121 = CARTESIAN_POINT ( 'NONE',  ( 6.136508777790999680, 10.40566673694300093, 29.21653698530499810 ) ) ;
#122 = ORIENTED_EDGE ( 'NONE', *, *, #198, .F. ) ;
#123 = CARTESIAN_POINT ( 'NONE',  ( 2.631031265587000068, 9.492120001274999552, 29.21653698530499810 ) ) ;
#124 = ORIENTED_EDGE ( 'NONE', *, *, #853, .T. ) ;
#125 = LINE ( 'NONE', #1015, #721 ) ;
#126 = CARTESIAN_POINT ( 'NONE',  ( 89.48666387701000247, 13.60218245802899872, 29.21653698530499810 ) ) ;
#127 = EDGE_CURVE ( 'NONE', #613, #268, #523, .T. ) ;
#128 = ORIENTED_EDGE ( 'NONE', *, *, #675, .F. ) ;
#129 = DIRECTION ( 'NONE',  ( 0.000000000000000000, 0.000000000000000000, 1.000000000000000000 ) ) ;
#130 = EDGE_CURVE ( 'NONE', #803, #455, #695, .T. ) ;
#131 = LINE ( 'NONE', #29, #1069 ) ;
#132 = LINE ( 'NONE', #289, #917 ) ;
#133 = ORIENTED_EDGE ( 'NONE', *, *, #319, .T. ) ;
#134 = DIRECTION ( 'NONE',  ( 0.9402831700331507614, -0.3403932434000544460, 0.000000000000000000 ) ) ;
#135 = DIRECTION ( 'NONE',  ( -0.2364919909999390057, -0.9716334381817480770, 0.000000000000000000 ) ) ;
#136 = AXIS2_PLACEMENT_3D ( 'NONE', #995, #586, #107 ) ;
#137 = CARTESIAN_POINT ( 'NONE',  ( 3.634782733375000241, 18.37853574995000017, 29.21653698530499810 ) ) ;
#138 = VECTOR ( 'NONE', #600, 1000.000000000000000 ) ;
#139 = ORIENTED_EDGE ( 'NONE', *, *, #238, .T. ) ;
#140 =( GEOMETRIC_REPRESENTATION_CONTEXT ( 3 ) GLOBAL_UNCERTAINTY_ASSIGNED_CONTEXT ( ( #467 ) ) GLOBAL_UNIT_ASSIGNED_CONTEXT ( ( #770, #271, #42 ) ) REPRESENTATION_CONTEXT ( 'NONE', 'WORKASPACE' ) );
#141 = PLANE ( 'NONE',  #870 ) ;
#142 = ADVANCED_FACE ( 'NONE', ( #117 ), #374, .F. ) ;
#143 = CARTESIAN_POINT ( 'NONE',  ( 0.000000000000000000, 0.000000000000000000, 29.21653698530499810 ) ) ;
#144 = ORIENTED_EDGE ( 'NONE', *, *, #1060, .F. ) ;
#145 = VERTEX_POINT ( 'NONE', #444 ) ;
#146 = EDGE_CURVE ( 'NONE', #787, #816, #860, .T. ) ;
#147 = DIRECTION ( 'NONE',  ( -1.519468864554000057E-30, -2.812080873834000581E-29, 1.000000000000000000 ) ) ;
#148 = EDGE_LOOP ( 'NONE', ( #196, #567, #233, #659 ) ) ;
#149 = ORIENTED_EDGE ( 'NONE', *, *, #38, .T. ) ;
#150 = LINE ( 'NONE', #970, #951 ) ;
#151 = AXIS2_PLACEMENT_3D ( 'NONE', #1065, #239, #902 ) ;
#152 = EDGE_LOOP ( 'NONE', ( #509, #75, #427, #48 ) ) ;
#153 = VECTOR ( 'NONE', #948, 1000.000000000000114 ) ;
#154 = AXIS2_PLACEMENT_3D ( 'NONE', #346, #504, #422 ) ;
#155 = EDGE_LOOP ( 'NONE', ( #72, #1050, #439, #921 ) ) ;
#156 = CARTESIAN_POINT ( 'NONE',  ( 25.06060037489800152, 41.83698420066099999, 13.32504156186099920 ) ) ;
#157 = FACE_OUTER_BOUND ( 'NONE', #481, .T. ) ;
#158 = VERTEX_POINT ( 'NONE', #1036 ) ;
#159 = EDGE_CURVE ( 'NONE', #893, #359, #449, .T. ) ;
#160 = ORIENTED_EDGE ( 'NONE', *, *, #127, .F. ) ;
#161 = EDGE_CURVE ( 'NONE', #455, #1066, #534, .T. ) ;
#162 = LINE ( 'NONE', #491, #54 ) ;
#163 = CARTESIAN_POINT ( 'NONE',  ( 2.631031265587000068, 9.492120001274999552, 29.21653698530499810 ) ) ;
#164 = ORIENTED_EDGE ( 'NONE', *, *, #520, .F. ) ;
#165 = ORIENTED_EDGE ( 'NONE', *, *, #836, .T. ) ;
#166 = CARTESIAN_POINT ( 'NONE',  ( 89.48666387701000247, 28.19678494928900037, 29.21653698530499810 ) ) ;
#167 = CARTESIAN_POINT ( 'NONE',  ( 89.48666387701000247, 22.16619665624000035, 0.000000000000000000 ) ) ;
#168 = LINE ( 'NONE', #913, #736 ) ;
#169 = ORIENTED_EDGE ( 'NONE', *, *, #208, .F. ) ;
#170 = VECTOR ( 'NONE', #602, 1000.000000000000000 ) ;
#171 = DIRECTION ( 'NONE',  ( -0.07726870857751103050, 0.9970103041968843005, 0.000000000000000000 ) ) ;
#172 = COLOUR_RGB ( '',0.7921568627450980005, 0.8196078431372548767, 0.9333333333333333481 ) ;
#173 = EDGE_CURVE ( 'NONE', #792, #359, #945, .T. ) ;
#174 = AXIS2_PLACEMENT_3D ( 'NONE', #460, #56, #623 ) ;
#175 = CARTESIAN_POINT ( 'NONE',  ( 2.843192906295000100, 18.57120579083700207, 0.000000000000000000 ) ) ;
#176 = DIRECTION ( 'NONE',  ( 0.2810086470938903958, -0.9597052361316267266, 0.000000000000000000 ) ) ;
#177 = VERTEX_POINT ( 'NONE', #59 ) ;
#178 = CARTESIAN_POINT ( 'NONE',  ( 83.98617164796399948, 0.000000000000000000, 14.50880930412600023 ) ) ;
#179 = FACE_OUTER_BOUND ( 'NONE', #285, .T. ) ;
#180 = EDGE_CURVE ( 'NONE', #741, #655, #380, .T. ) ;
#181 = DIRECTION ( 'NONE',  ( 0.000000000000000000, 0.000000000000000000, 1.000000000000000000 ) ) ;
#182 = EDGE_LOOP ( 'NONE', ( #390, #3, #857, #386 ) ) ;
#183 = LINE ( 'NONE', #525, #722 ) ;
#184 = FACE_OUTER_BOUND ( 'NONE', #108, .T. ) ;
#185 = LINE ( 'NONE', #855, #396 ) ;
#186 = FACE_OUTER_BOUND ( 'NONE', #905, .T. ) ;
#187 = ORIENTED_EDGE ( 'NONE', *, *, #58, .F. ) ;
#188 = LINE ( 'NONE', #692, #632 ) ;
#189 = VECTOR ( 'NONE', #90, 1000.000000000000000 ) ;
#190 = AXIS2_PLACEMENT_3D ( 'NONE', #301, #110, #775 ) ;
#191 = AXIS2_PLACEMENT_3D ( 'NONE', #506, #116, #19 ) ;
#192 = CARTESIAN_POINT ( 'NONE',  ( 0.000000000000000000, 18.06092798281100187, 6.443264998540000121 ) ) ;
#193 = FACE_OUTER_BOUND ( 'NONE', #155, .T. ) ;
#194 = VERTEX_POINT ( 'NONE', #544 ) ;
#195 = EDGE_CURVE ( 'NONE', #560, #787, #577, .T. ) ;
#196 = ORIENTED_EDGE ( 'NONE', *, *, #1028, .T. ) ;
#197 =( NAMED_UNIT ( * ) SI_UNIT ( $, .STERADIAN. ) SOLID_ANGLE_UNIT ( ) );
#198 = EDGE_CURVE ( 'NONE', #598, #696, #1043, .T. ) ;
#199 = CARTESIAN_POINT ( 'NONE',  ( 0.000000000000000000, 0.000000000000000000, 0.000000000000000000 ) ) ;
#200 = DIRECTION ( 'NONE',  ( 0.9716334381817480770, -0.2364919909999390335, 0.000000000000000000 ) ) ;
#201 = CARTESIAN_POINT ( 'NONE',  ( 89.48666387701000247, 26.17877380810200094, 6.443264998540000121 ) ) ;
#202 = ORIENTED_EDGE ( 'NONE', *, *, #230, .T. ) ;
#203 = CARTESIAN_POINT ( 'NONE',  ( 4.095834991571000394, 17.37500856370499847, 29.21653698530499810 ) ) ;
#204 = CARTESIAN_POINT ( 'NONE',  ( 0.000000000000000000, 18.06092798281100187, 6.443264998540000121 ) ) ;
#205 = LINE ( 'NONE', #280, #170 ) ;
#206 = ORIENTED_EDGE ( 'NONE', *, *, #542, .T. ) ;
#207 = CARTESIAN_POINT ( 'NONE',  ( 0.000000000000000000, 0.000000000000000000, 29.21653698530499810 ) ) ;
#208 = EDGE_CURVE ( 'NONE', #236, #803, #212, .T. ) ;
#209 = CARTESIAN_POINT ( 'NONE',  ( 3.405210200483000271, 16.65179531857299722, 0.000000000000000000 ) ) ;
#210 = AXIS2_PLACEMENT_3D ( 'NONE', #143, #1047, #1061 ) ;
#211 = VECTOR ( 'NONE', #329, 1000.000000000000114 ) ;
#212 = LINE ( 'NONE', #690, #14 ) ;
#213 = EDGE_LOOP ( 'NONE', ( #421, #502, #2, #74, #133, #149, #258, #524 ) ) ;
#214 = DIRECTION ( 'NONE',  ( 0.000000000000000000, 0.000000000000000000, -1.000000000000000000 ) ) ;
#215 = ORIENTED_EDGE ( 'NONE', *, *, #294, .T. ) ;
#216 = CARTESIAN_POINT ( 'NONE',  ( 2.631031265587000068, 9.492120001274999552, 29.21653698530499810 ) ) ;
#217 = CARTESIAN_POINT ( 'NONE',  ( 4.095834991571000394, 17.37500856370499847, 0.000000000000000000 ) ) ;
#218 = ORIENTED_EDGE ( 'NONE', *, *, #943, .F. ) ;
#219 = PLANE ( 'NONE',  #174 ) ;
#220 = CARTESIAN_POINT ( 'NONE',  ( 0.000000000000000000, 25.45999248556299932, 6.443264998540000121 ) ) ;
#221 = DIRECTION ( 'NONE',  ( 0.000000000000000000, 0.000000000000000000, -1.000000000000000000 ) ) ;
#222 = PRODUCT ( '20260414_160844_120', '20260414_160844_120', '', ( #591 ) ) ;
#223 = VERTEX_POINT ( 'NONE', #791 ) ;
#224 = LINE ( 'NONE', #958, #758 ) ;
#225 = VECTOR ( 'NONE', #950, 1000.000000000000000 ) ;
#226 = CARTESIAN_POINT ( 'NONE',  ( 0.000000000000000000, 0.000000000000000000, 0.000000000000000000 ) ) ;
#227 = VECTOR ( 'NONE', #760, 1000.000000000000000 ) ;
#228 = VERTEX_POINT ( 'NONE', #466 ) ;
#229 = ORIENTED_EDGE ( 'NONE', *, *, #146, .T. ) ;
#230 = EDGE_CURVE ( 'NONE', #702, #398, #621, .T. ) ;
#231 = LINE ( 'NONE', #551, #563 ) ;
#232 = ORIENTED_EDGE ( 'NONE', *, *, #800, .T. ) ;
#233 = ORIENTED_EDGE ( 'NONE', *, *, #909, .F. ) ;
#234 = DIRECTION ( 'NONE',  ( 0.000000000000000000, 0.000000000000000000, -1.000000000000000000 ) ) ;
#235 = ORIENTED_EDGE ( 'NONE', *, *, #384, .F. ) ;
#236 = VERTEX_POINT ( 'NONE', #217 ) ;
#237 = DIRECTION ( 'NONE',  ( 0.000000000000000000, 0.000000000000000000, -1.000000000000000000 ) ) ;
#238 = EDGE_CURVE ( 'NONE', #412, #715, #538, .T. ) ;
#239 = DIRECTION ( 'NONE',  ( 1.000000000000000000, 0.000000000000000000, 0.000000000000000000 ) ) ;
#240 = EDGE_CURVE ( 'NONE', #194, #803, #53, .T. ) ;
#241 = VECTOR ( 'NONE', #1031, 1000.000000000000000 ) ;
#242 = ORIENTED_EDGE ( 'NONE', *, *, #69, .F. ) ;
#243 = VECTOR ( 'NONE', #406, 1000.000000000000000 ) ;
#244 = AXIS2_PLACEMENT_3D ( 'NONE', #694, #357, #363 ) ;
#245 = ORIENTED_EDGE ( 'NONE', *, *, #669, .T. ) ;
#246 = PLANE ( 'NONE',  #549 ) ;
#247 = CARTESIAN_POINT ( 'NONE',  ( 43.80063708021300783, 8.602315118370999159, 6.443264998540000121 ) ) ;
#248 = ORIENTED_EDGE ( 'NONE', *, *, #127, .T. ) ;
#249 = ORIENTED_EDGE ( 'NONE', *, *, #977, .T. ) ;
#250 = CARTESIAN_POINT ( 'NONE',  ( 89.48666387701000247, 28.19678494928900037, 29.21653698530499810 ) ) ;
#251 = DIRECTION ( 'NONE',  ( 0.000000000000000000, 0.000000000000000000, -1.000000000000000000 ) ) ;
#252 = CARTESIAN_POINT ( 'NONE',  ( 89.48666387701000247, 18.06092798281100187, 13.32504156186099920 ) ) ;
#253 = EDGE_CURVE ( 'NONE', #177, #685, #284, .T. ) ;
#254 = VERTEX_POINT ( 'NONE', #201 ) ;
#255 = LINE ( 'NONE', #997, #848 ) ;
#256 = DIRECTION ( 'NONE',  ( 0.000000000000000000, 1.000000000000000000, 0.000000000000000000 ) ) ;
#257 = LINE ( 'NONE', #936, #828 ) ;
#258 = ORIENTED_EDGE ( 'NONE', *, *, #928, .F. ) ;
#259 = VECTOR ( 'NONE', #10, 1000.000000000000000 ) ;
#260 = DIRECTION ( 'NONE',  ( 0.000000000000000000, -1.000000000000000000, 0.000000000000000000 ) ) ;
#261 = EDGE_CURVE ( 'NONE', #696, #851, #205, .T. ) ;
#262 = CARTESIAN_POINT ( 'NONE',  ( 3.814826344476999864, 18.33471379983699734, 29.21653698530499810 ) ) ;
#263 = PLANE ( 'NONE',  #967 ) ;
#264 = VERTEX_POINT ( 'NONE', #528 ) ;
#265 = DIRECTION ( 'NONE',  ( 0.000000000000000000, 1.000000000000000000, 0.000000000000000000 ) ) ;
#266 = CARTESIAN_POINT ( 'NONE',  ( 0.000000000000000000, 32.66201643535800514, 0.000000000000000000 ) ) ;
#267 = LINE ( 'NONE', #433, #259 ) ;
#268 = VERTEX_POINT ( 'NONE', #865 ) ;
#269 = DIRECTION ( 'NONE',  ( 0.000000000000000000, 0.000000000000000000, -1.000000000000000000 ) ) ;
#270 = CARTESIAN_POINT ( 'NONE',  ( 0.000000000000000000, 25.45999248556299932, 29.21653698530499810 ) ) ;
#271 =( NAMED_UNIT ( * ) PLANE_ANGLE_UNIT ( ) SI_UNIT ( $, .RADIAN. ) );
#272 = LINE ( 'NONE', #596, #377 ) ;
#273 = EDGE_CURVE ( 'NONE', #394, #354, #488, .T. ) ;
#274 = ORIENTED_EDGE ( 'NONE', *, *, #13, .F. ) ;
#275 = DIRECTION ( 'NONE',  ( 1.000000000000000000, 0.000000000000000000, 0.000000000000000000 ) ) ;
#276 = VECTOR ( 'NONE', #881, 999.9999999999998863 ) ;
#277 = AXIS2_PLACEMENT_3D ( 'NONE', #743, #5, #589 ) ;
#278 = CARTESIAN_POINT ( 'NONE',  ( 48.43168007479700066, 3.526507497030999971, 3.962986601917999785 ) ) ;
#279 = LINE ( 'NONE', #923, #104 ) ;
#280 = CARTESIAN_POINT ( 'NONE',  ( 23.50245532447300079, 26.17877380810200094, 17.82990099192300093 ) ) ;
#281 = ORIENTED_EDGE ( 'NONE', *, *, #580, .F. ) ;
#282 =( NAMED_UNIT ( * ) PLANE_ANGLE_UNIT ( ) SI_UNIT ( $, .RADIAN. ) );
#283 = DIRECTION ( 'NONE',  ( 0.9716334381817480770, -0.2364919909999390335, 0.000000000000000000 ) ) ;
#284 = LINE ( 'NONE', #608, #1054 ) ;
#285 = EDGE_LOOP ( 'NONE', ( #568, #1034, #495, #32, #404, #889, #391, #164 ) ) ;
#286 = LINE ( 'NONE', #207, #550 ) ;
#287 = ADVANCED_FACE ( 'NONE', ( #1057 ), #638, .F. ) ;
#288 = CARTESIAN_POINT ( 'NONE',  ( 3.814826344476999864, 18.33471379983699734, 0.000000000000000000 ) ) ;
#289 = CARTESIAN_POINT ( 'NONE',  ( 4.095834991571000394, 17.37500856370499847, 0.000000000000000000 ) ) ;
#290 = ORIENTED_EDGE ( 'NONE', *, *, #675, .T. ) ;
#291 = CARTESIAN_POINT ( 'NONE',  ( 89.48666387701000247, 32.66201643535800514, 0.000000000000000000 ) ) ;
#292 = EDGE_LOOP ( 'NONE', ( #890, #740, #26, #807 ) ) ;
#293 = LINE ( 'NONE', #209, #900 ) ;
#294 = EDGE_CURVE ( 'NONE', #713, #613, #67, .T. ) ;
#295 = VECTOR ( 'NONE', #830, 1000.000000000000114 ) ;
#296 = VECTOR ( 'NONE', #1030, 999.9999999999998863 ) ;
#297 = CARTESIAN_POINT ( 'NONE',  ( 83.98617164796399948, 0.000000000000000000, 24.36832248840200066 ) ) ;
#298 = VECTOR ( 'NONE', #134, 1000.000000000000227 ) ;
#299 = ORIENTED_EDGE ( 'NONE', *, *, #805, .F. ) ;
#300 = DIRECTION ( 'NONE',  ( 0.000000000000000000, 1.000000000000000000, 0.000000000000000000 ) ) ;
#301 = CARTESIAN_POINT ( 'NONE',  ( 1.050589020674999929, 8.584856366142000539, 29.21653698530499810 ) ) ;
#302 = CARTESIAN_POINT ( 'NONE',  ( -1.220084110316999926, 11.80824763339099803, 29.21653698530499810 ) ) ;
#303 = ORIENTED_EDGE ( 'NONE', *, *, #253, .T. ) ;
#304 = CARTESIAN_POINT ( 'NONE',  ( 89.48666387701000247, 18.06092798281100187, 6.443264998540000121 ) ) ;
#305 = CARTESIAN_POINT ( 'NONE',  ( 70.28647335028399823, 0.000000000000000000, 27.21653698530500165 ) ) ;
#306 = VERTEX_POINT ( 'NONE', #973 ) ;
#307 = ADVANCED_FACE ( 'NONE', ( #565 ), #1051, .F. ) ;
#308 = AXIS2_PLACEMENT_3D ( 'NONE', #965, #812, #716 ) ;
#309 = DIRECTION ( 'NONE',  ( -0.9716334381817480770, 0.2364919909999390335, 0.000000000000000000 ) ) ;
#310 = VECTOR ( 'NONE', #516, 1000.000000000000114 ) ;
#311 = EDGE_LOOP ( 'NONE', ( #609, #552, #187, #622 ) ) ;
#312 = VECTOR ( 'NONE', #200, 1000.000000000000114 ) ;
#313 = ORIENTED_EDGE ( 'NONE', *, *, #1028, .F. ) ;
#314 = DIRECTION ( 'NONE',  ( 0.000000000000000000, -1.000000000000000000, -2.812080873834000581E-29 ) ) ;
#315 = ORIENTED_EDGE ( 'NONE', *, *, #240, .T. ) ;
#316 = ORIENTED_EDGE ( 'NONE', *, *, #863, .F. ) ;
#317 = FACE_OUTER_BOUND ( 'NONE', #474, .T. ) ;
#318 = ADVANCED_FACE ( 'NONE', ( #157 ), #823, .F. ) ;
#319 = EDGE_CURVE ( 'NONE', #459, #328, #324, .T. ) ;
#320 = DIRECTION ( 'NONE',  ( 1.000000000000000000, 0.000000000000000000, 0.000000000000000000 ) ) ;
#321 = VERTEX_POINT ( 'NONE', #712 ) ;
#322 = EDGE_LOOP ( 'NONE', ( #914, #78, #903, #206 ) ) ;
#323 = PLANE ( 'NONE',  #799 ) ;
#324 = LINE ( 'NONE', #392, #664 ) ;
#325 = ORIENTED_EDGE ( 'NONE', *, *, #554, .T. ) ;
#326 = VECTOR ( 'NONE', #339, 1000.000000000000000 ) ;
#327 = VECTOR ( 'NONE', #1024, 1000.000000000000000 ) ;
#328 = VERTEX_POINT ( 'NONE', #559 ) ;
#329 = DIRECTION ( 'NONE',  ( 0.6906247910881028185, 0.7232132451321078292, 0.000000000000000000 ) ) ;
#330 = DIRECTION ( 'NONE',  ( 0.000000000000000000, -1.000000000000000000, 0.000000000000000000 ) ) ;
#331 = ADVANCED_FACE ( 'NONE', ( #472, #819, #907 ), #732, .T. ) ;
#332 = ORIENTED_EDGE ( 'NONE', *, *, #730, .F. ) ;
#333 = ORIENTED_EDGE ( 'NONE', *, *, #660, .T. ) ;
#334 = DIRECTION ( 'NONE',  ( -0.9716334381817480770, 0.2364919909999390057, 0.000000000000000000 ) ) ;
#335 = DIRECTION ( 'NONE',  ( 0.9597052361316267266, 0.2810086470938903958, 0.000000000000000000 ) ) ;
#336 = CARTESIAN_POINT ( 'NONE',  ( 44.10114787420999960, 29.73474252281900121, 2.285296733156000570 ) ) ;
#337 = ORIENTED_EDGE ( 'NONE', *, *, #1042, .T. ) ;
#338 = ADVANCED_FACE ( 'NONE', ( #634 ), #73, .F. ) ;
#339 = DIRECTION ( 'NONE',  ( -1.000000000000000000, 0.000000000000000000, 0.000000000000000000 ) ) ;
#340 = FACE_OUTER_BOUND ( 'NONE', #473, .T. ) ;
#341 = PLANE ( 'NONE',  #15 ) ;
#342 = ORIENTED_EDGE ( 'NONE', *, *, #426, .F. ) ;
#343 = AXIS2_PLACEMENT_3D ( 'NONE', #399, #895, #984 ) ;
#344 = FACE_OUTER_BOUND ( 'NONE', #946, .T. ) ;
#345 = VECTOR ( 'NONE', #1023, 1000.000000000000000 ) ;
#346 = CARTESIAN_POINT ( 'NONE',  ( 0.000000000000000000, 0.000000000000000000, 0.000000000000000000 ) ) ;
#347 = VERTEX_POINT ( 'NONE', #888 ) ;
#348 = VERTEX_POINT ( 'NONE', #305 ) ;
#349 = DIRECTION ( 'NONE',  ( 0.000000000000000000, 0.000000000000000000, -1.000000000000000000 ) ) ;
#350 = PLANE ( 'NONE',  #515 ) ;
#351 = EDGE_CURVE ( 'NONE', #851, #177, #150, .T. ) ;
#352 = CARTESIAN_POINT ( 'NONE',  ( 2.152568115207000421, 17.84799254570499727, 0.000000000000000000 ) ) ;
#353 = LINE ( 'NONE', #252, #531 ) ;
#354 = VERTEX_POINT ( 'NONE', #470 ) ;
#355 = PLANE ( 'NONE',  #918 ) ;
#356 = DIRECTION ( 'NONE',  ( -0.9716334381817480770, 0.2364919909999390335, 0.000000000000000000 ) ) ;
#357 = DIRECTION ( 'NONE',  ( -0.000000000000000000, 0.7397409530160669044, 0.6728917613040609202 ) ) ;
#358 = CARTESIAN_POINT ( 'NONE',  ( 7.234319526042000348, 6.656405871572999899, 6.443264998540000121 ) ) ;
#359 = VERTEX_POINT ( 'NONE', #726 ) ;
#360 = LINE ( 'NONE', #687, #739 ) ;
#361 = VECTOR ( 'NONE', #275, 1000.000000000000000 ) ;
#362 = LINE ( 'NONE', #199, #755 ) ;
#363 = DIRECTION ( 'NONE',  ( 1.000000000000000000, 0.000000000000000000, 0.000000000000000000 ) ) ;
#364 = DIRECTION ( 'NONE',  ( 0.000000000000000000, 0.000000000000000000, -1.000000000000000000 ) ) ;
#365 = ADVANCED_FACE ( 'NONE', ( #476 ), #978, .T. ) ;
#366 = ORIENTED_EDGE ( 'NONE', *, *, #572, .F. ) ;
#367 = DIRECTION ( 'NONE',  ( 0.000000000000000000, -1.000000000000000000, 0.000000000000000000 ) ) ;
#368 = LINE ( 'NONE', #1029, #616 ) ;
#369 = CARTESIAN_POINT ( 'NONE',  ( 44.58848308135399918, 26.82365293706600085, 6.443264998540000121 ) ) ;
#370 = ORIENTED_EDGE ( 'NONE', *, *, #173, .F. ) ;
#371 = LINE ( 'NONE', #879, #298 ) ;
#372 = ADVANCED_FACE ( 'NONE', ( #483 ), #723, .T. ) ;
#373 = DIRECTION ( 'NONE',  ( 0.000000000000000000, 0.000000000000000000, -1.000000000000000000 ) ) ;
#374 = PLANE ( 'NONE',  #885 ) ;
#375 = EDGE_LOOP ( 'NONE', ( #245, #1048, #229, #629, #957 ) ) ;
#376 = CARTESIAN_POINT ( 'NONE',  ( 89.48666387701000247, 0.000000000000000000, 0.000000000000000000 ) ) ;
#377 = VECTOR ( 'NONE', #181, 1000.000000000000000 ) ;
#378 = CARTESIAN_POINT ( 'NONE',  ( 2.843192906295000100, 18.57120579083700207, 13.32504156186099920 ) ) ;
#379 = VECTOR ( 'NONE', #988, 1000.000000000000000 ) ;
#380 = LINE ( 'NONE', #940, #548 ) ;
#381 = ORIENTED_EDGE ( 'NONE', *, *, #450, .T. ) ;
#382 = FACE_OUTER_BOUND ( 'NONE', #908, .T. ) ;
#383 = CARTESIAN_POINT ( 'NONE',  ( 89.48666387701000247, 32.66201643535800514, 0.000000000000000000 ) ) ;
#384 = EDGE_CURVE ( 'NONE', #679, #177, #231, .T. ) ;
#385 = DIRECTION ( 'NONE',  ( 0.000000000000000000, 1.000000000000000000, 0.000000000000000000 ) ) ;
#386 = ORIENTED_EDGE ( 'NONE', *, *, #896, .F. ) ;
#387 = PLANE ( 'NONE',  #497 ) ;
#388 = LINE ( 'NONE', #247, #617 ) ;
#389 = PRODUCT_DEFINITION ( 'ๆ', '', #633, #882 ) ;
#390 = ORIENTED_EDGE ( 'NONE', *, *, #873, .T. ) ;
#391 = ORIENTED_EDGE ( 'NONE', *, *, #13, .T. ) ;
#392 = CARTESIAN_POINT ( 'NONE',  ( 3.894992815535000208, 18.06092798281100187, 6.662520780931000530 ) ) ;
#393 = VECTOR ( 'NONE', #922, 1000.000000000000000 ) ;
#394 = VERTEX_POINT ( 'NONE', #808 ) ;
#395 = EDGE_CURVE ( 'NONE', #980, #412, #388, .T. ) ;
#396 = VECTOR ( 'NONE', #601, 1000.000000000000000 ) ;
#397 = ADVANCED_BREP_SHAPE_REPRESENTATION ( '20260414_160844_120', ( #832, #191 ), #140 ) ;
#398 = VERTEX_POINT ( 'NONE', #555 ) ;
#399 = CARTESIAN_POINT ( 'NONE',  ( 4.095834991571000394, 17.37500856370499847, 0.000000000000000000 ) ) ;
#400 = ORIENTED_EDGE ( 'NONE', *, *, #817, .T. ) ;
#401 = ORIENTED_EDGE ( 'NONE', *, *, #620, .T. ) ;
#402 = CARTESIAN_POINT ( 'NONE',  ( 3.405210200483000271, 16.65179531857299722, 0.000000000000000000 ) ) ;
#403 = DIRECTION ( 'NONE',  ( 1.000000000000000000, 0.000000000000000000, 0.000000000000000000 ) ) ;
#404 = ORIENTED_EDGE ( 'NONE', *, *, #961, .F. ) ;
#405 = ORIENTED_EDGE ( 'NONE', *, *, #873, .F. ) ;
#406 = DIRECTION ( 'NONE',  ( 0.000000000000000000, 0.000000000000000000, 1.000000000000000000 ) ) ;
#407 = EDGE_CURVE ( 'NONE', #354, #820, #999, .T. ) ;
#408 = PLANE ( 'NONE',  #154 ) ;
#409 = ORIENTED_EDGE ( 'NONE', *, *, #817, .F. ) ;
#410 = VECTOR ( 'NONE', #795, 1000.000000000000000 ) ;
#411 = VECTOR ( 'NONE', #423, 1000.000000000000000 ) ;
#412 = VERTEX_POINT ( 'NONE', #83 ) ;
#413 = FACE_OUTER_BOUND ( 'NONE', #661, .T. ) ;
#414 = CARTESIAN_POINT ( 'NONE',  ( 3.814826344476999864, 18.33471379983699734, 0.000000000000000000 ) ) ;
#415 = ADVANCED_FACE ( 'NONE', ( #753 ), #1070, .F. ) ;
#416 = LINE ( 'NONE', #358, #684 ) ;
#417 = EDGE_LOOP ( 'NONE', ( #717, #490, #400 ) ) ;
#418 = DIRECTION ( 'NONE',  ( -0.6906247910881028185, -0.7232132451321078292, 0.000000000000000000 ) ) ;
#419 = DIRECTION ( 'NONE',  ( 0.03056895110115434924, -0.9995326604111419710, 0.000000000000000000 ) ) ;
#420 = VERTEX_POINT ( 'NONE', #595 ) ;
#421 = ORIENTED_EDGE ( 'NONE', *, *, #208, .T. ) ;
#422 = DIRECTION ( 'NONE',  ( 1.000000000000000000, 0.000000000000000000, 0.000000000000000000 ) ) ;
#423 = DIRECTION ( 'NONE',  ( 0.000000000000000000, 0.000000000000000000, 1.000000000000000000 ) ) ;
#424 = LINE ( 'NONE', #111, #189 ) ;
#425 = CLOSED_SHELL ( 'NONE', ( #372, #731, #527, #597, #365, #985, #287, #23, #307, #338, #698, #485, #492, #814, #931, #51, #646, #887, #683, #786, #50, #916, #462, #441, #28, #415, #142, #894, #508, #331, #318 ) ) ;
#426 = EDGE_CURVE ( 'NONE', #306, #347, #840, .T. ) ;
#427 = ORIENTED_EDGE ( 'NONE', *, *, #718, .F. ) ;
#428 = VECTOR ( 'NONE', #537, 1000.000000000000000 ) ;
#429 = LINE ( 'NONE', #604, #850 ) ;
#430 = EDGE_CURVE ( 'NONE', #573, #598, #670, .T. ) ;
#431 = CARTESIAN_POINT ( 'NONE',  ( 83.98617164796399948, 0.000000000000000000, 14.50880930412600023 ) ) ;
#432 = PLANE ( 'NONE',  #244 ) ;
#433 = CARTESIAN_POINT ( 'NONE',  ( 89.48666387701000247, 22.16619665624000035, 0.000000000000000000 ) ) ;
#434 = ORIENTED_EDGE ( 'NONE', *, *, #82, .F. ) ;
#435 = LINE ( 'NONE', #588, #811 ) ;
#436 = LINE ( 'NONE', #288, #35 ) ;
#437 = LINE ( 'NONE', #1006, #312 ) ;
#438 = PLANE ( 'NONE',  #463 ) ;
#439 = ORIENTED_EDGE ( 'NONE', *, *, #669, .F. ) ;
#440 = DIRECTION ( 'NONE',  ( 0.000000000000000000, 1.000000000000000000, 0.000000000000000000 ) ) ;
#441 = ADVANCED_FACE ( 'NONE', ( #340 ), #350, .T. ) ;
#442 = DIRECTION ( 'NONE',  ( 0.000000000000000000, 0.000000000000000000, 1.000000000000000000 ) ) ;
#443 = APPLICATION_PROTOCOL_DEFINITION ( 'draft international standard', 'automotive_design', 1998, #1038 ) ;
#444 = CARTESIAN_POINT ( 'NONE',  ( 0.000000000000000000, 25.45999248556299932, 2.285296733156000570 ) ) ;
#445 = ORIENTED_EDGE ( 'NONE', *, *, #261, .T. ) ;
#446 = CARTESIAN_POINT ( 'NONE',  ( 79.88656861364700035, 13.60218245802899872, 28.21653698530499810 ) ) ;
#447 = PRESENTATION_LAYER_ASSIGNMENT (  '', '', ( #780 ) ) ;
#448 = DIRECTION ( 'NONE',  ( 0.000000000000000000, 0.000000000000000000, -1.000000000000000000 ) ) ;
#449 = LINE ( 'NONE', #43, #494 ) ;
#450 = EDGE_CURVE ( 'NONE', #644, #1066, #989, .T. ) ;
#451 = ORIENTED_EDGE ( 'NONE', *, *, #896, .T. ) ;
#452 = LINE ( 'NONE', #1033, #901 ) ;
#453 = DIRECTION ( 'NONE',  ( -0.07726870857751103050, 0.9970103041968843005, 0.000000000000000000 ) ) ;
#454 = DIRECTION ( 'NONE',  ( 0.000000000000000000, 0.000000000000000000, 1.000000000000000000 ) ) ;
#455 = VERTEX_POINT ( 'NONE', #262 ) ;
#456 = CARTESIAN_POINT ( 'NONE',  ( 89.48666387701000247, 26.17877380810200094, 13.32504156186099920 ) ) ;
#457 = LINE ( 'NONE', #944, #1037 ) ;
#458 = DIRECTION ( 'NONE',  ( -1.000000000000000000, 0.000000000000000000, 0.000000000000000000 ) ) ;
#459 = VERTEX_POINT ( 'NONE', #500 ) ;
#460 = CARTESIAN_POINT ( 'NONE',  ( 0.000000000000000000, 0.000000000000000000, 0.000000000000000000 ) ) ;
#461 = EDGE_CURVE ( 'NONE', #420, #412, #912, .T. ) ;
#462 = ADVANCED_FACE ( 'NONE', ( #517, #179 ), #408, .F. ) ;
#463 = AXIS2_PLACEMENT_3D ( 'NONE', #1012, #6, #990 ) ;
#464 = DIRECTION ( 'NONE',  ( 0.000000000000000000, -1.000000000000000000, 0.000000000000000000 ) ) ;
#465 = AXIS2_PLACEMENT_3D ( 'NONE', #414, #335, #1004 ) ;
#466 = CARTESIAN_POINT ( 'NONE',  ( 3.814826344476999864, 18.33471379983699734, 13.32504156186099920 ) ) ;
#467 = UNCERTAINTY_MEASURE_WITH_UNIT (LENGTH_MEASURE( 1.000000000000000082E-05 ), #770, 'distance_accuracy_value', 'NONE');
#468 = ORIENTED_EDGE ( 'NONE', *, *, #618, .T. ) ;
#469 = PLANE ( 'NONE',  #37 ) ;
#470 = CARTESIAN_POINT ( 'NONE',  ( 83.98617164796399948, 3.526507497030999971, 0.000000000000000000 ) ) ;
#471 = ORIENTED_EDGE ( 'NONE', *, *, #1053, .T. ) ;
#472 = FACE_BOUND ( 'NONE', #779, .T. ) ;
#473 = EDGE_LOOP ( 'NONE', ( #745, #274, #471, #1059 ) ) ;
#474 = EDGE_LOOP ( 'NONE', ( #952, #553, #1039, #232 ) ) ;
#475 = VECTOR ( 'NONE', #785, 1000.000000000000000 ) ;
#476 = FACE_OUTER_BOUND ( 'NONE', #375, .T. ) ;
#477 = VECTOR ( 'NONE', #676, 1000.000000000000000 ) ;
#478 = ORIENTED_EDGE ( 'NONE', *, *, #836, .F. ) ;
#479 = VECTOR ( 'NONE', #614, 1000.000000000000000 ) ;
#480 = EDGE_CURVE ( 'NONE', #991, #321, #835, .T. ) ;
#481 = EDGE_LOOP ( 'NONE', ( #514, #303, #249, #941, #290, #299, #21, #651, #401, #925 ) ) ;
#482 = DIRECTION ( 'NONE',  ( 0.000000000000000000, 0.000000000000000000, -1.000000000000000000 ) ) ;
#483 = FACE_OUTER_BOUND ( 'NONE', #584, .T. ) ;
#484 = VERTEX_POINT ( 'NONE', #89 ) ;
#485 = ADVANCED_FACE ( 'NONE', ( #581 ), #105, .F. ) ;
#486 = ORIENTED_EDGE ( 'NONE', *, *, #38, .F. ) ;
#487 = CARTESIAN_POINT ( 'NONE',  ( 2.355908544544000005, 18.06092798281100187, 13.32504156186099920 ) ) ;
#488 = LINE ( 'NONE', #806, #778 ) ;
#489 = ORIENTED_EDGE ( 'NONE', *, *, #769, .F. ) ;
#490 = ORIENTED_EDGE ( 'NONE', *, *, #505, .T. ) ;
#491 = CARTESIAN_POINT ( 'NONE',  ( 2.748995108922000163, 7.970013970347000765, 29.21653698530499810 ) ) ;
#492 = ADVANCED_FACE ( 'NONE', ( #738 ), #585, .F. ) ;
#493 = CARTESIAN_POINT ( 'NONE',  ( 89.48666387701000247, 18.06092798281100187, 6.443264998540000121 ) ) ;
#494 = VECTOR ( 'NONE', #777, 1000.000000000000000 ) ;
#495 = ORIENTED_EDGE ( 'NONE', *, *, #273, .F. ) ;
#496 = VECTOR ( 'NONE', #367, 1000.000000000000000 ) ;
#497 = AXIS2_PLACEMENT_3D ( 'NONE', #123, #798, #129 ) ;
#498 = ORIENTED_EDGE ( 'NONE', *, *, #558, .F. ) ;
#499 = CARTESIAN_POINT ( 'NONE',  ( 70.28647335028399823, 0.000000000000000000, 29.21653698530499810 ) ) ;
#500 = CARTESIAN_POINT ( 'NONE',  ( 3.894992815535000208, 18.06092798281100187, 13.32504156186099920 ) ) ;
#501 = CARTESIAN_POINT ( 'NONE',  ( 2.152568115207000421, 17.84799254570499727, 0.000000000000000000 ) ) ;
#502 = ORIENTED_EDGE ( 'NONE', *, *, #130, .T. ) ;
#503 = CARTESIAN_POINT ( 'NONE',  ( 2.843192906295000100, 18.57120579083700207, 0.000000000000000000 ) ) ;
#504 = DIRECTION ( 'NONE',  ( 0.000000000000000000, 0.000000000000000000, 1.000000000000000000 ) ) ;
#505 = EDGE_CURVE ( 'NONE', #354, #816, #658, .T. ) ;
#506 = CARTESIAN_POINT ( 'NONE',  ( 0.000000000000000000, 0.000000000000000000, 0.000000000000000000 ) ) ;
#507 = ORIENTED_EDGE ( 'NONE', *, *, #1003, .T. ) ;
#508 = ADVANCED_FACE ( 'NONE', ( #93 ), #994, .F. ) ;
#509 = ORIENTED_EDGE ( 'NONE', *, *, #751, .T. ) ;
#510 = DIRECTION ( 'NONE',  ( 0.2364919909999390057, 0.9716334381817480770, 0.000000000000000000 ) ) ;
#511 = PLANE ( 'NONE',  #829 ) ;
#512 = CARTESIAN_POINT ( 'NONE',  ( 0.000000000000000000, 32.66201643535800514, 0.000000000000000000 ) ) ;
#513 = PLANE ( 'NONE',  #136 ) ;
#514 = ORIENTED_EDGE ( 'NONE', *, *, #384, .T. ) ;
#515 = AXIS2_PLACEMENT_3D ( 'NONE', #934, #576, #17 ) ;
#516 = DIRECTION ( 'NONE',  ( -0.9830057842052499772, 0.000000000000000000, -0.1835745848940464608 ) ) ;
#517 = FACE_BOUND ( 'NONE', #7, .T. ) ;
#518 = DIRECTION ( 'NONE',  ( 0.000000000000000000, 0.000000000000000000, 1.000000000000000000 ) ) ;
#519 = ORIENTED_EDGE ( 'NONE', *, *, #904, .F. ) ;
#520 = EDGE_CURVE ( 'NONE', #991, #898, #663, .T. ) ;
#521 = CARTESIAN_POINT ( 'NONE',  ( 1.050589020674999929, 8.584856366142000539, 29.21653698530499810 ) ) ;
#522 = CARTESIAN_POINT ( 'NONE',  ( 2.843192906295000100, 18.57120579083700207, 29.21653698530499810 ) ) ;
#523 = LINE ( 'NONE', #960, #981 ) ;
#524 = ORIENTED_EDGE ( 'NONE', *, *, #539, .T. ) ;
#525 = CARTESIAN_POINT ( 'NONE',  ( 70.28647335028399823, 0.000000000000000000, 27.21653698530500165 ) ) ;
#526 = LINE ( 'NONE', #959, #868 ) ;
#527 = ADVANCED_FACE ( 'NONE', ( #184 ), #511, .F. ) ;
#528 = CARTESIAN_POINT ( 'NONE',  ( 2.433576762301000063, 16.88828730957299840, 29.21653698530499810 ) ) ;
#529 = ORIENTED_EDGE ( 'NONE', *, *, #630, .F. ) ;
#530 = DIRECTION ( 'NONE',  ( 0.000000000000000000, 1.000000000000000000, 0.000000000000000000 ) ) ;
#531 = VECTOR ( 'NONE', #1001, 1000.000000000000000 ) ;
#532 = VECTOR ( 'NONE', #645, 1000.000000000000000 ) ;
#533 = CARTESIAN_POINT ( 'NONE',  ( 89.48666387701000247, 26.17877380810200094, 6.443264998540000121 ) ) ;
#534 = LINE ( 'NONE', #137, #1016 ) ;
#535 = ORIENTED_EDGE ( 'NONE', *, *, #480, .F. ) ;
#536 = CARTESIAN_POINT ( 'NONE',  ( 89.48666387701000247, 18.06092798281100187, 6.443264998540000121 ) ) ;
#537 = DIRECTION ( 'NONE',  ( 0.000000000000000000, 0.000000000000000000, 1.000000000000000000 ) ) ;
#538 = LINE ( 'NONE', #877, #866 ) ;
#539 = EDGE_CURVE ( 'NONE', #833, #236, #436, .T. ) ;
#540 = ORIENTED_EDGE ( 'NONE', *, *, #590, .T. ) ;
#541 = CARTESIAN_POINT ( 'NONE',  ( 70.28647335028399823, 0.000000000000000000, 29.21653698530499810 ) ) ;
#542 = EDGE_CURVE ( 'NONE', #420, #833, #368, .T. ) ;
#543 = PLANE ( 'NONE',  #16 ) ;
#544 = CARTESIAN_POINT ( 'NONE',  ( 3.405210200483000271, 16.65179531857299722, 29.21653698530499810 ) ) ;
#545 = EDGE_LOOP ( 'NONE', ( #218, #535, #727, #561, #849, #932, #639, #975, #652 ) ) ;
#546 = LINE ( 'NONE', #884, #1000 ) ;
#547 = EDGE_CURVE ( 'NONE', #100, #420, #876, .T. ) ;
#548 = VECTOR ( 'NONE', #612, 1000.000000000000000 ) ;
#549 = AXIS2_PLACEMENT_3D ( 'NONE', #569, #657, #464 ) ;
#550 = VECTOR ( 'NONE', #530, 1000.000000000000000 ) ;
#551 = CARTESIAN_POINT ( 'NONE',  ( 0.000000000000000000, 25.45999248556299932, 29.21653698530499810 ) ) ;
#552 = ORIENTED_EDGE ( 'NONE', *, *, #977, .F. ) ;
#553 = ORIENTED_EDGE ( 'NONE', *, *, #173, .T. ) ;
#554 = EDGE_CURVE ( 'NONE', #672, #603, #293, .T. ) ;
#555 = CARTESIAN_POINT ( 'NONE',  ( 1.050589020674999929, 8.584856366142000539, 26.03331470109900181 ) ) ;
#556 = ORIENTED_EDGE ( 'NONE', *, *, #853, .F. ) ;
#557 = VERTEX_POINT ( 'NONE', #681 ) ;
#558 = EDGE_CURVE ( 'NONE', #254, #306, #938, .T. ) ;
#559 = CARTESIAN_POINT ( 'NONE',  ( 3.894992815535000208, 18.06092798281100187, 6.443264998540000121 ) ) ;
#560 = VERTEX_POINT ( 'NONE', #871 ) ;
#561 = ORIENTED_EDGE ( 'NONE', *, *, #767, .T. ) ;
#562 = CARTESIAN_POINT ( 'NONE',  ( 23.50245532447599928, 26.17877380810200094, 6.443264998540000121 ) ) ;
#563 = VECTOR ( 'NONE', #64, 1000.000000000000000 ) ;
#564 = VECTOR ( 'NONE', #906, 1000.000000000000000 ) ;
#565 = FACE_OUTER_BOUND ( 'NONE', #152, .T. ) ;
#566 = VECTOR ( 'NONE', #947, 1000.000000000000000 ) ;
#567 = ORIENTED_EDGE ( 'NONE', *, *, #964, .T. ) ;
#568 = ORIENTED_EDGE ( 'NONE', *, *, #1, .T. ) ;
#569 = CARTESIAN_POINT ( 'NONE',  ( 70.28647335028399823, 0.000000000000000000, 27.21653698530500165 ) ) ;
#570 = DIRECTION ( 'NONE',  ( 1.000000000000000000, 0.000000000000000000, 0.000000000000000000 ) ) ;
#571 = ORIENTED_EDGE ( 'NONE', *, *, #58, .T. ) ;
#572 = EDGE_CURVE ( 'NONE', #557, #893, #114, .T. ) ;
#573 = VERTEX_POINT ( 'NONE', #204 ) ;
#574 = EDGE_CURVE ( 'NONE', #715, #733, #125, .T. ) ;
#575 = LINE ( 'NONE', #742, #532 ) ;
#576 = DIRECTION ( 'NONE',  ( -0.000000000000000000, 1.000000000000000000, 0.000000000000000000 ) ) ;
#577 = LINE ( 'NONE', #297, #86 ) ;
#578 = ORIENTED_EDGE ( 'NONE', *, *, #130, .F. ) ;
#579 = CARTESIAN_POINT ( 'NONE',  ( 83.98617164796399948, 22.16619665624000035, 0.000000000000000000 ) ) ;
#580 = EDGE_CURVE ( 'NONE', #979, #328, #131, .T. ) ;
#581 = FACE_OUTER_BOUND ( 'NONE', #213, .T. ) ;
#582 = VECTOR ( 'NONE', #891, 1000.000000000000000 ) ;
#583 = LINE ( 'NONE', #920, #102 ) ;
#584 = EDGE_LOOP ( 'NONE', ( #202, #1067, #636 ) ) ;
#585 = PLANE ( 'NONE',  #277 ) ;
#586 = DIRECTION ( 'NONE',  ( 0.9970103041968843005, 0.07726870857751103050, 0.000000000000000000 ) ) ;
#587 = ORIENTED_EDGE ( 'NONE', *, *, #776, .T. ) ;
#588 = CARTESIAN_POINT ( 'NONE',  ( 3.710983308471999642, 16.57737127318699777, 29.21653698530499810 ) ) ;
#589 = DIRECTION ( 'NONE',  ( -0.2810086470938903958, 0.9597052361316267266, 0.000000000000000000 ) ) ;
#590 = EDGE_CURVE ( 'NONE', #268, #713, #526, .T. ) ;
#591 = PRODUCT_CONTEXT ( 'NONE', #1038, 'mechanical' ) ;
#592 = FACE_BOUND ( 'NONE', #44, .T. ) ;
#593 = ORIENTED_EDGE ( 'NONE', *, *, #319, .F. ) ;
#594 = LINE ( 'NONE', #22, #496 ) ;
#595 = CARTESIAN_POINT ( 'NONE',  ( 2.843192906295000100, 18.57120579083700207, 0.000000000000000000 ) ) ;
#596 = CARTESIAN_POINT ( 'NONE',  ( 3.405210200483000271, 16.65179531857299722, 0.000000000000000000 ) ) ;
#597 = ADVANCED_FACE ( 'NONE', ( #34 ), #790, .T. ) ;
#598 = VERTEX_POINT ( 'NONE', #220 ) ;
#599 = AXIS2_PLACEMENT_3D ( 'NONE', #278, #46, #373 ) ;
#600 = DIRECTION ( 'NONE',  ( 0.000000000000000000, 0.000000000000000000, 1.000000000000000000 ) ) ;
#601 = DIRECTION ( 'NONE',  ( 0.9995326604111419710, 0.03056895110115434924, 0.000000000000000000 ) ) ;
#602 = DIRECTION ( 'NONE',  ( 0.000000000000000000, 0.000000000000000000, 1.000000000000000000 ) ) ;
#603 = VERTEX_POINT ( 'NONE', #700 ) ;
#604 = CARTESIAN_POINT ( 'NONE',  ( 89.48666387701000247, 18.06092798281100187, 6.443264998540000121 ) ) ;
#605 = EDGE_CURVE ( 'NONE', #228, #455, #854, .T. ) ;
#606 = DIRECTION ( 'NONE',  ( 0.000000000000000000, 1.000000000000000000, 0.000000000000000000 ) ) ;
#607 = SHAPE_DEFINITION_REPRESENTATION ( #772, #397 ) ;
#608 = CARTESIAN_POINT ( 'NONE',  ( 0.000000000000000000, 26.17877380810200094, 13.32504156186099920 ) ) ;
#609 = ORIENTED_EDGE ( 'NONE', *, *, #949, .T. ) ;
#610 = FACE_OUTER_BOUND ( 'NONE', #937, .T. ) ;
#611 = CARTESIAN_POINT ( 'NONE',  ( 2.152568115207000421, 17.84799254570499727, 0.000000000000000000 ) ) ;
#612 = DIRECTION ( 'NONE',  ( 0.000000000000000000, 1.000000000000000000, 0.000000000000000000 ) ) ;
#613 = VERTEX_POINT ( 'NONE', #120 ) ;
#614 = DIRECTION ( 'NONE',  ( 0.000000000000000000, 0.000000000000000000, 1.000000000000000000 ) ) ;
#615 = AXIS2_PLACEMENT_3D ( 'NONE', #648, #642, #570 ) ;
#616 = VECTOR ( 'NONE', #283, 1000.000000000000114 ) ;
#617 = VECTOR ( 'NONE', #309, 1000.000000000000114 ) ;
#618 = EDGE_CURVE ( 'NONE', #809, #394, #457, .T. ) ;
#619 = DIRECTION ( 'NONE',  ( 0.000000000000000000, 0.000000000000000000, 1.000000000000000000 ) ) ;
#620 = EDGE_CURVE ( 'NONE', #656, #557, #362, .T. ) ;
#621 = LINE ( 'NONE', #1025, #846 ) ;
#622 = ORIENTED_EDGE ( 'NONE', *, *, #574, .F. ) ;
#623 = DIRECTION ( 'NONE',  ( 1.000000000000000000, 0.000000000000000000, 0.000000000000000000 ) ) ;
#624 = CARTESIAN_POINT ( 'NONE',  ( 0.000000000000000000, 0.000000000000000000, 29.21653698530499810 ) ) ;
#625 = CARTESIAN_POINT ( 'NONE',  ( 89.48666387701000247, 32.66201643535800514, 2.285296733156000570 ) ) ;
#626 = ORIENTED_EDGE ( 'NONE', *, *, #161, .F. ) ;
#627 = DIRECTION ( 'NONE',  ( -1.000000000000000000, 0.000000000000000000, 0.000000000000000000 ) ) ;
#628 = DIRECTION ( 'NONE',  ( -0.9995326604111419710, -0.03056895110115434924, 0.000000000000000000 ) ) ;
#629 = ORIENTED_EDGE ( 'NONE', *, *, #505, .F. ) ;
#630 = EDGE_CURVE ( 'NONE', #713, #702, #955, .T. ) ;
#631 = VECTOR ( 'NONE', #802, 1000.000000000000114 ) ;
#632 = VECTOR ( 'NONE', #674, 1000.000000000000114 ) ;
#633 = PRODUCT_DEFINITION_FORMATION_WITH_SPECIFIED_SOURCE ( 'ไป', '', #222, .NOT_KNOWN. ) ;
#634 = FACE_OUTER_BOUND ( 'NONE', #1002, .T. ) ;
#635 = ORIENTED_EDGE ( 'NONE', *, *, #1042, .F. ) ;
#636 = ORIENTED_EDGE ( 'NONE', *, *, #769, .T. ) ;
#637 = EDGE_CURVE ( 'NONE', #613, #398, #52, .T. ) ;
#638 = PLANE ( 'NONE',  #308 ) ;
#639 = ORIENTED_EDGE ( 'NONE', *, *, #1003, .F. ) ;
#640 = ORIENTED_EDGE ( 'NONE', *, *, #605, .T. ) ;
#641 = CARTESIAN_POINT ( 'NONE',  ( 70.28647335028399823, 13.60218245802899872, 29.21653698530499810 ) ) ;
#642 = DIRECTION ( 'NONE',  ( -0.000000000000000000, 1.000000000000000000, 0.000000000000000000 ) ) ;
#643 = ORIENTED_EDGE ( 'NONE', *, *, #943, .T. ) ;
#644 = VERTEX_POINT ( 'NONE', #378 ) ;
#645 = DIRECTION ( 'NONE',  ( -1.000000000000000000, 0.000000000000000000, 0.000000000000000000 ) ) ;
#646 = ADVANCED_FACE ( 'NONE', ( #706 ), #1041, .F. ) ;
#647 = VECTOR ( 'NONE', #418, 1000.000000000000114 ) ;
#648 = CARTESIAN_POINT ( 'NONE',  ( 89.48666387701000247, 26.17877380810200094, 6.443264998540000121 ) ) ;
#649 = VECTOR ( 'NONE', #627, 1000.000000000000000 ) ;
#650 = EDGE_CURVE ( 'NONE', #893, #348, #859, .T. ) ;
#651 = ORIENTED_EDGE ( 'NONE', *, *, #992, .F. ) ;
#652 = ORIENTED_EDGE ( 'NONE', *, *, #1020, .F. ) ;
#653 = DIRECTION ( 'NONE',  ( 0.000000000000000000, 0.000000000000000000, -1.000000000000000000 ) ) ;
#654 = CARTESIAN_POINT ( 'NONE',  ( 89.48666387701000247, 26.17877380810200094, 13.32504156186099920 ) ) ;
#655 = VERTEX_POINT ( 'NONE', #783 ) ;
#656 = VERTEX_POINT ( 'NONE', #80 ) ;
#657 = DIRECTION ( 'NONE',  ( 0.000000000000000000, 0.000000000000000000, -1.000000000000000000 ) ) ;
#658 = LINE ( 'NONE', #927, #477 ) ;
#659 = ORIENTED_EDGE ( 'NONE', *, *, #1060, .T. ) ;
#660 = EDGE_CURVE ( 'NONE', #733, #644, #993, .T. ) ;
#661 = EDGE_LOOP ( 'NONE', ( #883, #451, #112, #750 ) ) ;
#662 = LINE ( 'NONE', #915, #564 ) ;
#663 = LINE ( 'NONE', #9, #393 ) ;
#664 = VECTOR ( 'NONE', #234, 1000.000000000000000 ) ;
#665 = DIRECTION ( 'NONE',  ( 1.000000000000000000, 0.000000000000000000, 0.000000000000000000 ) ) ;
#666 =( GEOMETRIC_REPRESENTATION_CONTEXT ( 3 ) GLOBAL_UNCERTAINTY_ASSIGNED_CONTEXT ( ( #60 ) ) GLOBAL_UNIT_ASSIGNED_CONTEXT ( ( #12, #282, #197 ) ) REPRESENTATION_CONTEXT ( 'NONE', 'WORKASPACE' ) );
#667 = ORIENTED_EDGE ( 'NONE', *, *, #146, .F. ) ;
#668 = CARTESIAN_POINT ( 'NONE',  ( 83.98617164796399948, 22.16619665624000035, 0.000000000000000000 ) ) ;
#669 = EDGE_CURVE ( 'NONE', #820, #560, #818, .T. ) ;
#670 = LINE ( 'NONE', #192, #953 ) ;
#671 = CARTESIAN_POINT ( 'NONE',  ( 89.48666387701000247, 0.000000000000000000, 29.21653698530499810 ) ) ;
#672 = VERTEX_POINT ( 'NONE', #402 ) ;
#673 = ORIENTED_EDGE ( 'NONE', *, *, #395, .F. ) ;
#674 = DIRECTION ( 'NONE',  ( -0.9830057842052499772, 0.000000000000000000, -0.1835745848940464608 ) ) ;
#675 = EDGE_CURVE ( 'NONE', #598, #145, #982, .T. ) ;
#676 = DIRECTION ( 'NONE',  ( 0.000000000000000000, 0.000000000000000000, 1.000000000000000000 ) ) ;
#677 = LINE ( 'NONE', #512, #327 ) ;
#678 = FACE_OUTER_BOUND ( 'NONE', #292, .T. ) ;
#679 = VERTEX_POINT ( 'NONE', #729 ) ;
#680 = LINE ( 'NONE', #752, #310 ) ;
#681 = CARTESIAN_POINT ( 'NONE',  ( 0.000000000000000000, 0.000000000000000000, 29.21653698530499810 ) ) ;
#682 = CARTESIAN_POINT ( 'NONE',  ( 83.98617164796399948, 0.000000000000000000, 14.50880930412600023 ) ) ;
#683 = ADVANCED_FACE ( 'NONE', ( #413 ), #543, .F. ) ;
#684 = VECTOR ( 'NONE', #25, 999.9999999999998863 ) ;
#685 = VERTEX_POINT ( 'NONE', #1064 ) ;
#686 = AXIS2_PLACEMENT_3D ( 'NONE', #270, #419, #748 ) ;
#687 = CARTESIAN_POINT ( 'NONE',  ( 89.48666387701000247, 18.06092798281100187, 13.32504156186099920 ) ) ;
#688 = CARTESIAN_POINT ( 'NONE',  ( 70.28647335028399823, 0.000000000000000000, 29.21653698530499810 ) ) ;
#689 = CARTESIAN_POINT ( 'NONE',  ( 89.48666387701000247, 0.000000000000000000, 27.21653698530500165 ) ) ;
#690 = CARTESIAN_POINT ( 'NONE',  ( 4.095834991571000394, 17.37500856370499847, 0.000000000000000000 ) ) ;
#691 = ORIENTED_EDGE ( 'NONE', *, *, #751, .F. ) ;
#692 = CARTESIAN_POINT ( 'NONE',  ( 83.98617164796399948, 0.000000000000000000, 14.50880930412600023 ) ) ;
#693 = DIRECTION ( 'NONE',  ( 0.000000000000000000, 1.000000000000000000, 0.000000000000000000 ) ) ;
#694 = CARTESIAN_POINT ( 'NONE',  ( 89.48666387701000247, 22.16619665624000035, 0.000000000000000000 ) ) ;
#695 = LINE ( 'NONE', #121, #276 ) ;
#696 = VERTEX_POINT ( 'NONE', #562 ) ;
#697 = CARTESIAN_POINT ( 'NONE',  ( 2.433576762301000063, 16.88828730957299840, 0.000000000000000000 ) ) ;
#698 = ADVANCED_FACE ( 'NONE', ( #880 ), #323, .F. ) ;
#699 = EDGE_CURVE ( 'NONE', #679, #724, #662, .T. ) ;
#700 = CARTESIAN_POINT ( 'NONE',  ( 2.433576762301000063, 16.88828730957299840, 0.000000000000000000 ) ) ;
#701 = CARTESIAN_POINT ( 'NONE',  ( 89.48666387701000247, 18.06092798281100187, 13.32504156186099920 ) ) ;
#702 = VERTEX_POINT ( 'NONE', #8 ) ;
#703 = LINE ( 'NONE', #62, #18 ) ;
#704 = VECTOR ( 'NONE', #76, 1000.000000000000114 ) ;
#705 = VECTOR ( 'NONE', #1027, 1000.000000000000000 ) ;
#706 = FACE_OUTER_BOUND ( 'NONE', #765, .T. ) ;
#707 = DIRECTION ( 'NONE',  ( -0.6906247910881028185, -0.7232132451321078292, 0.000000000000000000 ) ) ;
#708 = ORIENTED_EDGE ( 'NONE', *, *, #637, .T. ) ;
#709 = CARTESIAN_POINT ( 'NONE',  ( 2.152568115207000421, 17.84799254570499727, 0.000000000000000000 ) ) ;
#710 = CARTESIAN_POINT ( 'NONE',  ( 3.405210200483000271, 16.65179531857299722, 0.000000000000000000 ) ) ;
#711 = EDGE_CURVE ( 'NONE', #724, #741, #4, .T. ) ;
#712 = CARTESIAN_POINT ( 'NONE',  ( 89.48666387701000247, 0.000000000000000000, 24.36832248840200066 ) ) ;
#713 = VERTEX_POINT ( 'NONE', #747 ) ;
#714 = DIRECTION ( 'NONE',  ( -0.7232132451321078292, 0.6906247910881028185, 0.000000000000000000 ) ) ;
#715 = VERTEX_POINT ( 'NONE', #976 ) ;
#716 = DIRECTION ( 'NONE',  ( 0.000000000000000000, 0.000000000000000000, -1.000000000000000000 ) ) ;
#717 = ORIENTED_EDGE ( 'NONE', *, *, #273, .T. ) ;
#718 = EDGE_CURVE ( 'NONE', #254, #696, #575, .T. ) ;
#719 = VERTEX_POINT ( 'NONE', #911 ) ;
#720 = AXIS2_PLACEMENT_3D ( 'NONE', #226, #403, #385 ) ;
#721 = VECTOR ( 'NONE', #442, 1000.000000000000000 ) ;
#722 = VECTOR ( 'NONE', #862, 1000.000000000000000 ) ;
#723 = PLANE ( 'NONE',  #754 ) ;
#724 = VERTEX_POINT ( 'NONE', #166 ) ;
#725 = EDGE_LOOP ( 'NONE', ( #1052, #593, #316, #95 ) ) ;
#726 = CARTESIAN_POINT ( 'NONE',  ( 70.28647335028399823, 13.60218245802899872, 29.21653698530499810 ) ) ;
#727 = ORIENTED_EDGE ( 'NONE', *, *, #520, .T. ) ;
#728 = ORIENTED_EDGE ( 'NONE', *, *, #554, .F. ) ;
#729 = CARTESIAN_POINT ( 'NONE',  ( 0.000000000000000000, 25.45999248556299932, 29.21653698530499810 ) ) ;
#730 = EDGE_CURVE ( 'NONE', #268, #223, #162, .T. ) ;
#731 = ADVANCED_FACE ( 'NONE', ( #735 ), #246, .F. ) ;
#732 = PLANE ( 'NONE',  #210 ) ;
#733 = VERTEX_POINT ( 'NONE', #487 ) ;
#734 = ORIENTED_EDGE ( 'NONE', *, *, #230, .F. ) ;
#735 = FACE_OUTER_BOUND ( 'NONE', #182, .T. ) ;
#736 = VECTOR ( 'NONE', #924, 1000.000000000000000 ) ;
#737 = AXIS2_PLACEMENT_3D ( 'NONE', #493, #251, #330 ) ;
#738 = FACE_OUTER_BOUND ( 'NONE', #148, .T. ) ;
#739 = VECTOR ( 'NONE', #942, 1000.000000000000000 ) ;
#740 = ORIENTED_EDGE ( 'NONE', *, *, #101, .T. ) ;
#741 = VERTEX_POINT ( 'NONE', #826 ) ;
#742 = CARTESIAN_POINT ( 'NONE',  ( 89.48666387701000247, 26.17877380810200094, 6.443264998540000121 ) ) ;
#743 = CARTESIAN_POINT ( 'NONE',  ( 2.433576762301000063, 16.88828730957299840, 0.000000000000000000 ) ) ;
#744 = EDGE_CURVE ( 'NONE', #359, #484, #1046, .T. ) ;
#745 = ORIENTED_EDGE ( 'NONE', *, *, #767, .F. ) ;
#746 = EDGE_LOOP ( 'NONE', ( #1013, #122, #65, #1026, #843, #673, #486, #281, #124 ) ) ;
#747 = CARTESIAN_POINT ( 'NONE',  ( 2.631031265587000068, 9.492120001274999552, 29.21653698530499810 ) ) ;
#748 = DIRECTION ( 'NONE',  ( 0.000000000000000000, 0.000000000000000000, -1.000000000000000000 ) ) ;
#749 = ORIENTED_EDGE ( 'NONE', *, *, #574, .T. ) ;
#750 = ORIENTED_EDGE ( 'NONE', *, *, #159, .F. ) ;
#751 = EDGE_CURVE ( 'NONE', #306, #851, #87, .T. ) ;
#752 = CARTESIAN_POINT ( 'NONE',  ( 83.98617164796399948, 3.526507497030999971, 14.50880930412600023 ) ) ;
#753 = FACE_OUTER_BOUND ( 'NONE', #746, .T. ) ;
#754 = AXIS2_PLACEMENT_3D ( 'NONE', #77, #147, #314 ) ;
#755 = VECTOR ( 'NONE', #619, 1000.000000000000000 ) ;
#756 = FACE_OUTER_BOUND ( 'NONE', #725, .T. ) ;
#757 = VECTOR ( 'NONE', #841, 1000.000000000000000 ) ;
#758 = VECTOR ( 'NONE', #300, 1000.000000000000000 ) ;
#759 = ORIENTED_EDGE ( 'NONE', *, *, #968, .F. ) ;
#760 = DIRECTION ( 'NONE',  ( -1.000000000000000000, 0.000000000000000000, 0.000000000000000000 ) ) ;
#761 = PRODUCT_RELATED_PRODUCT_CATEGORY ( 'part', '', ( #222 ) ) ;
#762 = DIRECTION ( 'NONE',  ( -0.1835745848940464608, 0.000000000000000000, 0.9830057842052499772 ) ) ;
#763 = LINE ( 'NONE', #929, #296 ) ;
#764 = DIRECTION ( 'NONE',  ( 0.000000000000000000, 0.000000000000000000, -1.000000000000000000 ) ) ;
#765 = EDGE_LOOP ( 'NONE', ( #248, #842, #519, #84 ) ) ;
#766 = SURFACE_STYLE_USAGE ( .BOTH. , #96 ) ;
#767 = EDGE_CURVE ( 'NONE', #898, #655, #57, .T. ) ;
#768 = DIRECTION ( 'NONE',  ( 1.000000000000000000, 0.000000000000000000, 0.000000000000000000 ) ) ;
#769 = EDGE_CURVE ( 'NONE', #223, #702, #255, .T. ) ;
#770 =( LENGTH_UNIT ( ) NAMED_UNIT ( * ) SI_UNIT ( .MILLI., .METRE. ) );
#771 = ORIENTED_EDGE ( 'NONE', *, *, #776, .F. ) ;
#772 = PRODUCT_DEFINITION_SHAPE ( 'NONE', 'NONE',  #389 ) ;
#773 = ORIENTED_EDGE ( 'NONE', *, *, #195, .F. ) ;
#774 = CARTESIAN_POINT ( 'NONE',  ( 3.814826344476999864, 18.33471379983699734, 0.000000000000000000 ) ) ;
#775 = DIRECTION ( 'NONE',  ( -0.9402831700331507614, 0.3403932434000544460, 0.000000000000000000 ) ) ;
#776 = EDGE_CURVE ( 'NONE', #1066, #158, #801, .T. ) ;
#777 = DIRECTION ( 'NONE',  ( 0.000000000000000000, 1.000000000000000000, 0.000000000000000000 ) ) ;
#778 = VECTOR ( 'NONE', #320, 1000.000000000000000 ) ;
#779 = EDGE_LOOP ( 'NONE', ( #771, #626, #578, #892, #478, #1008 ) ) ;
#780 = STYLED_ITEM ( 'NONE', ( #1014 ), #832 ) ;
#781 = LINE ( 'NONE', #852, #361 ) ;
#782 = VECTOR ( 'NONE', #98, 1000.000000000000000 ) ;
#783 = CARTESIAN_POINT ( 'NONE',  ( 89.48666387701000247, 32.66201643535800514, 2.285296733156000570 ) ) ;
#784 = CARTESIAN_POINT ( 'NONE',  ( 3.814826344476999864, 18.33471379983699734, 6.443264998540000121 ) ) ;
#785 = DIRECTION ( 'NONE',  ( -1.000000000000000000, 0.000000000000000000, 0.000000000000000000 ) ) ;
#786 = ADVANCED_FACE ( 'NONE', ( #317 ), #109, .T. ) ;
#787 = VERTEX_POINT ( 'NONE', #178 ) ;
#788 = DIRECTION ( 'NONE',  ( 0.000000000000000000, 0.000000000000000000, 1.000000000000000000 ) ) ;
#789 = ORIENTED_EDGE ( 'NONE', *, *, #63, .F. ) ;
#790 = PLANE ( 'NONE',  #599 ) ;
#791 = CARTESIAN_POINT ( 'NONE',  ( 2.748995108922000163, 7.970013970347000765, 26.03331470109900181 ) ) ;
#792 = VERTEX_POINT ( 'NONE', #933 ) ;
#793 = LINE ( 'NONE', #45, #705 ) ;
#794 = EDGE_CURVE ( 'NONE', #321, #560, #1009, .T. ) ;
#795 = DIRECTION ( 'NONE',  ( 0.000000000000000000, 0.000000000000000000, -1.000000000000000000 ) ) ;
#796 = DIRECTION ( 'NONE',  ( -0.6906247910881028185, -0.7232132451321078292, 0.000000000000000000 ) ) ;
#797 = ORIENTED_EDGE ( 'NONE', *, *, #794, .F. ) ;
#798 = DIRECTION ( 'NONE',  ( -0.4978562579982062641, 0.8672595611303594021, 0.000000000000000000 ) ) ;
#799 = AXIS2_PLACEMENT_3D ( 'NONE', #710, #135, #334 ) ;
#800 = EDGE_CURVE ( 'NONE', #484, #874, #781, .T. ) ;
#801 = LINE ( 'NONE', #92, #647 ) ;
#802 = DIRECTION ( 'NONE',  ( 0.6906247910881028185, 0.7232132451321078292, 0.000000000000000000 ) ) ;
#803 = VERTEX_POINT ( 'NONE', #203 ) ;
#804 = LINE ( 'NONE', #697, #566 ) ;
#805 = EDGE_CURVE ( 'NONE', #719, #145, #594, .T. ) ;
#806 = CARTESIAN_POINT ( 'NONE',  ( 6.294352401341999581, 3.526507497030999971, 0.000000000000000000 ) ) ;
#807 = ORIENTED_EDGE ( 'NONE', *, *, #1005, .T. ) ;
#808 = CARTESIAN_POINT ( 'NONE',  ( 6.294352401341999581, 3.526507497030999971, 0.000000000000000000 ) ) ;
#809 = VERTEX_POINT ( 'NONE', #27 ) ;
#810 = ORIENTED_EDGE ( 'NONE', *, *, #294, .F. ) ;
#811 = VECTOR ( 'NONE', #113, 1000.000000000000114 ) ;
#812 = DIRECTION ( 'NONE',  ( 0.2364919909999390057, 0.9716334381817480770, 0.000000000000000000 ) ) ;
#813 = ORIENTED_EDGE ( 'NONE', *, *, #711, .T. ) ;
#814 = ADVANCED_FACE ( 'NONE', ( #344 ), #355, .F. ) ;
#815 = APPLICATION_CONTEXT ( 'automotive_design' ) ;
#816 = VERTEX_POINT ( 'NONE', #858 ) ;
#817 = EDGE_CURVE ( 'NONE', #816, #394, #680, .T. ) ;
#818 = LINE ( 'NONE', #579, #704 ) ;
#819 = FACE_BOUND ( 'NONE', #1044, .T. ) ;
#820 = VERTEX_POINT ( 'NONE', #668 ) ;
#821 = ORIENTED_EDGE ( 'NONE', *, *, #650, .F. ) ;
#822 = DIRECTION ( 'NONE',  ( 0.000000000000000000, 0.000000000000000000, 1.000000000000000000 ) ) ;
#823 = PLANE ( 'NONE',  #720 ) ;
#824 = ORIENTED_EDGE ( 'NONE', *, *, #426, .T. ) ;
#825 = ORIENTED_EDGE ( 'NONE', *, *, #547, .F. ) ;
#826 = CARTESIAN_POINT ( 'NONE',  ( 89.48666387701000247, 28.19678494928900037, 2.285296733156000570 ) ) ;
#827 = EDGE_CURVE ( 'NONE', #787, #809, #188, .T. ) ;
#828 = VECTOR ( 'NONE', #518, 1000.000000000000000 ) ;
#829 = AXIS2_PLACEMENT_3D ( 'NONE', #431, #762, #693 ) ;
#830 = DIRECTION ( 'NONE',  ( 0.000000000000000000, -0.6728917613040608092, 0.7397409530160667934 ) ) ;
#831 = EDGE_LOOP ( 'NONE', ( #11, #165, #242, #325 ) ) ;
#832 = MANIFOLD_SOLID_BREP ( 'Open CASCADE STEP translator 7.5 8[1]', #425 ) ;
#833 = VERTEX_POINT ( 'NONE', #774 ) ;
#834 = DIRECTION ( 'NONE',  ( -1.000000000000000000, 0.000000000000000000, 0.000000000000000000 ) ) ;
#835 = LINE ( 'NONE', #167, #295 ) ;
#836 = EDGE_CURVE ( 'NONE', #264, #194, #435, .T. ) ;
#837 = CARTESIAN_POINT ( 'NONE',  ( 89.48666387701000247, 18.06092798281100187, 13.32504156186099920 ) ) ;
#838 = ORIENTED_EDGE ( 'NONE', *, *, #159, .T. ) ;
#839 = FILL_AREA_STYLE ('',( #844 ) ) ;
#840 = LINE ( 'NONE', #654, #969 ) ;
#841 = DIRECTION ( 'NONE',  ( 0.000000000000000000, 1.000000000000000000, 0.000000000000000000 ) ) ;
#842 = ORIENTED_EDGE ( 'NONE', *, *, #730, .T. ) ;
#843 = ORIENTED_EDGE ( 'NONE', *, *, #238, .F. ) ;
#844 = FILL_AREA_STYLE_COLOUR ( '', #172 ) ;
#845 = CARTESIAN_POINT ( 'NONE',  ( 2.843192906295000100, 18.57120579083700207, 0.000000000000000000 ) ) ;
#846 = VECTOR ( 'NONE', #956, 1000.000000000000000 ) ;
#847 = APPLICATION_PROTOCOL_DEFINITION ( 'draft international standard', 'automotive_design', 1998, #815 ) ;
#848 = VECTOR ( 'NONE', #171, 1000.000000000000114 ) ;
#849 = ORIENTED_EDGE ( 'NONE', *, *, #180, .F. ) ;
#850 = VECTOR ( 'NONE', #440, 1000.000000000000000 ) ;
#851 = VERTEX_POINT ( 'NONE', #926 ) ;
#852 = CARTESIAN_POINT ( 'NONE',  ( 70.28647335028399823, 13.60218245802899872, 27.21653698530500165 ) ) ;
#853 = EDGE_CURVE ( 'NONE', #979, #254, #429, .T. ) ;
#854 = LINE ( 'NONE', #1035, #138 ) ;
#855 = CARTESIAN_POINT ( 'NONE',  ( 0.000000000000000000, 25.45999248556299932, 2.285296733156000570 ) ) ;
#856 = DIRECTION ( 'NONE',  ( 0.000000000000000000, -1.000000000000000000, 0.000000000000000000 ) ) ;
#857 = ORIENTED_EDGE ( 'NONE', *, *, #800, .F. ) ;
#858 = CARTESIAN_POINT ( 'NONE',  ( 83.98617164796399948, 3.526507497030999971, 14.50880930412600023 ) ) ;
#859 = LINE ( 'NONE', #688, #345 ) ;
#860 = LINE ( 'NONE', #682, #241 ) ;
#861 = VERTEX_POINT ( 'NONE', #33 ) ;
#862 = DIRECTION ( 'NONE',  ( 1.000000000000000000, 0.000000000000000000, 0.000000000000000000 ) ) ;
#863 = EDGE_CURVE ( 'NONE', #347, #459, #360, .T. ) ;
#864 = DIRECTION ( 'NONE',  ( -1.000000000000000000, 0.000000000000000000, 0.000000000000000000 ) ) ;
#865 = CARTESIAN_POINT ( 'NONE',  ( 2.748995108922000163, 7.970013970347000765, 29.21653698530499810 ) ) ;
#866 = VECTOR ( 'NONE', #796, 1000.000000000000114 ) ;
#867 = ORIENTED_EDGE ( 'NONE', *, *, #542, .F. ) ;
#868 = VECTOR ( 'NONE', #453, 1000.000000000000114 ) ;
#869 = FACE_OUTER_BOUND ( 'NONE', #971, .T. ) ;
#870 = AXIS2_PLACEMENT_3D ( 'NONE', #456, #788, #1040 ) ;
#871 = CARTESIAN_POINT ( 'NONE',  ( 83.98617164796399948, 0.000000000000000000, 24.36832248840200066 ) ) ;
#872 = DIRECTION ( 'NONE',  ( 0.000000000000000000, -1.000000000000000000, 0.000000000000000000 ) ) ;
#873 = EDGE_CURVE ( 'NONE', #348, #861, #183, .T. ) ;
#874 = VERTEX_POINT ( 'NONE', #119 ) ;
#875 = DIRECTION ( 'NONE',  ( 0.2810086470938903958, -0.9597052361316267266, 0.000000000000000000 ) ) ;
#876 = LINE ( 'NONE', #611, #153 ) ;
#877 = CARTESIAN_POINT ( 'NONE',  ( 23.03329422153199602, 39.71401572201499874, 6.443264998540000121 ) ) ;
#878 = EDGE_LOOP ( 'NONE', ( #974, #759, #1062, #838, #370, #507 ) ) ;
#879 = CARTESIAN_POINT ( 'NONE',  ( 1.050589020674999929, 8.584856366142000539, 26.03331470109900181 ) ) ;
#880 = FACE_OUTER_BOUND ( 'NONE', #831, .T. ) ;
#881 = DIRECTION ( 'NONE',  ( -0.2810086470938903958, 0.9597052361316267266, 0.000000000000000000 ) ) ;
#882 = PRODUCT_DEFINITION_CONTEXT ( 'detailed design', #815, 'design' ) ;
#883 = ORIENTED_EDGE ( 'NONE', *, *, #650, .T. ) ;
#884 = CARTESIAN_POINT ( 'NONE',  ( 4.614754872067000413, 9.439092864744999645, 29.21653698530499810 ) ) ;
#885 = AXIS2_PLACEMENT_3D ( 'NONE', #701, #872, #221 ) ;
#886 = VECTOR ( 'NONE', #448, 1000.000000000000000 ) ;
#887 = ADVANCED_FACE ( 'NONE', ( #869 ), #387, .F. ) ;
#888 = CARTESIAN_POINT ( 'NONE',  ( 89.48666387701000247, 18.06092798281100187, 13.32504156186099920 ) ) ;
#889 = ORIENTED_EDGE ( 'NONE', *, *, #992, .T. ) ;
#890 = ORIENTED_EDGE ( 'NONE', *, *, #180, .T. ) ;
#891 = DIRECTION ( 'NONE',  ( -0.8672595611303592911, -0.4978562579982062641, 0.000000000000000000 ) ) ;
#892 = ORIENTED_EDGE ( 'NONE', *, *, #240, .F. ) ;
#893 = VERTEX_POINT ( 'NONE', #541 ) ;
#894 = ADVANCED_FACE ( 'NONE', ( #610 ), #141, .F. ) ;
#895 = DIRECTION ( 'NONE',  ( 0.7232132451321078292, -0.6906247910881028185, 0.000000000000000000 ) ) ;
#896 = EDGE_CURVE ( 'NONE', #348, #484, #224, .T. ) ;
#897 = ORIENTED_EDGE ( 'NONE', *, *, #69, .T. ) ;
#898 = VERTEX_POINT ( 'NONE', #291 ) ;
#899 = CARTESIAN_POINT ( 'NONE',  ( 0.000000000000000000, 25.45999248556299932, 29.21653698530499810 ) ) ;
#900 = VECTOR ( 'NONE', #356, 1000.000000000000114 ) ;
#901 = VECTOR ( 'NONE', #214, 1000.000000000000000 ) ;
#902 = DIRECTION ( 'NONE',  ( 0.000000000000000000, 1.000000000000000000, 0.000000000000000000 ) ) ;
#903 = ORIENTED_EDGE ( 'NONE', *, *, #461, .F. ) ;
#904 = EDGE_CURVE ( 'NONE', #398, #223, #371, .T. ) ;
#905 = EDGE_LOOP ( 'NONE', ( #540, #99, #489, #332 ) ) ;
#906 = DIRECTION ( 'NONE',  ( 0.9995326604111419710, 0.03056895110115434924, 0.000000000000000000 ) ) ;
#907 = FACE_OUTER_BOUND ( 'NONE', #878, .T. ) ;
#908 = EDGE_LOOP ( 'NONE', ( #118, #139, #749, #333, #381, #587, #313, #61 ) ) ;
#909 = EDGE_CURVE ( 'NONE', #603, #264, #804, .T. ) ;
#910 = ORIENTED_EDGE ( 'NONE', *, *, #198, .T. ) ;
#911 = CARTESIAN_POINT ( 'NONE',  ( 0.000000000000000000, 32.66201643535800514, 2.285296733156000570 ) ) ;
#912 = LINE ( 'NONE', #845, #1018 ) ;
#913 = CARTESIAN_POINT ( 'NONE',  ( 89.48666387701000247, 18.06092798281100187, 13.32504156186099920 ) ) ;
#914 = ORIENTED_EDGE ( 'NONE', *, *, #928, .T. ) ;
#915 = CARTESIAN_POINT ( 'NONE',  ( 0.000000000000000000, 25.45999248556299932, 29.21653698530499810 ) ) ;
#916 = ADVANCED_FACE ( 'NONE', ( #963 ), #219, .F. ) ;
#917 = VECTOR ( 'NONE', #707, 1000.000000000000114 ) ;
#918 = AXIS2_PLACEMENT_3D ( 'NONE', #503, #510, #349 ) ;
#919 = DIRECTION ( 'NONE',  ( 0.000000000000000000, 0.000000000000000000, 1.000000000000000000 ) ) ;
#920 = CARTESIAN_POINT ( 'NONE',  ( 6.139686992594999282, 10.39481244679700112, 13.32504156186099920 ) ) ;
#921 = ORIENTED_EDGE ( 'NONE', *, *, #1, .F. ) ;
#922 = DIRECTION ( 'NONE',  ( 0.000000000000000000, 1.000000000000000000, 0.000000000000000000 ) ) ;
#923 = CARTESIAN_POINT ( 'NONE',  ( 0.000000000000000000, 0.000000000000000000, 0.000000000000000000 ) ) ;
#924 = DIRECTION ( 'NONE',  ( 0.000000000000000000, 0.000000000000000000, -1.000000000000000000 ) ) ;
#925 = ORIENTED_EDGE ( 'NONE', *, *, #968, .T. ) ;
#926 = CARTESIAN_POINT ( 'NONE',  ( 23.50245532447599928, 26.17877380810200094, 13.32504156186099920 ) ) ;
#927 = CARTESIAN_POINT ( 'NONE',  ( 83.98617164796399948, 3.526507497030999971, 0.000000000000000000 ) ) ;
#928 = EDGE_CURVE ( 'NONE', #833, #980, #793, .T. ) ;
#929 = CARTESIAN_POINT ( 'NONE',  ( 2.433576762301000063, 16.88828730957299840, 0.000000000000000000 ) ) ;
#930 = FACE_OUTER_BOUND ( 'NONE', #545, .T. ) ;
#931 = ADVANCED_FACE ( 'NONE', ( #382 ), #469, .F. ) ;
#932 = ORIENTED_EDGE ( 'NONE', *, *, #711, .F. ) ;
#933 = CARTESIAN_POINT ( 'NONE',  ( 89.48666387701000247, 13.60218245802899872, 29.21653698530499810 ) ) ;
#934 = CARTESIAN_POINT ( 'NONE',  ( 0.000000000000000000, 32.66201643535800514, 0.000000000000000000 ) ) ;
#935 = AXIS2_PLACEMENT_3D ( 'NONE', #446, #260, #269 ) ;
#936 = CARTESIAN_POINT ( 'NONE',  ( 89.48666387701000247, 13.60218245802899872, 27.21653698530500165 ) ) ;
#937 = EDGE_LOOP ( 'NONE', ( #962, #434, #635, #68, #571, #55, #972, #691, #824 ) ) ;
#938 = LINE ( 'NONE', #533, #428 ) ;
#939 = LINE ( 'NONE', #689, #757 ) ;
#940 = CARTESIAN_POINT ( 'NONE',  ( 89.48666387701000247, 28.19678494928900037, 2.285296733156000570 ) ) ;
#941 = ORIENTED_EDGE ( 'NONE', *, *, #430, .T. ) ;
#942 = DIRECTION ( 'NONE',  ( -1.000000000000000000, 0.000000000000000000, 0.000000000000000000 ) ) ;
#943 = EDGE_CURVE ( 'NONE', #321, #861, #1045, .T. ) ;
#944 = CARTESIAN_POINT ( 'NONE',  ( 6.294352401341999581, 0.000000000000000000, 0.000000000000000000 ) ) ;
#945 = LINE ( 'NONE', #126, #70 ) ;
#946 = EDGE_LOOP ( 'NONE', ( #640, #1056, #1058, #337 ) ) ;
#947 = DIRECTION ( 'NONE',  ( 0.000000000000000000, 0.000000000000000000, 1.000000000000000000 ) ) ;
#948 = DIRECTION ( 'NONE',  ( 0.6906247910881028185, 0.7232132451321078292, 0.000000000000000000 ) ) ;
#949 = EDGE_CURVE ( 'NONE', #715, #573, #954, .T. ) ;
#950 = DIRECTION ( 'NONE',  ( 0.9995326604111419710, 0.03056895110115434924, 0.000000000000000000 ) ) ;
#951 = VECTOR ( 'NONE', #628, 1000.000000000000000 ) ;
#952 = ORIENTED_EDGE ( 'NONE', *, *, #81, .T. ) ;
#953 = VECTOR ( 'NONE', #256, 1000.000000000000000 ) ;
#954 = LINE ( 'NONE', #304, #649 ) ;
#955 = LINE ( 'NONE', #216, #410 ) ;
#956 = DIRECTION ( 'NONE',  ( -0.8672595611303592911, -0.4978562579982062641, 0.000000000000000000 ) ) ;
#957 = ORIENTED_EDGE ( 'NONE', *, *, #407, .T. ) ;
#958 = CARTESIAN_POINT ( 'NONE',  ( 70.28647335028399823, 0.000000000000000000, 27.21653698530500165 ) ) ;
#959 = CARTESIAN_POINT ( 'NONE',  ( 2.748995108922000163, 7.970013970347000765, 29.21653698530499810 ) ) ;
#960 = CARTESIAN_POINT ( 'NONE',  ( 1.050589020674999929, 8.584856366142000539, 29.21653698530499810 ) ) ;
#961 = EDGE_CURVE ( 'NONE', #656, #809, #703, .T. ) ;
#962 = ORIENTED_EDGE ( 'NONE', *, *, #863, .T. ) ;
#963 = FACE_OUTER_BOUND ( 'NONE', #31, .T. ) ;
#964 = EDGE_CURVE ( 'NONE', #158, #264, #546, .T. ) ;
#965 = CARTESIAN_POINT ( 'NONE',  ( 2.843192906295000100, 18.57120579083700207, 0.000000000000000000 ) ) ;
#966 = ORIENTED_EDGE ( 'NONE', *, *, #961, .T. ) ;
#967 = AXIS2_PLACEMENT_3D ( 'NONE', #837, #856, #764 ) ;
#968 = EDGE_CURVE ( 'NONE', #557, #679, #286, .T. ) ;
#969 = VECTOR ( 'NONE', #24, 1000.000000000000000 ) ;
#970 = CARTESIAN_POINT ( 'NONE',  ( 44.71250211129200380, 26.82744584130199783, 13.32504156186099920 ) ) ;
#971 = EDGE_LOOP ( 'NONE', ( #215, #708, #734, #529 ) ) ;
#972 = ORIENTED_EDGE ( 'NONE', *, *, #351, .F. ) ;
#973 = CARTESIAN_POINT ( 'NONE',  ( 89.48666387701000247, 26.17877380810200094, 13.32504156186099920 ) ) ;
#974 = ORIENTED_EDGE ( 'NONE', *, *, #699, .F. ) ;
#975 = ORIENTED_EDGE ( 'NONE', *, *, #81, .F. ) ;
#976 = CARTESIAN_POINT ( 'NONE',  ( 2.355908544544000005, 18.06092798281100187, 6.443264998540000121 ) ) ;
#977 = EDGE_CURVE ( 'NONE', #685, #573, #452, .T. ) ;
#978 = PLANE ( 'NONE',  #151 ) ;
#979 = VERTEX_POINT ( 'NONE', #536 ) ;
#980 = VERTEX_POINT ( 'NONE', #784 ) ;
#981 = VECTOR ( 'NONE', #47, 1000.000000000000227 ) ;
#982 = LINE ( 'NONE', #899, #379 ) ;
#983 = VECTOR ( 'NONE', #97, 1000.000000000000000 ) ;
#984 = DIRECTION ( 'NONE',  ( 0.000000000000000000, 0.000000000000000000, -1.000000000000000000 ) ) ;
#985 = ADVANCED_FACE ( 'NONE', ( #193 ), #432, .F. ) ;
#986 = ORIENTED_EDGE ( 'NONE', *, *, #699, .T. ) ;
#987 = ORIENTED_EDGE ( 'NONE', *, *, #590, .F. ) ;
#988 = DIRECTION ( 'NONE',  ( 0.000000000000000000, 0.000000000000000000, -1.000000000000000000 ) ) ;
#989 = LINE ( 'NONE', #175, #983 ) ;
#990 = DIRECTION ( 'NONE',  ( 0.000000000000000000, 1.000000000000000000, 0.000000000000000000 ) ) ;
#991 = VERTEX_POINT ( 'NONE', #106 ) ;
#992 = EDGE_CURVE ( 'NONE', #656, #996, #279, .T. ) ;
#993 = LINE ( 'NONE', #156, #211 ) ;
#994 = PLANE ( 'NONE',  #686 ) ;
#995 = CARTESIAN_POINT ( 'NONE',  ( 2.748995108922000163, 7.970013970347000765, 29.21653698530499810 ) ) ;
#996 = VERTEX_POINT ( 'NONE', #266 ) ;
#997 = CARTESIAN_POINT ( 'NONE',  ( 2.748995108922000163, 7.970013970347000765, 26.03331470109900181 ) ) ;
#998 = VECTOR ( 'NONE', #265, 1000.000000000000000 ) ;
#999 = LINE ( 'NONE', #1010, #998 ) ;
#1000 = VECTOR ( 'NONE', #875, 999.9999999999998863 ) ;
#1001 = DIRECTION ( 'NONE',  ( -1.000000000000000000, 0.000000000000000000, 0.000000000000000000 ) ) ;
#1002 = EDGE_LOOP ( 'NONE', ( #897, #315, #169, #39 ) ) ;
#1003 = EDGE_CURVE ( 'NONE', #792, #724, #1017, .T. ) ;
#1004 = DIRECTION ( 'NONE',  ( 0.000000000000000000, 0.000000000000000000, -1.000000000000000000 ) ) ;
#1005 = EDGE_CURVE ( 'NONE', #145, #741, #185, .T. ) ;
#1006 = CARTESIAN_POINT ( 'NONE',  ( 42.86796346029399984, 8.829324433468000777, 13.32504156186099920 ) ) ;
#1007 = ORIENTED_EDGE ( 'NONE', *, *, #1005, .F. ) ;
#1008 = ORIENTED_EDGE ( 'NONE', *, *, #964, .F. ) ;
#1009 = LINE ( 'NONE', #40, #227 ) ;
#1010 = CARTESIAN_POINT ( 'NONE',  ( 83.98617164796399948, 0.000000000000000000, 0.000000000000000000 ) ) ;
#1011 = DIRECTION ( 'NONE',  ( 0.000000000000000000, 1.000000000000000000, 0.000000000000000000 ) ) ;
#1012 = CARTESIAN_POINT ( 'NONE',  ( 89.48666387701000247, 0.000000000000000000, 0.000000000000000000 ) ) ;
#1013 = ORIENTED_EDGE ( 'NONE', *, *, #718, .T. ) ;
#1014 = PRESENTATION_STYLE_ASSIGNMENT (( #766 ) ) ;
#1015 = CARTESIAN_POINT ( 'NONE',  ( 2.355908544542999916, 18.06092798281100187, 6.662520780931000530 ) ) ;
#1016 = VECTOR ( 'NONE', #36, 1000.000000000000114 ) ;
#1017 = LINE ( 'NONE', #671, #782 ) ;
#1018 = VECTOR ( 'NONE', #919, 1000.000000000000000 ) ;
#1019 = DIRECTION ( 'NONE',  ( 0.000000000000000000, -1.000000000000000000, 0.000000000000000000 ) ) ;
#1020 = EDGE_CURVE ( 'NONE', #861, #874, #939, .T. ) ;
#1021 = ORIENTED_EDGE ( 'NONE', *, *, #351, .T. ) ;
#1022 = SURFACE_STYLE_FILL_AREA ( #839 ) ;
#1023 = DIRECTION ( 'NONE',  ( 0.000000000000000000, 0.000000000000000000, -1.000000000000000000 ) ) ;
#1024 = DIRECTION ( 'NONE',  ( 0.000000000000000000, 0.000000000000000000, 1.000000000000000000 ) ) ;
#1025 = CARTESIAN_POINT ( 'NONE',  ( 2.631031265587000068, 9.492120001274999552, 26.03331470109900181 ) ) ;
#1026 = ORIENTED_EDGE ( 'NONE', *, *, #949, .F. ) ;
#1027 = DIRECTION ( 'NONE',  ( 0.000000000000000000, 0.000000000000000000, 1.000000000000000000 ) ) ;
#1028 = EDGE_CURVE ( 'NONE', #100, #158, #30, .T. ) ;
#1029 = CARTESIAN_POINT ( 'NONE',  ( 2.843192906295000100, 18.57120579083700207, 0.000000000000000000 ) ) ;
#1030 = DIRECTION ( 'NONE',  ( -0.2810086470938903958, 0.9597052361316267266, 0.000000000000000000 ) ) ;
#1031 = DIRECTION ( 'NONE',  ( 0.000000000000000000, 1.000000000000000000, 0.000000000000000000 ) ) ;
#1032 = ORIENTED_EDGE ( 'NONE', *, *, #115, .F. ) ;
#1033 = CARTESIAN_POINT ( 'NONE',  ( 0.000000000000000000, 18.06092798281100187, 13.32504156186099920 ) ) ;
#1034 = ORIENTED_EDGE ( 'NONE', *, *, #407, .F. ) ;
#1035 = CARTESIAN_POINT ( 'NONE',  ( 3.814826344476999864, 18.33471379983699734, 0.000000000000000000 ) ) ;
#1036 = CARTESIAN_POINT ( 'NONE',  ( 2.152568115207000421, 17.84799254570499727, 29.21653698530499810 ) ) ;
#1037 = VECTOR ( 'NONE', #606, 1000.000000000000000 ) ;
#1038 = APPLICATION_CONTEXT ( 'automotive_design' ) ;
#1039 = ORIENTED_EDGE ( 'NONE', *, *, #744, .T. ) ;
#1040 = DIRECTION ( 'NONE',  ( 1.000000000000000000, 0.000000000000000000, 0.000000000000000000 ) ) ;
#1041 = PLANE ( 'NONE',  #190 ) ;
#1042 = EDGE_CURVE ( 'NONE', #644, #228, #437, .T. ) ;
#1043 = LINE ( 'NONE', #369, #225 ) ;
#1044 = EDGE_LOOP ( 'NONE', ( #810, #987, #160 ) ) ;
#1045 = LINE ( 'NONE', #376, #479 ) ;
#1046 = LINE ( 'NONE', #641, #71 ) ;
#1047 = DIRECTION ( 'NONE',  ( 0.000000000000000000, 0.000000000000000000, 1.000000000000000000 ) ) ;
#1048 = ORIENTED_EDGE ( 'NONE', *, *, #195, .T. ) ;
#1049 = DIRECTION ( 'NONE',  ( 1.000000000000000000, 0.000000000000000000, 0.000000000000000000 ) ) ;
#1050 = ORIENTED_EDGE ( 'NONE', *, *, #794, .T. ) ;
#1051 = PLANE ( 'NONE',  #615 ) ;
#1052 = ORIENTED_EDGE ( 'NONE', *, *, #580, .T. ) ;
#1053 = EDGE_CURVE ( 'NONE', #996, #719, #677, .T. ) ;
#1054 = VECTOR ( 'NONE', #1019, 1000.000000000000000 ) ;
#1055 = MECHANICAL_DESIGN_GEOMETRIC_PRESENTATION_REPRESENTATION (  '', ( #780 ), #666 ) ;
#1056 = ORIENTED_EDGE ( 'NONE', *, *, #161, .T. ) ;
#1057 = FACE_OUTER_BOUND ( 'NONE', #322, .T. ) ;
#1058 = ORIENTED_EDGE ( 'NONE', *, *, #450, .F. ) ;
#1059 = ORIENTED_EDGE ( 'NONE', *, *, #101, .F. ) ;
#1060 = EDGE_CURVE ( 'NONE', #603, #100, #763, .T. ) ;
#1061 = DIRECTION ( 'NONE',  ( 1.000000000000000000, 0.000000000000000000, 0.000000000000000000 ) ) ;
#1062 = ORIENTED_EDGE ( 'NONE', *, *, #572, .T. ) ;
#1063 = ORIENTED_EDGE ( 'NONE', *, *, #827, .T. ) ;
#1064 = CARTESIAN_POINT ( 'NONE',  ( 0.000000000000000000, 18.06092798281100187, 13.32504156186099920 ) ) ;
#1065 = CARTESIAN_POINT ( 'NONE',  ( 83.98617164796399948, 7.684892844559999325, 8.785955760641000367 ) ) ;
#1066 = VERTEX_POINT ( 'NONE', #522 ) ;
#1067 = ORIENTED_EDGE ( 'NONE', *, *, #904, .T. ) ;
#1068 = CARTESIAN_POINT ( 'NONE',  ( 89.48666387701000247, 26.17877380810200094, 13.32504156186099920 ) ) ;
#1069 = VECTOR ( 'NONE', #864, 1000.000000000000000 ) ;
#1070 = PLANE ( 'NONE',  #737 ) ;
ENDSEC;
END-ISO-10303-21;
